  0
SECTION
  2
HEADER
  9
$ANGBASE
  50
0.0
  9
$ANGDIR
  70
  1
  9
$MEASUREMENT
  70
0
  0
ENDSEC
  0
SECTION
  2
TABLES
  0
TABLE
  2
LTYPE
  70
1
  0
LTYPE
  2
CONTINUOUS
  70
0
  3
Solid line
  72
65
  73
0
  40
0.0
  0
ENDTAB
  0
TABLE
  2
STYLE
  70
4
  0
STYLE
  2
KICAD
  70
0
  40
0
  41
1
  42
1
  50
0
  71
0
  3
isocp.shx
  0
STYLE
  2
KICADB
  70
0
  40
0
  41
1
  42
1
  50
0
  71
0
  3
isocp.shx
  0
STYLE
  2
KICADI
  70
0
  40
0
  41
1
  42
1
  50
15
  71
0
  3
isocp.shx
  0
STYLE
  2
KICADBI
  70
0
  40
0
  41
1
  42
1
  50
15
  71
0
  3
isocp.shx
  0
ENDTAB
  0
TABLE
  2
LAYER
  70
24
  0
LAYER
  2
BLACK
  70
0
  62
250
  6
CONTINUOUS
  0
LAYER
  2
BLUE
  70
0
  62
5
  6
CONTINUOUS
  0
LAYER
  2
GREEN
  70
0
  62
3
  6
CONTINUOUS
  0
LAYER
  2
CYAN
  70
0
  62
4
  6
CONTINUOUS
  0
LAYER
  2
RED
  70
0
  62
1
  6
CONTINUOUS
  0
LAYER
  2
MAGENTA
  70
0
  62
6
  6
CONTINUOUS
  0
LAYER
  2
BROWN
  70
0
  62
54
  6
CONTINUOUS
  0
LAYER
  2
LIGHTGRAY
  70
0
  62
9
  6
CONTINUOUS
  0
LAYER
  2
DARKGRAY
  70
0
  62
8
  6
CONTINUOUS
  0
LAYER
  2
LIGHTBLUE
  70
0
  62
171
  6
CONTINUOUS
  0
LAYER
  2
LIGHTGREEN
  70
0
  62
91
  6
CONTINUOUS
  0
LAYER
  2
LIGHTCYAN
  70
0
  62
131
  6
CONTINUOUS
  0
LAYER
  2
LIGHTRED
  70
0
  62
11
  6
CONTINUOUS
  0
LAYER
  2
LIGHTMAGENTA
  70
0
  62
221
  6
CONTINUOUS
  0
LAYER
  2
YELLOW
  70
0
  62
2
  6
CONTINUOUS
  0
LAYER
  2
WHITE
  70
0
  62
7
  6
CONTINUOUS
  0
LAYER
  2
DARKDARKGRAY
  70
0
  62
251
  6
CONTINUOUS
  0
LAYER
  2
DARKBLUE
  70
0
  62
178
  6
CONTINUOUS
  0
LAYER
  2
DARKGREEN
  70
0
  62
98
  6
CONTINUOUS
  0
LAYER
  2
DARKCYAN
  70
0
  62
138
  6
CONTINUOUS
  0
LAYER
  2
DARKRED
  70
0
  62
18
  6
CONTINUOUS
  0
LAYER
  2
DARKMAGENTA
  70
0
  62
228
  6
CONTINUOUS
  0
LAYER
  2
DARKBROWN
  70
0
  62
58
  6
CONTINUOUS
  0
LAYER
  2
LIGHTYELLOW
  70
0
  62
51
  6
CONTINUOUS
  0
ENDTAB
  0
ENDSEC
  0
SECTION
  2
ENTITIES
0
LINE
8
BLACK
10
112.409
20
-88.0003
11
112.409
21
-93.9997
0
LINE
8
BLACK
10
112.409
20
-93.9997
11
114.591
21
-93.9997
0
LINE
8
BLACK
10
114.591
20
-93.9997
11
114.591
21
-88.0003
0
LINE
8
BLACK
10
114.591
20
-88.0003
11
112.409
21
-88.0003
0
LINE
8
BLACK
10
110.698
20
-88.9985
11
110.698
21
-94.998
0
LINE
8
BLACK
10
110.698
20
-94.998
11
111.105
21
-94.998
0
LINE
8
BLACK
10
111.105
20
-94.998
11
111.105
21
-88.9985
0
LINE
8
BLACK
10
111.105
20
-88.9985
11
110.698
21
-88.9985
0
LINE
8
BLACK
10
111.498
20
-88.9985
11
111.498
21
-94.998
0
LINE
8
BLACK
10
111.498
20
-94.998
11
111.905
21
-94.998
0
LINE
8
BLACK
10
111.905
20
-94.998
11
111.905
21
-88.9985
0
LINE
8
BLACK
10
111.905
20
-88.9985
11
111.498
21
-88.9985
0
LINE
8
BLACK
10
112.299
20
-90.5987
11
112.299
21
-96.5982
0
LINE
8
BLACK
10
112.299
20
-96.5982
11
112.705
21
-96.5982
0
LINE
8
BLACK
10
112.705
20
-96.5982
11
112.705
21
-90.5987
0
LINE
8
BLACK
10
112.705
20
-90.5987
11
112.299
21
-90.5987
0
LINE
8
BLACK
10
112.299
20
-89.7986
11
112.299
21
-95.7981
0
LINE
8
BLACK
10
112.299
20
-95.7981
11
112.705
21
-95.7981
0
LINE
8
BLACK
10
112.705
20
-95.7981
11
112.705
21
-89.7986
0
LINE
8
BLACK
10
112.705
20
-89.7986
11
112.299
21
-89.7986
0
LINE
8
BLACK
10
114.295
20
-90.5987
11
114.295
21
-96.5982
0
LINE
8
BLACK
10
114.295
20
-96.5982
11
114.701
21
-96.5982
0
LINE
8
BLACK
10
114.701
20
-96.5982
11
114.701
21
-90.5987
0
LINE
8
BLACK
10
114.701
20
-90.5987
11
114.295
21
-90.5987
0
LINE
8
BLACK
10
114.295
20
-89.7986
11
114.295
21
-95.7981
0
LINE
8
BLACK
10
114.295
20
-95.7981
11
114.701
21
-95.7981
0
LINE
8
BLACK
10
114.701
20
-95.7981
11
114.701
21
-89.7986
0
LINE
8
BLACK
10
114.701
20
-89.7986
11
114.295
21
-89.7986
0
LINE
8
BLACK
10
115.895
20
-88.9985
11
115.895
21
-94.998
0
LINE
8
BLACK
10
115.895
20
-94.998
11
116.302
21
-94.998
0
LINE
8
BLACK
10
116.302
20
-94.998
11
116.302
21
-88.9985
0
LINE
8
BLACK
10
116.302
20
-88.9985
11
115.895
21
-88.9985
0
LINE
8
BLACK
10
115.095
20
-88.9985
11
115.095
21
-94.998
0
LINE
8
BLACK
10
115.095
20
-94.998
11
115.502
21
-94.998
0
LINE
8
BLACK
10
115.502
20
-94.998
11
115.502
21
-88.9985
0
LINE
8
BLACK
10
115.502
20
-88.9985
11
115.095
21
-88.9985
0
LINE
8
BLACK
10
110.698
20
-87.002
11
110.698
21
-93.0015
0
LINE
8
BLACK
10
110.698
20
-93.0015
11
111.105
21
-93.0015
0
LINE
8
BLACK
10
111.105
20
-93.0015
11
111.105
21
-87.002
0
LINE
8
BLACK
10
111.105
20
-87.002
11
110.698
21
-87.002
0
LINE
8
BLACK
10
111.498
20
-87.002
11
111.498
21
-93.0015
0
LINE
8
BLACK
10
111.498
20
-93.0015
11
111.905
21
-93.0015
0
LINE
8
BLACK
10
111.905
20
-93.0015
11
111.905
21
-87.002
0
LINE
8
BLACK
10
111.905
20
-87.002
11
111.498
21
-87.002
0
LINE
8
BLACK
10
115.895
20
-87.002
11
115.895
21
-93.0015
0
LINE
8
BLACK
10
115.895
20
-93.0015
11
116.302
21
-93.0015
0
LINE
8
BLACK
10
116.302
20
-93.0015
11
116.302
21
-87.002
0
LINE
8
BLACK
10
116.302
20
-87.002
11
115.895
21
-87.002
0
LINE
8
BLACK
10
115.095
20
-87.002
11
115.095
21
-93.0015
0
LINE
8
BLACK
10
115.095
20
-93.0015
11
115.502
21
-93.0015
0
LINE
8
BLACK
10
115.502
20
-93.0015
11
115.502
21
-87.002
0
LINE
8
BLACK
10
115.502
20
-87.002
11
115.095
21
-87.002
0
LINE
8
BLACK
10
112.299
20
-85.4018
11
112.299
21
-91.4013
0
LINE
8
BLACK
10
112.299
20
-91.4013
11
112.705
21
-91.4013
0
LINE
8
BLACK
10
112.705
20
-91.4013
11
112.705
21
-85.4018
0
LINE
8
BLACK
10
112.705
20
-85.4018
11
112.299
21
-85.4018
0
LINE
8
BLACK
10
112.299
20
-86.2019
11
112.299
21
-92.2014
0
LINE
8
BLACK
10
112.299
20
-92.2014
11
112.705
21
-92.2014
0
LINE
8
BLACK
10
112.705
20
-92.2014
11
112.705
21
-86.2019
0
LINE
8
BLACK
10
112.705
20
-86.2019
11
112.299
21
-86.2019
0
LINE
8
BLACK
10
114.295
20
-85.4018
11
114.295
21
-91.4013
0
LINE
8
BLACK
10
114.295
20
-91.4013
11
114.701
21
-91.4013
0
LINE
8
BLACK
10
114.701
20
-91.4013
11
114.701
21
-85.4018
0
LINE
8
BLACK
10
114.701
20
-85.4018
11
114.295
21
-85.4018
0
LINE
8
BLACK
10
114.295
20
-86.2019
11
114.295
21
-92.2014
0
LINE
8
BLACK
10
114.295
20
-92.2014
11
114.701
21
-92.2014
0
LINE
8
BLACK
10
114.701
20
-92.2014
11
114.701
21
-86.2019
0
LINE
8
BLACK
10
114.701
20
-86.2019
11
114.295
21
-86.2019
0
CIRCLE
8
BLACK
10
112.776
20
-106.299
40
0.1524
0
CIRCLE
8
BLACK
10
120.396
20
-103.378
40
0.1524
0
CIRCLE
8
BLACK
10
113.157
20
-106.807
40
0.1524
0
CIRCLE
8
BLACK
10
121.031
20
-103.632
40
0.1524
0
CIRCLE
8
BLACK
10
114.4
20
-107.8
40
0.1524
0
CIRCLE
8
BLACK
10
122.682
20
-102.108
40
0.1524
0
CIRCLE
8
BLACK
10
113.792
20
-107.315
40
0.1524
0
CIRCLE
8
BLACK
10
121.539
20
-103.378
40
0.1524
0
CIRCLE
8
BLACK
10
111.189
20
-106.426
40
0.1524
0
CIRCLE
8
BLACK
10
116.586
20
-103.569
40
0.1524
0
CIRCLE
8
BLACK
10
111.824
20
-106.426
40
0.1524
0
CIRCLE
8
BLACK
10
117.031
20
-104.204
40
0.1524
0
CIRCLE
8
BLACK
10
122.2
20
-128.8
40
0.3
0
CIRCLE
8
BLACK
10
107.9
20
-128.7
40
0.3
0
CIRCLE
8
BLACK
10
108.4
20
-128.1
40
0.3
0
CIRCLE
8
BLACK
10
122.6
20
-128.1
40
0.3
0
CIRCLE
8
BLACK
10
120.3
20
-131.3
40
0.3
0
CIRCLE
8
BLACK
10
108.2
20
-131.4
40
0.3
0
CIRCLE
8
BLACK
10
121.8
20
-129.5
40
0.3
0
CIRCLE
8
BLACK
10
108.4
20
-129.5
40
0.3
0
CIRCLE
8
BLACK
10
116.5
20
-117
40
0.155
0
CIRCLE
8
BLACK
10
142.5
20
-115.4
40
0.3
0
CIRCLE
8
BLACK
10
120.9
20
-130.3
40
0.3
0
CIRCLE
8
BLACK
10
108
20
-130.4
40
0.3
0
CIRCLE
8
BLACK
10
111.379
20
-102.87
40
0.1524
0
CIRCLE
8
BLACK
10
111.697
20
-100.584
40
0.1524
0
CIRCLE
8
BLACK
10
124.079
20
-110.871
40
0.3
0
CIRCLE
8
BLACK
10
117.983
20
-110.998
40
0.3
0
CIRCLE
8
BLACK
10
116.078
20
-111.887
40
0.3
0
CIRCLE
8
BLACK
10
104.394
20
-118.11
40
0.3
0
CIRCLE
8
BLACK
10
121.666
20
-100.457
40
0.3
0
CIRCLE
8
BLACK
10
113.792
20
-100.457
40
0.3
0
CIRCLE
8
BLACK
10
116.586
20
-100.457
40
0.3
0
CIRCLE
8
BLACK
10
122.682
20
-96.393
40
0.3
0
CIRCLE
8
BLACK
10
122.555
20
-92.837
40
0.3
0
CIRCLE
8
BLACK
10
83.947
20
-103.251
40
0.3
0
CIRCLE
8
BLACK
10
81.407
20
-103.759
40
0.3
0
CIRCLE
8
BLACK
10
85.725
20
-99.187
40
0.3
0
CIRCLE
8
BLACK
10
83.439
20
-99.187
40
0.3
0
CIRCLE
8
BLACK
10
72.009
20
-99.949
40
0.3
0
LINE
8
BLACK
10
84.022
20
-117.729
11
84.022
21
-103.251
0
LINE
8
BLACK
10
83.872
20
-117.729
11
83.872
21
-103.251
0
ARC
8
BLACK
10
83.947
20
-103.251
40
0.075
50
360
51
540
0
ARC
8
BLACK
10
83.947
20
-117.729
40
0.075
50
180
51
360
0
LINE
8
BLACK
10
101.854
20
-117.423
11
103.759
21
-117.423
0
LINE
8
BLACK
10
101.854
20
-117.273
11
103.759
21
-117.273
0
ARC
8
BLACK
10
103.759
20
-117.348
40
0.075
50
270
51
450
0
ARC
8
BLACK
10
101.854
20
-117.348
40
0.075
50
90
51
270
0
LINE
8
BLACK
10
98.097
20
-121.211
11
101.907
21
-117.401
0
LINE
8
BLACK
10
97.991
20
-121.105
11
101.801
21
-117.295
0
ARC
8
BLACK
10
101.854
20
-117.348
40
0.075
50
315
51
495
0
ARC
8
BLACK
10
98.044
20
-121.158
40
0.075
50
135
51
315
0
LINE
8
BLACK
10
87.376
20
-121.233
11
98.044
21
-121.233
0
LINE
8
BLACK
10
87.376
20
-121.083
11
98.044
21
-121.083
0
ARC
8
BLACK
10
98.044
20
-121.158
40
0.075
50
270
51
450
0
ARC
8
BLACK
10
87.376
20
-121.158
40
0.075
50
90
51
270
0
LINE
8
BLACK
10
83.894
20
-117.782
11
87.323
21
-121.211
0
LINE
8
BLACK
10
84
20
-117.676
11
87.429
21
-121.105
0
ARC
8
BLACK
10
87.376
20
-121.158
40
0.075
50
225
51
405
0
ARC
8
BLACK
10
83.947
20
-117.729
40
0.075
50
45
51
225
0
LINE
8
BLACK
10
129.393
20
-119.94
11
123.47
21
-119.94
0
LINE
8
BLACK
10
123.47
20
-119.94
11
123.47
21
-101.952
0
LINE
8
BLACK
10
123.47
20
-101.952
11
123.35
21
-101.663
0
LINE
8
BLACK
10
123.35
20
-101.663
11
123.129
21
-101.441
0
LINE
8
BLACK
10
123.129
20
-101.441
11
122.839
21
-101.321
0
LINE
8
BLACK
10
122.839
20
-101.321
11
122.526
21
-101.32
0
LINE
8
BLACK
10
122.526
20
-101.32
11
122.237
21
-101.44
0
LINE
8
BLACK
10
122.237
20
-101.44
11
122.015
21
-101.661
0
LINE
8
BLACK
10
122.015
20
-101.661
11
121.895
21
-101.951
0
LINE
8
BLACK
10
121.895
20
-101.951
11
121.894
21
-102.264
0
LINE
8
BLACK
10
121.894
20
-102.264
11
122.014
21
-102.553
0
LINE
8
BLACK
10
122.014
20
-102.553
11
122.235
21
-102.775
0
LINE
8
BLACK
10
122.235
20
-102.775
11
122.525
21
-102.895
0
LINE
8
BLACK
10
122.525
20
-102.895
11
122.838
21
-102.896
0
LINE
8
BLACK
10
122.838
20
-102.896
11
123.127
21
-102.776
0
LINE
8
BLACK
10
123.127
20
-102.776
11
123.349
21
-102.555
0
LINE
8
BLACK
10
123.349
20
-102.555
11
123.469
21
-102.265
0
LINE
8
BLACK
10
123.469
20
-102.265
11
123.47
21
-101.952
0
LINE
8
BLACK
10
123.47
20
-101.952
11
123.47
21
-119.94
0
LINE
8
BLACK
10
123.47
20
-119.94
11
122.327
21
-119.94
0
LINE
8
BLACK
10
122.327
20
-119.94
11
122.327
21
-103.222
0
LINE
8
BLACK
10
122.327
20
-103.222
11
122.207
21
-102.933
0
LINE
8
BLACK
10
122.207
20
-102.933
11
121.986
21
-102.711
0
LINE
8
BLACK
10
121.986
20
-102.711
11
121.696
21
-102.591
0
LINE
8
BLACK
10
121.696
20
-102.591
11
121.383
21
-102.59
0
LINE
8
BLACK
10
121.383
20
-102.59
11
121.094
21
-102.71
0
LINE
8
BLACK
10
121.094
20
-102.71
11
120.967
21
-102.836
0
LINE
8
BLACK
10
120.967
20
-102.836
11
120.843
21
-102.711
0
LINE
8
BLACK
10
120.843
20
-102.711
11
120.553
21
-102.591
0
LINE
8
BLACK
10
120.553
20
-102.591
11
120.24
21
-102.59
0
LINE
8
BLACK
10
120.24
20
-102.59
11
119.951
21
-102.71
0
LINE
8
BLACK
10
119.951
20
-102.71
11
119.729
21
-102.931
0
LINE
8
BLACK
10
119.729
20
-102.931
11
119.609
21
-103.221
0
LINE
8
BLACK
10
119.609
20
-103.221
11
119.608
21
-103.534
0
LINE
8
BLACK
10
119.608
20
-103.534
11
119.728
21
-103.823
0
LINE
8
BLACK
10
119.728
20
-103.823
11
119.949
21
-104.045
0
LINE
8
BLACK
10
119.949
20
-104.045
11
120.239
21
-104.165
0
LINE
8
BLACK
10
120.239
20
-104.165
11
120.451
21
-104.165
0
LINE
8
BLACK
10
120.451
20
-104.165
11
120.584
21
-104.299
0
LINE
8
BLACK
10
120.584
20
-104.299
11
120.874
21
-104.419
0
LINE
8
BLACK
10
120.874
20
-104.419
11
121.187
21
-104.42
0
LINE
8
BLACK
10
121.187
20
-104.42
11
121.476
21
-104.3
0
LINE
8
BLACK
10
121.476
20
-104.3
11
121.611
21
-104.165
0
LINE
8
BLACK
10
121.611
20
-104.165
11
121.695
21
-104.166
0
LINE
8
BLACK
10
121.695
20
-104.166
11
121.984
21
-104.046
0
LINE
8
BLACK
10
121.984
20
-104.046
11
122.206
21
-103.825
0
LINE
8
BLACK
10
122.206
20
-103.825
11
122.326
21
-103.535
0
LINE
8
BLACK
10
122.326
20
-103.535
11
122.327
21
-103.222
0
LINE
8
BLACK
10
122.327
20
-103.222
11
122.327
21
-119.94
0
LINE
8
BLACK
10
122.327
20
-119.94
11
117.818
21
-119.94
0
LINE
8
BLACK
10
117.818
20
-119.94
11
117.818
21
-104.048
0
LINE
8
BLACK
10
117.818
20
-104.048
11
117.698
21
-103.758
0
LINE
8
BLACK
10
117.698
20
-103.758
11
117.477
21
-103.536
0
LINE
8
BLACK
10
117.477
20
-103.536
11
117.373
21
-103.493
0
LINE
8
BLACK
10
117.373
20
-103.493
11
117.374
21
-103.413
0
LINE
8
BLACK
10
117.374
20
-103.413
11
117.254
21
-103.123
0
LINE
8
BLACK
10
117.254
20
-103.123
11
117.033
21
-102.901
0
LINE
8
BLACK
10
117.033
20
-102.901
11
116.743
21
-102.781
0
LINE
8
BLACK
10
116.743
20
-102.781
11
116.43
21
-102.781
0
LINE
8
BLACK
10
116.43
20
-102.781
11
116.141
21
-102.901
0
LINE
8
BLACK
10
116.141
20
-102.901
11
115.919
21
-103.122
0
LINE
8
BLACK
10
115.919
20
-103.122
11
115.799
21
-103.411
0
LINE
8
BLACK
10
115.799
20
-103.411
11
115.798
21
-103.724
0
LINE
8
BLACK
10
115.798
20
-103.724
11
115.918
21
-104.014
0
LINE
8
BLACK
10
115.918
20
-104.014
11
116.139
21
-104.236
0
LINE
8
BLACK
10
116.139
20
-104.236
11
116.243
21
-104.279
0
LINE
8
BLACK
10
116.243
20
-104.279
11
116.243
21
-104.359
0
LINE
8
BLACK
10
116.243
20
-104.359
11
116.363
21
-104.649
0
LINE
8
BLACK
10
116.363
20
-104.649
11
116.584
21
-104.871
0
LINE
8
BLACK
10
116.584
20
-104.871
11
116.873
21
-104.991
0
LINE
8
BLACK
10
116.873
20
-104.991
11
117.186
21
-104.991
0
LINE
8
BLACK
10
117.186
20
-104.991
11
117.476
21
-104.871
0
LINE
8
BLACK
10
117.476
20
-104.871
11
117.698
21
-104.65
0
LINE
8
BLACK
10
117.698
20
-104.65
11
117.818
21
-104.361
0
LINE
8
BLACK
10
117.818
20
-104.361
11
117.818
21
-104.048
0
LINE
8
BLACK
10
117.818
20
-104.048
11
117.818
21
-119.94
0
LINE
8
BLACK
10
117.818
20
-119.94
11
117.29
21
-119.94
0
LINE
8
BLACK
10
117.29
20
-119.94
11
117.29
21
-116.844
0
LINE
8
BLACK
10
117.29
20
-116.844
11
117.17
21
-116.553
0
LINE
8
BLACK
10
117.17
20
-116.553
11
116.948
21
-116.331
0
LINE
8
BLACK
10
116.948
20
-116.331
11
116.658
21
-116.21
0
LINE
8
BLACK
10
116.658
20
-116.21
11
116.344
21
-116.21
0
LINE
8
BLACK
10
116.344
20
-116.21
11
116.053
21
-116.33
0
LINE
8
BLACK
10
116.053
20
-116.33
11
115.831
21
-116.552
0
LINE
8
BLACK
10
115.831
20
-116.552
11
115.71
21
-116.842
0
LINE
8
BLACK
10
115.71
20
-116.842
11
115.71
21
-117.156
0
LINE
8
BLACK
10
115.71
20
-117.156
11
115.83
21
-117.447
0
LINE
8
BLACK
10
115.83
20
-117.447
11
116.052
21
-117.669
0
LINE
8
BLACK
10
116.052
20
-117.669
11
116.342
21
-117.79
0
LINE
8
BLACK
10
116.342
20
-117.79
11
116.656
21
-117.79
0
LINE
8
BLACK
10
116.656
20
-117.79
11
116.947
21
-117.67
0
LINE
8
BLACK
10
116.947
20
-117.67
11
117.169
21
-117.448
0
LINE
8
BLACK
10
117.169
20
-117.448
11
117.29
21
-117.158
0
LINE
8
BLACK
10
117.29
20
-117.158
11
117.29
21
-116.844
0
LINE
8
BLACK
10
117.29
20
-116.844
11
117.29
21
-119.94
0
LINE
8
BLACK
10
117.29
20
-119.94
11
102.918
21
-119.94
0
LINE
8
BLACK
10
102.918
20
-119.94
11
102.742
21
-119.82
0
LINE
8
BLACK
10
102.742
20
-119.82
11
102.619
21
-113.919
0
LINE
8
BLACK
10
102.619
20
-113.919
11
105.156
21
-113.919
0
LINE
8
BLACK
10
105.156
20
-113.919
11
105.156
21
-110.998
0
LINE
8
BLACK
10
105.156
20
-110.998
11
113.008
21
-110.998
0
LINE
8
BLACK
10
113.008
20
-110.998
11
112.932
21
-107.566
0
LINE
8
BLACK
10
112.932
20
-107.566
11
113
21
-107.594
0
LINE
8
BLACK
10
113
20
-107.594
11
113.055
21
-107.594
0
LINE
8
BLACK
10
113.055
20
-107.594
11
113.124
21
-107.76
0
LINE
8
BLACK
10
113.124
20
-107.76
11
113.345
21
-107.982
0
LINE
8
BLACK
10
113.345
20
-107.982
11
113.635
21
-108.102
0
LINE
8
BLACK
10
113.635
20
-108.102
11
113.673
21
-108.102
0
LINE
8
BLACK
10
113.673
20
-108.102
11
113.732
21
-108.245
0
LINE
8
BLACK
10
113.732
20
-108.245
11
113.953
21
-108.467
0
LINE
8
BLACK
10
113.953
20
-108.467
11
114.243
21
-108.587
0
LINE
8
BLACK
10
114.243
20
-108.587
11
114.556
21
-108.588
0
LINE
8
BLACK
10
114.556
20
-108.588
11
114.845
21
-108.468
0
LINE
8
BLACK
10
114.845
20
-108.468
11
115.067
21
-108.247
0
LINE
8
BLACK
10
115.067
20
-108.247
11
115.187
21
-107.957
0
LINE
8
BLACK
10
115.187
20
-107.957
11
115.188
21
-107.644
0
LINE
8
BLACK
10
115.188
20
-107.644
11
115.068
21
-107.355
0
LINE
8
BLACK
10
115.068
20
-107.355
11
114.847
21
-107.133
0
LINE
8
BLACK
10
114.847
20
-107.133
11
114.557
21
-107.013
0
LINE
8
BLACK
10
114.557
20
-107.013
11
114.519
21
-107.013
0
LINE
8
BLACK
10
114.519
20
-107.013
11
114.46
21
-106.87
0
LINE
8
BLACK
10
114.46
20
-106.87
11
114.239
21
-106.648
0
LINE
8
BLACK
10
114.239
20
-106.648
11
113.949
21
-106.528
0
LINE
8
BLACK
10
113.949
20
-106.528
11
113.894
21
-106.528
0
LINE
8
BLACK
10
113.894
20
-106.528
11
113.825
21
-106.362
0
LINE
8
BLACK
10
113.825
20
-106.362
11
113.604
21
-106.14
0
LINE
8
BLACK
10
113.604
20
-106.14
11
113.554
21
-106.119
0
LINE
8
BLACK
10
113.554
20
-106.119
11
113.444
21
-105.854
0
LINE
8
BLACK
10
113.444
20
-105.854
11
113.223
21
-105.632
0
LINE
8
BLACK
10
113.223
20
-105.632
11
112.933
21
-105.512
0
LINE
8
BLACK
10
112.933
20
-105.512
11
112.887
21
-105.512
0
LINE
8
BLACK
10
112.887
20
-105.512
11
112.777
21
-100.508
0
LINE
8
BLACK
10
112.777
20
-100.508
11
113.083
21
-100.203
0
LINE
8
BLACK
10
113.083
20
-100.203
11
122.174
21
-100.203
0
LINE
8
BLACK
10
122.174
20
-100.203
11
122.174
21
-91.948
0
LINE
8
BLACK
10
122.174
20
-91.948
11
125.986
21
-91.948
0
LINE
8
BLACK
10
125.986
20
-91.948
11
126.11
21
-101.862
0
LINE
8
BLACK
10
126.11
20
-101.862
11
124.245
21
-101.978
0
LINE
8
BLACK
10
124.245
20
-101.978
11
123.966
21
-101.765
0
LINE
8
BLACK
10
123.966
20
-101.765
11
124.068
21
-110.998
0
LINE
8
BLACK
10
124.068
20
-110.998
11
129.287
21
-110.998
0
LINE
8
BLACK
10
129.287
20
-110.998
11
129.393
21
-119.94
0
LINE
8
BLACK
10
129.393
20
-119.94
11
123.47
21
-119.94
0
LINE
8
BLACK
10
123.47
20
-119.94
11
123.47
21
-101.952
0
LINE
8
BLACK
10
123.47
20
-101.952
11
123.35
21
-101.663
0
LINE
8
BLACK
10
123.35
20
-101.663
11
123.129
21
-101.441
0
LINE
8
BLACK
10
123.129
20
-101.441
11
122.839
21
-101.321
0
LINE
8
BLACK
10
122.839
20
-101.321
11
122.526
21
-101.32
0
LINE
8
BLACK
10
122.526
20
-101.32
11
122.237
21
-101.44
0
LINE
8
BLACK
10
122.237
20
-101.44
11
122.015
21
-101.661
0
LINE
8
BLACK
10
122.015
20
-101.661
11
121.895
21
-101.951
0
LINE
8
BLACK
10
121.895
20
-101.951
11
121.894
21
-102.264
0
LINE
8
BLACK
10
121.894
20
-102.264
11
122.014
21
-102.553
0
LINE
8
BLACK
10
122.014
20
-102.553
11
122.235
21
-102.775
0
LINE
8
BLACK
10
122.235
20
-102.775
11
122.525
21
-102.895
0
LINE
8
BLACK
10
122.525
20
-102.895
11
122.838
21
-102.896
0
LINE
8
BLACK
10
122.838
20
-102.896
11
123.127
21
-102.776
0
LINE
8
BLACK
10
123.127
20
-102.776
11
123.349
21
-102.555
0
LINE
8
BLACK
10
123.349
20
-102.555
11
123.469
21
-102.265
0
LINE
8
BLACK
10
123.469
20
-102.265
11
123.47
21
-101.952
0
LINE
8
BLACK
10
123.47
20
-101.952
11
123.47
21
-119.94
0
LINE
8
BLACK
10
123.47
20
-119.94
11
122.327
21
-119.94
0
LINE
8
BLACK
10
122.327
20
-119.94
11
122.327
21
-103.222
0
LINE
8
BLACK
10
122.327
20
-103.222
11
122.207
21
-102.933
0
LINE
8
BLACK
10
122.207
20
-102.933
11
121.986
21
-102.711
0
LINE
8
BLACK
10
121.986
20
-102.711
11
121.696
21
-102.591
0
LINE
8
BLACK
10
121.696
20
-102.591
11
121.383
21
-102.59
0
LINE
8
BLACK
10
121.383
20
-102.59
11
121.094
21
-102.71
0
LINE
8
BLACK
10
121.094
20
-102.71
11
120.967
21
-102.836
0
LINE
8
BLACK
10
120.967
20
-102.836
11
120.843
21
-102.711
0
LINE
8
BLACK
10
120.843
20
-102.711
11
120.553
21
-102.591
0
LINE
8
BLACK
10
120.553
20
-102.591
11
120.24
21
-102.59
0
LINE
8
BLACK
10
120.24
20
-102.59
11
119.951
21
-102.71
0
LINE
8
BLACK
10
119.951
20
-102.71
11
119.729
21
-102.931
0
LINE
8
BLACK
10
119.729
20
-102.931
11
119.609
21
-103.221
0
LINE
8
BLACK
10
119.609
20
-103.221
11
119.608
21
-103.534
0
LINE
8
BLACK
10
119.608
20
-103.534
11
119.728
21
-103.823
0
LINE
8
BLACK
10
119.728
20
-103.823
11
119.949
21
-104.045
0
LINE
8
BLACK
10
119.949
20
-104.045
11
120.239
21
-104.165
0
LINE
8
BLACK
10
120.239
20
-104.165
11
120.451
21
-104.165
0
LINE
8
BLACK
10
120.451
20
-104.165
11
120.584
21
-104.299
0
LINE
8
BLACK
10
120.584
20
-104.299
11
120.874
21
-104.419
0
LINE
8
BLACK
10
120.874
20
-104.419
11
121.187
21
-104.42
0
LINE
8
BLACK
10
121.187
20
-104.42
11
121.476
21
-104.3
0
LINE
8
BLACK
10
121.476
20
-104.3
11
121.611
21
-104.165
0
LINE
8
BLACK
10
121.611
20
-104.165
11
121.695
21
-104.166
0
LINE
8
BLACK
10
121.695
20
-104.166
11
121.984
21
-104.046
0
LINE
8
BLACK
10
121.984
20
-104.046
11
122.206
21
-103.825
0
LINE
8
BLACK
10
122.206
20
-103.825
11
122.326
21
-103.535
0
LINE
8
BLACK
10
122.326
20
-103.535
11
122.327
21
-103.222
0
LINE
8
BLACK
10
122.327
20
-103.222
11
122.327
21
-119.94
0
LINE
8
BLACK
10
122.327
20
-119.94
11
117.818
21
-119.94
0
LINE
8
BLACK
10
117.818
20
-119.94
11
117.818
21
-104.048
0
LINE
8
BLACK
10
117.818
20
-104.048
11
117.698
21
-103.758
0
LINE
8
BLACK
10
117.698
20
-103.758
11
117.477
21
-103.536
0
LINE
8
BLACK
10
117.477
20
-103.536
11
117.373
21
-103.493
0
LINE
8
BLACK
10
117.373
20
-103.493
11
117.374
21
-103.413
0
LINE
8
BLACK
10
117.374
20
-103.413
11
117.254
21
-103.123
0
LINE
8
BLACK
10
117.254
20
-103.123
11
117.033
21
-102.901
0
LINE
8
BLACK
10
117.033
20
-102.901
11
116.743
21
-102.781
0
LINE
8
BLACK
10
116.743
20
-102.781
11
116.43
21
-102.781
0
LINE
8
BLACK
10
116.43
20
-102.781
11
116.141
21
-102.901
0
LINE
8
BLACK
10
116.141
20
-102.901
11
115.919
21
-103.122
0
LINE
8
BLACK
10
115.919
20
-103.122
11
115.799
21
-103.411
0
LINE
8
BLACK
10
115.799
20
-103.411
11
115.798
21
-103.724
0
LINE
8
BLACK
10
115.798
20
-103.724
11
115.918
21
-104.014
0
LINE
8
BLACK
10
115.918
20
-104.014
11
116.139
21
-104.236
0
LINE
8
BLACK
10
116.139
20
-104.236
11
116.243
21
-104.279
0
LINE
8
BLACK
10
116.243
20
-104.279
11
116.243
21
-104.359
0
LINE
8
BLACK
10
116.243
20
-104.359
11
116.363
21
-104.649
0
LINE
8
BLACK
10
116.363
20
-104.649
11
116.584
21
-104.871
0
LINE
8
BLACK
10
116.584
20
-104.871
11
116.873
21
-104.991
0
LINE
8
BLACK
10
116.873
20
-104.991
11
117.186
21
-104.991
0
LINE
8
BLACK
10
117.186
20
-104.991
11
117.476
21
-104.871
0
LINE
8
BLACK
10
117.476
20
-104.871
11
117.698
21
-104.65
0
LINE
8
BLACK
10
117.698
20
-104.65
11
117.818
21
-104.361
0
LINE
8
BLACK
10
117.818
20
-104.361
11
117.818
21
-104.048
0
LINE
8
BLACK
10
117.818
20
-104.048
11
117.818
21
-119.94
0
LINE
8
BLACK
10
117.818
20
-119.94
11
117.29
21
-119.94
0
LINE
8
BLACK
10
117.29
20
-119.94
11
117.29
21
-116.844
0
LINE
8
BLACK
10
117.29
20
-116.844
11
117.17
21
-116.553
0
LINE
8
BLACK
10
117.17
20
-116.553
11
116.948
21
-116.331
0
LINE
8
BLACK
10
116.948
20
-116.331
11
116.658
21
-116.21
0
LINE
8
BLACK
10
116.658
20
-116.21
11
116.344
21
-116.21
0
LINE
8
BLACK
10
116.344
20
-116.21
11
116.053
21
-116.33
0
LINE
8
BLACK
10
116.053
20
-116.33
11
115.831
21
-116.552
0
LINE
8
BLACK
10
115.831
20
-116.552
11
115.71
21
-116.842
0
LINE
8
BLACK
10
115.71
20
-116.842
11
115.71
21
-117.156
0
LINE
8
BLACK
10
115.71
20
-117.156
11
115.83
21
-117.447
0
LINE
8
BLACK
10
115.83
20
-117.447
11
116.052
21
-117.669
0
LINE
8
BLACK
10
116.052
20
-117.669
11
116.342
21
-117.79
0
LINE
8
BLACK
10
116.342
20
-117.79
11
116.656
21
-117.79
0
LINE
8
BLACK
10
116.656
20
-117.79
11
116.947
21
-117.67
0
LINE
8
BLACK
10
116.947
20
-117.67
11
117.169
21
-117.448
0
LINE
8
BLACK
10
117.169
20
-117.448
11
117.29
21
-117.158
0
LINE
8
BLACK
10
117.29
20
-117.158
11
117.29
21
-116.844
0
LINE
8
BLACK
10
117.29
20
-116.844
11
117.29
21
-119.94
0
LINE
8
BLACK
10
117.29
20
-119.94
11
102.918
21
-119.94
0
LINE
8
BLACK
10
102.918
20
-119.94
11
102.742
21
-119.82
0
LINE
8
BLACK
10
102.742
20
-119.82
11
102.619
21
-113.919
0
LINE
8
BLACK
10
102.619
20
-113.919
11
105.156
21
-113.919
0
LINE
8
BLACK
10
105.156
20
-113.919
11
105.156
21
-110.998
0
LINE
8
BLACK
10
105.156
20
-110.998
11
113.008
21
-110.998
0
LINE
8
BLACK
10
113.008
20
-110.998
11
112.932
21
-107.566
0
LINE
8
BLACK
10
112.932
20
-107.566
11
113
21
-107.594
0
LINE
8
BLACK
10
113
20
-107.594
11
113.055
21
-107.594
0
LINE
8
BLACK
10
113.055
20
-107.594
11
113.124
21
-107.76
0
LINE
8
BLACK
10
113.124
20
-107.76
11
113.345
21
-107.982
0
LINE
8
BLACK
10
113.345
20
-107.982
11
113.635
21
-108.102
0
LINE
8
BLACK
10
113.635
20
-108.102
11
113.673
21
-108.102
0
LINE
8
BLACK
10
113.673
20
-108.102
11
113.732
21
-108.245
0
LINE
8
BLACK
10
113.732
20
-108.245
11
113.953
21
-108.467
0
LINE
8
BLACK
10
113.953
20
-108.467
11
114.243
21
-108.587
0
LINE
8
BLACK
10
114.243
20
-108.587
11
114.556
21
-108.588
0
LINE
8
BLACK
10
114.556
20
-108.588
11
114.845
21
-108.468
0
LINE
8
BLACK
10
114.845
20
-108.468
11
115.067
21
-108.247
0
LINE
8
BLACK
10
115.067
20
-108.247
11
115.187
21
-107.957
0
LINE
8
BLACK
10
115.187
20
-107.957
11
115.188
21
-107.644
0
LINE
8
BLACK
10
115.188
20
-107.644
11
115.068
21
-107.355
0
LINE
8
BLACK
10
115.068
20
-107.355
11
114.847
21
-107.133
0
LINE
8
BLACK
10
114.847
20
-107.133
11
114.557
21
-107.013
0
LINE
8
BLACK
10
114.557
20
-107.013
11
114.519
21
-107.013
0
LINE
8
BLACK
10
114.519
20
-107.013
11
114.46
21
-106.87
0
LINE
8
BLACK
10
114.46
20
-106.87
11
114.239
21
-106.648
0
LINE
8
BLACK
10
114.239
20
-106.648
11
113.949
21
-106.528
0
LINE
8
BLACK
10
113.949
20
-106.528
11
113.894
21
-106.528
0
LINE
8
BLACK
10
113.894
20
-106.528
11
113.825
21
-106.362
0
LINE
8
BLACK
10
113.825
20
-106.362
11
113.604
21
-106.14
0
LINE
8
BLACK
10
113.604
20
-106.14
11
113.554
21
-106.119
0
LINE
8
BLACK
10
113.554
20
-106.119
11
113.444
21
-105.854
0
LINE
8
BLACK
10
113.444
20
-105.854
11
113.223
21
-105.632
0
LINE
8
BLACK
10
113.223
20
-105.632
11
112.933
21
-105.512
0
LINE
8
BLACK
10
112.933
20
-105.512
11
112.887
21
-105.512
0
LINE
8
BLACK
10
112.887
20
-105.512
11
112.777
21
-100.508
0
LINE
8
BLACK
10
112.777
20
-100.508
11
113.083
21
-100.203
0
LINE
8
BLACK
10
113.083
20
-100.203
11
122.174
21
-100.203
0
LINE
8
BLACK
10
122.174
20
-100.203
11
122.174
21
-91.948
0
LINE
8
BLACK
10
122.174
20
-91.948
11
125.986
21
-91.948
0
LINE
8
BLACK
10
125.986
20
-91.948
11
126.11
21
-101.862
0
LINE
8
BLACK
10
126.11
20
-101.862
11
124.245
21
-101.978
0
LINE
8
BLACK
10
124.245
20
-101.978
11
123.966
21
-101.765
0
LINE
8
BLACK
10
123.966
20
-101.765
11
124.068
21
-110.998
0
LINE
8
BLACK
10
124.068
20
-110.998
11
129.287
21
-110.998
0
LINE
8
BLACK
10
129.287
20
-110.998
11
129.393
21
-119.94
0
LINE
8
BLACK
10
86.741
20
-106.045
11
71.4989
21
-106.045
0
LINE
8
BLACK
10
71.4989
20
-106.045
11
71.3761
21
-98.552
0
LINE
8
BLACK
10
71.3761
20
-98.552
11
86.741
21
-98.552
0
LINE
8
BLACK
10
86.741
20
-98.552
11
86.741
21
-106.045
0
LINE
8
BLACK
10
86.741
20
-106.045
11
71.4989
21
-106.045
0
LINE
8
BLACK
10
71.4989
20
-106.045
11
71.3761
21
-98.552
0
LINE
8
BLACK
10
71.3761
20
-98.552
11
86.741
21
-98.552
0
LINE
8
BLACK
10
86.741
20
-98.552
11
86.741
21
-106.045
  0
ENDSEC
  0
EOF
