  0
SECTION
  2
HEADER
  9
$ANGBASE
  50
0.0
  9
$ANGDIR
  70
  1
  9
$MEASUREMENT
  70
0
  0
ENDSEC
  0
SECTION
  2
TABLES
  0
TABLE
  2
LTYPE
  70
1
  0
LTYPE
  2
CONTINUOUS
  70
0
  3
Solid line
  72
65
  73
0
  40
0.0
  0
ENDTAB
  0
TABLE
  2
STYLE
  70
4
  0
STYLE
  2
KICAD
  70
0
  40
0
  41
1
  42
1
  50
0
  71
0
  3
isocp.shx
  0
STYLE
  2
KICADB
  70
0
  40
0
  41
1
  42
1
  50
0
  71
0
  3
isocp.shx
  0
STYLE
  2
KICADI
  70
0
  40
0
  41
1
  42
1
  50
15
  71
0
  3
isocp.shx
  0
STYLE
  2
KICADBI
  70
0
  40
0
  41
1
  42
1
  50
15
  71
0
  3
isocp.shx
  0
ENDTAB
  0
TABLE
  2
LAYER
  70
24
  0
LAYER
  2
BLACK
  70
0
  62
250
  6
CONTINUOUS
  0
LAYER
  2
BLUE
  70
0
  62
5
  6
CONTINUOUS
  0
LAYER
  2
GREEN
  70
0
  62
3
  6
CONTINUOUS
  0
LAYER
  2
CYAN
  70
0
  62
4
  6
CONTINUOUS
  0
LAYER
  2
RED
  70
0
  62
1
  6
CONTINUOUS
  0
LAYER
  2
MAGENTA
  70
0
  62
6
  6
CONTINUOUS
  0
LAYER
  2
BROWN
  70
0
  62
54
  6
CONTINUOUS
  0
LAYER
  2
LIGHTGRAY
  70
0
  62
9
  6
CONTINUOUS
  0
LAYER
  2
DARKGRAY
  70
0
  62
8
  6
CONTINUOUS
  0
LAYER
  2
LIGHTBLUE
  70
0
  62
171
  6
CONTINUOUS
  0
LAYER
  2
LIGHTGREEN
  70
0
  62
91
  6
CONTINUOUS
  0
LAYER
  2
LIGHTCYAN
  70
0
  62
131
  6
CONTINUOUS
  0
LAYER
  2
LIGHTRED
  70
0
  62
11
  6
CONTINUOUS
  0
LAYER
  2
LIGHTMAGENTA
  70
0
  62
221
  6
CONTINUOUS
  0
LAYER
  2
YELLOW
  70
0
  62
2
  6
CONTINUOUS
  0
LAYER
  2
WHITE
  70
0
  62
7
  6
CONTINUOUS
  0
LAYER
  2
DARKDARKGRAY
  70
0
  62
251
  6
CONTINUOUS
  0
LAYER
  2
DARKBLUE
  70
0
  62
178
  6
CONTINUOUS
  0
LAYER
  2
DARKGREEN
  70
0
  62
98
  6
CONTINUOUS
  0
LAYER
  2
DARKCYAN
  70
0
  62
138
  6
CONTINUOUS
  0
LAYER
  2
DARKRED
  70
0
  62
18
  6
CONTINUOUS
  0
LAYER
  2
DARKMAGENTA
  70
0
  62
228
  6
CONTINUOUS
  0
LAYER
  2
DARKBROWN
  70
0
  62
58
  6
CONTINUOUS
  0
LAYER
  2
LIGHTYELLOW
  70
0
  62
51
  6
CONTINUOUS
  0
ENDTAB
  0
ENDSEC
  0
SECTION
  2
ENTITIES
0
LINE
8
BLACK
10
112.409
20
-88.0003
11
112.409
21
-93.9997
0
LINE
8
BLACK
10
112.409
20
-93.9997
11
114.591
21
-93.9997
0
LINE
8
BLACK
10
114.591
20
-93.9997
11
114.591
21
-88.0003
0
LINE
8
BLACK
10
114.591
20
-88.0003
11
112.409
21
-88.0003
0
LINE
8
BLACK
10
110.698
20
-88.9985
11
110.698
21
-94.998
0
LINE
8
BLACK
10
110.698
20
-94.998
11
111.105
21
-94.998
0
LINE
8
BLACK
10
111.105
20
-94.998
11
111.105
21
-88.9985
0
LINE
8
BLACK
10
111.105
20
-88.9985
11
110.698
21
-88.9985
0
LINE
8
BLACK
10
111.498
20
-88.9985
11
111.498
21
-94.998
0
LINE
8
BLACK
10
111.498
20
-94.998
11
111.905
21
-94.998
0
LINE
8
BLACK
10
111.905
20
-94.998
11
111.905
21
-88.9985
0
LINE
8
BLACK
10
111.905
20
-88.9985
11
111.498
21
-88.9985
0
LINE
8
BLACK
10
112.299
20
-90.5987
11
112.299
21
-96.5982
0
LINE
8
BLACK
10
112.299
20
-96.5982
11
112.705
21
-96.5982
0
LINE
8
BLACK
10
112.705
20
-96.5982
11
112.705
21
-90.5987
0
LINE
8
BLACK
10
112.705
20
-90.5987
11
112.299
21
-90.5987
0
LINE
8
BLACK
10
112.299
20
-89.7986
11
112.299
21
-95.7981
0
LINE
8
BLACK
10
112.299
20
-95.7981
11
112.705
21
-95.7981
0
LINE
8
BLACK
10
112.705
20
-95.7981
11
112.705
21
-89.7986
0
LINE
8
BLACK
10
112.705
20
-89.7986
11
112.299
21
-89.7986
0
LINE
8
BLACK
10
114.295
20
-90.5987
11
114.295
21
-96.5982
0
LINE
8
BLACK
10
114.295
20
-96.5982
11
114.701
21
-96.5982
0
LINE
8
BLACK
10
114.701
20
-96.5982
11
114.701
21
-90.5987
0
LINE
8
BLACK
10
114.701
20
-90.5987
11
114.295
21
-90.5987
0
LINE
8
BLACK
10
114.295
20
-89.7986
11
114.295
21
-95.7981
0
LINE
8
BLACK
10
114.295
20
-95.7981
11
114.701
21
-95.7981
0
LINE
8
BLACK
10
114.701
20
-95.7981
11
114.701
21
-89.7986
0
LINE
8
BLACK
10
114.701
20
-89.7986
11
114.295
21
-89.7986
0
LINE
8
BLACK
10
115.895
20
-88.9985
11
115.895
21
-94.998
0
LINE
8
BLACK
10
115.895
20
-94.998
11
116.302
21
-94.998
0
LINE
8
BLACK
10
116.302
20
-94.998
11
116.302
21
-88.9985
0
LINE
8
BLACK
10
116.302
20
-88.9985
11
115.895
21
-88.9985
0
LINE
8
BLACK
10
115.095
20
-88.9985
11
115.095
21
-94.998
0
LINE
8
BLACK
10
115.095
20
-94.998
11
115.502
21
-94.998
0
LINE
8
BLACK
10
115.502
20
-94.998
11
115.502
21
-88.9985
0
LINE
8
BLACK
10
115.502
20
-88.9985
11
115.095
21
-88.9985
0
LINE
8
BLACK
10
110.698
20
-87.002
11
110.698
21
-93.0015
0
LINE
8
BLACK
10
110.698
20
-93.0015
11
111.105
21
-93.0015
0
LINE
8
BLACK
10
111.105
20
-93.0015
11
111.105
21
-87.002
0
LINE
8
BLACK
10
111.105
20
-87.002
11
110.698
21
-87.002
0
LINE
8
BLACK
10
111.498
20
-87.002
11
111.498
21
-93.0015
0
LINE
8
BLACK
10
111.498
20
-93.0015
11
111.905
21
-93.0015
0
LINE
8
BLACK
10
111.905
20
-93.0015
11
111.905
21
-87.002
0
LINE
8
BLACK
10
111.905
20
-87.002
11
111.498
21
-87.002
0
LINE
8
BLACK
10
115.895
20
-87.002
11
115.895
21
-93.0015
0
LINE
8
BLACK
10
115.895
20
-93.0015
11
116.302
21
-93.0015
0
LINE
8
BLACK
10
116.302
20
-93.0015
11
116.302
21
-87.002
0
LINE
8
BLACK
10
116.302
20
-87.002
11
115.895
21
-87.002
0
LINE
8
BLACK
10
115.095
20
-87.002
11
115.095
21
-93.0015
0
LINE
8
BLACK
10
115.095
20
-93.0015
11
115.502
21
-93.0015
0
LINE
8
BLACK
10
115.502
20
-93.0015
11
115.502
21
-87.002
0
LINE
8
BLACK
10
115.502
20
-87.002
11
115.095
21
-87.002
0
LINE
8
BLACK
10
112.299
20
-85.4018
11
112.299
21
-91.4013
0
LINE
8
BLACK
10
112.299
20
-91.4013
11
112.705
21
-91.4013
0
LINE
8
BLACK
10
112.705
20
-91.4013
11
112.705
21
-85.4018
0
LINE
8
BLACK
10
112.705
20
-85.4018
11
112.299
21
-85.4018
0
LINE
8
BLACK
10
112.299
20
-86.2019
11
112.299
21
-92.2014
0
LINE
8
BLACK
10
112.299
20
-92.2014
11
112.705
21
-92.2014
0
LINE
8
BLACK
10
112.705
20
-92.2014
11
112.705
21
-86.2019
0
LINE
8
BLACK
10
112.705
20
-86.2019
11
112.299
21
-86.2019
0
LINE
8
BLACK
10
114.295
20
-85.4018
11
114.295
21
-91.4013
0
LINE
8
BLACK
10
114.295
20
-91.4013
11
114.701
21
-91.4013
0
LINE
8
BLACK
10
114.701
20
-91.4013
11
114.701
21
-85.4018
0
LINE
8
BLACK
10
114.701
20
-85.4018
11
114.295
21
-85.4018
0
LINE
8
BLACK
10
114.295
20
-86.2019
11
114.295
21
-92.2014
0
LINE
8
BLACK
10
114.295
20
-92.2014
11
114.701
21
-92.2014
0
LINE
8
BLACK
10
114.701
20
-92.2014
11
114.701
21
-86.2019
0
LINE
8
BLACK
10
114.701
20
-86.2019
11
114.295
21
-86.2019
0
CIRCLE
8
BLACK
10
112.776
20
-106.299
40
0.1524
0
CIRCLE
8
BLACK
10
120.396
20
-103.378
40
0.1524
0
CIRCLE
8
BLACK
10
113.157
20
-106.807
40
0.1524
0
CIRCLE
8
BLACK
10
121.031
20
-103.632
40
0.1524
0
CIRCLE
8
BLACK
10
114.4
20
-107.8
40
0.1524
0
CIRCLE
8
BLACK
10
122.682
20
-102.108
40
0.1524
0
CIRCLE
8
BLACK
10
113.792
20
-107.315
40
0.1524
0
CIRCLE
8
BLACK
10
121.539
20
-103.378
40
0.1524
0
CIRCLE
8
BLACK
10
111.189
20
-106.426
40
0.1524
0
CIRCLE
8
BLACK
10
116.586
20
-103.569
40
0.1524
0
CIRCLE
8
BLACK
10
111.824
20
-106.426
40
0.1524
0
CIRCLE
8
BLACK
10
117.031
20
-104.204
40
0.1524
0
CIRCLE
8
BLACK
10
122.2
20
-128.8
40
0.3
0
CIRCLE
8
BLACK
10
107.9
20
-128.7
40
0.3
0
CIRCLE
8
BLACK
10
108.4
20
-128.1
40
0.3
0
CIRCLE
8
BLACK
10
122.6
20
-128.1
40
0.3
0
CIRCLE
8
BLACK
10
120.3
20
-131.3
40
0.3
0
CIRCLE
8
BLACK
10
108.2
20
-131.4
40
0.3
0
CIRCLE
8
BLACK
10
121.8
20
-129.5
40
0.3
0
CIRCLE
8
BLACK
10
108.4
20
-129.5
40
0.3
0
CIRCLE
8
BLACK
10
116.5
20
-117
40
0.155
0
CIRCLE
8
BLACK
10
142.5
20
-115.4
40
0.3
0
CIRCLE
8
BLACK
10
120.9
20
-130.3
40
0.3
0
CIRCLE
8
BLACK
10
108
20
-130.4
40
0.3
0
CIRCLE
8
BLACK
10
111.379
20
-102.87
40
0.1524
0
CIRCLE
8
BLACK
10
111.697
20
-100.584
40
0.1524
0
CIRCLE
8
BLACK
10
124.079
20
-110.871
40
0.3
0
CIRCLE
8
BLACK
10
117.983
20
-110.998
40
0.3
0
CIRCLE
8
BLACK
10
116.078
20
-111.887
40
0.3
0
CIRCLE
8
BLACK
10
104.394
20
-118.11
40
0.3
0
CIRCLE
8
BLACK
10
121.666
20
-100.457
40
0.3
0
CIRCLE
8
BLACK
10
113.792
20
-100.457
40
0.3
0
CIRCLE
8
BLACK
10
116.586
20
-100.457
40
0.3
0
CIRCLE
8
BLACK
10
122.682
20
-96.393
40
0.3
0
CIRCLE
8
BLACK
10
122.555
20
-92.837
40
0.3
0
CIRCLE
8
BLACK
10
83.947
20
-103.251
40
0.3
0
CIRCLE
8
BLACK
10
81.407
20
-103.759
40
0.3
0
CIRCLE
8
BLACK
10
85.725
20
-99.187
40
0.3
0
CIRCLE
8
BLACK
10
83.439
20
-99.187
40
0.3
0
CIRCLE
8
BLACK
10
72.009
20
-99.949
40
0.3
0
LINE
8
BLACK
10
112.776
20
-106.375
11
117.475
21
-106.375
0
LINE
8
BLACK
10
112.776
20
-106.223
11
117.475
21
-106.223
0
ARC
8
BLACK
10
117.475
20
-106.299
40
0.0762
50
270
51
450
0
ARC
8
BLACK
10
112.776
20
-106.299
40
0.0762
50
90
51
270
0
LINE
8
BLACK
10
120.342
20
-103.324
11
117.421
21
-106.245
0
LINE
8
BLACK
10
120.45
20
-103.432
11
117.529
21
-106.353
0
ARC
8
BLACK
10
117.475
20
-106.299
40
0.0762
50
135
51
315
0
ARC
8
BLACK
10
120.396
20
-103.378
40
0.0762
50
-45
51
135
0
LINE
8
BLACK
10
113.157
20
-106.883
11
117.856
21
-106.883
0
LINE
8
BLACK
10
113.157
20
-106.731
11
117.856
21
-106.731
0
ARC
8
BLACK
10
117.856
20
-106.807
40
0.0762
50
270
51
450
0
ARC
8
BLACK
10
113.157
20
-106.807
40
0.0762
50
90
51
270
0
LINE
8
BLACK
10
120.977
20
-103.578
11
117.802
21
-106.753
0
LINE
8
BLACK
10
121.085
20
-103.686
11
117.91
21
-106.861
0
ARC
8
BLACK
10
117.856
20
-106.807
40
0.0762
50
135
51
315
0
ARC
8
BLACK
10
121.031
20
-103.632
40
0.0762
50
-45
51
135
0
LINE
8
BLACK
10
118.365
20
-107.749
11
114.401
21
-107.721
0
LINE
8
BLACK
10
118.363
20
-107.902
11
114.399
21
-107.874
0
ARC
8
BLACK
10
114.4
20
-107.798
40
0.0762
50
449.6
51
629.6
0
ARC
8
BLACK
10
118.364
20
-107.825
40
0.0762
50
269.6
51
449.6
0
LINE
8
BLACK
10
122.628
20
-103.451
11
118.31
21
-107.769
0
LINE
8
BLACK
10
122.736
20
-103.559
11
118.418
21
-107.877
0
ARC
8
BLACK
10
118.364
20
-107.823
40
0.0762
50
135
51
315
0
ARC
8
BLACK
10
122.682
20
-103.505
40
0.0762
50
-45
51
135
0
LINE
8
BLACK
10
122.758
20
-103.505
11
122.758
21
-102.108
0
LINE
8
BLACK
10
122.606
20
-103.505
11
122.606
21
-102.108
0
ARC
8
BLACK
10
122.682
20
-102.108
40
0.0762
50
360
51
540
0
ARC
8
BLACK
10
122.682
20
-103.505
40
0.0762
50
180
51
360
0
LINE
8
BLACK
10
113.792
20
-107.391
11
118.237
21
-107.391
0
LINE
8
BLACK
10
113.792
20
-107.239
11
118.237
21
-107.239
0
ARC
8
BLACK
10
118.237
20
-107.315
40
0.0762
50
270
51
450
0
ARC
8
BLACK
10
113.792
20
-107.315
40
0.0762
50
90
51
270
0
LINE
8
BLACK
10
121.485
20
-103.959
11
118.183
21
-107.261
0
LINE
8
BLACK
10
121.593
20
-104.067
11
118.291
21
-107.369
0
ARC
8
BLACK
10
118.237
20
-107.315
40
0.0762
50
135
51
315
0
ARC
8
BLACK
10
121.539
20
-104.013
40
0.0762
50
-45
51
135
0
LINE
8
BLACK
10
121.615
20
-104.013
11
121.615
21
-103.378
0
LINE
8
BLACK
10
121.463
20
-104.013
11
121.463
21
-103.378
0
ARC
8
BLACK
10
121.539
20
-103.378
40
0.0762
50
360
51
540
0
ARC
8
BLACK
10
121.539
20
-104.013
40
0.0762
50
180
51
360
0
LINE
8
BLACK
10
112.151
20
-105.356
11
111.135
21
-106.372
0
LINE
8
BLACK
10
112.258
20
-105.464
11
111.242
21
-106.48
0
ARC
8
BLACK
10
111.189
20
-106.426
40
0.0762
50
135
51
315
0
ARC
8
BLACK
10
112.205
20
-105.41
40
0.0762
50
-45
51
135
0
LINE
8
BLACK
10
112.205
20
-105.486
11
114.745
21
-105.486
0
LINE
8
BLACK
10
112.205
20
-105.334
11
114.745
21
-105.334
0
ARC
8
BLACK
10
114.745
20
-105.41
40
0.0762
50
270
51
450
0
ARC
8
BLACK
10
112.205
20
-105.41
40
0.0762
50
90
51
270
0
LINE
8
BLACK
10
116.532
20
-103.515
11
114.691
21
-105.356
0
LINE
8
BLACK
10
116.64
20
-103.622
11
114.798
21
-105.464
0
ARC
8
BLACK
10
114.745
20
-105.41
40
0.0762
50
135
51
315
0
ARC
8
BLACK
10
116.586
20
-103.569
40
0.0762
50
-45
51
135
0
LINE
8
BLACK
10
112.341
20
-105.801
11
111.77
21
-106.372
0
LINE
8
BLACK
10
112.449
20
-105.908
11
111.877
21
-106.48
0
ARC
8
BLACK
10
111.824
20
-106.426
40
0.0762
50
135
51
315
0
ARC
8
BLACK
10
112.395
20
-105.855
40
0.0762
50
-45
51
135
0
LINE
8
BLACK
10
112.395
20
-105.931
11
115.38
21
-105.931
0
LINE
8
BLACK
10
112.395
20
-105.778
11
115.38
21
-105.778
0
ARC
8
BLACK
10
115.38
20
-105.855
40
0.0762
50
270
51
450
0
ARC
8
BLACK
10
112.395
20
-105.855
40
0.0762
50
90
51
270
0
LINE
8
BLACK
10
116.977
20
-104.15
11
115.326
21
-105.801
0
LINE
8
BLACK
10
117.084
20
-104.257
11
115.433
21
-105.908
0
ARC
8
BLACK
10
115.38
20
-105.855
40
0.0762
50
135
51
315
0
ARC
8
BLACK
10
117.031
20
-104.204
40
0.0762
50
-45
51
135
0
LINE
8
BLACK
10
107.9
20
-128.751
11
122.1
21
-128.751
0
LINE
8
BLACK
10
107.9
20
-128.649
11
122.1
21
-128.649
0
ARC
8
BLACK
10
122.1
20
-128.7
40
0.0508
50
270
51
450
0
ARC
8
BLACK
10
107.9
20
-128.7
40
0.0508
50
90
51
270
0
LINE
8
BLACK
10
122.064
20
-128.736
11
122.164
21
-128.836
0
LINE
8
BLACK
10
122.136
20
-128.664
11
122.236
21
-128.764
0
ARC
8
BLACK
10
122.2
20
-128.8
40
0.0508
50
225
51
405
0
ARC
8
BLACK
10
122.1
20
-128.7
40
0.0508
50
45
51
225
0
LINE
8
BLACK
10
108.4
20
-128.151
11
122.6
21
-128.151
0
LINE
8
BLACK
10
108.4
20
-128.049
11
122.6
21
-128.049
0
ARC
8
BLACK
10
122.6
20
-128.1
40
0.0508
50
270
51
450
0
ARC
8
BLACK
10
108.4
20
-128.1
40
0.0508
50
90
51
270
0
LINE
8
BLACK
10
120.236
20
-131.436
11
120.336
21
-131.336
0
LINE
8
BLACK
10
120.164
20
-131.364
11
120.264
21
-131.264
0
ARC
8
BLACK
10
120.3
20
-131.3
40
0.0508
50
315
51
495
0
ARC
8
BLACK
10
120.2
20
-131.4
40
0.0508
50
135
51
315
0
LINE
8
BLACK
10
108.2
20
-131.451
11
120.2
21
-131.451
0
LINE
8
BLACK
10
108.2
20
-131.349
11
120.2
21
-131.349
0
ARC
8
BLACK
10
120.2
20
-131.4
40
0.0508
50
270
51
450
0
ARC
8
BLACK
10
108.2
20
-131.4
40
0.0508
50
90
51
270
0
LINE
8
BLACK
10
108.4
20
-129.551
11
121.8
21
-129.551
0
LINE
8
BLACK
10
108.4
20
-129.449
11
121.8
21
-129.449
0
ARC
8
BLACK
10
121.8
20
-129.5
40
0.0508
50
270
51
450
0
ARC
8
BLACK
10
108.4
20
-129.5
40
0.0508
50
90
51
270
0
LINE
8
BLACK
10
116.5
20
-117.051
11
140.9
21
-117.051
0
LINE
8
BLACK
10
116.5
20
-116.949
11
140.9
21
-116.949
0
ARC
8
BLACK
10
140.9
20
-117
40
0.0508
50
270
51
450
0
ARC
8
BLACK
10
116.5
20
-117
40
0.0508
50
90
51
270
0
LINE
8
BLACK
10
142.464
20
-115.364
11
140.864
21
-116.964
0
LINE
8
BLACK
10
142.536
20
-115.436
11
140.936
21
-117.036
0
ARC
8
BLACK
10
140.9
20
-117
40
0.0508
50
135
51
315
0
ARC
8
BLACK
10
142.5
20
-115.4
40
0.0508
50
-45
51
135
0
LINE
8
BLACK
10
108.064
20
-130.264
11
107.964
21
-130.364
0
LINE
8
BLACK
10
108.136
20
-130.336
11
108.036
21
-130.436
0
ARC
8
BLACK
10
108
20
-130.4
40
0.0508
50
135
51
315
0
ARC
8
BLACK
10
108.1
20
-130.3
40
0.0508
50
-45
51
135
0
LINE
8
BLACK
10
108.1
20
-130.351
11
120.9
21
-130.351
0
LINE
8
BLACK
10
108.1
20
-130.249
11
120.9
21
-130.249
0
ARC
8
BLACK
10
120.9
20
-130.3
40
0.0508
50
270
51
450
0
ARC
8
BLACK
10
108.1
20
-130.3
40
0.0508
50
90
51
270
0
LINE
8
BLACK
10
111.455
20
-102.87
11
111.455
21
-100.902
0
LINE
8
BLACK
10
111.303
20
-102.87
11
111.303
21
-100.902
0
ARC
8
BLACK
10
111.379
20
-100.902
40
0.0762
50
360
51
540
0
ARC
8
BLACK
10
111.379
20
-102.87
40
0.0762
50
180
51
360
0
LINE
8
BLACK
10
111.643
20
-100.53
11
111.325
21
-100.848
0
LINE
8
BLACK
10
111.75
20
-100.638
11
111.433
21
-100.955
0
ARC
8
BLACK
10
111.379
20
-100.902
40
0.0762
50
135
51
315
0
ARC
8
BLACK
10
111.697
20
-100.584
40
0.0762
50
-45
51
135
  0
ENDSEC
  0
EOF
