  0
SECTION
  2
HEADER
  9
$ANGBASE
  50
0.0
  9
$ANGDIR
  70
  1
  9
$MEASUREMENT
  70
0
  0
ENDSEC
  0
SECTION
  2
TABLES
  0
TABLE
  2
LTYPE
  70
1
  0
LTYPE
  2
CONTINUOUS
  70
0
  3
Solid line
  72
65
  73
0
  40
0.0
  0
ENDTAB
  0
TABLE
  2
STYLE
  70
4
  0
STYLE
  2
KICAD
  70
0
  40
0
  41
1
  42
1
  50
0
  71
0
  3
isocp.shx
  0
STYLE
  2
KICADB
  70
0
  40
0
  41
1
  42
1
  50
0
  71
0
  3
isocp.shx
  0
STYLE
  2
KICADI
  70
0
  40
0
  41
1
  42
1
  50
15
  71
0
  3
isocp.shx
  0
STYLE
  2
KICADBI
  70
0
  40
0
  41
1
  42
1
  50
15
  71
0
  3
isocp.shx
  0
ENDTAB
  0
TABLE
  2
LAYER
  70
24
  0
LAYER
  2
BLACK
  70
0
  62
250
  6
CONTINUOUS
  0
LAYER
  2
BLUE
  70
0
  62
5
  6
CONTINUOUS
  0
LAYER
  2
GREEN
  70
0
  62
3
  6
CONTINUOUS
  0
LAYER
  2
CYAN
  70
0
  62
4
  6
CONTINUOUS
  0
LAYER
  2
RED
  70
0
  62
1
  6
CONTINUOUS
  0
LAYER
  2
MAGENTA
  70
0
  62
6
  6
CONTINUOUS
  0
LAYER
  2
BROWN
  70
0
  62
54
  6
CONTINUOUS
  0
LAYER
  2
LIGHTGRAY
  70
0
  62
9
  6
CONTINUOUS
  0
LAYER
  2
DARKGRAY
  70
0
  62
8
  6
CONTINUOUS
  0
LAYER
  2
LIGHTBLUE
  70
0
  62
171
  6
CONTINUOUS
  0
LAYER
  2
LIGHTGREEN
  70
0
  62
91
  6
CONTINUOUS
  0
LAYER
  2
LIGHTCYAN
  70
0
  62
131
  6
CONTINUOUS
  0
LAYER
  2
LIGHTRED
  70
0
  62
11
  6
CONTINUOUS
  0
LAYER
  2
LIGHTMAGENTA
  70
0
  62
221
  6
CONTINUOUS
  0
LAYER
  2
YELLOW
  70
0
  62
2
  6
CONTINUOUS
  0
LAYER
  2
WHITE
  70
0
  62
7
  6
CONTINUOUS
  0
LAYER
  2
DARKDARKGRAY
  70
0
  62
251
  6
CONTINUOUS
  0
LAYER
  2
DARKBLUE
  70
0
  62
178
  6
CONTINUOUS
  0
LAYER
  2
DARKGREEN
  70
0
  62
98
  6
CONTINUOUS
  0
LAYER
  2
DARKCYAN
  70
0
  62
138
  6
CONTINUOUS
  0
LAYER
  2
DARKRED
  70
0
  62
18
  6
CONTINUOUS
  0
LAYER
  2
DARKMAGENTA
  70
0
  62
228
  6
CONTINUOUS
  0
LAYER
  2
DARKBROWN
  70
0
  62
58
  6
CONTINUOUS
  0
LAYER
  2
LIGHTYELLOW
  70
0
  62
51
  6
CONTINUOUS
  0
ENDTAB
  0
ENDSEC
  0
SECTION
  2
ENTITIES
0
LINE
8
BLACK
10
112.409
20
-88.0003
11
112.409
21
-93.9997
0
LINE
8
BLACK
10
112.409
20
-93.9997
11
114.591
21
-93.9997
0
LINE
8
BLACK
10
114.591
20
-93.9997
11
114.591
21
-88.0003
0
LINE
8
BLACK
10
114.591
20
-88.0003
11
112.409
21
-88.0003
0
LINE
8
BLACK
10
110.698
20
-88.9985
11
110.698
21
-94.998
0
LINE
8
BLACK
10
110.698
20
-94.998
11
111.105
21
-94.998
0
LINE
8
BLACK
10
111.105
20
-94.998
11
111.105
21
-88.9985
0
LINE
8
BLACK
10
111.105
20
-88.9985
11
110.698
21
-88.9985
0
LINE
8
BLACK
10
111.498
20
-88.9985
11
111.498
21
-94.998
0
LINE
8
BLACK
10
111.498
20
-94.998
11
111.905
21
-94.998
0
LINE
8
BLACK
10
111.905
20
-94.998
11
111.905
21
-88.9985
0
LINE
8
BLACK
10
111.905
20
-88.9985
11
111.498
21
-88.9985
0
LINE
8
BLACK
10
112.299
20
-90.5987
11
112.299
21
-96.5982
0
LINE
8
BLACK
10
112.299
20
-96.5982
11
112.705
21
-96.5982
0
LINE
8
BLACK
10
112.705
20
-96.5982
11
112.705
21
-90.5987
0
LINE
8
BLACK
10
112.705
20
-90.5987
11
112.299
21
-90.5987
0
LINE
8
BLACK
10
112.299
20
-89.7986
11
112.299
21
-95.7981
0
LINE
8
BLACK
10
112.299
20
-95.7981
11
112.705
21
-95.7981
0
LINE
8
BLACK
10
112.705
20
-95.7981
11
112.705
21
-89.7986
0
LINE
8
BLACK
10
112.705
20
-89.7986
11
112.299
21
-89.7986
0
LINE
8
BLACK
10
114.295
20
-90.5987
11
114.295
21
-96.5982
0
LINE
8
BLACK
10
114.295
20
-96.5982
11
114.701
21
-96.5982
0
LINE
8
BLACK
10
114.701
20
-96.5982
11
114.701
21
-90.5987
0
LINE
8
BLACK
10
114.701
20
-90.5987
11
114.295
21
-90.5987
0
LINE
8
BLACK
10
114.295
20
-89.7986
11
114.295
21
-95.7981
0
LINE
8
BLACK
10
114.295
20
-95.7981
11
114.701
21
-95.7981
0
LINE
8
BLACK
10
114.701
20
-95.7981
11
114.701
21
-89.7986
0
LINE
8
BLACK
10
114.701
20
-89.7986
11
114.295
21
-89.7986
0
LINE
8
BLACK
10
115.895
20
-88.9985
11
115.895
21
-94.998
0
LINE
8
BLACK
10
115.895
20
-94.998
11
116.302
21
-94.998
0
LINE
8
BLACK
10
116.302
20
-94.998
11
116.302
21
-88.9985
0
LINE
8
BLACK
10
116.302
20
-88.9985
11
115.895
21
-88.9985
0
LINE
8
BLACK
10
115.095
20
-88.9985
11
115.095
21
-94.998
0
LINE
8
BLACK
10
115.095
20
-94.998
11
115.502
21
-94.998
0
LINE
8
BLACK
10
115.502
20
-94.998
11
115.502
21
-88.9985
0
LINE
8
BLACK
10
115.502
20
-88.9985
11
115.095
21
-88.9985
0
LINE
8
BLACK
10
110.698
20
-87.002
11
110.698
21
-93.0015
0
LINE
8
BLACK
10
110.698
20
-93.0015
11
111.105
21
-93.0015
0
LINE
8
BLACK
10
111.105
20
-93.0015
11
111.105
21
-87.002
0
LINE
8
BLACK
10
111.105
20
-87.002
11
110.698
21
-87.002
0
LINE
8
BLACK
10
111.498
20
-87.002
11
111.498
21
-93.0015
0
LINE
8
BLACK
10
111.498
20
-93.0015
11
111.905
21
-93.0015
0
LINE
8
BLACK
10
111.905
20
-93.0015
11
111.905
21
-87.002
0
LINE
8
BLACK
10
111.905
20
-87.002
11
111.498
21
-87.002
0
LINE
8
BLACK
10
115.895
20
-87.002
11
115.895
21
-93.0015
0
LINE
8
BLACK
10
115.895
20
-93.0015
11
116.302
21
-93.0015
0
LINE
8
BLACK
10
116.302
20
-93.0015
11
116.302
21
-87.002
0
LINE
8
BLACK
10
116.302
20
-87.002
11
115.895
21
-87.002
0
LINE
8
BLACK
10
115.095
20
-87.002
11
115.095
21
-93.0015
0
LINE
8
BLACK
10
115.095
20
-93.0015
11
115.502
21
-93.0015
0
LINE
8
BLACK
10
115.502
20
-93.0015
11
115.502
21
-87.002
0
LINE
8
BLACK
10
115.502
20
-87.002
11
115.095
21
-87.002
0
LINE
8
BLACK
10
112.299
20
-85.4018
11
112.299
21
-91.4013
0
LINE
8
BLACK
10
112.299
20
-91.4013
11
112.705
21
-91.4013
0
LINE
8
BLACK
10
112.705
20
-91.4013
11
112.705
21
-85.4018
0
LINE
8
BLACK
10
112.705
20
-85.4018
11
112.299
21
-85.4018
0
LINE
8
BLACK
10
112.299
20
-86.2019
11
112.299
21
-92.2014
0
LINE
8
BLACK
10
112.299
20
-92.2014
11
112.705
21
-92.2014
0
LINE
8
BLACK
10
112.705
20
-92.2014
11
112.705
21
-86.2019
0
LINE
8
BLACK
10
112.705
20
-86.2019
11
112.299
21
-86.2019
0
LINE
8
BLACK
10
114.295
20
-85.4018
11
114.295
21
-91.4013
0
LINE
8
BLACK
10
114.295
20
-91.4013
11
114.701
21
-91.4013
0
LINE
8
BLACK
10
114.701
20
-91.4013
11
114.701
21
-85.4018
0
LINE
8
BLACK
10
114.701
20
-85.4018
11
114.295
21
-85.4018
0
LINE
8
BLACK
10
114.295
20
-86.2019
11
114.295
21
-92.2014
0
LINE
8
BLACK
10
114.295
20
-92.2014
11
114.701
21
-92.2014
0
LINE
8
BLACK
10
114.701
20
-92.2014
11
114.701
21
-86.2019
0
LINE
8
BLACK
10
114.701
20
-86.2019
11
114.295
21
-86.2019
0
CIRCLE
8
BLACK
10
112.776
20
-106.299
40
0.1524
0
CIRCLE
8
BLACK
10
120.396
20
-103.378
40
0.1524
0
CIRCLE
8
BLACK
10
113.157
20
-106.807
40
0.1524
0
CIRCLE
8
BLACK
10
121.031
20
-103.632
40
0.1524
0
CIRCLE
8
BLACK
10
114.4
20
-107.8
40
0.1524
0
CIRCLE
8
BLACK
10
122.682
20
-102.108
40
0.1524
0
CIRCLE
8
BLACK
10
113.792
20
-107.315
40
0.1524
0
CIRCLE
8
BLACK
10
121.539
20
-103.378
40
0.1524
0
CIRCLE
8
BLACK
10
111.189
20
-106.426
40
0.1524
0
CIRCLE
8
BLACK
10
116.586
20
-103.569
40
0.1524
0
CIRCLE
8
BLACK
10
111.824
20
-106.426
40
0.1524
0
CIRCLE
8
BLACK
10
117.031
20
-104.204
40
0.1524
0
CIRCLE
8
BLACK
10
122.2
20
-128.8
40
0.3
0
CIRCLE
8
BLACK
10
107.9
20
-128.7
40
0.3
0
CIRCLE
8
BLACK
10
108.4
20
-128.1
40
0.3
0
CIRCLE
8
BLACK
10
122.6
20
-128.1
40
0.3
0
CIRCLE
8
BLACK
10
120.3
20
-131.3
40
0.3
0
CIRCLE
8
BLACK
10
108.2
20
-131.4
40
0.3
0
CIRCLE
8
BLACK
10
121.8
20
-129.5
40
0.3
0
CIRCLE
8
BLACK
10
108.4
20
-129.5
40
0.3
0
CIRCLE
8
BLACK
10
116.5
20
-117
40
0.155
0
CIRCLE
8
BLACK
10
142.5
20
-115.4
40
0.3
0
CIRCLE
8
BLACK
10
120.9
20
-130.3
40
0.3
0
CIRCLE
8
BLACK
10
108
20
-130.4
40
0.3
0
CIRCLE
8
BLACK
10
111.379
20
-102.87
40
0.1524
0
CIRCLE
8
BLACK
10
111.697
20
-100.584
40
0.1524
0
CIRCLE
8
BLACK
10
124.079
20
-110.871
40
0.3
0
CIRCLE
8
BLACK
10
117.983
20
-110.998
40
0.3
0
CIRCLE
8
BLACK
10
116.078
20
-111.887
40
0.3
0
CIRCLE
8
BLACK
10
104.394
20
-118.11
40
0.3
0
CIRCLE
8
BLACK
10
121.666
20
-100.457
40
0.3
0
CIRCLE
8
BLACK
10
113.792
20
-100.457
40
0.3
0
CIRCLE
8
BLACK
10
116.586
20
-100.457
40
0.3
0
CIRCLE
8
BLACK
10
122.682
20
-96.393
40
0.3
0
CIRCLE
8
BLACK
10
122.555
20
-92.837
40
0.3
0
CIRCLE
8
BLACK
10
83.947
20
-103.251
40
0.3
0
CIRCLE
8
BLACK
10
81.407
20
-103.759
40
0.3
0
CIRCLE
8
BLACK
10
85.725
20
-99.187
40
0.3
0
CIRCLE
8
BLACK
10
83.439
20
-99.187
40
0.3
0
CIRCLE
8
BLACK
10
72.009
20
-99.949
40
0.3
  0
ENDSEC
  0
EOF
