M48
;DRILL file {Pcbnew (2013-04-04 BZR 4007)-stable} date Пнд 22 Апр 2013 17:42:49
;FORMAT={-:-/ absolute / inch / decimal}
FMAT,2
INCH,TZ
T1C0.012
T2C0.012
T3C0.020
T4C0.026
T5C0.055
T6C0.059
T7C0.071
%
G90
G05
M72
T1
X4.3662Y-3.5434
X4.3662Y-3.622
X4.3977Y-3.5434
X4.3977Y-3.622
X4.4292Y-3.4804
X4.4292Y-3.5119
X4.4292Y-3.6535
X4.4292Y-3.685
X4.5078Y-3.4804
X4.5078Y-3.5119
X4.5078Y-3.6535
X4.5078Y-3.685
X4.5393Y-3.5434
X4.5393Y-3.622
X4.5708Y-3.5434
X4.5708Y-3.622
T2
X3.5197Y-3.5
X3.5236Y-3.6378
X3.5374Y-5.2224
X3.5453Y-3.5768
X3.5512Y-3.4705
X3.561Y-4.7126
X3.563Y-3.9941
X3.5669Y-4.9783
X3.5748Y-4.9173
X3.6004Y-5.0059
X3.6161Y-3.2894
X3.6516Y-4.0413
X3.6654Y-4.5866
X3.6713Y-3.9665
X3.6713Y-4.126
X3.6752Y-5.2776
X3.685Y-3.9961
X3.6909Y-4.1024
X3.7008Y-3.4843
X3.7028Y-4.5846
X3.7067Y-4.9547
X3.7087Y-4.0748
X3.7146Y-3.748
X3.7343Y-3.4488
X3.7402Y-5.3287
X3.7421Y-5.378
X3.75Y-5.1201
X3.7913Y-3.6181
X3.7972Y-3.4902
X3.8209Y-3.622
X3.8327Y-4.1457
X3.8386Y-3.6673
X3.8386Y-4.2362
X3.8406Y-5.2795
X3.8701Y-4.2362
X3.8858Y-4.4606
X3.8898Y-3.2953
X3.9094Y-3.6122
X3.9114Y-5.1358
X3.9173Y-4.7559
X3.9232Y-3.4764
X3.9331Y-4.7933
X3.9528Y-4.6358
X3.9626Y-4.7756
X3.9724Y-2.6969
X3.9882Y-4.1398
X3.9961Y-2.7185
X4.0098Y-2.622
X4.0177Y-2.4902
X4.0354Y-2.7579
X4.0433Y-4.3976
X4.0512Y-2.372
X4.0531Y-2.2717
X4.0531Y-2.6496
X4.0571Y-4.7441
X4.061Y-2.8543
X4.0689Y-2.7185
X4.0728Y-2.2402
X4.0748Y-4.6555
X4.0866Y-2.6535
X4.0925Y-4.1437
X4.0965Y-4.9114
X4.1004Y-3.6496
X4.1004Y-4.7854
X4.1063Y-4.4744
X4.11Y-4.65
X4.1102Y-2.8583
X4.1161Y-3.7657
X4.1201Y-2.2598
X4.1201Y-3.8051
X4.1201Y-4.255
X4.1201Y-4.4272
X4.122Y-3.6752
X4.122Y-3.8445
X4.126Y-3.7146
X4.126Y-4.624
X4.128Y-4.565
X4.1339Y-2.9449
X4.1339Y-4.5945
X4.1358Y-3.5846
X4.1457Y-4.8248
X4.1634Y-4.3602
X4.1693Y-3.4862
X4.1693Y-4.0709
X4.1909Y-3.7165
X4.1909Y-3.9311
X4.2087Y-4.3583
X4.2205Y-4.1594
X4.2264Y-4.9843
X4.2303Y-4.1161
X4.2421Y-4.372
X4.2461Y-3.0807
X4.252Y-4.5276
X4.2697Y-2.5984
X4.2756Y-2.0335
X4.2756Y-3.0709
X4.2756Y-3.8602
X4.2776Y-2.872
X4.2854Y-2.1949
X4.2874Y-4.5039
X4.2913Y-3.3701
X4.2913Y-4.5394
X4.2913Y-5.4035
X4.2972Y-2.6575
X4.2992Y-2.7697
X4.2992Y-3.9311
X4.3031Y-4.4744
X4.3031Y-4.5925
X4.3051Y-3.0709
X4.313Y-4.624
X4.315Y-2.2657
X4.315Y-2.5906
X4.3209Y-5.3563
X4.3228Y-3.25
X4.3228Y-3.9075
X4.3248Y-3.5846
X4.3287Y-4.1969
X4.3307Y-3.0886
X4.3445Y-2.5787
X4.3524Y-2.2323
X4.3563Y-3.2579
X4.3563Y-3.3563
X4.3583Y-3.1083
X4.3602Y-4.2008
X4.3622Y-3.9291
X4.3661Y-2.0709
X4.3681Y-3.8976
X4.372Y-2.2087
X4.372Y-4.3622
X4.376Y-4.0689
X4.3839Y-3.2717
X4.3948Y-4.2007
X4.4154Y-3.9075
X4.4154Y-4.3169
X4.4193Y-3.2736
X4.4272Y-4.1949
X4.4409Y-4.6949
X4.4409Y-4.8799
X4.4409Y-5.0177
X4.4429Y-4.626
X4.4449Y-4.9508
X4.4449Y-5.0827
X4.4469Y-4.3622
X4.4488Y-3.2736
X4.4508Y-3.9016
X4.4508Y-4.7854
X4.4547Y-4.1476
X4.4547Y-4.5965
X4.4567Y-4.7421
X4.4567Y-5.1535
X4.4646Y-4.1909
X4.4646Y-4.8583
X4.4665Y-4.9252
X4.4685Y-4.9941
X4.4705Y-4.4488
X4.4724Y-4.7008
X4.4744Y-5.061
X4.4764Y-4.5236
X4.4783Y-3.2736
X4.4783Y-4.2185
X4.48Y-3.955
X4.4803Y-4.4921
X4.4803Y-5.1299
X4.4823Y-4.6575
X4.4843Y-4.626
X4.4902Y-4.8071
X4.4902Y-4.8366
X4.4921Y-4.9035
X4.4941Y-3.2205
X4.498Y-4.9724
X4.5039Y-4.2618
X4.5039Y-5.0394
X4.5039Y-5.1063
X4.5079Y-3.2657
X4.5079Y-4.2953
X4.5079Y-5.1772
X4.5157Y-2.685
X4.5157Y-2.9567
X4.5177Y-2.378
X4.5177Y-2.7146
X4.5315Y-2.9114
X4.5315Y-3.2461
X4.5354Y-3.0866
X4.5354Y-4.5295
X4.5374Y-4.3071
X4.5472Y-2.3465
X4.5492Y-3.2992
X4.5512Y-2.9449
X4.5512Y-3.9528
X4.5512Y-4.815
X4.5531Y-2.4547
X4.565Y-2.2638
X4.5689Y-2.5551
X4.5728Y-4.7205
X4.5748Y-3.2677
X4.5807Y-3.2972
X4.5807Y-4.5413
X4.585Y-4.75
X4.59Y-3.955
X4.5906Y-4.0689
X4.5906Y-4.4823
X4.5925Y-4.3425
X4.5945Y-4.7894
X4.595Y-4.69
X4.5965Y-2.6949
X4.5965Y-4.3091
X4.6004Y-2.6201
X4.6004Y-2.7244
X4.6024Y-3.0217
X4.6122Y-4.0925
X4.6319Y-3.3957
X4.6339Y-2.5965
X4.6398Y-2.628
X4.6437Y-3.2382
X4.6476Y-4.3406
X4.6555Y-3.4429
X4.6673Y-4.374
X4.6693Y-2.7618
X4.6791Y-2.6299
X4.6791Y-3.4803
X4.6811Y-2.5945
X4.687Y-2.2579
X4.687Y-5.5295
X4.6909Y-2.9311
X4.6949Y-3.2461
X4.7047Y-3.3484
X4.7165Y-2.2146
X4.7185Y-2.0374
X4.7205Y-3.5138
X4.7205Y-3.8524
X4.7244Y-2.5906
X4.7264Y-2.1693
X4.7264Y-3.0295
X4.7293Y-4.5443
X4.7303Y-4.1791
X4.7402Y-4.0698
X4.7421Y-3.3012
X4.748Y-2.2165
X4.7598Y-4.5138
X4.7657Y-3.4862
X4.7657Y-3.565
X4.7697Y-2.5925
X4.7697Y-4.0807
X4.7736Y-3.2244
X4.7756Y-3.3701
X4.7776Y-4.4843
X4.7854Y-4.5531
X4.79Y-3.955
X4.7933Y-4.4547
X4.7992Y-4.0748
X4.8012Y-3.4213
X4.8051Y-3.2461
X4.81Y-3.385
X4.8209Y-2.8681
X4.8248Y-3.3248
X4.8248Y-4.8799
X4.825Y-3.655
X4.8287Y-4.9508
X4.83Y-3.795
X4.83Y-4.02
X4.8327Y-4.376
X4.8346Y-3.1398
X4.8346Y-5.0827
X4.8366Y-5.0177
X4.8406Y-2.5945
X4.8425Y-5.1535
X4.8465Y-4.8583
X4.8504Y-4.9252
X4.8563Y-4.1516
X4.8563Y-4.9941
X4.8583Y-5.061
X4.8622Y-2.2697
X4.8622Y-5.1299
X4.8642Y-2.2224
X4.8701Y-2.5748
X4.8701Y-4.8366
X4.874Y-4.9035
X4.876Y-2.6969
X4.8799Y-4.9724
X4.8799Y-5.0394
X4.8819Y-5.1063
X4.8858Y-2.5433
X4.8858Y-3.2087
X4.8878Y-4.3642
X4.8898Y-5.1772
X4.8937Y-2.4764
X4.8937Y-2.9331
X4.9075Y-2.248
X4.9094Y-4.4606
X4.9114Y-4.5335
X4.9134Y-4.7933
X4.9252Y-2.2894
X4.9272Y-4.5886
X4.9272Y-4.6398
X4.9429Y-3.3898
X4.9429Y-4.7638
X4.9665Y-3.3287
X4.9685Y-2.2933
X4.9685Y-3.3642
X4.9803Y-2.2028
X5.0079Y-4.7244
X5.0098Y-2.5748
X5.0177Y-2.2441
X5.0197Y-2.1791
X5.0217Y-2.9173
X5.0236Y-4.4469
X5.0256Y-4.6654
X5.0276Y-3.0394
X5.0335Y-4.561
X5.0374Y-2.622
X5.0374Y-4.7244
X5.0413Y-4.5138
X5.0551Y-4.5866
X5.0591Y-2.2972
X5.0591Y-3.122
X5.065Y-4.7067
X5.0709Y-3.872
X5.0728Y-2.4094
X5.0945Y-4.6929
X5.1102Y-3.3799
X5.1161Y-2.2972
X5.1161Y-3.0413
X5.1201Y-3.1161
X5.122Y-3.2638
X5.124Y-2.0492
X5.124Y-3.2106
X5.1319Y-2.1161
X5.1358Y-2.0846
X5.1417Y-3.2362
X5.1496Y-2.2933
X5.1535Y-3.4154
X5.1575Y-2.3248
X5.1575Y-2.8031
X5.1614Y-2.3563
X5.1654Y-2.9272
X5.2008Y-2.124
X5.2008Y-2.1673
X5.2126Y-2.9665
X5.2146Y-2.5492
X5.2244Y-3.7697
X5.2264Y-2.2953
X5.2264Y-2.3563
X5.2303Y-2.0886
X5.2343Y-2.4154
X5.2441Y-2.1654
X5.26Y-3.35
X5.2795Y-2.5079
X5.2874Y-3.4921
X5.2933Y-2.0433
X5.3287Y-4.3878
T3
X4.6455Y-2.4252
X4.6705Y-2.3752
X4.6705Y-2.4252
X4.6705Y-2.4752
X4.7205Y-2.3552
X4.7205Y-2.3802
X4.7205Y-2.4702
X4.7205Y-2.4952
X4.7705Y-2.3752
X4.7705Y-2.4252
X4.7705Y-2.4752
X4.7955Y-2.4252
T4
X3.4829Y-2.2012
X3.4829Y-2.2762
X3.4829Y-2.3512
X3.4829Y-2.4262
X3.4829Y-2.5012
X3.4829Y-2.5762
X3.4829Y-2.6512
X3.4829Y-2.7262
X3.4829Y-2.8012
X3.4829Y-2.8762
X3.5561Y-2.0307
X3.5579Y-2.1762
X3.5579Y-2.2512
X3.5579Y-2.3262
X3.5579Y-2.4012
X3.5579Y-2.4762
X3.5579Y-2.5512
X3.5579Y-2.6262
X3.5579Y-2.7012
X3.5579Y-2.7762
X3.5579Y-2.8512
X3.5811Y-2.1057
X3.6311Y-2.0307
X3.6561Y-2.1057
X3.7061Y-2.0307
X3.7311Y-2.1057
X3.7811Y-2.0307
X3.8061Y-2.1057
X3.8561Y-2.0307
X3.8811Y-2.1057
X3.9311Y-2.0307
X3.9561Y-2.1057
X4.0061Y-2.0307
X4.0311Y-2.1057
X4.0811Y-2.0307
X4.1061Y-2.1057
X4.1561Y-2.0307
X4.1811Y-2.1057
X4.2311Y-2.0307
X4.2561Y-2.1057
X4.3797Y-2.0301
X4.4047Y-2.1051
X4.4547Y-2.0301
X4.4797Y-2.1051
X4.5297Y-2.0301
X4.5482Y-5.4402
X4.5547Y-2.1051
X4.5732Y-5.5152
X4.6047Y-2.0301
X4.6232Y-5.4402
X4.6297Y-2.1051
X4.6482Y-5.5152
X4.6797Y-2.0301
X4.6982Y-5.4402
X4.7047Y-2.1051
X4.7232Y-5.5152
X4.7547Y-2.0301
X4.7732Y-5.4402
X4.7797Y-2.1051
X4.7982Y-5.5152
X4.8297Y-2.0301
X4.8482Y-5.4402
X4.8547Y-2.1051
X4.8732Y-5.5152
X4.9047Y-2.0301
X4.9232Y-5.4402
X4.9297Y-2.1051
X4.9482Y-5.5152
X4.9797Y-2.0301
X4.9982Y-5.4402
X5.0047Y-2.1051
X5.0232Y-5.5152
X5.0547Y-2.0301
X5.0732Y-5.4402
X5.0797Y-2.1051
X5.0982Y-5.5152
X5.1482Y-5.4402
X5.1732Y-5.5152
X5.2232Y-5.4402
X5.2482Y-5.5152
X5.2742Y-2.4689
X5.2742Y-2.5439
X5.2742Y-2.6189
X5.2742Y-2.6939
X5.2742Y-2.7689
X5.2742Y-2.8439
X5.2742Y-2.9189
X5.2742Y-2.9939
X5.2742Y-3.0689
X5.2742Y-3.1439
X5.3492Y-2.4439
X5.3492Y-2.5189
X5.3492Y-2.5939
X5.3492Y-2.6689
X5.3492Y-2.7439
X5.3492Y-2.8189
X5.3492Y-2.8939
X5.3492Y-2.9689
X5.3492Y-3.0439
X5.3492Y-3.1189
T5
X4.7205Y-2.4252
T6
X3.4902Y-2.061
X3.5059Y-5.4665
X5.3228Y-5.4665
X5.3504Y-2.0512
T7
X4.4685Y-3.5827
T0
M30
