G04 (created by PCBNEW (2013-04-04 BZR 4007)-stable) date Пнд 22 Апр 2013 17:42:38*
%MOIN*%
G04 Gerber Fmt 3.4, Leading zero omitted, Abs format*
%FSLAX34Y34*%
G01*
G70*
G90*
G04 APERTURE LIST*
%ADD10C,0.006*%
%ADD11C,0.0708661*%
%ADD12R,0.0393701X0.0314961*%
%ADD13R,0.0314961X0.0393701*%
%ADD14R,0.0859X0.2362*%
%ADD15R,0.016X0.2362*%
%ADD16C,0.0748031*%
%ADD17R,0.0748031X0.0255906*%
%ADD18R,0.0255906X0.0748031*%
%ADD19R,0.0255906X0.0255906*%
%ADD20C,0.023622*%
%ADD21C,0.00590551*%
%ADD22C,0.015748*%
%ADD23C,0.0393701*%
%ADD24C,0.00787402*%
%ADD25C,0.01*%
G04 APERTURE END LIST*
G54D10*
G54D11*
X35059Y-54665D03*
X53228Y-54665D03*
X53503Y-20511D03*
X34901Y-20610D03*
G54D12*
X52742Y-31438D03*
X53492Y-31188D03*
X52742Y-30688D03*
X53492Y-30438D03*
X52742Y-29938D03*
X53492Y-29688D03*
X52742Y-29188D03*
X53492Y-28938D03*
X52742Y-28438D03*
X53492Y-28188D03*
X52742Y-27688D03*
X53492Y-27438D03*
X52742Y-26938D03*
X53492Y-26688D03*
X52742Y-26188D03*
X53492Y-25938D03*
X52742Y-25438D03*
X53492Y-25188D03*
X52742Y-24688D03*
X53492Y-24438D03*
X34828Y-28761D03*
X35578Y-28511D03*
X34828Y-28011D03*
X35578Y-27761D03*
X34828Y-27261D03*
X35578Y-27011D03*
X34828Y-26511D03*
X35578Y-26261D03*
X34828Y-25761D03*
X35578Y-25511D03*
X34828Y-25011D03*
X35578Y-24761D03*
X34828Y-24261D03*
X35578Y-24011D03*
X34828Y-23511D03*
X35578Y-23261D03*
X34828Y-22761D03*
X35578Y-22511D03*
X34828Y-22011D03*
X35578Y-21761D03*
G54D13*
X42561Y-21057D03*
X42311Y-20307D03*
X41811Y-21057D03*
X41561Y-20307D03*
X41061Y-21057D03*
X40811Y-20307D03*
X40311Y-21057D03*
X40061Y-20307D03*
X39561Y-21057D03*
X39311Y-20307D03*
X38811Y-21057D03*
X38561Y-20307D03*
X38061Y-21057D03*
X37811Y-20307D03*
X37311Y-21057D03*
X37061Y-20307D03*
X36561Y-21057D03*
X36311Y-20307D03*
X35811Y-21057D03*
X35561Y-20307D03*
X52482Y-55151D03*
X52232Y-54401D03*
X51732Y-55151D03*
X51482Y-54401D03*
X50982Y-55151D03*
X50732Y-54401D03*
X50232Y-55151D03*
X49982Y-54401D03*
X49482Y-55151D03*
X49232Y-54401D03*
X48732Y-55151D03*
X48482Y-54401D03*
X47982Y-55151D03*
X47732Y-54401D03*
X47232Y-55151D03*
X46982Y-54401D03*
X46482Y-55151D03*
X46232Y-54401D03*
X45732Y-55151D03*
X45482Y-54401D03*
X43797Y-20301D03*
X44047Y-21051D03*
X44547Y-20301D03*
X44797Y-21051D03*
X45297Y-20301D03*
X45547Y-21051D03*
X46047Y-20301D03*
X46297Y-21051D03*
X46797Y-20301D03*
X47047Y-21051D03*
X47547Y-20301D03*
X47797Y-21051D03*
X48297Y-20301D03*
X48547Y-21051D03*
X49047Y-20301D03*
X49297Y-21051D03*
X49797Y-20301D03*
X50047Y-21051D03*
X50547Y-20301D03*
X50797Y-21051D03*
G54D14*
X44685Y-35826D03*
G54D15*
X43662Y-36219D03*
X43977Y-36219D03*
X44292Y-36849D03*
X44292Y-36534D03*
X45078Y-36849D03*
X45078Y-36534D03*
X45708Y-36219D03*
X45393Y-36219D03*
X43662Y-35433D03*
X43977Y-35433D03*
X45708Y-35433D03*
X45393Y-35433D03*
X44292Y-34803D03*
X44292Y-35118D03*
X45078Y-34803D03*
X45078Y-35118D03*
G54D16*
X47204Y-24251D03*
G54D17*
X47204Y-23801D03*
X47204Y-23551D03*
X47204Y-24701D03*
X47204Y-24951D03*
G54D18*
X47704Y-24251D03*
X47954Y-24251D03*
X46704Y-24251D03*
X46454Y-24251D03*
G54D19*
X46704Y-24751D03*
X46704Y-23751D03*
X47704Y-23751D03*
X47704Y-24751D03*
G54D20*
X41692Y-40708D03*
X48011Y-34212D03*
X46437Y-32381D03*
X46948Y-32460D03*
X37007Y-34842D03*
X42755Y-38602D03*
X41909Y-37165D03*
X37066Y-49547D03*
X36653Y-45866D03*
X36712Y-39665D03*
X41259Y-37145D03*
X43523Y-22322D03*
X47401Y-40698D03*
X44271Y-41948D03*
X44645Y-41909D03*
X47696Y-40807D03*
X45039Y-42618D03*
X48300Y-40200D03*
X44783Y-42185D03*
X47992Y-40748D03*
X45511Y-39527D03*
X43287Y-41968D03*
X45905Y-40688D03*
X43602Y-42007D03*
X46122Y-40925D03*
X43948Y-42007D03*
X44409Y-50177D03*
X48366Y-50177D03*
X50649Y-47066D03*
X44507Y-47854D03*
X44429Y-46259D03*
X49271Y-46397D03*
X48464Y-48582D03*
X44645Y-48582D03*
X50551Y-45866D03*
X44409Y-46948D03*
X45039Y-51062D03*
X48818Y-51062D03*
X48248Y-48799D03*
X44409Y-48799D03*
X44744Y-50610D03*
X48582Y-50610D03*
X45039Y-50393D03*
X48799Y-50393D03*
X44566Y-47421D03*
X50374Y-47244D03*
X48346Y-50826D03*
X44448Y-50826D03*
X50944Y-46929D03*
X44901Y-48070D03*
X45078Y-51771D03*
X48897Y-51771D03*
X44901Y-48366D03*
X48700Y-48366D03*
X44803Y-51299D03*
X48622Y-51299D03*
X48562Y-49940D03*
X44685Y-49940D03*
X50334Y-45610D03*
X44822Y-46574D03*
X48799Y-49724D03*
X44980Y-49724D03*
X48503Y-49251D03*
X44665Y-49251D03*
X47775Y-44842D03*
X42874Y-45039D03*
X44547Y-45964D03*
X49271Y-45885D03*
X42913Y-45393D03*
X47598Y-45137D03*
X53287Y-43877D03*
X41338Y-45944D03*
X45807Y-45413D03*
X48740Y-49035D03*
X44921Y-49035D03*
X48425Y-51535D03*
X44566Y-51535D03*
X48287Y-49507D03*
X44448Y-49507D03*
X38385Y-36673D03*
X41358Y-35846D03*
X48759Y-26968D03*
X42972Y-26574D03*
X42992Y-27696D03*
X41161Y-37657D03*
X41220Y-38444D03*
X41200Y-38051D03*
X47263Y-30295D03*
X50098Y-25748D03*
X47736Y-32244D03*
X46791Y-34803D03*
X47204Y-38523D03*
X47657Y-35649D03*
X41692Y-34862D03*
X47657Y-34862D03*
X45354Y-30866D03*
X44940Y-32204D03*
X46870Y-22578D03*
X41200Y-22598D03*
X40728Y-22401D03*
X47165Y-22145D03*
X42854Y-21948D03*
X42696Y-25984D03*
X40531Y-26496D03*
X35610Y-47125D03*
X35669Y-49783D03*
X43208Y-53562D03*
X48326Y-43759D03*
X47303Y-41791D03*
X45964Y-43090D03*
X46476Y-43405D03*
X42421Y-43720D03*
X45078Y-42952D03*
X36003Y-50059D03*
X37500Y-51200D03*
X52933Y-20433D03*
X39232Y-34763D03*
X43444Y-25787D03*
X37145Y-37480D03*
X43720Y-22086D03*
X50590Y-31220D03*
X41259Y-46240D03*
X51102Y-33799D03*
X50374Y-26220D03*
X45157Y-29566D03*
X40531Y-22716D03*
X40177Y-24901D03*
X38208Y-36220D03*
X39094Y-36122D03*
X42755Y-20334D03*
X43149Y-22657D03*
X49685Y-22933D03*
X48937Y-29330D03*
X47263Y-21692D03*
X51240Y-20492D03*
X51614Y-23562D03*
X51161Y-30413D03*
X51653Y-29271D03*
X41102Y-28582D03*
X45964Y-26948D03*
X47696Y-25925D03*
X48937Y-24763D03*
X51200Y-31161D03*
X48346Y-31397D03*
X43720Y-43622D03*
X44468Y-43622D03*
X50413Y-45137D03*
X44704Y-44488D03*
X48208Y-28681D03*
X50236Y-44468D03*
X41200Y-42550D03*
X37342Y-34488D03*
X43248Y-35846D03*
X50708Y-38720D03*
X52244Y-37696D03*
X35511Y-34704D03*
X38897Y-32952D03*
X44547Y-41476D03*
X42204Y-41594D03*
X48562Y-41515D03*
X39881Y-41397D03*
X40925Y-41437D03*
X41062Y-44744D03*
X41633Y-43602D03*
X39173Y-47559D03*
X40570Y-47440D03*
X44842Y-46259D03*
X44724Y-47007D03*
X45944Y-47893D03*
X47854Y-45531D03*
X50078Y-47244D03*
X49133Y-47933D03*
X49429Y-33897D03*
X46023Y-30216D03*
X37421Y-53779D03*
X39114Y-51358D03*
X35748Y-49173D03*
X36850Y-39960D03*
X37027Y-45846D03*
X44763Y-45236D03*
X49094Y-44606D03*
X41456Y-48248D03*
X45905Y-44822D03*
X52600Y-33500D03*
X48100Y-33850D03*
X52874Y-34921D03*
X47204Y-35137D03*
X47755Y-33700D03*
X37401Y-53287D03*
X40354Y-27578D03*
X45472Y-23464D03*
X40610Y-28543D03*
X49074Y-22480D03*
X45688Y-25551D03*
X40511Y-23720D03*
X48858Y-25433D03*
X47244Y-25905D03*
X46003Y-26200D03*
X45649Y-22637D03*
X45531Y-24547D03*
X42913Y-54035D03*
X35374Y-52224D03*
X52342Y-24153D03*
X50590Y-22972D03*
X48405Y-25944D03*
X51318Y-21161D03*
X51220Y-32637D03*
X52440Y-21653D03*
X51358Y-20846D03*
X50196Y-21791D03*
X47185Y-20374D03*
X35196Y-35000D03*
X35236Y-36377D03*
X51417Y-32362D03*
X49685Y-33641D03*
X37972Y-34901D03*
X47047Y-33484D03*
X44153Y-39074D03*
X42303Y-41161D03*
X51535Y-34153D03*
X48248Y-33248D03*
X51496Y-22933D03*
X49251Y-22893D03*
X48622Y-22696D03*
X49803Y-22027D03*
X47421Y-33011D03*
X50728Y-24094D03*
X52263Y-22952D03*
X52145Y-25492D03*
X48858Y-32086D03*
X52795Y-25078D03*
X43031Y-45925D03*
X40433Y-43976D03*
X45511Y-48149D03*
X45354Y-45295D03*
X45374Y-43070D03*
X43129Y-46240D03*
X40748Y-46555D03*
X47293Y-45442D03*
X45728Y-47204D03*
X38385Y-42362D03*
X36712Y-41259D03*
X36515Y-40413D03*
X35629Y-39940D03*
X43149Y-25905D03*
X42775Y-28720D03*
X39724Y-26968D03*
X36161Y-32893D03*
X39330Y-47933D03*
X41909Y-39311D03*
X42913Y-33700D03*
X39527Y-46358D03*
X43562Y-33562D03*
X45492Y-32992D03*
X45314Y-32460D03*
X41220Y-36751D03*
X41003Y-36496D03*
X45807Y-32972D03*
X45748Y-32677D03*
X45078Y-32657D03*
X44783Y-32736D03*
X42755Y-30708D03*
X42460Y-30807D03*
X44488Y-32736D03*
X44192Y-32736D03*
X43838Y-32716D03*
X43562Y-32578D03*
X43228Y-32500D03*
X43582Y-31082D03*
X43307Y-30885D03*
X43051Y-30708D03*
X43228Y-39074D03*
X43622Y-39291D03*
X43681Y-38976D03*
X42992Y-39311D03*
X52007Y-21240D03*
X46811Y-25944D03*
X51161Y-22972D03*
X52007Y-21673D03*
X46338Y-25964D03*
X50177Y-22440D03*
X39960Y-27185D03*
X37086Y-40748D03*
X38326Y-41456D03*
X42263Y-49842D03*
X38858Y-44606D03*
X35452Y-35767D03*
X36909Y-41023D03*
X38700Y-42362D03*
X39625Y-47755D03*
X41338Y-29448D03*
X37913Y-36181D03*
X46870Y-55295D03*
X40866Y-26535D03*
X40688Y-27185D03*
X45157Y-26850D03*
X46397Y-26279D03*
X44507Y-39015D03*
X43759Y-40688D03*
X48051Y-32460D03*
X51240Y-32106D03*
X50275Y-30393D03*
X51574Y-28031D03*
X50216Y-29173D03*
X52125Y-29665D03*
X45314Y-29114D03*
X46003Y-27244D03*
X46318Y-33956D03*
X45511Y-29448D03*
X46692Y-27618D03*
X46555Y-34429D03*
X45177Y-27145D03*
X40098Y-26220D03*
X46791Y-26299D03*
X51574Y-23248D03*
X43661Y-20708D03*
X47480Y-22165D03*
X45925Y-43425D03*
X38405Y-52795D03*
X44803Y-44921D03*
X45850Y-47500D03*
X40964Y-49114D03*
X49114Y-45334D03*
X47933Y-44547D03*
X42086Y-43582D03*
X41200Y-44271D03*
X42519Y-45275D03*
X43031Y-44744D03*
X44153Y-43169D03*
X50255Y-46653D03*
X49429Y-47637D03*
X41003Y-47854D03*
X41100Y-46500D03*
X41279Y-45649D03*
X45950Y-46900D03*
X48877Y-43641D03*
X46673Y-43740D03*
X47900Y-39550D03*
X44800Y-39550D03*
X45900Y-39550D03*
X48300Y-37950D03*
X48250Y-36550D03*
X46909Y-29311D03*
X48700Y-25748D03*
X49665Y-33287D03*
X36751Y-52775D03*
X48641Y-22224D03*
X45177Y-23779D03*
X52263Y-23562D03*
X52303Y-20885D03*
G54D21*
X41348Y-30147D02*
X41402Y-30093D01*
X45334Y-47637D02*
X45334Y-47637D01*
X37007Y-34842D02*
X37027Y-34842D01*
X44271Y-41948D02*
X44291Y-41948D01*
X47400Y-40700D02*
X47401Y-40698D01*
G54D10*
X47400Y-40700D02*
X46662Y-41437D01*
X46662Y-41437D02*
X45609Y-41437D01*
G54D21*
X45492Y-41437D02*
X45609Y-41437D01*
X45237Y-41692D02*
X45492Y-41437D01*
X44547Y-41692D02*
X45237Y-41692D01*
X44291Y-41948D02*
X44547Y-41692D01*
X44271Y-41948D02*
X44271Y-41919D01*
X47086Y-41279D02*
X47066Y-41259D01*
X46948Y-41417D02*
X46948Y-41338D01*
X46948Y-41501D02*
X46968Y-41481D01*
X45187Y-41909D02*
X45532Y-41564D01*
X45532Y-41564D02*
X46885Y-41564D01*
X44645Y-41909D02*
X45187Y-41909D01*
X46948Y-41501D02*
X46885Y-41564D01*
X47007Y-41279D02*
X46948Y-41338D01*
X46968Y-41481D02*
X46968Y-41437D01*
X46968Y-41437D02*
X46948Y-41417D01*
X47027Y-41259D02*
X47007Y-41279D01*
X47066Y-41259D02*
X47027Y-41259D01*
X47145Y-41279D02*
X47086Y-41279D01*
X47086Y-41279D02*
X47106Y-41279D01*
X47204Y-41181D02*
X47165Y-41141D01*
X47165Y-41141D02*
X47165Y-41102D01*
X47165Y-41102D02*
X47204Y-41062D01*
X47500Y-40950D02*
X47446Y-40950D01*
X47322Y-40944D02*
X47204Y-41062D01*
X47204Y-41220D02*
X47145Y-41279D01*
X47342Y-40925D02*
X47322Y-40944D01*
X47421Y-40925D02*
X47342Y-40925D01*
X47446Y-40950D02*
X47421Y-40925D01*
X47204Y-41220D02*
X47204Y-41181D01*
X47696Y-40807D02*
X47642Y-40807D01*
X47642Y-40807D02*
X47500Y-40950D01*
X47500Y-40950D02*
X47505Y-40944D01*
X45137Y-42293D02*
X45629Y-41801D01*
X46220Y-41801D02*
X46982Y-41801D01*
X46982Y-41801D02*
X47622Y-41161D01*
X47622Y-41161D02*
X47874Y-41161D01*
X48300Y-40735D02*
X47874Y-41161D01*
X45039Y-42618D02*
X45137Y-42293D01*
X45629Y-41801D02*
X46220Y-41801D01*
G54D10*
X48300Y-40200D02*
X48300Y-40735D01*
X48300Y-40735D02*
X48300Y-40750D01*
G54D21*
X44783Y-42185D02*
X44852Y-42116D01*
X45580Y-41683D02*
X45728Y-41683D01*
X45147Y-42116D02*
X45580Y-41683D01*
X44852Y-42116D02*
X45147Y-42116D01*
X47928Y-40940D02*
X47992Y-40876D01*
X47992Y-40876D02*
X47992Y-40748D01*
X47844Y-41023D02*
X47593Y-41023D01*
X46933Y-41683D02*
X47593Y-41023D01*
X45728Y-41683D02*
X46933Y-41683D01*
X47928Y-40940D02*
X47844Y-41023D01*
X47933Y-40935D02*
X47928Y-40940D01*
X45748Y-41683D02*
X45728Y-41683D01*
X43346Y-41732D02*
X43346Y-41909D01*
X45511Y-39527D02*
X45511Y-39566D01*
X45511Y-39566D02*
X43346Y-41732D01*
X43346Y-41909D02*
X43287Y-41968D01*
X45098Y-40846D02*
X45314Y-40846D01*
X45314Y-40846D02*
X45433Y-40728D01*
X45433Y-40728D02*
X45433Y-40629D01*
X45433Y-40629D02*
X45511Y-40551D01*
X44960Y-40551D02*
X45019Y-40610D01*
X45748Y-40688D02*
X45610Y-40551D01*
X45610Y-40551D02*
X45511Y-40551D01*
X45905Y-40688D02*
X45748Y-40688D01*
X45019Y-40767D02*
X45098Y-40846D01*
X45019Y-40610D02*
X45019Y-40767D01*
X44556Y-40688D02*
X43602Y-41643D01*
X43602Y-41643D02*
X43602Y-42007D01*
X44694Y-40551D02*
X44556Y-40688D01*
X44940Y-40551D02*
X44960Y-40551D01*
X44960Y-40551D02*
X44694Y-40551D01*
X43602Y-42007D02*
X43543Y-42007D01*
X44527Y-40924D02*
X44979Y-40924D01*
X45570Y-40925D02*
X46122Y-40925D01*
X45531Y-40885D02*
X45570Y-40925D01*
X45452Y-40885D02*
X45531Y-40885D01*
X45354Y-40984D02*
X45452Y-40885D01*
X45354Y-41200D02*
X45354Y-40984D01*
X45275Y-41279D02*
X45354Y-41200D01*
X45118Y-41279D02*
X45275Y-41279D01*
X45059Y-41220D02*
X45118Y-41279D01*
X45059Y-41003D02*
X45059Y-41220D01*
X44979Y-40924D02*
X45059Y-41003D01*
X43948Y-42007D02*
X43937Y-41996D01*
X43937Y-41515D02*
X44527Y-40924D01*
X44527Y-40924D02*
X44526Y-40925D01*
X43937Y-41996D02*
X43937Y-41515D01*
X43948Y-42007D02*
X43949Y-42007D01*
X48366Y-50177D02*
X44409Y-50177D01*
X49645Y-47303D02*
X49921Y-47578D01*
X45944Y-46456D02*
X48534Y-46456D01*
X49065Y-46988D02*
X48700Y-46623D01*
X48700Y-46623D02*
X48534Y-46456D01*
X49380Y-47303D02*
X49065Y-46988D01*
X49645Y-47303D02*
X49380Y-47303D01*
X50649Y-47263D02*
X50649Y-47066D01*
X50334Y-47578D02*
X50649Y-47263D01*
X49921Y-47578D02*
X50334Y-47578D01*
X45944Y-46456D02*
X45865Y-46456D01*
X45865Y-46456D02*
X44507Y-47814D01*
X44507Y-47814D02*
X44507Y-47854D01*
X44527Y-47854D02*
X44507Y-47854D01*
X44527Y-47854D02*
X44527Y-47785D01*
X45944Y-46456D02*
X45944Y-46456D01*
X44507Y-46181D02*
X44625Y-46181D01*
X44625Y-46181D02*
X44625Y-46181D01*
X44822Y-45984D02*
X44625Y-46181D01*
X44429Y-46259D02*
X44507Y-46181D01*
X49271Y-46397D02*
X49212Y-46338D01*
X49212Y-46338D02*
X49212Y-46161D01*
X49212Y-46161D02*
X49035Y-45984D01*
X49035Y-45984D02*
X44822Y-45984D01*
X44822Y-45984D02*
X44822Y-45984D01*
X44645Y-48582D02*
X48464Y-48582D01*
X49960Y-46614D02*
X49822Y-46751D01*
X48632Y-46220D02*
X45728Y-46220D01*
X45403Y-46545D02*
X45728Y-46220D01*
X49163Y-46751D02*
X48937Y-46525D01*
X49251Y-46751D02*
X49163Y-46751D01*
X50551Y-46023D02*
X50551Y-45866D01*
X49960Y-46614D02*
X50551Y-46023D01*
X48937Y-46525D02*
X48632Y-46220D01*
X49822Y-46751D02*
X49251Y-46751D01*
X44409Y-46948D02*
X44468Y-46948D01*
X44468Y-46948D02*
X44625Y-46791D01*
X44625Y-46791D02*
X45157Y-46791D01*
X45157Y-46791D02*
X45403Y-46545D01*
X45403Y-46545D02*
X45413Y-46535D01*
X45039Y-51062D02*
X48818Y-51062D01*
X44409Y-48799D02*
X48248Y-48799D01*
X44744Y-50610D02*
X48582Y-50610D01*
X48799Y-50393D02*
X45039Y-50393D01*
X49748Y-47239D02*
X49970Y-47460D01*
X49429Y-47185D02*
X49694Y-47185D01*
X49694Y-47185D02*
X49748Y-47239D01*
X49114Y-46870D02*
X48583Y-46338D01*
X44733Y-47421D02*
X44566Y-47421D01*
X45816Y-46338D02*
X44733Y-47421D01*
X48583Y-46338D02*
X45816Y-46338D01*
X49114Y-46870D02*
X49429Y-47185D01*
X50157Y-47460D02*
X50374Y-47244D01*
X49970Y-47460D02*
X50157Y-47460D01*
X50374Y-47244D02*
X50374Y-47283D01*
X44645Y-47421D02*
X44645Y-47421D01*
X48346Y-50826D02*
X44448Y-50826D01*
X49586Y-47421D02*
X49596Y-47421D01*
X49586Y-47421D02*
X49331Y-47421D01*
X49331Y-47421D02*
X49302Y-47392D01*
X49302Y-47392D02*
X48485Y-46574D01*
X48485Y-46574D02*
X45914Y-46574D01*
X45629Y-46859D02*
X45914Y-46574D01*
X50944Y-47135D02*
X50944Y-46929D01*
X50383Y-47696D02*
X50944Y-47135D01*
X49872Y-47696D02*
X50383Y-47696D01*
X49596Y-47421D02*
X49872Y-47696D01*
X44901Y-48070D02*
X44901Y-47587D01*
X45590Y-46898D02*
X45629Y-46859D01*
X44901Y-47587D02*
X45590Y-46898D01*
X45629Y-46859D02*
X45619Y-46870D01*
X48897Y-51771D02*
X45078Y-51771D01*
X44901Y-48366D02*
X48700Y-48366D01*
X48622Y-51299D02*
X44803Y-51299D01*
X48622Y-51299D02*
X48602Y-51318D01*
X48562Y-49940D02*
X44685Y-49940D01*
X50334Y-46073D02*
X50334Y-45610D01*
X49773Y-46633D02*
X50334Y-46073D01*
X49773Y-46633D02*
X49409Y-46633D01*
X44822Y-46574D02*
X45206Y-46574D01*
X45206Y-46574D02*
X45679Y-46102D01*
X45679Y-46102D02*
X48956Y-46102D01*
X49055Y-46200D02*
X48956Y-46102D01*
X49055Y-46476D02*
X49055Y-46200D01*
X49212Y-46633D02*
X49055Y-46476D01*
X49409Y-46633D02*
X49212Y-46633D01*
X49429Y-46633D02*
X49409Y-46633D01*
X44980Y-49724D02*
X48799Y-49724D01*
X48503Y-49251D02*
X44665Y-49251D01*
X46751Y-45000D02*
X46909Y-44842D01*
X46909Y-44842D02*
X47775Y-44842D01*
X46751Y-45000D02*
X46122Y-45629D01*
X46122Y-45629D02*
X43464Y-45629D01*
X43464Y-45629D02*
X42874Y-45039D01*
X44645Y-45866D02*
X44547Y-45964D01*
X49251Y-45866D02*
X44645Y-45866D01*
X49271Y-45885D02*
X49251Y-45866D01*
X47598Y-45137D02*
X47598Y-45098D01*
X43267Y-45748D02*
X42913Y-45393D01*
X46170Y-45748D02*
X43267Y-45748D01*
X46958Y-44960D02*
X46170Y-45748D01*
X47460Y-44960D02*
X46958Y-44960D01*
X47598Y-45098D02*
X47460Y-44960D01*
X46589Y-44985D02*
X46062Y-45511D01*
X45905Y-45511D02*
X45807Y-45413D01*
X47244Y-44330D02*
X46589Y-44985D01*
X46062Y-45511D02*
X45905Y-45511D01*
X47362Y-44212D02*
X47244Y-44330D01*
X52952Y-44212D02*
X47362Y-44212D01*
X52952Y-44212D02*
X53287Y-43877D01*
X45807Y-45413D02*
X45708Y-45511D01*
X45708Y-45511D02*
X45511Y-45511D01*
X41456Y-45944D02*
X41338Y-45944D01*
X42874Y-44488D02*
X41456Y-45944D01*
X43110Y-44488D02*
X42874Y-44488D01*
X43307Y-44685D02*
X43110Y-44488D01*
X43307Y-45305D02*
X43307Y-44685D01*
X43513Y-45511D02*
X43307Y-45305D01*
X45511Y-45511D02*
X43513Y-45511D01*
X45807Y-45413D02*
X45807Y-45492D01*
X48740Y-49035D02*
X44921Y-49035D01*
X48425Y-51535D02*
X44566Y-51535D01*
X48287Y-49507D02*
X44448Y-49507D01*
X38385Y-36673D02*
X39035Y-36673D01*
X40905Y-35846D02*
X41358Y-35846D01*
X40354Y-36397D02*
X40905Y-35846D01*
X39311Y-36397D02*
X40354Y-36397D01*
X39035Y-36673D02*
X39311Y-36397D01*
X50098Y-25748D02*
X49370Y-26476D01*
X49370Y-26476D02*
X49370Y-31003D01*
X49370Y-31003D02*
X48169Y-32204D01*
X48169Y-32204D02*
X47775Y-32204D01*
X47775Y-32204D02*
X47736Y-32244D01*
X45354Y-30866D02*
X44940Y-31279D01*
X44940Y-31279D02*
X44940Y-32204D01*
X40061Y-21734D02*
X40061Y-20307D01*
X40728Y-22401D02*
X40061Y-21734D01*
X47165Y-22145D02*
X47047Y-22027D01*
X47047Y-22027D02*
X47047Y-21051D01*
X47165Y-21169D02*
X47047Y-21051D01*
X37637Y-29389D02*
X39586Y-27440D01*
X39586Y-27440D02*
X40019Y-27440D01*
X40019Y-27440D02*
X40374Y-27086D01*
X40374Y-27086D02*
X40374Y-26653D01*
X40374Y-26653D02*
X40531Y-26496D01*
X42854Y-22165D02*
X42854Y-21948D01*
X42854Y-25826D02*
X42854Y-22165D01*
X42696Y-25984D02*
X42854Y-25826D01*
X37637Y-29389D02*
X37637Y-29389D01*
X37637Y-29389D02*
X37637Y-39606D01*
X37637Y-41102D02*
X37637Y-39606D01*
X36299Y-42440D02*
X37637Y-41102D01*
X36299Y-46437D02*
X36299Y-42440D01*
X35610Y-47125D02*
X36299Y-46437D01*
X37637Y-39606D02*
X37637Y-39596D01*
X43248Y-53405D02*
X43248Y-53523D01*
X39094Y-49783D02*
X39921Y-50610D01*
X39921Y-50610D02*
X40452Y-50610D01*
X40452Y-50610D02*
X43248Y-53405D01*
X35669Y-49783D02*
X39094Y-49783D01*
X43248Y-53523D02*
X43208Y-53562D01*
X48208Y-28681D02*
X48218Y-28690D01*
X41200Y-42550D02*
X41200Y-42539D01*
X52600Y-33500D02*
X52600Y-33850D01*
X52600Y-33850D02*
X52050Y-34400D01*
X52050Y-34400D02*
X51450Y-34400D01*
X51450Y-34400D02*
X51400Y-34350D01*
X51400Y-34350D02*
X51350Y-34350D01*
X51350Y-34350D02*
X51300Y-34300D01*
X51300Y-34300D02*
X48700Y-34300D01*
X48700Y-34300D02*
X48250Y-33850D01*
X48250Y-33850D02*
X48100Y-33850D01*
X52716Y-35078D02*
X52874Y-34921D01*
X47263Y-35078D02*
X52716Y-35078D01*
X47204Y-35137D02*
X47263Y-35078D01*
X47755Y-33976D02*
X47755Y-34251D01*
X47755Y-33700D02*
X47755Y-33976D01*
X53799Y-30746D02*
X53492Y-30438D01*
X53799Y-32817D02*
X53799Y-30746D01*
X52089Y-34527D02*
X53799Y-32817D01*
X48031Y-34527D02*
X52089Y-34527D01*
X47755Y-34251D02*
X48031Y-34527D01*
G54D22*
X37401Y-53287D02*
X37401Y-53346D01*
X37401Y-53287D02*
X37401Y-53346D01*
G54D23*
X42224Y-53346D02*
X42913Y-54035D01*
X36496Y-53346D02*
X37401Y-53346D01*
X37401Y-53346D02*
X42224Y-53346D01*
X35374Y-52224D02*
X36496Y-53346D01*
X42913Y-54035D02*
X42854Y-53976D01*
G54D21*
X48390Y-25929D02*
X48390Y-25496D01*
X48390Y-25496D02*
X48828Y-25059D01*
X48828Y-25059D02*
X48976Y-25059D01*
X48976Y-25059D02*
X50590Y-23444D01*
G54D22*
X50590Y-23444D02*
X50590Y-22972D01*
G54D21*
X48405Y-25944D02*
X48390Y-25929D01*
X48459Y-25890D02*
X48459Y-25890D01*
X48405Y-25944D02*
X48459Y-25890D01*
X53602Y-29350D02*
X53681Y-29350D01*
X53791Y-23807D02*
X53779Y-23795D01*
X53169Y-29517D02*
X53169Y-29763D01*
X53169Y-29517D02*
X53336Y-29350D01*
X53336Y-29350D02*
X53602Y-29350D01*
X53779Y-29251D02*
X53779Y-23795D01*
X53681Y-29350D02*
X53779Y-29251D01*
X51496Y-21476D02*
X51318Y-21161D01*
X53799Y-23815D02*
X53791Y-23807D01*
X51496Y-21476D02*
X51496Y-21511D01*
X51496Y-21511D02*
X53791Y-23807D01*
X51496Y-21456D02*
X51496Y-21476D01*
X53110Y-31023D02*
X53169Y-30964D01*
X53169Y-30964D02*
X53169Y-29763D01*
X53169Y-29763D02*
X53169Y-29744D01*
X52992Y-31141D02*
X53110Y-31023D01*
X53110Y-31023D02*
X53149Y-30984D01*
X52371Y-31141D02*
X52992Y-31141D01*
X52130Y-31382D02*
X52371Y-31141D01*
X52130Y-31944D02*
X52130Y-31382D01*
X51437Y-32637D02*
X52130Y-31944D01*
X51220Y-32637D02*
X51437Y-32637D01*
X52440Y-21653D02*
X52460Y-21633D01*
X51909Y-20846D02*
X51358Y-20846D01*
X52440Y-21377D02*
X51909Y-20846D01*
X52460Y-21377D02*
X52440Y-21377D01*
X52460Y-21633D02*
X52460Y-21377D01*
X52362Y-21653D02*
X52440Y-21653D01*
X50068Y-21663D02*
X50196Y-21791D01*
X47568Y-21663D02*
X50068Y-21663D01*
X47568Y-21663D02*
X47568Y-21663D01*
X50196Y-21791D02*
X50196Y-21791D01*
X47185Y-20374D02*
X47185Y-20472D01*
X47500Y-21594D02*
X47568Y-21663D01*
X47568Y-21663D02*
X47578Y-21673D01*
X47500Y-20787D02*
X47500Y-21594D01*
X47185Y-20472D02*
X47500Y-20787D01*
X35196Y-36338D02*
X35196Y-35000D01*
X35236Y-36377D02*
X35196Y-36338D01*
X50964Y-32362D02*
X50885Y-32440D01*
X49685Y-33641D02*
X50885Y-32440D01*
X51417Y-32362D02*
X50964Y-32362D01*
X47047Y-33484D02*
X46496Y-33484D01*
X46496Y-33484D02*
X46220Y-33208D01*
X46220Y-33208D02*
X42500Y-33208D01*
X42500Y-33208D02*
X42165Y-33543D01*
X42165Y-33543D02*
X42165Y-34192D01*
X42165Y-34192D02*
X42032Y-34325D01*
X42032Y-34325D02*
X38548Y-34325D01*
X38548Y-34325D02*
X37972Y-34901D01*
X43976Y-38661D02*
X44153Y-38838D01*
X44153Y-38838D02*
X44153Y-39074D01*
X43444Y-39153D02*
X43444Y-38976D01*
X42303Y-40481D02*
X42303Y-40688D01*
X42303Y-40481D02*
X43375Y-39409D01*
X43375Y-39409D02*
X43375Y-39232D01*
X43444Y-38760D02*
X43543Y-38661D01*
X43543Y-38661D02*
X43917Y-38661D01*
X43375Y-39222D02*
X43444Y-39153D01*
X43375Y-39232D02*
X43375Y-39222D01*
X43385Y-38818D02*
X43444Y-38760D01*
X43385Y-38917D02*
X43385Y-38818D01*
X43444Y-38976D02*
X43385Y-38917D01*
X43917Y-38661D02*
X43976Y-38661D01*
X42303Y-40688D02*
X42303Y-41161D01*
X42303Y-40669D02*
X42303Y-40688D01*
X48838Y-34153D02*
X51535Y-34153D01*
X48248Y-33562D02*
X48838Y-34153D01*
X48248Y-33248D02*
X48248Y-33562D01*
X50157Y-22755D02*
X49842Y-22440D01*
X49842Y-22440D02*
X49586Y-22440D01*
X49586Y-22440D02*
X49251Y-22775D01*
X49251Y-22893D02*
X49251Y-22775D01*
X51437Y-22755D02*
X51496Y-22933D01*
X50236Y-22755D02*
X51437Y-22755D01*
X50236Y-22755D02*
X50157Y-22755D01*
X49803Y-22027D02*
X49192Y-22027D01*
X48622Y-22598D02*
X48622Y-22696D01*
X49192Y-22027D02*
X48622Y-22598D01*
X49862Y-22086D02*
X49803Y-22027D01*
X47421Y-33011D02*
X47322Y-32913D01*
X47322Y-32913D02*
X47322Y-31929D01*
X47322Y-31929D02*
X49153Y-30098D01*
X49153Y-30098D02*
X49153Y-25787D01*
X49153Y-25787D02*
X50846Y-24094D01*
X50846Y-24094D02*
X50728Y-24094D01*
X51909Y-23897D02*
X52007Y-23799D01*
X52352Y-25078D02*
X51909Y-24636D01*
X51909Y-24636D02*
X51909Y-23897D01*
X52352Y-25078D02*
X52795Y-25078D01*
X52007Y-23208D02*
X52263Y-22952D01*
X52007Y-23799D02*
X52007Y-23208D01*
X51909Y-25728D02*
X52145Y-25492D01*
X49901Y-26338D02*
X50511Y-25728D01*
X49901Y-31200D02*
X49901Y-26338D01*
X49015Y-32086D02*
X49901Y-31200D01*
X48858Y-32086D02*
X49015Y-32086D01*
X50511Y-25728D02*
X51909Y-25728D01*
X52795Y-25078D02*
X52814Y-25059D01*
X52814Y-25059D02*
X52814Y-25059D01*
X40748Y-46850D02*
X41574Y-46850D01*
X43031Y-45925D02*
X43110Y-45925D01*
X43208Y-46476D02*
X41948Y-46476D01*
X43346Y-46338D02*
X43208Y-46476D01*
X43346Y-46161D02*
X43346Y-46338D01*
X43110Y-45925D02*
X43346Y-46161D01*
X40531Y-46633D02*
X40748Y-46850D01*
X40531Y-46633D02*
X40531Y-45905D01*
X41574Y-46850D02*
X41948Y-46476D01*
X40531Y-45905D02*
X40531Y-45413D01*
X40334Y-44074D02*
X40433Y-43976D01*
X40334Y-45216D02*
X40334Y-44074D01*
X40531Y-45413D02*
X40334Y-45216D01*
X40531Y-45885D02*
X40531Y-45905D01*
X45885Y-48149D02*
X45866Y-48149D01*
X45511Y-48149D02*
X45885Y-48149D01*
X45354Y-45295D02*
X45314Y-45255D01*
X45314Y-45255D02*
X45314Y-43425D01*
X45314Y-43425D02*
X45374Y-43070D01*
X41496Y-46712D02*
X40905Y-46712D01*
X43129Y-46240D02*
X41968Y-46240D01*
X41968Y-46240D02*
X41496Y-46712D01*
X40905Y-46712D02*
X40748Y-46555D01*
X50452Y-45393D02*
X50354Y-45393D01*
X50354Y-45393D02*
X50059Y-45098D01*
X50059Y-45098D02*
X47972Y-45098D01*
X47972Y-45098D02*
X47627Y-45442D01*
X47627Y-45442D02*
X47293Y-45442D01*
X51161Y-46102D02*
X50452Y-45393D01*
X50137Y-48109D02*
X50097Y-48149D01*
X50137Y-48109D02*
X51161Y-47086D01*
X51161Y-47086D02*
X51161Y-46909D01*
X50097Y-48149D02*
X45866Y-48149D01*
X51161Y-46909D02*
X51161Y-46102D01*
X45629Y-47913D02*
X45866Y-48149D01*
X45629Y-47303D02*
X45728Y-47204D01*
X45629Y-47913D02*
X45629Y-47303D01*
X35748Y-39822D02*
X35748Y-35000D01*
X39409Y-47224D02*
X38307Y-46122D01*
X38307Y-46122D02*
X38307Y-42539D01*
X38307Y-42539D02*
X38385Y-42362D01*
X36712Y-41259D02*
X36515Y-41062D01*
X36515Y-41062D02*
X36515Y-40413D01*
X35629Y-39940D02*
X35748Y-39822D01*
X35748Y-35000D02*
X35925Y-34822D01*
X35925Y-34822D02*
X35925Y-33129D01*
X36161Y-32893D02*
X35925Y-33129D01*
X39409Y-47224D02*
X39409Y-47618D01*
X43149Y-25905D02*
X42429Y-26704D01*
X42429Y-26704D02*
X42429Y-28374D01*
X42429Y-28374D02*
X42775Y-28720D01*
X39724Y-26968D02*
X36161Y-30531D01*
X36161Y-30531D02*
X36161Y-32893D01*
X39409Y-47618D02*
X39409Y-47795D01*
X39409Y-47795D02*
X39409Y-47854D01*
X39409Y-47854D02*
X39330Y-47933D01*
X39409Y-47618D02*
X39409Y-47618D01*
X47755Y-55472D02*
X49161Y-55472D01*
X39980Y-47284D02*
X39192Y-46496D01*
X39192Y-46496D02*
X39192Y-46427D01*
X47125Y-53740D02*
X47381Y-53996D01*
X39980Y-49025D02*
X44694Y-53740D01*
X44694Y-53740D02*
X47125Y-53740D01*
X39192Y-41771D02*
X39192Y-46427D01*
X41653Y-39311D02*
X39980Y-40984D01*
X41909Y-39311D02*
X41653Y-39311D01*
X39980Y-40984D02*
X39192Y-41771D01*
X39980Y-48622D02*
X39980Y-49025D01*
X47677Y-55393D02*
X47755Y-55472D01*
X47677Y-55019D02*
X47677Y-55393D01*
X47381Y-54724D02*
X47677Y-55019D01*
X47381Y-53996D02*
X47381Y-54724D01*
X39980Y-48622D02*
X39980Y-47284D01*
X49161Y-55472D02*
X49482Y-55151D01*
X49482Y-55151D02*
X49429Y-55204D01*
X39527Y-46358D02*
X39370Y-46200D01*
X42470Y-35324D02*
X42677Y-35118D01*
X42677Y-33937D02*
X42913Y-33700D01*
X42125Y-39507D02*
X42125Y-35669D01*
X39370Y-42263D02*
X42125Y-39507D01*
X42125Y-35669D02*
X42470Y-35324D01*
X42677Y-35118D02*
X42677Y-33937D01*
X39370Y-46023D02*
X39370Y-42263D01*
X39370Y-46200D02*
X39370Y-46023D01*
X43287Y-53188D02*
X43642Y-53188D01*
X46482Y-55143D02*
X46482Y-55151D01*
X45836Y-54498D02*
X46482Y-55143D01*
X45836Y-54242D02*
X45836Y-54498D01*
X45695Y-54101D02*
X45836Y-54242D01*
X44554Y-54101D02*
X45695Y-54101D01*
X43642Y-53188D02*
X44554Y-54101D01*
X43346Y-33484D02*
X43425Y-33562D01*
X43425Y-33562D02*
X43562Y-33562D01*
X42608Y-33572D02*
X42696Y-33484D01*
X40826Y-36141D02*
X41397Y-36141D01*
X41397Y-36141D02*
X41437Y-36141D01*
X41437Y-36141D02*
X42519Y-35059D01*
X42519Y-35059D02*
X42519Y-33661D01*
X42519Y-33661D02*
X42608Y-33572D01*
X40433Y-36535D02*
X40826Y-36141D01*
X42696Y-33484D02*
X43346Y-33484D01*
X43287Y-53188D02*
X43287Y-53188D01*
X45492Y-32992D02*
X45314Y-32814D01*
X45314Y-32814D02*
X45314Y-32460D01*
X43523Y-33562D02*
X43562Y-33562D01*
X37775Y-47677D02*
X43287Y-53188D01*
X43287Y-53188D02*
X43287Y-53188D01*
X37775Y-39625D02*
X37775Y-47677D01*
X40433Y-36968D02*
X37775Y-39625D01*
X40433Y-36515D02*
X40433Y-36535D01*
X40433Y-36535D02*
X40433Y-36968D01*
X43543Y-52923D02*
X43543Y-52923D01*
X43543Y-52923D02*
X44603Y-53983D01*
X46596Y-54015D02*
X46982Y-54401D01*
X46563Y-53983D02*
X46596Y-54015D01*
X44603Y-53983D02*
X46563Y-53983D01*
X43248Y-52923D02*
X43543Y-52923D01*
X40807Y-50482D02*
X43248Y-52923D01*
X43248Y-52923D02*
X43257Y-52933D01*
X40807Y-50216D02*
X40807Y-50482D01*
X39114Y-48523D02*
X40807Y-50216D01*
X39094Y-48523D02*
X39114Y-48523D01*
X37933Y-47362D02*
X39094Y-48523D01*
X37933Y-39635D02*
X37933Y-47362D01*
X40816Y-36751D02*
X37933Y-39635D01*
X41220Y-36751D02*
X40816Y-36751D01*
X39862Y-47401D02*
X39862Y-47332D01*
X39862Y-47401D02*
X39862Y-49074D01*
X39862Y-49074D02*
X44652Y-53865D01*
X44652Y-53865D02*
X46994Y-53865D01*
X46994Y-53865D02*
X47263Y-54133D01*
X47263Y-54133D02*
X47263Y-55120D01*
X47232Y-55151D02*
X47263Y-55120D01*
X39074Y-41318D02*
X39074Y-42263D01*
X41673Y-38720D02*
X39074Y-41318D01*
X41673Y-36712D02*
X41673Y-38720D01*
X41456Y-36496D02*
X41673Y-36712D01*
X41003Y-36496D02*
X41456Y-36496D01*
X39074Y-42263D02*
X39074Y-46515D01*
X39074Y-46545D02*
X39074Y-46515D01*
X39862Y-47332D02*
X39074Y-46545D01*
X46653Y-20301D02*
X46653Y-21496D01*
X45688Y-32303D02*
X45688Y-30807D01*
X45807Y-32972D02*
X45964Y-32814D01*
X45964Y-32814D02*
X45964Y-32578D01*
X45964Y-32578D02*
X45688Y-32303D01*
X45688Y-21919D02*
X46092Y-21515D01*
X46092Y-21515D02*
X46633Y-21515D01*
X46633Y-21515D02*
X46653Y-21496D01*
X45580Y-22027D02*
X45688Y-21919D01*
X45491Y-22027D02*
X45580Y-22027D01*
X44940Y-22578D02*
X45491Y-22027D01*
X44940Y-29970D02*
X44940Y-22578D01*
X45688Y-30718D02*
X44940Y-29970D01*
X45688Y-30767D02*
X45688Y-30718D01*
X45688Y-30807D02*
X45688Y-30767D01*
X44822Y-22696D02*
X44822Y-22529D01*
X46297Y-21143D02*
X46297Y-21051D01*
X45570Y-21870D02*
X46297Y-21143D01*
X45481Y-21870D02*
X45570Y-21870D01*
X44822Y-22529D02*
X45481Y-21870D01*
X45570Y-32500D02*
X45570Y-30767D01*
X45570Y-32500D02*
X45748Y-32677D01*
X44822Y-30019D02*
X44822Y-22696D01*
X44822Y-22696D02*
X44822Y-22667D01*
X45570Y-30767D02*
X44822Y-30019D01*
X46047Y-21137D02*
X46047Y-20301D01*
X44704Y-22480D02*
X46047Y-21137D01*
X44704Y-32283D02*
X44704Y-22480D01*
X45078Y-32657D02*
X44704Y-32283D01*
X44586Y-32244D02*
X44586Y-32460D01*
X44783Y-32657D02*
X44783Y-32736D01*
X44586Y-32460D02*
X44783Y-32657D01*
X45547Y-21194D02*
X45547Y-21051D01*
X44586Y-22155D02*
X45547Y-21194D01*
X44586Y-32224D02*
X44586Y-32244D01*
X44586Y-32244D02*
X44586Y-32224D01*
X44586Y-32224D02*
X44586Y-22155D01*
X41574Y-21633D02*
X41574Y-21570D01*
X42755Y-30314D02*
X41574Y-29133D01*
X41574Y-29133D02*
X41574Y-21633D01*
X42755Y-30708D02*
X42755Y-30314D01*
X41574Y-21570D02*
X41061Y-21057D01*
X42460Y-30807D02*
X42460Y-30186D01*
X40811Y-21322D02*
X40811Y-20307D01*
X40866Y-21377D02*
X40811Y-21322D01*
X41214Y-21377D02*
X40866Y-21377D01*
X41456Y-21619D02*
X41214Y-21377D01*
X41456Y-29182D02*
X41456Y-21619D01*
X42460Y-30186D02*
X41456Y-29182D01*
X42460Y-30807D02*
X42421Y-30807D01*
X44468Y-32303D02*
X44468Y-32716D01*
X44468Y-32303D02*
X44468Y-22106D01*
X44468Y-22106D02*
X45177Y-21397D01*
X45177Y-21397D02*
X45177Y-20421D01*
X45297Y-20301D02*
X45177Y-20421D01*
X44468Y-32716D02*
X44488Y-32736D01*
X44311Y-32322D02*
X44311Y-32617D01*
X44797Y-21051D02*
X44797Y-21442D01*
X44330Y-21909D02*
X44797Y-21442D01*
X44311Y-32322D02*
X44330Y-21909D01*
X44311Y-32617D02*
X44192Y-32736D01*
X44173Y-32421D02*
X43877Y-32716D01*
X44173Y-32381D02*
X44173Y-32421D01*
X44173Y-32381D02*
X44173Y-21594D01*
X44173Y-21594D02*
X44409Y-21358D01*
X44409Y-21358D02*
X44409Y-20438D01*
X44547Y-20301D02*
X44409Y-20438D01*
X43877Y-32716D02*
X43838Y-32716D01*
X43838Y-32637D02*
X43838Y-32716D01*
X43937Y-32047D02*
X43937Y-32204D01*
X43937Y-21051D02*
X43937Y-31838D01*
X43937Y-32047D02*
X43937Y-31838D01*
X43937Y-32204D02*
X43562Y-32578D01*
X43562Y-32578D02*
X43562Y-32519D01*
X43799Y-31771D02*
X43799Y-22952D01*
X43326Y-32500D02*
X43799Y-32027D01*
X43799Y-32027D02*
X43799Y-31948D01*
X43799Y-31948D02*
X43799Y-31771D01*
X43228Y-32500D02*
X43326Y-32500D01*
X42913Y-21409D02*
X42561Y-21057D01*
X42913Y-21456D02*
X42913Y-21409D01*
X43287Y-21830D02*
X42913Y-21456D01*
X43287Y-22007D02*
X43287Y-21830D01*
X43267Y-22027D02*
X43287Y-22007D01*
X43267Y-22165D02*
X43267Y-22027D01*
X43307Y-22204D02*
X43267Y-22165D01*
X43307Y-22460D02*
X43307Y-22204D01*
X43799Y-22952D02*
X43307Y-22460D01*
X43582Y-31082D02*
X43582Y-30000D01*
X43582Y-30000D02*
X43346Y-29763D01*
X42311Y-28728D02*
X42311Y-20307D01*
X43346Y-29763D02*
X42311Y-28728D01*
X43582Y-31082D02*
X43562Y-31062D01*
X43307Y-30885D02*
X43307Y-30531D01*
X41811Y-29035D02*
X41811Y-21057D01*
X43307Y-30531D02*
X41811Y-29035D01*
X41737Y-29128D02*
X41692Y-29084D01*
X41535Y-20332D02*
X41561Y-20307D01*
X41535Y-21338D02*
X41535Y-20332D01*
X41692Y-21496D02*
X41535Y-21338D01*
X41692Y-29084D02*
X41692Y-21496D01*
X43051Y-30442D02*
X43051Y-30708D01*
X41732Y-29124D02*
X41737Y-29128D01*
X41737Y-29128D02*
X43051Y-30442D01*
X39881Y-45610D02*
X39881Y-45827D01*
X50232Y-55151D02*
X50232Y-54100D01*
X39881Y-45610D02*
X39881Y-44173D01*
X41732Y-48228D02*
X40743Y-47239D01*
X41732Y-50029D02*
X41732Y-48228D01*
X44448Y-52746D02*
X41732Y-50029D01*
X48877Y-52746D02*
X44448Y-52746D01*
X50232Y-54100D02*
X48877Y-52746D01*
X40743Y-47239D02*
X40674Y-47239D01*
X40624Y-47239D02*
X40674Y-47239D01*
X40118Y-46732D02*
X40624Y-47239D01*
X40118Y-46063D02*
X40118Y-46732D01*
X39881Y-45827D02*
X40118Y-46063D01*
X42804Y-39527D02*
X43090Y-39527D01*
X42047Y-40284D02*
X42804Y-39527D01*
X42047Y-40649D02*
X42047Y-40284D01*
X43228Y-39389D02*
X43228Y-39074D01*
X43090Y-39527D02*
X43228Y-39389D01*
X43228Y-39173D02*
X43228Y-39074D01*
X43208Y-39173D02*
X43228Y-39153D01*
X43228Y-39153D02*
X43228Y-39074D01*
X39881Y-43041D02*
X42047Y-40875D01*
X42047Y-40875D02*
X42047Y-40649D01*
X42047Y-40649D02*
X42047Y-40629D01*
X39881Y-44173D02*
X39881Y-43041D01*
X39881Y-44173D02*
X39881Y-44153D01*
X40000Y-45629D02*
X40000Y-45778D01*
X40674Y-47121D02*
X40674Y-47106D01*
X40673Y-47121D02*
X40674Y-47121D01*
X40236Y-46683D02*
X40673Y-47121D01*
X40236Y-46014D02*
X40236Y-46683D01*
X40000Y-45778D02*
X40236Y-46014D01*
X40000Y-43700D02*
X40000Y-43897D01*
X40413Y-43287D02*
X40000Y-43700D01*
X41515Y-43287D02*
X40413Y-43287D01*
X42519Y-42283D02*
X41515Y-43287D01*
X42519Y-40432D02*
X42519Y-42283D01*
X43503Y-39448D02*
X42519Y-40432D01*
X43503Y-39409D02*
X43503Y-39448D01*
X43622Y-39291D02*
X43503Y-39409D01*
X40000Y-43897D02*
X40000Y-45629D01*
X40000Y-45629D02*
X40000Y-45629D01*
X50732Y-54098D02*
X50732Y-54401D01*
X40674Y-47106D02*
X40777Y-47106D01*
X40777Y-47106D02*
X41850Y-48179D01*
X41850Y-48179D02*
X41850Y-49980D01*
X41850Y-49980D02*
X44497Y-52627D01*
X44497Y-52627D02*
X49261Y-52627D01*
X49261Y-52627D02*
X50732Y-54098D01*
X40669Y-47106D02*
X40674Y-47106D01*
X43799Y-39094D02*
X43681Y-38976D01*
X43547Y-39571D02*
X43637Y-39571D01*
X40826Y-46988D02*
X40707Y-46988D01*
X40707Y-46988D02*
X40354Y-46635D01*
X40354Y-46635D02*
X40354Y-45965D01*
X40354Y-45965D02*
X40118Y-45729D01*
X40118Y-45729D02*
X40118Y-43749D01*
X40118Y-43749D02*
X40462Y-43405D01*
X40462Y-43405D02*
X41564Y-43405D01*
X41564Y-43405D02*
X43070Y-41899D01*
X43070Y-41899D02*
X43070Y-40048D01*
X43070Y-40048D02*
X43547Y-39571D01*
X50982Y-55151D02*
X50982Y-54903D01*
X41968Y-48130D02*
X41052Y-47214D01*
X41968Y-49931D02*
X41968Y-48130D01*
X44546Y-52509D02*
X41968Y-49931D01*
X49419Y-52509D02*
X44546Y-52509D01*
X51003Y-54094D02*
X49419Y-52509D01*
X51003Y-54881D02*
X51003Y-54094D01*
X50982Y-54903D02*
X51003Y-54881D01*
X41052Y-47214D02*
X40826Y-46988D01*
X43838Y-39192D02*
X43799Y-39153D01*
X43838Y-39370D02*
X43838Y-39192D01*
X43637Y-39571D02*
X43838Y-39370D01*
X43799Y-39153D02*
X43799Y-39094D01*
X40354Y-47204D02*
X40354Y-47136D01*
X39763Y-45866D02*
X39763Y-45669D01*
X42992Y-39311D02*
X42853Y-39311D01*
X42853Y-39311D02*
X41929Y-40235D01*
X41929Y-40235D02*
X41929Y-40826D01*
X41929Y-40826D02*
X39763Y-42992D01*
X39763Y-42992D02*
X39763Y-45669D01*
X39763Y-45876D02*
X39763Y-45866D01*
X40000Y-46112D02*
X39763Y-45876D01*
X40000Y-46781D02*
X40000Y-46112D01*
X40354Y-47136D02*
X40000Y-46781D01*
X40354Y-47195D02*
X40354Y-47204D01*
X40354Y-47204D02*
X40354Y-48818D01*
X44399Y-52864D02*
X40354Y-48818D01*
X44399Y-52864D02*
X48828Y-52864D01*
X49982Y-54017D02*
X49982Y-54401D01*
X48828Y-52864D02*
X49982Y-54017D01*
X44399Y-52864D02*
X44409Y-52874D01*
X48602Y-26161D02*
X47027Y-26161D01*
X52007Y-21240D02*
X52007Y-21673D01*
X48602Y-26161D02*
X50433Y-24330D01*
X50433Y-24330D02*
X50433Y-23976D01*
X50433Y-23976D02*
X51161Y-22972D01*
X47027Y-26161D02*
X46811Y-25944D01*
X50177Y-22440D02*
X50098Y-22440D01*
X46830Y-25610D02*
X48110Y-25610D01*
X48110Y-25610D02*
X48681Y-25039D01*
X48681Y-25039D02*
X48681Y-23582D01*
X46830Y-25610D02*
X46338Y-25964D01*
X49251Y-22598D02*
X48681Y-23169D01*
X48681Y-23169D02*
X48681Y-23582D01*
X49291Y-22559D02*
X49251Y-22598D01*
X49291Y-22381D02*
X49291Y-22559D01*
X49370Y-22303D02*
X49291Y-22381D01*
X49921Y-22303D02*
X49370Y-22303D01*
X50098Y-22440D02*
X49921Y-22303D01*
X39837Y-27308D02*
X39960Y-27185D01*
X39551Y-27308D02*
X39837Y-27308D01*
X38877Y-43503D02*
X38877Y-42499D01*
X39551Y-27308D02*
X39552Y-27308D01*
X36771Y-30088D02*
X39551Y-27308D01*
X36771Y-34940D02*
X36771Y-30088D01*
X37362Y-35531D02*
X36771Y-34940D01*
X37362Y-40472D02*
X37362Y-35531D01*
X37086Y-40748D02*
X37362Y-40472D01*
X38956Y-42086D02*
X38326Y-41456D01*
X38956Y-42421D02*
X38956Y-42086D01*
X38877Y-42499D02*
X38956Y-42421D01*
X51732Y-55151D02*
X51608Y-55151D01*
X42263Y-50060D02*
X42263Y-49842D01*
X44595Y-52391D02*
X42263Y-50060D01*
X49468Y-52391D02*
X44595Y-52391D01*
X51141Y-54065D02*
X49468Y-52391D01*
X51141Y-54685D02*
X51141Y-54065D01*
X51608Y-55151D02*
X51141Y-54685D01*
X38877Y-44586D02*
X38877Y-43503D01*
X38877Y-43503D02*
X38877Y-43484D01*
X38858Y-44606D02*
X38877Y-44586D01*
X36692Y-40177D02*
X36791Y-40275D01*
X35610Y-39291D02*
X35413Y-39488D01*
X35610Y-39291D02*
X35610Y-35925D01*
X35610Y-35925D02*
X35452Y-35767D01*
X35492Y-40177D02*
X36377Y-40177D01*
X35413Y-40098D02*
X35492Y-40177D01*
X35413Y-40039D02*
X35413Y-40098D01*
X35413Y-39488D02*
X35413Y-40039D01*
X39448Y-47086D02*
X39527Y-47165D01*
X36791Y-40905D02*
X36791Y-40275D01*
X36909Y-41023D02*
X36791Y-40905D01*
X38425Y-42755D02*
X38700Y-42362D01*
X38425Y-46062D02*
X38425Y-42755D01*
X39448Y-47086D02*
X38425Y-46062D01*
X39527Y-47657D02*
X39625Y-47755D01*
X39527Y-47165D02*
X39527Y-47657D01*
X36377Y-40177D02*
X36692Y-40177D01*
X37755Y-33031D02*
X37755Y-32440D01*
X41062Y-29448D02*
X41338Y-29448D01*
X38228Y-32283D02*
X41062Y-29448D01*
X37913Y-32283D02*
X38228Y-32283D01*
X37755Y-32440D02*
X37913Y-32283D01*
X37755Y-36023D02*
X37913Y-36181D01*
X37755Y-33031D02*
X37755Y-33031D01*
X37755Y-33031D02*
X37755Y-36023D01*
X45157Y-55236D02*
X44547Y-55236D01*
X45157Y-55236D02*
X45374Y-55452D01*
X45374Y-55452D02*
X46771Y-55452D01*
X46771Y-55452D02*
X46870Y-55354D01*
X46870Y-55354D02*
X46870Y-55295D01*
X40866Y-26338D02*
X40866Y-26535D01*
X41003Y-51692D02*
X44389Y-55078D01*
X36929Y-51692D02*
X41003Y-51692D01*
X34881Y-49645D02*
X36929Y-51692D01*
X34881Y-39527D02*
X34881Y-49645D01*
X34960Y-39448D02*
X34881Y-39527D01*
X34960Y-31397D02*
X34960Y-39448D01*
X39724Y-26633D02*
X34960Y-31397D01*
X40078Y-26633D02*
X39724Y-26633D01*
X40452Y-26259D02*
X40078Y-26633D01*
X40787Y-26259D02*
X40452Y-26259D01*
X40866Y-26338D02*
X40787Y-26259D01*
X44547Y-55236D02*
X44389Y-55078D01*
X40866Y-26535D02*
X40866Y-27007D01*
X40866Y-27007D02*
X40688Y-27185D01*
X45511Y-26496D02*
X45157Y-26850D01*
X46397Y-26279D02*
X46397Y-26279D01*
X46181Y-26496D02*
X45551Y-26496D01*
X46397Y-26279D02*
X46181Y-26496D01*
X45551Y-26496D02*
X45511Y-26496D01*
X44507Y-39015D02*
X44507Y-39251D01*
G54D10*
X43850Y-39735D02*
X43850Y-40492D01*
G54D21*
X43978Y-39606D02*
X43850Y-39735D01*
X44153Y-39606D02*
X43978Y-39606D01*
X44507Y-39251D02*
X44153Y-39606D01*
X43850Y-40492D02*
X43850Y-40598D01*
X43850Y-40598D02*
X43759Y-40688D01*
G54D10*
X43850Y-40492D02*
X43850Y-40500D01*
G54D21*
X52381Y-28228D02*
X52381Y-28188D01*
X47550Y-20300D02*
X47547Y-20301D01*
X47750Y-20300D02*
X47550Y-20300D01*
X48198Y-20748D02*
X47750Y-20300D01*
X50275Y-20748D02*
X48198Y-20748D01*
X50413Y-20885D02*
X50275Y-20748D01*
X50413Y-21161D02*
X50413Y-20885D01*
X50601Y-21350D02*
X50413Y-21161D01*
X51000Y-21350D02*
X50601Y-21350D01*
X53328Y-23678D02*
X51000Y-21350D01*
X53328Y-23777D02*
X53328Y-23678D01*
X53031Y-24074D02*
X53328Y-23777D01*
X53031Y-25196D02*
X53031Y-24074D01*
X53031Y-27893D02*
X53031Y-25196D01*
X52933Y-27992D02*
X53031Y-27893D01*
X52578Y-27992D02*
X52933Y-27992D01*
X52381Y-28188D02*
X52578Y-27992D01*
X51929Y-30866D02*
X52381Y-30413D01*
X51929Y-30866D02*
X50195Y-32600D01*
X50195Y-32600D02*
X48550Y-32600D01*
X48051Y-32460D02*
X48200Y-32600D01*
X48200Y-32600D02*
X48550Y-32600D01*
X52381Y-30413D02*
X52381Y-28228D01*
X52381Y-28228D02*
X52381Y-28222D01*
X53464Y-23818D02*
X53464Y-23647D01*
X53159Y-24124D02*
X53464Y-23818D01*
X53159Y-25688D02*
X53159Y-24124D01*
X53464Y-23647D02*
X53412Y-23595D01*
X53159Y-29360D02*
X53159Y-25688D01*
X53159Y-25688D02*
X53159Y-25679D01*
X51240Y-32106D02*
X52322Y-31023D01*
X52322Y-31023D02*
X52933Y-31023D01*
X52933Y-31023D02*
X53051Y-30905D01*
X53051Y-30905D02*
X53051Y-29468D01*
X53051Y-29468D02*
X53159Y-29360D01*
X51102Y-20826D02*
X50925Y-20649D01*
X50354Y-20649D02*
X50334Y-20629D01*
X50334Y-20629D02*
X48625Y-20629D01*
X48297Y-20301D02*
X48625Y-20629D01*
X51102Y-21285D02*
X51102Y-20826D01*
X53412Y-23595D02*
X51102Y-21285D01*
X50925Y-20649D02*
X50354Y-20649D01*
X53432Y-23615D02*
X53412Y-23595D01*
X50216Y-29173D02*
X50216Y-30314D01*
X50275Y-30393D02*
X50216Y-30314D01*
X50216Y-29173D02*
X50196Y-29153D01*
X51555Y-28051D02*
X51574Y-28031D01*
X50551Y-28051D02*
X51555Y-28051D01*
X50196Y-28405D02*
X50551Y-28051D01*
X50196Y-29153D02*
X50196Y-28405D01*
X51870Y-23759D02*
X51870Y-22598D01*
X51870Y-23759D02*
X51791Y-23838D01*
X51791Y-23838D02*
X51791Y-24685D01*
X51791Y-24685D02*
X52027Y-24921D01*
X52106Y-25000D02*
X52027Y-24921D01*
X51968Y-22696D02*
X50767Y-21496D01*
X51870Y-22598D02*
X51968Y-22696D01*
X48242Y-21496D02*
X47797Y-21051D01*
X50767Y-21496D02*
X48242Y-21496D01*
X52244Y-28110D02*
X52244Y-27893D01*
X52244Y-29547D02*
X52244Y-28110D01*
X52125Y-29665D02*
X52244Y-29547D01*
X52106Y-25000D02*
X52106Y-25000D01*
X52401Y-25295D02*
X52106Y-25000D01*
X52401Y-27736D02*
X52401Y-25295D01*
X52244Y-27893D02*
X52401Y-27736D01*
X52106Y-29645D02*
X52125Y-29665D01*
X45654Y-28823D02*
X45363Y-29114D01*
X45363Y-29114D02*
X45314Y-29114D01*
X46909Y-27519D02*
X46633Y-27244D01*
X45654Y-28823D02*
X45984Y-28493D01*
X46909Y-27519D02*
X46909Y-27716D01*
X46909Y-27716D02*
X46732Y-27893D01*
X46732Y-27893D02*
X46584Y-27893D01*
X46584Y-27893D02*
X45984Y-28493D01*
X46633Y-27244D02*
X46003Y-27244D01*
X45654Y-28823D02*
X45649Y-28828D01*
X39685Y-46141D02*
X39748Y-46205D01*
X39507Y-45964D02*
X39685Y-46141D01*
X39507Y-42322D02*
X39507Y-45964D01*
X43425Y-38405D02*
X39507Y-42322D01*
X46082Y-38405D02*
X43425Y-38405D01*
X46338Y-38149D02*
X46082Y-38405D01*
X46338Y-33976D02*
X46338Y-38149D01*
X46318Y-33956D02*
X46338Y-33976D01*
X40118Y-47303D02*
X40118Y-48956D01*
X40118Y-48956D02*
X44783Y-53622D01*
X44783Y-53622D02*
X47519Y-53622D01*
X47519Y-53622D02*
X47732Y-53834D01*
X47732Y-53834D02*
X47732Y-54401D01*
X40118Y-47303D02*
X40118Y-47254D01*
X39748Y-46885D02*
X40118Y-47254D01*
X39748Y-46205D02*
X39748Y-46885D01*
X45078Y-29133D02*
X45078Y-28976D01*
X45334Y-29448D02*
X45078Y-29192D01*
X45078Y-29192D02*
X45078Y-29133D01*
X45807Y-28503D02*
X45551Y-28503D01*
X45551Y-28503D02*
X45137Y-28917D01*
X46692Y-27618D02*
X45807Y-28503D01*
X45511Y-29448D02*
X45334Y-29448D01*
X45078Y-28976D02*
X45137Y-28917D01*
X39645Y-45925D02*
X39881Y-46161D01*
X40236Y-47185D02*
X39881Y-46830D01*
X40236Y-48897D02*
X40236Y-47204D01*
X39645Y-42352D02*
X39645Y-45925D01*
X44842Y-53503D02*
X40236Y-48897D01*
X39645Y-42352D02*
X42918Y-39079D01*
X39881Y-46830D02*
X39881Y-46161D01*
X40236Y-47204D02*
X40236Y-47185D01*
X46456Y-38208D02*
X46122Y-38543D01*
X43454Y-38543D02*
X42918Y-39079D01*
X43454Y-38543D02*
X46122Y-38543D01*
X46456Y-38208D02*
X46456Y-38149D01*
X46555Y-34429D02*
X46456Y-34527D01*
X46456Y-34527D02*
X46456Y-38149D01*
X46456Y-38149D02*
X46456Y-38208D01*
X42918Y-39079D02*
X42922Y-39074D01*
X47401Y-53503D02*
X47598Y-53503D01*
X48070Y-55062D02*
X47982Y-55151D01*
X48070Y-54173D02*
X48070Y-55062D01*
X44842Y-53503D02*
X47293Y-53503D01*
X47293Y-53503D02*
X47401Y-53503D01*
X48070Y-53976D02*
X48070Y-54173D01*
X47598Y-53503D02*
X48070Y-53976D01*
X44842Y-53503D02*
X44842Y-53503D01*
X46102Y-26614D02*
X45984Y-26614D01*
X46791Y-26299D02*
X46476Y-26614D01*
X40098Y-26220D02*
X40905Y-25413D01*
X40905Y-25413D02*
X40905Y-22716D01*
X40905Y-22716D02*
X40905Y-22519D01*
X40905Y-22519D02*
X40944Y-22480D01*
X40944Y-22480D02*
X40944Y-22066D01*
X40944Y-22066D02*
X40311Y-21433D01*
X40311Y-21433D02*
X40311Y-21057D01*
X46102Y-26614D02*
X46476Y-26614D01*
X45452Y-27145D02*
X45177Y-27145D01*
X45984Y-26614D02*
X45452Y-27145D01*
X46791Y-26299D02*
X46751Y-26299D01*
G54D24*
X51732Y-22657D02*
X51732Y-23078D01*
X51732Y-23078D02*
X51574Y-23248D01*
X51614Y-22539D02*
X51732Y-22657D01*
G54D21*
X50098Y-22007D02*
X50098Y-22007D01*
G54D24*
X47480Y-22165D02*
X47716Y-21929D01*
G54D21*
X50098Y-22007D02*
X49872Y-21781D01*
X49872Y-21781D02*
X47864Y-21781D01*
X47864Y-21781D02*
X47716Y-21929D01*
X50944Y-22539D02*
X50413Y-22007D01*
X50944Y-22539D02*
X51614Y-22539D01*
X50413Y-22007D02*
X50413Y-22007D01*
X50098Y-22007D02*
X50413Y-22007D01*
X50098Y-22007D02*
X50098Y-22007D01*
G54D24*
X51614Y-22539D02*
X51614Y-22539D01*
G54D22*
X48562Y-22303D02*
X48641Y-22224D01*
X48267Y-22874D02*
X48267Y-22598D01*
X45177Y-23779D02*
X45216Y-23740D01*
X45216Y-23740D02*
X45669Y-23740D01*
X45669Y-23740D02*
X45925Y-23484D01*
X45925Y-23484D02*
X45925Y-23031D01*
X45925Y-23031D02*
X46082Y-22874D01*
X46082Y-22874D02*
X48267Y-22874D01*
X48444Y-22421D02*
X48562Y-22303D01*
X48267Y-22598D02*
X48444Y-22421D01*
X52742Y-24041D02*
X52263Y-23562D01*
X52742Y-24688D02*
X52742Y-24041D01*
X48562Y-22303D02*
X48661Y-22303D01*
G54D10*
G36*
X42875Y-45679D02*
X42869Y-45682D01*
X42788Y-45762D01*
X42745Y-45868D01*
X42745Y-45981D01*
X42770Y-46042D01*
X41968Y-46042D01*
X41892Y-46057D01*
X41828Y-46100D01*
X41414Y-46514D01*
X41404Y-46514D01*
X41405Y-46489D01*
X41421Y-46482D01*
X41502Y-46402D01*
X41546Y-46297D01*
X41546Y-46183D01*
X41534Y-46154D01*
X41581Y-46107D01*
X41588Y-46090D01*
X41596Y-46084D01*
X41597Y-46083D01*
X41598Y-46082D01*
X42587Y-45065D01*
X42587Y-45096D01*
X42631Y-45201D01*
X42668Y-45238D01*
X42627Y-45336D01*
X42627Y-45450D01*
X42670Y-45555D01*
X42751Y-45636D01*
X42856Y-45679D01*
X42875Y-45679D01*
X42875Y-45679D01*
G37*
G54D25*
X42875Y-45679D02*
X42869Y-45682D01*
X42788Y-45762D01*
X42745Y-45868D01*
X42745Y-45981D01*
X42770Y-46042D01*
X41968Y-46042D01*
X41892Y-46057D01*
X41828Y-46100D01*
X41414Y-46514D01*
X41404Y-46514D01*
X41405Y-46489D01*
X41421Y-46482D01*
X41502Y-46402D01*
X41546Y-46297D01*
X41546Y-46183D01*
X41534Y-46154D01*
X41581Y-46107D01*
X41588Y-46090D01*
X41596Y-46084D01*
X41597Y-46083D01*
X41598Y-46082D01*
X42587Y-45065D01*
X42587Y-45096D01*
X42631Y-45201D01*
X42668Y-45238D01*
X42627Y-45336D01*
X42627Y-45450D01*
X42670Y-45555D01*
X42751Y-45636D01*
X42856Y-45679D01*
X42875Y-45679D01*
G54D10*
G36*
X43109Y-44870D02*
X43036Y-44796D01*
X42931Y-44753D01*
X42891Y-44753D01*
X42956Y-44685D01*
X43028Y-44685D01*
X43109Y-44766D01*
X43109Y-44870D01*
X43109Y-44870D01*
G37*
G54D25*
X43109Y-44870D02*
X43036Y-44796D01*
X42931Y-44753D01*
X42891Y-44753D01*
X42956Y-44685D01*
X43028Y-44685D01*
X43109Y-44766D01*
X43109Y-44870D01*
G54D10*
G36*
X44930Y-43869D02*
X44927Y-44306D01*
X44867Y-44245D01*
X44761Y-44202D01*
X44648Y-44201D01*
X44542Y-44245D01*
X44462Y-44325D01*
X44418Y-44431D01*
X44418Y-44544D01*
X44461Y-44650D01*
X44542Y-44730D01*
X44647Y-44774D01*
X44761Y-44774D01*
X44866Y-44730D01*
X44925Y-44672D01*
X44923Y-44992D01*
X44820Y-44950D01*
X44707Y-44949D01*
X44601Y-44993D01*
X44521Y-45073D01*
X44477Y-45179D01*
X44477Y-45292D01*
X44486Y-45314D01*
X43595Y-45314D01*
X43504Y-45223D01*
X43504Y-44685D01*
X43504Y-44685D01*
X43504Y-44685D01*
X43489Y-44609D01*
X43446Y-44545D01*
X43446Y-44545D01*
X43249Y-44348D01*
X43185Y-44305D01*
X43110Y-44290D01*
X42874Y-44290D01*
X42873Y-44290D01*
X42870Y-44290D01*
X42803Y-44304D01*
X42798Y-44305D01*
X42798Y-44305D01*
X42795Y-44306D01*
X42731Y-44350D01*
X41442Y-45676D01*
X41524Y-43888D01*
X41575Y-43888D01*
X41576Y-43888D01*
X41690Y-43888D01*
X41693Y-43887D01*
X42180Y-43884D01*
X42258Y-43962D01*
X42364Y-44006D01*
X42477Y-44006D01*
X42583Y-43963D01*
X42663Y-43882D01*
X42664Y-43881D01*
X43587Y-43876D01*
X43663Y-43908D01*
X43777Y-43908D01*
X43857Y-43875D01*
X44325Y-43872D01*
X44411Y-43908D01*
X44525Y-43908D01*
X44615Y-43870D01*
X44930Y-43869D01*
X44930Y-43869D01*
G37*
G54D25*
X44930Y-43869D02*
X44927Y-44306D01*
X44867Y-44245D01*
X44761Y-44202D01*
X44648Y-44201D01*
X44542Y-44245D01*
X44462Y-44325D01*
X44418Y-44431D01*
X44418Y-44544D01*
X44461Y-44650D01*
X44542Y-44730D01*
X44647Y-44774D01*
X44761Y-44774D01*
X44866Y-44730D01*
X44925Y-44672D01*
X44923Y-44992D01*
X44820Y-44950D01*
X44707Y-44949D01*
X44601Y-44993D01*
X44521Y-45073D01*
X44477Y-45179D01*
X44477Y-45292D01*
X44486Y-45314D01*
X43595Y-45314D01*
X43504Y-45223D01*
X43504Y-44685D01*
X43504Y-44685D01*
X43504Y-44685D01*
X43489Y-44609D01*
X43446Y-44545D01*
X43446Y-44545D01*
X43249Y-44348D01*
X43185Y-44305D01*
X43110Y-44290D01*
X42874Y-44290D01*
X42873Y-44290D01*
X42870Y-44290D01*
X42803Y-44304D01*
X42798Y-44305D01*
X42798Y-44305D01*
X42795Y-44306D01*
X42731Y-44350D01*
X41442Y-45676D01*
X41524Y-43888D01*
X41575Y-43888D01*
X41576Y-43888D01*
X41690Y-43888D01*
X41693Y-43887D01*
X42180Y-43884D01*
X42258Y-43962D01*
X42364Y-44006D01*
X42477Y-44006D01*
X42583Y-43963D01*
X42663Y-43882D01*
X42664Y-43881D01*
X43587Y-43876D01*
X43663Y-43908D01*
X43777Y-43908D01*
X43857Y-43875D01*
X44325Y-43872D01*
X44411Y-43908D01*
X44525Y-43908D01*
X44615Y-43870D01*
X44930Y-43869D01*
M02*
