G04 (created by PCBNEW (2013-04-04 BZR 4007)-stable) date Втр 09 Апр 2013 20:20:45*
%MOIN*%
G04 Gerber Fmt 3.4, Leading zero omitted, Abs format*
%FSLAX34Y34*%
G01*
G70*
G90*
G04 APERTURE LIST*
%ADD10C,0.006*%
%ADD11C,0.0511811*%
%ADD12R,0.0859X0.2362*%
%ADD13R,0.016X0.2362*%
%ADD14C,0.023622*%
%ADD15C,0.012*%
%ADD16C,0.0787402*%
%ADD17C,0.01*%
G04 APERTURE END LIST*
G54D10*
G54D11*
X44076Y-21403D03*
X44576Y-21903D03*
X45076Y-21403D03*
X45576Y-21903D03*
X46076Y-21403D03*
X46576Y-21903D03*
X47076Y-21403D03*
X47576Y-21903D03*
X48076Y-21403D03*
X48576Y-21903D03*
X49076Y-21403D03*
X49576Y-21903D03*
X50076Y-21403D03*
X50576Y-21903D03*
X51076Y-21403D03*
X51576Y-21903D03*
X52076Y-21403D03*
X52576Y-21903D03*
X53076Y-21403D03*
X53576Y-21903D03*
X34769Y-31356D03*
X35269Y-30856D03*
X34769Y-30356D03*
X35269Y-29856D03*
X34769Y-29356D03*
X35269Y-28856D03*
X34769Y-28356D03*
X35269Y-27856D03*
X34769Y-27356D03*
X35269Y-26856D03*
X34769Y-26356D03*
X35269Y-25856D03*
X34769Y-25356D03*
X35269Y-24856D03*
X34769Y-24356D03*
X35269Y-23856D03*
X34769Y-23356D03*
X35269Y-22856D03*
X34769Y-22356D03*
X35269Y-21856D03*
X44545Y-20958D03*
X44045Y-20458D03*
X43545Y-20958D03*
X43045Y-20458D03*
X42545Y-20958D03*
X42045Y-20458D03*
X41545Y-20958D03*
X41045Y-20458D03*
X40545Y-20958D03*
X40045Y-20458D03*
X39545Y-20958D03*
X39045Y-20458D03*
X38545Y-20958D03*
X38045Y-20458D03*
X37545Y-20958D03*
X37045Y-20458D03*
X36545Y-20958D03*
X36045Y-20458D03*
X35545Y-20958D03*
X35045Y-20458D03*
X52938Y-33364D03*
X53438Y-32864D03*
X52938Y-32364D03*
X53438Y-31864D03*
X52938Y-31364D03*
X53438Y-30864D03*
X52938Y-30364D03*
X53438Y-29864D03*
X52938Y-29364D03*
X53438Y-28864D03*
X52938Y-28364D03*
X53438Y-27864D03*
X52938Y-27364D03*
X53438Y-26864D03*
X52938Y-26364D03*
X53438Y-25864D03*
X52938Y-25364D03*
X53438Y-24864D03*
X52938Y-24364D03*
X53438Y-23864D03*
X53482Y-55151D03*
X52982Y-54651D03*
X52482Y-55151D03*
X51982Y-54651D03*
X51482Y-55151D03*
X50982Y-54651D03*
X50482Y-55151D03*
X49982Y-54651D03*
X49482Y-55151D03*
X48982Y-54651D03*
X48482Y-55151D03*
X47982Y-54651D03*
X47482Y-55151D03*
X46982Y-54651D03*
X46482Y-55151D03*
X45982Y-54651D03*
X45482Y-55151D03*
X44982Y-54651D03*
X44482Y-55151D03*
X43982Y-54651D03*
G54D12*
X44685Y-35826D03*
G54D13*
X43662Y-36219D03*
X43977Y-36219D03*
X44292Y-36849D03*
X44292Y-36534D03*
X45078Y-36849D03*
X45078Y-36534D03*
X45708Y-36219D03*
X45393Y-36219D03*
X43662Y-35433D03*
X43977Y-35433D03*
X45708Y-35433D03*
X45393Y-35433D03*
X44292Y-34803D03*
X44292Y-35118D03*
X45078Y-34803D03*
X45078Y-35118D03*
G54D14*
X48011Y-34212D03*
X42755Y-38602D03*
X41909Y-37165D03*
X46948Y-32460D03*
X46397Y-32460D03*
X41259Y-37145D03*
X36653Y-45866D03*
X36712Y-39665D03*
X37066Y-49547D03*
G54D15*
X44400Y-41850D03*
X47400Y-40700D03*
X44550Y-42050D03*
X47650Y-40800D03*
X45039Y-42440D03*
X48300Y-40200D03*
X44800Y-42250D03*
X47850Y-40700D03*
G54D14*
X43464Y-41968D03*
X45511Y-39527D03*
G54D15*
X43775Y-41900D03*
X45900Y-40775D03*
X44025Y-41900D03*
X46075Y-41025D03*
G54D14*
X44409Y-50177D03*
X48366Y-50177D03*
X44507Y-47854D03*
X50964Y-47165D03*
X44429Y-46259D03*
X49271Y-46397D03*
X48464Y-48582D03*
X44645Y-48582D03*
X50551Y-45866D03*
X44409Y-46948D03*
X45039Y-51062D03*
X48818Y-51062D03*
X48248Y-48799D03*
X44409Y-48799D03*
X44744Y-50610D03*
X48582Y-50610D03*
X45039Y-50393D03*
X48799Y-50393D03*
X44566Y-47421D03*
X50610Y-47362D03*
X48346Y-50826D03*
X44448Y-50826D03*
X44901Y-48070D03*
X51318Y-46968D03*
X45078Y-51771D03*
X48897Y-51771D03*
X48700Y-48366D03*
X44901Y-48366D03*
X44803Y-51299D03*
X48622Y-51299D03*
X48562Y-49940D03*
X44685Y-49940D03*
X50334Y-45610D03*
X44822Y-46574D03*
X48799Y-49724D03*
X44980Y-49724D03*
X44665Y-49251D03*
X48503Y-49251D03*
X47775Y-44842D03*
X42874Y-45039D03*
X44547Y-45964D03*
X49271Y-45885D03*
X42913Y-45393D03*
X47598Y-45137D03*
X54133Y-44370D03*
X41259Y-45944D03*
X45807Y-45413D03*
X48740Y-49035D03*
X44921Y-49035D03*
X48425Y-51535D03*
X44566Y-51535D03*
X48287Y-49507D03*
X44448Y-49507D03*
X41240Y-26870D03*
X41358Y-35846D03*
X41161Y-37657D03*
X41220Y-38444D03*
X41200Y-38051D03*
X41692Y-34862D03*
X46791Y-34724D03*
X47657Y-34862D03*
X45551Y-29547D03*
X47322Y-29488D03*
X45354Y-30866D03*
X44940Y-32204D03*
X43661Y-27480D03*
X35669Y-49783D03*
X45275Y-44074D03*
X39881Y-41397D03*
X41062Y-41358D03*
X50236Y-44468D03*
X50688Y-26496D03*
X41003Y-44744D03*
X41633Y-43681D03*
X39232Y-47381D03*
X44625Y-43503D03*
X43720Y-43622D03*
X40452Y-47224D03*
X44842Y-46259D03*
X44724Y-47007D03*
X45950Y-47800D03*
X46377Y-43405D03*
X47854Y-45531D03*
X50275Y-47440D03*
X50177Y-42185D03*
X49133Y-47933D03*
X49429Y-33897D03*
X43582Y-22460D03*
X46023Y-30216D03*
X42421Y-24074D03*
X38897Y-26377D03*
X39862Y-55354D03*
X37480Y-55059D03*
X37421Y-53779D03*
X39665Y-49901D03*
X39114Y-51358D03*
X35944Y-50236D03*
X35748Y-49173D03*
X36850Y-39960D03*
X37027Y-45846D03*
X44763Y-45236D03*
X49271Y-44429D03*
X41496Y-48307D03*
X41259Y-46240D03*
X45905Y-44822D03*
X47440Y-43149D03*
X49192Y-44862D03*
X53326Y-34114D03*
X47736Y-33700D03*
X47893Y-34527D03*
X48051Y-33681D03*
X49645Y-25944D03*
X43720Y-23799D03*
X45925Y-22893D03*
X51397Y-32440D03*
X49685Y-33641D03*
X37972Y-34901D03*
X47047Y-33484D03*
X42303Y-41161D03*
X43641Y-39330D03*
X51535Y-34153D03*
X48248Y-33248D03*
X48937Y-28129D03*
X48248Y-32559D03*
X50688Y-27066D03*
X48228Y-32913D03*
X43031Y-45925D03*
X40039Y-43818D03*
X39803Y-44822D03*
X45098Y-42716D03*
X40748Y-46555D03*
X43129Y-46240D03*
X47293Y-45442D03*
X45728Y-47204D03*
X36161Y-32893D03*
X35629Y-39940D03*
X36515Y-40413D03*
X36712Y-41259D03*
X38484Y-42362D03*
X39468Y-47677D03*
X39822Y-47106D03*
X43051Y-33602D03*
X45314Y-32460D03*
X45492Y-32992D03*
X43405Y-33582D03*
X39547Y-43976D03*
X45688Y-52303D03*
X41220Y-36751D03*
X45925Y-52559D03*
X41023Y-36515D03*
X38346Y-28070D03*
X38661Y-28070D03*
X38976Y-28110D03*
X45314Y-22322D03*
X42362Y-30078D03*
X37125Y-33090D03*
X35984Y-29094D03*
X40157Y-30649D03*
X40354Y-31555D03*
X39665Y-28031D03*
X41633Y-25629D03*
X40433Y-27716D03*
X41594Y-25019D03*
X35452Y-35767D03*
X35196Y-39704D03*
X36515Y-40000D03*
X36909Y-41023D03*
X38799Y-42381D03*
X39783Y-47716D03*
X35374Y-52224D03*
X43956Y-27539D03*
X36240Y-47716D03*
X41712Y-23897D03*
X42992Y-23877D03*
X41594Y-25334D03*
X39527Y-24429D03*
G54D15*
X43850Y-40500D03*
X43975Y-39600D03*
G54D14*
X40511Y-28838D03*
X40216Y-25196D03*
X42933Y-29724D03*
X45314Y-29212D03*
X42677Y-29940D03*
X45728Y-30157D03*
X40196Y-24881D03*
X40295Y-29055D03*
X39685Y-28385D03*
X41338Y-25748D03*
X40787Y-27736D03*
X40452Y-30374D03*
X40590Y-31791D03*
X47303Y-33169D03*
X50177Y-30472D03*
X50964Y-30452D03*
X47027Y-33051D03*
X50196Y-30137D03*
X50944Y-30098D03*
X41200Y-44271D03*
X44153Y-43169D03*
X40492Y-48779D03*
X47933Y-44547D03*
X50255Y-46653D03*
X49429Y-47637D03*
X45850Y-47500D03*
X38681Y-54645D03*
X40472Y-47854D03*
X44803Y-44921D03*
X43031Y-44724D03*
X49114Y-45334D03*
X40354Y-45393D03*
X41100Y-46500D03*
X41279Y-45649D03*
X42519Y-45275D03*
X41929Y-43582D03*
X45964Y-43602D03*
X45950Y-46900D03*
X48850Y-43650D03*
X46515Y-43740D03*
X47900Y-39550D03*
X44800Y-39550D03*
X45900Y-39550D03*
X48300Y-37950D03*
X48250Y-36550D03*
X37463Y-54570D03*
X39163Y-52770D03*
X34862Y-53070D03*
X41141Y-27500D03*
X41594Y-29173D03*
X43149Y-29488D03*
X45314Y-28818D03*
X49665Y-33287D03*
X51456Y-32106D03*
G54D16*
X41003Y-48799D02*
X39803Y-48799D01*
X39665Y-48661D02*
X40472Y-47854D01*
X39803Y-48799D02*
X39665Y-48661D01*
X39212Y-54665D02*
X40374Y-54665D01*
X41003Y-54035D02*
X41003Y-48799D01*
X41003Y-48799D02*
X41003Y-48779D01*
X40374Y-54665D02*
X41003Y-54035D01*
G54D10*
G36*
X50949Y-47898D02*
X50914Y-48283D01*
X49639Y-48283D01*
X49639Y-46324D01*
X49583Y-46189D01*
X49536Y-46141D01*
X49583Y-46094D01*
X49639Y-45959D01*
X49639Y-45812D01*
X49639Y-44356D01*
X49583Y-44220D01*
X49480Y-44117D01*
X49345Y-44061D01*
X49198Y-44060D01*
X49063Y-44116D01*
X48959Y-44220D01*
X48903Y-44355D01*
X48903Y-44502D01*
X48941Y-44593D01*
X48881Y-44653D01*
X48824Y-44788D01*
X48824Y-44935D01*
X48880Y-45070D01*
X48984Y-45174D01*
X49119Y-45230D01*
X49265Y-45230D01*
X49401Y-45174D01*
X49504Y-45070D01*
X49560Y-44935D01*
X49561Y-44789D01*
X49523Y-44697D01*
X49583Y-44637D01*
X49639Y-44502D01*
X49639Y-44356D01*
X49639Y-45812D01*
X49583Y-45677D01*
X49480Y-45573D01*
X49345Y-45517D01*
X49198Y-45517D01*
X49063Y-45573D01*
X48959Y-45677D01*
X48903Y-45812D01*
X48903Y-45958D01*
X48959Y-46094D01*
X49006Y-46141D01*
X48959Y-46188D01*
X48903Y-46324D01*
X48903Y-46470D01*
X48959Y-46605D01*
X49062Y-46709D01*
X49198Y-46765D01*
X49344Y-46765D01*
X49479Y-46709D01*
X49583Y-46606D01*
X49639Y-46471D01*
X49639Y-46324D01*
X49639Y-48283D01*
X49250Y-48283D01*
X49342Y-48245D01*
X49445Y-48141D01*
X49501Y-48006D01*
X49502Y-47860D01*
X49446Y-47724D01*
X49342Y-47621D01*
X49207Y-47565D01*
X49060Y-47564D01*
X48925Y-47620D01*
X48821Y-47724D01*
X48765Y-47859D01*
X48765Y-47998D01*
X48627Y-47997D01*
X48610Y-48005D01*
X48610Y-40138D01*
X48562Y-40024D01*
X48475Y-39937D01*
X48361Y-39890D01*
X48238Y-39889D01*
X48124Y-39937D01*
X48037Y-40024D01*
X47990Y-40138D01*
X47989Y-40261D01*
X48037Y-40375D01*
X48124Y-40462D01*
X48238Y-40509D01*
X48361Y-40510D01*
X48475Y-40462D01*
X48562Y-40375D01*
X48609Y-40261D01*
X48610Y-40138D01*
X48610Y-48005D01*
X48492Y-48053D01*
X48388Y-48157D01*
X48359Y-48227D01*
X48256Y-48270D01*
X48243Y-48283D01*
X48222Y-48283D01*
X48222Y-45458D01*
X48166Y-45323D01*
X48160Y-45316D01*
X48160Y-40638D01*
X48112Y-40524D01*
X48025Y-40437D01*
X47911Y-40390D01*
X47788Y-40389D01*
X47674Y-40437D01*
X47624Y-40486D01*
X47575Y-40437D01*
X47461Y-40390D01*
X47338Y-40389D01*
X47224Y-40437D01*
X47137Y-40524D01*
X47090Y-40638D01*
X47089Y-40761D01*
X47137Y-40875D01*
X47224Y-40962D01*
X47338Y-41009D01*
X47421Y-41010D01*
X47474Y-41062D01*
X47588Y-41109D01*
X47711Y-41110D01*
X47825Y-41062D01*
X47878Y-41010D01*
X47911Y-41010D01*
X48025Y-40962D01*
X48112Y-40875D01*
X48159Y-40761D01*
X48160Y-40638D01*
X48160Y-45316D01*
X48063Y-45219D01*
X47966Y-45179D01*
X47966Y-45161D01*
X47983Y-45154D01*
X48087Y-45051D01*
X48143Y-44916D01*
X48143Y-44769D01*
X48087Y-44634D01*
X47984Y-44530D01*
X47849Y-44474D01*
X47809Y-44474D01*
X47809Y-43076D01*
X47753Y-42941D01*
X47649Y-42837D01*
X47514Y-42781D01*
X47368Y-42781D01*
X47232Y-42837D01*
X47129Y-42940D01*
X47072Y-43076D01*
X47072Y-43222D01*
X47128Y-43357D01*
X47232Y-43461D01*
X47367Y-43517D01*
X47513Y-43517D01*
X47649Y-43461D01*
X47752Y-43358D01*
X47808Y-43223D01*
X47809Y-43076D01*
X47809Y-44474D01*
X47702Y-44474D01*
X47567Y-44530D01*
X47463Y-44633D01*
X47407Y-44768D01*
X47407Y-44818D01*
X47390Y-44825D01*
X47286Y-44929D01*
X47230Y-45064D01*
X47230Y-45074D01*
X47220Y-45074D01*
X47085Y-45130D01*
X46981Y-45234D01*
X46925Y-45369D01*
X46925Y-45515D01*
X46981Y-45651D01*
X47084Y-45754D01*
X47219Y-45810D01*
X47366Y-45811D01*
X47501Y-45755D01*
X47534Y-45722D01*
X47542Y-45739D01*
X47645Y-45843D01*
X47780Y-45899D01*
X47927Y-45899D01*
X48062Y-45843D01*
X48166Y-45740D01*
X48222Y-45605D01*
X48222Y-45458D01*
X48222Y-48283D01*
X46746Y-48283D01*
X46746Y-43332D01*
X46690Y-43197D01*
X46586Y-43093D01*
X46451Y-43037D01*
X46385Y-43037D01*
X46385Y-40963D01*
X46337Y-40849D01*
X46250Y-40762D01*
X46210Y-40745D01*
X46210Y-40713D01*
X46162Y-40599D01*
X46075Y-40512D01*
X45961Y-40465D01*
X45838Y-40464D01*
X45724Y-40512D01*
X45637Y-40599D01*
X45590Y-40713D01*
X45589Y-40836D01*
X45637Y-40950D01*
X45724Y-41037D01*
X45764Y-41054D01*
X45764Y-41086D01*
X45812Y-41200D01*
X45899Y-41287D01*
X46013Y-41334D01*
X46136Y-41335D01*
X46250Y-41287D01*
X46337Y-41200D01*
X46384Y-41086D01*
X46385Y-40963D01*
X46385Y-43037D01*
X46305Y-43037D01*
X46169Y-43093D01*
X46066Y-43196D01*
X46009Y-43331D01*
X46009Y-43478D01*
X46065Y-43613D01*
X46169Y-43717D01*
X46304Y-43773D01*
X46450Y-43773D01*
X46586Y-43717D01*
X46689Y-43614D01*
X46745Y-43479D01*
X46746Y-43332D01*
X46746Y-48283D01*
X46318Y-48283D01*
X46318Y-47727D01*
X46273Y-47619D01*
X46273Y-44749D01*
X46217Y-44614D01*
X46114Y-44510D01*
X45979Y-44454D01*
X45832Y-44454D01*
X45697Y-44510D01*
X45643Y-44563D01*
X45643Y-44001D01*
X45587Y-43866D01*
X45484Y-43762D01*
X45349Y-43706D01*
X45202Y-43706D01*
X45067Y-43762D01*
X44963Y-43866D01*
X44907Y-44001D01*
X44907Y-44147D01*
X44963Y-44283D01*
X45066Y-44386D01*
X45202Y-44442D01*
X45348Y-44442D01*
X45483Y-44387D01*
X45587Y-44283D01*
X45643Y-44148D01*
X45643Y-44001D01*
X45643Y-44563D01*
X45593Y-44614D01*
X45537Y-44749D01*
X45537Y-44895D01*
X45593Y-45031D01*
X45644Y-45082D01*
X45598Y-45101D01*
X45495Y-45204D01*
X45439Y-45339D01*
X45438Y-45486D01*
X45494Y-45621D01*
X45598Y-45725D01*
X45733Y-45781D01*
X45879Y-45781D01*
X46015Y-45725D01*
X46118Y-45622D01*
X46175Y-45486D01*
X46175Y-45340D01*
X46119Y-45205D01*
X46068Y-45153D01*
X46113Y-45135D01*
X46217Y-45031D01*
X46273Y-44896D01*
X46273Y-44749D01*
X46273Y-47619D01*
X46262Y-47591D01*
X46158Y-47488D01*
X46023Y-47431D01*
X46021Y-47431D01*
X46040Y-47413D01*
X46096Y-47278D01*
X46096Y-47131D01*
X46040Y-46996D01*
X45937Y-46892D01*
X45801Y-46836D01*
X45655Y-46836D01*
X45520Y-46892D01*
X45416Y-46995D01*
X45360Y-47131D01*
X45360Y-47277D01*
X45416Y-47412D01*
X45519Y-47516D01*
X45654Y-47572D01*
X45656Y-47572D01*
X45638Y-47591D01*
X45581Y-47726D01*
X45581Y-47872D01*
X45637Y-48008D01*
X45741Y-48111D01*
X45876Y-48168D01*
X46022Y-48168D01*
X46158Y-48112D01*
X46261Y-48008D01*
X46318Y-47873D01*
X46318Y-47727D01*
X46318Y-48283D01*
X45265Y-48283D01*
X45238Y-48218D01*
X45269Y-48144D01*
X45269Y-47997D01*
X45213Y-47862D01*
X45110Y-47758D01*
X44975Y-47702D01*
X44843Y-47702D01*
X44832Y-47676D01*
X44878Y-47630D01*
X44934Y-47494D01*
X44935Y-47348D01*
X44924Y-47323D01*
X44932Y-47320D01*
X45036Y-47216D01*
X45092Y-47081D01*
X45092Y-46934D01*
X45060Y-46857D01*
X45134Y-46783D01*
X45190Y-46648D01*
X45191Y-46501D01*
X45165Y-46441D01*
X45210Y-46333D01*
X45210Y-46186D01*
X45154Y-46051D01*
X45131Y-46028D01*
X45131Y-45163D01*
X45076Y-45027D01*
X44972Y-44924D01*
X44837Y-44868D01*
X44690Y-44868D01*
X44555Y-44923D01*
X44451Y-45027D01*
X44395Y-45162D01*
X44395Y-45309D01*
X44451Y-45444D01*
X44554Y-45548D01*
X44690Y-45604D01*
X44836Y-45604D01*
X44972Y-45548D01*
X45075Y-45445D01*
X45131Y-45309D01*
X45131Y-45163D01*
X45131Y-46028D01*
X45051Y-45947D01*
X44916Y-45891D01*
X44915Y-45891D01*
X44915Y-45891D01*
X44859Y-45756D01*
X44756Y-45652D01*
X44620Y-45596D01*
X44474Y-45596D01*
X44338Y-45652D01*
X44235Y-45755D01*
X44179Y-45891D01*
X44179Y-45989D01*
X44117Y-46051D01*
X44088Y-46119D01*
X44088Y-43549D01*
X44032Y-43413D01*
X43929Y-43310D01*
X43794Y-43254D01*
X43647Y-43253D01*
X43512Y-43309D01*
X43408Y-43413D01*
X43352Y-43548D01*
X43352Y-43694D01*
X43408Y-43830D01*
X43511Y-43933D01*
X43646Y-43990D01*
X43793Y-43990D01*
X43928Y-43934D01*
X44032Y-43830D01*
X44088Y-43695D01*
X44088Y-43549D01*
X44088Y-46119D01*
X44061Y-46186D01*
X44060Y-46332D01*
X44116Y-46468D01*
X44220Y-46571D01*
X44289Y-46600D01*
X44201Y-46636D01*
X44097Y-46740D01*
X44041Y-46875D01*
X44041Y-47021D01*
X44097Y-47157D01*
X44200Y-47260D01*
X44229Y-47272D01*
X44198Y-47347D01*
X44198Y-47494D01*
X44242Y-47599D01*
X44195Y-47645D01*
X44139Y-47780D01*
X44139Y-47927D01*
X44195Y-48062D01*
X44299Y-48166D01*
X44434Y-48222D01*
X44553Y-48222D01*
X44437Y-48270D01*
X44424Y-48283D01*
X43498Y-48283D01*
X43498Y-46167D01*
X43442Y-46031D01*
X43399Y-45989D01*
X43399Y-45852D01*
X43343Y-45716D01*
X43240Y-45613D01*
X43222Y-45605D01*
X43225Y-45602D01*
X43281Y-45467D01*
X43281Y-45320D01*
X43225Y-45185D01*
X43215Y-45175D01*
X43242Y-45112D01*
X43242Y-44966D01*
X43186Y-44831D01*
X43082Y-44727D01*
X42947Y-44671D01*
X42801Y-44671D01*
X42665Y-44727D01*
X42562Y-44830D01*
X42505Y-44965D01*
X42505Y-45112D01*
X42561Y-45247D01*
X42571Y-45257D01*
X42545Y-45320D01*
X42545Y-45466D01*
X42601Y-45601D01*
X42704Y-45705D01*
X42722Y-45713D01*
X42719Y-45716D01*
X42663Y-45851D01*
X42663Y-45998D01*
X42719Y-46133D01*
X42761Y-46176D01*
X42761Y-46313D01*
X42817Y-46448D01*
X42921Y-46552D01*
X43056Y-46608D01*
X43202Y-46608D01*
X43338Y-46552D01*
X43441Y-46448D01*
X43497Y-46313D01*
X43498Y-46167D01*
X43498Y-48283D01*
X42416Y-48283D01*
X42455Y-47900D01*
X41515Y-47900D01*
X41442Y-47850D01*
X41327Y-47850D01*
X40928Y-48293D01*
X40151Y-47763D01*
X40151Y-47643D01*
X40095Y-47508D01*
X40066Y-47478D01*
X40079Y-47370D01*
X40104Y-47345D01*
X40140Y-47432D01*
X40243Y-47536D01*
X40379Y-47592D01*
X40525Y-47592D01*
X40661Y-47536D01*
X40764Y-47433D01*
X40820Y-47297D01*
X40820Y-47151D01*
X40765Y-47016D01*
X40670Y-46921D01*
X40674Y-46923D01*
X40820Y-46923D01*
X40956Y-46867D01*
X41059Y-46763D01*
X41116Y-46628D01*
X41116Y-46579D01*
X41186Y-46608D01*
X41332Y-46608D01*
X41468Y-46552D01*
X41571Y-46448D01*
X41627Y-46313D01*
X41628Y-46167D01*
X41597Y-46092D01*
X41627Y-46018D01*
X41628Y-45871D01*
X41572Y-45736D01*
X41468Y-45632D01*
X41333Y-45576D01*
X41186Y-45576D01*
X41051Y-45632D01*
X40947Y-45736D01*
X40891Y-45871D01*
X40891Y-46017D01*
X40922Y-46092D01*
X40891Y-46166D01*
X40891Y-46216D01*
X40821Y-46187D01*
X40675Y-46186D01*
X40539Y-46242D01*
X40436Y-46346D01*
X40379Y-46481D01*
X40379Y-46628D01*
X40435Y-46763D01*
X40530Y-46858D01*
X40526Y-46856D01*
X40379Y-46856D01*
X40244Y-46912D01*
X40171Y-46985D01*
X40137Y-46904D01*
X40394Y-44850D01*
X40649Y-44850D01*
X40691Y-44952D01*
X40795Y-45055D01*
X40930Y-45112D01*
X41076Y-45112D01*
X41212Y-45056D01*
X41315Y-44952D01*
X41358Y-44850D01*
X41400Y-44850D01*
X41400Y-43967D01*
X41425Y-43992D01*
X41560Y-44049D01*
X41706Y-44049D01*
X41842Y-43993D01*
X41945Y-43889D01*
X42001Y-43754D01*
X42002Y-43608D01*
X41946Y-43472D01*
X41842Y-43369D01*
X41707Y-43313D01*
X41560Y-43312D01*
X41425Y-43368D01*
X41400Y-43394D01*
X41400Y-43207D01*
X44401Y-43207D01*
X44314Y-43295D01*
X44257Y-43430D01*
X44257Y-43576D01*
X44313Y-43712D01*
X44417Y-43815D01*
X44552Y-43871D01*
X44698Y-43872D01*
X44834Y-43816D01*
X44937Y-43712D01*
X44994Y-43577D01*
X44994Y-43431D01*
X44938Y-43295D01*
X44834Y-43192D01*
X44699Y-43135D01*
X44553Y-43135D01*
X44490Y-43161D01*
X44470Y-42352D01*
X44488Y-42359D01*
X44510Y-42359D01*
X44537Y-42425D01*
X44624Y-42512D01*
X44738Y-42559D01*
X44753Y-42559D01*
X44758Y-42574D01*
X44730Y-42642D01*
X44730Y-42789D01*
X44786Y-42924D01*
X44889Y-43028D01*
X45024Y-43084D01*
X45171Y-43084D01*
X45306Y-43028D01*
X45410Y-42925D01*
X45466Y-42790D01*
X45466Y-42643D01*
X45410Y-42508D01*
X45349Y-42446D01*
X45349Y-42379D01*
X45302Y-42265D01*
X45215Y-42178D01*
X45101Y-42130D01*
X45086Y-42130D01*
X45062Y-42074D01*
X44975Y-41987D01*
X44861Y-41940D01*
X44839Y-41940D01*
X44812Y-41874D01*
X44725Y-41787D01*
X44706Y-41779D01*
X44662Y-41674D01*
X44575Y-41587D01*
X44461Y-41540D01*
X44449Y-41540D01*
X44400Y-39570D01*
X44520Y-39450D01*
X45145Y-39450D01*
X45143Y-39454D01*
X45143Y-39600D01*
X45199Y-39735D01*
X45303Y-39839D01*
X45438Y-39895D01*
X45584Y-39895D01*
X45720Y-39839D01*
X45823Y-39736D01*
X45879Y-39601D01*
X45879Y-39454D01*
X45878Y-39450D01*
X48100Y-39450D01*
X48100Y-36200D01*
X49600Y-36200D01*
X49649Y-40103D01*
X48915Y-40148D01*
X48805Y-40064D01*
X48845Y-43444D01*
X50900Y-43444D01*
X50937Y-46797D01*
X50919Y-46797D01*
X50919Y-45793D01*
X50863Y-45657D01*
X50759Y-45554D01*
X50699Y-45529D01*
X50646Y-45401D01*
X50604Y-45359D01*
X50604Y-44395D01*
X50548Y-44260D01*
X50445Y-44156D01*
X50309Y-44100D01*
X50163Y-44100D01*
X50027Y-44156D01*
X49924Y-44259D01*
X49868Y-44394D01*
X49868Y-44541D01*
X49923Y-44676D01*
X50027Y-44780D01*
X50162Y-44836D01*
X50309Y-44836D01*
X50444Y-44780D01*
X50548Y-44677D01*
X50604Y-44542D01*
X50604Y-44395D01*
X50604Y-45359D01*
X50543Y-45298D01*
X50408Y-45242D01*
X50261Y-45242D01*
X50126Y-45297D01*
X50022Y-45401D01*
X49966Y-45536D01*
X49966Y-45683D01*
X50022Y-45818D01*
X50125Y-45922D01*
X50186Y-45947D01*
X50238Y-46074D01*
X50342Y-46178D01*
X50477Y-46234D01*
X50624Y-46234D01*
X50759Y-46178D01*
X50863Y-46074D01*
X50919Y-45939D01*
X50919Y-45793D01*
X50919Y-46797D01*
X50891Y-46797D01*
X50756Y-46853D01*
X50652Y-46956D01*
X50637Y-46994D01*
X50537Y-46994D01*
X50401Y-47049D01*
X50370Y-47081D01*
X50349Y-47072D01*
X50202Y-47072D01*
X50067Y-47128D01*
X49963Y-47232D01*
X49907Y-47367D01*
X49907Y-47513D01*
X49963Y-47649D01*
X50066Y-47752D01*
X50202Y-47808D01*
X50348Y-47809D01*
X50483Y-47753D01*
X50515Y-47721D01*
X50536Y-47730D01*
X50683Y-47730D01*
X50818Y-47674D01*
X50922Y-47570D01*
X50937Y-47533D01*
X50945Y-47533D01*
X50949Y-47898D01*
X50949Y-47898D01*
G37*
G54D17*
X50949Y-47898D02*
X50914Y-48283D01*
X49639Y-48283D01*
X49639Y-46324D01*
X49583Y-46189D01*
X49536Y-46141D01*
X49583Y-46094D01*
X49639Y-45959D01*
X49639Y-45812D01*
X49639Y-44356D01*
X49583Y-44220D01*
X49480Y-44117D01*
X49345Y-44061D01*
X49198Y-44060D01*
X49063Y-44116D01*
X48959Y-44220D01*
X48903Y-44355D01*
X48903Y-44502D01*
X48941Y-44593D01*
X48881Y-44653D01*
X48824Y-44788D01*
X48824Y-44935D01*
X48880Y-45070D01*
X48984Y-45174D01*
X49119Y-45230D01*
X49265Y-45230D01*
X49401Y-45174D01*
X49504Y-45070D01*
X49560Y-44935D01*
X49561Y-44789D01*
X49523Y-44697D01*
X49583Y-44637D01*
X49639Y-44502D01*
X49639Y-44356D01*
X49639Y-45812D01*
X49583Y-45677D01*
X49480Y-45573D01*
X49345Y-45517D01*
X49198Y-45517D01*
X49063Y-45573D01*
X48959Y-45677D01*
X48903Y-45812D01*
X48903Y-45958D01*
X48959Y-46094D01*
X49006Y-46141D01*
X48959Y-46188D01*
X48903Y-46324D01*
X48903Y-46470D01*
X48959Y-46605D01*
X49062Y-46709D01*
X49198Y-46765D01*
X49344Y-46765D01*
X49479Y-46709D01*
X49583Y-46606D01*
X49639Y-46471D01*
X49639Y-46324D01*
X49639Y-48283D01*
X49250Y-48283D01*
X49342Y-48245D01*
X49445Y-48141D01*
X49501Y-48006D01*
X49502Y-47860D01*
X49446Y-47724D01*
X49342Y-47621D01*
X49207Y-47565D01*
X49060Y-47564D01*
X48925Y-47620D01*
X48821Y-47724D01*
X48765Y-47859D01*
X48765Y-47998D01*
X48627Y-47997D01*
X48610Y-48005D01*
X48610Y-40138D01*
X48562Y-40024D01*
X48475Y-39937D01*
X48361Y-39890D01*
X48238Y-39889D01*
X48124Y-39937D01*
X48037Y-40024D01*
X47990Y-40138D01*
X47989Y-40261D01*
X48037Y-40375D01*
X48124Y-40462D01*
X48238Y-40509D01*
X48361Y-40510D01*
X48475Y-40462D01*
X48562Y-40375D01*
X48609Y-40261D01*
X48610Y-40138D01*
X48610Y-48005D01*
X48492Y-48053D01*
X48388Y-48157D01*
X48359Y-48227D01*
X48256Y-48270D01*
X48243Y-48283D01*
X48222Y-48283D01*
X48222Y-45458D01*
X48166Y-45323D01*
X48160Y-45316D01*
X48160Y-40638D01*
X48112Y-40524D01*
X48025Y-40437D01*
X47911Y-40390D01*
X47788Y-40389D01*
X47674Y-40437D01*
X47624Y-40486D01*
X47575Y-40437D01*
X47461Y-40390D01*
X47338Y-40389D01*
X47224Y-40437D01*
X47137Y-40524D01*
X47090Y-40638D01*
X47089Y-40761D01*
X47137Y-40875D01*
X47224Y-40962D01*
X47338Y-41009D01*
X47421Y-41010D01*
X47474Y-41062D01*
X47588Y-41109D01*
X47711Y-41110D01*
X47825Y-41062D01*
X47878Y-41010D01*
X47911Y-41010D01*
X48025Y-40962D01*
X48112Y-40875D01*
X48159Y-40761D01*
X48160Y-40638D01*
X48160Y-45316D01*
X48063Y-45219D01*
X47966Y-45179D01*
X47966Y-45161D01*
X47983Y-45154D01*
X48087Y-45051D01*
X48143Y-44916D01*
X48143Y-44769D01*
X48087Y-44634D01*
X47984Y-44530D01*
X47849Y-44474D01*
X47809Y-44474D01*
X47809Y-43076D01*
X47753Y-42941D01*
X47649Y-42837D01*
X47514Y-42781D01*
X47368Y-42781D01*
X47232Y-42837D01*
X47129Y-42940D01*
X47072Y-43076D01*
X47072Y-43222D01*
X47128Y-43357D01*
X47232Y-43461D01*
X47367Y-43517D01*
X47513Y-43517D01*
X47649Y-43461D01*
X47752Y-43358D01*
X47808Y-43223D01*
X47809Y-43076D01*
X47809Y-44474D01*
X47702Y-44474D01*
X47567Y-44530D01*
X47463Y-44633D01*
X47407Y-44768D01*
X47407Y-44818D01*
X47390Y-44825D01*
X47286Y-44929D01*
X47230Y-45064D01*
X47230Y-45074D01*
X47220Y-45074D01*
X47085Y-45130D01*
X46981Y-45234D01*
X46925Y-45369D01*
X46925Y-45515D01*
X46981Y-45651D01*
X47084Y-45754D01*
X47219Y-45810D01*
X47366Y-45811D01*
X47501Y-45755D01*
X47534Y-45722D01*
X47542Y-45739D01*
X47645Y-45843D01*
X47780Y-45899D01*
X47927Y-45899D01*
X48062Y-45843D01*
X48166Y-45740D01*
X48222Y-45605D01*
X48222Y-45458D01*
X48222Y-48283D01*
X46746Y-48283D01*
X46746Y-43332D01*
X46690Y-43197D01*
X46586Y-43093D01*
X46451Y-43037D01*
X46385Y-43037D01*
X46385Y-40963D01*
X46337Y-40849D01*
X46250Y-40762D01*
X46210Y-40745D01*
X46210Y-40713D01*
X46162Y-40599D01*
X46075Y-40512D01*
X45961Y-40465D01*
X45838Y-40464D01*
X45724Y-40512D01*
X45637Y-40599D01*
X45590Y-40713D01*
X45589Y-40836D01*
X45637Y-40950D01*
X45724Y-41037D01*
X45764Y-41054D01*
X45764Y-41086D01*
X45812Y-41200D01*
X45899Y-41287D01*
X46013Y-41334D01*
X46136Y-41335D01*
X46250Y-41287D01*
X46337Y-41200D01*
X46384Y-41086D01*
X46385Y-40963D01*
X46385Y-43037D01*
X46305Y-43037D01*
X46169Y-43093D01*
X46066Y-43196D01*
X46009Y-43331D01*
X46009Y-43478D01*
X46065Y-43613D01*
X46169Y-43717D01*
X46304Y-43773D01*
X46450Y-43773D01*
X46586Y-43717D01*
X46689Y-43614D01*
X46745Y-43479D01*
X46746Y-43332D01*
X46746Y-48283D01*
X46318Y-48283D01*
X46318Y-47727D01*
X46273Y-47619D01*
X46273Y-44749D01*
X46217Y-44614D01*
X46114Y-44510D01*
X45979Y-44454D01*
X45832Y-44454D01*
X45697Y-44510D01*
X45643Y-44563D01*
X45643Y-44001D01*
X45587Y-43866D01*
X45484Y-43762D01*
X45349Y-43706D01*
X45202Y-43706D01*
X45067Y-43762D01*
X44963Y-43866D01*
X44907Y-44001D01*
X44907Y-44147D01*
X44963Y-44283D01*
X45066Y-44386D01*
X45202Y-44442D01*
X45348Y-44442D01*
X45483Y-44387D01*
X45587Y-44283D01*
X45643Y-44148D01*
X45643Y-44001D01*
X45643Y-44563D01*
X45593Y-44614D01*
X45537Y-44749D01*
X45537Y-44895D01*
X45593Y-45031D01*
X45644Y-45082D01*
X45598Y-45101D01*
X45495Y-45204D01*
X45439Y-45339D01*
X45438Y-45486D01*
X45494Y-45621D01*
X45598Y-45725D01*
X45733Y-45781D01*
X45879Y-45781D01*
X46015Y-45725D01*
X46118Y-45622D01*
X46175Y-45486D01*
X46175Y-45340D01*
X46119Y-45205D01*
X46068Y-45153D01*
X46113Y-45135D01*
X46217Y-45031D01*
X46273Y-44896D01*
X46273Y-44749D01*
X46273Y-47619D01*
X46262Y-47591D01*
X46158Y-47488D01*
X46023Y-47431D01*
X46021Y-47431D01*
X46040Y-47413D01*
X46096Y-47278D01*
X46096Y-47131D01*
X46040Y-46996D01*
X45937Y-46892D01*
X45801Y-46836D01*
X45655Y-46836D01*
X45520Y-46892D01*
X45416Y-46995D01*
X45360Y-47131D01*
X45360Y-47277D01*
X45416Y-47412D01*
X45519Y-47516D01*
X45654Y-47572D01*
X45656Y-47572D01*
X45638Y-47591D01*
X45581Y-47726D01*
X45581Y-47872D01*
X45637Y-48008D01*
X45741Y-48111D01*
X45876Y-48168D01*
X46022Y-48168D01*
X46158Y-48112D01*
X46261Y-48008D01*
X46318Y-47873D01*
X46318Y-47727D01*
X46318Y-48283D01*
X45265Y-48283D01*
X45238Y-48218D01*
X45269Y-48144D01*
X45269Y-47997D01*
X45213Y-47862D01*
X45110Y-47758D01*
X44975Y-47702D01*
X44843Y-47702D01*
X44832Y-47676D01*
X44878Y-47630D01*
X44934Y-47494D01*
X44935Y-47348D01*
X44924Y-47323D01*
X44932Y-47320D01*
X45036Y-47216D01*
X45092Y-47081D01*
X45092Y-46934D01*
X45060Y-46857D01*
X45134Y-46783D01*
X45190Y-46648D01*
X45191Y-46501D01*
X45165Y-46441D01*
X45210Y-46333D01*
X45210Y-46186D01*
X45154Y-46051D01*
X45131Y-46028D01*
X45131Y-45163D01*
X45076Y-45027D01*
X44972Y-44924D01*
X44837Y-44868D01*
X44690Y-44868D01*
X44555Y-44923D01*
X44451Y-45027D01*
X44395Y-45162D01*
X44395Y-45309D01*
X44451Y-45444D01*
X44554Y-45548D01*
X44690Y-45604D01*
X44836Y-45604D01*
X44972Y-45548D01*
X45075Y-45445D01*
X45131Y-45309D01*
X45131Y-45163D01*
X45131Y-46028D01*
X45051Y-45947D01*
X44916Y-45891D01*
X44915Y-45891D01*
X44915Y-45891D01*
X44859Y-45756D01*
X44756Y-45652D01*
X44620Y-45596D01*
X44474Y-45596D01*
X44338Y-45652D01*
X44235Y-45755D01*
X44179Y-45891D01*
X44179Y-45989D01*
X44117Y-46051D01*
X44088Y-46119D01*
X44088Y-43549D01*
X44032Y-43413D01*
X43929Y-43310D01*
X43794Y-43254D01*
X43647Y-43253D01*
X43512Y-43309D01*
X43408Y-43413D01*
X43352Y-43548D01*
X43352Y-43694D01*
X43408Y-43830D01*
X43511Y-43933D01*
X43646Y-43990D01*
X43793Y-43990D01*
X43928Y-43934D01*
X44032Y-43830D01*
X44088Y-43695D01*
X44088Y-43549D01*
X44088Y-46119D01*
X44061Y-46186D01*
X44060Y-46332D01*
X44116Y-46468D01*
X44220Y-46571D01*
X44289Y-46600D01*
X44201Y-46636D01*
X44097Y-46740D01*
X44041Y-46875D01*
X44041Y-47021D01*
X44097Y-47157D01*
X44200Y-47260D01*
X44229Y-47272D01*
X44198Y-47347D01*
X44198Y-47494D01*
X44242Y-47599D01*
X44195Y-47645D01*
X44139Y-47780D01*
X44139Y-47927D01*
X44195Y-48062D01*
X44299Y-48166D01*
X44434Y-48222D01*
X44553Y-48222D01*
X44437Y-48270D01*
X44424Y-48283D01*
X43498Y-48283D01*
X43498Y-46167D01*
X43442Y-46031D01*
X43399Y-45989D01*
X43399Y-45852D01*
X43343Y-45716D01*
X43240Y-45613D01*
X43222Y-45605D01*
X43225Y-45602D01*
X43281Y-45467D01*
X43281Y-45320D01*
X43225Y-45185D01*
X43215Y-45175D01*
X43242Y-45112D01*
X43242Y-44966D01*
X43186Y-44831D01*
X43082Y-44727D01*
X42947Y-44671D01*
X42801Y-44671D01*
X42665Y-44727D01*
X42562Y-44830D01*
X42505Y-44965D01*
X42505Y-45112D01*
X42561Y-45247D01*
X42571Y-45257D01*
X42545Y-45320D01*
X42545Y-45466D01*
X42601Y-45601D01*
X42704Y-45705D01*
X42722Y-45713D01*
X42719Y-45716D01*
X42663Y-45851D01*
X42663Y-45998D01*
X42719Y-46133D01*
X42761Y-46176D01*
X42761Y-46313D01*
X42817Y-46448D01*
X42921Y-46552D01*
X43056Y-46608D01*
X43202Y-46608D01*
X43338Y-46552D01*
X43441Y-46448D01*
X43497Y-46313D01*
X43498Y-46167D01*
X43498Y-48283D01*
X42416Y-48283D01*
X42455Y-47900D01*
X41515Y-47900D01*
X41442Y-47850D01*
X41327Y-47850D01*
X40928Y-48293D01*
X40151Y-47763D01*
X40151Y-47643D01*
X40095Y-47508D01*
X40066Y-47478D01*
X40079Y-47370D01*
X40104Y-47345D01*
X40140Y-47432D01*
X40243Y-47536D01*
X40379Y-47592D01*
X40525Y-47592D01*
X40661Y-47536D01*
X40764Y-47433D01*
X40820Y-47297D01*
X40820Y-47151D01*
X40765Y-47016D01*
X40670Y-46921D01*
X40674Y-46923D01*
X40820Y-46923D01*
X40956Y-46867D01*
X41059Y-46763D01*
X41116Y-46628D01*
X41116Y-46579D01*
X41186Y-46608D01*
X41332Y-46608D01*
X41468Y-46552D01*
X41571Y-46448D01*
X41627Y-46313D01*
X41628Y-46167D01*
X41597Y-46092D01*
X41627Y-46018D01*
X41628Y-45871D01*
X41572Y-45736D01*
X41468Y-45632D01*
X41333Y-45576D01*
X41186Y-45576D01*
X41051Y-45632D01*
X40947Y-45736D01*
X40891Y-45871D01*
X40891Y-46017D01*
X40922Y-46092D01*
X40891Y-46166D01*
X40891Y-46216D01*
X40821Y-46187D01*
X40675Y-46186D01*
X40539Y-46242D01*
X40436Y-46346D01*
X40379Y-46481D01*
X40379Y-46628D01*
X40435Y-46763D01*
X40530Y-46858D01*
X40526Y-46856D01*
X40379Y-46856D01*
X40244Y-46912D01*
X40171Y-46985D01*
X40137Y-46904D01*
X40394Y-44850D01*
X40649Y-44850D01*
X40691Y-44952D01*
X40795Y-45055D01*
X40930Y-45112D01*
X41076Y-45112D01*
X41212Y-45056D01*
X41315Y-44952D01*
X41358Y-44850D01*
X41400Y-44850D01*
X41400Y-43967D01*
X41425Y-43992D01*
X41560Y-44049D01*
X41706Y-44049D01*
X41842Y-43993D01*
X41945Y-43889D01*
X42001Y-43754D01*
X42002Y-43608D01*
X41946Y-43472D01*
X41842Y-43369D01*
X41707Y-43313D01*
X41560Y-43312D01*
X41425Y-43368D01*
X41400Y-43394D01*
X41400Y-43207D01*
X44401Y-43207D01*
X44314Y-43295D01*
X44257Y-43430D01*
X44257Y-43576D01*
X44313Y-43712D01*
X44417Y-43815D01*
X44552Y-43871D01*
X44698Y-43872D01*
X44834Y-43816D01*
X44937Y-43712D01*
X44994Y-43577D01*
X44994Y-43431D01*
X44938Y-43295D01*
X44834Y-43192D01*
X44699Y-43135D01*
X44553Y-43135D01*
X44490Y-43161D01*
X44470Y-42352D01*
X44488Y-42359D01*
X44510Y-42359D01*
X44537Y-42425D01*
X44624Y-42512D01*
X44738Y-42559D01*
X44753Y-42559D01*
X44758Y-42574D01*
X44730Y-42642D01*
X44730Y-42789D01*
X44786Y-42924D01*
X44889Y-43028D01*
X45024Y-43084D01*
X45171Y-43084D01*
X45306Y-43028D01*
X45410Y-42925D01*
X45466Y-42790D01*
X45466Y-42643D01*
X45410Y-42508D01*
X45349Y-42446D01*
X45349Y-42379D01*
X45302Y-42265D01*
X45215Y-42178D01*
X45101Y-42130D01*
X45086Y-42130D01*
X45062Y-42074D01*
X44975Y-41987D01*
X44861Y-41940D01*
X44839Y-41940D01*
X44812Y-41874D01*
X44725Y-41787D01*
X44706Y-41779D01*
X44662Y-41674D01*
X44575Y-41587D01*
X44461Y-41540D01*
X44449Y-41540D01*
X44400Y-39570D01*
X44520Y-39450D01*
X45145Y-39450D01*
X45143Y-39454D01*
X45143Y-39600D01*
X45199Y-39735D01*
X45303Y-39839D01*
X45438Y-39895D01*
X45584Y-39895D01*
X45720Y-39839D01*
X45823Y-39736D01*
X45879Y-39601D01*
X45879Y-39454D01*
X45878Y-39450D01*
X48100Y-39450D01*
X48100Y-36200D01*
X49600Y-36200D01*
X49649Y-40103D01*
X48915Y-40148D01*
X48805Y-40064D01*
X48845Y-43444D01*
X50900Y-43444D01*
X50937Y-46797D01*
X50919Y-46797D01*
X50919Y-45793D01*
X50863Y-45657D01*
X50759Y-45554D01*
X50699Y-45529D01*
X50646Y-45401D01*
X50604Y-45359D01*
X50604Y-44395D01*
X50548Y-44260D01*
X50445Y-44156D01*
X50309Y-44100D01*
X50163Y-44100D01*
X50027Y-44156D01*
X49924Y-44259D01*
X49868Y-44394D01*
X49868Y-44541D01*
X49923Y-44676D01*
X50027Y-44780D01*
X50162Y-44836D01*
X50309Y-44836D01*
X50444Y-44780D01*
X50548Y-44677D01*
X50604Y-44542D01*
X50604Y-44395D01*
X50604Y-45359D01*
X50543Y-45298D01*
X50408Y-45242D01*
X50261Y-45242D01*
X50126Y-45297D01*
X50022Y-45401D01*
X49966Y-45536D01*
X49966Y-45683D01*
X50022Y-45818D01*
X50125Y-45922D01*
X50186Y-45947D01*
X50238Y-46074D01*
X50342Y-46178D01*
X50477Y-46234D01*
X50624Y-46234D01*
X50759Y-46178D01*
X50863Y-46074D01*
X50919Y-45939D01*
X50919Y-45793D01*
X50919Y-46797D01*
X50891Y-46797D01*
X50756Y-46853D01*
X50652Y-46956D01*
X50637Y-46994D01*
X50537Y-46994D01*
X50401Y-47049D01*
X50370Y-47081D01*
X50349Y-47072D01*
X50202Y-47072D01*
X50067Y-47128D01*
X49963Y-47232D01*
X49907Y-47367D01*
X49907Y-47513D01*
X49963Y-47649D01*
X50066Y-47752D01*
X50202Y-47808D01*
X50348Y-47809D01*
X50483Y-47753D01*
X50515Y-47721D01*
X50536Y-47730D01*
X50683Y-47730D01*
X50818Y-47674D01*
X50922Y-47570D01*
X50937Y-47533D01*
X50945Y-47533D01*
X50949Y-47898D01*
G54D10*
G36*
X39563Y-55132D02*
X39550Y-55145D01*
X39497Y-55271D01*
X37788Y-55271D01*
X37792Y-55267D01*
X37848Y-55132D01*
X37848Y-54986D01*
X37792Y-54850D01*
X37789Y-54847D01*
X37789Y-53706D01*
X37733Y-53571D01*
X37630Y-53467D01*
X37494Y-53411D01*
X37348Y-53411D01*
X37213Y-53467D01*
X37109Y-53570D01*
X37053Y-53705D01*
X37053Y-53852D01*
X37109Y-53987D01*
X37212Y-54091D01*
X37347Y-54147D01*
X37494Y-54147D01*
X37629Y-54091D01*
X37733Y-53988D01*
X37789Y-53853D01*
X37789Y-53706D01*
X37789Y-54847D01*
X37689Y-54747D01*
X37553Y-54691D01*
X37407Y-54690D01*
X37272Y-54746D01*
X37168Y-54850D01*
X37112Y-54985D01*
X37112Y-55131D01*
X37168Y-55267D01*
X37172Y-55271D01*
X34590Y-55271D01*
X34590Y-52463D01*
X35098Y-52469D01*
X35165Y-52536D01*
X35300Y-52592D01*
X35446Y-52592D01*
X35582Y-52536D01*
X35643Y-52475D01*
X39563Y-52519D01*
X39563Y-55132D01*
X39563Y-55132D01*
G37*
G54D17*
X39563Y-55132D02*
X39550Y-55145D01*
X39497Y-55271D01*
X37788Y-55271D01*
X37792Y-55267D01*
X37848Y-55132D01*
X37848Y-54986D01*
X37792Y-54850D01*
X37789Y-54847D01*
X37789Y-53706D01*
X37733Y-53571D01*
X37630Y-53467D01*
X37494Y-53411D01*
X37348Y-53411D01*
X37213Y-53467D01*
X37109Y-53570D01*
X37053Y-53705D01*
X37053Y-53852D01*
X37109Y-53987D01*
X37212Y-54091D01*
X37347Y-54147D01*
X37494Y-54147D01*
X37629Y-54091D01*
X37733Y-53988D01*
X37789Y-53853D01*
X37789Y-53706D01*
X37789Y-54847D01*
X37689Y-54747D01*
X37553Y-54691D01*
X37407Y-54690D01*
X37272Y-54746D01*
X37168Y-54850D01*
X37112Y-54985D01*
X37112Y-55131D01*
X37168Y-55267D01*
X37172Y-55271D01*
X34590Y-55271D01*
X34590Y-52463D01*
X35098Y-52469D01*
X35165Y-52536D01*
X35300Y-52592D01*
X35446Y-52592D01*
X35582Y-52536D01*
X35643Y-52475D01*
X39563Y-52519D01*
X39563Y-55132D01*
G54D10*
G36*
X34468Y-47914D02*
X34527Y-47913D01*
X34468Y-47913D01*
X34468Y-47914D01*
X34468Y-47914D01*
G37*
G54D17*
X34468Y-47914D02*
X34527Y-47913D01*
X34468Y-47913D01*
X34468Y-47914D01*
G54D10*
G36*
X41175Y-41710D02*
X38184Y-44793D01*
X38275Y-47546D01*
X37395Y-47515D01*
X37395Y-45773D01*
X37339Y-45638D01*
X37236Y-45534D01*
X37101Y-45478D01*
X36954Y-45478D01*
X36819Y-45534D01*
X36715Y-45637D01*
X36659Y-45772D01*
X36659Y-45919D01*
X36715Y-46054D01*
X36818Y-46158D01*
X36954Y-46214D01*
X37100Y-46214D01*
X37235Y-46158D01*
X37339Y-46055D01*
X37395Y-45919D01*
X37395Y-45773D01*
X37395Y-47515D01*
X36709Y-47490D01*
X36506Y-46901D01*
X36519Y-41578D01*
X36639Y-41627D01*
X36785Y-41628D01*
X36920Y-41572D01*
X37024Y-41468D01*
X37071Y-41354D01*
X37117Y-41335D01*
X37221Y-41232D01*
X37277Y-41097D01*
X37277Y-40950D01*
X37221Y-40815D01*
X37118Y-40711D01*
X36982Y-40655D01*
X36836Y-40655D01*
X36764Y-40685D01*
X36827Y-40622D01*
X36883Y-40486D01*
X36883Y-40340D01*
X36879Y-40328D01*
X36923Y-40328D01*
X37058Y-40272D01*
X37162Y-40169D01*
X37218Y-40034D01*
X37218Y-39887D01*
X37162Y-39752D01*
X37059Y-39648D01*
X36923Y-39592D01*
X36777Y-39592D01*
X36642Y-39648D01*
X36638Y-39652D01*
X36589Y-39631D01*
X36523Y-39631D01*
X36526Y-38638D01*
X36542Y-38633D01*
X37983Y-38708D01*
X38150Y-43772D01*
X40709Y-41249D01*
X40694Y-41284D01*
X40694Y-41431D01*
X40750Y-41566D01*
X40854Y-41670D01*
X40989Y-41726D01*
X41135Y-41726D01*
X41175Y-41710D01*
X41175Y-41710D01*
G37*
G54D17*
X41175Y-41710D02*
X38184Y-44793D01*
X38275Y-47546D01*
X37395Y-47515D01*
X37395Y-45773D01*
X37339Y-45638D01*
X37236Y-45534D01*
X37101Y-45478D01*
X36954Y-45478D01*
X36819Y-45534D01*
X36715Y-45637D01*
X36659Y-45772D01*
X36659Y-45919D01*
X36715Y-46054D01*
X36818Y-46158D01*
X36954Y-46214D01*
X37100Y-46214D01*
X37235Y-46158D01*
X37339Y-46055D01*
X37395Y-45919D01*
X37395Y-45773D01*
X37395Y-47515D01*
X36709Y-47490D01*
X36506Y-46901D01*
X36519Y-41578D01*
X36639Y-41627D01*
X36785Y-41628D01*
X36920Y-41572D01*
X37024Y-41468D01*
X37071Y-41354D01*
X37117Y-41335D01*
X37221Y-41232D01*
X37277Y-41097D01*
X37277Y-40950D01*
X37221Y-40815D01*
X37118Y-40711D01*
X36982Y-40655D01*
X36836Y-40655D01*
X36764Y-40685D01*
X36827Y-40622D01*
X36883Y-40486D01*
X36883Y-40340D01*
X36879Y-40328D01*
X36923Y-40328D01*
X37058Y-40272D01*
X37162Y-40169D01*
X37218Y-40034D01*
X37218Y-39887D01*
X37162Y-39752D01*
X37059Y-39648D01*
X36923Y-39592D01*
X36777Y-39592D01*
X36642Y-39648D01*
X36638Y-39652D01*
X36589Y-39631D01*
X36523Y-39631D01*
X36526Y-38638D01*
X36542Y-38633D01*
X37983Y-38708D01*
X38150Y-43772D01*
X40709Y-41249D01*
X40694Y-41284D01*
X40694Y-41431D01*
X40750Y-41566D01*
X40854Y-41670D01*
X40989Y-41726D01*
X41135Y-41726D01*
X41175Y-41710D01*
G54D10*
G36*
X43724Y-40216D02*
X43674Y-40237D01*
X43587Y-40324D01*
X43540Y-40438D01*
X43539Y-40561D01*
X43587Y-40675D01*
X43674Y-40762D01*
X43689Y-40769D01*
X42106Y-40677D01*
X41431Y-41352D01*
X41431Y-41285D01*
X41375Y-41150D01*
X41271Y-41046D01*
X41136Y-40990D01*
X40990Y-40990D01*
X40889Y-41031D01*
X41505Y-40415D01*
X41582Y-39276D01*
X41676Y-39262D01*
X42569Y-39262D01*
X42569Y-37272D01*
X41288Y-37272D01*
X41048Y-37187D01*
X41039Y-37135D01*
X41109Y-37104D01*
X41146Y-37120D01*
X41293Y-37120D01*
X41428Y-37064D01*
X41442Y-37050D01*
X42569Y-37017D01*
X42569Y-36998D01*
X42884Y-36998D01*
X42941Y-39262D01*
X43273Y-39262D01*
X43273Y-39403D01*
X43329Y-39538D01*
X43432Y-39642D01*
X43568Y-39698D01*
X43680Y-39698D01*
X43687Y-39715D01*
X43724Y-40216D01*
X43724Y-40216D01*
G37*
G54D17*
X43724Y-40216D02*
X43674Y-40237D01*
X43587Y-40324D01*
X43540Y-40438D01*
X43539Y-40561D01*
X43587Y-40675D01*
X43674Y-40762D01*
X43689Y-40769D01*
X42106Y-40677D01*
X41431Y-41352D01*
X41431Y-41285D01*
X41375Y-41150D01*
X41271Y-41046D01*
X41136Y-40990D01*
X40990Y-40990D01*
X40889Y-41031D01*
X41505Y-40415D01*
X41582Y-39276D01*
X41676Y-39262D01*
X42569Y-39262D01*
X42569Y-37272D01*
X41288Y-37272D01*
X41048Y-37187D01*
X41039Y-37135D01*
X41109Y-37104D01*
X41146Y-37120D01*
X41293Y-37120D01*
X41428Y-37064D01*
X41442Y-37050D01*
X42569Y-37017D01*
X42569Y-36998D01*
X42884Y-36998D01*
X42941Y-39262D01*
X43273Y-39262D01*
X43273Y-39403D01*
X43329Y-39538D01*
X43432Y-39642D01*
X43568Y-39698D01*
X43680Y-39698D01*
X43687Y-39715D01*
X43724Y-40216D01*
G54D10*
G36*
X48366Y-33880D02*
X48356Y-34418D01*
X48246Y-34418D01*
X48205Y-34319D01*
X48102Y-34215D01*
X47967Y-34159D01*
X47820Y-34159D01*
X47685Y-34215D01*
X47581Y-34318D01*
X47540Y-34418D01*
X47006Y-34418D01*
X47000Y-34412D01*
X46864Y-34356D01*
X46718Y-34356D01*
X46583Y-34412D01*
X46576Y-34418D01*
X46304Y-34418D01*
X46152Y-33087D01*
X46133Y-32038D01*
X48028Y-32038D01*
X48164Y-32195D01*
X48039Y-32246D01*
X47936Y-32350D01*
X47879Y-32485D01*
X47879Y-32631D01*
X47913Y-32712D01*
X47860Y-32839D01*
X47860Y-32986D01*
X47909Y-33104D01*
X47879Y-33174D01*
X47879Y-33320D01*
X47891Y-33348D01*
X47869Y-33357D01*
X47809Y-33332D01*
X47663Y-33332D01*
X47627Y-33347D01*
X47671Y-33242D01*
X47671Y-33096D01*
X47615Y-32961D01*
X47511Y-32857D01*
X47376Y-32801D01*
X47298Y-32801D01*
X47236Y-32739D01*
X47101Y-32683D01*
X46954Y-32683D01*
X46819Y-32738D01*
X46715Y-32842D01*
X46659Y-32977D01*
X46659Y-33124D01*
X46715Y-33259D01*
X46734Y-33278D01*
X46679Y-33410D01*
X46679Y-33557D01*
X46734Y-33692D01*
X46838Y-33796D01*
X46973Y-33852D01*
X47120Y-33852D01*
X47255Y-33796D01*
X47359Y-33693D01*
X47368Y-33671D01*
X47368Y-33773D01*
X47423Y-33909D01*
X47527Y-34012D01*
X47662Y-34068D01*
X47809Y-34068D01*
X47917Y-34024D01*
X47977Y-34049D01*
X48124Y-34049D01*
X48259Y-33993D01*
X48363Y-33889D01*
X48366Y-33880D01*
X48366Y-33880D01*
G37*
G54D17*
X48366Y-33880D02*
X48356Y-34418D01*
X48246Y-34418D01*
X48205Y-34319D01*
X48102Y-34215D01*
X47967Y-34159D01*
X47820Y-34159D01*
X47685Y-34215D01*
X47581Y-34318D01*
X47540Y-34418D01*
X47006Y-34418D01*
X47000Y-34412D01*
X46864Y-34356D01*
X46718Y-34356D01*
X46583Y-34412D01*
X46576Y-34418D01*
X46304Y-34418D01*
X46152Y-33087D01*
X46133Y-32038D01*
X48028Y-32038D01*
X48164Y-32195D01*
X48039Y-32246D01*
X47936Y-32350D01*
X47879Y-32485D01*
X47879Y-32631D01*
X47913Y-32712D01*
X47860Y-32839D01*
X47860Y-32986D01*
X47909Y-33104D01*
X47879Y-33174D01*
X47879Y-33320D01*
X47891Y-33348D01*
X47869Y-33357D01*
X47809Y-33332D01*
X47663Y-33332D01*
X47627Y-33347D01*
X47671Y-33242D01*
X47671Y-33096D01*
X47615Y-32961D01*
X47511Y-32857D01*
X47376Y-32801D01*
X47298Y-32801D01*
X47236Y-32739D01*
X47101Y-32683D01*
X46954Y-32683D01*
X46819Y-32738D01*
X46715Y-32842D01*
X46659Y-32977D01*
X46659Y-33124D01*
X46715Y-33259D01*
X46734Y-33278D01*
X46679Y-33410D01*
X46679Y-33557D01*
X46734Y-33692D01*
X46838Y-33796D01*
X46973Y-33852D01*
X47120Y-33852D01*
X47255Y-33796D01*
X47359Y-33693D01*
X47368Y-33671D01*
X47368Y-33773D01*
X47423Y-33909D01*
X47527Y-34012D01*
X47662Y-34068D01*
X47809Y-34068D01*
X47917Y-34024D01*
X47977Y-34049D01*
X48124Y-34049D01*
X48259Y-33993D01*
X48363Y-33889D01*
X48366Y-33880D01*
G54D10*
G36*
X42250Y-38846D02*
X41091Y-38828D01*
X41035Y-37593D01*
X41349Y-37659D01*
X41389Y-38534D01*
X42235Y-38534D01*
X42250Y-38846D01*
X42250Y-38846D01*
G37*
G54D17*
X42250Y-38846D02*
X41091Y-38828D01*
X41035Y-37593D01*
X41349Y-37659D01*
X41389Y-38534D01*
X42235Y-38534D01*
X42250Y-38846D01*
G54D10*
G36*
X40025Y-51721D02*
X39400Y-51721D01*
X39400Y-51301D01*
X39356Y-51196D01*
X39276Y-51115D01*
X39171Y-51072D01*
X39057Y-51071D01*
X38952Y-51115D01*
X38871Y-51195D01*
X38828Y-51301D01*
X38827Y-51414D01*
X38871Y-51520D01*
X38951Y-51600D01*
X39056Y-51644D01*
X39170Y-51644D01*
X39276Y-51601D01*
X39356Y-51520D01*
X39400Y-51415D01*
X39400Y-51301D01*
X39400Y-51721D01*
X36231Y-51721D01*
X36231Y-50179D01*
X36187Y-50074D01*
X36107Y-49993D01*
X36034Y-49963D01*
X36034Y-49116D01*
X35990Y-49011D01*
X35910Y-48930D01*
X35805Y-48887D01*
X35691Y-48886D01*
X35586Y-48930D01*
X35505Y-49010D01*
X35461Y-49116D01*
X35461Y-49229D01*
X35505Y-49335D01*
X35585Y-49415D01*
X35690Y-49459D01*
X35804Y-49459D01*
X35909Y-49416D01*
X35990Y-49335D01*
X36034Y-49230D01*
X36034Y-49116D01*
X36034Y-49963D01*
X36002Y-49950D01*
X35907Y-49949D01*
X35911Y-49945D01*
X35955Y-49840D01*
X35955Y-49726D01*
X35912Y-49621D01*
X35831Y-49540D01*
X35726Y-49497D01*
X35612Y-49497D01*
X35507Y-49540D01*
X35426Y-49621D01*
X35383Y-49726D01*
X35383Y-49840D01*
X35426Y-49945D01*
X35506Y-50025D01*
X35612Y-50069D01*
X35706Y-50069D01*
X35702Y-50073D01*
X35658Y-50179D01*
X35658Y-50292D01*
X35702Y-50398D01*
X35782Y-50478D01*
X35887Y-50522D01*
X36001Y-50522D01*
X36106Y-50479D01*
X36187Y-50398D01*
X36231Y-50293D01*
X36231Y-50179D01*
X36231Y-51721D01*
X34557Y-51721D01*
X34519Y-47965D01*
X36105Y-47970D01*
X36182Y-48002D01*
X36296Y-48002D01*
X36373Y-47971D01*
X39550Y-47982D01*
X39268Y-48264D01*
X39146Y-48446D01*
X39103Y-48661D01*
X39146Y-48876D01*
X39268Y-49058D01*
X39405Y-49196D01*
X39405Y-49196D01*
X39588Y-49318D01*
X39803Y-49361D01*
X39803Y-49361D01*
X39803Y-49361D01*
X39892Y-49361D01*
X39914Y-49756D01*
X39908Y-49739D01*
X39827Y-49659D01*
X39722Y-49615D01*
X39608Y-49615D01*
X39503Y-49658D01*
X39422Y-49739D01*
X39379Y-49844D01*
X39379Y-49958D01*
X39422Y-50063D01*
X39503Y-50144D01*
X39608Y-50187D01*
X39722Y-50187D01*
X39827Y-50144D01*
X39907Y-50063D01*
X39929Y-50012D01*
X40025Y-51721D01*
X40025Y-51721D01*
G37*
G54D17*
X40025Y-51721D02*
X39400Y-51721D01*
X39400Y-51301D01*
X39356Y-51196D01*
X39276Y-51115D01*
X39171Y-51072D01*
X39057Y-51071D01*
X38952Y-51115D01*
X38871Y-51195D01*
X38828Y-51301D01*
X38827Y-51414D01*
X38871Y-51520D01*
X38951Y-51600D01*
X39056Y-51644D01*
X39170Y-51644D01*
X39276Y-51601D01*
X39356Y-51520D01*
X39400Y-51415D01*
X39400Y-51301D01*
X39400Y-51721D01*
X36231Y-51721D01*
X36231Y-50179D01*
X36187Y-50074D01*
X36107Y-49993D01*
X36034Y-49963D01*
X36034Y-49116D01*
X35990Y-49011D01*
X35910Y-48930D01*
X35805Y-48887D01*
X35691Y-48886D01*
X35586Y-48930D01*
X35505Y-49010D01*
X35461Y-49116D01*
X35461Y-49229D01*
X35505Y-49335D01*
X35585Y-49415D01*
X35690Y-49459D01*
X35804Y-49459D01*
X35909Y-49416D01*
X35990Y-49335D01*
X36034Y-49230D01*
X36034Y-49116D01*
X36034Y-49963D01*
X36002Y-49950D01*
X35907Y-49949D01*
X35911Y-49945D01*
X35955Y-49840D01*
X35955Y-49726D01*
X35912Y-49621D01*
X35831Y-49540D01*
X35726Y-49497D01*
X35612Y-49497D01*
X35507Y-49540D01*
X35426Y-49621D01*
X35383Y-49726D01*
X35383Y-49840D01*
X35426Y-49945D01*
X35506Y-50025D01*
X35612Y-50069D01*
X35706Y-50069D01*
X35702Y-50073D01*
X35658Y-50179D01*
X35658Y-50292D01*
X35702Y-50398D01*
X35782Y-50478D01*
X35887Y-50522D01*
X36001Y-50522D01*
X36106Y-50479D01*
X36187Y-50398D01*
X36231Y-50293D01*
X36231Y-50179D01*
X36231Y-51721D01*
X34557Y-51721D01*
X34519Y-47965D01*
X36105Y-47970D01*
X36182Y-48002D01*
X36296Y-48002D01*
X36373Y-47971D01*
X39550Y-47982D01*
X39268Y-48264D01*
X39146Y-48446D01*
X39103Y-48661D01*
X39146Y-48876D01*
X39268Y-49058D01*
X39405Y-49196D01*
X39405Y-49196D01*
X39588Y-49318D01*
X39803Y-49361D01*
X39803Y-49361D01*
X39803Y-49361D01*
X39892Y-49361D01*
X39914Y-49756D01*
X39908Y-49739D01*
X39827Y-49659D01*
X39722Y-49615D01*
X39608Y-49615D01*
X39503Y-49658D01*
X39422Y-49739D01*
X39379Y-49844D01*
X39379Y-49958D01*
X39422Y-50063D01*
X39503Y-50144D01*
X39608Y-50187D01*
X39722Y-50187D01*
X39827Y-50144D01*
X39907Y-50063D01*
X39929Y-50012D01*
X40025Y-51721D01*
G54D10*
G36*
X42901Y-36367D02*
X41979Y-36367D01*
X41979Y-34805D01*
X41935Y-34700D01*
X41880Y-34645D01*
X41880Y-29116D01*
X41837Y-29011D01*
X41756Y-28930D01*
X41651Y-28887D01*
X41537Y-28886D01*
X41432Y-28930D01*
X41428Y-28935D01*
X41428Y-27443D01*
X41384Y-27338D01*
X41304Y-27257D01*
X41198Y-27213D01*
X41085Y-27213D01*
X40979Y-27257D01*
X40899Y-27337D01*
X40855Y-27442D01*
X40855Y-27454D01*
X40844Y-27450D01*
X40730Y-27449D01*
X40625Y-27493D01*
X40620Y-27498D01*
X40595Y-27474D01*
X40490Y-27430D01*
X40376Y-27430D01*
X40271Y-27473D01*
X40190Y-27554D01*
X40146Y-27659D01*
X40146Y-27773D01*
X40190Y-27878D01*
X40270Y-27959D01*
X40375Y-28002D01*
X40489Y-28002D01*
X40594Y-27959D01*
X40600Y-27953D01*
X40625Y-27978D01*
X40730Y-28022D01*
X40844Y-28022D01*
X40949Y-27979D01*
X41029Y-27898D01*
X41073Y-27793D01*
X41073Y-27781D01*
X41084Y-27786D01*
X41198Y-27786D01*
X41303Y-27742D01*
X41384Y-27662D01*
X41427Y-27557D01*
X41428Y-27443D01*
X41428Y-28935D01*
X41351Y-29010D01*
X41308Y-29116D01*
X41308Y-29229D01*
X41351Y-29335D01*
X41432Y-29415D01*
X41537Y-29459D01*
X41651Y-29459D01*
X41756Y-29416D01*
X41836Y-29335D01*
X41880Y-29230D01*
X41880Y-29116D01*
X41880Y-34645D01*
X41855Y-34619D01*
X41750Y-34576D01*
X41636Y-34575D01*
X41530Y-34619D01*
X41450Y-34699D01*
X41406Y-34805D01*
X41406Y-34918D01*
X41450Y-35024D01*
X41530Y-35104D01*
X41635Y-35148D01*
X41749Y-35148D01*
X41854Y-35104D01*
X41935Y-35024D01*
X41979Y-34919D01*
X41979Y-34805D01*
X41979Y-36367D01*
X41614Y-36367D01*
X41272Y-36368D01*
X41266Y-36353D01*
X41185Y-36273D01*
X41080Y-36229D01*
X40966Y-36229D01*
X40876Y-36266D01*
X40876Y-31734D01*
X40833Y-31629D01*
X40798Y-31594D01*
X40798Y-28781D01*
X40754Y-28676D01*
X40674Y-28596D01*
X40568Y-28552D01*
X40455Y-28552D01*
X40349Y-28595D01*
X40269Y-28676D01*
X40229Y-28772D01*
X40133Y-28812D01*
X40052Y-28892D01*
X40009Y-28997D01*
X40009Y-29111D01*
X40052Y-29217D01*
X40132Y-29297D01*
X40238Y-29341D01*
X40351Y-29341D01*
X40457Y-29297D01*
X40537Y-29217D01*
X40577Y-29120D01*
X40673Y-29081D01*
X40754Y-29000D01*
X40797Y-28895D01*
X40798Y-28781D01*
X40798Y-31594D01*
X40752Y-31548D01*
X40739Y-31543D01*
X40739Y-30317D01*
X40695Y-30212D01*
X40615Y-30131D01*
X40509Y-30087D01*
X40396Y-30087D01*
X40290Y-30131D01*
X40210Y-30211D01*
X40166Y-30316D01*
X40166Y-30363D01*
X40100Y-30363D01*
X39995Y-30406D01*
X39971Y-30431D01*
X39971Y-28329D01*
X39927Y-28223D01*
X39902Y-28198D01*
X39907Y-28193D01*
X39951Y-28088D01*
X39951Y-27974D01*
X39908Y-27869D01*
X39827Y-27788D01*
X39722Y-27745D01*
X39608Y-27745D01*
X39503Y-27788D01*
X39422Y-27869D01*
X39379Y-27974D01*
X39379Y-28088D01*
X39422Y-28193D01*
X39447Y-28218D01*
X39442Y-28223D01*
X39398Y-28328D01*
X39398Y-28442D01*
X39442Y-28547D01*
X39522Y-28628D01*
X39627Y-28671D01*
X39741Y-28672D01*
X39846Y-28628D01*
X39927Y-28548D01*
X39971Y-28443D01*
X39971Y-28329D01*
X39971Y-30431D01*
X39914Y-30487D01*
X39871Y-30592D01*
X39871Y-30706D01*
X39914Y-30811D01*
X39995Y-30892D01*
X40100Y-30935D01*
X40214Y-30935D01*
X40319Y-30892D01*
X40399Y-30811D01*
X40443Y-30706D01*
X40443Y-30660D01*
X40509Y-30660D01*
X40614Y-30616D01*
X40695Y-30536D01*
X40738Y-30431D01*
X40739Y-30317D01*
X40739Y-31543D01*
X40647Y-31505D01*
X40640Y-31505D01*
X40640Y-31498D01*
X40597Y-31393D01*
X40516Y-31312D01*
X40411Y-31268D01*
X40297Y-31268D01*
X40192Y-31312D01*
X40111Y-31392D01*
X40068Y-31497D01*
X40068Y-31611D01*
X40111Y-31717D01*
X40191Y-31797D01*
X40297Y-31841D01*
X40304Y-31841D01*
X40304Y-31848D01*
X40347Y-31953D01*
X40428Y-32033D01*
X40533Y-32077D01*
X40647Y-32077D01*
X40752Y-32034D01*
X40833Y-31953D01*
X40876Y-31848D01*
X40876Y-31734D01*
X40876Y-36266D01*
X40861Y-36272D01*
X40781Y-36353D01*
X40773Y-36371D01*
X39262Y-36378D01*
X39262Y-28053D01*
X39219Y-27948D01*
X39183Y-27912D01*
X39183Y-26321D01*
X39140Y-26216D01*
X39059Y-26135D01*
X38954Y-26091D01*
X38840Y-26091D01*
X38735Y-26135D01*
X38655Y-26215D01*
X38611Y-26320D01*
X38611Y-26434D01*
X38654Y-26539D01*
X38735Y-26620D01*
X38840Y-26664D01*
X38954Y-26664D01*
X39059Y-26620D01*
X39140Y-26540D01*
X39183Y-26435D01*
X39183Y-26321D01*
X39183Y-27912D01*
X39138Y-27867D01*
X39033Y-27824D01*
X38919Y-27823D01*
X38848Y-27853D01*
X38823Y-27828D01*
X38718Y-27784D01*
X38604Y-27784D01*
X38503Y-27826D01*
X38403Y-27784D01*
X38289Y-27784D01*
X38184Y-27828D01*
X38103Y-27908D01*
X38060Y-28013D01*
X38060Y-28127D01*
X38103Y-28232D01*
X38184Y-28313D01*
X38289Y-28357D01*
X38403Y-28357D01*
X38504Y-28315D01*
X38604Y-28357D01*
X38718Y-28357D01*
X38789Y-28327D01*
X38814Y-28352D01*
X38919Y-28396D01*
X39033Y-28396D01*
X39138Y-28353D01*
X39218Y-28272D01*
X39262Y-28167D01*
X39262Y-28053D01*
X39262Y-36378D01*
X38258Y-36383D01*
X38258Y-34844D01*
X38215Y-34739D01*
X38134Y-34659D01*
X38029Y-34615D01*
X37915Y-34615D01*
X37810Y-34658D01*
X37729Y-34739D01*
X37686Y-34844D01*
X37686Y-34958D01*
X37729Y-35063D01*
X37810Y-35144D01*
X37915Y-35187D01*
X38029Y-35187D01*
X38134Y-35144D01*
X38214Y-35063D01*
X38258Y-34958D01*
X38258Y-34844D01*
X38258Y-36383D01*
X37511Y-36386D01*
X37726Y-25169D01*
X39930Y-25240D01*
X39930Y-25253D01*
X39973Y-25358D01*
X40054Y-25439D01*
X40159Y-25483D01*
X40273Y-25483D01*
X40378Y-25439D01*
X40459Y-25359D01*
X40500Y-25258D01*
X41308Y-25284D01*
X41308Y-25391D01*
X41337Y-25461D01*
X41281Y-25461D01*
X41176Y-25505D01*
X41096Y-25585D01*
X41052Y-25690D01*
X41052Y-25804D01*
X41095Y-25909D01*
X41176Y-25990D01*
X41281Y-26034D01*
X41395Y-26034D01*
X41500Y-25990D01*
X41575Y-25915D01*
X41576Y-25916D01*
X41690Y-25916D01*
X41795Y-25872D01*
X41876Y-25792D01*
X41920Y-25687D01*
X41920Y-25573D01*
X41876Y-25468D01*
X41857Y-25448D01*
X41880Y-25391D01*
X41880Y-25302D01*
X42549Y-25324D01*
X42685Y-29575D01*
X42652Y-29654D01*
X42620Y-29654D01*
X42515Y-29698D01*
X42434Y-29778D01*
X42427Y-29795D01*
X42419Y-29792D01*
X42305Y-29792D01*
X42200Y-29835D01*
X42119Y-29916D01*
X42076Y-30021D01*
X42075Y-30135D01*
X42119Y-30240D01*
X42199Y-30321D01*
X42305Y-30364D01*
X42418Y-30365D01*
X42524Y-30321D01*
X42604Y-30241D01*
X42611Y-30223D01*
X42619Y-30227D01*
X42705Y-30227D01*
X42808Y-33441D01*
X42765Y-33545D01*
X42764Y-33659D01*
X42808Y-33764D01*
X42818Y-33774D01*
X42901Y-36367D01*
X42901Y-36367D01*
G37*
G54D17*
X42901Y-36367D02*
X41979Y-36367D01*
X41979Y-34805D01*
X41935Y-34700D01*
X41880Y-34645D01*
X41880Y-29116D01*
X41837Y-29011D01*
X41756Y-28930D01*
X41651Y-28887D01*
X41537Y-28886D01*
X41432Y-28930D01*
X41428Y-28935D01*
X41428Y-27443D01*
X41384Y-27338D01*
X41304Y-27257D01*
X41198Y-27213D01*
X41085Y-27213D01*
X40979Y-27257D01*
X40899Y-27337D01*
X40855Y-27442D01*
X40855Y-27454D01*
X40844Y-27450D01*
X40730Y-27449D01*
X40625Y-27493D01*
X40620Y-27498D01*
X40595Y-27474D01*
X40490Y-27430D01*
X40376Y-27430D01*
X40271Y-27473D01*
X40190Y-27554D01*
X40146Y-27659D01*
X40146Y-27773D01*
X40190Y-27878D01*
X40270Y-27959D01*
X40375Y-28002D01*
X40489Y-28002D01*
X40594Y-27959D01*
X40600Y-27953D01*
X40625Y-27978D01*
X40730Y-28022D01*
X40844Y-28022D01*
X40949Y-27979D01*
X41029Y-27898D01*
X41073Y-27793D01*
X41073Y-27781D01*
X41084Y-27786D01*
X41198Y-27786D01*
X41303Y-27742D01*
X41384Y-27662D01*
X41427Y-27557D01*
X41428Y-27443D01*
X41428Y-28935D01*
X41351Y-29010D01*
X41308Y-29116D01*
X41308Y-29229D01*
X41351Y-29335D01*
X41432Y-29415D01*
X41537Y-29459D01*
X41651Y-29459D01*
X41756Y-29416D01*
X41836Y-29335D01*
X41880Y-29230D01*
X41880Y-29116D01*
X41880Y-34645D01*
X41855Y-34619D01*
X41750Y-34576D01*
X41636Y-34575D01*
X41530Y-34619D01*
X41450Y-34699D01*
X41406Y-34805D01*
X41406Y-34918D01*
X41450Y-35024D01*
X41530Y-35104D01*
X41635Y-35148D01*
X41749Y-35148D01*
X41854Y-35104D01*
X41935Y-35024D01*
X41979Y-34919D01*
X41979Y-34805D01*
X41979Y-36367D01*
X41614Y-36367D01*
X41272Y-36368D01*
X41266Y-36353D01*
X41185Y-36273D01*
X41080Y-36229D01*
X40966Y-36229D01*
X40876Y-36266D01*
X40876Y-31734D01*
X40833Y-31629D01*
X40798Y-31594D01*
X40798Y-28781D01*
X40754Y-28676D01*
X40674Y-28596D01*
X40568Y-28552D01*
X40455Y-28552D01*
X40349Y-28595D01*
X40269Y-28676D01*
X40229Y-28772D01*
X40133Y-28812D01*
X40052Y-28892D01*
X40009Y-28997D01*
X40009Y-29111D01*
X40052Y-29217D01*
X40132Y-29297D01*
X40238Y-29341D01*
X40351Y-29341D01*
X40457Y-29297D01*
X40537Y-29217D01*
X40577Y-29120D01*
X40673Y-29081D01*
X40754Y-29000D01*
X40797Y-28895D01*
X40798Y-28781D01*
X40798Y-31594D01*
X40752Y-31548D01*
X40739Y-31543D01*
X40739Y-30317D01*
X40695Y-30212D01*
X40615Y-30131D01*
X40509Y-30087D01*
X40396Y-30087D01*
X40290Y-30131D01*
X40210Y-30211D01*
X40166Y-30316D01*
X40166Y-30363D01*
X40100Y-30363D01*
X39995Y-30406D01*
X39971Y-30431D01*
X39971Y-28329D01*
X39927Y-28223D01*
X39902Y-28198D01*
X39907Y-28193D01*
X39951Y-28088D01*
X39951Y-27974D01*
X39908Y-27869D01*
X39827Y-27788D01*
X39722Y-27745D01*
X39608Y-27745D01*
X39503Y-27788D01*
X39422Y-27869D01*
X39379Y-27974D01*
X39379Y-28088D01*
X39422Y-28193D01*
X39447Y-28218D01*
X39442Y-28223D01*
X39398Y-28328D01*
X39398Y-28442D01*
X39442Y-28547D01*
X39522Y-28628D01*
X39627Y-28671D01*
X39741Y-28672D01*
X39846Y-28628D01*
X39927Y-28548D01*
X39971Y-28443D01*
X39971Y-28329D01*
X39971Y-30431D01*
X39914Y-30487D01*
X39871Y-30592D01*
X39871Y-30706D01*
X39914Y-30811D01*
X39995Y-30892D01*
X40100Y-30935D01*
X40214Y-30935D01*
X40319Y-30892D01*
X40399Y-30811D01*
X40443Y-30706D01*
X40443Y-30660D01*
X40509Y-30660D01*
X40614Y-30616D01*
X40695Y-30536D01*
X40738Y-30431D01*
X40739Y-30317D01*
X40739Y-31543D01*
X40647Y-31505D01*
X40640Y-31505D01*
X40640Y-31498D01*
X40597Y-31393D01*
X40516Y-31312D01*
X40411Y-31268D01*
X40297Y-31268D01*
X40192Y-31312D01*
X40111Y-31392D01*
X40068Y-31497D01*
X40068Y-31611D01*
X40111Y-31717D01*
X40191Y-31797D01*
X40297Y-31841D01*
X40304Y-31841D01*
X40304Y-31848D01*
X40347Y-31953D01*
X40428Y-32033D01*
X40533Y-32077D01*
X40647Y-32077D01*
X40752Y-32034D01*
X40833Y-31953D01*
X40876Y-31848D01*
X40876Y-31734D01*
X40876Y-36266D01*
X40861Y-36272D01*
X40781Y-36353D01*
X40773Y-36371D01*
X39262Y-36378D01*
X39262Y-28053D01*
X39219Y-27948D01*
X39183Y-27912D01*
X39183Y-26321D01*
X39140Y-26216D01*
X39059Y-26135D01*
X38954Y-26091D01*
X38840Y-26091D01*
X38735Y-26135D01*
X38655Y-26215D01*
X38611Y-26320D01*
X38611Y-26434D01*
X38654Y-26539D01*
X38735Y-26620D01*
X38840Y-26664D01*
X38954Y-26664D01*
X39059Y-26620D01*
X39140Y-26540D01*
X39183Y-26435D01*
X39183Y-26321D01*
X39183Y-27912D01*
X39138Y-27867D01*
X39033Y-27824D01*
X38919Y-27823D01*
X38848Y-27853D01*
X38823Y-27828D01*
X38718Y-27784D01*
X38604Y-27784D01*
X38503Y-27826D01*
X38403Y-27784D01*
X38289Y-27784D01*
X38184Y-27828D01*
X38103Y-27908D01*
X38060Y-28013D01*
X38060Y-28127D01*
X38103Y-28232D01*
X38184Y-28313D01*
X38289Y-28357D01*
X38403Y-28357D01*
X38504Y-28315D01*
X38604Y-28357D01*
X38718Y-28357D01*
X38789Y-28327D01*
X38814Y-28352D01*
X38919Y-28396D01*
X39033Y-28396D01*
X39138Y-28353D01*
X39218Y-28272D01*
X39262Y-28167D01*
X39262Y-28053D01*
X39262Y-36378D01*
X38258Y-36383D01*
X38258Y-34844D01*
X38215Y-34739D01*
X38134Y-34659D01*
X38029Y-34615D01*
X37915Y-34615D01*
X37810Y-34658D01*
X37729Y-34739D01*
X37686Y-34844D01*
X37686Y-34958D01*
X37729Y-35063D01*
X37810Y-35144D01*
X37915Y-35187D01*
X38029Y-35187D01*
X38134Y-35144D01*
X38214Y-35063D01*
X38258Y-34958D01*
X38258Y-34844D01*
X38258Y-36383D01*
X37511Y-36386D01*
X37726Y-25169D01*
X39930Y-25240D01*
X39930Y-25253D01*
X39973Y-25358D01*
X40054Y-25439D01*
X40159Y-25483D01*
X40273Y-25483D01*
X40378Y-25439D01*
X40459Y-25359D01*
X40500Y-25258D01*
X41308Y-25284D01*
X41308Y-25391D01*
X41337Y-25461D01*
X41281Y-25461D01*
X41176Y-25505D01*
X41096Y-25585D01*
X41052Y-25690D01*
X41052Y-25804D01*
X41095Y-25909D01*
X41176Y-25990D01*
X41281Y-26034D01*
X41395Y-26034D01*
X41500Y-25990D01*
X41575Y-25915D01*
X41576Y-25916D01*
X41690Y-25916D01*
X41795Y-25872D01*
X41876Y-25792D01*
X41920Y-25687D01*
X41920Y-25573D01*
X41876Y-25468D01*
X41857Y-25448D01*
X41880Y-25391D01*
X41880Y-25302D01*
X42549Y-25324D01*
X42685Y-29575D01*
X42652Y-29654D01*
X42620Y-29654D01*
X42515Y-29698D01*
X42434Y-29778D01*
X42427Y-29795D01*
X42419Y-29792D01*
X42305Y-29792D01*
X42200Y-29835D01*
X42119Y-29916D01*
X42076Y-30021D01*
X42075Y-30135D01*
X42119Y-30240D01*
X42199Y-30321D01*
X42305Y-30364D01*
X42418Y-30365D01*
X42524Y-30321D01*
X42604Y-30241D01*
X42611Y-30223D01*
X42619Y-30227D01*
X42705Y-30227D01*
X42808Y-33441D01*
X42765Y-33545D01*
X42764Y-33659D01*
X42808Y-33764D01*
X42818Y-33774D01*
X42901Y-36367D01*
M02*
