M48
;DRILL file {Pcbnew (2013-04-04 BZR 4007)-stable} date Втр 09 Апр 2013 20:18:26
;FORMAT={-:-/ absolute / inch / decimal}
FMAT,2
INCH,TZ
T1C0.012
T2C0.012
T3C0.039
T4C0.071
%
G90
G05
M72
T1
X4.3662Y-3.5434
X4.3662Y-3.622
X4.3977Y-3.5434
X4.3977Y-3.622
X4.4292Y-3.4804
X4.4292Y-3.5119
X4.4292Y-3.6535
X4.4292Y-3.685
X4.5078Y-3.4804
X4.5078Y-3.5119
X4.5078Y-3.6535
X4.5078Y-3.685
X4.5393Y-3.5434
X4.5393Y-3.622
X4.5708Y-3.5434
X4.5708Y-3.622
T2
X3.4862Y-5.3071
X3.5197Y-3.9705
X3.5374Y-5.2224
X3.5453Y-3.5768
X3.563Y-3.9941
X3.5669Y-4.9783
X3.5748Y-4.9173
X3.5945Y-5.0236
X3.5984Y-2.9094
X3.6161Y-3.2894
X3.624Y-4.7717
X3.6516Y-4.
X3.6516Y-4.0413
X3.6654Y-4.5866
X3.6713Y-3.9665
X3.6713Y-4.126
X3.685Y-3.9961
X3.6909Y-4.1024
X3.7028Y-4.5846
X3.7067Y-4.9547
X3.7126Y-3.3091
X3.7421Y-5.378
X3.7463Y-5.457
X3.748Y-5.5059
X3.7972Y-3.4902
X3.8346Y-2.8071
X3.8484Y-4.2362
X3.8661Y-2.8071
X3.8681Y-5.4646
X3.8799Y-4.2382
X3.8898Y-2.6378
X3.8976Y-2.811
X3.9114Y-5.1358
X3.9163Y-5.277
X3.9232Y-4.7382
X3.9469Y-4.7677
X3.9528Y-2.4429
X3.9547Y-4.3976
X3.9665Y-2.8031
X3.9665Y-4.9902
X3.9685Y-2.8386
X3.9783Y-4.7717
X3.9803Y-4.4823
X3.9823Y-4.7106
X3.9862Y-5.5354
X3.9882Y-4.1398
X4.0039Y-4.3819
X4.0157Y-3.065
X4.0197Y-2.4882
X4.0217Y-2.5197
X4.0295Y-2.9055
X4.0354Y-3.1555
X4.0354Y-4.5394
X4.0433Y-2.7717
X4.0453Y-3.0374
X4.0453Y-4.7224
X4.0472Y-4.7854
X4.0492Y-4.878
X4.0512Y-2.8839
X4.0591Y-3.1791
X4.0748Y-4.6555
X4.0787Y-2.7736
X4.1004Y-4.4744
X4.1024Y-3.6516
X4.1063Y-4.1358
X4.11Y-4.65
X4.1142Y-2.75
X4.1161Y-3.7657
X4.1201Y-3.8051
X4.1201Y-4.4272
X4.122Y-3.6752
X4.122Y-3.8445
X4.124Y-2.687
X4.126Y-3.7146
X4.126Y-4.5945
X4.126Y-4.624
X4.128Y-4.565
X4.1339Y-2.5748
X4.1358Y-3.5846
X4.1496Y-4.8307
X4.1594Y-2.502
X4.1594Y-2.5335
X4.1594Y-2.9173
X4.1634Y-2.563
X4.1634Y-4.3681
X4.1693Y-3.4862
X4.1713Y-2.3898
X4.1909Y-3.7165
X4.1929Y-4.3583
X4.2303Y-4.1161
X4.2362Y-3.0079
X4.2421Y-2.4075
X4.252Y-4.5276
X4.2677Y-2.9941
X4.2756Y-3.8602
X4.2874Y-4.5039
X4.2913Y-4.5394
X4.2933Y-2.9724
X4.2992Y-2.3878
X4.3031Y-4.4724
X4.3031Y-4.5925
X4.3051Y-3.3602
X4.313Y-4.624
X4.315Y-2.9488
X4.3406Y-3.3583
X4.3465Y-4.1969
X4.3583Y-2.2461
X4.3642Y-3.9331
X4.3661Y-2.748
X4.372Y-2.3799
X4.372Y-4.3622
X4.3775Y-4.19
X4.385Y-4.05
X4.3957Y-2.7539
X4.3975Y-3.96
X4.4025Y-4.19
X4.4154Y-4.3169
X4.44Y-4.185
X4.4409Y-4.6949
X4.4409Y-4.8799
X4.4409Y-5.0177
X4.4429Y-4.626
X4.4449Y-4.9508
X4.4449Y-5.0827
X4.4508Y-4.7854
X4.4547Y-4.5965
X4.455Y-4.205
X4.4567Y-4.7421
X4.4567Y-5.1535
X4.4626Y-4.3504
X4.4646Y-4.8583
X4.4665Y-4.9252
X4.4685Y-4.9941
X4.4724Y-4.7008
X4.4744Y-5.061
X4.4764Y-4.5236
X4.48Y-3.955
X4.48Y-4.225
X4.4803Y-4.4921
X4.4803Y-5.1299
X4.4823Y-4.6575
X4.4843Y-4.626
X4.4902Y-4.8071
X4.4902Y-4.8366
X4.4921Y-4.9035
X4.4941Y-3.2205
X4.498Y-4.9724
X4.5039Y-4.2441
X4.5039Y-5.0394
X4.5039Y-5.1063
X4.5079Y-5.1772
X4.5098Y-4.2717
X4.5276Y-4.4075
X4.5315Y-2.2323
X4.5315Y-2.8819
X4.5315Y-2.9213
X4.5315Y-3.2461
X4.5354Y-3.0866
X4.5492Y-3.2992
X4.5512Y-3.9528
X4.5551Y-2.9547
X4.5689Y-5.2303
X4.5728Y-3.0157
X4.5728Y-4.7205
X4.5807Y-4.5413
X4.585Y-4.75
X4.59Y-3.955
X4.59Y-4.0775
X4.5906Y-4.4823
X4.5925Y-2.2894
X4.5925Y-5.2559
X4.595Y-4.69
X4.595Y-4.78
X4.5965Y-4.3602
X4.6024Y-3.0217
X4.6075Y-4.1025
X4.6378Y-4.3406
X4.6398Y-3.2461
X4.6516Y-4.374
X4.6791Y-3.4724
X4.6949Y-3.2461
X4.7028Y-3.3051
X4.7047Y-3.3484
X4.7293Y-4.5443
X4.7303Y-3.3169
X4.7323Y-2.9488
X4.74Y-4.07
X4.7441Y-4.315
X4.7598Y-4.5138
X4.765Y-4.08
X4.7657Y-3.4862
X4.7736Y-3.3701
X4.7776Y-4.4843
X4.785Y-4.07
X4.7854Y-4.5531
X4.7894Y-3.4528
X4.79Y-3.955
X4.7933Y-4.4547
X4.8012Y-3.4213
X4.8051Y-3.3681
X4.8228Y-3.2913
X4.8248Y-3.2559
X4.8248Y-3.3248
X4.8248Y-4.8799
X4.825Y-3.655
X4.8287Y-4.9508
X4.83Y-3.795
X4.83Y-4.02
X4.8346Y-5.0827
X4.8366Y-5.0177
X4.8425Y-5.1535
X4.8465Y-4.8583
X4.8504Y-4.9252
X4.8563Y-4.9941
X4.8583Y-5.061
X4.8622Y-5.1299
X4.8701Y-4.8366
X4.874Y-4.9035
X4.8799Y-4.9724
X4.8799Y-5.0394
X4.8819Y-5.1063
X4.885Y-4.365
X4.8898Y-5.1772
X4.8937Y-2.813
X4.9114Y-4.5335
X4.9134Y-4.7933
X4.9193Y-4.4862
X4.9272Y-4.4429
X4.9272Y-4.5886
X4.9272Y-4.6398
X4.9429Y-3.3898
X4.9429Y-4.7638
X4.9646Y-2.5945
X4.9665Y-3.3287
X4.9685Y-3.3642
X5.0177Y-3.0472
X5.0177Y-4.2185
X5.0197Y-3.0138
X5.0236Y-4.4469
X5.0256Y-4.6654
X5.0276Y-4.7441
X5.0335Y-4.561
X5.0551Y-4.5866
X5.061Y-4.7362
X5.0689Y-2.6496
X5.0689Y-2.7067
X5.0945Y-3.0098
X5.0965Y-3.0453
X5.0965Y-4.7165
X5.1319Y-4.6969
X5.1398Y-3.2441
X5.1457Y-3.2106
X5.1535Y-3.4154
X5.3327Y-3.4114
X5.4134Y-4.437
T3
X3.477Y-2.2356
X3.477Y-2.3356
X3.477Y-2.4356
X3.477Y-2.5356
X3.477Y-2.6356
X3.477Y-2.7356
X3.477Y-2.8356
X3.477Y-2.9356
X3.477Y-3.0356
X3.477Y-3.1356
X3.5045Y-2.0459
X3.527Y-2.1856
X3.527Y-2.2856
X3.527Y-2.3856
X3.527Y-2.4856
X3.527Y-2.5856
X3.527Y-2.6856
X3.527Y-2.7856
X3.527Y-2.8856
X3.527Y-2.9856
X3.527Y-3.0856
X3.5545Y-2.0959
X3.6045Y-2.0459
X3.6545Y-2.0959
X3.7045Y-2.0459
X3.7545Y-2.0959
X3.8045Y-2.0459
X3.8545Y-2.0959
X3.9045Y-2.0459
X3.9545Y-2.0959
X4.0045Y-2.0459
X4.0545Y-2.0959
X4.1045Y-2.0459
X4.1545Y-2.0959
X4.2045Y-2.0459
X4.2545Y-2.0959
X4.3045Y-2.0459
X4.3545Y-2.0959
X4.3982Y-5.4652
X4.4045Y-2.0459
X4.4077Y-2.1404
X4.4482Y-5.5152
X4.4545Y-2.0959
X4.4577Y-2.1904
X4.4982Y-5.4652
X4.5077Y-2.1404
X4.5482Y-5.5152
X4.5577Y-2.1904
X4.5982Y-5.4652
X4.6077Y-2.1404
X4.6482Y-5.5152
X4.6577Y-2.1904
X4.6982Y-5.4652
X4.7077Y-2.1404
X4.7482Y-5.5152
X4.7577Y-2.1904
X4.7982Y-5.4652
X4.8077Y-2.1404
X4.8482Y-5.5152
X4.8577Y-2.1904
X4.8982Y-5.4652
X4.9077Y-2.1404
X4.9482Y-5.5152
X4.9577Y-2.1904
X4.9982Y-5.4652
X5.0077Y-2.1404
X5.0482Y-5.5152
X5.0577Y-2.1904
X5.0982Y-5.4652
X5.1077Y-2.1404
X5.1482Y-5.5152
X5.1577Y-2.1904
X5.1982Y-5.4652
X5.2077Y-2.1404
X5.2482Y-5.5152
X5.2577Y-2.1904
X5.2939Y-2.4364
X5.2939Y-2.5364
X5.2939Y-2.6364
X5.2939Y-2.7364
X5.2939Y-2.8364
X5.2939Y-2.9364
X5.2939Y-3.0364
X5.2939Y-3.1364
X5.2939Y-3.2364
X5.2939Y-3.3364
X5.2982Y-5.4652
X5.3077Y-2.1404
X5.3439Y-2.3864
X5.3439Y-2.4864
X5.3439Y-2.5864
X5.3439Y-2.6864
X5.3439Y-2.7864
X5.3439Y-2.8864
X5.3439Y-2.9864
X5.3439Y-3.0864
X5.3439Y-3.1864
X5.3439Y-3.2864
X5.3482Y-5.5152
X5.3577Y-2.1904
T4
X4.4685Y-3.5827
T0
M30
