G04 (created by PCBNEW (2013-04-04 BZR 4007)-stable) date Срд 10 Апр 2013 22:20:27*
%MOIN*%
G04 Gerber Fmt 3.4, Leading zero omitted, Abs format*
%FSLAX34Y34*%
G01*
G70*
G90*
G04 APERTURE LIST*
%ADD10C,0.006*%
%ADD11C,0.0511811*%
%ADD12R,0.0859X0.2362*%
%ADD13R,0.016X0.2362*%
%ADD14C,0.0748031*%
%ADD15R,0.0255906X0.0748031*%
%ADD16R,0.0748031X0.0255906*%
%ADD17R,0.0255906X0.0255906*%
%ADD18C,0.023622*%
%ADD19C,0.00590551*%
%ADD20C,0.00787402*%
%ADD21C,0.015748*%
%ADD22C,0.01*%
G04 APERTURE END LIST*
G54D10*
G54D11*
X44076Y-21403D03*
X44576Y-21903D03*
X45076Y-21403D03*
X45576Y-21903D03*
X46076Y-21403D03*
X46576Y-21903D03*
X47076Y-21403D03*
X47576Y-21903D03*
X48076Y-21403D03*
X48576Y-21903D03*
X49076Y-21403D03*
X49576Y-21903D03*
X50076Y-21403D03*
X50576Y-21903D03*
X51076Y-21403D03*
X51576Y-21903D03*
X52076Y-21403D03*
X52576Y-21903D03*
X53076Y-21403D03*
X53576Y-21903D03*
X34769Y-31356D03*
X35269Y-30856D03*
X34769Y-30356D03*
X35269Y-29856D03*
X34769Y-29356D03*
X35269Y-28856D03*
X34769Y-28356D03*
X35269Y-27856D03*
X34769Y-27356D03*
X35269Y-26856D03*
X34769Y-26356D03*
X35269Y-25856D03*
X34769Y-25356D03*
X35269Y-24856D03*
X34769Y-24356D03*
X35269Y-23856D03*
X34769Y-23356D03*
X35269Y-22856D03*
X34769Y-22356D03*
X35269Y-21856D03*
X44545Y-20958D03*
X44045Y-20458D03*
X43545Y-20958D03*
X43045Y-20458D03*
X42545Y-20958D03*
X42045Y-20458D03*
X41545Y-20958D03*
X41045Y-20458D03*
X40545Y-20958D03*
X40045Y-20458D03*
X39545Y-20958D03*
X39045Y-20458D03*
X38545Y-20958D03*
X38045Y-20458D03*
X37545Y-20958D03*
X37045Y-20458D03*
X36545Y-20958D03*
X36045Y-20458D03*
X35545Y-20958D03*
X35045Y-20458D03*
X52938Y-33364D03*
X53438Y-32864D03*
X52938Y-32364D03*
X53438Y-31864D03*
X52938Y-31364D03*
X53438Y-30864D03*
X52938Y-30364D03*
X53438Y-29864D03*
X52938Y-29364D03*
X53438Y-28864D03*
X52938Y-28364D03*
X53438Y-27864D03*
X52938Y-27364D03*
X53438Y-26864D03*
X52938Y-26364D03*
X53438Y-25864D03*
X52938Y-25364D03*
X53438Y-24864D03*
X52938Y-24364D03*
X53438Y-23864D03*
X53482Y-55151D03*
X52982Y-54651D03*
X52482Y-55151D03*
X51982Y-54651D03*
X51482Y-55151D03*
X50982Y-54651D03*
X50482Y-55151D03*
X49982Y-54651D03*
X49482Y-55151D03*
X48982Y-54651D03*
X48482Y-55151D03*
X47982Y-54651D03*
X47482Y-55151D03*
X46982Y-54651D03*
X46482Y-55151D03*
X45982Y-54651D03*
X45482Y-55151D03*
X44982Y-54651D03*
X44482Y-55151D03*
X43982Y-54651D03*
G54D12*
X44685Y-35826D03*
G54D13*
X43662Y-36219D03*
X43977Y-36219D03*
X44292Y-36849D03*
X44292Y-36534D03*
X45078Y-36849D03*
X45078Y-36534D03*
X45708Y-36219D03*
X45393Y-36219D03*
X43662Y-35433D03*
X43977Y-35433D03*
X45708Y-35433D03*
X45393Y-35433D03*
X44292Y-34803D03*
X44292Y-35118D03*
X45078Y-34803D03*
X45078Y-35118D03*
G54D14*
X43385Y-25846D03*
G54D15*
X43835Y-25846D03*
X44085Y-25846D03*
X42935Y-25846D03*
X42685Y-25846D03*
G54D16*
X43385Y-26346D03*
X43385Y-26596D03*
X43385Y-25346D03*
X43385Y-25096D03*
G54D17*
X42885Y-25346D03*
X43885Y-25346D03*
X43885Y-26346D03*
X42885Y-26346D03*
G54D18*
X48011Y-34212D03*
X46397Y-32460D03*
X46948Y-32460D03*
X37007Y-34842D03*
X41692Y-40708D03*
X42755Y-38602D03*
X41909Y-37165D03*
X37066Y-49547D03*
X36653Y-45866D03*
X36712Y-39665D03*
X41259Y-37145D03*
X44173Y-24035D03*
X47401Y-40698D03*
X44271Y-41948D03*
X44645Y-41909D03*
X47696Y-40807D03*
X45137Y-42618D03*
X48300Y-40200D03*
X44783Y-42185D03*
X47992Y-40748D03*
X45511Y-39527D03*
X43287Y-41968D03*
X46122Y-38976D03*
X43602Y-41968D03*
X45944Y-40787D03*
X43937Y-41948D03*
X44409Y-50177D03*
X48366Y-50177D03*
X44507Y-47854D03*
X50964Y-47165D03*
X44429Y-46259D03*
X49271Y-46397D03*
X48464Y-48582D03*
X44645Y-48582D03*
X50551Y-45866D03*
X44409Y-46948D03*
X45039Y-51062D03*
X48818Y-51062D03*
X48248Y-48799D03*
X44409Y-48799D03*
X44744Y-50610D03*
X48582Y-50610D03*
X45039Y-50393D03*
X48799Y-50393D03*
X44566Y-47421D03*
X50610Y-47362D03*
X48346Y-50826D03*
X44448Y-50826D03*
X44901Y-48070D03*
X51318Y-46968D03*
X45078Y-51771D03*
X48897Y-51771D03*
X48700Y-48366D03*
X44901Y-48366D03*
X44803Y-51299D03*
X48622Y-51299D03*
X48562Y-49940D03*
X44685Y-49940D03*
X50334Y-45610D03*
X44822Y-46574D03*
X48799Y-49724D03*
X44980Y-49724D03*
X44665Y-49251D03*
X48503Y-49251D03*
X47775Y-44842D03*
X42874Y-45039D03*
X44547Y-45964D03*
X49271Y-45885D03*
X42913Y-45393D03*
X47598Y-45137D03*
X54133Y-44370D03*
X41259Y-45944D03*
X45807Y-45413D03*
X48740Y-49035D03*
X44921Y-49035D03*
X48425Y-51535D03*
X44566Y-51535D03*
X48287Y-49507D03*
X44448Y-49507D03*
X41358Y-35846D03*
X38641Y-36673D03*
X41240Y-26870D03*
X41161Y-37657D03*
X41220Y-38444D03*
X41200Y-38051D03*
X41692Y-34862D03*
X46791Y-34724D03*
X47657Y-34862D03*
X45551Y-29547D03*
X47322Y-29488D03*
X45354Y-30866D03*
X44940Y-32204D03*
X43661Y-27480D03*
X35669Y-49783D03*
X37342Y-34488D03*
X43248Y-35846D03*
X40492Y-28503D03*
X45748Y-27480D03*
X48405Y-31397D03*
X50708Y-38720D03*
X52244Y-37696D03*
X35511Y-34704D03*
X38897Y-32952D03*
X38346Y-36358D03*
X44547Y-41476D03*
X42204Y-41574D03*
X48562Y-41515D03*
X47283Y-42381D03*
X47047Y-42578D03*
X45275Y-44074D03*
X39881Y-41397D03*
X40925Y-41437D03*
X50236Y-44468D03*
X50688Y-26496D03*
X41003Y-44744D03*
X41633Y-43681D03*
X39232Y-47381D03*
X44625Y-43503D03*
X43720Y-43622D03*
X40452Y-47224D03*
X44842Y-46259D03*
X44724Y-47007D03*
X45944Y-47893D03*
X46377Y-43405D03*
X47854Y-45531D03*
X50275Y-47440D03*
X50177Y-42185D03*
X49133Y-47933D03*
X49429Y-33897D03*
X43582Y-22460D03*
X46023Y-30216D03*
X42421Y-24074D03*
X38897Y-26377D03*
X39862Y-55354D03*
X37480Y-55059D03*
X37421Y-53779D03*
X39665Y-49901D03*
X39114Y-51358D03*
X35944Y-50236D03*
X35748Y-49173D03*
X36850Y-39960D03*
X37027Y-45846D03*
X44763Y-45236D03*
X49271Y-44429D03*
X41496Y-48307D03*
X41259Y-46240D03*
X45905Y-44822D03*
X47440Y-43149D03*
X49192Y-44862D03*
X53326Y-34114D03*
X47736Y-33700D03*
X47893Y-34527D03*
X48051Y-33681D03*
X49645Y-25944D03*
X35196Y-35000D03*
X35236Y-36377D03*
X43720Y-23799D03*
X45925Y-22893D03*
X51397Y-32440D03*
X49685Y-33641D03*
X37972Y-34901D03*
X47047Y-33484D03*
X42303Y-41161D03*
X43641Y-39330D03*
X51535Y-34153D03*
X48248Y-33248D03*
X48937Y-28129D03*
X48248Y-32559D03*
X50688Y-27066D03*
X48228Y-32913D03*
X48818Y-25590D03*
X47952Y-28917D03*
X50177Y-25905D03*
X47677Y-32066D03*
X43031Y-45925D03*
X40039Y-43818D03*
X39803Y-44822D03*
X45098Y-42913D03*
X40748Y-46555D03*
X43129Y-46240D03*
X47293Y-45442D03*
X45728Y-47204D03*
X42007Y-24527D03*
X36161Y-32893D03*
X35629Y-39940D03*
X36515Y-40413D03*
X36712Y-41259D03*
X38484Y-42362D03*
X39468Y-47677D03*
X39822Y-47106D03*
X43051Y-33602D03*
X45314Y-32460D03*
X45492Y-32992D03*
X43405Y-33582D03*
X39547Y-43976D03*
X45688Y-52303D03*
X41220Y-36751D03*
X45925Y-52559D03*
X41023Y-36515D03*
X38346Y-28070D03*
X38661Y-28070D03*
X38976Y-28110D03*
X42362Y-30078D03*
X45314Y-22322D03*
X50314Y-23877D03*
X44212Y-29114D03*
X50314Y-24173D03*
X44586Y-29133D03*
X40275Y-31692D03*
X40157Y-30649D03*
X37125Y-33090D03*
X35984Y-29094D03*
X39665Y-28031D03*
X41633Y-25629D03*
X40433Y-27716D03*
X41594Y-25019D03*
X36515Y-36496D03*
X45374Y-27303D03*
X39783Y-47716D03*
X38799Y-42381D03*
X36909Y-41023D03*
X36515Y-40000D03*
X35196Y-39704D03*
X35452Y-35767D03*
X36240Y-47716D03*
X43956Y-27539D03*
X35374Y-52224D03*
X41712Y-23897D03*
X42992Y-23877D03*
X34921Y-37814D03*
X36141Y-34685D03*
X41594Y-25334D03*
X39527Y-24429D03*
X44035Y-39350D03*
X43759Y-40688D03*
X40511Y-28838D03*
X40216Y-25196D03*
X42933Y-29724D03*
X45314Y-29212D03*
X42677Y-29940D03*
X45728Y-30157D03*
X40196Y-24881D03*
X40295Y-29055D03*
X39685Y-28385D03*
X41338Y-25748D03*
X40787Y-27736D03*
X40452Y-30374D03*
X40590Y-31791D03*
X47303Y-33169D03*
X50177Y-30472D03*
X50964Y-30452D03*
X47027Y-33051D03*
X50196Y-30137D03*
X50944Y-30098D03*
X40492Y-48779D03*
X49114Y-45334D03*
X47933Y-44547D03*
X41929Y-43582D03*
X41200Y-44271D03*
X42519Y-45275D03*
X43031Y-44724D03*
X44153Y-43169D03*
X50255Y-46653D03*
X49429Y-47637D03*
X45850Y-47500D03*
X38681Y-54645D03*
X40472Y-47854D03*
X44803Y-44921D03*
X40354Y-45393D03*
X41100Y-46500D03*
X41279Y-45649D03*
X45964Y-43602D03*
X45950Y-46900D03*
X48850Y-43650D03*
X46673Y-43740D03*
X47900Y-39550D03*
X44800Y-39550D03*
X45900Y-39550D03*
X48300Y-37950D03*
X48250Y-36550D03*
X37463Y-54570D03*
X39163Y-52770D03*
X34862Y-53070D03*
X36751Y-52775D03*
X41594Y-29173D03*
X41141Y-27500D03*
X43149Y-29488D03*
X45314Y-28818D03*
X49665Y-33287D03*
X51456Y-32106D03*
X38582Y-23503D03*
X43720Y-24114D03*
X45826Y-25059D03*
G54D19*
X37007Y-34842D02*
X37027Y-34842D01*
X44271Y-41948D02*
X44291Y-41948D01*
X47400Y-40700D02*
X47401Y-40698D01*
G54D10*
X47400Y-40700D02*
X46662Y-41437D01*
X46662Y-41437D02*
X45609Y-41437D01*
G54D19*
X45492Y-41437D02*
X45609Y-41437D01*
X45237Y-41692D02*
X45492Y-41437D01*
X44547Y-41692D02*
X45237Y-41692D01*
X44291Y-41948D02*
X44547Y-41692D01*
X44271Y-41948D02*
X44271Y-41919D01*
X44645Y-41909D02*
X45187Y-41909D01*
X47642Y-40807D02*
X46885Y-41564D01*
X45532Y-41564D02*
X46885Y-41564D01*
X45187Y-41909D02*
X45532Y-41564D01*
X45137Y-42293D02*
X45629Y-41801D01*
X46220Y-41801D02*
X46982Y-41801D01*
X46982Y-41801D02*
X47622Y-41161D01*
X47622Y-41161D02*
X47874Y-41161D01*
X48300Y-40735D02*
X47874Y-41161D01*
X45137Y-42618D02*
X45137Y-42293D01*
X45629Y-41801D02*
X46220Y-41801D01*
G54D10*
X48300Y-40200D02*
X48300Y-40735D01*
X48300Y-40735D02*
X48300Y-40750D01*
G54D19*
X44783Y-42185D02*
X44852Y-42116D01*
X45580Y-41683D02*
X45728Y-41683D01*
X45147Y-42116D02*
X45580Y-41683D01*
X44852Y-42116D02*
X45147Y-42116D01*
X47928Y-40940D02*
X47992Y-40876D01*
X47992Y-40876D02*
X47992Y-40748D01*
X47844Y-41023D02*
X47593Y-41023D01*
X46933Y-41683D02*
X47593Y-41023D01*
X45728Y-41683D02*
X46933Y-41683D01*
X47928Y-40940D02*
X47844Y-41023D01*
X47933Y-40935D02*
X47928Y-40940D01*
X45748Y-41683D02*
X45728Y-41683D01*
X43346Y-41732D02*
X43346Y-41909D01*
X45511Y-39527D02*
X45511Y-39566D01*
X45511Y-39566D02*
X43346Y-41732D01*
X43346Y-41909D02*
X43287Y-41968D01*
X44099Y-41155D02*
X45329Y-39926D01*
X43602Y-41653D02*
X44099Y-41155D01*
X43602Y-41968D02*
X43602Y-41653D01*
X45329Y-39926D02*
X45900Y-39926D01*
X46122Y-39704D02*
X45900Y-39926D01*
X46122Y-39606D02*
X46122Y-39704D01*
X46122Y-38976D02*
X46122Y-39606D01*
X43602Y-41968D02*
X43543Y-41968D01*
X45900Y-39926D02*
X45900Y-39926D01*
X43937Y-41948D02*
X43937Y-41485D01*
X45826Y-40669D02*
X45944Y-40787D01*
X44753Y-40669D02*
X45826Y-40669D01*
X43937Y-41485D02*
X44753Y-40669D01*
X43937Y-41948D02*
X43938Y-41948D01*
X48366Y-50177D02*
X44409Y-50177D01*
X44704Y-47854D02*
X44704Y-47766D01*
X45845Y-46456D02*
X45550Y-46751D01*
X48641Y-46456D02*
X45845Y-46456D01*
X48700Y-46515D02*
X48641Y-46456D01*
X48700Y-46623D02*
X48700Y-46515D01*
X49065Y-46988D02*
X48700Y-46623D01*
X49154Y-46988D02*
X49065Y-46988D01*
X49429Y-47263D02*
X49154Y-46988D01*
X49518Y-47263D02*
X49429Y-47263D01*
X49577Y-47322D02*
X49518Y-47263D01*
X49665Y-47322D02*
X49577Y-47322D01*
X50255Y-47913D02*
X49665Y-47322D01*
X50482Y-47913D02*
X50255Y-47913D01*
X51058Y-47337D02*
X50482Y-47913D01*
X44704Y-47854D02*
X44507Y-47854D01*
X45492Y-46810D02*
X45550Y-46751D01*
X45492Y-46978D02*
X45492Y-46810D01*
X44704Y-47766D02*
X45492Y-46978D01*
X51058Y-47337D02*
X51058Y-47259D01*
X51058Y-47259D02*
X50964Y-47165D01*
X51068Y-47327D02*
X51058Y-47337D01*
X44507Y-46181D02*
X44625Y-46181D01*
X44625Y-46181D02*
X44625Y-46181D01*
X44822Y-45984D02*
X44625Y-46181D01*
X44429Y-46259D02*
X44507Y-46181D01*
X49271Y-46397D02*
X49212Y-46338D01*
X49212Y-46338D02*
X49212Y-46161D01*
X49212Y-46161D02*
X49035Y-45984D01*
X49035Y-45984D02*
X44822Y-45984D01*
X44822Y-45984D02*
X44822Y-45984D01*
X44645Y-48582D02*
X48464Y-48582D01*
X45403Y-46545D02*
X45728Y-46220D01*
X49389Y-46889D02*
X49685Y-46889D01*
X48937Y-46279D02*
X48877Y-46220D01*
X48937Y-46525D02*
X48937Y-46279D01*
X49163Y-46751D02*
X48937Y-46525D01*
X49251Y-46751D02*
X49163Y-46751D01*
X49389Y-46889D02*
X49251Y-46751D01*
X50551Y-46023D02*
X50551Y-45866D01*
X49685Y-46889D02*
X50551Y-46023D01*
X45728Y-46220D02*
X48877Y-46220D01*
X44409Y-46948D02*
X44468Y-46948D01*
X45157Y-46791D02*
X45403Y-46545D01*
X45403Y-46545D02*
X45413Y-46535D01*
X44625Y-46791D02*
X45157Y-46791D01*
X44468Y-46948D02*
X44625Y-46791D01*
X45039Y-51062D02*
X48818Y-51062D01*
X44409Y-48799D02*
X48248Y-48799D01*
X44744Y-50610D02*
X48582Y-50610D01*
X48799Y-50393D02*
X45039Y-50393D01*
X44566Y-47421D02*
X44645Y-47421D01*
X45501Y-46633D02*
X45796Y-46338D01*
X45796Y-46338D02*
X48799Y-46338D01*
X48818Y-46358D02*
X48799Y-46338D01*
X48818Y-46574D02*
X48818Y-46358D01*
X49114Y-46870D02*
X48818Y-46574D01*
X49203Y-46870D02*
X49114Y-46870D01*
X49203Y-46870D02*
X49473Y-47140D01*
X45374Y-46761D02*
X45501Y-46633D01*
X45374Y-46929D02*
X45374Y-46761D01*
X44803Y-47500D02*
X45374Y-46929D01*
X44724Y-47500D02*
X44803Y-47500D01*
X44645Y-47421D02*
X44724Y-47500D01*
X44566Y-47421D02*
X44586Y-47421D01*
X49473Y-47140D02*
X49650Y-47140D01*
X50610Y-47618D02*
X50610Y-47362D01*
X50433Y-47795D02*
X50610Y-47618D01*
X50304Y-47795D02*
X50433Y-47795D01*
X49650Y-47140D02*
X50304Y-47795D01*
X49478Y-47145D02*
X49473Y-47140D01*
X48346Y-50826D02*
X44448Y-50826D01*
X45334Y-47637D02*
X45334Y-47303D01*
X45629Y-47007D02*
X45629Y-46859D01*
X45334Y-47303D02*
X45629Y-47007D01*
X44901Y-48070D02*
X45334Y-47637D01*
X45334Y-47637D02*
X45334Y-47637D01*
X49783Y-47637D02*
X49783Y-47775D01*
X45914Y-46574D02*
X45629Y-46859D01*
X48562Y-46574D02*
X45914Y-46574D01*
X48582Y-46594D02*
X48562Y-46574D01*
X48582Y-46672D02*
X48582Y-46594D01*
X49016Y-47106D02*
X48582Y-46672D01*
X49105Y-47106D02*
X49016Y-47106D01*
X49390Y-47392D02*
X49105Y-47106D01*
X49478Y-47392D02*
X49390Y-47392D01*
X49527Y-47440D02*
X49478Y-47392D01*
X49586Y-47440D02*
X49527Y-47440D01*
X49783Y-47637D02*
X49586Y-47440D01*
X51023Y-47559D02*
X51023Y-47696D01*
X50649Y-48070D02*
X51023Y-47696D01*
X50078Y-48070D02*
X50649Y-48070D01*
X49783Y-47775D02*
X50078Y-48070D01*
X45629Y-46859D02*
X45619Y-46870D01*
X51318Y-47263D02*
X51318Y-46968D01*
X51023Y-47559D02*
X51023Y-47559D01*
X51023Y-47559D02*
X51318Y-47263D01*
X48897Y-51771D02*
X45078Y-51771D01*
X44901Y-48366D02*
X48700Y-48366D01*
X48622Y-51299D02*
X44803Y-51299D01*
X48622Y-51299D02*
X48602Y-51318D01*
X48562Y-49940D02*
X44685Y-49940D01*
X50334Y-46073D02*
X50334Y-45610D01*
X49773Y-46633D02*
X50334Y-46073D01*
X49773Y-46633D02*
X49409Y-46633D01*
X44822Y-46574D02*
X45206Y-46574D01*
X45206Y-46574D02*
X45679Y-46102D01*
X45679Y-46102D02*
X48956Y-46102D01*
X49055Y-46200D02*
X48956Y-46102D01*
X49055Y-46476D02*
X49055Y-46200D01*
X49212Y-46633D02*
X49055Y-46476D01*
X49409Y-46633D02*
X49212Y-46633D01*
X49429Y-46633D02*
X49409Y-46633D01*
X44980Y-49724D02*
X48799Y-49724D01*
X48503Y-49251D02*
X44665Y-49251D01*
X46751Y-45000D02*
X46909Y-44842D01*
X46909Y-44842D02*
X47775Y-44842D01*
X46751Y-45000D02*
X46122Y-45629D01*
X46122Y-45629D02*
X43464Y-45629D01*
X43464Y-45629D02*
X42874Y-45039D01*
X44645Y-45866D02*
X44547Y-45964D01*
X49251Y-45866D02*
X44645Y-45866D01*
X49271Y-45885D02*
X49251Y-45866D01*
X47598Y-45137D02*
X47598Y-45098D01*
X43267Y-45748D02*
X42913Y-45393D01*
X46170Y-45748D02*
X43267Y-45748D01*
X46958Y-44960D02*
X46170Y-45748D01*
X47460Y-44960D02*
X46958Y-44960D01*
X47598Y-45098D02*
X47460Y-44960D01*
X53011Y-44881D02*
X53622Y-44881D01*
X50078Y-45098D02*
X50295Y-44881D01*
X50295Y-44881D02*
X53011Y-44881D01*
X46589Y-44985D02*
X46062Y-45511D01*
X45905Y-45511D02*
X45807Y-45413D01*
X47244Y-44330D02*
X46589Y-44985D01*
X48149Y-44330D02*
X47244Y-44330D01*
X48307Y-44488D02*
X48149Y-44330D01*
X48307Y-45078D02*
X48307Y-44488D01*
X48326Y-45098D02*
X48307Y-45078D01*
X46062Y-45511D02*
X45905Y-45511D01*
X48326Y-45098D02*
X50078Y-45098D01*
X53622Y-44881D02*
X54133Y-44370D01*
X45807Y-45413D02*
X45708Y-45511D01*
X45511Y-45511D02*
X43513Y-45511D01*
X43513Y-45511D02*
X43307Y-45305D01*
X43307Y-45305D02*
X43307Y-44685D01*
X43307Y-44685D02*
X43110Y-44488D01*
X43110Y-44488D02*
X42874Y-44488D01*
X42874Y-44488D02*
X41417Y-45944D01*
X41417Y-45944D02*
X41259Y-45944D01*
X45708Y-45511D02*
X45511Y-45511D01*
X45807Y-45413D02*
X45807Y-45492D01*
X48740Y-49035D02*
X44921Y-49035D01*
X48425Y-51535D02*
X44566Y-51535D01*
X48287Y-49507D02*
X44448Y-49507D01*
X39468Y-35846D02*
X41358Y-35846D01*
X38641Y-36673D02*
X39468Y-35846D01*
X46791Y-34074D02*
X46791Y-34724D01*
X46082Y-33366D02*
X46791Y-34074D01*
X42952Y-33366D02*
X46082Y-33366D01*
X42362Y-33956D02*
X42952Y-33366D01*
X42362Y-34192D02*
X42362Y-33956D01*
X41692Y-34862D02*
X42362Y-34192D01*
X46791Y-34724D02*
X46929Y-34862D01*
X46929Y-34862D02*
X47657Y-34862D01*
X47263Y-29547D02*
X45551Y-29547D01*
X47322Y-29488D02*
X47263Y-29547D01*
X45354Y-30866D02*
X44940Y-31279D01*
X44940Y-31279D02*
X44940Y-32204D01*
X35669Y-49783D02*
X39094Y-49783D01*
X47736Y-53405D02*
X48982Y-54651D01*
X43248Y-53405D02*
X47736Y-53405D01*
X40452Y-50610D02*
X43248Y-53405D01*
X39921Y-50610D02*
X40452Y-50610D01*
X39094Y-49783D02*
X39921Y-50610D01*
X35905Y-35236D02*
X35905Y-47303D01*
X43661Y-27480D02*
X35905Y-35236D01*
X35492Y-49783D02*
X35669Y-49783D01*
X35354Y-49645D02*
X35492Y-49783D01*
X35354Y-48937D02*
X35354Y-49645D01*
X35669Y-48622D02*
X35354Y-48937D01*
X35669Y-47539D02*
X35669Y-48622D01*
X35905Y-47303D02*
X35669Y-47539D01*
X53576Y-21915D02*
X53576Y-21903D01*
X52125Y-23366D02*
X53576Y-21915D01*
X52125Y-24566D02*
X52125Y-23366D01*
X52423Y-24864D02*
X52125Y-24566D01*
X52952Y-34488D02*
X53326Y-34114D01*
X48839Y-34488D02*
X52952Y-34488D01*
X48258Y-33907D02*
X48839Y-34488D01*
X47942Y-33907D02*
X48258Y-33907D01*
X47736Y-33700D02*
X47942Y-33907D01*
X53543Y-32968D02*
X53438Y-32864D01*
X53543Y-34192D02*
X53543Y-32968D01*
X53129Y-34606D02*
X53543Y-34192D01*
X47972Y-34606D02*
X53129Y-34606D01*
X47893Y-34527D02*
X47972Y-34606D01*
X53438Y-32368D02*
X53438Y-31864D01*
X53090Y-32716D02*
X53438Y-32368D01*
X53090Y-33011D02*
X53090Y-32716D01*
X53405Y-33326D02*
X53090Y-33011D01*
X53405Y-33681D02*
X53405Y-33326D01*
X52716Y-34370D02*
X53405Y-33681D01*
X48888Y-34370D02*
X52716Y-34370D01*
X48199Y-33681D02*
X48888Y-34370D01*
X48051Y-33681D02*
X48199Y-33681D01*
X50576Y-21903D02*
X50576Y-25013D01*
X50576Y-25013D02*
X49645Y-25944D01*
X35196Y-36338D02*
X35196Y-35000D01*
X35236Y-36377D02*
X35196Y-36338D01*
X45019Y-23799D02*
X43720Y-23799D01*
X45925Y-22893D02*
X45019Y-23799D01*
X50885Y-32440D02*
X51397Y-32440D01*
X49685Y-33641D02*
X50885Y-32440D01*
X47047Y-33484D02*
X46496Y-33484D01*
X46496Y-33484D02*
X46240Y-33228D01*
X46240Y-33228D02*
X42874Y-33228D01*
X42874Y-33228D02*
X42165Y-33937D01*
X42165Y-33937D02*
X42165Y-34192D01*
X42165Y-34192D02*
X41732Y-34625D01*
X41732Y-34625D02*
X38248Y-34625D01*
X38248Y-34625D02*
X37972Y-34901D01*
X42303Y-40669D02*
X42303Y-41161D01*
X43641Y-39330D02*
X42303Y-40669D01*
X48838Y-34153D02*
X51535Y-34153D01*
X48248Y-33562D02*
X48838Y-34153D01*
X48248Y-33248D02*
X48248Y-33562D01*
X50413Y-29606D02*
X48937Y-28129D01*
X50413Y-30531D02*
X50413Y-29606D01*
X48385Y-32559D02*
X50413Y-30531D01*
X48248Y-32559D02*
X48385Y-32559D01*
X50688Y-30511D02*
X50688Y-27066D01*
X48228Y-32913D02*
X50688Y-30511D01*
X48129Y-26279D02*
X48818Y-25590D01*
X48129Y-28740D02*
X48129Y-26279D01*
X47952Y-28917D02*
X48129Y-28740D01*
X48464Y-29015D02*
X48287Y-29015D01*
X50177Y-25905D02*
X48464Y-27618D01*
X48464Y-27618D02*
X48464Y-29015D01*
X47677Y-29625D02*
X47677Y-32066D01*
X48287Y-29015D02*
X47677Y-29625D01*
X40118Y-44232D02*
X40039Y-44153D01*
X43110Y-45925D02*
X43346Y-46161D01*
X43346Y-46161D02*
X43346Y-46338D01*
X43346Y-46338D02*
X43208Y-46476D01*
X43208Y-46476D02*
X41948Y-46476D01*
X41948Y-46476D02*
X41594Y-46830D01*
X41594Y-46830D02*
X41594Y-47047D01*
X41594Y-47047D02*
X41397Y-47244D01*
X41397Y-47244D02*
X41102Y-47244D01*
X41102Y-47244D02*
X40118Y-46259D01*
X40118Y-46259D02*
X40118Y-44232D01*
X43031Y-45925D02*
X43110Y-45925D01*
X40039Y-44153D02*
X40039Y-43818D01*
X44862Y-43287D02*
X44862Y-42952D01*
X39980Y-43602D02*
X39940Y-43602D01*
X39940Y-43602D02*
X39803Y-43740D01*
X39803Y-43740D02*
X39803Y-44822D01*
X40295Y-43287D02*
X40098Y-43484D01*
X41122Y-43287D02*
X40295Y-43287D01*
X41299Y-43464D02*
X41122Y-43287D01*
X41732Y-43464D02*
X41299Y-43464D01*
X41830Y-43366D02*
X41732Y-43464D01*
X42047Y-43366D02*
X41830Y-43366D01*
X42066Y-43385D02*
X42047Y-43366D01*
X44311Y-43385D02*
X42066Y-43385D01*
X44409Y-43287D02*
X44311Y-43385D01*
X44862Y-43287D02*
X44409Y-43287D01*
X40098Y-43484D02*
X39980Y-43602D01*
X44862Y-42952D02*
X45098Y-42913D01*
X41988Y-46240D02*
X41338Y-46889D01*
X41338Y-46889D02*
X41338Y-47027D01*
X41338Y-47027D02*
X41279Y-47086D01*
X41279Y-47086D02*
X40748Y-46555D01*
X43129Y-46240D02*
X41988Y-46240D01*
X50590Y-45098D02*
X51535Y-46043D01*
X49901Y-45452D02*
X50255Y-45098D01*
X50255Y-45098D02*
X50590Y-45098D01*
X49822Y-45452D02*
X49409Y-45452D01*
X49114Y-45748D02*
X49409Y-45452D01*
X47598Y-45748D02*
X49114Y-45748D01*
X47293Y-45442D02*
X47598Y-45748D01*
X49822Y-45452D02*
X49901Y-45452D01*
X45629Y-47303D02*
X45728Y-47204D01*
X45629Y-47913D02*
X45629Y-47303D01*
X45846Y-48129D02*
X45629Y-47913D01*
X48779Y-48129D02*
X45846Y-48129D01*
X48838Y-48188D02*
X48779Y-48129D01*
X49212Y-48188D02*
X48838Y-48188D01*
X49350Y-48051D02*
X49212Y-48188D01*
X49350Y-47893D02*
X49350Y-48051D01*
X49370Y-47874D02*
X49350Y-47893D01*
X49704Y-47874D02*
X49370Y-47874D01*
X50039Y-48208D02*
X49704Y-47874D01*
X50708Y-48208D02*
X50039Y-48208D01*
X51535Y-47381D02*
X50708Y-48208D01*
X51535Y-46043D02*
X51535Y-47381D01*
X36653Y-33385D02*
X36161Y-32893D01*
X37125Y-33385D02*
X36653Y-33385D01*
X39192Y-31319D02*
X37125Y-33385D01*
X39192Y-27873D02*
X39192Y-31319D01*
X39173Y-27854D02*
X39192Y-27873D01*
X39173Y-24133D02*
X39173Y-27854D01*
X39685Y-23622D02*
X39173Y-24133D01*
X41102Y-23622D02*
X39685Y-23622D01*
X42007Y-24527D02*
X41102Y-23622D01*
X35925Y-33129D02*
X36161Y-32893D01*
X35925Y-34822D02*
X35925Y-33129D01*
X35748Y-35000D02*
X35925Y-34822D01*
X35748Y-39822D02*
X35748Y-35000D01*
X35629Y-39940D02*
X35748Y-39822D01*
X36515Y-41062D02*
X36515Y-40413D01*
X36712Y-41259D02*
X36515Y-41062D01*
X38307Y-42539D02*
X38484Y-42362D01*
X38307Y-46122D02*
X38307Y-42539D01*
X39468Y-47283D02*
X38307Y-46122D01*
X39468Y-47677D02*
X39468Y-47283D01*
X39822Y-47106D02*
X38582Y-45866D01*
X38582Y-45866D02*
X38582Y-43051D01*
X38582Y-43051D02*
X42125Y-39507D01*
X42125Y-39507D02*
X42125Y-34625D01*
X42125Y-34625D02*
X42657Y-34094D01*
X42657Y-34094D02*
X42657Y-33937D01*
X42657Y-33937D02*
X42992Y-33602D01*
X42992Y-33602D02*
X43051Y-33602D01*
X45314Y-32814D02*
X45314Y-32460D01*
X45492Y-32992D02*
X45314Y-32814D01*
X43366Y-33582D02*
X43405Y-33582D01*
X43129Y-33818D02*
X43366Y-33582D01*
X42942Y-33818D02*
X43129Y-33818D01*
X42775Y-33985D02*
X42942Y-33818D01*
X42775Y-34143D02*
X42775Y-33985D01*
X42244Y-34674D02*
X42775Y-34143D01*
X42244Y-39586D02*
X42244Y-34674D01*
X39625Y-42204D02*
X42244Y-39586D01*
X39625Y-43897D02*
X39625Y-42204D01*
X39547Y-43976D02*
X39625Y-43897D01*
X45551Y-52440D02*
X45688Y-52303D01*
X43887Y-52440D02*
X45551Y-52440D01*
X40807Y-49360D02*
X43887Y-52440D01*
X40807Y-48740D02*
X40807Y-49360D01*
X40590Y-48523D02*
X40807Y-48740D01*
X39970Y-48523D02*
X40590Y-48523D01*
X38169Y-46722D02*
X39970Y-48523D01*
X38169Y-39399D02*
X38169Y-46722D01*
X40816Y-36751D02*
X38169Y-39399D01*
X41220Y-36751D02*
X40816Y-36751D01*
X43838Y-52559D02*
X45925Y-52559D01*
X38051Y-46771D02*
X43838Y-52559D01*
X38051Y-39350D02*
X38051Y-46771D01*
X40433Y-36968D02*
X38051Y-39350D01*
X40433Y-36515D02*
X40433Y-36968D01*
X41023Y-36515D02*
X40433Y-36515D01*
X43045Y-21147D02*
X43045Y-20458D01*
X42618Y-21574D02*
X43045Y-21147D01*
X38562Y-21574D02*
X42618Y-21574D01*
X38011Y-22125D02*
X38562Y-21574D01*
X38011Y-27736D02*
X38011Y-22125D01*
X38346Y-28070D02*
X38011Y-27736D01*
X43401Y-20958D02*
X43545Y-20958D01*
X42667Y-21692D02*
X43401Y-20958D01*
X38611Y-21692D02*
X42667Y-21692D01*
X38129Y-22174D02*
X38611Y-21692D01*
X38129Y-27539D02*
X38129Y-22174D01*
X38661Y-28070D02*
X38129Y-27539D01*
X43425Y-21850D02*
X43503Y-21850D01*
X45143Y-20458D02*
X44045Y-20458D01*
X45511Y-20826D02*
X45143Y-20458D01*
X45511Y-21456D02*
X45511Y-20826D01*
X45177Y-21791D02*
X45511Y-21456D01*
X45177Y-22086D02*
X45177Y-21791D01*
X44901Y-22362D02*
X45177Y-22086D01*
X44015Y-22362D02*
X44901Y-22362D01*
X43503Y-21850D02*
X44015Y-22362D01*
X38621Y-21850D02*
X43425Y-21850D01*
X43425Y-21850D02*
X43425Y-21850D01*
X38248Y-22223D02*
X38621Y-21850D01*
X38248Y-27303D02*
X38248Y-22223D01*
X38877Y-27933D02*
X38248Y-27303D01*
X38877Y-28011D02*
X38877Y-27933D01*
X38976Y-28110D02*
X38877Y-28011D01*
X42451Y-29852D02*
X42451Y-29989D01*
X42451Y-29852D02*
X44153Y-28149D01*
X44153Y-28149D02*
X45413Y-28149D01*
X45413Y-28149D02*
X46417Y-27145D01*
X46417Y-27145D02*
X46417Y-22696D01*
X46417Y-22696D02*
X46043Y-22322D01*
X46043Y-22322D02*
X45314Y-22322D01*
X42451Y-29989D02*
X42362Y-30078D01*
X49852Y-23877D02*
X50314Y-23877D01*
X45462Y-28267D02*
X49852Y-23877D01*
X45059Y-28267D02*
X45462Y-28267D01*
X44212Y-29114D02*
X45059Y-28267D01*
X49723Y-24173D02*
X50314Y-24173D01*
X45511Y-28385D02*
X49723Y-24173D01*
X45107Y-28385D02*
X45511Y-28385D01*
X44586Y-28907D02*
X45107Y-28385D01*
X44586Y-29133D02*
X44586Y-28907D01*
X40275Y-31692D02*
X40236Y-31712D01*
X40236Y-31712D02*
X40255Y-31909D01*
X40255Y-31909D02*
X37283Y-34881D01*
X37283Y-34881D02*
X37283Y-46929D01*
X37283Y-46929D02*
X43562Y-53208D01*
X43562Y-53208D02*
X49972Y-53208D01*
X50982Y-54651D02*
X49972Y-53208D01*
X40039Y-30649D02*
X39468Y-30078D01*
X40157Y-30649D02*
X40039Y-30649D01*
X35588Y-26356D02*
X34769Y-26356D01*
X35905Y-26673D02*
X35588Y-26356D01*
X35905Y-28877D02*
X35905Y-26673D01*
X35767Y-29015D02*
X35905Y-28877D01*
X35767Y-29192D02*
X35767Y-29015D01*
X35767Y-31712D02*
X35767Y-29192D01*
X37125Y-33070D02*
X35767Y-31712D01*
X37125Y-33090D02*
X37125Y-33070D01*
X35984Y-29094D02*
X36043Y-29035D01*
X36043Y-29035D02*
X36043Y-26259D01*
X36043Y-26259D02*
X35639Y-25856D01*
X35639Y-25856D02*
X35269Y-25856D01*
X39468Y-29419D02*
X39468Y-28228D01*
X39468Y-30078D02*
X39468Y-29419D01*
X41200Y-25531D02*
X41082Y-25649D01*
X41574Y-25629D02*
X41633Y-25629D01*
X41200Y-25531D02*
X41476Y-25531D01*
X41476Y-25531D02*
X41574Y-25629D01*
X40787Y-27362D02*
X40433Y-27716D01*
X40787Y-26102D02*
X40787Y-27362D01*
X40920Y-25969D02*
X40787Y-26102D01*
X40920Y-25949D02*
X40920Y-25969D01*
X41082Y-25787D02*
X40920Y-25949D01*
X41082Y-25649D02*
X41082Y-25787D01*
X39468Y-28228D02*
X39665Y-28031D01*
X45472Y-27893D02*
X45472Y-27401D01*
X38862Y-32613D02*
X36358Y-35117D01*
X36358Y-35117D02*
X36358Y-36338D01*
X36358Y-36338D02*
X36515Y-36496D01*
X39050Y-32613D02*
X40487Y-31176D01*
X45374Y-27303D02*
X45452Y-27381D01*
X45472Y-27893D02*
X45334Y-28031D01*
X45334Y-28031D02*
X44104Y-28031D01*
X44104Y-28031D02*
X41924Y-30211D01*
X41924Y-30211D02*
X41451Y-30211D01*
X41451Y-30211D02*
X40487Y-31176D01*
X39050Y-32613D02*
X38862Y-32613D01*
X45472Y-27401D02*
X45452Y-27381D01*
X39783Y-47716D02*
X39783Y-47431D01*
X39783Y-47431D02*
X39783Y-47381D01*
X39783Y-47381D02*
X38425Y-46023D01*
X38425Y-46023D02*
X38425Y-42755D01*
X38425Y-42755D02*
X38799Y-42381D01*
X36909Y-41023D02*
X36791Y-40905D01*
X36791Y-40905D02*
X36791Y-40275D01*
X36791Y-40275D02*
X36515Y-40000D01*
X35196Y-39704D02*
X35610Y-39291D01*
X35610Y-39291D02*
X35610Y-35925D01*
X35610Y-35925D02*
X35452Y-35767D01*
X43956Y-27539D02*
X43897Y-27539D01*
X36240Y-35255D02*
X36240Y-47716D01*
X36240Y-35068D02*
X36240Y-35255D01*
X43548Y-27760D02*
X36240Y-35068D01*
X43676Y-27760D02*
X43548Y-27760D01*
X43897Y-27539D02*
X43676Y-27760D01*
X47011Y-53681D02*
X47982Y-54651D01*
X42559Y-53681D02*
X47011Y-53681D01*
X42125Y-53248D02*
X42559Y-53681D01*
X36397Y-53248D02*
X42125Y-53248D01*
X35374Y-52224D02*
X36397Y-53248D01*
X43011Y-23858D02*
X41712Y-23858D01*
X42992Y-23877D02*
X43011Y-23858D01*
X39527Y-24429D02*
X39527Y-24527D01*
X48482Y-54427D02*
X48482Y-55151D01*
X48248Y-54192D02*
X48482Y-54427D01*
X47690Y-54192D02*
X48248Y-54192D01*
X47060Y-53562D02*
X47690Y-54192D01*
X42607Y-53562D02*
X47060Y-53562D01*
X42174Y-53129D02*
X42607Y-53562D01*
X38425Y-53129D02*
X42174Y-53129D01*
X35688Y-50393D02*
X38425Y-53129D01*
X35688Y-50236D02*
X35688Y-50393D01*
X35236Y-49783D02*
X35688Y-50236D01*
X35236Y-47775D02*
X35236Y-49783D01*
X35708Y-47303D02*
X35236Y-47775D01*
X35708Y-40669D02*
X35708Y-47303D01*
X34940Y-39901D02*
X35708Y-40669D01*
X34940Y-37834D02*
X34940Y-39901D01*
X34921Y-37814D02*
X34940Y-37834D01*
X36279Y-34685D02*
X36141Y-34685D01*
X39310Y-31654D02*
X36279Y-34685D01*
X39310Y-27695D02*
X39310Y-31654D01*
X39291Y-27677D02*
X39310Y-27695D01*
X39291Y-24763D02*
X39291Y-27677D01*
X39527Y-24527D02*
X39291Y-24763D01*
X41594Y-25334D02*
X41122Y-25334D01*
X40216Y-24429D02*
X39527Y-24429D01*
X41122Y-25334D02*
X40216Y-24429D01*
G54D10*
X43850Y-40492D02*
X43850Y-39547D01*
G54D19*
X44035Y-39362D02*
X43850Y-39547D01*
X44035Y-39350D02*
X44035Y-39362D01*
X43850Y-40492D02*
X43850Y-40598D01*
X43850Y-40598D02*
X43759Y-40688D01*
G54D10*
X43850Y-40492D02*
X43850Y-40500D01*
G54D19*
X40039Y-28464D02*
X40413Y-28838D01*
X40039Y-25374D02*
X40039Y-28464D01*
X40216Y-25196D02*
X40039Y-25374D01*
X43677Y-30196D02*
X43204Y-29724D01*
X43204Y-29724D02*
X42933Y-29724D01*
X44606Y-30196D02*
X45314Y-29488D01*
X45314Y-29488D02*
X45314Y-29212D01*
X44606Y-30196D02*
X43677Y-30196D01*
X40413Y-28838D02*
X40511Y-28838D01*
X44727Y-30273D02*
X44843Y-30157D01*
X45728Y-30157D02*
X44843Y-30157D01*
X42713Y-29977D02*
X42677Y-29940D01*
X43290Y-29977D02*
X42713Y-29977D01*
X43628Y-30314D02*
X43290Y-29977D01*
X44685Y-30314D02*
X43628Y-30314D01*
X44727Y-30273D02*
X44685Y-30314D01*
X39901Y-28385D02*
X39901Y-28493D01*
X40196Y-24881D02*
X39901Y-25177D01*
X39901Y-25177D02*
X39901Y-28385D01*
X40295Y-28887D02*
X40295Y-29055D01*
X39901Y-28493D02*
X40295Y-28887D01*
X51653Y-53208D02*
X51653Y-53267D01*
X51653Y-53011D02*
X51653Y-53208D01*
X51889Y-53503D02*
X52637Y-53503D01*
X52637Y-53503D02*
X52736Y-53602D01*
X52736Y-53602D02*
X52736Y-54405D01*
X52982Y-54651D02*
X52736Y-54405D01*
X51653Y-53011D02*
X51515Y-52874D01*
X51653Y-53267D02*
X51889Y-53503D01*
X39586Y-29468D02*
X39586Y-28484D01*
X40787Y-27736D02*
X40905Y-27618D01*
X40905Y-26181D02*
X41338Y-25748D01*
X40905Y-27618D02*
X40905Y-26181D01*
X39586Y-28484D02*
X39685Y-28385D01*
X39586Y-29468D02*
X39586Y-29468D01*
X39586Y-29468D02*
X39586Y-29685D01*
X39930Y-30374D02*
X39586Y-30029D01*
X39586Y-30029D02*
X39586Y-29685D01*
X39930Y-30374D02*
X40452Y-30374D01*
X40590Y-31791D02*
X37618Y-34763D01*
X37618Y-34763D02*
X37618Y-46535D01*
X37618Y-46535D02*
X43956Y-52874D01*
X43956Y-52874D02*
X51515Y-52874D01*
X51515Y-52874D02*
X51519Y-52874D01*
X40452Y-30354D02*
X40452Y-30374D01*
X53438Y-30864D02*
X52537Y-30864D01*
X47440Y-33031D02*
X47303Y-33169D01*
X47440Y-32952D02*
X47440Y-33031D01*
X48582Y-31811D02*
X47440Y-32952D01*
X48838Y-31811D02*
X48582Y-31811D01*
X50177Y-30472D02*
X48838Y-31811D01*
X51062Y-30551D02*
X50964Y-30452D01*
X52224Y-30551D02*
X51062Y-30551D01*
X52537Y-30864D02*
X52224Y-30551D01*
X52938Y-30364D02*
X51210Y-30364D01*
X47303Y-32775D02*
X47027Y-33051D01*
X47303Y-32755D02*
X47303Y-32775D01*
X48385Y-31673D02*
X47303Y-32755D01*
X48661Y-31673D02*
X48385Y-31673D01*
X50196Y-30137D02*
X48661Y-31673D01*
X51210Y-30364D02*
X50944Y-30098D01*
X53438Y-24864D02*
X52423Y-24864D01*
G54D20*
X41594Y-29173D02*
X41594Y-27952D01*
X41141Y-27500D02*
X41397Y-27755D01*
X41594Y-27952D02*
X41397Y-27755D01*
X43700Y-30039D02*
X43149Y-29488D01*
X44409Y-30039D02*
X45019Y-29429D01*
X45019Y-29429D02*
X45019Y-29114D01*
X45019Y-29114D02*
X45314Y-28818D01*
X50846Y-32106D02*
X49665Y-33287D01*
X50846Y-32106D02*
X51456Y-32106D01*
X44409Y-30039D02*
X43700Y-30039D01*
G54D21*
X43582Y-24114D02*
X43267Y-23799D01*
X43267Y-23799D02*
X43267Y-23582D01*
X43267Y-23582D02*
X41870Y-22185D01*
X41870Y-22185D02*
X39153Y-22185D01*
X39153Y-22185D02*
X38582Y-22755D01*
X38582Y-22755D02*
X38582Y-23503D01*
G54D20*
X43720Y-24114D02*
X43582Y-24114D01*
G54D21*
X44665Y-25059D02*
X43720Y-24114D01*
X45826Y-25059D02*
X44665Y-25059D01*
G54D10*
G36*
X42875Y-45679D02*
X42869Y-45682D01*
X42788Y-45762D01*
X42745Y-45868D01*
X42745Y-45981D01*
X42770Y-46042D01*
X41988Y-46042D01*
X41912Y-46057D01*
X41848Y-46100D01*
X41402Y-46546D01*
X41405Y-46489D01*
X41421Y-46482D01*
X41502Y-46402D01*
X41546Y-46297D01*
X41546Y-46183D01*
X41516Y-46111D01*
X41557Y-46084D01*
X42587Y-45053D01*
X42587Y-45096D01*
X42631Y-45201D01*
X42668Y-45238D01*
X42627Y-45336D01*
X42627Y-45450D01*
X42670Y-45555D01*
X42751Y-45636D01*
X42856Y-45679D01*
X42875Y-45679D01*
X42875Y-45679D01*
G37*
G54D22*
X42875Y-45679D02*
X42869Y-45682D01*
X42788Y-45762D01*
X42745Y-45868D01*
X42745Y-45981D01*
X42770Y-46042D01*
X41988Y-46042D01*
X41912Y-46057D01*
X41848Y-46100D01*
X41402Y-46546D01*
X41405Y-46489D01*
X41421Y-46482D01*
X41502Y-46402D01*
X41546Y-46297D01*
X41546Y-46183D01*
X41516Y-46111D01*
X41557Y-46084D01*
X42587Y-45053D01*
X42587Y-45096D01*
X42631Y-45201D01*
X42668Y-45238D01*
X42627Y-45336D01*
X42627Y-45450D01*
X42670Y-45555D01*
X42751Y-45636D01*
X42856Y-45679D01*
X42875Y-45679D01*
G54D10*
G36*
X43109Y-44870D02*
X43036Y-44796D01*
X42931Y-44753D01*
X42888Y-44753D01*
X42955Y-44685D01*
X43028Y-44685D01*
X43109Y-44766D01*
X43109Y-44870D01*
X43109Y-44870D01*
G37*
G54D22*
X43109Y-44870D02*
X43036Y-44796D01*
X42931Y-44753D01*
X42888Y-44753D01*
X42955Y-44685D01*
X43028Y-44685D01*
X43109Y-44766D01*
X43109Y-44870D01*
G54D10*
G36*
X44930Y-43869D02*
X44923Y-44992D01*
X44820Y-44950D01*
X44707Y-44949D01*
X44601Y-44993D01*
X44521Y-45073D01*
X44477Y-45179D01*
X44477Y-45292D01*
X44486Y-45314D01*
X43595Y-45314D01*
X43504Y-45223D01*
X43504Y-44685D01*
X43504Y-44685D01*
X43504Y-44685D01*
X43489Y-44609D01*
X43446Y-44545D01*
X43446Y-44545D01*
X43249Y-44348D01*
X43185Y-44305D01*
X43110Y-44290D01*
X42874Y-44290D01*
X42798Y-44305D01*
X42734Y-44348D01*
X41444Y-45638D01*
X41521Y-43944D01*
X41576Y-43967D01*
X41690Y-43967D01*
X41795Y-43923D01*
X41833Y-43886D01*
X43587Y-43876D01*
X43663Y-43908D01*
X43777Y-43908D01*
X43857Y-43875D01*
X44930Y-43869D01*
X44930Y-43869D01*
G37*
G54D22*
X44930Y-43869D02*
X44923Y-44992D01*
X44820Y-44950D01*
X44707Y-44949D01*
X44601Y-44993D01*
X44521Y-45073D01*
X44477Y-45179D01*
X44477Y-45292D01*
X44486Y-45314D01*
X43595Y-45314D01*
X43504Y-45223D01*
X43504Y-44685D01*
X43504Y-44685D01*
X43504Y-44685D01*
X43489Y-44609D01*
X43446Y-44545D01*
X43446Y-44545D01*
X43249Y-44348D01*
X43185Y-44305D01*
X43110Y-44290D01*
X42874Y-44290D01*
X42798Y-44305D01*
X42734Y-44348D01*
X41444Y-45638D01*
X41521Y-43944D01*
X41576Y-43967D01*
X41690Y-43967D01*
X41795Y-43923D01*
X41833Y-43886D01*
X43587Y-43876D01*
X43663Y-43908D01*
X43777Y-43908D01*
X43857Y-43875D01*
X44930Y-43869D01*
M02*
