G04 (created by PCBNEW (2014-05-12 BZR 4006)-stable) date Пт 16 май 2014 21:52:01*
%MOIN*%
G04 Gerber Fmt 3.4, Leading zero omitted, Abs format*
%FSLAX34Y34*%
G01*
G70*
G90*
G04 APERTURE LIST*
%ADD10C,0.00590551*%
G04 APERTURE END LIST*
G54D10*
G36*
X34565Y-22209D02*
X34092Y-22209D01*
X34092Y-21814D01*
X34565Y-21814D01*
X34565Y-22209D01*
X34565Y-22209D01*
G37*
G36*
X34565Y-22959D02*
X34092Y-22959D01*
X34092Y-22564D01*
X34565Y-22564D01*
X34565Y-22959D01*
X34565Y-22959D01*
G37*
G36*
X34565Y-23709D02*
X34092Y-23709D01*
X34092Y-23314D01*
X34565Y-23314D01*
X34565Y-23709D01*
X34565Y-23709D01*
G37*
G36*
X34565Y-24459D02*
X34092Y-24459D01*
X34092Y-24064D01*
X34565Y-24064D01*
X34565Y-24459D01*
X34565Y-24459D01*
G37*
G36*
X34565Y-25209D02*
X34092Y-25209D01*
X34092Y-24814D01*
X34565Y-24814D01*
X34565Y-25209D01*
X34565Y-25209D01*
G37*
G36*
X34565Y-25959D02*
X34092Y-25959D01*
X34092Y-25564D01*
X34565Y-25564D01*
X34565Y-25959D01*
X34565Y-25959D01*
G37*
G36*
X34565Y-26709D02*
X34092Y-26709D01*
X34092Y-26314D01*
X34565Y-26314D01*
X34565Y-26709D01*
X34565Y-26709D01*
G37*
G36*
X34565Y-27459D02*
X34092Y-27459D01*
X34092Y-27064D01*
X34565Y-27064D01*
X34565Y-27459D01*
X34565Y-27459D01*
G37*
G36*
X34565Y-28209D02*
X34092Y-28209D01*
X34092Y-27814D01*
X34565Y-27814D01*
X34565Y-28209D01*
X34565Y-28209D01*
G37*
G36*
X34565Y-28959D02*
X34092Y-28959D01*
X34092Y-28564D01*
X34565Y-28564D01*
X34565Y-28959D01*
X34565Y-28959D01*
G37*
G36*
X35581Y-20814D02*
X35579Y-20932D01*
X35555Y-21039D01*
X35513Y-21133D01*
X35450Y-21222D01*
X35375Y-21294D01*
X35283Y-21352D01*
X35187Y-21389D01*
X35079Y-21408D01*
X34976Y-21406D01*
X34869Y-21383D01*
X34775Y-21341D01*
X34685Y-21279D01*
X34613Y-21205D01*
X34554Y-21113D01*
X34516Y-21017D01*
X34497Y-20910D01*
X34498Y-20807D01*
X34521Y-20699D01*
X34561Y-20605D01*
X34623Y-20515D01*
X34697Y-20443D01*
X34788Y-20383D01*
X34884Y-20344D01*
X34991Y-20324D01*
X35094Y-20324D01*
X35202Y-20346D01*
X35296Y-20386D01*
X35387Y-20448D01*
X35459Y-20520D01*
X35520Y-20612D01*
X35559Y-20707D01*
X35560Y-20708D01*
X35579Y-20804D01*
X35580Y-20813D01*
X35581Y-20814D01*
X35581Y-20814D01*
G37*
G36*
X35581Y-30263D02*
X35579Y-30381D01*
X35555Y-30488D01*
X35513Y-30582D01*
X35450Y-30671D01*
X35375Y-30742D01*
X35283Y-30801D01*
X35187Y-30838D01*
X35079Y-30857D01*
X34976Y-30855D01*
X34869Y-30831D01*
X34775Y-30790D01*
X34685Y-30728D01*
X34613Y-30654D01*
X34554Y-30562D01*
X34516Y-30466D01*
X34497Y-30358D01*
X34498Y-30255D01*
X34521Y-30148D01*
X34561Y-30054D01*
X34623Y-29963D01*
X34697Y-29891D01*
X34788Y-29831D01*
X34884Y-29793D01*
X34991Y-29772D01*
X35094Y-29773D01*
X35202Y-29795D01*
X35296Y-29835D01*
X35387Y-29896D01*
X35459Y-29969D01*
X35520Y-30061D01*
X35559Y-30155D01*
X35560Y-30157D01*
X35579Y-30253D01*
X35580Y-30261D01*
X35581Y-30263D01*
X35581Y-30263D01*
G37*
G36*
X35581Y-51916D02*
X35579Y-52035D01*
X35555Y-52141D01*
X35513Y-52236D01*
X35450Y-52325D01*
X35375Y-52396D01*
X35283Y-52454D01*
X35187Y-52492D01*
X35079Y-52511D01*
X34976Y-52508D01*
X34869Y-52485D01*
X34775Y-52444D01*
X34685Y-52381D01*
X34613Y-52307D01*
X34554Y-52215D01*
X34516Y-52120D01*
X34497Y-52012D01*
X34498Y-51909D01*
X34521Y-51802D01*
X34561Y-51707D01*
X34623Y-51617D01*
X34697Y-51545D01*
X34788Y-51485D01*
X34884Y-51447D01*
X34991Y-51426D01*
X35094Y-51427D01*
X35202Y-51449D01*
X35296Y-51488D01*
X35387Y-51550D01*
X35459Y-51623D01*
X35520Y-51714D01*
X35559Y-51809D01*
X35560Y-51811D01*
X35579Y-51906D01*
X35580Y-51915D01*
X35581Y-51916D01*
X35581Y-51916D01*
G37*
G36*
X35815Y-21959D02*
X35342Y-21959D01*
X35342Y-21564D01*
X35815Y-21564D01*
X35815Y-21959D01*
X35815Y-21959D01*
G37*
G36*
X35815Y-22709D02*
X35342Y-22709D01*
X35342Y-22314D01*
X35815Y-22314D01*
X35815Y-22709D01*
X35815Y-22709D01*
G37*
G36*
X35815Y-23459D02*
X35342Y-23459D01*
X35342Y-23064D01*
X35815Y-23064D01*
X35815Y-23459D01*
X35815Y-23459D01*
G37*
G36*
X35815Y-24209D02*
X35342Y-24209D01*
X35342Y-23814D01*
X35815Y-23814D01*
X35815Y-24209D01*
X35815Y-24209D01*
G37*
G36*
X35815Y-24959D02*
X35342Y-24959D01*
X35342Y-24564D01*
X35815Y-24564D01*
X35815Y-24959D01*
X35815Y-24959D01*
G37*
G36*
X35815Y-25709D02*
X35342Y-25709D01*
X35342Y-25314D01*
X35815Y-25314D01*
X35815Y-25709D01*
X35815Y-25709D01*
G37*
G36*
X35815Y-26459D02*
X35342Y-26459D01*
X35342Y-26064D01*
X35815Y-26064D01*
X35815Y-26459D01*
X35815Y-26459D01*
G37*
G36*
X35815Y-27209D02*
X35342Y-27209D01*
X35342Y-26814D01*
X35815Y-26814D01*
X35815Y-27209D01*
X35815Y-27209D01*
G37*
G36*
X35815Y-27959D02*
X35342Y-27959D01*
X35342Y-27564D01*
X35815Y-27564D01*
X35815Y-27959D01*
X35815Y-27959D01*
G37*
G36*
X35815Y-28709D02*
X35342Y-28709D01*
X35342Y-28314D01*
X35815Y-28314D01*
X35815Y-28709D01*
X35815Y-28709D01*
G37*
G36*
X35974Y-20533D02*
X35580Y-20533D01*
X35580Y-20060D01*
X35974Y-20060D01*
X35974Y-20533D01*
X35974Y-20533D01*
G37*
G36*
X36224Y-21283D02*
X35830Y-21283D01*
X35830Y-20810D01*
X36224Y-20810D01*
X36224Y-21283D01*
X36224Y-21283D01*
G37*
G36*
X36724Y-20533D02*
X36330Y-20533D01*
X36330Y-20060D01*
X36724Y-20060D01*
X36724Y-20533D01*
X36724Y-20533D01*
G37*
G36*
X36974Y-21283D02*
X36580Y-21283D01*
X36580Y-20810D01*
X36974Y-20810D01*
X36974Y-21283D01*
X36974Y-21283D01*
G37*
G36*
X37474Y-20533D02*
X37080Y-20533D01*
X37080Y-20060D01*
X37474Y-20060D01*
X37474Y-20533D01*
X37474Y-20533D01*
G37*
G36*
X37724Y-21283D02*
X37330Y-21283D01*
X37330Y-20810D01*
X37724Y-20810D01*
X37724Y-21283D01*
X37724Y-21283D01*
G37*
G36*
X38224Y-20533D02*
X37830Y-20533D01*
X37830Y-20060D01*
X38224Y-20060D01*
X38224Y-20533D01*
X38224Y-20533D01*
G37*
G36*
X38474Y-21283D02*
X38080Y-21283D01*
X38080Y-20810D01*
X38474Y-20810D01*
X38474Y-21283D01*
X38474Y-21283D01*
G37*
G36*
X38974Y-20533D02*
X38580Y-20533D01*
X38580Y-20060D01*
X38974Y-20060D01*
X38974Y-20533D01*
X38974Y-20533D01*
G37*
G36*
X39224Y-21283D02*
X38830Y-21283D01*
X38830Y-20810D01*
X39224Y-20810D01*
X39224Y-21283D01*
X39224Y-21283D01*
G37*
G36*
X39724Y-20533D02*
X39330Y-20533D01*
X39330Y-20060D01*
X39724Y-20060D01*
X39724Y-20533D01*
X39724Y-20533D01*
G37*
G36*
X39974Y-21283D02*
X39580Y-21283D01*
X39580Y-20810D01*
X39974Y-20810D01*
X39974Y-21283D01*
X39974Y-21283D01*
G37*
G36*
X40474Y-20533D02*
X40080Y-20533D01*
X40080Y-20060D01*
X40474Y-20060D01*
X40474Y-20533D01*
X40474Y-20533D01*
G37*
G36*
X40724Y-21283D02*
X40330Y-21283D01*
X40330Y-20810D01*
X40724Y-20810D01*
X40724Y-21283D01*
X40724Y-21283D01*
G37*
G36*
X41224Y-20533D02*
X40830Y-20533D01*
X40830Y-20060D01*
X41224Y-20060D01*
X41224Y-20533D01*
X41224Y-20533D01*
G37*
G36*
X41474Y-21283D02*
X41080Y-21283D01*
X41080Y-20810D01*
X41474Y-20810D01*
X41474Y-21283D01*
X41474Y-21283D01*
G37*
G36*
X41974Y-20533D02*
X41580Y-20533D01*
X41580Y-20060D01*
X41974Y-20060D01*
X41974Y-20533D01*
X41974Y-20533D01*
G37*
G36*
X42224Y-21283D02*
X41830Y-21283D01*
X41830Y-20810D01*
X42224Y-20810D01*
X42224Y-21283D01*
X42224Y-21283D01*
G37*
G36*
X42724Y-20533D02*
X42330Y-20533D01*
X42330Y-20060D01*
X42724Y-20060D01*
X42724Y-20533D01*
X42724Y-20533D01*
G37*
G36*
X42974Y-21283D02*
X42580Y-21283D01*
X42580Y-20810D01*
X42974Y-20810D01*
X42974Y-21283D01*
X42974Y-21283D01*
G37*
G36*
X43994Y-20537D02*
X43600Y-20537D01*
X43600Y-20064D01*
X43994Y-20064D01*
X43994Y-20537D01*
X43994Y-20537D01*
G37*
G36*
X44244Y-21287D02*
X43850Y-21287D01*
X43850Y-20814D01*
X44244Y-20814D01*
X44244Y-21287D01*
X44244Y-21287D01*
G37*
G36*
X44744Y-20537D02*
X44350Y-20537D01*
X44350Y-20064D01*
X44744Y-20064D01*
X44744Y-20537D01*
X44744Y-20537D01*
G37*
G36*
X44994Y-21287D02*
X44600Y-21287D01*
X44600Y-20814D01*
X44994Y-20814D01*
X44994Y-21287D01*
X44994Y-21287D01*
G37*
G36*
X45494Y-20537D02*
X45100Y-20537D01*
X45100Y-20064D01*
X45494Y-20064D01*
X45494Y-20537D01*
X45494Y-20537D01*
G37*
G36*
X45679Y-54638D02*
X45285Y-54638D01*
X45285Y-54164D01*
X45679Y-54164D01*
X45679Y-54638D01*
X45679Y-54638D01*
G37*
G36*
X45744Y-21287D02*
X45350Y-21287D01*
X45350Y-20814D01*
X45744Y-20814D01*
X45744Y-21287D01*
X45744Y-21287D01*
G37*
G36*
X45929Y-55388D02*
X45535Y-55388D01*
X45535Y-54914D01*
X45929Y-54914D01*
X45929Y-55388D01*
X45929Y-55388D01*
G37*
G36*
X46244Y-20537D02*
X45850Y-20537D01*
X45850Y-20064D01*
X46244Y-20064D01*
X46244Y-20537D01*
X46244Y-20537D01*
G37*
G36*
X46429Y-54638D02*
X46035Y-54638D01*
X46035Y-54164D01*
X46429Y-54164D01*
X46429Y-54638D01*
X46429Y-54638D01*
G37*
G36*
X46494Y-21287D02*
X46100Y-21287D01*
X46100Y-20814D01*
X46494Y-20814D01*
X46494Y-21287D01*
X46494Y-21287D01*
G37*
G36*
X46679Y-55388D02*
X46285Y-55388D01*
X46285Y-54914D01*
X46679Y-54914D01*
X46679Y-55388D01*
X46679Y-55388D01*
G37*
G36*
X46994Y-20537D02*
X46600Y-20537D01*
X46600Y-20064D01*
X46994Y-20064D01*
X46994Y-20537D01*
X46994Y-20537D01*
G37*
G36*
X47179Y-54638D02*
X46785Y-54638D01*
X46785Y-54164D01*
X47179Y-54164D01*
X47179Y-54638D01*
X47179Y-54638D01*
G37*
G36*
X47244Y-21287D02*
X46850Y-21287D01*
X46850Y-20814D01*
X47244Y-20814D01*
X47244Y-21287D01*
X47244Y-21287D01*
G37*
G36*
X47429Y-55388D02*
X47035Y-55388D01*
X47035Y-54914D01*
X47429Y-54914D01*
X47429Y-55388D01*
X47429Y-55388D01*
G37*
G36*
X47744Y-20537D02*
X47350Y-20537D01*
X47350Y-20064D01*
X47744Y-20064D01*
X47744Y-20537D01*
X47744Y-20537D01*
G37*
G36*
X47929Y-54638D02*
X47535Y-54638D01*
X47535Y-54164D01*
X47929Y-54164D01*
X47929Y-54638D01*
X47929Y-54638D01*
G37*
G36*
X47994Y-21287D02*
X47600Y-21287D01*
X47600Y-20814D01*
X47994Y-20814D01*
X47994Y-21287D01*
X47994Y-21287D01*
G37*
G36*
X48179Y-55388D02*
X47785Y-55388D01*
X47785Y-54914D01*
X48179Y-54914D01*
X48179Y-55388D01*
X48179Y-55388D01*
G37*
G36*
X48494Y-20537D02*
X48100Y-20537D01*
X48100Y-20064D01*
X48494Y-20064D01*
X48494Y-20537D01*
X48494Y-20537D01*
G37*
G36*
X48679Y-54638D02*
X48285Y-54638D01*
X48285Y-54164D01*
X48679Y-54164D01*
X48679Y-54638D01*
X48679Y-54638D01*
G37*
G36*
X48744Y-21287D02*
X48350Y-21287D01*
X48350Y-20814D01*
X48744Y-20814D01*
X48744Y-21287D01*
X48744Y-21287D01*
G37*
G36*
X48929Y-55388D02*
X48535Y-55388D01*
X48535Y-54914D01*
X48929Y-54914D01*
X48929Y-55388D01*
X48929Y-55388D01*
G37*
G36*
X49244Y-20537D02*
X48850Y-20537D01*
X48850Y-20064D01*
X49244Y-20064D01*
X49244Y-20537D01*
X49244Y-20537D01*
G37*
G36*
X49429Y-54638D02*
X49035Y-54638D01*
X49035Y-54164D01*
X49429Y-54164D01*
X49429Y-54638D01*
X49429Y-54638D01*
G37*
G36*
X49494Y-21287D02*
X49100Y-21287D01*
X49100Y-20814D01*
X49494Y-20814D01*
X49494Y-21287D01*
X49494Y-21287D01*
G37*
G36*
X49679Y-55388D02*
X49285Y-55388D01*
X49285Y-54914D01*
X49679Y-54914D01*
X49679Y-55388D01*
X49679Y-55388D01*
G37*
G36*
X49994Y-20537D02*
X49600Y-20537D01*
X49600Y-20064D01*
X49994Y-20064D01*
X49994Y-20537D01*
X49994Y-20537D01*
G37*
G36*
X50179Y-54638D02*
X49785Y-54638D01*
X49785Y-54164D01*
X50179Y-54164D01*
X50179Y-54638D01*
X50179Y-54638D01*
G37*
G36*
X50244Y-21287D02*
X49850Y-21287D01*
X49850Y-20814D01*
X50244Y-20814D01*
X50244Y-21287D01*
X50244Y-21287D01*
G37*
G36*
X50429Y-55388D02*
X50035Y-55388D01*
X50035Y-54914D01*
X50429Y-54914D01*
X50429Y-55388D01*
X50429Y-55388D01*
G37*
G36*
X50744Y-20537D02*
X50350Y-20537D01*
X50350Y-20064D01*
X50744Y-20064D01*
X50744Y-20537D01*
X50744Y-20537D01*
G37*
G36*
X50929Y-54638D02*
X50535Y-54638D01*
X50535Y-54164D01*
X50929Y-54164D01*
X50929Y-54638D01*
X50929Y-54638D01*
G37*
G36*
X50994Y-21287D02*
X50600Y-21287D01*
X50600Y-20814D01*
X50994Y-20814D01*
X50994Y-21287D01*
X50994Y-21287D01*
G37*
G36*
X51179Y-55388D02*
X50785Y-55388D01*
X50785Y-54914D01*
X51179Y-54914D01*
X51179Y-55388D01*
X51179Y-55388D01*
G37*
G36*
X51679Y-54638D02*
X51285Y-54638D01*
X51285Y-54164D01*
X51679Y-54164D01*
X51679Y-54638D01*
X51679Y-54638D01*
G37*
G36*
X51929Y-55388D02*
X51535Y-55388D01*
X51535Y-54914D01*
X51929Y-54914D01*
X51929Y-55388D01*
X51929Y-55388D01*
G37*
G36*
X52429Y-54638D02*
X52035Y-54638D01*
X52035Y-54164D01*
X52429Y-54164D01*
X52429Y-54638D01*
X52429Y-54638D01*
G37*
G36*
X52679Y-55388D02*
X52285Y-55388D01*
X52285Y-54914D01*
X52679Y-54914D01*
X52679Y-55388D01*
X52679Y-55388D01*
G37*
G36*
X52978Y-24886D02*
X52505Y-24886D01*
X52505Y-24491D01*
X52978Y-24491D01*
X52978Y-24886D01*
X52978Y-24886D01*
G37*
G36*
X52978Y-25636D02*
X52505Y-25636D01*
X52505Y-25241D01*
X52978Y-25241D01*
X52978Y-25636D01*
X52978Y-25636D01*
G37*
G36*
X52978Y-26386D02*
X52505Y-26386D01*
X52505Y-25991D01*
X52978Y-25991D01*
X52978Y-26386D01*
X52978Y-26386D01*
G37*
G36*
X52978Y-27136D02*
X52505Y-27136D01*
X52505Y-26741D01*
X52978Y-26741D01*
X52978Y-27136D01*
X52978Y-27136D01*
G37*
G36*
X52978Y-27886D02*
X52505Y-27886D01*
X52505Y-27491D01*
X52978Y-27491D01*
X52978Y-27886D01*
X52978Y-27886D01*
G37*
G36*
X52978Y-28636D02*
X52505Y-28636D01*
X52505Y-28241D01*
X52978Y-28241D01*
X52978Y-28636D01*
X52978Y-28636D01*
G37*
G36*
X52978Y-29386D02*
X52505Y-29386D01*
X52505Y-28991D01*
X52978Y-28991D01*
X52978Y-29386D01*
X52978Y-29386D01*
G37*
G36*
X52978Y-30136D02*
X52505Y-30136D01*
X52505Y-29741D01*
X52978Y-29741D01*
X52978Y-30136D01*
X52978Y-30136D01*
G37*
G36*
X52978Y-30886D02*
X52505Y-30886D01*
X52505Y-30491D01*
X52978Y-30491D01*
X52978Y-30886D01*
X52978Y-30886D01*
G37*
G36*
X52978Y-31636D02*
X52505Y-31636D01*
X52505Y-31241D01*
X52978Y-31241D01*
X52978Y-31636D01*
X52978Y-31636D01*
G37*
G36*
X53297Y-51916D02*
X53295Y-52035D01*
X53271Y-52141D01*
X53229Y-52236D01*
X53166Y-52325D01*
X53092Y-52396D01*
X52999Y-52454D01*
X52903Y-52492D01*
X52796Y-52511D01*
X52692Y-52508D01*
X52586Y-52485D01*
X52491Y-52444D01*
X52402Y-52381D01*
X52330Y-52307D01*
X52271Y-52215D01*
X52233Y-52120D01*
X52213Y-52012D01*
X52214Y-51909D01*
X52237Y-51802D01*
X52278Y-51707D01*
X52340Y-51617D01*
X52413Y-51545D01*
X52505Y-51485D01*
X52600Y-51447D01*
X52708Y-51426D01*
X52810Y-51427D01*
X52918Y-51449D01*
X53013Y-51488D01*
X53104Y-51550D01*
X53176Y-51623D01*
X53237Y-51714D01*
X53276Y-51809D01*
X53276Y-51811D01*
X53295Y-51906D01*
X53297Y-51915D01*
X53297Y-51916D01*
X53297Y-51916D01*
G37*
G36*
X53728Y-24636D02*
X53255Y-24636D01*
X53255Y-24241D01*
X53728Y-24241D01*
X53728Y-24636D01*
X53728Y-24636D01*
G37*
G36*
X53728Y-25386D02*
X53255Y-25386D01*
X53255Y-24991D01*
X53728Y-24991D01*
X53728Y-25386D01*
X53728Y-25386D01*
G37*
G36*
X53728Y-26136D02*
X53255Y-26136D01*
X53255Y-25741D01*
X53728Y-25741D01*
X53728Y-26136D01*
X53728Y-26136D01*
G37*
G36*
X53728Y-26886D02*
X53255Y-26886D01*
X53255Y-26491D01*
X53728Y-26491D01*
X53728Y-26886D01*
X53728Y-26886D01*
G37*
G36*
X53728Y-27636D02*
X53255Y-27636D01*
X53255Y-27241D01*
X53728Y-27241D01*
X53728Y-27636D01*
X53728Y-27636D01*
G37*
G36*
X53728Y-28386D02*
X53255Y-28386D01*
X53255Y-27991D01*
X53728Y-27991D01*
X53728Y-28386D01*
X53728Y-28386D01*
G37*
G36*
X53728Y-29136D02*
X53255Y-29136D01*
X53255Y-28741D01*
X53728Y-28741D01*
X53728Y-29136D01*
X53728Y-29136D01*
G37*
G36*
X53728Y-29886D02*
X53255Y-29886D01*
X53255Y-29491D01*
X53728Y-29491D01*
X53728Y-29886D01*
X53728Y-29886D01*
G37*
G36*
X53728Y-30636D02*
X53255Y-30636D01*
X53255Y-30241D01*
X53728Y-30241D01*
X53728Y-30636D01*
X53728Y-30636D01*
G37*
G36*
X53728Y-31386D02*
X53255Y-31386D01*
X53255Y-30991D01*
X53728Y-30991D01*
X53728Y-31386D01*
X53728Y-31386D01*
G37*
M02*
