G04 (created by PCBNEW (2014-05-12 BZR 4006)-stable) date Пт 16 май 2014 21:52:01*
%MOIN*%
G04 Gerber Fmt 3.4, Leading zero omitted, Abs format*
%FSLAX34Y34*%
G01*
G70*
G90*
G04 APERTURE LIST*
%ADD10C,0.00590551*%
G04 APERTURE END LIST*
G54D10*
G36*
X34565Y-22209D02*
X34092Y-22209D01*
X34092Y-21814D01*
X34565Y-21814D01*
X34565Y-22209D01*
X34565Y-22209D01*
G37*
G36*
X34565Y-22959D02*
X34092Y-22959D01*
X34092Y-22564D01*
X34565Y-22564D01*
X34565Y-22959D01*
X34565Y-22959D01*
G37*
G36*
X34565Y-23709D02*
X34092Y-23709D01*
X34092Y-23314D01*
X34565Y-23314D01*
X34565Y-23709D01*
X34565Y-23709D01*
G37*
G36*
X34565Y-24459D02*
X34092Y-24459D01*
X34092Y-24064D01*
X34565Y-24064D01*
X34565Y-24459D01*
X34565Y-24459D01*
G37*
G36*
X34565Y-25209D02*
X34092Y-25209D01*
X34092Y-24814D01*
X34565Y-24814D01*
X34565Y-25209D01*
X34565Y-25209D01*
G37*
G36*
X34565Y-25959D02*
X34092Y-25959D01*
X34092Y-25564D01*
X34565Y-25564D01*
X34565Y-25959D01*
X34565Y-25959D01*
G37*
G36*
X34565Y-26709D02*
X34092Y-26709D01*
X34092Y-26314D01*
X34565Y-26314D01*
X34565Y-26709D01*
X34565Y-26709D01*
G37*
G36*
X34565Y-27459D02*
X34092Y-27459D01*
X34092Y-27064D01*
X34565Y-27064D01*
X34565Y-27459D01*
X34565Y-27459D01*
G37*
G36*
X34565Y-28209D02*
X34092Y-28209D01*
X34092Y-27814D01*
X34565Y-27814D01*
X34565Y-28209D01*
X34565Y-28209D01*
G37*
G36*
X34565Y-28959D02*
X34092Y-28959D01*
X34092Y-28564D01*
X34565Y-28564D01*
X34565Y-28959D01*
X34565Y-28959D01*
G37*
G36*
X35437Y-48721D02*
X35058Y-48721D01*
X35058Y-48441D01*
X35437Y-48441D01*
X35437Y-48721D01*
X35437Y-48721D01*
G37*
G36*
X35437Y-49471D02*
X35058Y-49471D01*
X35058Y-49191D01*
X35437Y-49191D01*
X35437Y-49471D01*
X35437Y-49471D01*
G37*
G36*
X35581Y-20814D02*
X35579Y-20932D01*
X35555Y-21039D01*
X35513Y-21133D01*
X35450Y-21222D01*
X35375Y-21294D01*
X35283Y-21352D01*
X35187Y-21389D01*
X35079Y-21408D01*
X34976Y-21406D01*
X34869Y-21383D01*
X34775Y-21341D01*
X34685Y-21279D01*
X34613Y-21205D01*
X34554Y-21113D01*
X34516Y-21017D01*
X34497Y-20910D01*
X34498Y-20807D01*
X34521Y-20699D01*
X34561Y-20605D01*
X34623Y-20515D01*
X34697Y-20443D01*
X34788Y-20383D01*
X34884Y-20344D01*
X34991Y-20324D01*
X35094Y-20324D01*
X35202Y-20346D01*
X35296Y-20386D01*
X35387Y-20448D01*
X35459Y-20520D01*
X35520Y-20612D01*
X35559Y-20707D01*
X35560Y-20708D01*
X35579Y-20804D01*
X35580Y-20813D01*
X35581Y-20814D01*
X35581Y-20814D01*
G37*
G36*
X35581Y-30263D02*
X35579Y-30381D01*
X35555Y-30488D01*
X35513Y-30582D01*
X35450Y-30671D01*
X35375Y-30742D01*
X35283Y-30801D01*
X35187Y-30838D01*
X35079Y-30857D01*
X34976Y-30855D01*
X34869Y-30831D01*
X34775Y-30790D01*
X34685Y-30728D01*
X34613Y-30654D01*
X34554Y-30562D01*
X34516Y-30466D01*
X34497Y-30358D01*
X34498Y-30255D01*
X34521Y-30148D01*
X34561Y-30054D01*
X34623Y-29963D01*
X34697Y-29891D01*
X34788Y-29831D01*
X34884Y-29793D01*
X34991Y-29772D01*
X35094Y-29773D01*
X35202Y-29795D01*
X35296Y-29835D01*
X35387Y-29896D01*
X35459Y-29969D01*
X35520Y-30061D01*
X35559Y-30155D01*
X35560Y-30157D01*
X35579Y-30253D01*
X35580Y-30261D01*
X35581Y-30263D01*
X35581Y-30263D01*
G37*
G36*
X35581Y-51916D02*
X35579Y-52035D01*
X35555Y-52141D01*
X35513Y-52236D01*
X35450Y-52325D01*
X35375Y-52396D01*
X35283Y-52454D01*
X35187Y-52492D01*
X35079Y-52511D01*
X34976Y-52508D01*
X34869Y-52485D01*
X34775Y-52444D01*
X34685Y-52381D01*
X34613Y-52307D01*
X34554Y-52215D01*
X34516Y-52120D01*
X34497Y-52012D01*
X34498Y-51909D01*
X34521Y-51802D01*
X34561Y-51707D01*
X34623Y-51617D01*
X34697Y-51545D01*
X34788Y-51485D01*
X34884Y-51447D01*
X34991Y-51426D01*
X35094Y-51427D01*
X35202Y-51449D01*
X35296Y-51488D01*
X35387Y-51550D01*
X35459Y-51623D01*
X35520Y-51714D01*
X35559Y-51809D01*
X35560Y-51811D01*
X35579Y-51906D01*
X35580Y-51915D01*
X35581Y-51916D01*
X35581Y-51916D01*
G37*
G36*
X35789Y-34432D02*
X35460Y-34432D01*
X35460Y-33992D01*
X35789Y-33992D01*
X35789Y-34432D01*
X35789Y-34432D01*
G37*
G36*
X35809Y-33644D02*
X35480Y-33644D01*
X35480Y-33205D01*
X35809Y-33205D01*
X35809Y-33644D01*
X35809Y-33644D01*
G37*
G36*
X35815Y-21959D02*
X35342Y-21959D01*
X35342Y-21564D01*
X35815Y-21564D01*
X35815Y-21959D01*
X35815Y-21959D01*
G37*
G36*
X35815Y-22709D02*
X35342Y-22709D01*
X35342Y-22314D01*
X35815Y-22314D01*
X35815Y-22709D01*
X35815Y-22709D01*
G37*
G36*
X35815Y-23459D02*
X35342Y-23459D01*
X35342Y-23064D01*
X35815Y-23064D01*
X35815Y-23459D01*
X35815Y-23459D01*
G37*
G36*
X35815Y-24209D02*
X35342Y-24209D01*
X35342Y-23814D01*
X35815Y-23814D01*
X35815Y-24209D01*
X35815Y-24209D01*
G37*
G36*
X35815Y-24959D02*
X35342Y-24959D01*
X35342Y-24564D01*
X35815Y-24564D01*
X35815Y-24959D01*
X35815Y-24959D01*
G37*
G36*
X35815Y-25709D02*
X35342Y-25709D01*
X35342Y-25314D01*
X35815Y-25314D01*
X35815Y-25709D01*
X35815Y-25709D01*
G37*
G36*
X35815Y-26459D02*
X35342Y-26459D01*
X35342Y-26064D01*
X35815Y-26064D01*
X35815Y-26459D01*
X35815Y-26459D01*
G37*
G36*
X35815Y-27209D02*
X35342Y-27209D01*
X35342Y-26814D01*
X35815Y-26814D01*
X35815Y-27209D01*
X35815Y-27209D01*
G37*
G36*
X35815Y-27959D02*
X35342Y-27959D01*
X35342Y-27564D01*
X35815Y-27564D01*
X35815Y-27959D01*
X35815Y-27959D01*
G37*
G36*
X35815Y-28709D02*
X35342Y-28709D01*
X35342Y-28314D01*
X35815Y-28314D01*
X35815Y-28709D01*
X35815Y-28709D01*
G37*
G36*
X35974Y-20533D02*
X35580Y-20533D01*
X35580Y-20060D01*
X35974Y-20060D01*
X35974Y-20533D01*
X35974Y-20533D01*
G37*
G36*
X36063Y-36594D02*
X35511Y-36594D01*
X35511Y-36043D01*
X36063Y-36043D01*
X36063Y-36594D01*
X36063Y-36594D01*
G37*
G36*
X36063Y-37736D02*
X35511Y-37736D01*
X35511Y-37185D01*
X36063Y-37185D01*
X36063Y-37736D01*
X36063Y-37736D01*
G37*
G36*
X36224Y-21283D02*
X35830Y-21283D01*
X35830Y-20810D01*
X36224Y-20810D01*
X36224Y-21283D01*
X36224Y-21283D01*
G37*
G36*
X36389Y-34432D02*
X36060Y-34432D01*
X36060Y-33992D01*
X36389Y-33992D01*
X36389Y-34432D01*
X36389Y-34432D01*
G37*
G36*
X36409Y-33644D02*
X36080Y-33644D01*
X36080Y-33205D01*
X36409Y-33205D01*
X36409Y-33644D01*
X36409Y-33644D01*
G37*
G36*
X36437Y-48721D02*
X36058Y-48721D01*
X36058Y-48441D01*
X36437Y-48441D01*
X36437Y-48721D01*
X36437Y-48721D01*
G37*
G36*
X36437Y-49096D02*
X36058Y-49096D01*
X36058Y-48816D01*
X36437Y-48816D01*
X36437Y-49096D01*
X36437Y-49096D01*
G37*
G36*
X36437Y-49471D02*
X36058Y-49471D01*
X36058Y-49191D01*
X36437Y-49191D01*
X36437Y-49471D01*
X36437Y-49471D01*
G37*
G36*
X36476Y-53268D02*
X35019Y-53268D01*
X35019Y-52676D01*
X36476Y-52676D01*
X36476Y-53268D01*
X36476Y-53268D01*
G37*
G36*
X36476Y-54134D02*
X35019Y-54134D01*
X35019Y-53542D01*
X36476Y-53542D01*
X36476Y-54134D01*
X36476Y-54134D01*
G37*
G36*
X36578Y-35396D02*
X36138Y-35396D01*
X36138Y-35066D01*
X36578Y-35066D01*
X36578Y-35396D01*
X36578Y-35396D01*
G37*
G36*
X36578Y-35996D02*
X36138Y-35996D01*
X36138Y-35666D01*
X36578Y-35666D01*
X36578Y-35996D01*
X36578Y-35996D01*
G37*
G36*
X36724Y-20533D02*
X36330Y-20533D01*
X36330Y-20060D01*
X36724Y-20060D01*
X36724Y-20533D01*
X36724Y-20533D01*
G37*
G36*
X36974Y-21283D02*
X36580Y-21283D01*
X36580Y-20810D01*
X36974Y-20810D01*
X36974Y-21283D01*
X36974Y-21283D01*
G37*
G36*
X37091Y-53327D02*
X36711Y-53327D01*
X36711Y-53048D01*
X37091Y-53048D01*
X37091Y-53327D01*
X37091Y-53327D01*
G37*
G36*
X37091Y-53702D02*
X36711Y-53702D01*
X36711Y-53423D01*
X37091Y-53423D01*
X37091Y-53702D01*
X37091Y-53702D01*
G37*
G36*
X37091Y-54077D02*
X36711Y-54077D01*
X36711Y-53798D01*
X37091Y-53798D01*
X37091Y-54077D01*
X37091Y-54077D01*
G37*
G36*
X37187Y-47581D02*
X36858Y-47581D01*
X36858Y-47142D01*
X37187Y-47142D01*
X37187Y-47581D01*
X37187Y-47581D01*
G37*
G36*
X37188Y-50474D02*
X36758Y-50474D01*
X36750Y-50474D01*
X36733Y-50474D01*
X36725Y-50474D01*
X36295Y-50474D01*
X36295Y-50145D01*
X36725Y-50145D01*
X36733Y-50145D01*
X36750Y-50145D01*
X36758Y-50145D01*
X37188Y-50145D01*
X37188Y-50474D01*
X37188Y-50474D01*
G37*
G36*
X37188Y-51074D02*
X36758Y-51074D01*
X36750Y-51074D01*
X36733Y-51074D01*
X36725Y-51074D01*
X36295Y-51074D01*
X36295Y-50745D01*
X36725Y-50745D01*
X36733Y-50745D01*
X36750Y-50745D01*
X36758Y-50745D01*
X37188Y-50745D01*
X37188Y-51074D01*
X37188Y-51074D01*
G37*
G36*
X37227Y-35376D02*
X36788Y-35376D01*
X36788Y-35047D01*
X37227Y-35047D01*
X37227Y-35376D01*
X37227Y-35376D01*
G37*
G36*
X37227Y-36341D02*
X36788Y-36341D01*
X36788Y-35999D01*
X36788Y-35996D01*
X36788Y-35992D01*
X36788Y-35988D01*
X36788Y-35647D01*
X37227Y-35647D01*
X37227Y-35988D01*
X37227Y-35992D01*
X37227Y-35996D01*
X37227Y-35999D01*
X37227Y-36341D01*
X37227Y-36341D01*
G37*
G36*
X37227Y-36941D02*
X36788Y-36941D01*
X36788Y-36611D01*
X37227Y-36611D01*
X37227Y-36941D01*
X37227Y-36941D01*
G37*
G36*
X37474Y-20533D02*
X37080Y-20533D01*
X37080Y-20060D01*
X37474Y-20060D01*
X37474Y-20533D01*
X37474Y-20533D01*
G37*
G36*
X37719Y-50474D02*
X37280Y-50474D01*
X37280Y-50145D01*
X37719Y-50145D01*
X37719Y-50474D01*
X37719Y-50474D01*
G37*
G36*
X37719Y-51074D02*
X37280Y-51074D01*
X37280Y-50745D01*
X37719Y-50745D01*
X37719Y-51074D01*
X37719Y-51074D01*
G37*
G36*
X37724Y-21283D02*
X37330Y-21283D01*
X37330Y-20810D01*
X37724Y-20810D01*
X37724Y-21283D01*
X37724Y-21283D01*
G37*
G36*
X37787Y-47581D02*
X37458Y-47581D01*
X37458Y-47142D01*
X37787Y-47142D01*
X37787Y-47581D01*
X37787Y-47581D01*
G37*
G36*
X37972Y-35531D02*
X37657Y-35531D01*
X37657Y-35295D01*
X37972Y-35295D01*
X37972Y-35531D01*
X37972Y-35531D01*
G37*
G36*
X37972Y-35885D02*
X37657Y-35885D01*
X37657Y-35649D01*
X37972Y-35649D01*
X37972Y-35885D01*
X37972Y-35885D01*
G37*
G36*
X37992Y-48740D02*
X36535Y-48740D01*
X36535Y-48149D01*
X37992Y-48149D01*
X37992Y-48740D01*
X37992Y-48740D01*
G37*
G36*
X37992Y-49606D02*
X36535Y-49606D01*
X36535Y-49015D01*
X37992Y-49015D01*
X37992Y-49606D01*
X37992Y-49606D01*
G37*
G36*
X37995Y-36793D02*
X37555Y-36793D01*
X37555Y-36464D01*
X37995Y-36464D01*
X37995Y-36793D01*
X37995Y-36793D01*
G37*
G36*
X37995Y-37393D02*
X37555Y-37393D01*
X37555Y-37064D01*
X37995Y-37064D01*
X37995Y-37393D01*
X37995Y-37393D01*
G37*
G36*
X38091Y-53327D02*
X37711Y-53327D01*
X37711Y-53048D01*
X38091Y-53048D01*
X38091Y-53327D01*
X38091Y-53327D01*
G37*
G36*
X38091Y-54077D02*
X37711Y-54077D01*
X37711Y-53798D01*
X38091Y-53798D01*
X38091Y-54077D01*
X38091Y-54077D01*
G37*
G36*
X38163Y-30885D02*
X37990Y-30885D01*
X37982Y-30885D01*
X37950Y-30885D01*
X37943Y-30885D01*
X37793Y-30885D01*
X37785Y-30885D01*
X37753Y-30885D01*
X37746Y-30885D01*
X37596Y-30885D01*
X37588Y-30885D01*
X37556Y-30885D01*
X37549Y-30885D01*
X37375Y-30885D01*
X37375Y-30613D01*
X37375Y-30606D01*
X37375Y-30593D01*
X37375Y-30586D01*
X37375Y-30314D01*
X37549Y-30314D01*
X37556Y-30314D01*
X37588Y-30314D01*
X37596Y-30314D01*
X37746Y-30314D01*
X37753Y-30314D01*
X37785Y-30314D01*
X37793Y-30314D01*
X37943Y-30314D01*
X37950Y-30314D01*
X37982Y-30314D01*
X37990Y-30314D01*
X38163Y-30314D01*
X38163Y-30586D01*
X38163Y-30593D01*
X38163Y-30606D01*
X38163Y-30613D01*
X38163Y-30885D01*
X38163Y-30885D01*
G37*
G36*
X38224Y-20533D02*
X37830Y-20533D01*
X37830Y-20060D01*
X38224Y-20060D01*
X38224Y-20533D01*
X38224Y-20533D01*
G37*
G36*
X38270Y-50474D02*
X37831Y-50474D01*
X37831Y-50145D01*
X38270Y-50145D01*
X38270Y-50474D01*
X38270Y-50474D01*
G37*
G36*
X38270Y-51074D02*
X37831Y-51074D01*
X37831Y-50745D01*
X38270Y-50745D01*
X38270Y-51074D01*
X38270Y-51074D01*
G37*
G36*
X38368Y-47581D02*
X38039Y-47581D01*
X38039Y-47142D01*
X38368Y-47142D01*
X38368Y-47581D01*
X38368Y-47581D01*
G37*
G36*
X38427Y-37365D02*
X38098Y-37365D01*
X38098Y-36925D01*
X38427Y-36925D01*
X38427Y-37365D01*
X38427Y-37365D01*
G37*
G36*
X38474Y-21283D02*
X38080Y-21283D01*
X38080Y-20810D01*
X38474Y-20810D01*
X38474Y-21283D01*
X38474Y-21283D01*
G37*
G36*
X38822Y-53329D02*
X38382Y-53329D01*
X38382Y-52999D01*
X38822Y-52999D01*
X38822Y-53329D01*
X38822Y-53329D01*
G37*
G36*
X38822Y-53929D02*
X38382Y-53929D01*
X38382Y-53599D01*
X38822Y-53599D01*
X38822Y-53929D01*
X38822Y-53929D01*
G37*
G36*
X38841Y-50474D02*
X38402Y-50474D01*
X38402Y-50145D01*
X38841Y-50145D01*
X38841Y-50474D01*
X38841Y-50474D01*
G37*
G36*
X38841Y-51074D02*
X38402Y-51074D01*
X38402Y-50745D01*
X38841Y-50745D01*
X38841Y-51074D01*
X38841Y-51074D01*
G37*
G36*
X38968Y-47581D02*
X38639Y-47581D01*
X38639Y-47142D01*
X38968Y-47142D01*
X38968Y-47581D01*
X38968Y-47581D01*
G37*
G36*
X38974Y-20533D02*
X38580Y-20533D01*
X38580Y-20060D01*
X38974Y-20060D01*
X38974Y-20533D01*
X38974Y-20533D01*
G37*
G36*
X39027Y-37365D02*
X38698Y-37365D01*
X38698Y-36925D01*
X39027Y-36925D01*
X39027Y-37365D01*
X39027Y-37365D01*
G37*
G36*
X39063Y-30885D02*
X38890Y-30885D01*
X38882Y-30885D01*
X38850Y-30885D01*
X38843Y-30885D01*
X38693Y-30885D01*
X38685Y-30885D01*
X38653Y-30885D01*
X38646Y-30885D01*
X38496Y-30885D01*
X38488Y-30885D01*
X38456Y-30885D01*
X38449Y-30885D01*
X38275Y-30885D01*
X38275Y-30613D01*
X38275Y-30606D01*
X38275Y-30593D01*
X38275Y-30586D01*
X38275Y-30314D01*
X38449Y-30314D01*
X38456Y-30314D01*
X38488Y-30314D01*
X38496Y-30314D01*
X38646Y-30314D01*
X38653Y-30314D01*
X38685Y-30314D01*
X38693Y-30314D01*
X38843Y-30314D01*
X38850Y-30314D01*
X38882Y-30314D01*
X38890Y-30314D01*
X39063Y-30314D01*
X39063Y-30586D01*
X39063Y-30593D01*
X39063Y-30606D01*
X39063Y-30613D01*
X39063Y-30885D01*
X39063Y-30885D01*
G37*
G36*
X39224Y-21283D02*
X38830Y-21283D01*
X38830Y-20810D01*
X39224Y-20810D01*
X39224Y-21283D01*
X39224Y-21283D01*
G37*
G36*
X39290Y-39331D02*
X39117Y-39331D01*
X39109Y-39331D01*
X39077Y-39331D01*
X39070Y-39331D01*
X38921Y-39331D01*
X38913Y-39331D01*
X38880Y-39331D01*
X38873Y-39331D01*
X38724Y-39331D01*
X38716Y-39331D01*
X38684Y-39331D01*
X38677Y-39331D01*
X38527Y-39331D01*
X38519Y-39331D01*
X38487Y-39331D01*
X38480Y-39331D01*
X38330Y-39331D01*
X38322Y-39331D01*
X38290Y-39331D01*
X38283Y-39331D01*
X38133Y-39331D01*
X38125Y-39331D01*
X38093Y-39331D01*
X38086Y-39331D01*
X37936Y-39331D01*
X37928Y-39331D01*
X37896Y-39331D01*
X37889Y-39331D01*
X37739Y-39331D01*
X37731Y-39331D01*
X37699Y-39331D01*
X37692Y-39331D01*
X37543Y-39331D01*
X37535Y-39331D01*
X37502Y-39331D01*
X37495Y-39331D01*
X37346Y-39331D01*
X37338Y-39331D01*
X37306Y-39331D01*
X37299Y-39331D01*
X37149Y-39331D01*
X37141Y-39331D01*
X37109Y-39331D01*
X37102Y-39331D01*
X36953Y-39331D01*
X36945Y-39331D01*
X36912Y-39331D01*
X36905Y-39331D01*
X36756Y-39331D01*
X36748Y-39331D01*
X36716Y-39331D01*
X36709Y-39331D01*
X36559Y-39331D01*
X36551Y-39331D01*
X36519Y-39331D01*
X36512Y-39331D01*
X36363Y-39331D01*
X36355Y-39331D01*
X36322Y-39331D01*
X36315Y-39331D01*
X36166Y-39331D01*
X36158Y-39331D01*
X36126Y-39331D01*
X36119Y-39331D01*
X35969Y-39331D01*
X35961Y-39331D01*
X35929Y-39331D01*
X35922Y-39331D01*
X35772Y-39331D01*
X35764Y-39331D01*
X35732Y-39331D01*
X35725Y-39331D01*
X35575Y-39331D01*
X35567Y-39331D01*
X35535Y-39331D01*
X35528Y-39331D01*
X35378Y-39331D01*
X35370Y-39331D01*
X35338Y-39331D01*
X35331Y-39331D01*
X35181Y-39331D01*
X35173Y-39331D01*
X35141Y-39331D01*
X35134Y-39331D01*
X34985Y-39331D01*
X34977Y-39331D01*
X34944Y-39331D01*
X34937Y-39331D01*
X34788Y-39331D01*
X34780Y-39331D01*
X34748Y-39331D01*
X34741Y-39331D01*
X34567Y-39331D01*
X34567Y-38622D01*
X34741Y-38622D01*
X34748Y-38622D01*
X34780Y-38622D01*
X34788Y-38622D01*
X34937Y-38622D01*
X34944Y-38622D01*
X34977Y-38622D01*
X34985Y-38622D01*
X35134Y-38622D01*
X35141Y-38622D01*
X35173Y-38622D01*
X35181Y-38622D01*
X35331Y-38622D01*
X35338Y-38622D01*
X35370Y-38622D01*
X35378Y-38622D01*
X35528Y-38622D01*
X35535Y-38622D01*
X35567Y-38622D01*
X35575Y-38622D01*
X35725Y-38622D01*
X35732Y-38622D01*
X35764Y-38622D01*
X35772Y-38622D01*
X35922Y-38622D01*
X35929Y-38622D01*
X35961Y-38622D01*
X35969Y-38622D01*
X36119Y-38622D01*
X36126Y-38622D01*
X36158Y-38622D01*
X36166Y-38622D01*
X36315Y-38622D01*
X36322Y-38622D01*
X36355Y-38622D01*
X36363Y-38622D01*
X36512Y-38622D01*
X36519Y-38622D01*
X36551Y-38622D01*
X36559Y-38622D01*
X36709Y-38622D01*
X36716Y-38622D01*
X36748Y-38622D01*
X36756Y-38622D01*
X36905Y-38622D01*
X36912Y-38622D01*
X36945Y-38622D01*
X36953Y-38622D01*
X37102Y-38622D01*
X37109Y-38622D01*
X37141Y-38622D01*
X37149Y-38622D01*
X37299Y-38622D01*
X37306Y-38622D01*
X37338Y-38622D01*
X37346Y-38622D01*
X37495Y-38622D01*
X37502Y-38622D01*
X37535Y-38622D01*
X37543Y-38622D01*
X37692Y-38622D01*
X37699Y-38622D01*
X37731Y-38622D01*
X37739Y-38622D01*
X37889Y-38622D01*
X37896Y-38622D01*
X37928Y-38622D01*
X37936Y-38622D01*
X38086Y-38622D01*
X38093Y-38622D01*
X38125Y-38622D01*
X38133Y-38622D01*
X38283Y-38622D01*
X38290Y-38622D01*
X38322Y-38622D01*
X38330Y-38622D01*
X38480Y-38622D01*
X38487Y-38622D01*
X38519Y-38622D01*
X38527Y-38622D01*
X38677Y-38622D01*
X38684Y-38622D01*
X38716Y-38622D01*
X38724Y-38622D01*
X38873Y-38622D01*
X38880Y-38622D01*
X38913Y-38622D01*
X38921Y-38622D01*
X39070Y-38622D01*
X39077Y-38622D01*
X39109Y-38622D01*
X39117Y-38622D01*
X39290Y-38622D01*
X39290Y-39331D01*
X39290Y-39331D01*
G37*
G36*
X39290Y-46889D02*
X39117Y-46889D01*
X39109Y-46889D01*
X39077Y-46889D01*
X39070Y-46889D01*
X38921Y-46889D01*
X38913Y-46889D01*
X38880Y-46889D01*
X38873Y-46889D01*
X38724Y-46889D01*
X38716Y-46889D01*
X38684Y-46889D01*
X38677Y-46889D01*
X38527Y-46889D01*
X38519Y-46889D01*
X38487Y-46889D01*
X38480Y-46889D01*
X38330Y-46889D01*
X38322Y-46889D01*
X38290Y-46889D01*
X38283Y-46889D01*
X38133Y-46889D01*
X38125Y-46889D01*
X38093Y-46889D01*
X38086Y-46889D01*
X37936Y-46889D01*
X37928Y-46889D01*
X37896Y-46889D01*
X37889Y-46889D01*
X37739Y-46889D01*
X37731Y-46889D01*
X37699Y-46889D01*
X37692Y-46889D01*
X37543Y-46889D01*
X37535Y-46889D01*
X37502Y-46889D01*
X37495Y-46889D01*
X37346Y-46889D01*
X37338Y-46889D01*
X37306Y-46889D01*
X37299Y-46889D01*
X37149Y-46889D01*
X37141Y-46889D01*
X37109Y-46889D01*
X37102Y-46889D01*
X36953Y-46889D01*
X36945Y-46889D01*
X36912Y-46889D01*
X36905Y-46889D01*
X36756Y-46889D01*
X36748Y-46889D01*
X36716Y-46889D01*
X36709Y-46889D01*
X36559Y-46889D01*
X36551Y-46889D01*
X36519Y-46889D01*
X36512Y-46889D01*
X36363Y-46889D01*
X36355Y-46889D01*
X36322Y-46889D01*
X36315Y-46889D01*
X36166Y-46889D01*
X36158Y-46889D01*
X36126Y-46889D01*
X36119Y-46889D01*
X35969Y-46889D01*
X35961Y-46889D01*
X35929Y-46889D01*
X35922Y-46889D01*
X35772Y-46889D01*
X35764Y-46889D01*
X35732Y-46889D01*
X35725Y-46889D01*
X35575Y-46889D01*
X35567Y-46889D01*
X35535Y-46889D01*
X35528Y-46889D01*
X35378Y-46889D01*
X35370Y-46889D01*
X35338Y-46889D01*
X35331Y-46889D01*
X35181Y-46889D01*
X35173Y-46889D01*
X35141Y-46889D01*
X35134Y-46889D01*
X34985Y-46889D01*
X34977Y-46889D01*
X34944Y-46889D01*
X34937Y-46889D01*
X34788Y-46889D01*
X34780Y-46889D01*
X34748Y-46889D01*
X34741Y-46889D01*
X34567Y-46889D01*
X34567Y-46180D01*
X34741Y-46180D01*
X34748Y-46180D01*
X34780Y-46180D01*
X34788Y-46180D01*
X34937Y-46180D01*
X34944Y-46180D01*
X34977Y-46180D01*
X34985Y-46180D01*
X35134Y-46180D01*
X35141Y-46180D01*
X35173Y-46180D01*
X35181Y-46180D01*
X35331Y-46180D01*
X35338Y-46180D01*
X35370Y-46180D01*
X35378Y-46180D01*
X35528Y-46180D01*
X35535Y-46180D01*
X35567Y-46180D01*
X35575Y-46180D01*
X35725Y-46180D01*
X35732Y-46180D01*
X35764Y-46180D01*
X35772Y-46180D01*
X35922Y-46180D01*
X35929Y-46180D01*
X35961Y-46180D01*
X35969Y-46180D01*
X36119Y-46180D01*
X36126Y-46180D01*
X36158Y-46180D01*
X36166Y-46180D01*
X36315Y-46180D01*
X36322Y-46180D01*
X36355Y-46180D01*
X36363Y-46180D01*
X36512Y-46180D01*
X36519Y-46180D01*
X36551Y-46180D01*
X36559Y-46180D01*
X36709Y-46180D01*
X36716Y-46180D01*
X36748Y-46180D01*
X36756Y-46180D01*
X36905Y-46180D01*
X36912Y-46180D01*
X36945Y-46180D01*
X36953Y-46180D01*
X37102Y-46180D01*
X37109Y-46180D01*
X37141Y-46180D01*
X37149Y-46180D01*
X37299Y-46180D01*
X37306Y-46180D01*
X37338Y-46180D01*
X37346Y-46180D01*
X37495Y-46180D01*
X37502Y-46180D01*
X37535Y-46180D01*
X37543Y-46180D01*
X37692Y-46180D01*
X37699Y-46180D01*
X37731Y-46180D01*
X37739Y-46180D01*
X37889Y-46180D01*
X37896Y-46180D01*
X37928Y-46180D01*
X37936Y-46180D01*
X38086Y-46180D01*
X38093Y-46180D01*
X38125Y-46180D01*
X38133Y-46180D01*
X38283Y-46180D01*
X38290Y-46180D01*
X38322Y-46180D01*
X38330Y-46180D01*
X38480Y-46180D01*
X38487Y-46180D01*
X38519Y-46180D01*
X38527Y-46180D01*
X38677Y-46180D01*
X38684Y-46180D01*
X38716Y-46180D01*
X38724Y-46180D01*
X38873Y-46180D01*
X38880Y-46180D01*
X38913Y-46180D01*
X38921Y-46180D01*
X39070Y-46180D01*
X39077Y-46180D01*
X39109Y-46180D01*
X39117Y-46180D01*
X39290Y-46180D01*
X39290Y-46889D01*
X39290Y-46889D01*
G37*
G36*
X39333Y-53329D02*
X38894Y-53329D01*
X38894Y-52999D01*
X39333Y-52999D01*
X39333Y-53329D01*
X39333Y-53329D01*
G37*
G36*
X39333Y-53929D02*
X38894Y-53929D01*
X38894Y-53599D01*
X39333Y-53599D01*
X39333Y-53929D01*
X39333Y-53929D01*
G37*
G36*
X39370Y-35236D02*
X39133Y-35236D01*
X39133Y-34920D01*
X39370Y-34920D01*
X39370Y-35236D01*
X39370Y-35236D01*
G37*
G36*
X39392Y-50474D02*
X38953Y-50474D01*
X38953Y-50145D01*
X39392Y-50145D01*
X39392Y-50474D01*
X39392Y-50474D01*
G37*
G36*
X39392Y-51074D02*
X38953Y-51074D01*
X38953Y-50745D01*
X39392Y-50745D01*
X39392Y-51074D01*
X39392Y-51074D01*
G37*
G36*
X39501Y-33181D02*
X39126Y-33556D01*
X38893Y-33323D01*
X39268Y-32948D01*
X39501Y-33181D01*
X39501Y-33181D01*
G37*
G36*
X39527Y-36279D02*
X39291Y-36279D01*
X39291Y-35964D01*
X39527Y-35964D01*
X39527Y-36279D01*
X39527Y-36279D01*
G37*
G36*
X39566Y-37357D02*
X39329Y-37357D01*
X39329Y-37031D01*
X39329Y-37023D01*
X39326Y-37016D01*
X39321Y-37011D01*
X39314Y-37008D01*
X39311Y-37008D01*
X39311Y-36692D01*
X39547Y-36692D01*
X39547Y-37019D01*
X39547Y-37026D01*
X39550Y-37033D01*
X39555Y-37039D01*
X39563Y-37042D01*
X39566Y-37042D01*
X39566Y-37357D01*
X39566Y-37357D01*
G37*
G36*
X39724Y-35236D02*
X39487Y-35236D01*
X39487Y-34920D01*
X39724Y-34920D01*
X39724Y-35236D01*
X39724Y-35236D01*
G37*
G36*
X39724Y-20533D02*
X39330Y-20533D01*
X39330Y-20060D01*
X39724Y-20060D01*
X39724Y-20533D01*
X39724Y-20533D01*
G37*
G36*
X39845Y-53329D02*
X39406Y-53329D01*
X39406Y-52999D01*
X39845Y-52999D01*
X39845Y-53329D01*
X39845Y-53329D01*
G37*
G36*
X39845Y-53929D02*
X39406Y-53929D01*
X39406Y-53599D01*
X39845Y-53599D01*
X39845Y-53929D01*
X39845Y-53929D01*
G37*
G36*
X39881Y-36279D02*
X39645Y-36279D01*
X39645Y-35964D01*
X39881Y-35964D01*
X39881Y-36279D01*
X39881Y-36279D01*
G37*
G36*
X39920Y-37357D02*
X39683Y-37357D01*
X39683Y-37031D01*
X39683Y-37023D01*
X39680Y-37016D01*
X39675Y-37011D01*
X39668Y-37008D01*
X39665Y-37008D01*
X39665Y-36692D01*
X39901Y-36692D01*
X39901Y-37019D01*
X39901Y-37026D01*
X39904Y-37033D01*
X39909Y-37039D01*
X39917Y-37042D01*
X39920Y-37042D01*
X39920Y-37357D01*
X39920Y-37357D01*
G37*
G36*
X39924Y-33605D02*
X39550Y-33979D01*
X39318Y-33747D01*
X39692Y-33373D01*
X39924Y-33605D01*
X39924Y-33605D01*
G37*
G36*
X39970Y-30886D02*
X39797Y-30886D01*
X39789Y-30886D01*
X39757Y-30886D01*
X39750Y-30886D01*
X39600Y-30886D01*
X39592Y-30886D01*
X39560Y-30886D01*
X39553Y-30886D01*
X39403Y-30886D01*
X39395Y-30886D01*
X39364Y-30886D01*
X39356Y-30886D01*
X39182Y-30886D01*
X39182Y-30614D01*
X39182Y-30606D01*
X39182Y-30594D01*
X39182Y-30586D01*
X39182Y-30314D01*
X39356Y-30314D01*
X39364Y-30314D01*
X39395Y-30314D01*
X39403Y-30314D01*
X39553Y-30314D01*
X39560Y-30314D01*
X39592Y-30314D01*
X39600Y-30314D01*
X39750Y-30314D01*
X39757Y-30314D01*
X39789Y-30314D01*
X39797Y-30314D01*
X39970Y-30314D01*
X39970Y-30586D01*
X39970Y-30594D01*
X39970Y-30606D01*
X39970Y-30614D01*
X39970Y-30886D01*
X39970Y-30886D01*
G37*
G36*
X39974Y-21283D02*
X39580Y-21283D01*
X39580Y-20810D01*
X39974Y-20810D01*
X39974Y-21283D01*
X39974Y-21283D01*
G37*
G36*
X40207Y-40141D02*
X39892Y-40141D01*
X39892Y-39904D01*
X40207Y-39904D01*
X40207Y-40141D01*
X40207Y-40141D01*
G37*
G36*
X40207Y-40495D02*
X39892Y-40495D01*
X39892Y-40258D01*
X40207Y-40258D01*
X40207Y-40495D01*
X40207Y-40495D01*
G37*
G36*
X40396Y-53329D02*
X39957Y-53329D01*
X39957Y-52999D01*
X40396Y-52999D01*
X40396Y-53329D01*
X40396Y-53329D01*
G37*
G36*
X40396Y-53929D02*
X39957Y-53929D01*
X39957Y-53599D01*
X40396Y-53599D01*
X40396Y-53929D01*
X40396Y-53929D01*
G37*
G36*
X40474Y-20533D02*
X40080Y-20533D01*
X40080Y-20060D01*
X40474Y-20060D01*
X40474Y-20533D01*
X40474Y-20533D01*
G37*
G36*
X40570Y-40137D02*
X40256Y-40137D01*
X40256Y-39901D01*
X40570Y-39901D01*
X40570Y-40137D01*
X40570Y-40137D01*
G37*
G36*
X40570Y-40491D02*
X40256Y-40491D01*
X40256Y-40255D01*
X40570Y-40255D01*
X40570Y-40491D01*
X40570Y-40491D01*
G37*
G36*
X40691Y-24530D02*
X40362Y-24530D01*
X40362Y-24091D01*
X40691Y-24091D01*
X40691Y-24530D01*
X40691Y-24530D01*
G37*
G36*
X40691Y-25081D02*
X40362Y-25081D01*
X40362Y-24642D01*
X40691Y-24642D01*
X40691Y-25081D01*
X40691Y-25081D01*
G37*
G36*
X40708Y-32520D02*
X40119Y-32520D01*
X40119Y-32363D01*
X40708Y-32363D01*
X40708Y-32520D01*
X40708Y-32520D01*
G37*
G36*
X40708Y-32677D02*
X40119Y-32677D01*
X40119Y-32520D01*
X40708Y-32520D01*
X40708Y-32677D01*
X40708Y-32677D01*
G37*
G36*
X40708Y-32835D02*
X40119Y-32835D01*
X40119Y-32678D01*
X40708Y-32678D01*
X40708Y-32835D01*
X40708Y-32835D01*
G37*
G36*
X40708Y-32992D02*
X40119Y-32992D01*
X40119Y-32835D01*
X40708Y-32835D01*
X40708Y-32992D01*
X40708Y-32992D01*
G37*
G36*
X40708Y-33150D02*
X40119Y-33150D01*
X40119Y-32993D01*
X40708Y-32993D01*
X40708Y-33150D01*
X40708Y-33150D01*
G37*
G36*
X40708Y-33307D02*
X40119Y-33307D01*
X40119Y-33150D01*
X40708Y-33150D01*
X40708Y-33307D01*
X40708Y-33307D01*
G37*
G36*
X40708Y-33465D02*
X40119Y-33465D01*
X40119Y-33308D01*
X40708Y-33308D01*
X40708Y-33465D01*
X40708Y-33465D01*
G37*
G36*
X40708Y-33622D02*
X40119Y-33622D01*
X40119Y-33465D01*
X40708Y-33465D01*
X40708Y-33622D01*
X40708Y-33622D01*
G37*
G36*
X40708Y-33780D02*
X40119Y-33780D01*
X40119Y-33623D01*
X40708Y-33623D01*
X40708Y-33780D01*
X40708Y-33780D01*
G37*
G36*
X40708Y-33937D02*
X40119Y-33937D01*
X40119Y-33780D01*
X40708Y-33780D01*
X40708Y-33937D01*
X40708Y-33937D01*
G37*
G36*
X40708Y-34094D02*
X40119Y-34094D01*
X40119Y-33937D01*
X40708Y-33937D01*
X40708Y-34094D01*
X40708Y-34094D01*
G37*
G36*
X40708Y-34252D02*
X40119Y-34252D01*
X40119Y-34095D01*
X40708Y-34095D01*
X40708Y-34252D01*
X40708Y-34252D01*
G37*
G36*
X40708Y-34409D02*
X40119Y-34409D01*
X40119Y-34252D01*
X40708Y-34252D01*
X40708Y-34409D01*
X40708Y-34409D01*
G37*
G36*
X40708Y-34567D02*
X40119Y-34567D01*
X40119Y-34410D01*
X40708Y-34410D01*
X40708Y-34567D01*
X40708Y-34567D01*
G37*
G36*
X40708Y-34724D02*
X40119Y-34724D01*
X40119Y-34567D01*
X40708Y-34567D01*
X40708Y-34724D01*
X40708Y-34724D01*
G37*
G36*
X40708Y-34882D02*
X40119Y-34882D01*
X40119Y-34725D01*
X40708Y-34725D01*
X40708Y-34882D01*
X40708Y-34882D01*
G37*
G36*
X40708Y-35039D02*
X40119Y-35039D01*
X40119Y-34882D01*
X40708Y-34882D01*
X40708Y-35039D01*
X40708Y-35039D01*
G37*
G36*
X40708Y-35197D02*
X40119Y-35197D01*
X40119Y-35040D01*
X40708Y-35040D01*
X40708Y-35197D01*
X40708Y-35197D01*
G37*
G36*
X40708Y-35354D02*
X40119Y-35354D01*
X40119Y-35197D01*
X40708Y-35197D01*
X40708Y-35354D01*
X40708Y-35354D01*
G37*
G36*
X40708Y-35512D02*
X40119Y-35512D01*
X40119Y-35355D01*
X40708Y-35355D01*
X40708Y-35512D01*
X40708Y-35512D01*
G37*
G36*
X40708Y-35669D02*
X40119Y-35669D01*
X40119Y-35512D01*
X40708Y-35512D01*
X40708Y-35669D01*
X40708Y-35669D01*
G37*
G36*
X40708Y-35983D02*
X40119Y-35983D01*
X40119Y-35827D01*
X40119Y-35826D01*
X40119Y-35670D01*
X40708Y-35670D01*
X40708Y-35826D01*
X40708Y-35827D01*
X40708Y-35983D01*
X40708Y-35983D01*
G37*
G36*
X40708Y-36141D02*
X40119Y-36141D01*
X40119Y-35984D01*
X40708Y-35984D01*
X40708Y-36141D01*
X40708Y-36141D01*
G37*
G36*
X40708Y-36298D02*
X40119Y-36298D01*
X40119Y-36141D01*
X40708Y-36141D01*
X40708Y-36298D01*
X40708Y-36298D01*
G37*
G36*
X40708Y-36456D02*
X40119Y-36456D01*
X40119Y-36299D01*
X40708Y-36299D01*
X40708Y-36456D01*
X40708Y-36456D01*
G37*
G36*
X40708Y-36613D02*
X40119Y-36613D01*
X40119Y-36456D01*
X40708Y-36456D01*
X40708Y-36613D01*
X40708Y-36613D01*
G37*
G36*
X40708Y-36771D02*
X40119Y-36771D01*
X40119Y-36614D01*
X40708Y-36614D01*
X40708Y-36771D01*
X40708Y-36771D01*
G37*
G36*
X40708Y-36928D02*
X40119Y-36928D01*
X40119Y-36771D01*
X40708Y-36771D01*
X40708Y-36928D01*
X40708Y-36928D01*
G37*
G36*
X40708Y-37086D02*
X40119Y-37086D01*
X40119Y-36929D01*
X40708Y-36929D01*
X40708Y-37086D01*
X40708Y-37086D01*
G37*
G36*
X40708Y-37243D02*
X40119Y-37243D01*
X40119Y-37086D01*
X40708Y-37086D01*
X40708Y-37243D01*
X40708Y-37243D01*
G37*
G36*
X40708Y-37401D02*
X40119Y-37401D01*
X40119Y-37244D01*
X40708Y-37244D01*
X40708Y-37401D01*
X40708Y-37401D01*
G37*
G36*
X40708Y-37558D02*
X40119Y-37558D01*
X40119Y-37401D01*
X40708Y-37401D01*
X40708Y-37558D01*
X40708Y-37558D01*
G37*
G36*
X40708Y-37716D02*
X40119Y-37716D01*
X40119Y-37559D01*
X40708Y-37559D01*
X40708Y-37716D01*
X40708Y-37716D01*
G37*
G36*
X40708Y-37873D02*
X40119Y-37873D01*
X40119Y-37716D01*
X40708Y-37716D01*
X40708Y-37873D01*
X40708Y-37873D01*
G37*
G36*
X40708Y-38030D02*
X40119Y-38030D01*
X40119Y-37873D01*
X40708Y-37873D01*
X40708Y-38030D01*
X40708Y-38030D01*
G37*
G36*
X40708Y-38188D02*
X40119Y-38188D01*
X40119Y-38031D01*
X40708Y-38031D01*
X40708Y-38188D01*
X40708Y-38188D01*
G37*
G36*
X40708Y-38345D02*
X40119Y-38345D01*
X40119Y-38188D01*
X40708Y-38188D01*
X40708Y-38345D01*
X40708Y-38345D01*
G37*
G36*
X40708Y-38503D02*
X40119Y-38503D01*
X40119Y-38346D01*
X40708Y-38346D01*
X40708Y-38503D01*
X40708Y-38503D01*
G37*
G36*
X40708Y-38660D02*
X40119Y-38660D01*
X40119Y-38503D01*
X40708Y-38503D01*
X40708Y-38660D01*
X40708Y-38660D01*
G37*
G36*
X40708Y-38818D02*
X40119Y-38818D01*
X40119Y-38661D01*
X40708Y-38661D01*
X40708Y-38818D01*
X40708Y-38818D01*
G37*
G36*
X40708Y-38975D02*
X40119Y-38975D01*
X40119Y-38818D01*
X40708Y-38818D01*
X40708Y-38975D01*
X40708Y-38975D01*
G37*
G36*
X40708Y-39133D02*
X40119Y-39133D01*
X40119Y-38976D01*
X40708Y-38976D01*
X40708Y-39133D01*
X40708Y-39133D01*
G37*
G36*
X40708Y-39290D02*
X40119Y-39290D01*
X40119Y-39133D01*
X40708Y-39133D01*
X40708Y-39290D01*
X40708Y-39290D01*
G37*
G36*
X40724Y-21283D02*
X40330Y-21283D01*
X40330Y-20810D01*
X40724Y-20810D01*
X40724Y-21283D01*
X40724Y-21283D01*
G37*
G36*
X40750Y-23369D02*
X40421Y-23369D01*
X40421Y-22929D01*
X40750Y-22929D01*
X40750Y-23369D01*
X40750Y-23369D01*
G37*
G36*
X40846Y-30896D02*
X40673Y-30896D01*
X40665Y-30896D01*
X40633Y-30896D01*
X40626Y-30896D01*
X40476Y-30896D01*
X40468Y-30896D01*
X40436Y-30896D01*
X40429Y-30896D01*
X40279Y-30896D01*
X40271Y-30896D01*
X40240Y-30896D01*
X40232Y-30896D01*
X40058Y-30896D01*
X40058Y-30623D01*
X40058Y-30616D01*
X40058Y-30604D01*
X40058Y-30596D01*
X40058Y-30324D01*
X40232Y-30324D01*
X40240Y-30324D01*
X40271Y-30324D01*
X40279Y-30324D01*
X40429Y-30324D01*
X40436Y-30324D01*
X40468Y-30324D01*
X40476Y-30324D01*
X40626Y-30324D01*
X40633Y-30324D01*
X40665Y-30324D01*
X40673Y-30324D01*
X40846Y-30324D01*
X40846Y-30596D01*
X40846Y-30604D01*
X40846Y-30616D01*
X40846Y-30623D01*
X40846Y-30896D01*
X40846Y-30896D01*
G37*
G36*
X40947Y-53328D02*
X40508Y-53328D01*
X40508Y-53000D01*
X40947Y-53000D01*
X40947Y-53328D01*
X40947Y-53328D01*
G37*
G36*
X40947Y-53928D02*
X40508Y-53928D01*
X40508Y-53600D01*
X40947Y-53600D01*
X40947Y-53928D01*
X40947Y-53928D01*
G37*
G36*
X40957Y-40140D02*
X40642Y-40140D01*
X40642Y-39905D01*
X40957Y-39905D01*
X40957Y-40140D01*
X40957Y-40140D01*
G37*
G36*
X40957Y-40494D02*
X40642Y-40494D01*
X40642Y-40259D01*
X40957Y-40259D01*
X40957Y-40494D01*
X40957Y-40494D01*
G37*
G36*
X40969Y-43164D02*
X40530Y-43164D01*
X40530Y-42835D01*
X40969Y-42835D01*
X40969Y-43164D01*
X40969Y-43164D01*
G37*
G36*
X40969Y-43764D02*
X40530Y-43764D01*
X40530Y-43435D01*
X40969Y-43435D01*
X40969Y-43764D01*
X40969Y-43764D01*
G37*
G36*
X41019Y-45714D02*
X40580Y-45714D01*
X40580Y-45385D01*
X41019Y-45385D01*
X41019Y-45714D01*
X41019Y-45714D01*
G37*
G36*
X41019Y-46314D02*
X40580Y-46314D01*
X40580Y-45985D01*
X41019Y-45985D01*
X41019Y-46314D01*
X41019Y-46314D01*
G37*
G36*
X41164Y-47108D02*
X40725Y-47108D01*
X40725Y-46779D01*
X41164Y-46779D01*
X41164Y-47108D01*
X41164Y-47108D01*
G37*
G36*
X41164Y-47708D02*
X40725Y-47708D01*
X40725Y-47379D01*
X41164Y-47379D01*
X41164Y-47708D01*
X41164Y-47708D01*
G37*
G36*
X41203Y-48328D02*
X40764Y-48328D01*
X40764Y-48000D01*
X41203Y-48000D01*
X41203Y-48328D01*
X41203Y-48328D01*
G37*
G36*
X41203Y-48928D02*
X40764Y-48928D01*
X40764Y-48600D01*
X41203Y-48600D01*
X41203Y-48928D01*
X41203Y-48928D01*
G37*
G36*
X41224Y-20533D02*
X40830Y-20533D01*
X40830Y-20060D01*
X41224Y-20060D01*
X41224Y-20533D01*
X41224Y-20533D01*
G37*
G36*
X41291Y-24530D02*
X40962Y-24530D01*
X40962Y-24091D01*
X41291Y-24091D01*
X41291Y-24530D01*
X41291Y-24530D01*
G37*
G36*
X41291Y-25081D02*
X40962Y-25081D01*
X40962Y-24642D01*
X41291Y-24642D01*
X41291Y-25081D01*
X41291Y-25081D01*
G37*
G36*
X41309Y-41275D02*
X41142Y-41441D01*
X40920Y-41219D01*
X41087Y-41052D01*
X41309Y-41275D01*
X41309Y-41275D01*
G37*
G36*
X41322Y-27738D02*
X40882Y-27738D01*
X40882Y-27409D01*
X41322Y-27409D01*
X41322Y-27738D01*
X41322Y-27738D01*
G37*
G36*
X41322Y-28338D02*
X40882Y-28338D01*
X40882Y-28009D01*
X41322Y-28009D01*
X41322Y-28338D01*
X41322Y-28338D01*
G37*
G36*
X41350Y-23369D02*
X41021Y-23369D01*
X41021Y-22929D01*
X41350Y-22929D01*
X41350Y-23369D01*
X41350Y-23369D01*
G37*
G36*
X41378Y-40392D02*
X41221Y-40392D01*
X41221Y-39802D01*
X41378Y-39802D01*
X41378Y-40392D01*
X41378Y-40392D01*
G37*
G36*
X41474Y-21283D02*
X41080Y-21283D01*
X41080Y-20810D01*
X41474Y-20810D01*
X41474Y-21283D01*
X41474Y-21283D01*
G37*
G36*
X41535Y-40392D02*
X41378Y-40392D01*
X41378Y-39802D01*
X41535Y-39802D01*
X41535Y-40392D01*
X41535Y-40392D01*
G37*
G36*
X41559Y-41024D02*
X41393Y-41191D01*
X41170Y-40968D01*
X41337Y-40802D01*
X41559Y-41024D01*
X41559Y-41024D01*
G37*
G36*
X41682Y-44005D02*
X41681Y-44029D01*
X41677Y-44049D01*
X41668Y-44068D01*
X41656Y-44086D01*
X41641Y-44100D01*
X41623Y-44111D01*
X41603Y-44119D01*
X41583Y-44123D01*
X41562Y-44122D01*
X41541Y-44118D01*
X41522Y-44109D01*
X41504Y-44097D01*
X41490Y-44082D01*
X41478Y-44065D01*
X41471Y-44045D01*
X41467Y-44024D01*
X41467Y-44003D01*
X41472Y-43983D01*
X41480Y-43963D01*
X41492Y-43946D01*
X41507Y-43931D01*
X41524Y-43920D01*
X41544Y-43912D01*
X41565Y-43908D01*
X41586Y-43908D01*
X41606Y-43912D01*
X41626Y-43920D01*
X41643Y-43932D01*
X41658Y-43947D01*
X41669Y-43965D01*
X41678Y-43984D01*
X41682Y-44005D01*
X41682Y-44005D01*
G37*
G36*
X41682Y-44320D02*
X41681Y-44344D01*
X41677Y-44364D01*
X41668Y-44383D01*
X41656Y-44401D01*
X41641Y-44415D01*
X41623Y-44426D01*
X41603Y-44434D01*
X41583Y-44438D01*
X41562Y-44437D01*
X41541Y-44433D01*
X41522Y-44424D01*
X41504Y-44412D01*
X41490Y-44397D01*
X41478Y-44380D01*
X41471Y-44360D01*
X41467Y-44339D01*
X41467Y-44318D01*
X41472Y-44298D01*
X41480Y-44278D01*
X41492Y-44261D01*
X41507Y-44246D01*
X41524Y-44235D01*
X41544Y-44227D01*
X41565Y-44223D01*
X41586Y-44223D01*
X41606Y-44227D01*
X41626Y-44235D01*
X41643Y-44247D01*
X41658Y-44262D01*
X41669Y-44280D01*
X41678Y-44299D01*
X41682Y-44320D01*
X41682Y-44320D01*
G37*
G36*
X41682Y-44635D02*
X41681Y-44659D01*
X41677Y-44679D01*
X41668Y-44698D01*
X41656Y-44716D01*
X41641Y-44730D01*
X41623Y-44741D01*
X41603Y-44749D01*
X41583Y-44753D01*
X41562Y-44752D01*
X41541Y-44748D01*
X41522Y-44739D01*
X41504Y-44727D01*
X41490Y-44712D01*
X41478Y-44695D01*
X41471Y-44675D01*
X41467Y-44654D01*
X41467Y-44633D01*
X41472Y-44613D01*
X41480Y-44593D01*
X41492Y-44576D01*
X41507Y-44561D01*
X41524Y-44550D01*
X41544Y-44542D01*
X41565Y-44538D01*
X41586Y-44538D01*
X41606Y-44542D01*
X41626Y-44550D01*
X41643Y-44562D01*
X41658Y-44577D01*
X41669Y-44595D01*
X41678Y-44614D01*
X41682Y-44635D01*
X41682Y-44635D01*
G37*
G36*
X41682Y-44950D02*
X41681Y-44974D01*
X41677Y-44994D01*
X41668Y-45013D01*
X41656Y-45031D01*
X41641Y-45045D01*
X41623Y-45056D01*
X41603Y-45064D01*
X41583Y-45068D01*
X41562Y-45067D01*
X41541Y-45063D01*
X41522Y-45054D01*
X41504Y-45042D01*
X41490Y-45027D01*
X41478Y-45010D01*
X41471Y-44990D01*
X41467Y-44969D01*
X41467Y-44948D01*
X41472Y-44928D01*
X41480Y-44908D01*
X41492Y-44891D01*
X41507Y-44876D01*
X41524Y-44865D01*
X41544Y-44857D01*
X41565Y-44853D01*
X41586Y-44853D01*
X41606Y-44857D01*
X41626Y-44865D01*
X41643Y-44877D01*
X41658Y-44892D01*
X41669Y-44910D01*
X41678Y-44929D01*
X41682Y-44950D01*
X41682Y-44950D01*
G37*
G36*
X41682Y-45265D02*
X41681Y-45289D01*
X41677Y-45309D01*
X41668Y-45328D01*
X41656Y-45346D01*
X41641Y-45360D01*
X41623Y-45371D01*
X41603Y-45379D01*
X41583Y-45383D01*
X41562Y-45382D01*
X41541Y-45378D01*
X41522Y-45369D01*
X41504Y-45357D01*
X41490Y-45342D01*
X41478Y-45325D01*
X41471Y-45305D01*
X41467Y-45284D01*
X41467Y-45263D01*
X41472Y-45243D01*
X41480Y-45223D01*
X41492Y-45206D01*
X41507Y-45191D01*
X41524Y-45180D01*
X41544Y-45172D01*
X41565Y-45168D01*
X41586Y-45168D01*
X41606Y-45172D01*
X41626Y-45180D01*
X41643Y-45192D01*
X41658Y-45207D01*
X41669Y-45225D01*
X41678Y-45244D01*
X41682Y-45265D01*
X41682Y-45265D01*
G37*
G36*
X41682Y-45580D02*
X41681Y-45604D01*
X41677Y-45624D01*
X41668Y-45643D01*
X41656Y-45661D01*
X41641Y-45675D01*
X41623Y-45686D01*
X41603Y-45694D01*
X41583Y-45698D01*
X41562Y-45697D01*
X41541Y-45693D01*
X41522Y-45684D01*
X41504Y-45672D01*
X41490Y-45657D01*
X41478Y-45640D01*
X41471Y-45620D01*
X41467Y-45599D01*
X41467Y-45578D01*
X41472Y-45558D01*
X41480Y-45538D01*
X41492Y-45521D01*
X41507Y-45506D01*
X41524Y-45495D01*
X41544Y-45487D01*
X41565Y-45483D01*
X41586Y-45483D01*
X41606Y-45487D01*
X41626Y-45495D01*
X41643Y-45507D01*
X41658Y-45522D01*
X41669Y-45540D01*
X41678Y-45559D01*
X41682Y-45580D01*
X41682Y-45580D01*
G37*
G36*
X41682Y-45895D02*
X41681Y-45919D01*
X41677Y-45939D01*
X41668Y-45958D01*
X41656Y-45976D01*
X41641Y-45990D01*
X41623Y-46001D01*
X41603Y-46009D01*
X41583Y-46013D01*
X41562Y-46012D01*
X41541Y-46008D01*
X41522Y-45999D01*
X41504Y-45987D01*
X41490Y-45972D01*
X41478Y-45955D01*
X41471Y-45935D01*
X41467Y-45914D01*
X41467Y-45893D01*
X41472Y-45873D01*
X41480Y-45853D01*
X41492Y-45836D01*
X41507Y-45821D01*
X41524Y-45810D01*
X41544Y-45802D01*
X41565Y-45798D01*
X41586Y-45798D01*
X41606Y-45802D01*
X41626Y-45810D01*
X41643Y-45822D01*
X41658Y-45837D01*
X41669Y-45855D01*
X41678Y-45874D01*
X41682Y-45895D01*
X41682Y-45895D01*
G37*
G36*
X41682Y-46210D02*
X41681Y-46234D01*
X41677Y-46254D01*
X41668Y-46273D01*
X41656Y-46291D01*
X41641Y-46305D01*
X41623Y-46316D01*
X41603Y-46324D01*
X41583Y-46328D01*
X41562Y-46327D01*
X41541Y-46323D01*
X41522Y-46314D01*
X41504Y-46302D01*
X41490Y-46287D01*
X41478Y-46270D01*
X41471Y-46250D01*
X41467Y-46229D01*
X41467Y-46208D01*
X41472Y-46188D01*
X41480Y-46168D01*
X41492Y-46151D01*
X41507Y-46136D01*
X41524Y-46125D01*
X41544Y-46117D01*
X41565Y-46113D01*
X41586Y-46113D01*
X41606Y-46117D01*
X41626Y-46125D01*
X41643Y-46137D01*
X41658Y-46152D01*
X41669Y-46170D01*
X41678Y-46189D01*
X41682Y-46210D01*
X41682Y-46210D01*
G37*
G36*
X41682Y-46525D02*
X41681Y-46549D01*
X41677Y-46569D01*
X41668Y-46588D01*
X41656Y-46606D01*
X41641Y-46620D01*
X41623Y-46631D01*
X41603Y-46639D01*
X41583Y-46643D01*
X41562Y-46642D01*
X41541Y-46638D01*
X41522Y-46629D01*
X41504Y-46617D01*
X41490Y-46602D01*
X41478Y-46585D01*
X41471Y-46565D01*
X41467Y-46544D01*
X41467Y-46523D01*
X41472Y-46503D01*
X41480Y-46483D01*
X41492Y-46466D01*
X41507Y-46451D01*
X41524Y-46440D01*
X41544Y-46432D01*
X41565Y-46428D01*
X41586Y-46428D01*
X41606Y-46432D01*
X41626Y-46440D01*
X41643Y-46452D01*
X41658Y-46467D01*
X41669Y-46485D01*
X41678Y-46504D01*
X41682Y-46525D01*
X41682Y-46525D01*
G37*
G36*
X41682Y-46840D02*
X41681Y-46864D01*
X41677Y-46884D01*
X41668Y-46903D01*
X41656Y-46921D01*
X41641Y-46935D01*
X41623Y-46946D01*
X41603Y-46954D01*
X41583Y-46958D01*
X41562Y-46957D01*
X41541Y-46953D01*
X41522Y-46944D01*
X41504Y-46932D01*
X41490Y-46917D01*
X41478Y-46900D01*
X41471Y-46880D01*
X41467Y-46859D01*
X41467Y-46838D01*
X41472Y-46818D01*
X41480Y-46798D01*
X41492Y-46781D01*
X41507Y-46766D01*
X41524Y-46755D01*
X41544Y-46747D01*
X41565Y-46743D01*
X41586Y-46743D01*
X41606Y-46747D01*
X41626Y-46755D01*
X41643Y-46767D01*
X41658Y-46782D01*
X41669Y-46800D01*
X41678Y-46819D01*
X41682Y-46840D01*
X41682Y-46840D01*
G37*
G36*
X41682Y-47155D02*
X41681Y-47179D01*
X41677Y-47199D01*
X41668Y-47218D01*
X41656Y-47236D01*
X41641Y-47250D01*
X41623Y-47261D01*
X41603Y-47269D01*
X41583Y-47273D01*
X41562Y-47272D01*
X41541Y-47268D01*
X41522Y-47259D01*
X41504Y-47247D01*
X41490Y-47232D01*
X41478Y-47215D01*
X41471Y-47195D01*
X41467Y-47174D01*
X41467Y-47153D01*
X41472Y-47133D01*
X41480Y-47113D01*
X41492Y-47096D01*
X41507Y-47081D01*
X41524Y-47070D01*
X41544Y-47062D01*
X41565Y-47058D01*
X41586Y-47058D01*
X41606Y-47062D01*
X41626Y-47070D01*
X41643Y-47082D01*
X41658Y-47097D01*
X41669Y-47115D01*
X41678Y-47134D01*
X41682Y-47155D01*
X41682Y-47155D01*
G37*
G36*
X41682Y-47470D02*
X41681Y-47494D01*
X41677Y-47514D01*
X41668Y-47533D01*
X41656Y-47551D01*
X41641Y-47565D01*
X41623Y-47576D01*
X41603Y-47584D01*
X41583Y-47588D01*
X41562Y-47587D01*
X41541Y-47583D01*
X41522Y-47574D01*
X41504Y-47562D01*
X41490Y-47547D01*
X41478Y-47530D01*
X41471Y-47510D01*
X41467Y-47489D01*
X41467Y-47468D01*
X41472Y-47448D01*
X41480Y-47428D01*
X41492Y-47411D01*
X41507Y-47396D01*
X41524Y-47385D01*
X41544Y-47377D01*
X41565Y-47373D01*
X41586Y-47373D01*
X41606Y-47377D01*
X41626Y-47385D01*
X41643Y-47397D01*
X41658Y-47412D01*
X41669Y-47430D01*
X41678Y-47449D01*
X41682Y-47470D01*
X41682Y-47470D01*
G37*
G36*
X41682Y-47785D02*
X41681Y-47809D01*
X41677Y-47829D01*
X41668Y-47848D01*
X41656Y-47866D01*
X41641Y-47880D01*
X41623Y-47891D01*
X41603Y-47899D01*
X41583Y-47903D01*
X41562Y-47902D01*
X41541Y-47898D01*
X41522Y-47889D01*
X41504Y-47877D01*
X41490Y-47862D01*
X41478Y-47845D01*
X41471Y-47825D01*
X41467Y-47804D01*
X41467Y-47783D01*
X41472Y-47763D01*
X41480Y-47743D01*
X41492Y-47726D01*
X41507Y-47711D01*
X41524Y-47700D01*
X41544Y-47692D01*
X41565Y-47688D01*
X41586Y-47688D01*
X41606Y-47692D01*
X41626Y-47700D01*
X41643Y-47712D01*
X41658Y-47727D01*
X41669Y-47745D01*
X41678Y-47764D01*
X41682Y-47785D01*
X41682Y-47785D01*
G37*
G36*
X41693Y-40392D02*
X41536Y-40392D01*
X41536Y-39802D01*
X41693Y-39802D01*
X41693Y-40392D01*
X41693Y-40392D01*
G37*
G36*
X41762Y-30896D02*
X41588Y-30896D01*
X41580Y-30896D01*
X41549Y-30896D01*
X41541Y-30896D01*
X41391Y-30896D01*
X41383Y-30896D01*
X41352Y-30896D01*
X41344Y-30896D01*
X41194Y-30896D01*
X41187Y-30896D01*
X41155Y-30896D01*
X41147Y-30896D01*
X40974Y-30896D01*
X40974Y-30623D01*
X40974Y-30616D01*
X40974Y-30604D01*
X40974Y-30596D01*
X40974Y-30324D01*
X41147Y-30324D01*
X41155Y-30324D01*
X41187Y-30324D01*
X41194Y-30324D01*
X41344Y-30324D01*
X41352Y-30324D01*
X41383Y-30324D01*
X41391Y-30324D01*
X41541Y-30324D01*
X41549Y-30324D01*
X41580Y-30324D01*
X41588Y-30324D01*
X41762Y-30324D01*
X41762Y-30596D01*
X41762Y-30604D01*
X41762Y-30616D01*
X41762Y-30623D01*
X41762Y-30896D01*
X41762Y-30896D01*
G37*
G36*
X41850Y-40392D02*
X41693Y-40392D01*
X41693Y-39802D01*
X41850Y-39802D01*
X41850Y-40392D01*
X41850Y-40392D01*
G37*
G36*
X41974Y-20533D02*
X41580Y-20533D01*
X41580Y-20060D01*
X41974Y-20060D01*
X41974Y-20533D01*
X41974Y-20533D01*
G37*
G36*
X41997Y-44005D02*
X41996Y-44029D01*
X41992Y-44049D01*
X41983Y-44068D01*
X41971Y-44086D01*
X41956Y-44100D01*
X41938Y-44111D01*
X41918Y-44119D01*
X41898Y-44123D01*
X41877Y-44122D01*
X41856Y-44118D01*
X41837Y-44109D01*
X41819Y-44097D01*
X41805Y-44082D01*
X41793Y-44065D01*
X41786Y-44045D01*
X41782Y-44024D01*
X41782Y-44003D01*
X41787Y-43983D01*
X41795Y-43963D01*
X41807Y-43946D01*
X41822Y-43931D01*
X41839Y-43920D01*
X41859Y-43912D01*
X41880Y-43908D01*
X41901Y-43908D01*
X41921Y-43912D01*
X41941Y-43920D01*
X41958Y-43932D01*
X41973Y-43947D01*
X41984Y-43965D01*
X41993Y-43984D01*
X41997Y-44005D01*
X41997Y-44005D01*
G37*
G36*
X41997Y-44320D02*
X41996Y-44344D01*
X41992Y-44364D01*
X41983Y-44383D01*
X41971Y-44401D01*
X41956Y-44415D01*
X41938Y-44426D01*
X41918Y-44434D01*
X41898Y-44438D01*
X41877Y-44437D01*
X41856Y-44433D01*
X41837Y-44424D01*
X41819Y-44412D01*
X41805Y-44397D01*
X41793Y-44380D01*
X41786Y-44360D01*
X41782Y-44339D01*
X41782Y-44318D01*
X41787Y-44298D01*
X41795Y-44278D01*
X41807Y-44261D01*
X41822Y-44246D01*
X41839Y-44235D01*
X41859Y-44227D01*
X41880Y-44223D01*
X41901Y-44223D01*
X41921Y-44227D01*
X41941Y-44235D01*
X41958Y-44247D01*
X41973Y-44262D01*
X41984Y-44280D01*
X41993Y-44299D01*
X41997Y-44320D01*
X41997Y-44320D01*
G37*
G36*
X41997Y-44635D02*
X41996Y-44659D01*
X41992Y-44679D01*
X41983Y-44698D01*
X41971Y-44716D01*
X41956Y-44730D01*
X41938Y-44741D01*
X41918Y-44749D01*
X41898Y-44753D01*
X41877Y-44752D01*
X41856Y-44748D01*
X41837Y-44739D01*
X41819Y-44727D01*
X41805Y-44712D01*
X41793Y-44695D01*
X41786Y-44675D01*
X41782Y-44654D01*
X41782Y-44633D01*
X41787Y-44613D01*
X41795Y-44593D01*
X41807Y-44576D01*
X41822Y-44561D01*
X41839Y-44550D01*
X41859Y-44542D01*
X41880Y-44538D01*
X41901Y-44538D01*
X41921Y-44542D01*
X41941Y-44550D01*
X41958Y-44562D01*
X41973Y-44577D01*
X41984Y-44595D01*
X41993Y-44614D01*
X41997Y-44635D01*
X41997Y-44635D01*
G37*
G36*
X41997Y-44950D02*
X41996Y-44974D01*
X41992Y-44994D01*
X41983Y-45013D01*
X41971Y-45031D01*
X41956Y-45045D01*
X41938Y-45056D01*
X41918Y-45064D01*
X41898Y-45068D01*
X41877Y-45067D01*
X41856Y-45063D01*
X41837Y-45054D01*
X41819Y-45042D01*
X41805Y-45027D01*
X41793Y-45010D01*
X41786Y-44990D01*
X41782Y-44969D01*
X41782Y-44948D01*
X41787Y-44928D01*
X41795Y-44908D01*
X41807Y-44891D01*
X41822Y-44876D01*
X41839Y-44865D01*
X41859Y-44857D01*
X41880Y-44853D01*
X41901Y-44853D01*
X41921Y-44857D01*
X41941Y-44865D01*
X41958Y-44877D01*
X41973Y-44892D01*
X41984Y-44910D01*
X41993Y-44929D01*
X41997Y-44950D01*
X41997Y-44950D01*
G37*
G36*
X41997Y-45265D02*
X41996Y-45289D01*
X41992Y-45309D01*
X41983Y-45328D01*
X41971Y-45346D01*
X41956Y-45360D01*
X41938Y-45371D01*
X41918Y-45379D01*
X41898Y-45383D01*
X41877Y-45382D01*
X41856Y-45378D01*
X41837Y-45369D01*
X41819Y-45357D01*
X41805Y-45342D01*
X41793Y-45325D01*
X41786Y-45305D01*
X41782Y-45284D01*
X41782Y-45263D01*
X41787Y-45243D01*
X41795Y-45223D01*
X41807Y-45206D01*
X41822Y-45191D01*
X41839Y-45180D01*
X41859Y-45172D01*
X41880Y-45168D01*
X41901Y-45168D01*
X41921Y-45172D01*
X41941Y-45180D01*
X41958Y-45192D01*
X41973Y-45207D01*
X41984Y-45225D01*
X41993Y-45244D01*
X41997Y-45265D01*
X41997Y-45265D01*
G37*
G36*
X41997Y-45580D02*
X41996Y-45604D01*
X41992Y-45624D01*
X41983Y-45643D01*
X41971Y-45661D01*
X41956Y-45675D01*
X41938Y-45686D01*
X41918Y-45694D01*
X41898Y-45698D01*
X41877Y-45697D01*
X41856Y-45693D01*
X41837Y-45684D01*
X41819Y-45672D01*
X41805Y-45657D01*
X41793Y-45640D01*
X41786Y-45620D01*
X41782Y-45599D01*
X41782Y-45578D01*
X41787Y-45558D01*
X41795Y-45538D01*
X41807Y-45521D01*
X41822Y-45506D01*
X41839Y-45495D01*
X41859Y-45487D01*
X41880Y-45483D01*
X41901Y-45483D01*
X41921Y-45487D01*
X41941Y-45495D01*
X41958Y-45507D01*
X41973Y-45522D01*
X41984Y-45540D01*
X41993Y-45559D01*
X41997Y-45580D01*
X41997Y-45580D01*
G37*
G36*
X41997Y-45895D02*
X41996Y-45919D01*
X41992Y-45939D01*
X41983Y-45958D01*
X41971Y-45976D01*
X41956Y-45990D01*
X41938Y-46001D01*
X41918Y-46009D01*
X41898Y-46013D01*
X41877Y-46012D01*
X41856Y-46008D01*
X41837Y-45999D01*
X41819Y-45987D01*
X41805Y-45972D01*
X41793Y-45955D01*
X41786Y-45935D01*
X41782Y-45914D01*
X41782Y-45893D01*
X41787Y-45873D01*
X41795Y-45853D01*
X41807Y-45836D01*
X41822Y-45821D01*
X41839Y-45810D01*
X41859Y-45802D01*
X41880Y-45798D01*
X41901Y-45798D01*
X41921Y-45802D01*
X41941Y-45810D01*
X41958Y-45822D01*
X41973Y-45837D01*
X41984Y-45855D01*
X41993Y-45874D01*
X41997Y-45895D01*
X41997Y-45895D01*
G37*
G36*
X41997Y-46210D02*
X41996Y-46234D01*
X41992Y-46254D01*
X41983Y-46273D01*
X41971Y-46291D01*
X41956Y-46305D01*
X41938Y-46316D01*
X41918Y-46324D01*
X41898Y-46328D01*
X41877Y-46327D01*
X41856Y-46323D01*
X41837Y-46314D01*
X41819Y-46302D01*
X41805Y-46287D01*
X41793Y-46270D01*
X41786Y-46250D01*
X41782Y-46229D01*
X41782Y-46208D01*
X41787Y-46188D01*
X41795Y-46168D01*
X41807Y-46151D01*
X41822Y-46136D01*
X41839Y-46125D01*
X41859Y-46117D01*
X41880Y-46113D01*
X41901Y-46113D01*
X41921Y-46117D01*
X41941Y-46125D01*
X41958Y-46137D01*
X41973Y-46152D01*
X41984Y-46170D01*
X41993Y-46189D01*
X41997Y-46210D01*
X41997Y-46210D01*
G37*
G36*
X41997Y-46525D02*
X41996Y-46549D01*
X41992Y-46569D01*
X41983Y-46588D01*
X41971Y-46606D01*
X41956Y-46620D01*
X41938Y-46631D01*
X41918Y-46639D01*
X41898Y-46643D01*
X41877Y-46642D01*
X41856Y-46638D01*
X41837Y-46629D01*
X41819Y-46617D01*
X41805Y-46602D01*
X41793Y-46585D01*
X41786Y-46565D01*
X41782Y-46544D01*
X41782Y-46523D01*
X41787Y-46503D01*
X41795Y-46483D01*
X41807Y-46466D01*
X41822Y-46451D01*
X41839Y-46440D01*
X41859Y-46432D01*
X41880Y-46428D01*
X41901Y-46428D01*
X41921Y-46432D01*
X41941Y-46440D01*
X41958Y-46452D01*
X41973Y-46467D01*
X41984Y-46485D01*
X41993Y-46504D01*
X41997Y-46525D01*
X41997Y-46525D01*
G37*
G36*
X41997Y-46840D02*
X41996Y-46864D01*
X41992Y-46884D01*
X41983Y-46903D01*
X41971Y-46921D01*
X41956Y-46935D01*
X41938Y-46946D01*
X41918Y-46954D01*
X41898Y-46958D01*
X41877Y-46957D01*
X41856Y-46953D01*
X41837Y-46944D01*
X41819Y-46932D01*
X41805Y-46917D01*
X41793Y-46900D01*
X41786Y-46880D01*
X41782Y-46859D01*
X41782Y-46838D01*
X41787Y-46818D01*
X41795Y-46798D01*
X41807Y-46781D01*
X41822Y-46766D01*
X41839Y-46755D01*
X41859Y-46747D01*
X41880Y-46743D01*
X41901Y-46743D01*
X41921Y-46747D01*
X41941Y-46755D01*
X41958Y-46767D01*
X41973Y-46782D01*
X41984Y-46800D01*
X41993Y-46819D01*
X41997Y-46840D01*
X41997Y-46840D01*
G37*
G36*
X41997Y-47155D02*
X41996Y-47179D01*
X41992Y-47199D01*
X41983Y-47218D01*
X41971Y-47236D01*
X41956Y-47250D01*
X41938Y-47261D01*
X41918Y-47269D01*
X41898Y-47273D01*
X41877Y-47272D01*
X41856Y-47268D01*
X41837Y-47259D01*
X41819Y-47247D01*
X41805Y-47232D01*
X41793Y-47215D01*
X41786Y-47195D01*
X41782Y-47174D01*
X41782Y-47153D01*
X41787Y-47133D01*
X41795Y-47113D01*
X41807Y-47096D01*
X41822Y-47081D01*
X41839Y-47070D01*
X41859Y-47062D01*
X41880Y-47058D01*
X41901Y-47058D01*
X41921Y-47062D01*
X41941Y-47070D01*
X41958Y-47082D01*
X41973Y-47097D01*
X41984Y-47115D01*
X41993Y-47134D01*
X41997Y-47155D01*
X41997Y-47155D01*
G37*
G36*
X41997Y-47470D02*
X41996Y-47494D01*
X41992Y-47514D01*
X41983Y-47533D01*
X41971Y-47551D01*
X41956Y-47565D01*
X41938Y-47576D01*
X41918Y-47584D01*
X41898Y-47588D01*
X41877Y-47587D01*
X41856Y-47583D01*
X41837Y-47574D01*
X41819Y-47562D01*
X41805Y-47547D01*
X41793Y-47530D01*
X41786Y-47510D01*
X41782Y-47489D01*
X41782Y-47468D01*
X41787Y-47448D01*
X41795Y-47428D01*
X41807Y-47411D01*
X41822Y-47396D01*
X41839Y-47385D01*
X41859Y-47377D01*
X41880Y-47373D01*
X41901Y-47373D01*
X41921Y-47377D01*
X41941Y-47385D01*
X41958Y-47397D01*
X41973Y-47412D01*
X41984Y-47430D01*
X41993Y-47449D01*
X41997Y-47470D01*
X41997Y-47470D01*
G37*
G36*
X41997Y-47785D02*
X41996Y-47809D01*
X41992Y-47829D01*
X41983Y-47848D01*
X41971Y-47866D01*
X41956Y-47880D01*
X41938Y-47891D01*
X41918Y-47899D01*
X41898Y-47903D01*
X41877Y-47902D01*
X41856Y-47898D01*
X41837Y-47889D01*
X41819Y-47877D01*
X41805Y-47862D01*
X41793Y-47845D01*
X41786Y-47825D01*
X41782Y-47804D01*
X41782Y-47783D01*
X41787Y-47763D01*
X41795Y-47743D01*
X41807Y-47726D01*
X41822Y-47711D01*
X41839Y-47700D01*
X41859Y-47692D01*
X41880Y-47688D01*
X41901Y-47688D01*
X41921Y-47692D01*
X41941Y-47700D01*
X41958Y-47712D01*
X41973Y-47727D01*
X41984Y-47745D01*
X41993Y-47764D01*
X41997Y-47785D01*
X41997Y-47785D01*
G37*
G36*
X42008Y-40392D02*
X41851Y-40392D01*
X41851Y-39802D01*
X42008Y-39802D01*
X42008Y-40392D01*
X42008Y-40392D01*
G37*
G36*
X42089Y-23625D02*
X41759Y-23625D01*
X41759Y-23185D01*
X42089Y-23185D01*
X42089Y-23625D01*
X42089Y-23625D01*
G37*
G36*
X42094Y-42114D02*
X41655Y-42114D01*
X41655Y-41785D01*
X42094Y-41785D01*
X42094Y-42114D01*
X42094Y-42114D01*
G37*
G36*
X42094Y-42714D02*
X41655Y-42714D01*
X41655Y-42385D01*
X42094Y-42385D01*
X42094Y-42714D01*
X42094Y-42714D01*
G37*
G36*
X42165Y-40392D02*
X42008Y-40392D01*
X42008Y-39802D01*
X42165Y-39802D01*
X42165Y-40392D01*
X42165Y-40392D01*
G37*
G36*
X42187Y-24333D02*
X41858Y-24333D01*
X41858Y-23894D01*
X42187Y-23894D01*
X42187Y-24333D01*
X42187Y-24333D01*
G37*
G36*
X42207Y-24983D02*
X41877Y-24983D01*
X41877Y-24544D01*
X42207Y-24544D01*
X42207Y-24983D01*
X42207Y-24983D01*
G37*
G36*
X42207Y-25593D02*
X41877Y-25593D01*
X41877Y-25154D01*
X42207Y-25154D01*
X42207Y-25593D01*
X42207Y-25593D01*
G37*
G36*
X42224Y-21283D02*
X41830Y-21283D01*
X41830Y-20810D01*
X42224Y-20810D01*
X42224Y-21283D01*
X42224Y-21283D01*
G37*
G36*
X42246Y-22837D02*
X41917Y-22837D01*
X41917Y-22398D01*
X42246Y-22398D01*
X42246Y-22837D01*
X42246Y-22837D01*
G37*
G36*
X42312Y-44005D02*
X42311Y-44029D01*
X42307Y-44049D01*
X42298Y-44068D01*
X42286Y-44086D01*
X42271Y-44100D01*
X42253Y-44111D01*
X42233Y-44119D01*
X42213Y-44123D01*
X42192Y-44122D01*
X42171Y-44118D01*
X42152Y-44109D01*
X42134Y-44097D01*
X42120Y-44082D01*
X42108Y-44065D01*
X42101Y-44045D01*
X42097Y-44024D01*
X42097Y-44003D01*
X42102Y-43983D01*
X42110Y-43963D01*
X42122Y-43946D01*
X42137Y-43931D01*
X42154Y-43920D01*
X42174Y-43912D01*
X42195Y-43908D01*
X42216Y-43908D01*
X42236Y-43912D01*
X42256Y-43920D01*
X42273Y-43932D01*
X42288Y-43947D01*
X42299Y-43965D01*
X42308Y-43984D01*
X42312Y-44005D01*
X42312Y-44005D01*
G37*
G36*
X42312Y-44320D02*
X42311Y-44344D01*
X42307Y-44364D01*
X42298Y-44383D01*
X42286Y-44401D01*
X42271Y-44415D01*
X42253Y-44426D01*
X42233Y-44434D01*
X42213Y-44438D01*
X42192Y-44437D01*
X42171Y-44433D01*
X42152Y-44424D01*
X42134Y-44412D01*
X42120Y-44397D01*
X42108Y-44380D01*
X42101Y-44360D01*
X42097Y-44339D01*
X42097Y-44318D01*
X42102Y-44298D01*
X42110Y-44278D01*
X42122Y-44261D01*
X42137Y-44246D01*
X42154Y-44235D01*
X42174Y-44227D01*
X42195Y-44223D01*
X42216Y-44223D01*
X42236Y-44227D01*
X42256Y-44235D01*
X42273Y-44247D01*
X42288Y-44262D01*
X42299Y-44280D01*
X42308Y-44299D01*
X42312Y-44320D01*
X42312Y-44320D01*
G37*
G36*
X42312Y-44635D02*
X42311Y-44659D01*
X42307Y-44679D01*
X42298Y-44698D01*
X42286Y-44716D01*
X42271Y-44730D01*
X42253Y-44741D01*
X42233Y-44749D01*
X42213Y-44753D01*
X42192Y-44752D01*
X42171Y-44748D01*
X42152Y-44739D01*
X42134Y-44727D01*
X42120Y-44712D01*
X42108Y-44695D01*
X42101Y-44675D01*
X42097Y-44654D01*
X42097Y-44633D01*
X42102Y-44613D01*
X42110Y-44593D01*
X42122Y-44576D01*
X42137Y-44561D01*
X42154Y-44550D01*
X42174Y-44542D01*
X42195Y-44538D01*
X42216Y-44538D01*
X42236Y-44542D01*
X42256Y-44550D01*
X42273Y-44562D01*
X42288Y-44577D01*
X42299Y-44595D01*
X42308Y-44614D01*
X42312Y-44635D01*
X42312Y-44635D01*
G37*
G36*
X42312Y-44950D02*
X42311Y-44974D01*
X42307Y-44994D01*
X42298Y-45013D01*
X42286Y-45031D01*
X42271Y-45045D01*
X42253Y-45056D01*
X42233Y-45064D01*
X42213Y-45068D01*
X42192Y-45067D01*
X42171Y-45063D01*
X42152Y-45054D01*
X42134Y-45042D01*
X42120Y-45027D01*
X42108Y-45010D01*
X42101Y-44990D01*
X42097Y-44969D01*
X42097Y-44948D01*
X42102Y-44928D01*
X42110Y-44908D01*
X42122Y-44891D01*
X42137Y-44876D01*
X42154Y-44865D01*
X42174Y-44857D01*
X42195Y-44853D01*
X42216Y-44853D01*
X42236Y-44857D01*
X42256Y-44865D01*
X42273Y-44877D01*
X42288Y-44892D01*
X42299Y-44910D01*
X42308Y-44929D01*
X42312Y-44950D01*
X42312Y-44950D01*
G37*
G36*
X42312Y-45265D02*
X42311Y-45289D01*
X42307Y-45309D01*
X42298Y-45328D01*
X42286Y-45346D01*
X42271Y-45360D01*
X42253Y-45371D01*
X42233Y-45379D01*
X42213Y-45383D01*
X42192Y-45382D01*
X42171Y-45378D01*
X42152Y-45369D01*
X42134Y-45357D01*
X42120Y-45342D01*
X42108Y-45325D01*
X42101Y-45305D01*
X42097Y-45284D01*
X42097Y-45263D01*
X42102Y-45243D01*
X42110Y-45223D01*
X42122Y-45206D01*
X42137Y-45191D01*
X42154Y-45180D01*
X42174Y-45172D01*
X42195Y-45168D01*
X42216Y-45168D01*
X42236Y-45172D01*
X42256Y-45180D01*
X42273Y-45192D01*
X42288Y-45207D01*
X42299Y-45225D01*
X42308Y-45244D01*
X42312Y-45265D01*
X42312Y-45265D01*
G37*
G36*
X42312Y-45580D02*
X42311Y-45604D01*
X42307Y-45624D01*
X42298Y-45643D01*
X42286Y-45661D01*
X42271Y-45675D01*
X42253Y-45686D01*
X42233Y-45694D01*
X42213Y-45698D01*
X42192Y-45697D01*
X42171Y-45693D01*
X42152Y-45684D01*
X42134Y-45672D01*
X42120Y-45657D01*
X42108Y-45640D01*
X42101Y-45620D01*
X42097Y-45599D01*
X42097Y-45578D01*
X42102Y-45558D01*
X42110Y-45538D01*
X42122Y-45521D01*
X42137Y-45506D01*
X42154Y-45495D01*
X42174Y-45487D01*
X42195Y-45483D01*
X42216Y-45483D01*
X42236Y-45487D01*
X42256Y-45495D01*
X42273Y-45507D01*
X42288Y-45522D01*
X42299Y-45540D01*
X42308Y-45559D01*
X42312Y-45580D01*
X42312Y-45580D01*
G37*
G36*
X42312Y-45895D02*
X42311Y-45919D01*
X42307Y-45939D01*
X42298Y-45958D01*
X42286Y-45976D01*
X42271Y-45990D01*
X42253Y-46001D01*
X42233Y-46009D01*
X42213Y-46013D01*
X42192Y-46012D01*
X42171Y-46008D01*
X42152Y-45999D01*
X42134Y-45987D01*
X42120Y-45972D01*
X42108Y-45955D01*
X42101Y-45935D01*
X42097Y-45914D01*
X42097Y-45893D01*
X42102Y-45873D01*
X42110Y-45853D01*
X42122Y-45836D01*
X42137Y-45821D01*
X42154Y-45810D01*
X42174Y-45802D01*
X42195Y-45798D01*
X42216Y-45798D01*
X42236Y-45802D01*
X42256Y-45810D01*
X42273Y-45822D01*
X42288Y-45837D01*
X42299Y-45855D01*
X42308Y-45874D01*
X42312Y-45895D01*
X42312Y-45895D01*
G37*
G36*
X42312Y-46210D02*
X42311Y-46234D01*
X42307Y-46254D01*
X42298Y-46273D01*
X42286Y-46291D01*
X42271Y-46305D01*
X42253Y-46316D01*
X42233Y-46324D01*
X42213Y-46328D01*
X42192Y-46327D01*
X42171Y-46323D01*
X42152Y-46314D01*
X42134Y-46302D01*
X42120Y-46287D01*
X42108Y-46270D01*
X42101Y-46250D01*
X42097Y-46229D01*
X42097Y-46208D01*
X42102Y-46188D01*
X42110Y-46168D01*
X42122Y-46151D01*
X42137Y-46136D01*
X42154Y-46125D01*
X42174Y-46117D01*
X42195Y-46113D01*
X42216Y-46113D01*
X42236Y-46117D01*
X42256Y-46125D01*
X42273Y-46137D01*
X42288Y-46152D01*
X42299Y-46170D01*
X42308Y-46189D01*
X42312Y-46210D01*
X42312Y-46210D01*
G37*
G36*
X42312Y-46525D02*
X42311Y-46549D01*
X42307Y-46569D01*
X42298Y-46588D01*
X42286Y-46606D01*
X42271Y-46620D01*
X42253Y-46631D01*
X42233Y-46639D01*
X42213Y-46643D01*
X42192Y-46642D01*
X42171Y-46638D01*
X42152Y-46629D01*
X42134Y-46617D01*
X42120Y-46602D01*
X42108Y-46585D01*
X42101Y-46565D01*
X42097Y-46544D01*
X42097Y-46523D01*
X42102Y-46503D01*
X42110Y-46483D01*
X42122Y-46466D01*
X42137Y-46451D01*
X42154Y-46440D01*
X42174Y-46432D01*
X42195Y-46428D01*
X42216Y-46428D01*
X42236Y-46432D01*
X42256Y-46440D01*
X42273Y-46452D01*
X42288Y-46467D01*
X42299Y-46485D01*
X42308Y-46504D01*
X42312Y-46525D01*
X42312Y-46525D01*
G37*
G36*
X42312Y-46840D02*
X42311Y-46864D01*
X42307Y-46884D01*
X42298Y-46903D01*
X42286Y-46921D01*
X42271Y-46935D01*
X42253Y-46946D01*
X42233Y-46954D01*
X42213Y-46958D01*
X42192Y-46957D01*
X42171Y-46953D01*
X42152Y-46944D01*
X42134Y-46932D01*
X42120Y-46917D01*
X42108Y-46900D01*
X42101Y-46880D01*
X42097Y-46859D01*
X42097Y-46838D01*
X42102Y-46818D01*
X42110Y-46798D01*
X42122Y-46781D01*
X42137Y-46766D01*
X42154Y-46755D01*
X42174Y-46747D01*
X42195Y-46743D01*
X42216Y-46743D01*
X42236Y-46747D01*
X42256Y-46755D01*
X42273Y-46767D01*
X42288Y-46782D01*
X42299Y-46800D01*
X42308Y-46819D01*
X42312Y-46840D01*
X42312Y-46840D01*
G37*
G36*
X42312Y-47155D02*
X42311Y-47179D01*
X42307Y-47199D01*
X42298Y-47218D01*
X42286Y-47236D01*
X42271Y-47250D01*
X42253Y-47261D01*
X42233Y-47269D01*
X42213Y-47273D01*
X42192Y-47272D01*
X42171Y-47268D01*
X42152Y-47259D01*
X42134Y-47247D01*
X42120Y-47232D01*
X42108Y-47215D01*
X42101Y-47195D01*
X42097Y-47174D01*
X42097Y-47153D01*
X42102Y-47133D01*
X42110Y-47113D01*
X42122Y-47096D01*
X42137Y-47081D01*
X42154Y-47070D01*
X42174Y-47062D01*
X42195Y-47058D01*
X42216Y-47058D01*
X42236Y-47062D01*
X42256Y-47070D01*
X42273Y-47082D01*
X42288Y-47097D01*
X42299Y-47115D01*
X42308Y-47134D01*
X42312Y-47155D01*
X42312Y-47155D01*
G37*
G36*
X42312Y-47470D02*
X42311Y-47494D01*
X42307Y-47514D01*
X42298Y-47533D01*
X42286Y-47551D01*
X42271Y-47565D01*
X42253Y-47576D01*
X42233Y-47584D01*
X42213Y-47588D01*
X42192Y-47587D01*
X42171Y-47583D01*
X42152Y-47574D01*
X42134Y-47562D01*
X42120Y-47547D01*
X42108Y-47530D01*
X42101Y-47510D01*
X42097Y-47489D01*
X42097Y-47468D01*
X42102Y-47448D01*
X42110Y-47428D01*
X42122Y-47411D01*
X42137Y-47396D01*
X42154Y-47385D01*
X42174Y-47377D01*
X42195Y-47373D01*
X42216Y-47373D01*
X42236Y-47377D01*
X42256Y-47385D01*
X42273Y-47397D01*
X42288Y-47412D01*
X42299Y-47430D01*
X42308Y-47449D01*
X42312Y-47470D01*
X42312Y-47470D01*
G37*
G36*
X42312Y-47785D02*
X42311Y-47809D01*
X42307Y-47829D01*
X42298Y-47848D01*
X42286Y-47866D01*
X42271Y-47880D01*
X42253Y-47891D01*
X42233Y-47899D01*
X42213Y-47903D01*
X42192Y-47902D01*
X42171Y-47898D01*
X42152Y-47889D01*
X42134Y-47877D01*
X42120Y-47862D01*
X42108Y-47845D01*
X42101Y-47825D01*
X42097Y-47804D01*
X42097Y-47783D01*
X42102Y-47763D01*
X42110Y-47743D01*
X42122Y-47726D01*
X42137Y-47711D01*
X42154Y-47700D01*
X42174Y-47692D01*
X42195Y-47688D01*
X42216Y-47688D01*
X42236Y-47692D01*
X42256Y-47700D01*
X42273Y-47712D01*
X42288Y-47727D01*
X42299Y-47745D01*
X42308Y-47764D01*
X42312Y-47785D01*
X42312Y-47785D01*
G37*
G36*
X42323Y-40392D02*
X42166Y-40392D01*
X42166Y-39802D01*
X42323Y-39802D01*
X42323Y-40392D01*
X42323Y-40392D01*
G37*
G36*
X42480Y-40392D02*
X42323Y-40392D01*
X42323Y-39802D01*
X42480Y-39802D01*
X42480Y-40392D01*
X42480Y-40392D01*
G37*
G36*
X42638Y-40392D02*
X42481Y-40392D01*
X42481Y-39802D01*
X42638Y-39802D01*
X42638Y-40392D01*
X42638Y-40392D01*
G37*
G36*
X42689Y-23625D02*
X42359Y-23625D01*
X42359Y-23185D01*
X42689Y-23185D01*
X42689Y-23625D01*
X42689Y-23625D01*
G37*
G36*
X42724Y-20533D02*
X42330Y-20533D01*
X42330Y-20060D01*
X42724Y-20060D01*
X42724Y-20533D01*
X42724Y-20533D01*
G37*
G36*
X42787Y-24333D02*
X42458Y-24333D01*
X42458Y-23894D01*
X42787Y-23894D01*
X42787Y-24333D01*
X42787Y-24333D01*
G37*
G36*
X42795Y-40392D02*
X42638Y-40392D01*
X42638Y-39802D01*
X42795Y-39802D01*
X42795Y-40392D01*
X42795Y-40392D01*
G37*
G36*
X42807Y-24983D02*
X42477Y-24983D01*
X42477Y-24544D01*
X42807Y-24544D01*
X42807Y-24983D01*
X42807Y-24983D01*
G37*
G36*
X42807Y-25593D02*
X42477Y-25593D01*
X42477Y-25154D01*
X42807Y-25154D01*
X42807Y-25593D01*
X42807Y-25593D01*
G37*
G36*
X42846Y-22837D02*
X42517Y-22837D01*
X42517Y-22398D01*
X42846Y-22398D01*
X42846Y-22837D01*
X42846Y-22837D01*
G37*
G36*
X42952Y-40392D02*
X42795Y-40392D01*
X42795Y-39802D01*
X42952Y-39802D01*
X42952Y-40392D01*
X42952Y-40392D01*
G37*
G36*
X42952Y-40885D02*
X42637Y-40885D01*
X42637Y-40650D01*
X42952Y-40650D01*
X42952Y-40885D01*
X42952Y-40885D01*
G37*
G36*
X42952Y-41239D02*
X42637Y-41239D01*
X42637Y-41004D01*
X42952Y-41004D01*
X42952Y-41239D01*
X42952Y-41239D01*
G37*
G36*
X42974Y-21283D02*
X42580Y-21283D01*
X42580Y-20810D01*
X42974Y-20810D01*
X42974Y-21283D01*
X42974Y-21283D01*
G37*
G36*
X43074Y-42490D02*
X42877Y-42490D01*
X42680Y-42490D01*
X42483Y-42490D01*
X42286Y-42490D01*
X42286Y-42214D01*
X42483Y-42214D01*
X42680Y-42214D01*
X42877Y-42214D01*
X43074Y-42214D01*
X43074Y-42490D01*
X43074Y-42490D01*
G37*
G36*
X43074Y-42785D02*
X42877Y-42785D01*
X42680Y-42785D01*
X42483Y-42785D01*
X42286Y-42785D01*
X42286Y-42509D01*
X42483Y-42509D01*
X42680Y-42509D01*
X42877Y-42509D01*
X43074Y-42509D01*
X43074Y-42785D01*
X43074Y-42785D01*
G37*
G36*
X43110Y-40392D02*
X42953Y-40392D01*
X42953Y-39802D01*
X43110Y-39802D01*
X43110Y-40392D01*
X43110Y-40392D01*
G37*
G36*
X43267Y-40392D02*
X43110Y-40392D01*
X43110Y-39802D01*
X43267Y-39802D01*
X43267Y-40392D01*
X43267Y-40392D01*
G37*
G36*
X43407Y-42440D02*
X43092Y-42440D01*
X43092Y-42205D01*
X43407Y-42205D01*
X43407Y-42440D01*
X43407Y-42440D01*
G37*
G36*
X43407Y-42794D02*
X43092Y-42794D01*
X43092Y-42559D01*
X43407Y-42559D01*
X43407Y-42794D01*
X43407Y-42794D01*
G37*
G36*
X43425Y-40392D02*
X43268Y-40392D01*
X43268Y-39802D01*
X43425Y-39802D01*
X43425Y-40392D01*
X43425Y-40392D01*
G37*
G36*
X43464Y-40885D02*
X43149Y-40885D01*
X43149Y-40650D01*
X43464Y-40650D01*
X43464Y-40885D01*
X43464Y-40885D01*
G37*
G36*
X43464Y-41239D02*
X43149Y-41239D01*
X43149Y-41004D01*
X43464Y-41004D01*
X43464Y-41239D01*
X43464Y-41239D01*
G37*
G36*
X43497Y-20661D02*
X43057Y-20661D01*
X43057Y-20332D01*
X43497Y-20332D01*
X43497Y-20661D01*
X43497Y-20661D01*
G37*
G36*
X43497Y-21261D02*
X43057Y-21261D01*
X43057Y-20932D01*
X43497Y-20932D01*
X43497Y-21261D01*
X43497Y-21261D01*
G37*
G36*
X43563Y-30384D02*
X43389Y-30384D01*
X43381Y-30384D01*
X43350Y-30384D01*
X43342Y-30384D01*
X43192Y-30384D01*
X43185Y-30384D01*
X43153Y-30384D01*
X43145Y-30384D01*
X42995Y-30384D01*
X42988Y-30384D01*
X42956Y-30384D01*
X42948Y-30384D01*
X42775Y-30384D01*
X42775Y-30112D01*
X42775Y-30104D01*
X42775Y-30092D01*
X42775Y-30084D01*
X42775Y-29812D01*
X42948Y-29812D01*
X42956Y-29812D01*
X42988Y-29812D01*
X42995Y-29812D01*
X43145Y-29812D01*
X43153Y-29812D01*
X43185Y-29812D01*
X43192Y-29812D01*
X43342Y-29812D01*
X43350Y-29812D01*
X43381Y-29812D01*
X43389Y-29812D01*
X43563Y-29812D01*
X43563Y-30084D01*
X43563Y-30092D01*
X43563Y-30104D01*
X43563Y-30112D01*
X43563Y-30384D01*
X43563Y-30384D01*
G37*
G36*
X43572Y-44005D02*
X43571Y-44029D01*
X43567Y-44049D01*
X43558Y-44068D01*
X43546Y-44086D01*
X43531Y-44100D01*
X43513Y-44111D01*
X43493Y-44119D01*
X43473Y-44123D01*
X43452Y-44122D01*
X43431Y-44118D01*
X43412Y-44109D01*
X43394Y-44097D01*
X43380Y-44082D01*
X43368Y-44065D01*
X43361Y-44045D01*
X43357Y-44024D01*
X43357Y-44003D01*
X43362Y-43983D01*
X43370Y-43963D01*
X43382Y-43946D01*
X43397Y-43931D01*
X43414Y-43920D01*
X43434Y-43912D01*
X43455Y-43908D01*
X43476Y-43908D01*
X43496Y-43912D01*
X43516Y-43920D01*
X43533Y-43932D01*
X43548Y-43947D01*
X43560Y-43965D01*
X43568Y-43984D01*
X43572Y-44005D01*
X43572Y-44005D01*
G37*
G36*
X43572Y-44320D02*
X43571Y-44344D01*
X43567Y-44364D01*
X43558Y-44383D01*
X43546Y-44401D01*
X43531Y-44415D01*
X43513Y-44426D01*
X43493Y-44434D01*
X43473Y-44438D01*
X43452Y-44437D01*
X43431Y-44433D01*
X43412Y-44424D01*
X43394Y-44412D01*
X43380Y-44397D01*
X43368Y-44380D01*
X43361Y-44360D01*
X43357Y-44339D01*
X43357Y-44318D01*
X43362Y-44298D01*
X43370Y-44278D01*
X43382Y-44261D01*
X43397Y-44246D01*
X43414Y-44235D01*
X43434Y-44227D01*
X43455Y-44223D01*
X43476Y-44223D01*
X43496Y-44227D01*
X43516Y-44235D01*
X43533Y-44247D01*
X43548Y-44262D01*
X43560Y-44280D01*
X43568Y-44299D01*
X43572Y-44320D01*
X43572Y-44320D01*
G37*
G36*
X43572Y-44635D02*
X43571Y-44659D01*
X43567Y-44679D01*
X43558Y-44698D01*
X43546Y-44716D01*
X43531Y-44730D01*
X43513Y-44741D01*
X43493Y-44749D01*
X43473Y-44753D01*
X43452Y-44752D01*
X43431Y-44748D01*
X43412Y-44739D01*
X43394Y-44727D01*
X43380Y-44712D01*
X43368Y-44695D01*
X43361Y-44675D01*
X43357Y-44654D01*
X43357Y-44633D01*
X43362Y-44613D01*
X43370Y-44593D01*
X43382Y-44576D01*
X43397Y-44561D01*
X43414Y-44550D01*
X43434Y-44542D01*
X43455Y-44538D01*
X43476Y-44538D01*
X43496Y-44542D01*
X43516Y-44550D01*
X43533Y-44562D01*
X43548Y-44577D01*
X43560Y-44595D01*
X43568Y-44614D01*
X43572Y-44635D01*
X43572Y-44635D01*
G37*
G36*
X43572Y-44950D02*
X43571Y-44974D01*
X43567Y-44994D01*
X43558Y-45013D01*
X43546Y-45031D01*
X43531Y-45045D01*
X43513Y-45056D01*
X43493Y-45064D01*
X43473Y-45068D01*
X43452Y-45067D01*
X43431Y-45063D01*
X43412Y-45054D01*
X43394Y-45042D01*
X43380Y-45027D01*
X43368Y-45010D01*
X43361Y-44990D01*
X43357Y-44969D01*
X43357Y-44948D01*
X43362Y-44928D01*
X43370Y-44908D01*
X43382Y-44891D01*
X43397Y-44876D01*
X43414Y-44865D01*
X43434Y-44857D01*
X43455Y-44853D01*
X43476Y-44853D01*
X43496Y-44857D01*
X43516Y-44865D01*
X43533Y-44877D01*
X43548Y-44892D01*
X43560Y-44910D01*
X43568Y-44929D01*
X43572Y-44950D01*
X43572Y-44950D01*
G37*
G36*
X43572Y-45265D02*
X43571Y-45289D01*
X43567Y-45309D01*
X43558Y-45328D01*
X43546Y-45346D01*
X43531Y-45360D01*
X43513Y-45371D01*
X43493Y-45379D01*
X43473Y-45383D01*
X43452Y-45382D01*
X43431Y-45378D01*
X43412Y-45369D01*
X43394Y-45357D01*
X43380Y-45342D01*
X43368Y-45325D01*
X43361Y-45305D01*
X43357Y-45284D01*
X43357Y-45263D01*
X43362Y-45243D01*
X43370Y-45223D01*
X43382Y-45206D01*
X43397Y-45191D01*
X43414Y-45180D01*
X43434Y-45172D01*
X43455Y-45168D01*
X43476Y-45168D01*
X43496Y-45172D01*
X43516Y-45180D01*
X43533Y-45192D01*
X43548Y-45207D01*
X43560Y-45225D01*
X43568Y-45244D01*
X43572Y-45265D01*
X43572Y-45265D01*
G37*
G36*
X43572Y-45580D02*
X43571Y-45604D01*
X43567Y-45624D01*
X43558Y-45643D01*
X43546Y-45661D01*
X43531Y-45675D01*
X43513Y-45686D01*
X43493Y-45694D01*
X43473Y-45698D01*
X43452Y-45697D01*
X43431Y-45693D01*
X43412Y-45684D01*
X43394Y-45672D01*
X43380Y-45657D01*
X43368Y-45640D01*
X43361Y-45620D01*
X43357Y-45599D01*
X43357Y-45578D01*
X43362Y-45558D01*
X43370Y-45538D01*
X43382Y-45521D01*
X43397Y-45506D01*
X43414Y-45495D01*
X43434Y-45487D01*
X43455Y-45483D01*
X43476Y-45483D01*
X43496Y-45487D01*
X43516Y-45495D01*
X43533Y-45507D01*
X43548Y-45522D01*
X43560Y-45540D01*
X43568Y-45559D01*
X43572Y-45580D01*
X43572Y-45580D01*
G37*
G36*
X43572Y-45895D02*
X43571Y-45919D01*
X43567Y-45939D01*
X43558Y-45958D01*
X43546Y-45976D01*
X43531Y-45990D01*
X43513Y-46001D01*
X43493Y-46009D01*
X43473Y-46013D01*
X43452Y-46012D01*
X43431Y-46008D01*
X43412Y-45999D01*
X43394Y-45987D01*
X43380Y-45972D01*
X43368Y-45955D01*
X43361Y-45935D01*
X43357Y-45914D01*
X43357Y-45893D01*
X43362Y-45873D01*
X43370Y-45853D01*
X43382Y-45836D01*
X43397Y-45821D01*
X43414Y-45810D01*
X43434Y-45802D01*
X43455Y-45798D01*
X43476Y-45798D01*
X43496Y-45802D01*
X43516Y-45810D01*
X43533Y-45822D01*
X43548Y-45837D01*
X43560Y-45855D01*
X43568Y-45874D01*
X43572Y-45895D01*
X43572Y-45895D01*
G37*
G36*
X43572Y-46210D02*
X43571Y-46234D01*
X43567Y-46254D01*
X43558Y-46273D01*
X43546Y-46291D01*
X43531Y-46305D01*
X43513Y-46316D01*
X43493Y-46324D01*
X43473Y-46328D01*
X43452Y-46327D01*
X43431Y-46323D01*
X43412Y-46314D01*
X43394Y-46302D01*
X43380Y-46287D01*
X43368Y-46270D01*
X43361Y-46250D01*
X43357Y-46229D01*
X43357Y-46208D01*
X43362Y-46188D01*
X43370Y-46168D01*
X43382Y-46151D01*
X43397Y-46136D01*
X43414Y-46125D01*
X43434Y-46117D01*
X43455Y-46113D01*
X43476Y-46113D01*
X43496Y-46117D01*
X43516Y-46125D01*
X43533Y-46137D01*
X43548Y-46152D01*
X43560Y-46170D01*
X43568Y-46189D01*
X43572Y-46210D01*
X43572Y-46210D01*
G37*
G36*
X43572Y-46525D02*
X43571Y-46549D01*
X43567Y-46569D01*
X43558Y-46588D01*
X43546Y-46606D01*
X43531Y-46620D01*
X43513Y-46631D01*
X43493Y-46639D01*
X43473Y-46643D01*
X43452Y-46642D01*
X43431Y-46638D01*
X43412Y-46629D01*
X43394Y-46617D01*
X43380Y-46602D01*
X43368Y-46585D01*
X43361Y-46565D01*
X43357Y-46544D01*
X43357Y-46523D01*
X43362Y-46503D01*
X43370Y-46483D01*
X43382Y-46466D01*
X43397Y-46451D01*
X43414Y-46440D01*
X43434Y-46432D01*
X43455Y-46428D01*
X43476Y-46428D01*
X43496Y-46432D01*
X43516Y-46440D01*
X43533Y-46452D01*
X43548Y-46467D01*
X43560Y-46485D01*
X43568Y-46504D01*
X43572Y-46525D01*
X43572Y-46525D01*
G37*
G36*
X43572Y-46840D02*
X43571Y-46864D01*
X43567Y-46884D01*
X43558Y-46903D01*
X43546Y-46921D01*
X43531Y-46935D01*
X43513Y-46946D01*
X43493Y-46954D01*
X43473Y-46958D01*
X43452Y-46957D01*
X43431Y-46953D01*
X43412Y-46944D01*
X43394Y-46932D01*
X43380Y-46917D01*
X43368Y-46900D01*
X43361Y-46880D01*
X43357Y-46859D01*
X43357Y-46838D01*
X43362Y-46818D01*
X43370Y-46798D01*
X43382Y-46781D01*
X43397Y-46766D01*
X43414Y-46755D01*
X43434Y-46747D01*
X43455Y-46743D01*
X43476Y-46743D01*
X43496Y-46747D01*
X43516Y-46755D01*
X43533Y-46767D01*
X43548Y-46782D01*
X43560Y-46800D01*
X43568Y-46819D01*
X43572Y-46840D01*
X43572Y-46840D01*
G37*
G36*
X43572Y-47155D02*
X43571Y-47179D01*
X43567Y-47199D01*
X43558Y-47218D01*
X43546Y-47236D01*
X43531Y-47250D01*
X43513Y-47261D01*
X43493Y-47269D01*
X43473Y-47273D01*
X43452Y-47272D01*
X43431Y-47268D01*
X43412Y-47259D01*
X43394Y-47247D01*
X43380Y-47232D01*
X43368Y-47215D01*
X43361Y-47195D01*
X43357Y-47174D01*
X43357Y-47153D01*
X43362Y-47133D01*
X43370Y-47113D01*
X43382Y-47096D01*
X43397Y-47081D01*
X43414Y-47070D01*
X43434Y-47062D01*
X43455Y-47058D01*
X43476Y-47058D01*
X43496Y-47062D01*
X43516Y-47070D01*
X43533Y-47082D01*
X43548Y-47097D01*
X43560Y-47115D01*
X43568Y-47134D01*
X43572Y-47155D01*
X43572Y-47155D01*
G37*
G36*
X43572Y-47470D02*
X43571Y-47494D01*
X43567Y-47514D01*
X43558Y-47533D01*
X43546Y-47551D01*
X43531Y-47565D01*
X43513Y-47576D01*
X43493Y-47584D01*
X43473Y-47588D01*
X43452Y-47587D01*
X43431Y-47583D01*
X43412Y-47574D01*
X43394Y-47562D01*
X43380Y-47547D01*
X43368Y-47530D01*
X43361Y-47510D01*
X43357Y-47489D01*
X43357Y-47468D01*
X43362Y-47448D01*
X43370Y-47428D01*
X43382Y-47411D01*
X43397Y-47396D01*
X43414Y-47385D01*
X43434Y-47377D01*
X43455Y-47373D01*
X43476Y-47373D01*
X43496Y-47377D01*
X43516Y-47385D01*
X43533Y-47397D01*
X43548Y-47412D01*
X43560Y-47430D01*
X43568Y-47449D01*
X43572Y-47470D01*
X43572Y-47470D01*
G37*
G36*
X43572Y-47785D02*
X43571Y-47809D01*
X43567Y-47829D01*
X43558Y-47848D01*
X43546Y-47866D01*
X43531Y-47880D01*
X43513Y-47891D01*
X43493Y-47899D01*
X43473Y-47903D01*
X43452Y-47902D01*
X43431Y-47898D01*
X43412Y-47889D01*
X43394Y-47877D01*
X43380Y-47862D01*
X43368Y-47845D01*
X43361Y-47825D01*
X43357Y-47804D01*
X43357Y-47783D01*
X43362Y-47763D01*
X43370Y-47743D01*
X43382Y-47726D01*
X43397Y-47711D01*
X43414Y-47700D01*
X43434Y-47692D01*
X43455Y-47688D01*
X43476Y-47688D01*
X43496Y-47692D01*
X43516Y-47700D01*
X43533Y-47712D01*
X43548Y-47727D01*
X43560Y-47745D01*
X43568Y-47764D01*
X43572Y-47785D01*
X43572Y-47785D01*
G37*
G36*
X43582Y-40392D02*
X43425Y-40392D01*
X43425Y-39802D01*
X43582Y-39802D01*
X43582Y-40392D01*
X43582Y-40392D01*
G37*
G36*
X43740Y-40392D02*
X43583Y-40392D01*
X43583Y-39802D01*
X43740Y-39802D01*
X43740Y-40392D01*
X43740Y-40392D01*
G37*
G36*
X43757Y-42440D02*
X43442Y-42440D01*
X43442Y-42205D01*
X43757Y-42205D01*
X43757Y-42440D01*
X43757Y-42440D01*
G37*
G36*
X43757Y-42794D02*
X43442Y-42794D01*
X43442Y-42559D01*
X43757Y-42559D01*
X43757Y-42794D01*
X43757Y-42794D01*
G37*
G36*
X43802Y-22955D02*
X43362Y-22955D01*
X43362Y-22625D01*
X43802Y-22625D01*
X43802Y-22955D01*
X43802Y-22955D01*
G37*
G36*
X43802Y-23555D02*
X43362Y-23555D01*
X43362Y-23225D01*
X43802Y-23225D01*
X43802Y-23555D01*
X43802Y-23555D01*
G37*
G36*
X43887Y-44005D02*
X43886Y-44029D01*
X43882Y-44049D01*
X43873Y-44068D01*
X43861Y-44086D01*
X43846Y-44100D01*
X43828Y-44111D01*
X43808Y-44119D01*
X43788Y-44123D01*
X43767Y-44122D01*
X43746Y-44118D01*
X43727Y-44109D01*
X43709Y-44097D01*
X43695Y-44082D01*
X43683Y-44065D01*
X43676Y-44045D01*
X43672Y-44024D01*
X43672Y-44003D01*
X43677Y-43983D01*
X43685Y-43963D01*
X43697Y-43946D01*
X43712Y-43931D01*
X43729Y-43920D01*
X43749Y-43912D01*
X43770Y-43908D01*
X43791Y-43908D01*
X43811Y-43912D01*
X43831Y-43920D01*
X43848Y-43932D01*
X43863Y-43947D01*
X43875Y-43965D01*
X43883Y-43984D01*
X43887Y-44005D01*
X43887Y-44005D01*
G37*
G36*
X43887Y-44320D02*
X43886Y-44344D01*
X43882Y-44364D01*
X43873Y-44383D01*
X43861Y-44401D01*
X43846Y-44415D01*
X43828Y-44426D01*
X43808Y-44434D01*
X43788Y-44438D01*
X43767Y-44437D01*
X43746Y-44433D01*
X43727Y-44424D01*
X43709Y-44412D01*
X43695Y-44397D01*
X43683Y-44380D01*
X43676Y-44360D01*
X43672Y-44339D01*
X43672Y-44318D01*
X43677Y-44298D01*
X43685Y-44278D01*
X43697Y-44261D01*
X43712Y-44246D01*
X43729Y-44235D01*
X43749Y-44227D01*
X43770Y-44223D01*
X43791Y-44223D01*
X43811Y-44227D01*
X43831Y-44235D01*
X43848Y-44247D01*
X43863Y-44262D01*
X43875Y-44280D01*
X43883Y-44299D01*
X43887Y-44320D01*
X43887Y-44320D01*
G37*
G36*
X43887Y-44635D02*
X43886Y-44659D01*
X43882Y-44679D01*
X43873Y-44698D01*
X43861Y-44716D01*
X43846Y-44730D01*
X43828Y-44741D01*
X43808Y-44749D01*
X43788Y-44753D01*
X43767Y-44752D01*
X43746Y-44748D01*
X43727Y-44739D01*
X43709Y-44727D01*
X43695Y-44712D01*
X43683Y-44695D01*
X43676Y-44675D01*
X43672Y-44654D01*
X43672Y-44633D01*
X43677Y-44613D01*
X43685Y-44593D01*
X43697Y-44576D01*
X43712Y-44561D01*
X43729Y-44550D01*
X43749Y-44542D01*
X43770Y-44538D01*
X43791Y-44538D01*
X43811Y-44542D01*
X43831Y-44550D01*
X43848Y-44562D01*
X43863Y-44577D01*
X43875Y-44595D01*
X43883Y-44614D01*
X43887Y-44635D01*
X43887Y-44635D01*
G37*
G36*
X43887Y-44950D02*
X43886Y-44974D01*
X43882Y-44994D01*
X43873Y-45013D01*
X43861Y-45031D01*
X43846Y-45045D01*
X43828Y-45056D01*
X43808Y-45064D01*
X43788Y-45068D01*
X43767Y-45067D01*
X43746Y-45063D01*
X43727Y-45054D01*
X43709Y-45042D01*
X43695Y-45027D01*
X43683Y-45010D01*
X43676Y-44990D01*
X43672Y-44969D01*
X43672Y-44948D01*
X43677Y-44928D01*
X43685Y-44908D01*
X43697Y-44891D01*
X43712Y-44876D01*
X43729Y-44865D01*
X43749Y-44857D01*
X43770Y-44853D01*
X43791Y-44853D01*
X43811Y-44857D01*
X43831Y-44865D01*
X43848Y-44877D01*
X43863Y-44892D01*
X43875Y-44910D01*
X43883Y-44929D01*
X43887Y-44950D01*
X43887Y-44950D01*
G37*
G36*
X43887Y-45265D02*
X43886Y-45289D01*
X43882Y-45309D01*
X43873Y-45328D01*
X43861Y-45346D01*
X43846Y-45360D01*
X43828Y-45371D01*
X43808Y-45379D01*
X43788Y-45383D01*
X43767Y-45382D01*
X43746Y-45378D01*
X43727Y-45369D01*
X43709Y-45357D01*
X43695Y-45342D01*
X43683Y-45325D01*
X43676Y-45305D01*
X43672Y-45284D01*
X43672Y-45263D01*
X43677Y-45243D01*
X43685Y-45223D01*
X43697Y-45206D01*
X43712Y-45191D01*
X43729Y-45180D01*
X43749Y-45172D01*
X43770Y-45168D01*
X43791Y-45168D01*
X43811Y-45172D01*
X43831Y-45180D01*
X43848Y-45192D01*
X43863Y-45207D01*
X43875Y-45225D01*
X43883Y-45244D01*
X43887Y-45265D01*
X43887Y-45265D01*
G37*
G36*
X43887Y-45580D02*
X43886Y-45604D01*
X43882Y-45624D01*
X43873Y-45643D01*
X43861Y-45661D01*
X43846Y-45675D01*
X43828Y-45686D01*
X43808Y-45694D01*
X43788Y-45698D01*
X43767Y-45697D01*
X43746Y-45693D01*
X43727Y-45684D01*
X43709Y-45672D01*
X43695Y-45657D01*
X43683Y-45640D01*
X43676Y-45620D01*
X43672Y-45599D01*
X43672Y-45578D01*
X43677Y-45558D01*
X43685Y-45538D01*
X43697Y-45521D01*
X43712Y-45506D01*
X43729Y-45495D01*
X43749Y-45487D01*
X43770Y-45483D01*
X43791Y-45483D01*
X43811Y-45487D01*
X43831Y-45495D01*
X43848Y-45507D01*
X43863Y-45522D01*
X43875Y-45540D01*
X43883Y-45559D01*
X43887Y-45580D01*
X43887Y-45580D01*
G37*
G36*
X43887Y-45895D02*
X43886Y-45919D01*
X43882Y-45939D01*
X43873Y-45958D01*
X43861Y-45976D01*
X43846Y-45990D01*
X43828Y-46001D01*
X43808Y-46009D01*
X43788Y-46013D01*
X43767Y-46012D01*
X43746Y-46008D01*
X43727Y-45999D01*
X43709Y-45987D01*
X43695Y-45972D01*
X43683Y-45955D01*
X43676Y-45935D01*
X43672Y-45914D01*
X43672Y-45893D01*
X43677Y-45873D01*
X43685Y-45853D01*
X43697Y-45836D01*
X43712Y-45821D01*
X43729Y-45810D01*
X43749Y-45802D01*
X43770Y-45798D01*
X43791Y-45798D01*
X43811Y-45802D01*
X43831Y-45810D01*
X43848Y-45822D01*
X43863Y-45837D01*
X43875Y-45855D01*
X43883Y-45874D01*
X43887Y-45895D01*
X43887Y-45895D01*
G37*
G36*
X43887Y-46210D02*
X43886Y-46234D01*
X43882Y-46254D01*
X43873Y-46273D01*
X43861Y-46291D01*
X43846Y-46305D01*
X43828Y-46316D01*
X43808Y-46324D01*
X43788Y-46328D01*
X43767Y-46327D01*
X43746Y-46323D01*
X43727Y-46314D01*
X43709Y-46302D01*
X43695Y-46287D01*
X43683Y-46270D01*
X43676Y-46250D01*
X43672Y-46229D01*
X43672Y-46208D01*
X43677Y-46188D01*
X43685Y-46168D01*
X43697Y-46151D01*
X43712Y-46136D01*
X43729Y-46125D01*
X43749Y-46117D01*
X43770Y-46113D01*
X43791Y-46113D01*
X43811Y-46117D01*
X43831Y-46125D01*
X43848Y-46137D01*
X43863Y-46152D01*
X43875Y-46170D01*
X43883Y-46189D01*
X43887Y-46210D01*
X43887Y-46210D01*
G37*
G36*
X43887Y-46525D02*
X43886Y-46549D01*
X43882Y-46569D01*
X43873Y-46588D01*
X43861Y-46606D01*
X43846Y-46620D01*
X43828Y-46631D01*
X43808Y-46639D01*
X43788Y-46643D01*
X43767Y-46642D01*
X43746Y-46638D01*
X43727Y-46629D01*
X43709Y-46617D01*
X43695Y-46602D01*
X43683Y-46585D01*
X43676Y-46565D01*
X43672Y-46544D01*
X43672Y-46523D01*
X43677Y-46503D01*
X43685Y-46483D01*
X43697Y-46466D01*
X43712Y-46451D01*
X43729Y-46440D01*
X43749Y-46432D01*
X43770Y-46428D01*
X43791Y-46428D01*
X43811Y-46432D01*
X43831Y-46440D01*
X43848Y-46452D01*
X43863Y-46467D01*
X43875Y-46485D01*
X43883Y-46504D01*
X43887Y-46525D01*
X43887Y-46525D01*
G37*
G36*
X43887Y-46840D02*
X43886Y-46864D01*
X43882Y-46884D01*
X43873Y-46903D01*
X43861Y-46921D01*
X43846Y-46935D01*
X43828Y-46946D01*
X43808Y-46954D01*
X43788Y-46958D01*
X43767Y-46957D01*
X43746Y-46953D01*
X43727Y-46944D01*
X43709Y-46932D01*
X43695Y-46917D01*
X43683Y-46900D01*
X43676Y-46880D01*
X43672Y-46859D01*
X43672Y-46838D01*
X43677Y-46818D01*
X43685Y-46798D01*
X43697Y-46781D01*
X43712Y-46766D01*
X43729Y-46755D01*
X43749Y-46747D01*
X43770Y-46743D01*
X43791Y-46743D01*
X43811Y-46747D01*
X43831Y-46755D01*
X43848Y-46767D01*
X43863Y-46782D01*
X43875Y-46800D01*
X43883Y-46819D01*
X43887Y-46840D01*
X43887Y-46840D01*
G37*
G36*
X43887Y-47155D02*
X43886Y-47179D01*
X43882Y-47199D01*
X43873Y-47218D01*
X43861Y-47236D01*
X43846Y-47250D01*
X43828Y-47261D01*
X43808Y-47269D01*
X43788Y-47273D01*
X43767Y-47272D01*
X43746Y-47268D01*
X43727Y-47259D01*
X43709Y-47247D01*
X43695Y-47232D01*
X43683Y-47215D01*
X43676Y-47195D01*
X43672Y-47174D01*
X43672Y-47153D01*
X43677Y-47133D01*
X43685Y-47113D01*
X43697Y-47096D01*
X43712Y-47081D01*
X43729Y-47070D01*
X43749Y-47062D01*
X43770Y-47058D01*
X43791Y-47058D01*
X43811Y-47062D01*
X43831Y-47070D01*
X43848Y-47082D01*
X43863Y-47097D01*
X43875Y-47115D01*
X43883Y-47134D01*
X43887Y-47155D01*
X43887Y-47155D01*
G37*
G36*
X43887Y-47470D02*
X43886Y-47494D01*
X43882Y-47514D01*
X43873Y-47533D01*
X43861Y-47551D01*
X43846Y-47565D01*
X43828Y-47576D01*
X43808Y-47584D01*
X43788Y-47588D01*
X43767Y-47587D01*
X43746Y-47583D01*
X43727Y-47574D01*
X43709Y-47562D01*
X43695Y-47547D01*
X43683Y-47530D01*
X43676Y-47510D01*
X43672Y-47489D01*
X43672Y-47468D01*
X43677Y-47448D01*
X43685Y-47428D01*
X43697Y-47411D01*
X43712Y-47396D01*
X43729Y-47385D01*
X43749Y-47377D01*
X43770Y-47373D01*
X43791Y-47373D01*
X43811Y-47377D01*
X43831Y-47385D01*
X43848Y-47397D01*
X43863Y-47412D01*
X43875Y-47430D01*
X43883Y-47449D01*
X43887Y-47470D01*
X43887Y-47470D01*
G37*
G36*
X43887Y-47785D02*
X43886Y-47809D01*
X43882Y-47829D01*
X43873Y-47848D01*
X43861Y-47866D01*
X43846Y-47880D01*
X43828Y-47891D01*
X43808Y-47899D01*
X43788Y-47903D01*
X43767Y-47902D01*
X43746Y-47898D01*
X43727Y-47889D01*
X43709Y-47877D01*
X43695Y-47862D01*
X43683Y-47845D01*
X43676Y-47825D01*
X43672Y-47804D01*
X43672Y-47783D01*
X43677Y-47763D01*
X43685Y-47743D01*
X43697Y-47726D01*
X43712Y-47711D01*
X43729Y-47700D01*
X43749Y-47692D01*
X43770Y-47688D01*
X43791Y-47688D01*
X43811Y-47692D01*
X43831Y-47700D01*
X43848Y-47712D01*
X43863Y-47727D01*
X43875Y-47745D01*
X43883Y-47764D01*
X43887Y-47785D01*
X43887Y-47785D01*
G37*
G36*
X43897Y-40392D02*
X43740Y-40392D01*
X43740Y-39802D01*
X43897Y-39802D01*
X43897Y-40392D01*
X43897Y-40392D01*
G37*
G36*
X43978Y-26499D02*
X43649Y-26499D01*
X43649Y-26059D01*
X43978Y-26059D01*
X43978Y-26499D01*
X43978Y-26499D01*
G37*
G36*
X43994Y-20537D02*
X43600Y-20537D01*
X43600Y-20064D01*
X43994Y-20064D01*
X43994Y-20537D01*
X43994Y-20537D01*
G37*
G36*
X43998Y-25889D02*
X43669Y-25889D01*
X43669Y-25449D01*
X43998Y-25449D01*
X43998Y-25889D01*
X43998Y-25889D01*
G37*
G36*
X44055Y-40392D02*
X43898Y-40392D01*
X43898Y-39802D01*
X44055Y-39802D01*
X44055Y-40392D01*
X44055Y-40392D01*
G37*
G36*
X44107Y-42440D02*
X43792Y-42440D01*
X43792Y-42205D01*
X44107Y-42205D01*
X44107Y-42440D01*
X44107Y-42440D01*
G37*
G36*
X44107Y-42794D02*
X43792Y-42794D01*
X43792Y-42559D01*
X44107Y-42559D01*
X44107Y-42794D01*
X44107Y-42794D01*
G37*
G36*
X44202Y-44005D02*
X44201Y-44029D01*
X44197Y-44049D01*
X44188Y-44068D01*
X44176Y-44086D01*
X44161Y-44100D01*
X44143Y-44111D01*
X44123Y-44119D01*
X44103Y-44123D01*
X44082Y-44122D01*
X44061Y-44118D01*
X44042Y-44109D01*
X44024Y-44097D01*
X44010Y-44082D01*
X43998Y-44065D01*
X43991Y-44045D01*
X43987Y-44024D01*
X43987Y-44003D01*
X43992Y-43983D01*
X44000Y-43963D01*
X44012Y-43946D01*
X44027Y-43931D01*
X44044Y-43920D01*
X44064Y-43912D01*
X44085Y-43908D01*
X44106Y-43908D01*
X44126Y-43912D01*
X44146Y-43920D01*
X44163Y-43932D01*
X44178Y-43947D01*
X44190Y-43965D01*
X44198Y-43984D01*
X44202Y-44005D01*
X44202Y-44005D01*
G37*
G36*
X44202Y-44320D02*
X44201Y-44344D01*
X44197Y-44364D01*
X44188Y-44383D01*
X44176Y-44401D01*
X44161Y-44415D01*
X44143Y-44426D01*
X44123Y-44434D01*
X44103Y-44438D01*
X44082Y-44437D01*
X44061Y-44433D01*
X44042Y-44424D01*
X44024Y-44412D01*
X44010Y-44397D01*
X43998Y-44380D01*
X43991Y-44360D01*
X43987Y-44339D01*
X43987Y-44318D01*
X43992Y-44298D01*
X44000Y-44278D01*
X44012Y-44261D01*
X44027Y-44246D01*
X44044Y-44235D01*
X44064Y-44227D01*
X44085Y-44223D01*
X44106Y-44223D01*
X44126Y-44227D01*
X44146Y-44235D01*
X44163Y-44247D01*
X44178Y-44262D01*
X44190Y-44280D01*
X44198Y-44299D01*
X44202Y-44320D01*
X44202Y-44320D01*
G37*
G36*
X44202Y-44635D02*
X44201Y-44659D01*
X44197Y-44679D01*
X44188Y-44698D01*
X44176Y-44716D01*
X44161Y-44730D01*
X44143Y-44741D01*
X44123Y-44749D01*
X44103Y-44753D01*
X44082Y-44752D01*
X44061Y-44748D01*
X44042Y-44739D01*
X44024Y-44727D01*
X44010Y-44712D01*
X43998Y-44695D01*
X43991Y-44675D01*
X43987Y-44654D01*
X43987Y-44633D01*
X43992Y-44613D01*
X44000Y-44593D01*
X44012Y-44576D01*
X44027Y-44561D01*
X44044Y-44550D01*
X44064Y-44542D01*
X44085Y-44538D01*
X44106Y-44538D01*
X44126Y-44542D01*
X44146Y-44550D01*
X44163Y-44562D01*
X44178Y-44577D01*
X44190Y-44595D01*
X44198Y-44614D01*
X44202Y-44635D01*
X44202Y-44635D01*
G37*
G36*
X44202Y-44950D02*
X44201Y-44974D01*
X44197Y-44994D01*
X44188Y-45013D01*
X44176Y-45031D01*
X44161Y-45045D01*
X44143Y-45056D01*
X44123Y-45064D01*
X44103Y-45068D01*
X44082Y-45067D01*
X44061Y-45063D01*
X44042Y-45054D01*
X44024Y-45042D01*
X44010Y-45027D01*
X43998Y-45010D01*
X43991Y-44990D01*
X43987Y-44969D01*
X43987Y-44948D01*
X43992Y-44928D01*
X44000Y-44908D01*
X44012Y-44891D01*
X44027Y-44876D01*
X44044Y-44865D01*
X44064Y-44857D01*
X44085Y-44853D01*
X44106Y-44853D01*
X44126Y-44857D01*
X44146Y-44865D01*
X44163Y-44877D01*
X44178Y-44892D01*
X44190Y-44910D01*
X44198Y-44929D01*
X44202Y-44950D01*
X44202Y-44950D01*
G37*
G36*
X44202Y-45265D02*
X44201Y-45289D01*
X44197Y-45309D01*
X44188Y-45328D01*
X44176Y-45346D01*
X44161Y-45360D01*
X44143Y-45371D01*
X44123Y-45379D01*
X44103Y-45383D01*
X44082Y-45382D01*
X44061Y-45378D01*
X44042Y-45369D01*
X44024Y-45357D01*
X44010Y-45342D01*
X43998Y-45325D01*
X43991Y-45305D01*
X43987Y-45284D01*
X43987Y-45263D01*
X43992Y-45243D01*
X44000Y-45223D01*
X44012Y-45206D01*
X44027Y-45191D01*
X44044Y-45180D01*
X44064Y-45172D01*
X44085Y-45168D01*
X44106Y-45168D01*
X44126Y-45172D01*
X44146Y-45180D01*
X44163Y-45192D01*
X44178Y-45207D01*
X44190Y-45225D01*
X44198Y-45244D01*
X44202Y-45265D01*
X44202Y-45265D01*
G37*
G36*
X44202Y-45580D02*
X44201Y-45604D01*
X44197Y-45624D01*
X44188Y-45643D01*
X44176Y-45661D01*
X44161Y-45675D01*
X44143Y-45686D01*
X44123Y-45694D01*
X44103Y-45698D01*
X44082Y-45697D01*
X44061Y-45693D01*
X44042Y-45684D01*
X44024Y-45672D01*
X44010Y-45657D01*
X43998Y-45640D01*
X43991Y-45620D01*
X43987Y-45599D01*
X43987Y-45578D01*
X43992Y-45558D01*
X44000Y-45538D01*
X44012Y-45521D01*
X44027Y-45506D01*
X44044Y-45495D01*
X44064Y-45487D01*
X44085Y-45483D01*
X44106Y-45483D01*
X44126Y-45487D01*
X44146Y-45495D01*
X44163Y-45507D01*
X44178Y-45522D01*
X44190Y-45540D01*
X44198Y-45559D01*
X44202Y-45580D01*
X44202Y-45580D01*
G37*
G36*
X44202Y-45895D02*
X44201Y-45919D01*
X44197Y-45939D01*
X44188Y-45958D01*
X44176Y-45976D01*
X44161Y-45990D01*
X44143Y-46001D01*
X44123Y-46009D01*
X44103Y-46013D01*
X44082Y-46012D01*
X44061Y-46008D01*
X44042Y-45999D01*
X44024Y-45987D01*
X44010Y-45972D01*
X43998Y-45955D01*
X43991Y-45935D01*
X43987Y-45914D01*
X43987Y-45893D01*
X43992Y-45873D01*
X44000Y-45853D01*
X44012Y-45836D01*
X44027Y-45821D01*
X44044Y-45810D01*
X44064Y-45802D01*
X44085Y-45798D01*
X44106Y-45798D01*
X44126Y-45802D01*
X44146Y-45810D01*
X44163Y-45822D01*
X44178Y-45837D01*
X44190Y-45855D01*
X44198Y-45874D01*
X44202Y-45895D01*
X44202Y-45895D01*
G37*
G36*
X44202Y-46210D02*
X44201Y-46234D01*
X44197Y-46254D01*
X44188Y-46273D01*
X44176Y-46291D01*
X44161Y-46305D01*
X44143Y-46316D01*
X44123Y-46324D01*
X44103Y-46328D01*
X44082Y-46327D01*
X44061Y-46323D01*
X44042Y-46314D01*
X44024Y-46302D01*
X44010Y-46287D01*
X43998Y-46270D01*
X43991Y-46250D01*
X43987Y-46229D01*
X43987Y-46208D01*
X43992Y-46188D01*
X44000Y-46168D01*
X44012Y-46151D01*
X44027Y-46136D01*
X44044Y-46125D01*
X44064Y-46117D01*
X44085Y-46113D01*
X44106Y-46113D01*
X44126Y-46117D01*
X44146Y-46125D01*
X44163Y-46137D01*
X44178Y-46152D01*
X44190Y-46170D01*
X44198Y-46189D01*
X44202Y-46210D01*
X44202Y-46210D01*
G37*
G36*
X44202Y-46525D02*
X44201Y-46549D01*
X44197Y-46569D01*
X44188Y-46588D01*
X44176Y-46606D01*
X44161Y-46620D01*
X44143Y-46631D01*
X44123Y-46639D01*
X44103Y-46643D01*
X44082Y-46642D01*
X44061Y-46638D01*
X44042Y-46629D01*
X44024Y-46617D01*
X44010Y-46602D01*
X43998Y-46585D01*
X43991Y-46565D01*
X43987Y-46544D01*
X43987Y-46523D01*
X43992Y-46503D01*
X44000Y-46483D01*
X44012Y-46466D01*
X44027Y-46451D01*
X44044Y-46440D01*
X44064Y-46432D01*
X44085Y-46428D01*
X44106Y-46428D01*
X44126Y-46432D01*
X44146Y-46440D01*
X44163Y-46452D01*
X44178Y-46467D01*
X44190Y-46485D01*
X44198Y-46504D01*
X44202Y-46525D01*
X44202Y-46525D01*
G37*
G36*
X44202Y-46840D02*
X44201Y-46864D01*
X44197Y-46884D01*
X44188Y-46903D01*
X44176Y-46921D01*
X44161Y-46935D01*
X44143Y-46946D01*
X44123Y-46954D01*
X44103Y-46958D01*
X44082Y-46957D01*
X44061Y-46953D01*
X44042Y-46944D01*
X44024Y-46932D01*
X44010Y-46917D01*
X43998Y-46900D01*
X43991Y-46880D01*
X43987Y-46859D01*
X43987Y-46838D01*
X43992Y-46818D01*
X44000Y-46798D01*
X44012Y-46781D01*
X44027Y-46766D01*
X44044Y-46755D01*
X44064Y-46747D01*
X44085Y-46743D01*
X44106Y-46743D01*
X44126Y-46747D01*
X44146Y-46755D01*
X44163Y-46767D01*
X44178Y-46782D01*
X44190Y-46800D01*
X44198Y-46819D01*
X44202Y-46840D01*
X44202Y-46840D01*
G37*
G36*
X44202Y-47155D02*
X44201Y-47179D01*
X44197Y-47199D01*
X44188Y-47218D01*
X44176Y-47236D01*
X44161Y-47250D01*
X44143Y-47261D01*
X44123Y-47269D01*
X44103Y-47273D01*
X44082Y-47272D01*
X44061Y-47268D01*
X44042Y-47259D01*
X44024Y-47247D01*
X44010Y-47232D01*
X43998Y-47215D01*
X43991Y-47195D01*
X43987Y-47174D01*
X43987Y-47153D01*
X43992Y-47133D01*
X44000Y-47113D01*
X44012Y-47096D01*
X44027Y-47081D01*
X44044Y-47070D01*
X44064Y-47062D01*
X44085Y-47058D01*
X44106Y-47058D01*
X44126Y-47062D01*
X44146Y-47070D01*
X44163Y-47082D01*
X44178Y-47097D01*
X44190Y-47115D01*
X44198Y-47134D01*
X44202Y-47155D01*
X44202Y-47155D01*
G37*
G36*
X44202Y-47470D02*
X44201Y-47494D01*
X44197Y-47514D01*
X44188Y-47533D01*
X44176Y-47551D01*
X44161Y-47565D01*
X44143Y-47576D01*
X44123Y-47584D01*
X44103Y-47588D01*
X44082Y-47587D01*
X44061Y-47583D01*
X44042Y-47574D01*
X44024Y-47562D01*
X44010Y-47547D01*
X43998Y-47530D01*
X43991Y-47510D01*
X43987Y-47489D01*
X43987Y-47468D01*
X43992Y-47448D01*
X44000Y-47428D01*
X44012Y-47411D01*
X44027Y-47396D01*
X44044Y-47385D01*
X44064Y-47377D01*
X44085Y-47373D01*
X44106Y-47373D01*
X44126Y-47377D01*
X44146Y-47385D01*
X44163Y-47397D01*
X44178Y-47412D01*
X44190Y-47430D01*
X44198Y-47449D01*
X44202Y-47470D01*
X44202Y-47470D01*
G37*
G36*
X44202Y-47785D02*
X44201Y-47809D01*
X44197Y-47829D01*
X44188Y-47848D01*
X44176Y-47866D01*
X44161Y-47880D01*
X44143Y-47891D01*
X44123Y-47899D01*
X44103Y-47903D01*
X44082Y-47902D01*
X44061Y-47898D01*
X44042Y-47889D01*
X44024Y-47877D01*
X44010Y-47862D01*
X43998Y-47845D01*
X43991Y-47825D01*
X43987Y-47804D01*
X43987Y-47783D01*
X43992Y-47763D01*
X44000Y-47743D01*
X44012Y-47726D01*
X44027Y-47711D01*
X44044Y-47700D01*
X44064Y-47692D01*
X44085Y-47688D01*
X44106Y-47688D01*
X44126Y-47692D01*
X44146Y-47700D01*
X44163Y-47712D01*
X44178Y-47727D01*
X44190Y-47745D01*
X44198Y-47764D01*
X44202Y-47785D01*
X44202Y-47785D01*
G37*
G36*
X44212Y-40392D02*
X44055Y-40392D01*
X44055Y-39802D01*
X44212Y-39802D01*
X44212Y-40392D01*
X44212Y-40392D01*
G37*
G36*
X44244Y-21287D02*
X43850Y-21287D01*
X43850Y-20814D01*
X44244Y-20814D01*
X44244Y-21287D01*
X44244Y-21287D01*
G37*
G36*
X44293Y-22483D02*
X43964Y-22483D01*
X43964Y-22044D01*
X44293Y-22044D01*
X44293Y-22483D01*
X44293Y-22483D01*
G37*
G36*
X44370Y-40392D02*
X44213Y-40392D01*
X44213Y-39802D01*
X44370Y-39802D01*
X44370Y-40392D01*
X44370Y-40392D01*
G37*
G36*
X44507Y-23071D02*
X44114Y-23071D01*
X44114Y-22677D01*
X44507Y-22677D01*
X44507Y-23071D01*
X44507Y-23071D01*
G37*
G36*
X44507Y-23661D02*
X44114Y-23661D01*
X44114Y-23267D01*
X44507Y-23267D01*
X44507Y-23661D01*
X44507Y-23661D01*
G37*
G36*
X44527Y-40392D02*
X44370Y-40392D01*
X44370Y-39802D01*
X44527Y-39802D01*
X44527Y-40392D01*
X44527Y-40392D01*
G37*
G36*
X44578Y-26499D02*
X44249Y-26499D01*
X44249Y-26059D01*
X44578Y-26059D01*
X44578Y-26499D01*
X44578Y-26499D01*
G37*
G36*
X44598Y-25889D02*
X44269Y-25889D01*
X44269Y-25449D01*
X44598Y-25449D01*
X44598Y-25889D01*
X44598Y-25889D01*
G37*
G36*
X44685Y-24409D02*
X43227Y-24409D01*
X43227Y-23818D01*
X44685Y-23818D01*
X44685Y-24409D01*
X44685Y-24409D01*
G37*
G36*
X44685Y-25275D02*
X43227Y-25275D01*
X43227Y-24684D01*
X44685Y-24684D01*
X44685Y-25275D01*
X44685Y-25275D01*
G37*
G36*
X44744Y-20537D02*
X44350Y-20537D01*
X44350Y-20064D01*
X44744Y-20064D01*
X44744Y-20537D01*
X44744Y-20537D01*
G37*
G36*
X44841Y-40392D02*
X44685Y-40392D01*
X44684Y-40392D01*
X44528Y-40392D01*
X44528Y-39802D01*
X44684Y-39802D01*
X44685Y-39802D01*
X44841Y-39802D01*
X44841Y-40392D01*
X44841Y-40392D01*
G37*
G36*
X44882Y-40915D02*
X44567Y-40915D01*
X44567Y-40680D01*
X44882Y-40680D01*
X44882Y-40915D01*
X44882Y-40915D01*
G37*
G36*
X44882Y-41269D02*
X44567Y-41269D01*
X44567Y-41034D01*
X44882Y-41034D01*
X44882Y-41269D01*
X44882Y-41269D01*
G37*
G36*
X44893Y-22483D02*
X44564Y-22483D01*
X44564Y-22044D01*
X44893Y-22044D01*
X44893Y-22483D01*
X44893Y-22483D01*
G37*
G36*
X44904Y-23034D02*
X44574Y-23034D01*
X44574Y-22595D01*
X44904Y-22595D01*
X44904Y-23034D01*
X44904Y-23034D01*
G37*
G36*
X44924Y-42590D02*
X44727Y-42590D01*
X44530Y-42590D01*
X44333Y-42590D01*
X44136Y-42590D01*
X44136Y-42314D01*
X44333Y-42314D01*
X44530Y-42314D01*
X44727Y-42314D01*
X44924Y-42314D01*
X44924Y-42590D01*
X44924Y-42590D01*
G37*
G36*
X44924Y-42885D02*
X44727Y-42885D01*
X44530Y-42885D01*
X44333Y-42885D01*
X44136Y-42885D01*
X44136Y-42609D01*
X44333Y-42609D01*
X44530Y-42609D01*
X44727Y-42609D01*
X44924Y-42609D01*
X44924Y-42885D01*
X44924Y-42885D01*
G37*
G36*
X44963Y-30785D02*
X44790Y-30785D01*
X44782Y-30785D01*
X44750Y-30785D01*
X44743Y-30785D01*
X44593Y-30785D01*
X44585Y-30785D01*
X44553Y-30785D01*
X44546Y-30785D01*
X44396Y-30785D01*
X44388Y-30785D01*
X44356Y-30785D01*
X44349Y-30785D01*
X44175Y-30785D01*
X44175Y-30513D01*
X44175Y-30506D01*
X44175Y-30493D01*
X44175Y-30486D01*
X44175Y-30214D01*
X44349Y-30214D01*
X44356Y-30214D01*
X44388Y-30214D01*
X44396Y-30214D01*
X44546Y-30214D01*
X44553Y-30214D01*
X44585Y-30214D01*
X44593Y-30214D01*
X44743Y-30214D01*
X44750Y-30214D01*
X44782Y-30214D01*
X44790Y-30214D01*
X44963Y-30214D01*
X44963Y-30486D01*
X44963Y-30493D01*
X44963Y-30506D01*
X44963Y-30513D01*
X44963Y-30785D01*
X44963Y-30785D01*
G37*
G36*
X44994Y-21287D02*
X44600Y-21287D01*
X44600Y-20814D01*
X44994Y-20814D01*
X44994Y-21287D01*
X44994Y-21287D01*
G37*
G36*
X44999Y-40392D02*
X44842Y-40392D01*
X44842Y-39802D01*
X44999Y-39802D01*
X44999Y-40392D01*
X44999Y-40392D01*
G37*
G36*
X45156Y-40392D02*
X44999Y-40392D01*
X44999Y-39802D01*
X45156Y-39802D01*
X45156Y-40392D01*
X45156Y-40392D01*
G37*
G36*
X45314Y-40392D02*
X45157Y-40392D01*
X45157Y-39802D01*
X45314Y-39802D01*
X45314Y-40392D01*
X45314Y-40392D01*
G37*
G36*
X45471Y-40392D02*
X45314Y-40392D01*
X45314Y-39802D01*
X45471Y-39802D01*
X45471Y-40392D01*
X45471Y-40392D01*
G37*
G36*
X45494Y-20537D02*
X45100Y-20537D01*
X45100Y-20064D01*
X45494Y-20064D01*
X45494Y-20537D01*
X45494Y-20537D01*
G37*
G36*
X45494Y-44470D02*
X45056Y-44470D01*
X45056Y-44141D01*
X45494Y-44141D01*
X45494Y-44470D01*
X45494Y-44470D01*
G37*
G36*
X45494Y-45070D02*
X45056Y-45070D01*
X45056Y-44741D01*
X45494Y-44741D01*
X45494Y-45070D01*
X45494Y-45070D01*
G37*
G36*
X45495Y-25711D02*
X45055Y-25711D01*
X45055Y-25381D01*
X45495Y-25381D01*
X45495Y-25711D01*
X45495Y-25711D01*
G37*
G36*
X45495Y-26311D02*
X45055Y-26311D01*
X45055Y-25981D01*
X45495Y-25981D01*
X45495Y-26311D01*
X45495Y-26311D01*
G37*
G36*
X45495Y-30081D02*
X45055Y-30081D01*
X45055Y-29751D01*
X45495Y-29751D01*
X45495Y-30081D01*
X45495Y-30081D01*
G37*
G36*
X45495Y-30681D02*
X45055Y-30681D01*
X45055Y-30351D01*
X45495Y-30351D01*
X45495Y-30681D01*
X45495Y-30681D01*
G37*
G36*
X45504Y-23034D02*
X45174Y-23034D01*
X45174Y-22595D01*
X45504Y-22595D01*
X45504Y-23034D01*
X45504Y-23034D01*
G37*
G36*
X45520Y-47344D02*
X44991Y-47344D01*
X44991Y-47015D01*
X45520Y-47015D01*
X45520Y-47344D01*
X45520Y-47344D01*
G37*
G36*
X45520Y-47944D02*
X44991Y-47944D01*
X44991Y-47615D01*
X45520Y-47615D01*
X45520Y-47944D01*
X45520Y-47944D01*
G37*
G36*
X45539Y-43506D02*
X45011Y-43506D01*
X45011Y-43177D01*
X45539Y-43177D01*
X45539Y-43506D01*
X45539Y-43506D01*
G37*
G36*
X45539Y-44106D02*
X45011Y-44106D01*
X45011Y-43777D01*
X45539Y-43777D01*
X45539Y-44106D01*
X45539Y-44106D01*
G37*
G36*
X45559Y-45887D02*
X45030Y-45887D01*
X45030Y-45559D01*
X45559Y-45559D01*
X45559Y-45887D01*
X45559Y-45887D01*
G37*
G36*
X45559Y-46487D02*
X45030Y-46487D01*
X45030Y-46159D01*
X45559Y-46159D01*
X45559Y-46487D01*
X45559Y-46487D01*
G37*
G36*
X45629Y-40392D02*
X45472Y-40392D01*
X45472Y-39802D01*
X45629Y-39802D01*
X45629Y-40392D01*
X45629Y-40392D01*
G37*
G36*
X45679Y-54637D02*
X45285Y-54637D01*
X45285Y-54165D01*
X45679Y-54165D01*
X45679Y-54637D01*
X45679Y-54637D01*
G37*
G36*
X45724Y-41990D02*
X45527Y-41990D01*
X45330Y-41990D01*
X45133Y-41990D01*
X44936Y-41990D01*
X44936Y-41714D01*
X45133Y-41714D01*
X45330Y-41714D01*
X45527Y-41714D01*
X45724Y-41714D01*
X45724Y-41990D01*
X45724Y-41990D01*
G37*
G36*
X45724Y-42285D02*
X45527Y-42285D01*
X45330Y-42285D01*
X45133Y-42285D01*
X44936Y-42285D01*
X44936Y-42009D01*
X45133Y-42009D01*
X45330Y-42009D01*
X45527Y-42009D01*
X45724Y-42009D01*
X45724Y-42285D01*
X45724Y-42285D01*
G37*
G36*
X45744Y-21287D02*
X45350Y-21287D01*
X45350Y-20814D01*
X45744Y-20814D01*
X45744Y-21287D01*
X45744Y-21287D01*
G37*
G36*
X45786Y-40392D02*
X45629Y-40392D01*
X45629Y-39802D01*
X45786Y-39802D01*
X45786Y-40392D01*
X45786Y-40392D01*
G37*
G36*
X45905Y-37047D02*
X45827Y-37047D01*
X45827Y-37440D01*
X45588Y-37440D01*
X45588Y-37047D01*
X45512Y-37047D01*
X45512Y-37440D01*
X45273Y-37440D01*
X45273Y-37047D01*
X45197Y-37047D01*
X45197Y-37755D01*
X45197Y-38070D01*
X44958Y-38070D01*
X44958Y-37755D01*
X44958Y-37047D01*
X44411Y-37047D01*
X44411Y-37755D01*
X44411Y-38070D01*
X44172Y-38070D01*
X44172Y-37755D01*
X44172Y-37047D01*
X44096Y-37047D01*
X44096Y-37440D01*
X43857Y-37440D01*
X43857Y-37047D01*
X43781Y-37047D01*
X43781Y-37440D01*
X43542Y-37440D01*
X43542Y-37047D01*
X43464Y-37047D01*
X43464Y-34606D01*
X43542Y-34606D01*
X43542Y-34213D01*
X43781Y-34213D01*
X43781Y-34606D01*
X43857Y-34606D01*
X43857Y-34213D01*
X44096Y-34213D01*
X44096Y-34606D01*
X44172Y-34606D01*
X44172Y-33898D01*
X44172Y-33583D01*
X44411Y-33583D01*
X44411Y-33898D01*
X44411Y-34606D01*
X44958Y-34606D01*
X44958Y-33898D01*
X44958Y-33583D01*
X45197Y-33583D01*
X45197Y-33898D01*
X45197Y-34606D01*
X45273Y-34606D01*
X45273Y-34213D01*
X45512Y-34213D01*
X45512Y-34606D01*
X45588Y-34606D01*
X45588Y-34213D01*
X45827Y-34213D01*
X45827Y-34606D01*
X45905Y-34606D01*
X45905Y-37047D01*
X45905Y-37047D01*
G37*
G36*
X45929Y-55387D02*
X45535Y-55387D01*
X45535Y-54915D01*
X45929Y-54915D01*
X45929Y-55387D01*
X45929Y-55387D01*
G37*
G36*
X45944Y-40392D02*
X45787Y-40392D01*
X45787Y-39802D01*
X45944Y-39802D01*
X45944Y-40392D01*
X45944Y-40392D01*
G37*
G36*
X45944Y-41146D02*
X45721Y-41369D01*
X45555Y-41202D01*
X45777Y-40980D01*
X45944Y-41146D01*
X45944Y-41146D01*
G37*
G36*
X46101Y-40392D02*
X45944Y-40392D01*
X45944Y-39802D01*
X46101Y-39802D01*
X46101Y-40392D01*
X46101Y-40392D01*
G37*
G36*
X46107Y-41940D02*
X45792Y-41940D01*
X45792Y-41705D01*
X46107Y-41705D01*
X46107Y-41940D01*
X46107Y-41940D01*
G37*
G36*
X46107Y-42294D02*
X45792Y-42294D01*
X45792Y-42059D01*
X46107Y-42059D01*
X46107Y-42294D01*
X46107Y-42294D01*
G37*
G36*
X46144Y-29235D02*
X45814Y-29235D01*
X45814Y-28795D01*
X46144Y-28795D01*
X46144Y-29235D01*
X46144Y-29235D01*
G37*
G36*
X46144Y-29826D02*
X45814Y-29826D01*
X45814Y-29386D01*
X46144Y-29386D01*
X46144Y-29826D01*
X46144Y-29826D01*
G37*
G36*
X46194Y-41397D02*
X45972Y-41619D01*
X45805Y-41453D01*
X46028Y-41230D01*
X46194Y-41397D01*
X46194Y-41397D01*
G37*
G36*
X46204Y-21833D02*
X45764Y-21833D01*
X45764Y-21503D01*
X46204Y-21503D01*
X46204Y-21833D01*
X46204Y-21833D01*
G37*
G36*
X46204Y-22433D02*
X45764Y-22433D01*
X45764Y-22103D01*
X46204Y-22103D01*
X46204Y-22433D01*
X46204Y-22433D01*
G37*
G36*
X46244Y-20537D02*
X45850Y-20537D01*
X45850Y-20064D01*
X46244Y-20064D01*
X46244Y-20537D01*
X46244Y-20537D01*
G37*
G36*
X46259Y-40392D02*
X46102Y-40392D01*
X46102Y-39802D01*
X46259Y-39802D01*
X46259Y-40392D01*
X46259Y-40392D01*
G37*
G36*
X46406Y-44005D02*
X46406Y-44029D01*
X46401Y-44049D01*
X46392Y-44068D01*
X46380Y-44086D01*
X46365Y-44100D01*
X46347Y-44111D01*
X46328Y-44119D01*
X46307Y-44123D01*
X46286Y-44122D01*
X46265Y-44118D01*
X46246Y-44109D01*
X46229Y-44097D01*
X46214Y-44082D01*
X46203Y-44065D01*
X46195Y-44045D01*
X46191Y-44024D01*
X46192Y-44003D01*
X46196Y-43983D01*
X46204Y-43963D01*
X46216Y-43946D01*
X46231Y-43931D01*
X46249Y-43920D01*
X46268Y-43912D01*
X46289Y-43908D01*
X46310Y-43908D01*
X46331Y-43912D01*
X46350Y-43920D01*
X46367Y-43932D01*
X46382Y-43947D01*
X46394Y-43965D01*
X46402Y-43984D01*
X46406Y-44005D01*
X46406Y-44005D01*
G37*
G36*
X46406Y-44320D02*
X46406Y-44344D01*
X46401Y-44364D01*
X46392Y-44383D01*
X46380Y-44401D01*
X46365Y-44415D01*
X46347Y-44426D01*
X46328Y-44434D01*
X46307Y-44438D01*
X46286Y-44437D01*
X46265Y-44433D01*
X46246Y-44424D01*
X46229Y-44412D01*
X46214Y-44397D01*
X46203Y-44380D01*
X46195Y-44360D01*
X46191Y-44339D01*
X46192Y-44318D01*
X46196Y-44298D01*
X46204Y-44278D01*
X46216Y-44261D01*
X46231Y-44246D01*
X46249Y-44235D01*
X46268Y-44227D01*
X46289Y-44223D01*
X46310Y-44223D01*
X46331Y-44227D01*
X46350Y-44235D01*
X46367Y-44247D01*
X46382Y-44262D01*
X46394Y-44280D01*
X46402Y-44299D01*
X46406Y-44320D01*
X46406Y-44320D01*
G37*
G36*
X46406Y-44635D02*
X46406Y-44659D01*
X46401Y-44679D01*
X46392Y-44698D01*
X46380Y-44716D01*
X46365Y-44730D01*
X46347Y-44741D01*
X46328Y-44749D01*
X46307Y-44753D01*
X46286Y-44752D01*
X46265Y-44748D01*
X46246Y-44739D01*
X46229Y-44727D01*
X46214Y-44712D01*
X46203Y-44695D01*
X46195Y-44675D01*
X46191Y-44654D01*
X46192Y-44633D01*
X46196Y-44613D01*
X46204Y-44593D01*
X46216Y-44576D01*
X46231Y-44561D01*
X46249Y-44550D01*
X46268Y-44542D01*
X46289Y-44538D01*
X46310Y-44538D01*
X46331Y-44542D01*
X46350Y-44550D01*
X46367Y-44562D01*
X46382Y-44577D01*
X46394Y-44595D01*
X46402Y-44614D01*
X46406Y-44635D01*
X46406Y-44635D01*
G37*
G36*
X46406Y-44950D02*
X46406Y-44974D01*
X46401Y-44994D01*
X46392Y-45013D01*
X46380Y-45031D01*
X46365Y-45045D01*
X46347Y-45056D01*
X46328Y-45064D01*
X46307Y-45068D01*
X46286Y-45067D01*
X46265Y-45063D01*
X46246Y-45054D01*
X46229Y-45042D01*
X46214Y-45027D01*
X46203Y-45010D01*
X46195Y-44990D01*
X46191Y-44969D01*
X46192Y-44948D01*
X46196Y-44928D01*
X46204Y-44908D01*
X46216Y-44891D01*
X46231Y-44876D01*
X46249Y-44865D01*
X46268Y-44857D01*
X46289Y-44853D01*
X46310Y-44853D01*
X46331Y-44857D01*
X46350Y-44865D01*
X46367Y-44877D01*
X46382Y-44892D01*
X46394Y-44910D01*
X46402Y-44929D01*
X46406Y-44950D01*
X46406Y-44950D01*
G37*
G36*
X46406Y-45265D02*
X46406Y-45289D01*
X46401Y-45309D01*
X46392Y-45328D01*
X46380Y-45346D01*
X46365Y-45360D01*
X46347Y-45371D01*
X46328Y-45379D01*
X46307Y-45383D01*
X46286Y-45382D01*
X46265Y-45378D01*
X46246Y-45369D01*
X46229Y-45357D01*
X46214Y-45342D01*
X46203Y-45325D01*
X46195Y-45305D01*
X46191Y-45284D01*
X46192Y-45263D01*
X46196Y-45243D01*
X46204Y-45223D01*
X46216Y-45206D01*
X46231Y-45191D01*
X46249Y-45180D01*
X46268Y-45172D01*
X46289Y-45168D01*
X46310Y-45168D01*
X46331Y-45172D01*
X46350Y-45180D01*
X46367Y-45192D01*
X46382Y-45207D01*
X46394Y-45225D01*
X46402Y-45244D01*
X46406Y-45265D01*
X46406Y-45265D01*
G37*
G36*
X46406Y-45580D02*
X46406Y-45604D01*
X46401Y-45624D01*
X46392Y-45643D01*
X46380Y-45661D01*
X46365Y-45675D01*
X46347Y-45686D01*
X46328Y-45694D01*
X46307Y-45698D01*
X46286Y-45697D01*
X46265Y-45693D01*
X46246Y-45684D01*
X46229Y-45672D01*
X46214Y-45657D01*
X46203Y-45640D01*
X46195Y-45620D01*
X46191Y-45599D01*
X46192Y-45578D01*
X46196Y-45558D01*
X46204Y-45538D01*
X46216Y-45521D01*
X46231Y-45506D01*
X46249Y-45495D01*
X46268Y-45487D01*
X46289Y-45483D01*
X46310Y-45483D01*
X46331Y-45487D01*
X46350Y-45495D01*
X46367Y-45507D01*
X46382Y-45522D01*
X46394Y-45540D01*
X46402Y-45559D01*
X46406Y-45580D01*
X46406Y-45580D01*
G37*
G36*
X46406Y-45895D02*
X46406Y-45919D01*
X46401Y-45939D01*
X46392Y-45958D01*
X46380Y-45976D01*
X46365Y-45990D01*
X46347Y-46001D01*
X46328Y-46009D01*
X46307Y-46013D01*
X46286Y-46012D01*
X46265Y-46008D01*
X46246Y-45999D01*
X46229Y-45987D01*
X46214Y-45972D01*
X46203Y-45955D01*
X46195Y-45935D01*
X46191Y-45914D01*
X46192Y-45893D01*
X46196Y-45873D01*
X46204Y-45853D01*
X46216Y-45836D01*
X46231Y-45821D01*
X46249Y-45810D01*
X46268Y-45802D01*
X46289Y-45798D01*
X46310Y-45798D01*
X46331Y-45802D01*
X46350Y-45810D01*
X46367Y-45822D01*
X46382Y-45837D01*
X46394Y-45855D01*
X46402Y-45874D01*
X46406Y-45895D01*
X46406Y-45895D01*
G37*
G36*
X46406Y-46210D02*
X46406Y-46234D01*
X46401Y-46254D01*
X46392Y-46273D01*
X46380Y-46291D01*
X46365Y-46305D01*
X46347Y-46316D01*
X46328Y-46324D01*
X46307Y-46328D01*
X46286Y-46327D01*
X46265Y-46323D01*
X46246Y-46314D01*
X46229Y-46302D01*
X46214Y-46287D01*
X46203Y-46270D01*
X46195Y-46250D01*
X46191Y-46229D01*
X46192Y-46208D01*
X46196Y-46188D01*
X46204Y-46168D01*
X46216Y-46151D01*
X46231Y-46136D01*
X46249Y-46125D01*
X46268Y-46117D01*
X46289Y-46113D01*
X46310Y-46113D01*
X46331Y-46117D01*
X46350Y-46125D01*
X46367Y-46137D01*
X46382Y-46152D01*
X46394Y-46170D01*
X46402Y-46189D01*
X46406Y-46210D01*
X46406Y-46210D01*
G37*
G36*
X46406Y-46525D02*
X46406Y-46549D01*
X46401Y-46569D01*
X46392Y-46588D01*
X46380Y-46606D01*
X46365Y-46620D01*
X46347Y-46631D01*
X46328Y-46639D01*
X46307Y-46643D01*
X46286Y-46642D01*
X46265Y-46638D01*
X46246Y-46629D01*
X46229Y-46617D01*
X46214Y-46602D01*
X46203Y-46585D01*
X46195Y-46565D01*
X46191Y-46544D01*
X46192Y-46523D01*
X46196Y-46503D01*
X46204Y-46483D01*
X46216Y-46466D01*
X46231Y-46451D01*
X46249Y-46440D01*
X46268Y-46432D01*
X46289Y-46428D01*
X46310Y-46428D01*
X46331Y-46432D01*
X46350Y-46440D01*
X46367Y-46452D01*
X46382Y-46467D01*
X46394Y-46485D01*
X46402Y-46504D01*
X46406Y-46525D01*
X46406Y-46525D01*
G37*
G36*
X46406Y-46840D02*
X46406Y-46864D01*
X46401Y-46884D01*
X46392Y-46903D01*
X46380Y-46921D01*
X46365Y-46935D01*
X46347Y-46946D01*
X46328Y-46954D01*
X46307Y-46958D01*
X46286Y-46957D01*
X46265Y-46953D01*
X46246Y-46944D01*
X46229Y-46932D01*
X46214Y-46917D01*
X46203Y-46900D01*
X46195Y-46880D01*
X46191Y-46859D01*
X46192Y-46838D01*
X46196Y-46818D01*
X46204Y-46798D01*
X46216Y-46781D01*
X46231Y-46766D01*
X46249Y-46755D01*
X46268Y-46747D01*
X46289Y-46743D01*
X46310Y-46743D01*
X46331Y-46747D01*
X46350Y-46755D01*
X46367Y-46767D01*
X46382Y-46782D01*
X46394Y-46800D01*
X46402Y-46819D01*
X46406Y-46840D01*
X46406Y-46840D01*
G37*
G36*
X46406Y-47155D02*
X46406Y-47179D01*
X46401Y-47199D01*
X46392Y-47218D01*
X46380Y-47236D01*
X46365Y-47250D01*
X46347Y-47261D01*
X46328Y-47269D01*
X46307Y-47273D01*
X46286Y-47272D01*
X46265Y-47268D01*
X46246Y-47259D01*
X46229Y-47247D01*
X46214Y-47232D01*
X46203Y-47215D01*
X46195Y-47195D01*
X46191Y-47174D01*
X46192Y-47153D01*
X46196Y-47133D01*
X46204Y-47113D01*
X46216Y-47096D01*
X46231Y-47081D01*
X46249Y-47070D01*
X46268Y-47062D01*
X46289Y-47058D01*
X46310Y-47058D01*
X46331Y-47062D01*
X46350Y-47070D01*
X46367Y-47082D01*
X46382Y-47097D01*
X46394Y-47115D01*
X46402Y-47134D01*
X46406Y-47155D01*
X46406Y-47155D01*
G37*
G36*
X46406Y-47470D02*
X46406Y-47494D01*
X46401Y-47514D01*
X46392Y-47533D01*
X46380Y-47551D01*
X46365Y-47565D01*
X46347Y-47576D01*
X46328Y-47584D01*
X46307Y-47588D01*
X46286Y-47587D01*
X46265Y-47583D01*
X46246Y-47574D01*
X46229Y-47562D01*
X46214Y-47547D01*
X46203Y-47530D01*
X46195Y-47510D01*
X46191Y-47489D01*
X46192Y-47468D01*
X46196Y-47448D01*
X46204Y-47428D01*
X46216Y-47411D01*
X46231Y-47396D01*
X46249Y-47385D01*
X46268Y-47377D01*
X46289Y-47373D01*
X46310Y-47373D01*
X46331Y-47377D01*
X46350Y-47385D01*
X46367Y-47397D01*
X46382Y-47412D01*
X46394Y-47430D01*
X46402Y-47449D01*
X46406Y-47470D01*
X46406Y-47470D01*
G37*
G36*
X46406Y-47785D02*
X46406Y-47809D01*
X46401Y-47829D01*
X46392Y-47848D01*
X46380Y-47866D01*
X46365Y-47880D01*
X46347Y-47891D01*
X46328Y-47899D01*
X46307Y-47903D01*
X46286Y-47902D01*
X46265Y-47898D01*
X46246Y-47889D01*
X46229Y-47877D01*
X46214Y-47862D01*
X46203Y-47845D01*
X46195Y-47825D01*
X46191Y-47804D01*
X46192Y-47783D01*
X46196Y-47763D01*
X46204Y-47743D01*
X46216Y-47726D01*
X46231Y-47711D01*
X46249Y-47700D01*
X46268Y-47692D01*
X46289Y-47688D01*
X46310Y-47688D01*
X46331Y-47692D01*
X46350Y-47700D01*
X46367Y-47712D01*
X46382Y-47727D01*
X46394Y-47745D01*
X46402Y-47764D01*
X46406Y-47785D01*
X46406Y-47785D01*
G37*
G36*
X46416Y-40392D02*
X46259Y-40392D01*
X46259Y-39802D01*
X46416Y-39802D01*
X46416Y-40392D01*
X46416Y-40392D01*
G37*
G36*
X46429Y-54637D02*
X46035Y-54637D01*
X46035Y-54165D01*
X46429Y-54165D01*
X46429Y-54637D01*
X46429Y-54637D01*
G37*
G36*
X46494Y-21287D02*
X46100Y-21287D01*
X46100Y-20814D01*
X46494Y-20814D01*
X46494Y-21287D01*
X46494Y-21287D01*
G37*
G36*
X46555Y-41948D02*
X46240Y-41948D01*
X46240Y-41713D01*
X46555Y-41713D01*
X46555Y-41948D01*
X46555Y-41948D01*
G37*
G36*
X46555Y-42302D02*
X46240Y-42302D01*
X46240Y-42067D01*
X46555Y-42067D01*
X46555Y-42302D01*
X46555Y-42302D01*
G37*
G36*
X46574Y-40392D02*
X46417Y-40392D01*
X46417Y-39802D01*
X46574Y-39802D01*
X46574Y-40392D01*
X46574Y-40392D01*
G37*
G36*
X46619Y-30364D02*
X46180Y-30364D01*
X46180Y-30035D01*
X46619Y-30035D01*
X46619Y-30364D01*
X46619Y-30364D01*
G37*
G36*
X46619Y-30964D02*
X46180Y-30964D01*
X46180Y-30635D01*
X46619Y-30635D01*
X46619Y-30964D01*
X46619Y-30964D01*
G37*
G36*
X46676Y-26813D02*
X46236Y-26813D01*
X46236Y-26484D01*
X46676Y-26484D01*
X46676Y-26813D01*
X46676Y-26813D01*
G37*
G36*
X46676Y-27413D02*
X46236Y-27413D01*
X46236Y-27084D01*
X46676Y-27084D01*
X46676Y-27413D01*
X46676Y-27413D01*
G37*
G36*
X46679Y-55387D02*
X46285Y-55387D01*
X46285Y-54915D01*
X46679Y-54915D01*
X46679Y-55387D01*
X46679Y-55387D01*
G37*
G36*
X46721Y-44005D02*
X46721Y-44029D01*
X46716Y-44049D01*
X46707Y-44068D01*
X46695Y-44086D01*
X46680Y-44100D01*
X46662Y-44111D01*
X46643Y-44119D01*
X46622Y-44123D01*
X46601Y-44122D01*
X46580Y-44118D01*
X46561Y-44109D01*
X46544Y-44097D01*
X46529Y-44082D01*
X46518Y-44065D01*
X46510Y-44045D01*
X46506Y-44024D01*
X46507Y-44003D01*
X46511Y-43983D01*
X46519Y-43963D01*
X46531Y-43946D01*
X46546Y-43931D01*
X46564Y-43920D01*
X46583Y-43912D01*
X46604Y-43908D01*
X46625Y-43908D01*
X46646Y-43912D01*
X46665Y-43920D01*
X46682Y-43932D01*
X46697Y-43947D01*
X46709Y-43965D01*
X46717Y-43984D01*
X46721Y-44005D01*
X46721Y-44005D01*
G37*
G36*
X46721Y-44320D02*
X46721Y-44344D01*
X46716Y-44364D01*
X46707Y-44383D01*
X46695Y-44401D01*
X46680Y-44415D01*
X46662Y-44426D01*
X46643Y-44434D01*
X46622Y-44438D01*
X46601Y-44437D01*
X46580Y-44433D01*
X46561Y-44424D01*
X46544Y-44412D01*
X46529Y-44397D01*
X46518Y-44380D01*
X46510Y-44360D01*
X46506Y-44339D01*
X46507Y-44318D01*
X46511Y-44298D01*
X46519Y-44278D01*
X46531Y-44261D01*
X46546Y-44246D01*
X46564Y-44235D01*
X46583Y-44227D01*
X46604Y-44223D01*
X46625Y-44223D01*
X46646Y-44227D01*
X46665Y-44235D01*
X46682Y-44247D01*
X46697Y-44262D01*
X46709Y-44280D01*
X46717Y-44299D01*
X46721Y-44320D01*
X46721Y-44320D01*
G37*
G36*
X46721Y-44635D02*
X46721Y-44659D01*
X46716Y-44679D01*
X46707Y-44698D01*
X46695Y-44716D01*
X46680Y-44730D01*
X46662Y-44741D01*
X46643Y-44749D01*
X46622Y-44753D01*
X46601Y-44752D01*
X46580Y-44748D01*
X46561Y-44739D01*
X46544Y-44727D01*
X46529Y-44712D01*
X46518Y-44695D01*
X46510Y-44675D01*
X46506Y-44654D01*
X46507Y-44633D01*
X46511Y-44613D01*
X46519Y-44593D01*
X46531Y-44576D01*
X46546Y-44561D01*
X46564Y-44550D01*
X46583Y-44542D01*
X46604Y-44538D01*
X46625Y-44538D01*
X46646Y-44542D01*
X46665Y-44550D01*
X46682Y-44562D01*
X46697Y-44577D01*
X46709Y-44595D01*
X46717Y-44614D01*
X46721Y-44635D01*
X46721Y-44635D01*
G37*
G36*
X46721Y-44950D02*
X46721Y-44974D01*
X46716Y-44994D01*
X46707Y-45013D01*
X46695Y-45031D01*
X46680Y-45045D01*
X46662Y-45056D01*
X46643Y-45064D01*
X46622Y-45068D01*
X46601Y-45067D01*
X46580Y-45063D01*
X46561Y-45054D01*
X46544Y-45042D01*
X46529Y-45027D01*
X46518Y-45010D01*
X46510Y-44990D01*
X46506Y-44969D01*
X46507Y-44948D01*
X46511Y-44928D01*
X46519Y-44908D01*
X46531Y-44891D01*
X46546Y-44876D01*
X46564Y-44865D01*
X46583Y-44857D01*
X46604Y-44853D01*
X46625Y-44853D01*
X46646Y-44857D01*
X46665Y-44865D01*
X46682Y-44877D01*
X46697Y-44892D01*
X46709Y-44910D01*
X46717Y-44929D01*
X46721Y-44950D01*
X46721Y-44950D01*
G37*
G36*
X46721Y-45265D02*
X46721Y-45289D01*
X46716Y-45309D01*
X46707Y-45328D01*
X46695Y-45346D01*
X46680Y-45360D01*
X46662Y-45371D01*
X46643Y-45379D01*
X46622Y-45383D01*
X46601Y-45382D01*
X46580Y-45378D01*
X46561Y-45369D01*
X46544Y-45357D01*
X46529Y-45342D01*
X46518Y-45325D01*
X46510Y-45305D01*
X46506Y-45284D01*
X46507Y-45263D01*
X46511Y-45243D01*
X46519Y-45223D01*
X46531Y-45206D01*
X46546Y-45191D01*
X46564Y-45180D01*
X46583Y-45172D01*
X46604Y-45168D01*
X46625Y-45168D01*
X46646Y-45172D01*
X46665Y-45180D01*
X46682Y-45192D01*
X46697Y-45207D01*
X46709Y-45225D01*
X46717Y-45244D01*
X46721Y-45265D01*
X46721Y-45265D01*
G37*
G36*
X46721Y-45580D02*
X46721Y-45604D01*
X46716Y-45624D01*
X46707Y-45643D01*
X46695Y-45661D01*
X46680Y-45675D01*
X46662Y-45686D01*
X46643Y-45694D01*
X46622Y-45698D01*
X46601Y-45697D01*
X46580Y-45693D01*
X46561Y-45684D01*
X46544Y-45672D01*
X46529Y-45657D01*
X46518Y-45640D01*
X46510Y-45620D01*
X46506Y-45599D01*
X46507Y-45578D01*
X46511Y-45558D01*
X46519Y-45538D01*
X46531Y-45521D01*
X46546Y-45506D01*
X46564Y-45495D01*
X46583Y-45487D01*
X46604Y-45483D01*
X46625Y-45483D01*
X46646Y-45487D01*
X46665Y-45495D01*
X46682Y-45507D01*
X46697Y-45522D01*
X46709Y-45540D01*
X46717Y-45559D01*
X46721Y-45580D01*
X46721Y-45580D01*
G37*
G36*
X46721Y-45895D02*
X46721Y-45919D01*
X46716Y-45939D01*
X46707Y-45958D01*
X46695Y-45976D01*
X46680Y-45990D01*
X46662Y-46001D01*
X46643Y-46009D01*
X46622Y-46013D01*
X46601Y-46012D01*
X46580Y-46008D01*
X46561Y-45999D01*
X46544Y-45987D01*
X46529Y-45972D01*
X46518Y-45955D01*
X46510Y-45935D01*
X46506Y-45914D01*
X46507Y-45893D01*
X46511Y-45873D01*
X46519Y-45853D01*
X46531Y-45836D01*
X46546Y-45821D01*
X46564Y-45810D01*
X46583Y-45802D01*
X46604Y-45798D01*
X46625Y-45798D01*
X46646Y-45802D01*
X46665Y-45810D01*
X46682Y-45822D01*
X46697Y-45837D01*
X46709Y-45855D01*
X46717Y-45874D01*
X46721Y-45895D01*
X46721Y-45895D01*
G37*
G36*
X46721Y-46210D02*
X46721Y-46234D01*
X46716Y-46254D01*
X46707Y-46273D01*
X46695Y-46291D01*
X46680Y-46305D01*
X46662Y-46316D01*
X46643Y-46324D01*
X46622Y-46328D01*
X46601Y-46327D01*
X46580Y-46323D01*
X46561Y-46314D01*
X46544Y-46302D01*
X46529Y-46287D01*
X46518Y-46270D01*
X46510Y-46250D01*
X46506Y-46229D01*
X46507Y-46208D01*
X46511Y-46188D01*
X46519Y-46168D01*
X46531Y-46151D01*
X46546Y-46136D01*
X46564Y-46125D01*
X46583Y-46117D01*
X46604Y-46113D01*
X46625Y-46113D01*
X46646Y-46117D01*
X46665Y-46125D01*
X46682Y-46137D01*
X46697Y-46152D01*
X46709Y-46170D01*
X46717Y-46189D01*
X46721Y-46210D01*
X46721Y-46210D01*
G37*
G36*
X46721Y-46525D02*
X46721Y-46549D01*
X46716Y-46569D01*
X46707Y-46588D01*
X46695Y-46606D01*
X46680Y-46620D01*
X46662Y-46631D01*
X46643Y-46639D01*
X46622Y-46643D01*
X46601Y-46642D01*
X46580Y-46638D01*
X46561Y-46629D01*
X46544Y-46617D01*
X46529Y-46602D01*
X46518Y-46585D01*
X46510Y-46565D01*
X46506Y-46544D01*
X46507Y-46523D01*
X46511Y-46503D01*
X46519Y-46483D01*
X46531Y-46466D01*
X46546Y-46451D01*
X46564Y-46440D01*
X46583Y-46432D01*
X46604Y-46428D01*
X46625Y-46428D01*
X46646Y-46432D01*
X46665Y-46440D01*
X46682Y-46452D01*
X46697Y-46467D01*
X46709Y-46485D01*
X46717Y-46504D01*
X46721Y-46525D01*
X46721Y-46525D01*
G37*
G36*
X46721Y-46840D02*
X46721Y-46864D01*
X46716Y-46884D01*
X46707Y-46903D01*
X46695Y-46921D01*
X46680Y-46935D01*
X46662Y-46946D01*
X46643Y-46954D01*
X46622Y-46958D01*
X46601Y-46957D01*
X46580Y-46953D01*
X46561Y-46944D01*
X46544Y-46932D01*
X46529Y-46917D01*
X46518Y-46900D01*
X46510Y-46880D01*
X46506Y-46859D01*
X46507Y-46838D01*
X46511Y-46818D01*
X46519Y-46798D01*
X46531Y-46781D01*
X46546Y-46766D01*
X46564Y-46755D01*
X46583Y-46747D01*
X46604Y-46743D01*
X46625Y-46743D01*
X46646Y-46747D01*
X46665Y-46755D01*
X46682Y-46767D01*
X46697Y-46782D01*
X46709Y-46800D01*
X46717Y-46819D01*
X46721Y-46840D01*
X46721Y-46840D01*
G37*
G36*
X46721Y-47155D02*
X46721Y-47179D01*
X46716Y-47199D01*
X46707Y-47218D01*
X46695Y-47236D01*
X46680Y-47250D01*
X46662Y-47261D01*
X46643Y-47269D01*
X46622Y-47273D01*
X46601Y-47272D01*
X46580Y-47268D01*
X46561Y-47259D01*
X46544Y-47247D01*
X46529Y-47232D01*
X46518Y-47215D01*
X46510Y-47195D01*
X46506Y-47174D01*
X46507Y-47153D01*
X46511Y-47133D01*
X46519Y-47113D01*
X46531Y-47096D01*
X46546Y-47081D01*
X46564Y-47070D01*
X46583Y-47062D01*
X46604Y-47058D01*
X46625Y-47058D01*
X46646Y-47062D01*
X46665Y-47070D01*
X46682Y-47082D01*
X46697Y-47097D01*
X46709Y-47115D01*
X46717Y-47134D01*
X46721Y-47155D01*
X46721Y-47155D01*
G37*
G36*
X46721Y-47470D02*
X46721Y-47494D01*
X46716Y-47514D01*
X46707Y-47533D01*
X46695Y-47551D01*
X46680Y-47565D01*
X46662Y-47576D01*
X46643Y-47584D01*
X46622Y-47588D01*
X46601Y-47587D01*
X46580Y-47583D01*
X46561Y-47574D01*
X46544Y-47562D01*
X46529Y-47547D01*
X46518Y-47530D01*
X46510Y-47510D01*
X46506Y-47489D01*
X46507Y-47468D01*
X46511Y-47448D01*
X46519Y-47428D01*
X46531Y-47411D01*
X46546Y-47396D01*
X46564Y-47385D01*
X46583Y-47377D01*
X46604Y-47373D01*
X46625Y-47373D01*
X46646Y-47377D01*
X46665Y-47385D01*
X46682Y-47397D01*
X46697Y-47412D01*
X46709Y-47430D01*
X46717Y-47449D01*
X46721Y-47470D01*
X46721Y-47470D01*
G37*
G36*
X46721Y-47785D02*
X46721Y-47809D01*
X46716Y-47829D01*
X46707Y-47848D01*
X46695Y-47866D01*
X46680Y-47880D01*
X46662Y-47891D01*
X46643Y-47899D01*
X46622Y-47903D01*
X46601Y-47902D01*
X46580Y-47898D01*
X46561Y-47889D01*
X46544Y-47877D01*
X46529Y-47862D01*
X46518Y-47845D01*
X46510Y-47825D01*
X46506Y-47804D01*
X46507Y-47783D01*
X46511Y-47763D01*
X46519Y-47743D01*
X46531Y-47726D01*
X46546Y-47711D01*
X46564Y-47700D01*
X46583Y-47692D01*
X46604Y-47688D01*
X46625Y-47688D01*
X46646Y-47692D01*
X46665Y-47700D01*
X46682Y-47712D01*
X46697Y-47727D01*
X46709Y-47745D01*
X46717Y-47764D01*
X46721Y-47785D01*
X46721Y-47785D01*
G37*
G36*
X46731Y-40392D02*
X46574Y-40392D01*
X46574Y-39802D01*
X46731Y-39802D01*
X46731Y-40392D01*
X46731Y-40392D01*
G37*
G36*
X46744Y-29235D02*
X46414Y-29235D01*
X46414Y-28795D01*
X46744Y-28795D01*
X46744Y-29235D01*
X46744Y-29235D01*
G37*
G36*
X46744Y-29826D02*
X46414Y-29826D01*
X46414Y-29386D01*
X46744Y-29386D01*
X46744Y-29826D01*
X46744Y-29826D01*
G37*
G36*
X46755Y-21833D02*
X46315Y-21833D01*
X46315Y-21503D01*
X46755Y-21503D01*
X46755Y-21833D01*
X46755Y-21833D01*
G37*
G36*
X46755Y-22433D02*
X46315Y-22433D01*
X46315Y-22103D01*
X46755Y-22103D01*
X46755Y-22433D01*
X46755Y-22433D01*
G37*
G36*
X46869Y-41146D02*
X46646Y-41369D01*
X46480Y-41202D01*
X46702Y-40980D01*
X46869Y-41146D01*
X46869Y-41146D01*
G37*
G36*
X46888Y-40392D02*
X46731Y-40392D01*
X46731Y-39802D01*
X46888Y-39802D01*
X46888Y-40392D01*
X46888Y-40392D01*
G37*
G36*
X46929Y-41948D02*
X46614Y-41948D01*
X46614Y-41713D01*
X46929Y-41713D01*
X46929Y-41948D01*
X46929Y-41948D01*
G37*
G36*
X46929Y-42302D02*
X46614Y-42302D01*
X46614Y-42067D01*
X46929Y-42067D01*
X46929Y-42302D01*
X46929Y-42302D01*
G37*
G36*
X46994Y-20537D02*
X46600Y-20537D01*
X46600Y-20064D01*
X46994Y-20064D01*
X46994Y-20537D01*
X46994Y-20537D01*
G37*
G36*
X47036Y-44005D02*
X47036Y-44029D01*
X47031Y-44049D01*
X47022Y-44068D01*
X47010Y-44086D01*
X46995Y-44100D01*
X46977Y-44111D01*
X46958Y-44119D01*
X46937Y-44123D01*
X46916Y-44122D01*
X46895Y-44118D01*
X46876Y-44109D01*
X46859Y-44097D01*
X46844Y-44082D01*
X46833Y-44065D01*
X46825Y-44045D01*
X46821Y-44024D01*
X46822Y-44003D01*
X46826Y-43983D01*
X46834Y-43963D01*
X46846Y-43946D01*
X46861Y-43931D01*
X46879Y-43920D01*
X46898Y-43912D01*
X46919Y-43908D01*
X46940Y-43908D01*
X46961Y-43912D01*
X46980Y-43920D01*
X46997Y-43932D01*
X47012Y-43947D01*
X47024Y-43965D01*
X47032Y-43984D01*
X47036Y-44005D01*
X47036Y-44005D01*
G37*
G36*
X47036Y-44320D02*
X47036Y-44344D01*
X47031Y-44364D01*
X47022Y-44383D01*
X47010Y-44401D01*
X46995Y-44415D01*
X46977Y-44426D01*
X46958Y-44434D01*
X46937Y-44438D01*
X46916Y-44437D01*
X46895Y-44433D01*
X46876Y-44424D01*
X46859Y-44412D01*
X46844Y-44397D01*
X46833Y-44380D01*
X46825Y-44360D01*
X46821Y-44339D01*
X46822Y-44318D01*
X46826Y-44298D01*
X46834Y-44278D01*
X46846Y-44261D01*
X46861Y-44246D01*
X46879Y-44235D01*
X46898Y-44227D01*
X46919Y-44223D01*
X46940Y-44223D01*
X46961Y-44227D01*
X46980Y-44235D01*
X46997Y-44247D01*
X47012Y-44262D01*
X47024Y-44280D01*
X47032Y-44299D01*
X47036Y-44320D01*
X47036Y-44320D01*
G37*
G36*
X47036Y-44635D02*
X47036Y-44659D01*
X47031Y-44679D01*
X47022Y-44698D01*
X47010Y-44716D01*
X46995Y-44730D01*
X46977Y-44741D01*
X46958Y-44749D01*
X46937Y-44753D01*
X46916Y-44752D01*
X46895Y-44748D01*
X46876Y-44739D01*
X46859Y-44727D01*
X46844Y-44712D01*
X46833Y-44695D01*
X46825Y-44675D01*
X46821Y-44654D01*
X46822Y-44633D01*
X46826Y-44613D01*
X46834Y-44593D01*
X46846Y-44576D01*
X46861Y-44561D01*
X46879Y-44550D01*
X46898Y-44542D01*
X46919Y-44538D01*
X46940Y-44538D01*
X46961Y-44542D01*
X46980Y-44550D01*
X46997Y-44562D01*
X47012Y-44577D01*
X47024Y-44595D01*
X47032Y-44614D01*
X47036Y-44635D01*
X47036Y-44635D01*
G37*
G36*
X47036Y-44950D02*
X47036Y-44974D01*
X47031Y-44994D01*
X47022Y-45013D01*
X47010Y-45031D01*
X46995Y-45045D01*
X46977Y-45056D01*
X46958Y-45064D01*
X46937Y-45068D01*
X46916Y-45067D01*
X46895Y-45063D01*
X46876Y-45054D01*
X46859Y-45042D01*
X46844Y-45027D01*
X46833Y-45010D01*
X46825Y-44990D01*
X46821Y-44969D01*
X46822Y-44948D01*
X46826Y-44928D01*
X46834Y-44908D01*
X46846Y-44891D01*
X46861Y-44876D01*
X46879Y-44865D01*
X46898Y-44857D01*
X46919Y-44853D01*
X46940Y-44853D01*
X46961Y-44857D01*
X46980Y-44865D01*
X46997Y-44877D01*
X47012Y-44892D01*
X47024Y-44910D01*
X47032Y-44929D01*
X47036Y-44950D01*
X47036Y-44950D01*
G37*
G36*
X47036Y-45265D02*
X47036Y-45289D01*
X47031Y-45309D01*
X47022Y-45328D01*
X47010Y-45346D01*
X46995Y-45360D01*
X46977Y-45371D01*
X46958Y-45379D01*
X46937Y-45383D01*
X46916Y-45382D01*
X46895Y-45378D01*
X46876Y-45369D01*
X46859Y-45357D01*
X46844Y-45342D01*
X46833Y-45325D01*
X46825Y-45305D01*
X46821Y-45284D01*
X46822Y-45263D01*
X46826Y-45243D01*
X46834Y-45223D01*
X46846Y-45206D01*
X46861Y-45191D01*
X46879Y-45180D01*
X46898Y-45172D01*
X46919Y-45168D01*
X46940Y-45168D01*
X46961Y-45172D01*
X46980Y-45180D01*
X46997Y-45192D01*
X47012Y-45207D01*
X47024Y-45225D01*
X47032Y-45244D01*
X47036Y-45265D01*
X47036Y-45265D01*
G37*
G36*
X47036Y-45580D02*
X47036Y-45604D01*
X47031Y-45624D01*
X47022Y-45643D01*
X47010Y-45661D01*
X46995Y-45675D01*
X46977Y-45686D01*
X46958Y-45694D01*
X46937Y-45698D01*
X46916Y-45697D01*
X46895Y-45693D01*
X46876Y-45684D01*
X46859Y-45672D01*
X46844Y-45657D01*
X46833Y-45640D01*
X46825Y-45620D01*
X46821Y-45599D01*
X46822Y-45578D01*
X46826Y-45558D01*
X46834Y-45538D01*
X46846Y-45521D01*
X46861Y-45506D01*
X46879Y-45495D01*
X46898Y-45487D01*
X46919Y-45483D01*
X46940Y-45483D01*
X46961Y-45487D01*
X46980Y-45495D01*
X46997Y-45507D01*
X47012Y-45522D01*
X47024Y-45540D01*
X47032Y-45559D01*
X47036Y-45580D01*
X47036Y-45580D01*
G37*
G36*
X47036Y-45895D02*
X47036Y-45919D01*
X47031Y-45939D01*
X47022Y-45958D01*
X47010Y-45976D01*
X46995Y-45990D01*
X46977Y-46001D01*
X46958Y-46009D01*
X46937Y-46013D01*
X46916Y-46012D01*
X46895Y-46008D01*
X46876Y-45999D01*
X46859Y-45987D01*
X46844Y-45972D01*
X46833Y-45955D01*
X46825Y-45935D01*
X46821Y-45914D01*
X46822Y-45893D01*
X46826Y-45873D01*
X46834Y-45853D01*
X46846Y-45836D01*
X46861Y-45821D01*
X46879Y-45810D01*
X46898Y-45802D01*
X46919Y-45798D01*
X46940Y-45798D01*
X46961Y-45802D01*
X46980Y-45810D01*
X46997Y-45822D01*
X47012Y-45837D01*
X47024Y-45855D01*
X47032Y-45874D01*
X47036Y-45895D01*
X47036Y-45895D01*
G37*
G36*
X47036Y-46210D02*
X47036Y-46234D01*
X47031Y-46254D01*
X47022Y-46273D01*
X47010Y-46291D01*
X46995Y-46305D01*
X46977Y-46316D01*
X46958Y-46324D01*
X46937Y-46328D01*
X46916Y-46327D01*
X46895Y-46323D01*
X46876Y-46314D01*
X46859Y-46302D01*
X46844Y-46287D01*
X46833Y-46270D01*
X46825Y-46250D01*
X46821Y-46229D01*
X46822Y-46208D01*
X46826Y-46188D01*
X46834Y-46168D01*
X46846Y-46151D01*
X46861Y-46136D01*
X46879Y-46125D01*
X46898Y-46117D01*
X46919Y-46113D01*
X46940Y-46113D01*
X46961Y-46117D01*
X46980Y-46125D01*
X46997Y-46137D01*
X47012Y-46152D01*
X47024Y-46170D01*
X47032Y-46189D01*
X47036Y-46210D01*
X47036Y-46210D01*
G37*
G36*
X47036Y-46525D02*
X47036Y-46549D01*
X47031Y-46569D01*
X47022Y-46588D01*
X47010Y-46606D01*
X46995Y-46620D01*
X46977Y-46631D01*
X46958Y-46639D01*
X46937Y-46643D01*
X46916Y-46642D01*
X46895Y-46638D01*
X46876Y-46629D01*
X46859Y-46617D01*
X46844Y-46602D01*
X46833Y-46585D01*
X46825Y-46565D01*
X46821Y-46544D01*
X46822Y-46523D01*
X46826Y-46503D01*
X46834Y-46483D01*
X46846Y-46466D01*
X46861Y-46451D01*
X46879Y-46440D01*
X46898Y-46432D01*
X46919Y-46428D01*
X46940Y-46428D01*
X46961Y-46432D01*
X46980Y-46440D01*
X46997Y-46452D01*
X47012Y-46467D01*
X47024Y-46485D01*
X47032Y-46504D01*
X47036Y-46525D01*
X47036Y-46525D01*
G37*
G36*
X47036Y-46840D02*
X47036Y-46864D01*
X47031Y-46884D01*
X47022Y-46903D01*
X47010Y-46921D01*
X46995Y-46935D01*
X46977Y-46946D01*
X46958Y-46954D01*
X46937Y-46958D01*
X46916Y-46957D01*
X46895Y-46953D01*
X46876Y-46944D01*
X46859Y-46932D01*
X46844Y-46917D01*
X46833Y-46900D01*
X46825Y-46880D01*
X46821Y-46859D01*
X46822Y-46838D01*
X46826Y-46818D01*
X46834Y-46798D01*
X46846Y-46781D01*
X46861Y-46766D01*
X46879Y-46755D01*
X46898Y-46747D01*
X46919Y-46743D01*
X46940Y-46743D01*
X46961Y-46747D01*
X46980Y-46755D01*
X46997Y-46767D01*
X47012Y-46782D01*
X47024Y-46800D01*
X47032Y-46819D01*
X47036Y-46840D01*
X47036Y-46840D01*
G37*
G36*
X47036Y-47155D02*
X47036Y-47179D01*
X47031Y-47199D01*
X47022Y-47218D01*
X47010Y-47236D01*
X46995Y-47250D01*
X46977Y-47261D01*
X46958Y-47269D01*
X46937Y-47273D01*
X46916Y-47272D01*
X46895Y-47268D01*
X46876Y-47259D01*
X46859Y-47247D01*
X46844Y-47232D01*
X46833Y-47215D01*
X46825Y-47195D01*
X46821Y-47174D01*
X46822Y-47153D01*
X46826Y-47133D01*
X46834Y-47113D01*
X46846Y-47096D01*
X46861Y-47081D01*
X46879Y-47070D01*
X46898Y-47062D01*
X46919Y-47058D01*
X46940Y-47058D01*
X46961Y-47062D01*
X46980Y-47070D01*
X46997Y-47082D01*
X47012Y-47097D01*
X47024Y-47115D01*
X47032Y-47134D01*
X47036Y-47155D01*
X47036Y-47155D01*
G37*
G36*
X47036Y-47470D02*
X47036Y-47494D01*
X47031Y-47514D01*
X47022Y-47533D01*
X47010Y-47551D01*
X46995Y-47565D01*
X46977Y-47576D01*
X46958Y-47584D01*
X46937Y-47588D01*
X46916Y-47587D01*
X46895Y-47583D01*
X46876Y-47574D01*
X46859Y-47562D01*
X46844Y-47547D01*
X46833Y-47530D01*
X46825Y-47510D01*
X46821Y-47489D01*
X46822Y-47468D01*
X46826Y-47448D01*
X46834Y-47428D01*
X46846Y-47411D01*
X46861Y-47396D01*
X46879Y-47385D01*
X46898Y-47377D01*
X46919Y-47373D01*
X46940Y-47373D01*
X46961Y-47377D01*
X46980Y-47385D01*
X46997Y-47397D01*
X47012Y-47412D01*
X47024Y-47430D01*
X47032Y-47449D01*
X47036Y-47470D01*
X47036Y-47470D01*
G37*
G36*
X47036Y-47785D02*
X47036Y-47809D01*
X47031Y-47829D01*
X47022Y-47848D01*
X47010Y-47866D01*
X46995Y-47880D01*
X46977Y-47891D01*
X46958Y-47899D01*
X46937Y-47903D01*
X46916Y-47902D01*
X46895Y-47898D01*
X46876Y-47889D01*
X46859Y-47877D01*
X46844Y-47862D01*
X46833Y-47845D01*
X46825Y-47825D01*
X46821Y-47804D01*
X46822Y-47783D01*
X46826Y-47763D01*
X46834Y-47743D01*
X46846Y-47726D01*
X46861Y-47711D01*
X46879Y-47700D01*
X46898Y-47692D01*
X46919Y-47688D01*
X46940Y-47688D01*
X46961Y-47692D01*
X46980Y-47700D01*
X46997Y-47712D01*
X47012Y-47727D01*
X47024Y-47745D01*
X47032Y-47764D01*
X47036Y-47785D01*
X47036Y-47785D01*
G37*
G36*
X47046Y-40392D02*
X46889Y-40392D01*
X46889Y-39802D01*
X47046Y-39802D01*
X47046Y-40392D01*
X47046Y-40392D01*
G37*
G36*
X47119Y-41397D02*
X46897Y-41619D01*
X46730Y-41453D01*
X46953Y-41230D01*
X47119Y-41397D01*
X47119Y-41397D01*
G37*
G36*
X47179Y-54637D02*
X46785Y-54637D01*
X46785Y-54165D01*
X47179Y-54165D01*
X47179Y-54637D01*
X47179Y-54637D01*
G37*
G36*
X47203Y-40392D02*
X47046Y-40392D01*
X47046Y-39802D01*
X47203Y-39802D01*
X47203Y-40392D01*
X47203Y-40392D01*
G37*
G36*
X47244Y-21287D02*
X46850Y-21287D01*
X46850Y-20814D01*
X47244Y-20814D01*
X47244Y-21287D01*
X47244Y-21287D01*
G37*
G36*
X47361Y-40392D02*
X47204Y-40392D01*
X47204Y-39802D01*
X47361Y-39802D01*
X47361Y-40392D01*
X47361Y-40392D01*
G37*
G36*
X47423Y-29235D02*
X47094Y-29235D01*
X47094Y-28795D01*
X47423Y-28795D01*
X47423Y-29235D01*
X47423Y-29235D01*
G37*
G36*
X47423Y-29826D02*
X47094Y-29826D01*
X47094Y-29386D01*
X47423Y-29386D01*
X47423Y-29826D01*
X47423Y-29826D01*
G37*
G36*
X47429Y-55387D02*
X47035Y-55387D01*
X47035Y-54915D01*
X47429Y-54915D01*
X47429Y-55387D01*
X47429Y-55387D01*
G37*
G36*
X47518Y-40392D02*
X47361Y-40392D01*
X47361Y-39802D01*
X47518Y-39802D01*
X47518Y-40392D01*
X47518Y-40392D01*
G37*
G36*
X47539Y-27618D02*
X46948Y-27618D01*
X46948Y-26161D01*
X47539Y-26161D01*
X47539Y-27618D01*
X47539Y-27618D01*
G37*
G36*
X47676Y-40392D02*
X47519Y-40392D01*
X47519Y-39802D01*
X47676Y-39802D01*
X47676Y-40392D01*
X47676Y-40392D01*
G37*
G36*
X47744Y-20537D02*
X47350Y-20537D01*
X47350Y-20064D01*
X47744Y-20064D01*
X47744Y-20537D01*
X47744Y-20537D01*
G37*
G36*
X47833Y-40392D02*
X47676Y-40392D01*
X47676Y-39802D01*
X47833Y-39802D01*
X47833Y-40392D01*
X47833Y-40392D01*
G37*
G36*
X47929Y-54637D02*
X47535Y-54637D01*
X47535Y-54165D01*
X47929Y-54165D01*
X47929Y-54637D01*
X47929Y-54637D01*
G37*
G36*
X47991Y-40392D02*
X47834Y-40392D01*
X47834Y-39802D01*
X47991Y-39802D01*
X47991Y-40392D01*
X47991Y-40392D01*
G37*
G36*
X47994Y-21287D02*
X47600Y-21287D01*
X47600Y-20814D01*
X47994Y-20814D01*
X47994Y-21287D01*
X47994Y-21287D01*
G37*
G36*
X48023Y-29235D02*
X47694Y-29235D01*
X47694Y-28795D01*
X48023Y-28795D01*
X48023Y-29235D01*
X48023Y-29235D01*
G37*
G36*
X48023Y-29826D02*
X47694Y-29826D01*
X47694Y-29386D01*
X48023Y-29386D01*
X48023Y-29826D01*
X48023Y-29826D01*
G37*
G36*
X48122Y-24665D02*
X48070Y-24665D01*
X48063Y-24665D01*
X48056Y-24668D01*
X48050Y-24674D01*
X48047Y-24681D01*
X48047Y-24688D01*
X48047Y-25094D01*
X47641Y-25094D01*
X47633Y-25094D01*
X47626Y-25097D01*
X47621Y-25103D01*
X47618Y-25110D01*
X47618Y-25118D01*
X47618Y-25119D01*
X46790Y-25119D01*
X46790Y-25118D01*
X46790Y-25110D01*
X46788Y-25103D01*
X46782Y-25097D01*
X46775Y-25094D01*
X46767Y-25094D01*
X46361Y-25094D01*
X46361Y-24688D01*
X46361Y-24681D01*
X46358Y-24674D01*
X46353Y-24668D01*
X46346Y-24665D01*
X46338Y-24665D01*
X46287Y-24665D01*
X46287Y-23838D01*
X46338Y-23838D01*
X46346Y-23838D01*
X46353Y-23835D01*
X46358Y-23829D01*
X46361Y-23822D01*
X46361Y-23815D01*
X46361Y-23409D01*
X46767Y-23409D01*
X46775Y-23409D01*
X46782Y-23406D01*
X46788Y-23400D01*
X46790Y-23393D01*
X46790Y-23385D01*
X46790Y-23384D01*
X47618Y-23384D01*
X47618Y-23385D01*
X47618Y-23393D01*
X47621Y-23400D01*
X47626Y-23406D01*
X47633Y-23409D01*
X47641Y-23409D01*
X48047Y-23409D01*
X48047Y-23815D01*
X48047Y-23822D01*
X48050Y-23829D01*
X48056Y-23835D01*
X48063Y-23838D01*
X48070Y-23838D01*
X48122Y-23838D01*
X48122Y-24665D01*
X48122Y-24665D01*
G37*
G36*
X48148Y-40392D02*
X47991Y-40392D01*
X47991Y-39802D01*
X48148Y-39802D01*
X48148Y-40392D01*
X48148Y-40392D01*
G37*
G36*
X48148Y-31851D02*
X48014Y-31851D01*
X48007Y-31851D01*
X47975Y-31851D01*
X47968Y-31851D01*
X47856Y-31851D01*
X47849Y-31851D01*
X47818Y-31851D01*
X47811Y-31851D01*
X47699Y-31851D01*
X47692Y-31851D01*
X47660Y-31851D01*
X47653Y-31851D01*
X47541Y-31851D01*
X47534Y-31851D01*
X47503Y-31851D01*
X47496Y-31851D01*
X47384Y-31851D01*
X47377Y-31851D01*
X47345Y-31851D01*
X47338Y-31851D01*
X47226Y-31851D01*
X47219Y-31851D01*
X47188Y-31851D01*
X47181Y-31851D01*
X47069Y-31851D01*
X47062Y-31851D01*
X47030Y-31851D01*
X47023Y-31851D01*
X46911Y-31851D01*
X46904Y-31851D01*
X46873Y-31851D01*
X46866Y-31851D01*
X46754Y-31851D01*
X46747Y-31851D01*
X46715Y-31851D01*
X46708Y-31851D01*
X46597Y-31851D01*
X46590Y-31851D01*
X46558Y-31851D01*
X46551Y-31851D01*
X46439Y-31851D01*
X46432Y-31851D01*
X46401Y-31851D01*
X46394Y-31851D01*
X46282Y-31851D01*
X46275Y-31851D01*
X46243Y-31851D01*
X46236Y-31851D01*
X46124Y-31851D01*
X46117Y-31851D01*
X46086Y-31851D01*
X46079Y-31851D01*
X45967Y-31851D01*
X45960Y-31851D01*
X45928Y-31851D01*
X45921Y-31851D01*
X45809Y-31851D01*
X45802Y-31851D01*
X45771Y-31851D01*
X45764Y-31851D01*
X45652Y-31851D01*
X45645Y-31851D01*
X45613Y-31851D01*
X45606Y-31851D01*
X45494Y-31851D01*
X45487Y-31851D01*
X45456Y-31851D01*
X45449Y-31851D01*
X45337Y-31851D01*
X45330Y-31851D01*
X45298Y-31851D01*
X45291Y-31851D01*
X45179Y-31851D01*
X45172Y-31851D01*
X45141Y-31851D01*
X45134Y-31851D01*
X45022Y-31851D01*
X45015Y-31851D01*
X44983Y-31851D01*
X44976Y-31851D01*
X44864Y-31851D01*
X44857Y-31851D01*
X44826Y-31851D01*
X44819Y-31851D01*
X44708Y-31851D01*
X44701Y-31851D01*
X44668Y-31851D01*
X44661Y-31851D01*
X44550Y-31851D01*
X44543Y-31851D01*
X44512Y-31851D01*
X44505Y-31851D01*
X44393Y-31851D01*
X44386Y-31851D01*
X44354Y-31851D01*
X44347Y-31851D01*
X44235Y-31851D01*
X44228Y-31851D01*
X44197Y-31851D01*
X44190Y-31851D01*
X44078Y-31851D01*
X44071Y-31851D01*
X44039Y-31851D01*
X44032Y-31851D01*
X43920Y-31851D01*
X43913Y-31851D01*
X43882Y-31851D01*
X43875Y-31851D01*
X43763Y-31851D01*
X43756Y-31851D01*
X43724Y-31851D01*
X43717Y-31851D01*
X43605Y-31851D01*
X43598Y-31851D01*
X43567Y-31851D01*
X43560Y-31851D01*
X43448Y-31851D01*
X43441Y-31851D01*
X43409Y-31851D01*
X43402Y-31851D01*
X43290Y-31851D01*
X43283Y-31851D01*
X43252Y-31851D01*
X43245Y-31851D01*
X43133Y-31851D01*
X43126Y-31851D01*
X43094Y-31851D01*
X43087Y-31851D01*
X42975Y-31851D01*
X42968Y-31851D01*
X42937Y-31851D01*
X42930Y-31851D01*
X42818Y-31851D01*
X42811Y-31851D01*
X42779Y-31851D01*
X42772Y-31851D01*
X42661Y-31851D01*
X42654Y-31851D01*
X42622Y-31851D01*
X42615Y-31851D01*
X42503Y-31851D01*
X42496Y-31851D01*
X42465Y-31851D01*
X42458Y-31851D01*
X42346Y-31851D01*
X42339Y-31851D01*
X42307Y-31851D01*
X42300Y-31851D01*
X42188Y-31851D01*
X42181Y-31851D01*
X42150Y-31851D01*
X42143Y-31851D01*
X42031Y-31851D01*
X42024Y-31851D01*
X41992Y-31851D01*
X41985Y-31851D01*
X41873Y-31851D01*
X41866Y-31851D01*
X41835Y-31851D01*
X41828Y-31851D01*
X41716Y-31851D01*
X41709Y-31851D01*
X41677Y-31851D01*
X41670Y-31851D01*
X41558Y-31851D01*
X41551Y-31851D01*
X41520Y-31851D01*
X41513Y-31851D01*
X41401Y-31851D01*
X41394Y-31851D01*
X41362Y-31851D01*
X41355Y-31851D01*
X41221Y-31851D01*
X41221Y-31260D01*
X41355Y-31260D01*
X41362Y-31260D01*
X41394Y-31260D01*
X41401Y-31260D01*
X41513Y-31260D01*
X41520Y-31260D01*
X41551Y-31260D01*
X41558Y-31260D01*
X41670Y-31260D01*
X41677Y-31260D01*
X41709Y-31260D01*
X41716Y-31260D01*
X41828Y-31260D01*
X41835Y-31260D01*
X41866Y-31260D01*
X41873Y-31260D01*
X41985Y-31260D01*
X41992Y-31260D01*
X42024Y-31260D01*
X42031Y-31260D01*
X42143Y-31260D01*
X42150Y-31260D01*
X42181Y-31260D01*
X42188Y-31260D01*
X42300Y-31260D01*
X42307Y-31260D01*
X42339Y-31260D01*
X42346Y-31260D01*
X42458Y-31260D01*
X42465Y-31260D01*
X42496Y-31260D01*
X42503Y-31260D01*
X42615Y-31260D01*
X42622Y-31260D01*
X42654Y-31260D01*
X42661Y-31260D01*
X42772Y-31260D01*
X42779Y-31260D01*
X42811Y-31260D01*
X42818Y-31260D01*
X42930Y-31260D01*
X42937Y-31260D01*
X42968Y-31260D01*
X42975Y-31260D01*
X43087Y-31260D01*
X43094Y-31260D01*
X43126Y-31260D01*
X43133Y-31260D01*
X43245Y-31260D01*
X43252Y-31260D01*
X43283Y-31260D01*
X43290Y-31260D01*
X43402Y-31260D01*
X43409Y-31260D01*
X43441Y-31260D01*
X43448Y-31260D01*
X43560Y-31260D01*
X43567Y-31260D01*
X43598Y-31260D01*
X43605Y-31260D01*
X43717Y-31260D01*
X43724Y-31260D01*
X43756Y-31260D01*
X43763Y-31260D01*
X43875Y-31260D01*
X43882Y-31260D01*
X43913Y-31260D01*
X43920Y-31260D01*
X44032Y-31260D01*
X44039Y-31260D01*
X44071Y-31260D01*
X44078Y-31260D01*
X44190Y-31260D01*
X44197Y-31260D01*
X44228Y-31260D01*
X44235Y-31260D01*
X44347Y-31260D01*
X44354Y-31260D01*
X44386Y-31260D01*
X44393Y-31260D01*
X44505Y-31260D01*
X44512Y-31260D01*
X44543Y-31260D01*
X44550Y-31260D01*
X44661Y-31260D01*
X44668Y-31260D01*
X44701Y-31260D01*
X44708Y-31260D01*
X44819Y-31260D01*
X44826Y-31260D01*
X44857Y-31260D01*
X44864Y-31260D01*
X44976Y-31260D01*
X44983Y-31260D01*
X45015Y-31260D01*
X45022Y-31260D01*
X45134Y-31260D01*
X45141Y-31260D01*
X45172Y-31260D01*
X45179Y-31260D01*
X45291Y-31260D01*
X45298Y-31260D01*
X45330Y-31260D01*
X45337Y-31260D01*
X45449Y-31260D01*
X45456Y-31260D01*
X45487Y-31260D01*
X45494Y-31260D01*
X45606Y-31260D01*
X45613Y-31260D01*
X45645Y-31260D01*
X45652Y-31260D01*
X45764Y-31260D01*
X45771Y-31260D01*
X45802Y-31260D01*
X45809Y-31260D01*
X45921Y-31260D01*
X45928Y-31260D01*
X45960Y-31260D01*
X45967Y-31260D01*
X46079Y-31260D01*
X46086Y-31260D01*
X46117Y-31260D01*
X46124Y-31260D01*
X46236Y-31260D01*
X46243Y-31260D01*
X46275Y-31260D01*
X46282Y-31260D01*
X46394Y-31260D01*
X46401Y-31260D01*
X46432Y-31260D01*
X46439Y-31260D01*
X46551Y-31260D01*
X46558Y-31260D01*
X46590Y-31260D01*
X46597Y-31260D01*
X46708Y-31260D01*
X46715Y-31260D01*
X46747Y-31260D01*
X46754Y-31260D01*
X46866Y-31260D01*
X46873Y-31260D01*
X46904Y-31260D01*
X46911Y-31260D01*
X47023Y-31260D01*
X47030Y-31260D01*
X47062Y-31260D01*
X47069Y-31260D01*
X47181Y-31260D01*
X47188Y-31260D01*
X47219Y-31260D01*
X47226Y-31260D01*
X47338Y-31260D01*
X47345Y-31260D01*
X47377Y-31260D01*
X47384Y-31260D01*
X47496Y-31260D01*
X47503Y-31260D01*
X47534Y-31260D01*
X47541Y-31260D01*
X47653Y-31260D01*
X47660Y-31260D01*
X47692Y-31260D01*
X47699Y-31260D01*
X47811Y-31260D01*
X47818Y-31260D01*
X47849Y-31260D01*
X47856Y-31260D01*
X47968Y-31260D01*
X47975Y-31260D01*
X48007Y-31260D01*
X48014Y-31260D01*
X48148Y-31260D01*
X48148Y-31851D01*
X48148Y-31851D01*
G37*
G36*
X48172Y-21872D02*
X47733Y-21872D01*
X47733Y-21543D01*
X48172Y-21543D01*
X48172Y-21872D01*
X48172Y-21872D01*
G37*
G36*
X48172Y-22472D02*
X47733Y-22472D01*
X47733Y-22143D01*
X48172Y-22143D01*
X48172Y-22472D01*
X48172Y-22472D01*
G37*
G36*
X48179Y-55387D02*
X47785Y-55387D01*
X47785Y-54915D01*
X48179Y-54915D01*
X48179Y-55387D01*
X48179Y-55387D01*
G37*
G36*
X48296Y-44005D02*
X48296Y-44029D01*
X48291Y-44049D01*
X48282Y-44068D01*
X48270Y-44086D01*
X48255Y-44100D01*
X48237Y-44111D01*
X48218Y-44119D01*
X48197Y-44123D01*
X48176Y-44122D01*
X48155Y-44118D01*
X48136Y-44109D01*
X48119Y-44097D01*
X48104Y-44082D01*
X48093Y-44065D01*
X48085Y-44045D01*
X48081Y-44024D01*
X48082Y-44003D01*
X48086Y-43983D01*
X48094Y-43963D01*
X48106Y-43946D01*
X48121Y-43931D01*
X48139Y-43920D01*
X48158Y-43912D01*
X48179Y-43908D01*
X48200Y-43908D01*
X48221Y-43912D01*
X48240Y-43920D01*
X48257Y-43932D01*
X48272Y-43947D01*
X48284Y-43965D01*
X48292Y-43984D01*
X48296Y-44005D01*
X48296Y-44005D01*
G37*
G36*
X48296Y-44320D02*
X48296Y-44344D01*
X48291Y-44364D01*
X48282Y-44383D01*
X48270Y-44401D01*
X48255Y-44415D01*
X48237Y-44426D01*
X48218Y-44434D01*
X48197Y-44438D01*
X48176Y-44437D01*
X48155Y-44433D01*
X48136Y-44424D01*
X48119Y-44412D01*
X48104Y-44397D01*
X48093Y-44380D01*
X48085Y-44360D01*
X48081Y-44339D01*
X48082Y-44318D01*
X48086Y-44298D01*
X48094Y-44278D01*
X48106Y-44261D01*
X48121Y-44246D01*
X48139Y-44235D01*
X48158Y-44227D01*
X48179Y-44223D01*
X48200Y-44223D01*
X48221Y-44227D01*
X48240Y-44235D01*
X48257Y-44247D01*
X48272Y-44262D01*
X48284Y-44280D01*
X48292Y-44299D01*
X48296Y-44320D01*
X48296Y-44320D01*
G37*
G36*
X48296Y-44635D02*
X48296Y-44659D01*
X48291Y-44679D01*
X48282Y-44698D01*
X48270Y-44716D01*
X48255Y-44730D01*
X48237Y-44741D01*
X48218Y-44749D01*
X48197Y-44753D01*
X48176Y-44752D01*
X48155Y-44748D01*
X48136Y-44739D01*
X48119Y-44727D01*
X48104Y-44712D01*
X48093Y-44695D01*
X48085Y-44675D01*
X48081Y-44654D01*
X48082Y-44633D01*
X48086Y-44613D01*
X48094Y-44593D01*
X48106Y-44576D01*
X48121Y-44561D01*
X48139Y-44550D01*
X48158Y-44542D01*
X48179Y-44538D01*
X48200Y-44538D01*
X48221Y-44542D01*
X48240Y-44550D01*
X48257Y-44562D01*
X48272Y-44577D01*
X48284Y-44595D01*
X48292Y-44614D01*
X48296Y-44635D01*
X48296Y-44635D01*
G37*
G36*
X48296Y-44950D02*
X48296Y-44974D01*
X48291Y-44994D01*
X48282Y-45013D01*
X48270Y-45031D01*
X48255Y-45045D01*
X48237Y-45056D01*
X48218Y-45064D01*
X48197Y-45068D01*
X48176Y-45067D01*
X48155Y-45063D01*
X48136Y-45054D01*
X48119Y-45042D01*
X48104Y-45027D01*
X48093Y-45010D01*
X48085Y-44990D01*
X48081Y-44969D01*
X48082Y-44948D01*
X48086Y-44928D01*
X48094Y-44908D01*
X48106Y-44891D01*
X48121Y-44876D01*
X48139Y-44865D01*
X48158Y-44857D01*
X48179Y-44853D01*
X48200Y-44853D01*
X48221Y-44857D01*
X48240Y-44865D01*
X48257Y-44877D01*
X48272Y-44892D01*
X48284Y-44910D01*
X48292Y-44929D01*
X48296Y-44950D01*
X48296Y-44950D01*
G37*
G36*
X48296Y-45265D02*
X48296Y-45289D01*
X48291Y-45309D01*
X48282Y-45328D01*
X48270Y-45346D01*
X48255Y-45360D01*
X48237Y-45371D01*
X48218Y-45379D01*
X48197Y-45383D01*
X48176Y-45382D01*
X48155Y-45378D01*
X48136Y-45369D01*
X48119Y-45357D01*
X48104Y-45342D01*
X48093Y-45325D01*
X48085Y-45305D01*
X48081Y-45284D01*
X48082Y-45263D01*
X48086Y-45243D01*
X48094Y-45223D01*
X48106Y-45206D01*
X48121Y-45191D01*
X48139Y-45180D01*
X48158Y-45172D01*
X48179Y-45168D01*
X48200Y-45168D01*
X48221Y-45172D01*
X48240Y-45180D01*
X48257Y-45192D01*
X48272Y-45207D01*
X48284Y-45225D01*
X48292Y-45244D01*
X48296Y-45265D01*
X48296Y-45265D01*
G37*
G36*
X48296Y-45580D02*
X48296Y-45604D01*
X48291Y-45624D01*
X48282Y-45643D01*
X48270Y-45661D01*
X48255Y-45675D01*
X48237Y-45686D01*
X48218Y-45694D01*
X48197Y-45698D01*
X48176Y-45697D01*
X48155Y-45693D01*
X48136Y-45684D01*
X48119Y-45672D01*
X48104Y-45657D01*
X48093Y-45640D01*
X48085Y-45620D01*
X48081Y-45599D01*
X48082Y-45578D01*
X48086Y-45558D01*
X48094Y-45538D01*
X48106Y-45521D01*
X48121Y-45506D01*
X48139Y-45495D01*
X48158Y-45487D01*
X48179Y-45483D01*
X48200Y-45483D01*
X48221Y-45487D01*
X48240Y-45495D01*
X48257Y-45507D01*
X48272Y-45522D01*
X48284Y-45540D01*
X48292Y-45559D01*
X48296Y-45580D01*
X48296Y-45580D01*
G37*
G36*
X48296Y-45895D02*
X48296Y-45919D01*
X48291Y-45939D01*
X48282Y-45958D01*
X48270Y-45976D01*
X48255Y-45990D01*
X48237Y-46001D01*
X48218Y-46009D01*
X48197Y-46013D01*
X48176Y-46012D01*
X48155Y-46008D01*
X48136Y-45999D01*
X48119Y-45987D01*
X48104Y-45972D01*
X48093Y-45955D01*
X48085Y-45935D01*
X48081Y-45914D01*
X48082Y-45893D01*
X48086Y-45873D01*
X48094Y-45853D01*
X48106Y-45836D01*
X48121Y-45821D01*
X48139Y-45810D01*
X48158Y-45802D01*
X48179Y-45798D01*
X48200Y-45798D01*
X48221Y-45802D01*
X48240Y-45810D01*
X48257Y-45822D01*
X48272Y-45837D01*
X48284Y-45855D01*
X48292Y-45874D01*
X48296Y-45895D01*
X48296Y-45895D01*
G37*
G36*
X48296Y-46210D02*
X48296Y-46234D01*
X48291Y-46254D01*
X48282Y-46273D01*
X48270Y-46291D01*
X48255Y-46305D01*
X48237Y-46316D01*
X48218Y-46324D01*
X48197Y-46328D01*
X48176Y-46327D01*
X48155Y-46323D01*
X48136Y-46314D01*
X48119Y-46302D01*
X48104Y-46287D01*
X48093Y-46270D01*
X48085Y-46250D01*
X48081Y-46229D01*
X48082Y-46208D01*
X48086Y-46188D01*
X48094Y-46168D01*
X48106Y-46151D01*
X48121Y-46136D01*
X48139Y-46125D01*
X48158Y-46117D01*
X48179Y-46113D01*
X48200Y-46113D01*
X48221Y-46117D01*
X48240Y-46125D01*
X48257Y-46137D01*
X48272Y-46152D01*
X48284Y-46170D01*
X48292Y-46189D01*
X48296Y-46210D01*
X48296Y-46210D01*
G37*
G36*
X48296Y-46525D02*
X48296Y-46549D01*
X48291Y-46569D01*
X48282Y-46588D01*
X48270Y-46606D01*
X48255Y-46620D01*
X48237Y-46631D01*
X48218Y-46639D01*
X48197Y-46643D01*
X48176Y-46642D01*
X48155Y-46638D01*
X48136Y-46629D01*
X48119Y-46617D01*
X48104Y-46602D01*
X48093Y-46585D01*
X48085Y-46565D01*
X48081Y-46544D01*
X48082Y-46523D01*
X48086Y-46503D01*
X48094Y-46483D01*
X48106Y-46466D01*
X48121Y-46451D01*
X48139Y-46440D01*
X48158Y-46432D01*
X48179Y-46428D01*
X48200Y-46428D01*
X48221Y-46432D01*
X48240Y-46440D01*
X48257Y-46452D01*
X48272Y-46467D01*
X48284Y-46485D01*
X48292Y-46504D01*
X48296Y-46525D01*
X48296Y-46525D01*
G37*
G36*
X48296Y-46840D02*
X48296Y-46864D01*
X48291Y-46884D01*
X48282Y-46903D01*
X48270Y-46921D01*
X48255Y-46935D01*
X48237Y-46946D01*
X48218Y-46954D01*
X48197Y-46958D01*
X48176Y-46957D01*
X48155Y-46953D01*
X48136Y-46944D01*
X48119Y-46932D01*
X48104Y-46917D01*
X48093Y-46900D01*
X48085Y-46880D01*
X48081Y-46859D01*
X48082Y-46838D01*
X48086Y-46818D01*
X48094Y-46798D01*
X48106Y-46781D01*
X48121Y-46766D01*
X48139Y-46755D01*
X48158Y-46747D01*
X48179Y-46743D01*
X48200Y-46743D01*
X48221Y-46747D01*
X48240Y-46755D01*
X48257Y-46767D01*
X48272Y-46782D01*
X48284Y-46800D01*
X48292Y-46819D01*
X48296Y-46840D01*
X48296Y-46840D01*
G37*
G36*
X48296Y-47155D02*
X48296Y-47179D01*
X48291Y-47199D01*
X48282Y-47218D01*
X48270Y-47236D01*
X48255Y-47250D01*
X48237Y-47261D01*
X48218Y-47269D01*
X48197Y-47273D01*
X48176Y-47272D01*
X48155Y-47268D01*
X48136Y-47259D01*
X48119Y-47247D01*
X48104Y-47232D01*
X48093Y-47215D01*
X48085Y-47195D01*
X48081Y-47174D01*
X48082Y-47153D01*
X48086Y-47133D01*
X48094Y-47113D01*
X48106Y-47096D01*
X48121Y-47081D01*
X48139Y-47070D01*
X48158Y-47062D01*
X48179Y-47058D01*
X48200Y-47058D01*
X48221Y-47062D01*
X48240Y-47070D01*
X48257Y-47082D01*
X48272Y-47097D01*
X48284Y-47115D01*
X48292Y-47134D01*
X48296Y-47155D01*
X48296Y-47155D01*
G37*
G36*
X48296Y-47470D02*
X48296Y-47494D01*
X48291Y-47514D01*
X48282Y-47533D01*
X48270Y-47551D01*
X48255Y-47565D01*
X48237Y-47576D01*
X48218Y-47584D01*
X48197Y-47588D01*
X48176Y-47587D01*
X48155Y-47583D01*
X48136Y-47574D01*
X48119Y-47562D01*
X48104Y-47547D01*
X48093Y-47530D01*
X48085Y-47510D01*
X48081Y-47489D01*
X48082Y-47468D01*
X48086Y-47448D01*
X48094Y-47428D01*
X48106Y-47411D01*
X48121Y-47396D01*
X48139Y-47385D01*
X48158Y-47377D01*
X48179Y-47373D01*
X48200Y-47373D01*
X48221Y-47377D01*
X48240Y-47385D01*
X48257Y-47397D01*
X48272Y-47412D01*
X48284Y-47430D01*
X48292Y-47449D01*
X48296Y-47470D01*
X48296Y-47470D01*
G37*
G36*
X48296Y-47785D02*
X48296Y-47809D01*
X48291Y-47829D01*
X48282Y-47848D01*
X48270Y-47866D01*
X48255Y-47880D01*
X48237Y-47891D01*
X48218Y-47899D01*
X48197Y-47903D01*
X48176Y-47902D01*
X48155Y-47898D01*
X48136Y-47889D01*
X48119Y-47877D01*
X48104Y-47862D01*
X48093Y-47845D01*
X48085Y-47825D01*
X48081Y-47804D01*
X48082Y-47783D01*
X48086Y-47763D01*
X48094Y-47743D01*
X48106Y-47726D01*
X48121Y-47711D01*
X48139Y-47700D01*
X48158Y-47692D01*
X48179Y-47688D01*
X48200Y-47688D01*
X48221Y-47692D01*
X48240Y-47700D01*
X48257Y-47712D01*
X48272Y-47727D01*
X48284Y-47745D01*
X48292Y-47764D01*
X48296Y-47785D01*
X48296Y-47785D01*
G37*
G36*
X48405Y-27618D02*
X47814Y-27618D01*
X47814Y-26161D01*
X48405Y-26161D01*
X48405Y-27618D01*
X48405Y-27618D01*
G37*
G36*
X48424Y-42290D02*
X48227Y-42290D01*
X48030Y-42290D01*
X47833Y-42290D01*
X47636Y-42290D01*
X47636Y-42014D01*
X47833Y-42014D01*
X48030Y-42014D01*
X48227Y-42014D01*
X48424Y-42014D01*
X48424Y-42290D01*
X48424Y-42290D01*
G37*
G36*
X48424Y-42585D02*
X48227Y-42585D01*
X48030Y-42585D01*
X47833Y-42585D01*
X47636Y-42585D01*
X47636Y-42309D01*
X47833Y-42309D01*
X48030Y-42309D01*
X48227Y-42309D01*
X48424Y-42309D01*
X48424Y-42585D01*
X48424Y-42585D01*
G37*
G36*
X48494Y-20537D02*
X48100Y-20537D01*
X48100Y-20064D01*
X48494Y-20064D01*
X48494Y-20537D01*
X48494Y-20537D01*
G37*
G36*
X48562Y-40787D02*
X48248Y-40787D01*
X48248Y-40551D01*
X48562Y-40551D01*
X48562Y-40787D01*
X48562Y-40787D01*
G37*
G36*
X48562Y-41141D02*
X48248Y-41141D01*
X48248Y-40905D01*
X48562Y-40905D01*
X48562Y-41141D01*
X48562Y-41141D01*
G37*
G36*
X48611Y-44005D02*
X48611Y-44029D01*
X48606Y-44049D01*
X48597Y-44068D01*
X48585Y-44086D01*
X48570Y-44100D01*
X48552Y-44111D01*
X48533Y-44119D01*
X48512Y-44123D01*
X48491Y-44122D01*
X48470Y-44118D01*
X48451Y-44109D01*
X48434Y-44097D01*
X48419Y-44082D01*
X48408Y-44065D01*
X48400Y-44045D01*
X48396Y-44024D01*
X48397Y-44003D01*
X48401Y-43983D01*
X48409Y-43963D01*
X48421Y-43946D01*
X48436Y-43931D01*
X48454Y-43920D01*
X48473Y-43912D01*
X48494Y-43908D01*
X48515Y-43908D01*
X48536Y-43912D01*
X48555Y-43920D01*
X48572Y-43932D01*
X48587Y-43947D01*
X48599Y-43965D01*
X48607Y-43984D01*
X48611Y-44005D01*
X48611Y-44005D01*
G37*
G36*
X48611Y-44320D02*
X48611Y-44344D01*
X48606Y-44364D01*
X48597Y-44383D01*
X48585Y-44401D01*
X48570Y-44415D01*
X48552Y-44426D01*
X48533Y-44434D01*
X48512Y-44438D01*
X48491Y-44437D01*
X48470Y-44433D01*
X48451Y-44424D01*
X48434Y-44412D01*
X48419Y-44397D01*
X48408Y-44380D01*
X48400Y-44360D01*
X48396Y-44339D01*
X48397Y-44318D01*
X48401Y-44298D01*
X48409Y-44278D01*
X48421Y-44261D01*
X48436Y-44246D01*
X48454Y-44235D01*
X48473Y-44227D01*
X48494Y-44223D01*
X48515Y-44223D01*
X48536Y-44227D01*
X48555Y-44235D01*
X48572Y-44247D01*
X48587Y-44262D01*
X48599Y-44280D01*
X48607Y-44299D01*
X48611Y-44320D01*
X48611Y-44320D01*
G37*
G36*
X48611Y-44635D02*
X48611Y-44659D01*
X48606Y-44679D01*
X48597Y-44698D01*
X48585Y-44716D01*
X48570Y-44730D01*
X48552Y-44741D01*
X48533Y-44749D01*
X48512Y-44753D01*
X48491Y-44752D01*
X48470Y-44748D01*
X48451Y-44739D01*
X48434Y-44727D01*
X48419Y-44712D01*
X48408Y-44695D01*
X48400Y-44675D01*
X48396Y-44654D01*
X48397Y-44633D01*
X48401Y-44613D01*
X48409Y-44593D01*
X48421Y-44576D01*
X48436Y-44561D01*
X48454Y-44550D01*
X48473Y-44542D01*
X48494Y-44538D01*
X48515Y-44538D01*
X48536Y-44542D01*
X48555Y-44550D01*
X48572Y-44562D01*
X48587Y-44577D01*
X48599Y-44595D01*
X48607Y-44614D01*
X48611Y-44635D01*
X48611Y-44635D01*
G37*
G36*
X48611Y-44950D02*
X48611Y-44974D01*
X48606Y-44994D01*
X48597Y-45013D01*
X48585Y-45031D01*
X48570Y-45045D01*
X48552Y-45056D01*
X48533Y-45064D01*
X48512Y-45068D01*
X48491Y-45067D01*
X48470Y-45063D01*
X48451Y-45054D01*
X48434Y-45042D01*
X48419Y-45027D01*
X48408Y-45010D01*
X48400Y-44990D01*
X48396Y-44969D01*
X48397Y-44948D01*
X48401Y-44928D01*
X48409Y-44908D01*
X48421Y-44891D01*
X48436Y-44876D01*
X48454Y-44865D01*
X48473Y-44857D01*
X48494Y-44853D01*
X48515Y-44853D01*
X48536Y-44857D01*
X48555Y-44865D01*
X48572Y-44877D01*
X48587Y-44892D01*
X48599Y-44910D01*
X48607Y-44929D01*
X48611Y-44950D01*
X48611Y-44950D01*
G37*
G36*
X48611Y-45265D02*
X48611Y-45289D01*
X48606Y-45309D01*
X48597Y-45328D01*
X48585Y-45346D01*
X48570Y-45360D01*
X48552Y-45371D01*
X48533Y-45379D01*
X48512Y-45383D01*
X48491Y-45382D01*
X48470Y-45378D01*
X48451Y-45369D01*
X48434Y-45357D01*
X48419Y-45342D01*
X48408Y-45325D01*
X48400Y-45305D01*
X48396Y-45284D01*
X48397Y-45263D01*
X48401Y-45243D01*
X48409Y-45223D01*
X48421Y-45206D01*
X48436Y-45191D01*
X48454Y-45180D01*
X48473Y-45172D01*
X48494Y-45168D01*
X48515Y-45168D01*
X48536Y-45172D01*
X48555Y-45180D01*
X48572Y-45192D01*
X48587Y-45207D01*
X48599Y-45225D01*
X48607Y-45244D01*
X48611Y-45265D01*
X48611Y-45265D01*
G37*
G36*
X48611Y-45580D02*
X48611Y-45604D01*
X48606Y-45624D01*
X48597Y-45643D01*
X48585Y-45661D01*
X48570Y-45675D01*
X48552Y-45686D01*
X48533Y-45694D01*
X48512Y-45698D01*
X48491Y-45697D01*
X48470Y-45693D01*
X48451Y-45684D01*
X48434Y-45672D01*
X48419Y-45657D01*
X48408Y-45640D01*
X48400Y-45620D01*
X48396Y-45599D01*
X48397Y-45578D01*
X48401Y-45558D01*
X48409Y-45538D01*
X48421Y-45521D01*
X48436Y-45506D01*
X48454Y-45495D01*
X48473Y-45487D01*
X48494Y-45483D01*
X48515Y-45483D01*
X48536Y-45487D01*
X48555Y-45495D01*
X48572Y-45507D01*
X48587Y-45522D01*
X48599Y-45540D01*
X48607Y-45559D01*
X48611Y-45580D01*
X48611Y-45580D01*
G37*
G36*
X48611Y-45895D02*
X48611Y-45919D01*
X48606Y-45939D01*
X48597Y-45958D01*
X48585Y-45976D01*
X48570Y-45990D01*
X48552Y-46001D01*
X48533Y-46009D01*
X48512Y-46013D01*
X48491Y-46012D01*
X48470Y-46008D01*
X48451Y-45999D01*
X48434Y-45987D01*
X48419Y-45972D01*
X48408Y-45955D01*
X48400Y-45935D01*
X48396Y-45914D01*
X48397Y-45893D01*
X48401Y-45873D01*
X48409Y-45853D01*
X48421Y-45836D01*
X48436Y-45821D01*
X48454Y-45810D01*
X48473Y-45802D01*
X48494Y-45798D01*
X48515Y-45798D01*
X48536Y-45802D01*
X48555Y-45810D01*
X48572Y-45822D01*
X48587Y-45837D01*
X48599Y-45855D01*
X48607Y-45874D01*
X48611Y-45895D01*
X48611Y-45895D01*
G37*
G36*
X48611Y-46210D02*
X48611Y-46234D01*
X48606Y-46254D01*
X48597Y-46273D01*
X48585Y-46291D01*
X48570Y-46305D01*
X48552Y-46316D01*
X48533Y-46324D01*
X48512Y-46328D01*
X48491Y-46327D01*
X48470Y-46323D01*
X48451Y-46314D01*
X48434Y-46302D01*
X48419Y-46287D01*
X48408Y-46270D01*
X48400Y-46250D01*
X48396Y-46229D01*
X48397Y-46208D01*
X48401Y-46188D01*
X48409Y-46168D01*
X48421Y-46151D01*
X48436Y-46136D01*
X48454Y-46125D01*
X48473Y-46117D01*
X48494Y-46113D01*
X48515Y-46113D01*
X48536Y-46117D01*
X48555Y-46125D01*
X48572Y-46137D01*
X48587Y-46152D01*
X48599Y-46170D01*
X48607Y-46189D01*
X48611Y-46210D01*
X48611Y-46210D01*
G37*
G36*
X48611Y-46525D02*
X48611Y-46549D01*
X48606Y-46569D01*
X48597Y-46588D01*
X48585Y-46606D01*
X48570Y-46620D01*
X48552Y-46631D01*
X48533Y-46639D01*
X48512Y-46643D01*
X48491Y-46642D01*
X48470Y-46638D01*
X48451Y-46629D01*
X48434Y-46617D01*
X48419Y-46602D01*
X48408Y-46585D01*
X48400Y-46565D01*
X48396Y-46544D01*
X48397Y-46523D01*
X48401Y-46503D01*
X48409Y-46483D01*
X48421Y-46466D01*
X48436Y-46451D01*
X48454Y-46440D01*
X48473Y-46432D01*
X48494Y-46428D01*
X48515Y-46428D01*
X48536Y-46432D01*
X48555Y-46440D01*
X48572Y-46452D01*
X48587Y-46467D01*
X48599Y-46485D01*
X48607Y-46504D01*
X48611Y-46525D01*
X48611Y-46525D01*
G37*
G36*
X48611Y-46840D02*
X48611Y-46864D01*
X48606Y-46884D01*
X48597Y-46903D01*
X48585Y-46921D01*
X48570Y-46935D01*
X48552Y-46946D01*
X48533Y-46954D01*
X48512Y-46958D01*
X48491Y-46957D01*
X48470Y-46953D01*
X48451Y-46944D01*
X48434Y-46932D01*
X48419Y-46917D01*
X48408Y-46900D01*
X48400Y-46880D01*
X48396Y-46859D01*
X48397Y-46838D01*
X48401Y-46818D01*
X48409Y-46798D01*
X48421Y-46781D01*
X48436Y-46766D01*
X48454Y-46755D01*
X48473Y-46747D01*
X48494Y-46743D01*
X48515Y-46743D01*
X48536Y-46747D01*
X48555Y-46755D01*
X48572Y-46767D01*
X48587Y-46782D01*
X48599Y-46800D01*
X48607Y-46819D01*
X48611Y-46840D01*
X48611Y-46840D01*
G37*
G36*
X48611Y-47155D02*
X48611Y-47179D01*
X48606Y-47199D01*
X48597Y-47218D01*
X48585Y-47236D01*
X48570Y-47250D01*
X48552Y-47261D01*
X48533Y-47269D01*
X48512Y-47273D01*
X48491Y-47272D01*
X48470Y-47268D01*
X48451Y-47259D01*
X48434Y-47247D01*
X48419Y-47232D01*
X48408Y-47215D01*
X48400Y-47195D01*
X48396Y-47174D01*
X48397Y-47153D01*
X48401Y-47133D01*
X48409Y-47113D01*
X48421Y-47096D01*
X48436Y-47081D01*
X48454Y-47070D01*
X48473Y-47062D01*
X48494Y-47058D01*
X48515Y-47058D01*
X48536Y-47062D01*
X48555Y-47070D01*
X48572Y-47082D01*
X48587Y-47097D01*
X48599Y-47115D01*
X48607Y-47134D01*
X48611Y-47155D01*
X48611Y-47155D01*
G37*
G36*
X48611Y-47470D02*
X48611Y-47494D01*
X48606Y-47514D01*
X48597Y-47533D01*
X48585Y-47551D01*
X48570Y-47565D01*
X48552Y-47576D01*
X48533Y-47584D01*
X48512Y-47588D01*
X48491Y-47587D01*
X48470Y-47583D01*
X48451Y-47574D01*
X48434Y-47562D01*
X48419Y-47547D01*
X48408Y-47530D01*
X48400Y-47510D01*
X48396Y-47489D01*
X48397Y-47468D01*
X48401Y-47448D01*
X48409Y-47428D01*
X48421Y-47411D01*
X48436Y-47396D01*
X48454Y-47385D01*
X48473Y-47377D01*
X48494Y-47373D01*
X48515Y-47373D01*
X48536Y-47377D01*
X48555Y-47385D01*
X48572Y-47397D01*
X48587Y-47412D01*
X48599Y-47430D01*
X48607Y-47449D01*
X48611Y-47470D01*
X48611Y-47470D01*
G37*
G36*
X48611Y-47785D02*
X48611Y-47809D01*
X48606Y-47829D01*
X48597Y-47848D01*
X48585Y-47866D01*
X48570Y-47880D01*
X48552Y-47891D01*
X48533Y-47899D01*
X48512Y-47903D01*
X48491Y-47902D01*
X48470Y-47898D01*
X48451Y-47889D01*
X48434Y-47877D01*
X48419Y-47862D01*
X48408Y-47845D01*
X48400Y-47825D01*
X48396Y-47804D01*
X48397Y-47783D01*
X48401Y-47763D01*
X48409Y-47743D01*
X48421Y-47726D01*
X48436Y-47711D01*
X48454Y-47700D01*
X48473Y-47692D01*
X48494Y-47688D01*
X48515Y-47688D01*
X48536Y-47692D01*
X48555Y-47700D01*
X48572Y-47712D01*
X48587Y-47727D01*
X48599Y-47745D01*
X48607Y-47764D01*
X48611Y-47785D01*
X48611Y-47785D01*
G37*
G36*
X48679Y-54637D02*
X48285Y-54637D01*
X48285Y-54165D01*
X48679Y-54165D01*
X48679Y-54637D01*
X48679Y-54637D01*
G37*
G36*
X48701Y-25422D02*
X48399Y-25422D01*
X48391Y-25422D01*
X48385Y-25425D01*
X48385Y-25416D01*
X48385Y-25409D01*
X48385Y-25248D01*
X48385Y-25241D01*
X48385Y-25229D01*
X48385Y-25222D01*
X48385Y-25051D01*
X48385Y-25044D01*
X48385Y-25032D01*
X48385Y-25025D01*
X48385Y-24855D01*
X48385Y-24848D01*
X48385Y-24835D01*
X48385Y-24828D01*
X48385Y-24658D01*
X48385Y-24651D01*
X48385Y-24639D01*
X48385Y-24632D01*
X48385Y-24462D01*
X48385Y-24455D01*
X48385Y-24442D01*
X48385Y-24435D01*
X48385Y-24265D01*
X48385Y-24258D01*
X48385Y-24246D01*
X48385Y-24239D01*
X48385Y-24068D01*
X48385Y-24061D01*
X48385Y-24049D01*
X48385Y-24042D01*
X48385Y-23871D01*
X48385Y-23864D01*
X48385Y-23852D01*
X48385Y-23845D01*
X48385Y-23674D01*
X48385Y-23667D01*
X48385Y-23655D01*
X48385Y-23648D01*
X48385Y-23477D01*
X48385Y-23470D01*
X48385Y-23458D01*
X48385Y-23451D01*
X48385Y-23280D01*
X48385Y-23273D01*
X48385Y-23261D01*
X48385Y-23254D01*
X48385Y-23094D01*
X48385Y-23087D01*
X48383Y-23080D01*
X48377Y-23074D01*
X48370Y-23071D01*
X48362Y-23071D01*
X48184Y-23071D01*
X48182Y-23070D01*
X48174Y-23070D01*
X48005Y-23070D01*
X47997Y-23070D01*
X47985Y-23070D01*
X47977Y-23070D01*
X47808Y-23070D01*
X47800Y-23070D01*
X47789Y-23070D01*
X47781Y-23070D01*
X47611Y-23070D01*
X47603Y-23070D01*
X47592Y-23070D01*
X47584Y-23070D01*
X47414Y-23070D01*
X47406Y-23070D01*
X47395Y-23070D01*
X47387Y-23070D01*
X47217Y-23070D01*
X47209Y-23070D01*
X47198Y-23070D01*
X47190Y-23070D01*
X47020Y-23070D01*
X47012Y-23070D01*
X47001Y-23070D01*
X46993Y-23070D01*
X46823Y-23070D01*
X46815Y-23070D01*
X46813Y-23071D01*
X46627Y-23071D01*
X46619Y-23071D01*
X46607Y-23071D01*
X46599Y-23071D01*
X46430Y-23071D01*
X46422Y-23071D01*
X46411Y-23071D01*
X46403Y-23071D01*
X46233Y-23071D01*
X46225Y-23071D01*
X46214Y-23071D01*
X46206Y-23071D01*
X46047Y-23071D01*
X46039Y-23071D01*
X46032Y-23074D01*
X46027Y-23080D01*
X46024Y-23087D01*
X46024Y-23094D01*
X46024Y-23254D01*
X46024Y-23261D01*
X46024Y-23273D01*
X46024Y-23280D01*
X46024Y-23451D01*
X46024Y-23458D01*
X46024Y-23470D01*
X46024Y-23477D01*
X46024Y-23647D01*
X46024Y-23654D01*
X46024Y-23667D01*
X46024Y-23674D01*
X46024Y-23844D01*
X46024Y-23851D01*
X46024Y-23863D01*
X46024Y-23870D01*
X46024Y-24041D01*
X46024Y-24048D01*
X46024Y-24060D01*
X46024Y-24067D01*
X46024Y-24238D01*
X46024Y-24245D01*
X46024Y-24257D01*
X46024Y-24264D01*
X46024Y-24435D01*
X46024Y-24442D01*
X46024Y-24454D01*
X46024Y-24461D01*
X46024Y-24632D01*
X46024Y-24639D01*
X46024Y-24651D01*
X46024Y-24658D01*
X46024Y-24829D01*
X46024Y-24836D01*
X46024Y-24848D01*
X46024Y-24855D01*
X46024Y-25025D01*
X46024Y-25032D01*
X46024Y-25045D01*
X46024Y-25052D01*
X46024Y-25222D01*
X46024Y-25229D01*
X46024Y-25241D01*
X46024Y-25248D01*
X46024Y-25409D01*
X46024Y-25416D01*
X46027Y-25423D01*
X46032Y-25429D01*
X46039Y-25432D01*
X46047Y-25432D01*
X46207Y-25432D01*
X46215Y-25432D01*
X46226Y-25432D01*
X46234Y-25432D01*
X46404Y-25432D01*
X46412Y-25432D01*
X46423Y-25432D01*
X46431Y-25432D01*
X46601Y-25432D01*
X46609Y-25432D01*
X46620Y-25432D01*
X46628Y-25432D01*
X46797Y-25432D01*
X46805Y-25432D01*
X46817Y-25432D01*
X46825Y-25432D01*
X46994Y-25432D01*
X47002Y-25432D01*
X47013Y-25432D01*
X47021Y-25432D01*
X47191Y-25432D01*
X47199Y-25432D01*
X47210Y-25432D01*
X47218Y-25432D01*
X47388Y-25432D01*
X47396Y-25432D01*
X47407Y-25432D01*
X47415Y-25432D01*
X47585Y-25432D01*
X47593Y-25432D01*
X47604Y-25432D01*
X47612Y-25432D01*
X47782Y-25432D01*
X47790Y-25432D01*
X47801Y-25432D01*
X47809Y-25432D01*
X47979Y-25432D01*
X47987Y-25432D01*
X47998Y-25432D01*
X48006Y-25432D01*
X48175Y-25432D01*
X48183Y-25432D01*
X48195Y-25432D01*
X48203Y-25432D01*
X48362Y-25432D01*
X48370Y-25432D01*
X48377Y-25429D01*
X48383Y-25423D01*
X48385Y-25416D01*
X48385Y-25425D01*
X48384Y-25425D01*
X48379Y-25431D01*
X48376Y-25438D01*
X48376Y-25445D01*
X48376Y-25747D01*
X48370Y-25747D01*
X48362Y-25747D01*
X48203Y-25747D01*
X48195Y-25747D01*
X48183Y-25747D01*
X48175Y-25747D01*
X48006Y-25747D01*
X47998Y-25747D01*
X47987Y-25747D01*
X47979Y-25747D01*
X47809Y-25747D01*
X47801Y-25747D01*
X47790Y-25747D01*
X47782Y-25747D01*
X47612Y-25747D01*
X47604Y-25747D01*
X47593Y-25747D01*
X47585Y-25747D01*
X47415Y-25747D01*
X47407Y-25747D01*
X47396Y-25747D01*
X47388Y-25747D01*
X47218Y-25747D01*
X47210Y-25747D01*
X47199Y-25747D01*
X47191Y-25747D01*
X47021Y-25747D01*
X47013Y-25747D01*
X47002Y-25747D01*
X46994Y-25747D01*
X46825Y-25747D01*
X46817Y-25747D01*
X46805Y-25747D01*
X46797Y-25747D01*
X46628Y-25747D01*
X46620Y-25747D01*
X46609Y-25747D01*
X46601Y-25747D01*
X46431Y-25747D01*
X46423Y-25747D01*
X46412Y-25747D01*
X46404Y-25747D01*
X46234Y-25747D01*
X46226Y-25747D01*
X46215Y-25747D01*
X46207Y-25747D01*
X46033Y-25747D01*
X46033Y-25445D01*
X46033Y-25438D01*
X46031Y-25431D01*
X46025Y-25425D01*
X46018Y-25422D01*
X46010Y-25422D01*
X45708Y-25422D01*
X45708Y-25248D01*
X45708Y-25241D01*
X45708Y-25229D01*
X45708Y-25222D01*
X45708Y-25052D01*
X45708Y-25045D01*
X45708Y-25032D01*
X45708Y-25025D01*
X45708Y-24855D01*
X45708Y-24848D01*
X45708Y-24836D01*
X45708Y-24829D01*
X45708Y-24658D01*
X45708Y-24651D01*
X45708Y-24639D01*
X45708Y-24632D01*
X45708Y-24461D01*
X45708Y-24454D01*
X45708Y-24442D01*
X45708Y-24435D01*
X45708Y-24264D01*
X45708Y-24257D01*
X45708Y-24245D01*
X45708Y-24238D01*
X45708Y-24067D01*
X45708Y-24060D01*
X45708Y-24048D01*
X45708Y-24041D01*
X45708Y-23870D01*
X45708Y-23863D01*
X45708Y-23851D01*
X45708Y-23844D01*
X45708Y-23674D01*
X45708Y-23667D01*
X45708Y-23654D01*
X45708Y-23647D01*
X45708Y-23477D01*
X45708Y-23470D01*
X45708Y-23458D01*
X45708Y-23451D01*
X45708Y-23280D01*
X45708Y-23273D01*
X45708Y-23261D01*
X45708Y-23254D01*
X45708Y-23080D01*
X46009Y-23080D01*
X46017Y-23080D01*
X46024Y-23077D01*
X46030Y-23071D01*
X46032Y-23064D01*
X46032Y-23057D01*
X46032Y-22756D01*
X46206Y-22756D01*
X46214Y-22756D01*
X46225Y-22756D01*
X46233Y-22756D01*
X46403Y-22756D01*
X46411Y-22756D01*
X46422Y-22756D01*
X46430Y-22756D01*
X46599Y-22756D01*
X46607Y-22756D01*
X46619Y-22756D01*
X46627Y-22756D01*
X46796Y-22756D01*
X46804Y-22756D01*
X46806Y-22755D01*
X46993Y-22755D01*
X47001Y-22755D01*
X47012Y-22755D01*
X47020Y-22755D01*
X47190Y-22755D01*
X47198Y-22755D01*
X47209Y-22755D01*
X47217Y-22755D01*
X47387Y-22755D01*
X47395Y-22755D01*
X47406Y-22755D01*
X47414Y-22755D01*
X47584Y-22755D01*
X47592Y-22755D01*
X47603Y-22755D01*
X47611Y-22755D01*
X47781Y-22755D01*
X47789Y-22755D01*
X47800Y-22755D01*
X47808Y-22755D01*
X47977Y-22755D01*
X47985Y-22755D01*
X47997Y-22755D01*
X48005Y-22755D01*
X48191Y-22755D01*
X48193Y-22756D01*
X48201Y-22756D01*
X48375Y-22756D01*
X48375Y-23057D01*
X48375Y-23064D01*
X48378Y-23071D01*
X48383Y-23077D01*
X48390Y-23080D01*
X48398Y-23080D01*
X48701Y-23080D01*
X48701Y-23254D01*
X48701Y-23261D01*
X48701Y-23273D01*
X48701Y-23280D01*
X48701Y-23451D01*
X48701Y-23458D01*
X48701Y-23470D01*
X48701Y-23477D01*
X48701Y-23648D01*
X48701Y-23655D01*
X48701Y-23667D01*
X48701Y-23674D01*
X48701Y-23845D01*
X48701Y-23852D01*
X48701Y-23864D01*
X48701Y-23871D01*
X48701Y-24042D01*
X48701Y-24049D01*
X48701Y-24061D01*
X48701Y-24068D01*
X48701Y-24239D01*
X48701Y-24246D01*
X48701Y-24258D01*
X48701Y-24265D01*
X48701Y-24435D01*
X48701Y-24442D01*
X48701Y-24455D01*
X48701Y-24462D01*
X48701Y-24632D01*
X48701Y-24639D01*
X48701Y-24651D01*
X48701Y-24658D01*
X48701Y-24828D01*
X48701Y-24835D01*
X48701Y-24848D01*
X48701Y-24855D01*
X48701Y-25025D01*
X48701Y-25032D01*
X48701Y-25044D01*
X48701Y-25051D01*
X48701Y-25222D01*
X48701Y-25229D01*
X48701Y-25241D01*
X48701Y-25248D01*
X48701Y-25422D01*
X48701Y-25422D01*
G37*
G36*
X48744Y-21287D02*
X48350Y-21287D01*
X48350Y-20814D01*
X48744Y-20814D01*
X48744Y-21287D01*
X48744Y-21287D01*
G37*
G36*
X48821Y-26676D02*
X48491Y-26676D01*
X48491Y-26236D01*
X48821Y-26236D01*
X48821Y-26676D01*
X48821Y-26676D01*
G37*
G36*
X48926Y-44005D02*
X48926Y-44029D01*
X48921Y-44049D01*
X48912Y-44068D01*
X48900Y-44086D01*
X48885Y-44100D01*
X48867Y-44111D01*
X48848Y-44119D01*
X48827Y-44123D01*
X48806Y-44122D01*
X48785Y-44118D01*
X48766Y-44109D01*
X48749Y-44097D01*
X48734Y-44082D01*
X48723Y-44065D01*
X48715Y-44045D01*
X48711Y-44024D01*
X48712Y-44003D01*
X48716Y-43983D01*
X48724Y-43963D01*
X48736Y-43946D01*
X48751Y-43931D01*
X48769Y-43920D01*
X48788Y-43912D01*
X48809Y-43908D01*
X48830Y-43908D01*
X48851Y-43912D01*
X48870Y-43920D01*
X48887Y-43932D01*
X48902Y-43947D01*
X48914Y-43965D01*
X48922Y-43984D01*
X48926Y-44005D01*
X48926Y-44005D01*
G37*
G36*
X48926Y-44320D02*
X48926Y-44344D01*
X48921Y-44364D01*
X48912Y-44383D01*
X48900Y-44401D01*
X48885Y-44415D01*
X48867Y-44426D01*
X48848Y-44434D01*
X48827Y-44438D01*
X48806Y-44437D01*
X48785Y-44433D01*
X48766Y-44424D01*
X48749Y-44412D01*
X48734Y-44397D01*
X48723Y-44380D01*
X48715Y-44360D01*
X48711Y-44339D01*
X48712Y-44318D01*
X48716Y-44298D01*
X48724Y-44278D01*
X48736Y-44261D01*
X48751Y-44246D01*
X48769Y-44235D01*
X48788Y-44227D01*
X48809Y-44223D01*
X48830Y-44223D01*
X48851Y-44227D01*
X48870Y-44235D01*
X48887Y-44247D01*
X48902Y-44262D01*
X48914Y-44280D01*
X48922Y-44299D01*
X48926Y-44320D01*
X48926Y-44320D01*
G37*
G36*
X48926Y-44635D02*
X48926Y-44659D01*
X48921Y-44679D01*
X48912Y-44698D01*
X48900Y-44716D01*
X48885Y-44730D01*
X48867Y-44741D01*
X48848Y-44749D01*
X48827Y-44753D01*
X48806Y-44752D01*
X48785Y-44748D01*
X48766Y-44739D01*
X48749Y-44727D01*
X48734Y-44712D01*
X48723Y-44695D01*
X48715Y-44675D01*
X48711Y-44654D01*
X48712Y-44633D01*
X48716Y-44613D01*
X48724Y-44593D01*
X48736Y-44576D01*
X48751Y-44561D01*
X48769Y-44550D01*
X48788Y-44542D01*
X48809Y-44538D01*
X48830Y-44538D01*
X48851Y-44542D01*
X48870Y-44550D01*
X48887Y-44562D01*
X48902Y-44577D01*
X48914Y-44595D01*
X48922Y-44614D01*
X48926Y-44635D01*
X48926Y-44635D01*
G37*
G36*
X48926Y-44950D02*
X48926Y-44974D01*
X48921Y-44994D01*
X48912Y-45013D01*
X48900Y-45031D01*
X48885Y-45045D01*
X48867Y-45056D01*
X48848Y-45064D01*
X48827Y-45068D01*
X48806Y-45067D01*
X48785Y-45063D01*
X48766Y-45054D01*
X48749Y-45042D01*
X48734Y-45027D01*
X48723Y-45010D01*
X48715Y-44990D01*
X48711Y-44969D01*
X48712Y-44948D01*
X48716Y-44928D01*
X48724Y-44908D01*
X48736Y-44891D01*
X48751Y-44876D01*
X48769Y-44865D01*
X48788Y-44857D01*
X48809Y-44853D01*
X48830Y-44853D01*
X48851Y-44857D01*
X48870Y-44865D01*
X48887Y-44877D01*
X48902Y-44892D01*
X48914Y-44910D01*
X48922Y-44929D01*
X48926Y-44950D01*
X48926Y-44950D01*
G37*
G36*
X48926Y-45265D02*
X48926Y-45289D01*
X48921Y-45309D01*
X48912Y-45328D01*
X48900Y-45346D01*
X48885Y-45360D01*
X48867Y-45371D01*
X48848Y-45379D01*
X48827Y-45383D01*
X48806Y-45382D01*
X48785Y-45378D01*
X48766Y-45369D01*
X48749Y-45357D01*
X48734Y-45342D01*
X48723Y-45325D01*
X48715Y-45305D01*
X48711Y-45284D01*
X48712Y-45263D01*
X48716Y-45243D01*
X48724Y-45223D01*
X48736Y-45206D01*
X48751Y-45191D01*
X48769Y-45180D01*
X48788Y-45172D01*
X48809Y-45168D01*
X48830Y-45168D01*
X48851Y-45172D01*
X48870Y-45180D01*
X48887Y-45192D01*
X48902Y-45207D01*
X48914Y-45225D01*
X48922Y-45244D01*
X48926Y-45265D01*
X48926Y-45265D01*
G37*
G36*
X48926Y-45580D02*
X48926Y-45604D01*
X48921Y-45624D01*
X48912Y-45643D01*
X48900Y-45661D01*
X48885Y-45675D01*
X48867Y-45686D01*
X48848Y-45694D01*
X48827Y-45698D01*
X48806Y-45697D01*
X48785Y-45693D01*
X48766Y-45684D01*
X48749Y-45672D01*
X48734Y-45657D01*
X48723Y-45640D01*
X48715Y-45620D01*
X48711Y-45599D01*
X48712Y-45578D01*
X48716Y-45558D01*
X48724Y-45538D01*
X48736Y-45521D01*
X48751Y-45506D01*
X48769Y-45495D01*
X48788Y-45487D01*
X48809Y-45483D01*
X48830Y-45483D01*
X48851Y-45487D01*
X48870Y-45495D01*
X48887Y-45507D01*
X48902Y-45522D01*
X48914Y-45540D01*
X48922Y-45559D01*
X48926Y-45580D01*
X48926Y-45580D01*
G37*
G36*
X48926Y-45895D02*
X48926Y-45919D01*
X48921Y-45939D01*
X48912Y-45958D01*
X48900Y-45976D01*
X48885Y-45990D01*
X48867Y-46001D01*
X48848Y-46009D01*
X48827Y-46013D01*
X48806Y-46012D01*
X48785Y-46008D01*
X48766Y-45999D01*
X48749Y-45987D01*
X48734Y-45972D01*
X48723Y-45955D01*
X48715Y-45935D01*
X48711Y-45914D01*
X48712Y-45893D01*
X48716Y-45873D01*
X48724Y-45853D01*
X48736Y-45836D01*
X48751Y-45821D01*
X48769Y-45810D01*
X48788Y-45802D01*
X48809Y-45798D01*
X48830Y-45798D01*
X48851Y-45802D01*
X48870Y-45810D01*
X48887Y-45822D01*
X48902Y-45837D01*
X48914Y-45855D01*
X48922Y-45874D01*
X48926Y-45895D01*
X48926Y-45895D01*
G37*
G36*
X48926Y-46210D02*
X48926Y-46234D01*
X48921Y-46254D01*
X48912Y-46273D01*
X48900Y-46291D01*
X48885Y-46305D01*
X48867Y-46316D01*
X48848Y-46324D01*
X48827Y-46328D01*
X48806Y-46327D01*
X48785Y-46323D01*
X48766Y-46314D01*
X48749Y-46302D01*
X48734Y-46287D01*
X48723Y-46270D01*
X48715Y-46250D01*
X48711Y-46229D01*
X48712Y-46208D01*
X48716Y-46188D01*
X48724Y-46168D01*
X48736Y-46151D01*
X48751Y-46136D01*
X48769Y-46125D01*
X48788Y-46117D01*
X48809Y-46113D01*
X48830Y-46113D01*
X48851Y-46117D01*
X48870Y-46125D01*
X48887Y-46137D01*
X48902Y-46152D01*
X48914Y-46170D01*
X48922Y-46189D01*
X48926Y-46210D01*
X48926Y-46210D01*
G37*
G36*
X48926Y-46525D02*
X48926Y-46549D01*
X48921Y-46569D01*
X48912Y-46588D01*
X48900Y-46606D01*
X48885Y-46620D01*
X48867Y-46631D01*
X48848Y-46639D01*
X48827Y-46643D01*
X48806Y-46642D01*
X48785Y-46638D01*
X48766Y-46629D01*
X48749Y-46617D01*
X48734Y-46602D01*
X48723Y-46585D01*
X48715Y-46565D01*
X48711Y-46544D01*
X48712Y-46523D01*
X48716Y-46503D01*
X48724Y-46483D01*
X48736Y-46466D01*
X48751Y-46451D01*
X48769Y-46440D01*
X48788Y-46432D01*
X48809Y-46428D01*
X48830Y-46428D01*
X48851Y-46432D01*
X48870Y-46440D01*
X48887Y-46452D01*
X48902Y-46467D01*
X48914Y-46485D01*
X48922Y-46504D01*
X48926Y-46525D01*
X48926Y-46525D01*
G37*
G36*
X48926Y-46840D02*
X48926Y-46864D01*
X48921Y-46884D01*
X48912Y-46903D01*
X48900Y-46921D01*
X48885Y-46935D01*
X48867Y-46946D01*
X48848Y-46954D01*
X48827Y-46958D01*
X48806Y-46957D01*
X48785Y-46953D01*
X48766Y-46944D01*
X48749Y-46932D01*
X48734Y-46917D01*
X48723Y-46900D01*
X48715Y-46880D01*
X48711Y-46859D01*
X48712Y-46838D01*
X48716Y-46818D01*
X48724Y-46798D01*
X48736Y-46781D01*
X48751Y-46766D01*
X48769Y-46755D01*
X48788Y-46747D01*
X48809Y-46743D01*
X48830Y-46743D01*
X48851Y-46747D01*
X48870Y-46755D01*
X48887Y-46767D01*
X48902Y-46782D01*
X48914Y-46800D01*
X48922Y-46819D01*
X48926Y-46840D01*
X48926Y-46840D01*
G37*
G36*
X48926Y-47155D02*
X48926Y-47179D01*
X48921Y-47199D01*
X48912Y-47218D01*
X48900Y-47236D01*
X48885Y-47250D01*
X48867Y-47261D01*
X48848Y-47269D01*
X48827Y-47273D01*
X48806Y-47272D01*
X48785Y-47268D01*
X48766Y-47259D01*
X48749Y-47247D01*
X48734Y-47232D01*
X48723Y-47215D01*
X48715Y-47195D01*
X48711Y-47174D01*
X48712Y-47153D01*
X48716Y-47133D01*
X48724Y-47113D01*
X48736Y-47096D01*
X48751Y-47081D01*
X48769Y-47070D01*
X48788Y-47062D01*
X48809Y-47058D01*
X48830Y-47058D01*
X48851Y-47062D01*
X48870Y-47070D01*
X48887Y-47082D01*
X48902Y-47097D01*
X48914Y-47115D01*
X48922Y-47134D01*
X48926Y-47155D01*
X48926Y-47155D01*
G37*
G36*
X48926Y-47470D02*
X48926Y-47494D01*
X48921Y-47514D01*
X48912Y-47533D01*
X48900Y-47551D01*
X48885Y-47565D01*
X48867Y-47576D01*
X48848Y-47584D01*
X48827Y-47588D01*
X48806Y-47587D01*
X48785Y-47583D01*
X48766Y-47574D01*
X48749Y-47562D01*
X48734Y-47547D01*
X48723Y-47530D01*
X48715Y-47510D01*
X48711Y-47489D01*
X48712Y-47468D01*
X48716Y-47448D01*
X48724Y-47428D01*
X48736Y-47411D01*
X48751Y-47396D01*
X48769Y-47385D01*
X48788Y-47377D01*
X48809Y-47373D01*
X48830Y-47373D01*
X48851Y-47377D01*
X48870Y-47385D01*
X48887Y-47397D01*
X48902Y-47412D01*
X48914Y-47430D01*
X48922Y-47449D01*
X48926Y-47470D01*
X48926Y-47470D01*
G37*
G36*
X48926Y-47785D02*
X48926Y-47809D01*
X48921Y-47829D01*
X48912Y-47848D01*
X48900Y-47866D01*
X48885Y-47880D01*
X48867Y-47891D01*
X48848Y-47899D01*
X48827Y-47903D01*
X48806Y-47902D01*
X48785Y-47898D01*
X48766Y-47889D01*
X48749Y-47877D01*
X48734Y-47862D01*
X48723Y-47845D01*
X48715Y-47825D01*
X48711Y-47804D01*
X48712Y-47783D01*
X48716Y-47763D01*
X48724Y-47743D01*
X48736Y-47726D01*
X48751Y-47711D01*
X48769Y-47700D01*
X48788Y-47692D01*
X48809Y-47688D01*
X48830Y-47688D01*
X48851Y-47692D01*
X48870Y-47700D01*
X48887Y-47712D01*
X48902Y-47727D01*
X48914Y-47745D01*
X48922Y-47764D01*
X48926Y-47785D01*
X48926Y-47785D01*
G37*
G36*
X48929Y-55387D02*
X48535Y-55387D01*
X48535Y-54915D01*
X48929Y-54915D01*
X48929Y-55387D01*
X48929Y-55387D01*
G37*
G36*
X48998Y-30141D02*
X48669Y-30141D01*
X48669Y-29701D01*
X48998Y-29701D01*
X48998Y-30141D01*
X48998Y-30141D01*
G37*
G36*
X48998Y-30692D02*
X48669Y-30692D01*
X48669Y-30252D01*
X48998Y-30252D01*
X48998Y-30692D01*
X48998Y-30692D01*
G37*
G36*
X49176Y-31223D02*
X48736Y-31223D01*
X48736Y-30893D01*
X49176Y-30893D01*
X49176Y-31223D01*
X49176Y-31223D01*
G37*
G36*
X49176Y-31823D02*
X48736Y-31823D01*
X48736Y-31493D01*
X49176Y-31493D01*
X49176Y-31823D01*
X49176Y-31823D01*
G37*
G36*
X49232Y-41040D02*
X48917Y-41040D01*
X48917Y-40805D01*
X49232Y-40805D01*
X49232Y-41040D01*
X49232Y-41040D01*
G37*
G36*
X49232Y-41394D02*
X48917Y-41394D01*
X48917Y-41159D01*
X49232Y-41159D01*
X49232Y-41394D01*
X49232Y-41394D01*
G37*
G36*
X49234Y-26125D02*
X48905Y-26125D01*
X48905Y-25685D01*
X49234Y-25685D01*
X49234Y-26125D01*
X49234Y-26125D01*
G37*
G36*
X49244Y-20537D02*
X48850Y-20537D01*
X48850Y-20064D01*
X49244Y-20064D01*
X49244Y-20537D01*
X49244Y-20537D01*
G37*
G36*
X49250Y-32520D02*
X48661Y-32520D01*
X48661Y-32363D01*
X49250Y-32363D01*
X49250Y-32520D01*
X49250Y-32520D01*
G37*
G36*
X49250Y-32677D02*
X48661Y-32677D01*
X48661Y-32520D01*
X49250Y-32520D01*
X49250Y-32677D01*
X49250Y-32677D01*
G37*
G36*
X49250Y-32835D02*
X48661Y-32835D01*
X48661Y-32678D01*
X49250Y-32678D01*
X49250Y-32835D01*
X49250Y-32835D01*
G37*
G36*
X49250Y-32992D02*
X48661Y-32992D01*
X48661Y-32835D01*
X49250Y-32835D01*
X49250Y-32992D01*
X49250Y-32992D01*
G37*
G36*
X49250Y-33150D02*
X48661Y-33150D01*
X48661Y-32993D01*
X49250Y-32993D01*
X49250Y-33150D01*
X49250Y-33150D01*
G37*
G36*
X49250Y-33307D02*
X48661Y-33307D01*
X48661Y-33150D01*
X49250Y-33150D01*
X49250Y-33307D01*
X49250Y-33307D01*
G37*
G36*
X49250Y-33465D02*
X48661Y-33465D01*
X48661Y-33308D01*
X49250Y-33308D01*
X49250Y-33465D01*
X49250Y-33465D01*
G37*
G36*
X49250Y-33622D02*
X48661Y-33622D01*
X48661Y-33465D01*
X49250Y-33465D01*
X49250Y-33622D01*
X49250Y-33622D01*
G37*
G36*
X49250Y-33780D02*
X48661Y-33780D01*
X48661Y-33623D01*
X49250Y-33623D01*
X49250Y-33780D01*
X49250Y-33780D01*
G37*
G36*
X49250Y-33937D02*
X48661Y-33937D01*
X48661Y-33780D01*
X49250Y-33780D01*
X49250Y-33937D01*
X49250Y-33937D01*
G37*
G36*
X49250Y-34094D02*
X48661Y-34094D01*
X48661Y-33937D01*
X49250Y-33937D01*
X49250Y-34094D01*
X49250Y-34094D01*
G37*
G36*
X49250Y-34252D02*
X48661Y-34252D01*
X48661Y-34095D01*
X49250Y-34095D01*
X49250Y-34252D01*
X49250Y-34252D01*
G37*
G36*
X49250Y-34409D02*
X48661Y-34409D01*
X48661Y-34252D01*
X49250Y-34252D01*
X49250Y-34409D01*
X49250Y-34409D01*
G37*
G36*
X49250Y-34567D02*
X48661Y-34567D01*
X48661Y-34410D01*
X49250Y-34410D01*
X49250Y-34567D01*
X49250Y-34567D01*
G37*
G36*
X49250Y-34724D02*
X48661Y-34724D01*
X48661Y-34567D01*
X49250Y-34567D01*
X49250Y-34724D01*
X49250Y-34724D01*
G37*
G36*
X49250Y-34882D02*
X48661Y-34882D01*
X48661Y-34725D01*
X49250Y-34725D01*
X49250Y-34882D01*
X49250Y-34882D01*
G37*
G36*
X49250Y-35039D02*
X48661Y-35039D01*
X48661Y-34882D01*
X49250Y-34882D01*
X49250Y-35039D01*
X49250Y-35039D01*
G37*
G36*
X49250Y-35197D02*
X48661Y-35197D01*
X48661Y-35040D01*
X49250Y-35040D01*
X49250Y-35197D01*
X49250Y-35197D01*
G37*
G36*
X49250Y-35354D02*
X48661Y-35354D01*
X48661Y-35197D01*
X49250Y-35197D01*
X49250Y-35354D01*
X49250Y-35354D01*
G37*
G36*
X49250Y-35512D02*
X48661Y-35512D01*
X48661Y-35355D01*
X49250Y-35355D01*
X49250Y-35512D01*
X49250Y-35512D01*
G37*
G36*
X49250Y-35669D02*
X48661Y-35669D01*
X48661Y-35512D01*
X49250Y-35512D01*
X49250Y-35669D01*
X49250Y-35669D01*
G37*
G36*
X49250Y-35983D02*
X48661Y-35983D01*
X48661Y-35827D01*
X48661Y-35826D01*
X48661Y-35670D01*
X49250Y-35670D01*
X49250Y-35826D01*
X49250Y-35827D01*
X49250Y-35983D01*
X49250Y-35983D01*
G37*
G36*
X49250Y-36141D02*
X48661Y-36141D01*
X48661Y-35984D01*
X49250Y-35984D01*
X49250Y-36141D01*
X49250Y-36141D01*
G37*
G36*
X49250Y-36298D02*
X48661Y-36298D01*
X48661Y-36141D01*
X49250Y-36141D01*
X49250Y-36298D01*
X49250Y-36298D01*
G37*
G36*
X49250Y-36456D02*
X48661Y-36456D01*
X48661Y-36299D01*
X49250Y-36299D01*
X49250Y-36456D01*
X49250Y-36456D01*
G37*
G36*
X49250Y-36613D02*
X48661Y-36613D01*
X48661Y-36456D01*
X49250Y-36456D01*
X49250Y-36613D01*
X49250Y-36613D01*
G37*
G36*
X49250Y-36771D02*
X48661Y-36771D01*
X48661Y-36614D01*
X49250Y-36614D01*
X49250Y-36771D01*
X49250Y-36771D01*
G37*
G36*
X49250Y-36928D02*
X48661Y-36928D01*
X48661Y-36771D01*
X49250Y-36771D01*
X49250Y-36928D01*
X49250Y-36928D01*
G37*
G36*
X49250Y-37086D02*
X48661Y-37086D01*
X48661Y-36929D01*
X49250Y-36929D01*
X49250Y-37086D01*
X49250Y-37086D01*
G37*
G36*
X49250Y-37243D02*
X48661Y-37243D01*
X48661Y-37086D01*
X49250Y-37086D01*
X49250Y-37243D01*
X49250Y-37243D01*
G37*
G36*
X49250Y-37401D02*
X48661Y-37401D01*
X48661Y-37244D01*
X49250Y-37244D01*
X49250Y-37401D01*
X49250Y-37401D01*
G37*
G36*
X49250Y-37558D02*
X48661Y-37558D01*
X48661Y-37401D01*
X49250Y-37401D01*
X49250Y-37558D01*
X49250Y-37558D01*
G37*
G36*
X49250Y-37716D02*
X48661Y-37716D01*
X48661Y-37559D01*
X49250Y-37559D01*
X49250Y-37716D01*
X49250Y-37716D01*
G37*
G36*
X49250Y-37873D02*
X48661Y-37873D01*
X48661Y-37716D01*
X49250Y-37716D01*
X49250Y-37873D01*
X49250Y-37873D01*
G37*
G36*
X49250Y-38030D02*
X48661Y-38030D01*
X48661Y-37873D01*
X49250Y-37873D01*
X49250Y-38030D01*
X49250Y-38030D01*
G37*
G36*
X49250Y-38188D02*
X48661Y-38188D01*
X48661Y-38031D01*
X49250Y-38031D01*
X49250Y-38188D01*
X49250Y-38188D01*
G37*
G36*
X49250Y-38345D02*
X48661Y-38345D01*
X48661Y-38188D01*
X49250Y-38188D01*
X49250Y-38345D01*
X49250Y-38345D01*
G37*
G36*
X49250Y-38503D02*
X48661Y-38503D01*
X48661Y-38346D01*
X49250Y-38346D01*
X49250Y-38503D01*
X49250Y-38503D01*
G37*
G36*
X49250Y-38660D02*
X48661Y-38660D01*
X48661Y-38503D01*
X49250Y-38503D01*
X49250Y-38660D01*
X49250Y-38660D01*
G37*
G36*
X49250Y-38818D02*
X48661Y-38818D01*
X48661Y-38661D01*
X49250Y-38661D01*
X49250Y-38818D01*
X49250Y-38818D01*
G37*
G36*
X49250Y-38975D02*
X48661Y-38975D01*
X48661Y-38818D01*
X49250Y-38818D01*
X49250Y-38975D01*
X49250Y-38975D01*
G37*
G36*
X49250Y-39133D02*
X48661Y-39133D01*
X48661Y-38976D01*
X49250Y-38976D01*
X49250Y-39133D01*
X49250Y-39133D01*
G37*
G36*
X49250Y-39290D02*
X48661Y-39290D01*
X48661Y-39133D01*
X49250Y-39133D01*
X49250Y-39290D01*
X49250Y-39290D01*
G37*
G36*
X49372Y-23546D02*
X49043Y-23546D01*
X49043Y-23107D01*
X49372Y-23107D01*
X49372Y-23546D01*
X49372Y-23546D01*
G37*
G36*
X49421Y-26676D02*
X49091Y-26676D01*
X49091Y-26236D01*
X49421Y-26236D01*
X49421Y-26676D01*
X49421Y-26676D01*
G37*
G36*
X49429Y-54637D02*
X49035Y-54637D01*
X49035Y-54165D01*
X49429Y-54165D01*
X49429Y-54637D01*
X49429Y-54637D01*
G37*
G36*
X49451Y-29491D02*
X49121Y-29491D01*
X49121Y-29051D01*
X49451Y-29051D01*
X49451Y-29491D01*
X49451Y-29491D01*
G37*
G36*
X49494Y-21287D02*
X49100Y-21287D01*
X49100Y-20814D01*
X49494Y-20814D01*
X49494Y-21287D01*
X49494Y-21287D01*
G37*
G36*
X49598Y-30141D02*
X49269Y-30141D01*
X49269Y-29701D01*
X49598Y-29701D01*
X49598Y-30141D01*
X49598Y-30141D01*
G37*
G36*
X49598Y-30692D02*
X49269Y-30692D01*
X49269Y-30252D01*
X49598Y-30252D01*
X49598Y-30692D01*
X49598Y-30692D01*
G37*
G36*
X49632Y-41040D02*
X49317Y-41040D01*
X49317Y-40805D01*
X49632Y-40805D01*
X49632Y-41040D01*
X49632Y-41040D01*
G37*
G36*
X49632Y-41394D02*
X49317Y-41394D01*
X49317Y-41159D01*
X49632Y-41159D01*
X49632Y-41394D01*
X49632Y-41394D01*
G37*
G36*
X49679Y-55387D02*
X49285Y-55387D01*
X49285Y-54915D01*
X49679Y-54915D01*
X49679Y-55387D01*
X49679Y-55387D01*
G37*
G36*
X49834Y-26125D02*
X49505Y-26125D01*
X49505Y-25685D01*
X49834Y-25685D01*
X49834Y-26125D01*
X49834Y-26125D01*
G37*
G36*
X49862Y-45905D02*
X49547Y-45905D01*
X49547Y-45669D01*
X49862Y-45669D01*
X49862Y-45905D01*
X49862Y-45905D01*
G37*
G36*
X49862Y-46259D02*
X49547Y-46259D01*
X49547Y-46023D01*
X49862Y-46023D01*
X49862Y-46259D01*
X49862Y-46259D01*
G37*
G36*
X49881Y-34192D02*
X49646Y-34192D01*
X49646Y-33878D01*
X49881Y-33878D01*
X49881Y-34192D01*
X49881Y-34192D01*
G37*
G36*
X49881Y-34547D02*
X49646Y-34547D01*
X49646Y-34232D01*
X49881Y-34232D01*
X49881Y-34547D01*
X49881Y-34547D01*
G37*
G36*
X49881Y-34881D02*
X49646Y-34881D01*
X49646Y-34567D01*
X49881Y-34567D01*
X49881Y-34881D01*
X49881Y-34881D01*
G37*
G36*
X49944Y-31321D02*
X49504Y-31321D01*
X49504Y-30991D01*
X49944Y-30991D01*
X49944Y-31321D01*
X49944Y-31321D01*
G37*
G36*
X49944Y-31921D02*
X49504Y-31921D01*
X49504Y-31591D01*
X49944Y-31591D01*
X49944Y-31921D01*
X49944Y-31921D01*
G37*
G36*
X49972Y-23546D02*
X49643Y-23546D01*
X49643Y-23107D01*
X49972Y-23107D01*
X49972Y-23546D01*
X49972Y-23546D01*
G37*
G36*
X49994Y-20537D02*
X49600Y-20537D01*
X49600Y-20064D01*
X49994Y-20064D01*
X49994Y-20537D01*
X49994Y-20537D01*
G37*
G36*
X50022Y-32345D02*
X49583Y-32345D01*
X49583Y-32015D01*
X50022Y-32015D01*
X50022Y-32345D01*
X50022Y-32345D01*
G37*
G36*
X50022Y-32945D02*
X49583Y-32945D01*
X49583Y-32615D01*
X50022Y-32615D01*
X50022Y-32945D01*
X50022Y-32945D01*
G37*
G36*
X50051Y-29491D02*
X49721Y-29491D01*
X49721Y-29051D01*
X50051Y-29051D01*
X50051Y-29491D01*
X50051Y-29491D01*
G37*
G36*
X50179Y-54637D02*
X49785Y-54637D01*
X49785Y-54165D01*
X50179Y-54165D01*
X50179Y-54637D01*
X50179Y-54637D01*
G37*
G36*
X50235Y-34192D02*
X50000Y-34192D01*
X50000Y-33878D01*
X50235Y-33878D01*
X50235Y-34192D01*
X50235Y-34192D01*
G37*
G36*
X50235Y-34547D02*
X50000Y-34547D01*
X50000Y-34232D01*
X50235Y-34232D01*
X50235Y-34547D01*
X50235Y-34547D01*
G37*
G36*
X50235Y-34881D02*
X50000Y-34881D01*
X50000Y-34567D01*
X50235Y-34567D01*
X50235Y-34881D01*
X50235Y-34881D01*
G37*
G36*
X50244Y-21287D02*
X49850Y-21287D01*
X49850Y-20814D01*
X50244Y-20814D01*
X50244Y-21287D01*
X50244Y-21287D01*
G37*
G36*
X50429Y-55387D02*
X50035Y-55387D01*
X50035Y-54915D01*
X50429Y-54915D01*
X50429Y-55387D01*
X50429Y-55387D01*
G37*
G36*
X50455Y-31853D02*
X50125Y-31853D01*
X50125Y-31414D01*
X50455Y-31414D01*
X50455Y-31853D01*
X50455Y-31853D01*
G37*
G36*
X50455Y-32444D02*
X50125Y-32444D01*
X50125Y-32004D01*
X50455Y-32004D01*
X50455Y-32444D01*
X50455Y-32444D01*
G37*
G36*
X50464Y-33519D02*
X50135Y-33519D01*
X50135Y-33080D01*
X50464Y-33080D01*
X50464Y-33519D01*
X50464Y-33519D01*
G37*
G36*
X50494Y-38096D02*
X50271Y-38319D01*
X50105Y-38152D01*
X50327Y-37930D01*
X50494Y-38096D01*
X50494Y-38096D01*
G37*
G36*
X50531Y-33995D02*
X50295Y-33995D01*
X50295Y-33681D01*
X50531Y-33681D01*
X50531Y-33995D01*
X50531Y-33995D01*
G37*
G36*
X50531Y-39675D02*
X50334Y-39675D01*
X50137Y-39675D01*
X49940Y-39675D01*
X49744Y-39675D01*
X49744Y-39399D01*
X49940Y-39399D01*
X50137Y-39399D01*
X50334Y-39399D01*
X50531Y-39399D01*
X50531Y-39675D01*
X50531Y-39675D01*
G37*
G36*
X50531Y-39970D02*
X50334Y-39970D01*
X50137Y-39970D01*
X49940Y-39970D01*
X49744Y-39970D01*
X49744Y-39694D01*
X49940Y-39694D01*
X50137Y-39694D01*
X50334Y-39694D01*
X50531Y-39694D01*
X50531Y-39970D01*
X50531Y-39970D01*
G37*
G36*
X50551Y-24626D02*
X49094Y-24626D01*
X49094Y-24035D01*
X50551Y-24035D01*
X50551Y-24626D01*
X50551Y-24626D01*
G37*
G36*
X50551Y-25492D02*
X49094Y-25492D01*
X49094Y-24901D01*
X50551Y-24901D01*
X50551Y-25492D01*
X50551Y-25492D01*
G37*
G36*
X50671Y-22581D02*
X50342Y-22581D01*
X50342Y-22142D01*
X50671Y-22142D01*
X50671Y-22581D01*
X50671Y-22581D01*
G37*
G36*
X50691Y-22011D02*
X50362Y-22011D01*
X50362Y-21571D01*
X50691Y-21571D01*
X50691Y-22011D01*
X50691Y-22011D01*
G37*
G36*
X50730Y-23704D02*
X50401Y-23704D01*
X50401Y-23264D01*
X50730Y-23264D01*
X50730Y-23704D01*
X50730Y-23704D01*
G37*
G36*
X50744Y-20537D02*
X50350Y-20537D01*
X50350Y-20064D01*
X50744Y-20064D01*
X50744Y-20537D01*
X50744Y-20537D01*
G37*
G36*
X50744Y-38347D02*
X50522Y-38569D01*
X50355Y-38403D01*
X50578Y-38180D01*
X50744Y-38347D01*
X50744Y-38347D01*
G37*
G36*
X50885Y-33995D02*
X50649Y-33995D01*
X50649Y-33681D01*
X50885Y-33681D01*
X50885Y-33995D01*
X50885Y-33995D01*
G37*
G36*
X50929Y-54637D02*
X50535Y-54637D01*
X50535Y-54165D01*
X50929Y-54165D01*
X50929Y-54637D01*
X50929Y-54637D01*
G37*
G36*
X50994Y-21287D02*
X50600Y-21287D01*
X50600Y-20814D01*
X50994Y-20814D01*
X50994Y-21287D01*
X50994Y-21287D01*
G37*
G36*
X51004Y-29075D02*
X50413Y-29075D01*
X50413Y-28287D01*
X51004Y-28287D01*
X51004Y-29075D01*
X51004Y-29075D01*
G37*
G36*
X51004Y-30256D02*
X50413Y-30256D01*
X50413Y-29468D01*
X51004Y-29468D01*
X51004Y-30256D01*
X51004Y-30256D01*
G37*
G36*
X51055Y-31853D02*
X50725Y-31853D01*
X50725Y-31414D01*
X51055Y-31414D01*
X51055Y-31853D01*
X51055Y-31853D01*
G37*
G36*
X51055Y-32444D02*
X50725Y-32444D01*
X50725Y-32004D01*
X51055Y-32004D01*
X51055Y-32444D01*
X51055Y-32444D01*
G37*
G36*
X51064Y-33519D02*
X50735Y-33519D01*
X50735Y-33080D01*
X51064Y-33080D01*
X51064Y-33519D01*
X51064Y-33519D01*
G37*
G36*
X51144Y-25062D02*
X50814Y-25062D01*
X50814Y-24622D01*
X51144Y-24622D01*
X51144Y-25062D01*
X51144Y-25062D01*
G37*
G36*
X51144Y-25613D02*
X50814Y-25613D01*
X50814Y-25173D01*
X51144Y-25173D01*
X51144Y-25613D01*
X51144Y-25613D01*
G37*
G36*
X51179Y-55387D02*
X50785Y-55387D01*
X50785Y-54915D01*
X51179Y-54915D01*
X51179Y-55387D01*
X51179Y-55387D01*
G37*
G36*
X51210Y-40354D02*
X51013Y-40354D01*
X50816Y-40354D01*
X50620Y-40354D01*
X50423Y-40354D01*
X50423Y-40078D01*
X50620Y-40078D01*
X50816Y-40078D01*
X51013Y-40078D01*
X51210Y-40078D01*
X51210Y-40354D01*
X51210Y-40354D01*
G37*
G36*
X51210Y-40649D02*
X51013Y-40649D01*
X50816Y-40649D01*
X50620Y-40649D01*
X50423Y-40649D01*
X50423Y-40374D01*
X50620Y-40374D01*
X50816Y-40374D01*
X51013Y-40374D01*
X51210Y-40374D01*
X51210Y-40649D01*
X51210Y-40649D01*
G37*
G36*
X51271Y-22581D02*
X50942Y-22581D01*
X50942Y-22142D01*
X51271Y-22142D01*
X51271Y-22581D01*
X51271Y-22581D01*
G37*
G36*
X51282Y-24511D02*
X50952Y-24511D01*
X50952Y-24071D01*
X51282Y-24071D01*
X51282Y-24511D01*
X51282Y-24511D01*
G37*
G36*
X51291Y-22011D02*
X50962Y-22011D01*
X50962Y-21571D01*
X51291Y-21571D01*
X51291Y-22011D01*
X51291Y-22011D01*
G37*
G36*
X51330Y-23704D02*
X51001Y-23704D01*
X51001Y-23264D01*
X51330Y-23264D01*
X51330Y-23704D01*
X51330Y-23704D01*
G37*
G36*
X51624Y-37121D02*
X51313Y-37431D01*
X51081Y-37198D01*
X51391Y-36888D01*
X51624Y-37121D01*
X51624Y-37121D01*
G37*
G36*
X51679Y-54637D02*
X51285Y-54637D01*
X51285Y-54165D01*
X51679Y-54165D01*
X51679Y-54637D01*
X51679Y-54637D01*
G37*
G36*
X51714Y-33585D02*
X51386Y-33585D01*
X51386Y-33146D01*
X51714Y-33146D01*
X51714Y-33585D01*
X51714Y-33585D01*
G37*
G36*
X51715Y-31873D02*
X51385Y-31873D01*
X51385Y-31433D01*
X51715Y-31433D01*
X51715Y-31873D01*
X51715Y-31873D01*
G37*
G36*
X51744Y-25062D02*
X51414Y-25062D01*
X51414Y-24622D01*
X51744Y-24622D01*
X51744Y-25062D01*
X51744Y-25062D01*
G37*
G36*
X51744Y-25613D02*
X51414Y-25613D01*
X51414Y-25173D01*
X51744Y-25173D01*
X51744Y-25613D01*
X51744Y-25613D01*
G37*
G36*
X51752Y-22539D02*
X51515Y-22539D01*
X51515Y-22224D01*
X51752Y-22224D01*
X51752Y-22539D01*
X51752Y-22539D01*
G37*
G36*
X51870Y-29075D02*
X51279Y-29075D01*
X51279Y-28287D01*
X51870Y-28287D01*
X51870Y-29075D01*
X51870Y-29075D01*
G37*
G36*
X51870Y-30256D02*
X51279Y-30256D01*
X51279Y-29468D01*
X51870Y-29468D01*
X51870Y-30256D01*
X51870Y-30256D01*
G37*
G36*
X51882Y-24511D02*
X51552Y-24511D01*
X51552Y-24071D01*
X51882Y-24071D01*
X51882Y-24511D01*
X51882Y-24511D01*
G37*
G36*
X51929Y-55387D02*
X51535Y-55387D01*
X51535Y-54915D01*
X51929Y-54915D01*
X51929Y-55387D01*
X51929Y-55387D01*
G37*
G36*
X51944Y-39605D02*
X51747Y-39605D01*
X51550Y-39605D01*
X51353Y-39605D01*
X51156Y-39605D01*
X51156Y-39329D01*
X51353Y-39329D01*
X51550Y-39329D01*
X51747Y-39329D01*
X51944Y-39329D01*
X51944Y-39605D01*
X51944Y-39605D01*
G37*
G36*
X51944Y-39900D02*
X51747Y-39900D01*
X51550Y-39900D01*
X51353Y-39900D01*
X51156Y-39900D01*
X51156Y-39624D01*
X51353Y-39624D01*
X51550Y-39624D01*
X51747Y-39624D01*
X51944Y-39624D01*
X51944Y-39900D01*
X51944Y-39900D01*
G37*
G36*
X51971Y-32463D02*
X51641Y-32463D01*
X51641Y-32024D01*
X51971Y-32024D01*
X51971Y-32463D01*
X51971Y-32463D01*
G37*
G36*
X51971Y-33015D02*
X51641Y-33015D01*
X51641Y-32575D01*
X51971Y-32575D01*
X51971Y-33015D01*
X51971Y-33015D01*
G37*
G36*
X52048Y-37545D02*
X51738Y-37855D01*
X51505Y-37623D01*
X51815Y-37312D01*
X52048Y-37545D01*
X52048Y-37545D01*
G37*
G36*
X52106Y-22539D02*
X51869Y-22539D01*
X51869Y-22224D01*
X52106Y-22224D01*
X52106Y-22539D01*
X52106Y-22539D01*
G37*
G36*
X52187Y-20613D02*
X51858Y-20613D01*
X51858Y-20173D01*
X52187Y-20173D01*
X52187Y-20613D01*
X52187Y-20613D01*
G37*
G36*
X52314Y-33585D02*
X51986Y-33585D01*
X51986Y-33146D01*
X52314Y-33146D01*
X52314Y-33585D01*
X52314Y-33585D01*
G37*
G36*
X52315Y-31873D02*
X51985Y-31873D01*
X51985Y-31433D01*
X52315Y-31433D01*
X52315Y-31873D01*
X52315Y-31873D01*
G37*
G36*
X52429Y-54637D02*
X52035Y-54637D01*
X52035Y-54165D01*
X52429Y-54165D01*
X52429Y-54637D01*
X52429Y-54637D01*
G37*
G36*
X52571Y-32463D02*
X52241Y-32463D01*
X52241Y-32024D01*
X52571Y-32024D01*
X52571Y-32463D01*
X52571Y-32463D01*
G37*
G36*
X52571Y-33015D02*
X52241Y-33015D01*
X52241Y-32575D01*
X52571Y-32575D01*
X52571Y-33015D01*
X52571Y-33015D01*
G37*
G36*
X52679Y-55387D02*
X52285Y-55387D01*
X52285Y-54915D01*
X52679Y-54915D01*
X52679Y-55387D01*
X52679Y-55387D01*
G37*
G36*
X52699Y-38915D02*
X52502Y-38915D01*
X52305Y-38915D01*
X52108Y-38915D01*
X51911Y-38915D01*
X51911Y-38639D01*
X52108Y-38639D01*
X52305Y-38639D01*
X52502Y-38639D01*
X52699Y-38639D01*
X52699Y-38915D01*
X52699Y-38915D01*
G37*
G36*
X52699Y-39210D02*
X52502Y-39210D01*
X52305Y-39210D01*
X52108Y-39210D01*
X51911Y-39210D01*
X51911Y-38934D01*
X52108Y-38934D01*
X52305Y-38934D01*
X52502Y-38934D01*
X52699Y-38934D01*
X52699Y-39210D01*
X52699Y-39210D01*
G37*
G36*
X52787Y-20613D02*
X52458Y-20613D01*
X52458Y-20173D01*
X52787Y-20173D01*
X52787Y-20613D01*
X52787Y-20613D01*
G37*
G36*
X52855Y-24050D02*
X52622Y-24283D01*
X52311Y-23972D01*
X52544Y-23739D01*
X52855Y-24050D01*
X52855Y-24050D01*
G37*
G36*
X52915Y-23093D02*
X52586Y-23093D01*
X52586Y-22654D01*
X52915Y-22654D01*
X52915Y-23093D01*
X52915Y-23093D01*
G37*
G36*
X52935Y-21538D02*
X52606Y-21538D01*
X52606Y-21099D01*
X52935Y-21099D01*
X52935Y-21538D01*
X52935Y-21538D01*
G37*
G36*
X52935Y-22030D02*
X52606Y-22030D01*
X52606Y-21591D01*
X52935Y-21591D01*
X52935Y-22030D01*
X52935Y-22030D01*
G37*
G36*
X52935Y-22522D02*
X52606Y-22522D01*
X52606Y-22083D01*
X52935Y-22083D01*
X52935Y-22522D01*
X52935Y-22522D01*
G37*
G36*
X52978Y-24886D02*
X52505Y-24886D01*
X52505Y-24491D01*
X52978Y-24491D01*
X52978Y-24886D01*
X52978Y-24886D01*
G37*
G36*
X52978Y-25636D02*
X52505Y-25636D01*
X52505Y-25241D01*
X52978Y-25241D01*
X52978Y-25636D01*
X52978Y-25636D01*
G37*
G36*
X52978Y-26386D02*
X52505Y-26386D01*
X52505Y-25991D01*
X52978Y-25991D01*
X52978Y-26386D01*
X52978Y-26386D01*
G37*
G36*
X52978Y-27136D02*
X52505Y-27136D01*
X52505Y-26741D01*
X52978Y-26741D01*
X52978Y-27136D01*
X52978Y-27136D01*
G37*
G36*
X52978Y-27886D02*
X52505Y-27886D01*
X52505Y-27491D01*
X52978Y-27491D01*
X52978Y-27886D01*
X52978Y-27886D01*
G37*
G36*
X52978Y-28636D02*
X52505Y-28636D01*
X52505Y-28241D01*
X52978Y-28241D01*
X52978Y-28636D01*
X52978Y-28636D01*
G37*
G36*
X52978Y-29386D02*
X52505Y-29386D01*
X52505Y-28991D01*
X52978Y-28991D01*
X52978Y-29386D01*
X52978Y-29386D01*
G37*
G36*
X52978Y-30136D02*
X52505Y-30136D01*
X52505Y-29741D01*
X52978Y-29741D01*
X52978Y-30136D01*
X52978Y-30136D01*
G37*
G36*
X52978Y-30886D02*
X52505Y-30886D01*
X52505Y-30491D01*
X52978Y-30491D01*
X52978Y-30886D01*
X52978Y-30886D01*
G37*
G36*
X52978Y-31636D02*
X52505Y-31636D01*
X52505Y-31241D01*
X52978Y-31241D01*
X52978Y-31636D01*
X52978Y-31636D01*
G37*
G36*
X52992Y-40580D02*
X52795Y-40580D01*
X52598Y-40580D01*
X52401Y-40580D01*
X52204Y-40580D01*
X52204Y-40305D01*
X52401Y-40305D01*
X52598Y-40305D01*
X52795Y-40305D01*
X52992Y-40305D01*
X52992Y-40580D01*
X52992Y-40580D01*
G37*
G36*
X52992Y-40875D02*
X52795Y-40875D01*
X52598Y-40875D01*
X52401Y-40875D01*
X52204Y-40875D01*
X52204Y-40600D01*
X52401Y-40600D01*
X52598Y-40600D01*
X52795Y-40600D01*
X52992Y-40600D01*
X52992Y-40875D01*
X52992Y-40875D01*
G37*
G36*
X53279Y-23625D02*
X53046Y-23858D01*
X52735Y-23548D01*
X52968Y-23315D01*
X53279Y-23625D01*
X53279Y-23625D01*
G37*
G36*
X53297Y-51915D02*
X53295Y-52036D01*
X53272Y-52140D01*
X53228Y-52237D01*
X53167Y-52323D01*
X53090Y-52397D01*
X53001Y-52454D01*
X52902Y-52492D01*
X52797Y-52510D01*
X52691Y-52508D01*
X52587Y-52485D01*
X52490Y-52443D01*
X52403Y-52382D01*
X52329Y-52306D01*
X52272Y-52217D01*
X52233Y-52118D01*
X52213Y-52014D01*
X52215Y-51907D01*
X52237Y-51804D01*
X52279Y-51706D01*
X52339Y-51618D01*
X52415Y-51544D01*
X52503Y-51486D01*
X52602Y-51446D01*
X52706Y-51426D01*
X52812Y-51427D01*
X52916Y-51448D01*
X53014Y-51490D01*
X53102Y-51549D01*
X53177Y-51624D01*
X53236Y-51713D01*
X53276Y-51811D01*
X53297Y-51915D01*
X53297Y-51915D01*
G37*
G36*
X53515Y-23093D02*
X53186Y-23093D01*
X53186Y-22654D01*
X53515Y-22654D01*
X53515Y-23093D01*
X53515Y-23093D01*
G37*
G36*
X53535Y-21538D02*
X53206Y-21538D01*
X53206Y-21099D01*
X53535Y-21099D01*
X53535Y-21538D01*
X53535Y-21538D01*
G37*
G36*
X53535Y-22030D02*
X53206Y-22030D01*
X53206Y-21591D01*
X53535Y-21591D01*
X53535Y-22030D01*
X53535Y-22030D01*
G37*
G36*
X53535Y-22522D02*
X53206Y-22522D01*
X53206Y-22083D01*
X53535Y-22083D01*
X53535Y-22522D01*
X53535Y-22522D01*
G37*
G36*
X53728Y-24635D02*
X53255Y-24635D01*
X53255Y-24242D01*
X53728Y-24242D01*
X53728Y-24635D01*
X53728Y-24635D01*
G37*
G36*
X53728Y-25386D02*
X53255Y-25386D01*
X53255Y-24991D01*
X53728Y-24991D01*
X53728Y-25386D01*
X53728Y-25386D01*
G37*
G36*
X53728Y-26136D02*
X53255Y-26136D01*
X53255Y-25741D01*
X53728Y-25741D01*
X53728Y-26136D01*
X53728Y-26136D01*
G37*
G36*
X53728Y-26886D02*
X53255Y-26886D01*
X53255Y-26491D01*
X53728Y-26491D01*
X53728Y-26886D01*
X53728Y-26886D01*
G37*
G36*
X53728Y-27636D02*
X53255Y-27636D01*
X53255Y-27241D01*
X53728Y-27241D01*
X53728Y-27636D01*
X53728Y-27636D01*
G37*
G36*
X53728Y-28386D02*
X53255Y-28386D01*
X53255Y-27991D01*
X53728Y-27991D01*
X53728Y-28386D01*
X53728Y-28386D01*
G37*
G36*
X53728Y-29136D02*
X53255Y-29136D01*
X53255Y-28741D01*
X53728Y-28741D01*
X53728Y-29136D01*
X53728Y-29136D01*
G37*
G36*
X53728Y-29886D02*
X53255Y-29886D01*
X53255Y-29491D01*
X53728Y-29491D01*
X53728Y-29886D01*
X53728Y-29886D01*
G37*
G36*
X53728Y-30636D02*
X53255Y-30636D01*
X53255Y-30241D01*
X53728Y-30241D01*
X53728Y-30636D01*
X53728Y-30636D01*
G37*
G36*
X53728Y-31386D02*
X53255Y-31386D01*
X53255Y-30991D01*
X53728Y-30991D01*
X53728Y-31386D01*
X53728Y-31386D01*
G37*
G36*
X53740Y-39950D02*
X53543Y-39950D01*
X53346Y-39950D01*
X53149Y-39950D01*
X52952Y-39950D01*
X52952Y-39675D01*
X53149Y-39675D01*
X53346Y-39675D01*
X53543Y-39675D01*
X53740Y-39675D01*
X53740Y-39950D01*
X53740Y-39950D01*
G37*
G36*
X53740Y-40246D02*
X53543Y-40246D01*
X53346Y-40246D01*
X53149Y-40246D01*
X52952Y-40246D01*
X52952Y-39970D01*
X53149Y-39970D01*
X53346Y-39970D01*
X53543Y-39970D01*
X53740Y-39970D01*
X53740Y-40246D01*
X53740Y-40246D01*
G37*
M02*
