G04 (created by PCBNEW (2013-04-04 BZR 4007)-stable) date Втр 09 Апр 2013 20:20:45*
%MOIN*%
G04 Gerber Fmt 3.4, Leading zero omitted, Abs format*
%FSLAX34Y34*%
G01*
G70*
G90*
G04 APERTURE LIST*
%ADD10C,0.006*%
%ADD11C,0.0511811*%
%ADD12R,0.0859X0.2362*%
%ADD13R,0.016X0.2362*%
%ADD14C,0.023622*%
%ADD15C,0.012*%
%ADD16C,0.01*%
G04 APERTURE END LIST*
G54D10*
G54D11*
X44076Y-21403D03*
X44576Y-21903D03*
X45076Y-21403D03*
X45576Y-21903D03*
X46076Y-21403D03*
X46576Y-21903D03*
X47076Y-21403D03*
X47576Y-21903D03*
X48076Y-21403D03*
X48576Y-21903D03*
X49076Y-21403D03*
X49576Y-21903D03*
X50076Y-21403D03*
X50576Y-21903D03*
X51076Y-21403D03*
X51576Y-21903D03*
X52076Y-21403D03*
X52576Y-21903D03*
X53076Y-21403D03*
X53576Y-21903D03*
X34769Y-31356D03*
X35269Y-30856D03*
X34769Y-30356D03*
X35269Y-29856D03*
X34769Y-29356D03*
X35269Y-28856D03*
X34769Y-28356D03*
X35269Y-27856D03*
X34769Y-27356D03*
X35269Y-26856D03*
X34769Y-26356D03*
X35269Y-25856D03*
X34769Y-25356D03*
X35269Y-24856D03*
X34769Y-24356D03*
X35269Y-23856D03*
X34769Y-23356D03*
X35269Y-22856D03*
X34769Y-22356D03*
X35269Y-21856D03*
X44545Y-20958D03*
X44045Y-20458D03*
X43545Y-20958D03*
X43045Y-20458D03*
X42545Y-20958D03*
X42045Y-20458D03*
X41545Y-20958D03*
X41045Y-20458D03*
X40545Y-20958D03*
X40045Y-20458D03*
X39545Y-20958D03*
X39045Y-20458D03*
X38545Y-20958D03*
X38045Y-20458D03*
X37545Y-20958D03*
X37045Y-20458D03*
X36545Y-20958D03*
X36045Y-20458D03*
X35545Y-20958D03*
X35045Y-20458D03*
X52938Y-33364D03*
X53438Y-32864D03*
X52938Y-32364D03*
X53438Y-31864D03*
X52938Y-31364D03*
X53438Y-30864D03*
X52938Y-30364D03*
X53438Y-29864D03*
X52938Y-29364D03*
X53438Y-28864D03*
X52938Y-28364D03*
X53438Y-27864D03*
X52938Y-27364D03*
X53438Y-26864D03*
X52938Y-26364D03*
X53438Y-25864D03*
X52938Y-25364D03*
X53438Y-24864D03*
X52938Y-24364D03*
X53438Y-23864D03*
X53482Y-55151D03*
X52982Y-54651D03*
X52482Y-55151D03*
X51982Y-54651D03*
X51482Y-55151D03*
X50982Y-54651D03*
X50482Y-55151D03*
X49982Y-54651D03*
X49482Y-55151D03*
X48982Y-54651D03*
X48482Y-55151D03*
X47982Y-54651D03*
X47482Y-55151D03*
X46982Y-54651D03*
X46482Y-55151D03*
X45982Y-54651D03*
X45482Y-55151D03*
X44982Y-54651D03*
X44482Y-55151D03*
X43982Y-54651D03*
G54D12*
X44685Y-35826D03*
G54D13*
X43662Y-36219D03*
X43977Y-36219D03*
X44292Y-36849D03*
X44292Y-36534D03*
X45078Y-36849D03*
X45078Y-36534D03*
X45708Y-36219D03*
X45393Y-36219D03*
X43662Y-35433D03*
X43977Y-35433D03*
X45708Y-35433D03*
X45393Y-35433D03*
X44292Y-34803D03*
X44292Y-35118D03*
X45078Y-34803D03*
X45078Y-35118D03*
G54D14*
X48011Y-34212D03*
X42755Y-38602D03*
X41909Y-37165D03*
X46948Y-32460D03*
X46397Y-32460D03*
X41259Y-37145D03*
X36653Y-45866D03*
X36712Y-39665D03*
X37066Y-49547D03*
G54D15*
X44400Y-41850D03*
X47400Y-40700D03*
X44550Y-42050D03*
X47650Y-40800D03*
X45039Y-42440D03*
X48300Y-40200D03*
X44800Y-42250D03*
X47850Y-40700D03*
G54D14*
X43464Y-41968D03*
X45511Y-39527D03*
G54D15*
X43775Y-41900D03*
X45900Y-40775D03*
X44025Y-41900D03*
X46075Y-41025D03*
G54D14*
X44409Y-50177D03*
X48366Y-50177D03*
X44507Y-47854D03*
X50964Y-47165D03*
X44429Y-46259D03*
X49271Y-46397D03*
X48464Y-48582D03*
X44645Y-48582D03*
X50551Y-45866D03*
X44409Y-46948D03*
X45039Y-51062D03*
X48818Y-51062D03*
X48248Y-48799D03*
X44409Y-48799D03*
X44744Y-50610D03*
X48582Y-50610D03*
X45039Y-50393D03*
X48799Y-50393D03*
X44566Y-47421D03*
X50610Y-47362D03*
X48346Y-50826D03*
X44448Y-50826D03*
X44901Y-48070D03*
X51318Y-46968D03*
X45078Y-51771D03*
X48897Y-51771D03*
X48700Y-48366D03*
X44901Y-48366D03*
X44803Y-51299D03*
X48622Y-51299D03*
X48562Y-49940D03*
X44685Y-49940D03*
X50334Y-45610D03*
X44822Y-46574D03*
X48799Y-49724D03*
X44980Y-49724D03*
X44665Y-49251D03*
X48503Y-49251D03*
X47775Y-44842D03*
X42874Y-45039D03*
X44547Y-45964D03*
X49271Y-45885D03*
X42913Y-45393D03*
X47598Y-45137D03*
X54133Y-44370D03*
X41259Y-45944D03*
X45807Y-45413D03*
X48740Y-49035D03*
X44921Y-49035D03*
X48425Y-51535D03*
X44566Y-51535D03*
X48287Y-49507D03*
X44448Y-49507D03*
X41240Y-26870D03*
X41358Y-35846D03*
X41161Y-37657D03*
X41220Y-38444D03*
X41200Y-38051D03*
X41692Y-34862D03*
X46791Y-34724D03*
X47657Y-34862D03*
X45551Y-29547D03*
X47322Y-29488D03*
X45354Y-30866D03*
X44940Y-32204D03*
X43661Y-27480D03*
X35669Y-49783D03*
X45275Y-44074D03*
X39881Y-41397D03*
X41062Y-41358D03*
X50236Y-44468D03*
X50688Y-26496D03*
X41003Y-44744D03*
X41633Y-43681D03*
X39232Y-47381D03*
X44625Y-43503D03*
X43720Y-43622D03*
X40452Y-47224D03*
X44842Y-46259D03*
X44724Y-47007D03*
X45950Y-47800D03*
X46377Y-43405D03*
X47854Y-45531D03*
X50275Y-47440D03*
X50177Y-42185D03*
X49133Y-47933D03*
X49429Y-33897D03*
X43582Y-22460D03*
X46023Y-30216D03*
X42421Y-24074D03*
X38897Y-26377D03*
X39862Y-55354D03*
X37480Y-55059D03*
X37421Y-53779D03*
X39665Y-49901D03*
X39114Y-51358D03*
X35944Y-50236D03*
X35748Y-49173D03*
X36850Y-39960D03*
X37027Y-45846D03*
X44763Y-45236D03*
X49271Y-44429D03*
X41496Y-48307D03*
X41259Y-46240D03*
X45905Y-44822D03*
X47440Y-43149D03*
X49192Y-44862D03*
X53326Y-34114D03*
X47736Y-33700D03*
X47893Y-34527D03*
X48051Y-33681D03*
X49645Y-25944D03*
X43720Y-23799D03*
X45925Y-22893D03*
X51397Y-32440D03*
X49685Y-33641D03*
X37972Y-34901D03*
X47047Y-33484D03*
X42303Y-41161D03*
X43641Y-39330D03*
X51535Y-34153D03*
X48248Y-33248D03*
X48937Y-28129D03*
X48248Y-32559D03*
X50688Y-27066D03*
X48228Y-32913D03*
X43031Y-45925D03*
X40039Y-43818D03*
X39803Y-44822D03*
X45098Y-42716D03*
X40748Y-46555D03*
X43129Y-46240D03*
X47293Y-45442D03*
X45728Y-47204D03*
X36161Y-32893D03*
X35629Y-39940D03*
X36515Y-40413D03*
X36712Y-41259D03*
X38484Y-42362D03*
X39468Y-47677D03*
X39822Y-47106D03*
X43051Y-33602D03*
X45314Y-32460D03*
X45492Y-32992D03*
X43405Y-33582D03*
X39547Y-43976D03*
X45688Y-52303D03*
X41220Y-36751D03*
X45925Y-52559D03*
X41023Y-36515D03*
X38346Y-28070D03*
X38661Y-28070D03*
X38976Y-28110D03*
X45314Y-22322D03*
X42362Y-30078D03*
X37125Y-33090D03*
X35984Y-29094D03*
X40157Y-30649D03*
X40354Y-31555D03*
X39665Y-28031D03*
X41633Y-25629D03*
X40433Y-27716D03*
X41594Y-25019D03*
X35452Y-35767D03*
X35196Y-39704D03*
X36515Y-40000D03*
X36909Y-41023D03*
X38799Y-42381D03*
X39783Y-47716D03*
X35374Y-52224D03*
X43956Y-27539D03*
X36240Y-47716D03*
X41712Y-23897D03*
X42992Y-23877D03*
X41594Y-25334D03*
X39527Y-24429D03*
G54D15*
X43850Y-40500D03*
X43975Y-39600D03*
G54D14*
X40511Y-28838D03*
X40216Y-25196D03*
X42933Y-29724D03*
X45314Y-29212D03*
X42677Y-29940D03*
X45728Y-30157D03*
X40196Y-24881D03*
X40295Y-29055D03*
X39685Y-28385D03*
X41338Y-25748D03*
X40787Y-27736D03*
X40452Y-30374D03*
X40590Y-31791D03*
X47303Y-33169D03*
X50177Y-30472D03*
X50964Y-30452D03*
X47027Y-33051D03*
X50196Y-30137D03*
X50944Y-30098D03*
X41200Y-44271D03*
X44153Y-43169D03*
X40492Y-48779D03*
X47933Y-44547D03*
X50255Y-46653D03*
X49429Y-47637D03*
X45850Y-47500D03*
X38681Y-54645D03*
X40472Y-47854D03*
X44803Y-44921D03*
X43031Y-44724D03*
X49114Y-45334D03*
X40354Y-45393D03*
X41100Y-46500D03*
X41279Y-45649D03*
X42519Y-45275D03*
X41929Y-43582D03*
X45964Y-43602D03*
X45950Y-46900D03*
X48850Y-43650D03*
X46515Y-43740D03*
X47900Y-39550D03*
X44800Y-39550D03*
X45900Y-39550D03*
X48300Y-37950D03*
X48250Y-36550D03*
X37463Y-54570D03*
X39163Y-52770D03*
X34862Y-53070D03*
X41141Y-27500D03*
X41594Y-29173D03*
X43149Y-29488D03*
X45314Y-28818D03*
X49665Y-33287D03*
X51456Y-32106D03*
G54D10*
G36*
X34788Y-27361D02*
X34775Y-27374D01*
X34769Y-27369D01*
X34764Y-27374D01*
X34751Y-27361D01*
X34756Y-27356D01*
X34751Y-27350D01*
X34764Y-27337D01*
X34769Y-27343D01*
X34775Y-27337D01*
X34788Y-27350D01*
X34782Y-27356D01*
X34788Y-27361D01*
X34788Y-27361D01*
G37*
G54D16*
X34788Y-27361D02*
X34775Y-27374D01*
X34769Y-27369D01*
X34764Y-27374D01*
X34751Y-27361D01*
X34756Y-27356D01*
X34751Y-27350D01*
X34764Y-27337D01*
X34769Y-27343D01*
X34775Y-27337D01*
X34788Y-27350D01*
X34782Y-27356D01*
X34788Y-27361D01*
G54D10*
G36*
X34788Y-29361D02*
X34775Y-29374D01*
X34769Y-29369D01*
X34764Y-29374D01*
X34751Y-29361D01*
X34756Y-29356D01*
X34751Y-29350D01*
X34764Y-29337D01*
X34769Y-29343D01*
X34775Y-29337D01*
X34788Y-29350D01*
X34782Y-29356D01*
X34788Y-29361D01*
X34788Y-29361D01*
G37*
G54D16*
X34788Y-29361D02*
X34775Y-29374D01*
X34769Y-29369D01*
X34764Y-29374D01*
X34751Y-29361D01*
X34756Y-29356D01*
X34751Y-29350D01*
X34764Y-29337D01*
X34769Y-29343D01*
X34775Y-29337D01*
X34788Y-29350D01*
X34782Y-29356D01*
X34788Y-29361D01*
G54D10*
G36*
X53500Y-55157D02*
X53487Y-55169D01*
X53482Y-55164D01*
X53476Y-55169D01*
X53463Y-55157D01*
X53469Y-55151D01*
X53463Y-55146D01*
X53476Y-55133D01*
X53482Y-55138D01*
X53487Y-55133D01*
X53500Y-55146D01*
X53495Y-55151D01*
X53500Y-55157D01*
X53500Y-55157D01*
G37*
G54D16*
X53500Y-55157D02*
X53487Y-55169D01*
X53482Y-55164D01*
X53476Y-55169D01*
X53463Y-55157D01*
X53469Y-55151D01*
X53463Y-55146D01*
X53476Y-55133D01*
X53482Y-55138D01*
X53487Y-55133D01*
X53500Y-55146D01*
X53495Y-55151D01*
X53500Y-55157D01*
G54D10*
G36*
X53778Y-29124D02*
X53778Y-29612D01*
X53721Y-29594D01*
X53451Y-29864D01*
X53721Y-30133D01*
X53777Y-30116D01*
X53776Y-30602D01*
X53679Y-30504D01*
X53523Y-30440D01*
X53362Y-30440D01*
X53363Y-30286D01*
X53515Y-30289D01*
X53672Y-30227D01*
X53685Y-30219D01*
X53708Y-30146D01*
X53438Y-29876D01*
X53433Y-29882D01*
X53420Y-29869D01*
X53426Y-29864D01*
X53420Y-29858D01*
X53433Y-29845D01*
X53438Y-29851D01*
X53708Y-29581D01*
X53685Y-29509D01*
X53531Y-29441D01*
X53362Y-29438D01*
X53363Y-29288D01*
X53522Y-29288D01*
X53678Y-29223D01*
X53778Y-29124D01*
X53778Y-29124D01*
G37*
G54D16*
X53778Y-29124D02*
X53778Y-29612D01*
X53721Y-29594D01*
X53451Y-29864D01*
X53721Y-30133D01*
X53777Y-30116D01*
X53776Y-30602D01*
X53679Y-30504D01*
X53523Y-30440D01*
X53362Y-30440D01*
X53363Y-30286D01*
X53515Y-30289D01*
X53672Y-30227D01*
X53685Y-30219D01*
X53708Y-30146D01*
X53438Y-29876D01*
X53433Y-29882D01*
X53420Y-29869D01*
X53426Y-29864D01*
X53420Y-29858D01*
X53433Y-29845D01*
X53438Y-29851D01*
X53708Y-29581D01*
X53685Y-29509D01*
X53531Y-29441D01*
X53362Y-29438D01*
X53363Y-29288D01*
X53522Y-29288D01*
X53678Y-29223D01*
X53778Y-29124D01*
G54D10*
G36*
X53784Y-24118D02*
X53783Y-24614D01*
X53721Y-24594D01*
X53451Y-24864D01*
X53721Y-25133D01*
X53782Y-25114D01*
X53782Y-25608D01*
X53679Y-25504D01*
X53523Y-25440D01*
X53362Y-25440D01*
X53363Y-25286D01*
X53515Y-25289D01*
X53672Y-25227D01*
X53685Y-25219D01*
X53708Y-25146D01*
X53438Y-24876D01*
X53433Y-24882D01*
X53420Y-24869D01*
X53426Y-24864D01*
X53420Y-24858D01*
X53433Y-24845D01*
X53438Y-24851D01*
X53708Y-24581D01*
X53685Y-24509D01*
X53531Y-24441D01*
X53362Y-24438D01*
X53363Y-24288D01*
X53522Y-24288D01*
X53678Y-24223D01*
X53784Y-24118D01*
X53784Y-24118D01*
G37*
G54D16*
X53784Y-24118D02*
X53783Y-24614D01*
X53721Y-24594D01*
X53451Y-24864D01*
X53721Y-25133D01*
X53782Y-25114D01*
X53782Y-25608D01*
X53679Y-25504D01*
X53523Y-25440D01*
X53362Y-25440D01*
X53363Y-25286D01*
X53515Y-25289D01*
X53672Y-25227D01*
X53685Y-25219D01*
X53708Y-25146D01*
X53438Y-24876D01*
X53433Y-24882D01*
X53420Y-24869D01*
X53426Y-24864D01*
X53420Y-24858D01*
X53433Y-24845D01*
X53438Y-24851D01*
X53708Y-24581D01*
X53685Y-24509D01*
X53531Y-24441D01*
X53362Y-24438D01*
X53363Y-24288D01*
X53522Y-24288D01*
X53678Y-24223D01*
X53784Y-24118D01*
G54D10*
G36*
X53786Y-22276D02*
X53784Y-23610D01*
X53679Y-23504D01*
X53523Y-23440D01*
X53355Y-23440D01*
X53199Y-23504D01*
X53079Y-23623D01*
X53015Y-23779D01*
X53014Y-23940D01*
X52855Y-23940D01*
X52699Y-24004D01*
X52579Y-24123D01*
X52515Y-24279D01*
X52514Y-24448D01*
X52579Y-24604D01*
X52698Y-24723D01*
X52854Y-24788D01*
X53016Y-24788D01*
X53013Y-24940D01*
X52855Y-24940D01*
X52699Y-25004D01*
X52579Y-25123D01*
X52515Y-25279D01*
X52514Y-25448D01*
X52579Y-25604D01*
X52698Y-25723D01*
X52854Y-25788D01*
X53015Y-25788D01*
X53014Y-25940D01*
X52855Y-25940D01*
X52699Y-26004D01*
X52579Y-26123D01*
X52515Y-26279D01*
X52514Y-26448D01*
X52579Y-26604D01*
X52698Y-26723D01*
X52854Y-26788D01*
X53015Y-26788D01*
X53014Y-26940D01*
X52855Y-26940D01*
X52699Y-27004D01*
X52579Y-27123D01*
X52515Y-27279D01*
X52514Y-27448D01*
X52579Y-27604D01*
X52698Y-27723D01*
X52854Y-27788D01*
X53015Y-27788D01*
X53014Y-27941D01*
X52862Y-27938D01*
X52705Y-28000D01*
X52692Y-28009D01*
X52669Y-28081D01*
X52938Y-28351D01*
X52944Y-28345D01*
X52957Y-28358D01*
X52951Y-28364D01*
X52957Y-28369D01*
X52944Y-28382D01*
X52938Y-28376D01*
X52926Y-28389D01*
X52926Y-28364D01*
X52656Y-28094D01*
X52583Y-28117D01*
X52516Y-28272D01*
X52513Y-28440D01*
X52575Y-28597D01*
X52583Y-28610D01*
X52656Y-28633D01*
X52926Y-28364D01*
X52926Y-28389D01*
X52669Y-28646D01*
X52692Y-28719D01*
X52846Y-28786D01*
X53015Y-28789D01*
X53014Y-28940D01*
X52855Y-28940D01*
X52699Y-29004D01*
X52579Y-29123D01*
X52515Y-29279D01*
X52514Y-29448D01*
X52579Y-29604D01*
X52698Y-29723D01*
X52854Y-29788D01*
X53016Y-29788D01*
X53013Y-29940D01*
X52855Y-29940D01*
X52699Y-30004D01*
X52579Y-30123D01*
X52515Y-30279D01*
X52514Y-30448D01*
X52579Y-30604D01*
X52698Y-30723D01*
X52854Y-30788D01*
X53015Y-30788D01*
X53014Y-30941D01*
X52862Y-30938D01*
X52705Y-31000D01*
X52692Y-31009D01*
X52669Y-31081D01*
X52938Y-31351D01*
X52944Y-31345D01*
X52957Y-31358D01*
X52951Y-31364D01*
X52957Y-31369D01*
X52944Y-31382D01*
X52938Y-31376D01*
X52926Y-31389D01*
X52926Y-31364D01*
X52656Y-31094D01*
X52583Y-31117D01*
X52516Y-31272D01*
X52513Y-31440D01*
X52575Y-31597D01*
X52583Y-31610D01*
X52656Y-31633D01*
X52926Y-31364D01*
X52926Y-31389D01*
X52669Y-31646D01*
X52692Y-31719D01*
X52846Y-31786D01*
X53015Y-31789D01*
X53014Y-31940D01*
X52855Y-31940D01*
X52699Y-32004D01*
X52579Y-32123D01*
X52515Y-32279D01*
X52514Y-32448D01*
X52579Y-32604D01*
X52698Y-32723D01*
X52854Y-32788D01*
X53015Y-32788D01*
X53014Y-32941D01*
X52862Y-32938D01*
X52705Y-33000D01*
X52692Y-33009D01*
X52669Y-33081D01*
X52938Y-33351D01*
X52944Y-33345D01*
X52957Y-33358D01*
X52951Y-33364D01*
X53221Y-33633D01*
X53293Y-33610D01*
X53361Y-33456D01*
X53364Y-33288D01*
X53522Y-33288D01*
X53678Y-33223D01*
X53774Y-33128D01*
X53750Y-54863D01*
X53729Y-54796D01*
X53613Y-54746D01*
X53613Y-34057D01*
X53569Y-33952D01*
X53489Y-33871D01*
X53383Y-33828D01*
X53270Y-33827D01*
X53208Y-33853D01*
X53208Y-33646D01*
X52938Y-33376D01*
X52926Y-33389D01*
X52926Y-33364D01*
X52656Y-33094D01*
X52583Y-33117D01*
X52516Y-33272D01*
X52513Y-33440D01*
X52575Y-33597D01*
X52583Y-33610D01*
X52656Y-33633D01*
X52926Y-33364D01*
X52926Y-33389D01*
X52669Y-33646D01*
X52692Y-33719D01*
X52846Y-33786D01*
X53015Y-33789D01*
X53172Y-33727D01*
X53185Y-33719D01*
X53208Y-33646D01*
X53208Y-33853D01*
X53164Y-33871D01*
X53084Y-33951D01*
X53040Y-34056D01*
X53040Y-34170D01*
X53083Y-34276D01*
X53164Y-34356D01*
X53269Y-34400D01*
X53383Y-34400D01*
X53488Y-34356D01*
X53569Y-34276D01*
X53612Y-34171D01*
X53613Y-34057D01*
X53613Y-54746D01*
X53574Y-54729D01*
X53406Y-54726D01*
X53406Y-54567D01*
X53341Y-54411D01*
X53222Y-54292D01*
X53066Y-54227D01*
X52898Y-54227D01*
X52742Y-54291D01*
X52623Y-54411D01*
X52558Y-54566D01*
X52558Y-54727D01*
X52406Y-54727D01*
X52406Y-54567D01*
X52341Y-54411D01*
X52222Y-54292D01*
X52066Y-54227D01*
X51898Y-54227D01*
X51821Y-54259D01*
X51821Y-34096D01*
X51778Y-33991D01*
X51742Y-33956D01*
X51742Y-32049D01*
X51699Y-31944D01*
X51619Y-31863D01*
X51513Y-31820D01*
X51400Y-31820D01*
X51294Y-31863D01*
X51250Y-31907D01*
X51250Y-30396D01*
X51207Y-30290D01*
X51182Y-30265D01*
X51187Y-30260D01*
X51231Y-30155D01*
X51231Y-30041D01*
X51187Y-29936D01*
X51107Y-29855D01*
X51002Y-29812D01*
X50975Y-29812D01*
X50975Y-27010D01*
X50931Y-26905D01*
X50851Y-26824D01*
X50746Y-26780D01*
X50632Y-26780D01*
X50527Y-26824D01*
X50446Y-26904D01*
X50402Y-27009D01*
X50402Y-27123D01*
X50446Y-27228D01*
X50526Y-27309D01*
X50631Y-27353D01*
X50745Y-27353D01*
X50850Y-27309D01*
X50931Y-27229D01*
X50975Y-27124D01*
X50975Y-27010D01*
X50975Y-29812D01*
X50888Y-29812D01*
X50782Y-29855D01*
X50702Y-29936D01*
X50658Y-30041D01*
X50658Y-30155D01*
X50702Y-30260D01*
X50727Y-30285D01*
X50722Y-30290D01*
X50678Y-30395D01*
X50678Y-30509D01*
X50721Y-30614D01*
X50802Y-30695D01*
X50907Y-30738D01*
X51021Y-30739D01*
X51126Y-30695D01*
X51207Y-30615D01*
X51250Y-30509D01*
X51250Y-30396D01*
X51250Y-31907D01*
X51214Y-31943D01*
X51170Y-32049D01*
X51170Y-32162D01*
X51199Y-32234D01*
X51155Y-32278D01*
X51111Y-32383D01*
X51111Y-32497D01*
X51154Y-32602D01*
X51235Y-32683D01*
X51340Y-32727D01*
X51454Y-32727D01*
X51559Y-32683D01*
X51640Y-32603D01*
X51683Y-32498D01*
X51683Y-32384D01*
X51654Y-32313D01*
X51699Y-32268D01*
X51742Y-32163D01*
X51742Y-32049D01*
X51742Y-33956D01*
X51697Y-33911D01*
X51592Y-33867D01*
X51478Y-33867D01*
X51373Y-33910D01*
X51292Y-33991D01*
X51249Y-34096D01*
X51249Y-34210D01*
X51292Y-34315D01*
X51373Y-34396D01*
X51478Y-34439D01*
X51592Y-34439D01*
X51697Y-34396D01*
X51777Y-34315D01*
X51821Y-34210D01*
X51821Y-34096D01*
X51821Y-54259D01*
X51742Y-54291D01*
X51623Y-54411D01*
X51605Y-54454D01*
X51605Y-46911D01*
X51561Y-46806D01*
X51481Y-46725D01*
X51376Y-46682D01*
X51262Y-46682D01*
X51156Y-46725D01*
X51076Y-46806D01*
X51042Y-46887D01*
X51021Y-46879D01*
X50907Y-46879D01*
X50837Y-46908D01*
X50837Y-45809D01*
X50793Y-45704D01*
X50713Y-45623D01*
X50620Y-45585D01*
X50620Y-45553D01*
X50577Y-45448D01*
X50496Y-45367D01*
X50483Y-45361D01*
X50483Y-30081D01*
X50439Y-29975D01*
X50359Y-29895D01*
X50254Y-29851D01*
X50140Y-29851D01*
X50034Y-29895D01*
X49954Y-29975D01*
X49931Y-30029D01*
X49931Y-25888D01*
X49888Y-25782D01*
X49808Y-25702D01*
X49702Y-25658D01*
X49588Y-25658D01*
X49483Y-25702D01*
X49403Y-25782D01*
X49359Y-25887D01*
X49359Y-26001D01*
X49402Y-26106D01*
X49483Y-26187D01*
X49588Y-26231D01*
X49702Y-26231D01*
X49807Y-26187D01*
X49888Y-26107D01*
X49931Y-26002D01*
X49931Y-25888D01*
X49931Y-30029D01*
X49910Y-30080D01*
X49910Y-30194D01*
X49951Y-30293D01*
X49934Y-30310D01*
X49890Y-30415D01*
X49890Y-30529D01*
X49934Y-30634D01*
X50014Y-30714D01*
X50119Y-30758D01*
X50233Y-30758D01*
X50339Y-30715D01*
X50419Y-30634D01*
X50463Y-30529D01*
X50463Y-30415D01*
X50422Y-30316D01*
X50439Y-30300D01*
X50483Y-30194D01*
X50483Y-30081D01*
X50483Y-45361D01*
X50391Y-45324D01*
X50277Y-45323D01*
X50172Y-45367D01*
X50092Y-45447D01*
X50048Y-45553D01*
X50048Y-45666D01*
X50091Y-45772D01*
X50172Y-45852D01*
X50264Y-45891D01*
X50264Y-45922D01*
X50308Y-46028D01*
X50388Y-46108D01*
X50493Y-46152D01*
X50607Y-46152D01*
X50713Y-46108D01*
X50793Y-46028D01*
X50837Y-45923D01*
X50837Y-45809D01*
X50837Y-46908D01*
X50802Y-46922D01*
X50722Y-47003D01*
X50688Y-47084D01*
X50667Y-47076D01*
X50553Y-47075D01*
X50542Y-47080D01*
X50542Y-46596D01*
X50498Y-46491D01*
X50418Y-46411D01*
X50313Y-46367D01*
X50199Y-46367D01*
X50093Y-46410D01*
X50013Y-46491D01*
X49971Y-46592D01*
X49971Y-33585D01*
X49927Y-33479D01*
X49902Y-33454D01*
X49907Y-33449D01*
X49951Y-33344D01*
X49951Y-33230D01*
X49908Y-33125D01*
X49827Y-33044D01*
X49722Y-33001D01*
X49608Y-33001D01*
X49503Y-33044D01*
X49422Y-33125D01*
X49379Y-33230D01*
X49379Y-33344D01*
X49422Y-33449D01*
X49447Y-33474D01*
X49442Y-33479D01*
X49398Y-33584D01*
X49398Y-33698D01*
X49442Y-33803D01*
X49522Y-33884D01*
X49627Y-33927D01*
X49741Y-33928D01*
X49846Y-33884D01*
X49927Y-33804D01*
X49971Y-33698D01*
X49971Y-33585D01*
X49971Y-46592D01*
X49969Y-46596D01*
X49969Y-46710D01*
X50013Y-46815D01*
X50093Y-46896D01*
X50198Y-46939D01*
X50312Y-46939D01*
X50417Y-46896D01*
X50498Y-46815D01*
X50542Y-46710D01*
X50542Y-46596D01*
X50542Y-47080D01*
X50448Y-47119D01*
X50367Y-47199D01*
X50324Y-47305D01*
X50323Y-47418D01*
X50367Y-47524D01*
X50447Y-47604D01*
X50553Y-47648D01*
X50666Y-47648D01*
X50772Y-47604D01*
X50852Y-47524D01*
X50886Y-47442D01*
X50907Y-47451D01*
X51021Y-47451D01*
X51126Y-47408D01*
X51207Y-47327D01*
X51240Y-47246D01*
X51261Y-47254D01*
X51375Y-47254D01*
X51480Y-47211D01*
X51561Y-47130D01*
X51605Y-47025D01*
X51605Y-46911D01*
X51605Y-54454D01*
X51558Y-54566D01*
X51558Y-54727D01*
X51406Y-54727D01*
X51406Y-54567D01*
X51341Y-54411D01*
X51222Y-54292D01*
X51066Y-54227D01*
X50898Y-54227D01*
X50742Y-54291D01*
X50623Y-54411D01*
X50558Y-54566D01*
X50558Y-54727D01*
X50406Y-54727D01*
X50406Y-54567D01*
X50341Y-54411D01*
X50222Y-54292D01*
X50066Y-54227D01*
X49898Y-54227D01*
X49742Y-54291D01*
X49715Y-54318D01*
X49715Y-47581D01*
X49671Y-47475D01*
X49591Y-47395D01*
X49557Y-47381D01*
X49557Y-46340D01*
X49514Y-46235D01*
X49433Y-46155D01*
X49401Y-46141D01*
X49433Y-46128D01*
X49514Y-46048D01*
X49557Y-45943D01*
X49557Y-45829D01*
X49514Y-45723D01*
X49433Y-45643D01*
X49328Y-45599D01*
X49222Y-45599D01*
X49276Y-45577D01*
X49356Y-45496D01*
X49400Y-45391D01*
X49400Y-45277D01*
X49356Y-45172D01*
X49276Y-45092D01*
X49223Y-45070D01*
X49223Y-28073D01*
X49179Y-27968D01*
X49099Y-27887D01*
X48994Y-27843D01*
X48880Y-27843D01*
X48775Y-27887D01*
X48694Y-27967D01*
X48650Y-28072D01*
X48650Y-28186D01*
X48694Y-28291D01*
X48774Y-28372D01*
X48879Y-28416D01*
X48993Y-28416D01*
X49098Y-28372D01*
X49179Y-28292D01*
X49223Y-28187D01*
X49223Y-28073D01*
X49223Y-45070D01*
X49171Y-45048D01*
X49136Y-45048D01*
X49136Y-43593D01*
X49092Y-43488D01*
X49012Y-43407D01*
X48907Y-43363D01*
X48793Y-43363D01*
X48688Y-43407D01*
X48607Y-43487D01*
X48586Y-43538D01*
X48586Y-37893D01*
X48542Y-37788D01*
X48536Y-37781D01*
X48536Y-36493D01*
X48534Y-36488D01*
X48534Y-33191D01*
X48490Y-33086D01*
X48473Y-33068D01*
X48514Y-32970D01*
X48514Y-32856D01*
X48471Y-32751D01*
X48465Y-32746D01*
X48490Y-32721D01*
X48534Y-32616D01*
X48534Y-32502D01*
X48490Y-32397D01*
X48410Y-32316D01*
X48305Y-32272D01*
X48191Y-32272D01*
X48086Y-32316D01*
X48005Y-32396D01*
X47961Y-32501D01*
X47961Y-32615D01*
X48005Y-32720D01*
X48010Y-32726D01*
X47985Y-32751D01*
X47942Y-32856D01*
X47942Y-32970D01*
X47985Y-33075D01*
X48002Y-33092D01*
X47961Y-33190D01*
X47961Y-33304D01*
X47998Y-33394D01*
X47994Y-33394D01*
X47889Y-33438D01*
X47877Y-33449D01*
X47846Y-33436D01*
X47846Y-22185D01*
X47576Y-21916D01*
X47307Y-22185D01*
X47330Y-22258D01*
X47484Y-22325D01*
X47653Y-22329D01*
X47810Y-22267D01*
X47823Y-22258D01*
X47846Y-22185D01*
X47846Y-33436D01*
X47793Y-33414D01*
X47679Y-33414D01*
X47609Y-33443D01*
X47609Y-29431D01*
X47565Y-29326D01*
X47485Y-29245D01*
X47380Y-29202D01*
X47266Y-29201D01*
X47160Y-29245D01*
X47080Y-29325D01*
X47036Y-29431D01*
X47036Y-29544D01*
X47080Y-29650D01*
X47160Y-29730D01*
X47265Y-29774D01*
X47379Y-29774D01*
X47484Y-29730D01*
X47565Y-29650D01*
X47609Y-29545D01*
X47609Y-29431D01*
X47609Y-33443D01*
X47589Y-33451D01*
X47589Y-33112D01*
X47545Y-33007D01*
X47465Y-32926D01*
X47360Y-32883D01*
X47264Y-32883D01*
X47235Y-32853D01*
X47235Y-32403D01*
X47191Y-32298D01*
X47111Y-32218D01*
X47006Y-32174D01*
X46892Y-32174D01*
X46786Y-32217D01*
X46706Y-32298D01*
X46673Y-32378D01*
X46640Y-32298D01*
X46559Y-32218D01*
X46454Y-32174D01*
X46340Y-32174D01*
X46235Y-32217D01*
X46211Y-32242D01*
X46211Y-22837D01*
X46167Y-22731D01*
X46087Y-22651D01*
X45982Y-22607D01*
X45868Y-22607D01*
X45763Y-22650D01*
X45682Y-22731D01*
X45639Y-22836D01*
X45638Y-22950D01*
X45682Y-23055D01*
X45762Y-23136D01*
X45868Y-23179D01*
X45981Y-23179D01*
X46087Y-23136D01*
X46167Y-23056D01*
X46211Y-22950D01*
X46211Y-22837D01*
X46211Y-32242D01*
X46155Y-32298D01*
X46111Y-32403D01*
X46111Y-32517D01*
X46154Y-32622D01*
X46235Y-32703D01*
X46340Y-32746D01*
X46454Y-32746D01*
X46559Y-32703D01*
X46640Y-32622D01*
X46673Y-32543D01*
X46706Y-32622D01*
X46786Y-32703D01*
X46891Y-32746D01*
X47005Y-32746D01*
X47110Y-32703D01*
X47191Y-32622D01*
X47234Y-32517D01*
X47235Y-32403D01*
X47235Y-32853D01*
X47189Y-32808D01*
X47084Y-32765D01*
X46970Y-32764D01*
X46865Y-32808D01*
X46785Y-32888D01*
X46741Y-32993D01*
X46741Y-33107D01*
X46784Y-33213D01*
X46849Y-33277D01*
X46804Y-33321D01*
X46761Y-33427D01*
X46760Y-33540D01*
X46804Y-33646D01*
X46884Y-33726D01*
X46990Y-33770D01*
X47103Y-33770D01*
X47209Y-33727D01*
X47289Y-33646D01*
X47333Y-33541D01*
X47333Y-33455D01*
X47359Y-33455D01*
X47465Y-33412D01*
X47545Y-33331D01*
X47589Y-33226D01*
X47589Y-33112D01*
X47589Y-33451D01*
X47574Y-33458D01*
X47493Y-33538D01*
X47450Y-33643D01*
X47449Y-33757D01*
X47493Y-33862D01*
X47573Y-33943D01*
X47679Y-33986D01*
X47792Y-33987D01*
X47898Y-33943D01*
X47909Y-33932D01*
X47925Y-33938D01*
X47849Y-33969D01*
X47769Y-34050D01*
X47725Y-34155D01*
X47725Y-34269D01*
X47731Y-34284D01*
X47731Y-34284D01*
X47651Y-34365D01*
X47607Y-34470D01*
X47607Y-34575D01*
X47600Y-34575D01*
X47495Y-34619D01*
X47414Y-34699D01*
X47371Y-34805D01*
X47371Y-34918D01*
X47414Y-35024D01*
X47495Y-35104D01*
X47600Y-35148D01*
X47714Y-35148D01*
X47819Y-35104D01*
X47899Y-35024D01*
X47943Y-34919D01*
X47943Y-34813D01*
X47950Y-34813D01*
X48055Y-34770D01*
X48136Y-34689D01*
X48179Y-34584D01*
X48179Y-34470D01*
X48173Y-34455D01*
X48173Y-34455D01*
X48254Y-34374D01*
X48297Y-34269D01*
X48298Y-34155D01*
X48254Y-34050D01*
X48174Y-33970D01*
X48137Y-33955D01*
X48213Y-33923D01*
X48293Y-33843D01*
X48337Y-33738D01*
X48337Y-33624D01*
X48300Y-33534D01*
X48304Y-33534D01*
X48409Y-33490D01*
X48490Y-33410D01*
X48534Y-33305D01*
X48534Y-33191D01*
X48534Y-36488D01*
X48492Y-36388D01*
X48412Y-36307D01*
X48307Y-36263D01*
X48193Y-36263D01*
X48088Y-36307D01*
X48007Y-36387D01*
X47963Y-36492D01*
X47963Y-36606D01*
X48007Y-36711D01*
X48087Y-36792D01*
X48192Y-36836D01*
X48306Y-36836D01*
X48411Y-36792D01*
X48492Y-36712D01*
X48536Y-36607D01*
X48536Y-36493D01*
X48536Y-37781D01*
X48462Y-37707D01*
X48357Y-37663D01*
X48243Y-37663D01*
X48138Y-37707D01*
X48057Y-37787D01*
X48013Y-37892D01*
X48013Y-38006D01*
X48057Y-38111D01*
X48137Y-38192D01*
X48242Y-38236D01*
X48356Y-38236D01*
X48461Y-38192D01*
X48542Y-38112D01*
X48586Y-38007D01*
X48586Y-37893D01*
X48586Y-43538D01*
X48563Y-43592D01*
X48563Y-43706D01*
X48607Y-43811D01*
X48687Y-43892D01*
X48792Y-43936D01*
X48906Y-43936D01*
X49011Y-43892D01*
X49092Y-43812D01*
X49136Y-43707D01*
X49136Y-43593D01*
X49136Y-45048D01*
X49057Y-45048D01*
X48952Y-45091D01*
X48871Y-45172D01*
X48828Y-45277D01*
X48827Y-45391D01*
X48871Y-45496D01*
X48951Y-45577D01*
X49056Y-45620D01*
X49163Y-45620D01*
X49109Y-45643D01*
X49029Y-45723D01*
X48985Y-45828D01*
X48985Y-45942D01*
X49028Y-46047D01*
X49109Y-46128D01*
X49141Y-46141D01*
X49109Y-46154D01*
X49029Y-46235D01*
X48985Y-46340D01*
X48985Y-46454D01*
X49028Y-46559D01*
X49109Y-46640D01*
X49214Y-46683D01*
X49328Y-46683D01*
X49433Y-46640D01*
X49514Y-46559D01*
X49557Y-46454D01*
X49557Y-46340D01*
X49557Y-47381D01*
X49486Y-47351D01*
X49372Y-47351D01*
X49267Y-47395D01*
X49186Y-47475D01*
X49142Y-47580D01*
X49142Y-47694D01*
X49186Y-47799D01*
X49266Y-47880D01*
X49371Y-47923D01*
X49485Y-47924D01*
X49591Y-47880D01*
X49671Y-47800D01*
X49715Y-47694D01*
X49715Y-47581D01*
X49715Y-54318D01*
X49623Y-54411D01*
X49558Y-54566D01*
X49558Y-54727D01*
X49406Y-54727D01*
X49406Y-54567D01*
X49341Y-54411D01*
X49222Y-54292D01*
X49183Y-54276D01*
X49183Y-51714D01*
X49140Y-51609D01*
X49059Y-51529D01*
X48954Y-51485D01*
X48840Y-51485D01*
X48840Y-51485D01*
X48864Y-51461D01*
X48908Y-51356D01*
X48908Y-51335D01*
X48980Y-51305D01*
X49061Y-51225D01*
X49105Y-51120D01*
X49105Y-51006D01*
X49061Y-50901D01*
X48981Y-50820D01*
X48876Y-50776D01*
X48820Y-50776D01*
X48825Y-50772D01*
X48865Y-50676D01*
X48961Y-50636D01*
X49041Y-50556D01*
X49085Y-50450D01*
X49085Y-50337D01*
X49041Y-50231D01*
X48961Y-50151D01*
X48856Y-50107D01*
X48801Y-50107D01*
X48805Y-50103D01*
X48843Y-50010D01*
X48855Y-50010D01*
X48961Y-49967D01*
X49041Y-49886D01*
X49085Y-49781D01*
X49085Y-49667D01*
X49041Y-49562D01*
X48961Y-49481D01*
X48856Y-49438D01*
X48742Y-49438D01*
X48708Y-49452D01*
X48746Y-49414D01*
X48784Y-49321D01*
X48796Y-49321D01*
X48902Y-49278D01*
X48982Y-49197D01*
X49026Y-49092D01*
X49026Y-48978D01*
X48982Y-48873D01*
X48902Y-48792D01*
X48797Y-48749D01*
X48702Y-48749D01*
X48707Y-48745D01*
X48745Y-48652D01*
X48757Y-48652D01*
X48862Y-48608D01*
X48943Y-48528D01*
X48986Y-48423D01*
X48987Y-48309D01*
X48943Y-48204D01*
X48863Y-48123D01*
X48757Y-48079D01*
X48644Y-48079D01*
X48538Y-48123D01*
X48528Y-48134D01*
X48528Y-40154D01*
X48493Y-40070D01*
X48429Y-40006D01*
X48345Y-39971D01*
X48254Y-39971D01*
X48186Y-40000D01*
X48186Y-39493D01*
X48142Y-39388D01*
X48062Y-39307D01*
X47957Y-39263D01*
X47843Y-39263D01*
X47738Y-39307D01*
X47657Y-39387D01*
X47613Y-39492D01*
X47613Y-39606D01*
X47657Y-39711D01*
X47737Y-39792D01*
X47842Y-39836D01*
X47956Y-39836D01*
X48061Y-39792D01*
X48142Y-39712D01*
X48186Y-39607D01*
X48186Y-39493D01*
X48186Y-40000D01*
X48170Y-40006D01*
X48106Y-40070D01*
X48071Y-40154D01*
X48071Y-40245D01*
X48106Y-40329D01*
X48170Y-40393D01*
X48254Y-40428D01*
X48345Y-40428D01*
X48429Y-40393D01*
X48493Y-40329D01*
X48528Y-40245D01*
X48528Y-40154D01*
X48528Y-48134D01*
X48458Y-48203D01*
X48419Y-48296D01*
X48407Y-48296D01*
X48302Y-48339D01*
X48222Y-48420D01*
X48219Y-48426D01*
X48219Y-44490D01*
X48175Y-44385D01*
X48095Y-44304D01*
X48078Y-44297D01*
X48078Y-40654D01*
X48043Y-40570D01*
X47979Y-40506D01*
X47895Y-40471D01*
X47804Y-40471D01*
X47720Y-40506D01*
X47656Y-40570D01*
X47656Y-40571D01*
X47604Y-40571D01*
X47595Y-40575D01*
X47593Y-40570D01*
X47529Y-40506D01*
X47445Y-40471D01*
X47354Y-40471D01*
X47270Y-40506D01*
X47206Y-40570D01*
X47171Y-40654D01*
X47171Y-40745D01*
X47206Y-40829D01*
X47270Y-40893D01*
X47354Y-40928D01*
X47445Y-40928D01*
X47454Y-40924D01*
X47456Y-40929D01*
X47520Y-40993D01*
X47604Y-41028D01*
X47695Y-41028D01*
X47779Y-40993D01*
X47843Y-40929D01*
X47843Y-40928D01*
X47895Y-40928D01*
X47979Y-40893D01*
X48043Y-40829D01*
X48078Y-40745D01*
X48078Y-40654D01*
X48078Y-44297D01*
X47990Y-44261D01*
X47876Y-44260D01*
X47771Y-44304D01*
X47690Y-44384D01*
X47646Y-44490D01*
X47646Y-44586D01*
X47613Y-44599D01*
X47533Y-44680D01*
X47489Y-44785D01*
X47489Y-44873D01*
X47436Y-44895D01*
X47355Y-44975D01*
X47312Y-45080D01*
X47312Y-45156D01*
X47236Y-45156D01*
X47131Y-45200D01*
X47077Y-45253D01*
X47077Y-34667D01*
X47034Y-34562D01*
X46953Y-34481D01*
X46848Y-34438D01*
X46734Y-34438D01*
X46629Y-34481D01*
X46548Y-34562D01*
X46505Y-34667D01*
X46505Y-34781D01*
X46548Y-34886D01*
X46628Y-34966D01*
X46734Y-35010D01*
X46848Y-35010D01*
X46953Y-34967D01*
X47033Y-34886D01*
X47077Y-34781D01*
X47077Y-34667D01*
X47077Y-45253D01*
X47050Y-45280D01*
X47007Y-45385D01*
X47007Y-45499D01*
X47050Y-45604D01*
X47130Y-45685D01*
X47236Y-45729D01*
X47349Y-45729D01*
X47455Y-45685D01*
X47535Y-45605D01*
X47579Y-45500D01*
X47579Y-45423D01*
X47655Y-45424D01*
X47760Y-45380D01*
X47840Y-45300D01*
X47884Y-45194D01*
X47884Y-45107D01*
X47937Y-45085D01*
X48018Y-45004D01*
X48061Y-44899D01*
X48061Y-44803D01*
X48094Y-44790D01*
X48175Y-44709D01*
X48219Y-44604D01*
X48219Y-44490D01*
X48219Y-48426D01*
X48182Y-48516D01*
X48086Y-48556D01*
X48005Y-48636D01*
X47961Y-48742D01*
X47961Y-48855D01*
X48005Y-48961D01*
X48085Y-49041D01*
X48190Y-49085D01*
X48265Y-49085D01*
X48261Y-49089D01*
X48217Y-49194D01*
X48217Y-49226D01*
X48125Y-49265D01*
X48044Y-49345D01*
X48001Y-49450D01*
X48001Y-49564D01*
X48044Y-49669D01*
X48125Y-49750D01*
X48230Y-49794D01*
X48314Y-49794D01*
X48276Y-49883D01*
X48276Y-49904D01*
X48204Y-49934D01*
X48123Y-50014D01*
X48079Y-50119D01*
X48079Y-50233D01*
X48123Y-50339D01*
X48203Y-50419D01*
X48308Y-50463D01*
X48333Y-50463D01*
X48301Y-50540D01*
X48289Y-50540D01*
X48184Y-50583D01*
X48103Y-50664D01*
X48060Y-50769D01*
X48060Y-50883D01*
X48103Y-50988D01*
X48184Y-51069D01*
X48289Y-51112D01*
X48403Y-51113D01*
X48403Y-51112D01*
X48379Y-51136D01*
X48335Y-51242D01*
X48335Y-51262D01*
X48263Y-51292D01*
X48182Y-51373D01*
X48139Y-51478D01*
X48138Y-51592D01*
X48182Y-51697D01*
X48262Y-51777D01*
X48368Y-51821D01*
X48481Y-51821D01*
X48587Y-51778D01*
X48611Y-51753D01*
X48611Y-51828D01*
X48654Y-51933D01*
X48735Y-52014D01*
X48840Y-52057D01*
X48954Y-52057D01*
X49059Y-52014D01*
X49140Y-51933D01*
X49183Y-51828D01*
X49183Y-51714D01*
X49183Y-54276D01*
X49066Y-54227D01*
X48898Y-54227D01*
X48742Y-54291D01*
X48623Y-54411D01*
X48558Y-54566D01*
X48558Y-54727D01*
X48406Y-54727D01*
X48406Y-54567D01*
X48341Y-54411D01*
X48222Y-54292D01*
X48066Y-54227D01*
X47898Y-54227D01*
X47742Y-54291D01*
X47623Y-54411D01*
X47558Y-54566D01*
X47558Y-54727D01*
X47406Y-54727D01*
X47406Y-54567D01*
X47341Y-54411D01*
X47222Y-54292D01*
X47066Y-54227D01*
X46898Y-54227D01*
X46802Y-54267D01*
X46802Y-43683D01*
X46758Y-43578D01*
X46678Y-43497D01*
X46572Y-43453D01*
X46459Y-43453D01*
X46353Y-43497D01*
X46303Y-43547D01*
X46303Y-40979D01*
X46268Y-40895D01*
X46204Y-40831D01*
X46186Y-40824D01*
X46186Y-39493D01*
X46142Y-39388D01*
X46062Y-39307D01*
X46014Y-39287D01*
X46014Y-30100D01*
X45971Y-29995D01*
X45890Y-29914D01*
X45837Y-29892D01*
X45837Y-29490D01*
X45793Y-29385D01*
X45713Y-29304D01*
X45608Y-29261D01*
X45601Y-29261D01*
X45601Y-29155D01*
X45557Y-29050D01*
X45522Y-29015D01*
X45557Y-28981D01*
X45601Y-28876D01*
X45601Y-28762D01*
X45557Y-28656D01*
X45477Y-28576D01*
X45372Y-28532D01*
X45258Y-28532D01*
X45153Y-28576D01*
X45072Y-28656D01*
X45028Y-28761D01*
X45028Y-28875D01*
X45072Y-28980D01*
X45107Y-29015D01*
X45072Y-29050D01*
X45028Y-29155D01*
X45028Y-29269D01*
X45072Y-29374D01*
X45152Y-29455D01*
X45257Y-29498D01*
X45265Y-29498D01*
X45264Y-29603D01*
X45308Y-29709D01*
X45388Y-29789D01*
X45493Y-29833D01*
X45607Y-29833D01*
X45713Y-29790D01*
X45793Y-29709D01*
X45837Y-29604D01*
X45837Y-29490D01*
X45837Y-29892D01*
X45785Y-29871D01*
X45671Y-29871D01*
X45566Y-29914D01*
X45485Y-29995D01*
X45442Y-30100D01*
X45442Y-30214D01*
X45485Y-30319D01*
X45566Y-30399D01*
X45671Y-30443D01*
X45785Y-30443D01*
X45890Y-30400D01*
X45970Y-30319D01*
X46014Y-30214D01*
X46014Y-30100D01*
X46014Y-39287D01*
X45957Y-39263D01*
X45956Y-39263D01*
X45956Y-37367D01*
X45956Y-36581D01*
X45956Y-35005D01*
X45956Y-34219D01*
X45930Y-34157D01*
X45883Y-34110D01*
X45821Y-34084D01*
X45778Y-34084D01*
X45778Y-32935D01*
X45734Y-32830D01*
X45654Y-32749D01*
X45640Y-32743D01*
X45640Y-30809D01*
X45597Y-30704D01*
X45516Y-30623D01*
X45411Y-30579D01*
X45297Y-30579D01*
X45192Y-30623D01*
X45111Y-30703D01*
X45068Y-30808D01*
X45068Y-30922D01*
X45111Y-31028D01*
X45191Y-31108D01*
X45297Y-31152D01*
X45411Y-31152D01*
X45516Y-31108D01*
X45596Y-31028D01*
X45640Y-30923D01*
X45640Y-30809D01*
X45640Y-32743D01*
X45549Y-32705D01*
X45470Y-32705D01*
X45476Y-32703D01*
X45557Y-32622D01*
X45601Y-32517D01*
X45601Y-32403D01*
X45557Y-32298D01*
X45477Y-32218D01*
X45372Y-32174D01*
X45258Y-32174D01*
X45227Y-32187D01*
X45227Y-32148D01*
X45183Y-32042D01*
X45103Y-31962D01*
X44998Y-31918D01*
X44884Y-31918D01*
X44779Y-31961D01*
X44698Y-32042D01*
X44654Y-32147D01*
X44654Y-32261D01*
X44698Y-32366D01*
X44778Y-32447D01*
X44883Y-32490D01*
X44997Y-32490D01*
X45028Y-32478D01*
X45028Y-32517D01*
X45072Y-32622D01*
X45152Y-32703D01*
X45257Y-32746D01*
X45336Y-32746D01*
X45330Y-32749D01*
X45249Y-32829D01*
X45205Y-32934D01*
X45205Y-33048D01*
X45249Y-33154D01*
X45329Y-33234D01*
X45434Y-33278D01*
X45548Y-33278D01*
X45654Y-33234D01*
X45734Y-33154D01*
X45778Y-33049D01*
X45778Y-32935D01*
X45778Y-34084D01*
X45754Y-34084D01*
X45594Y-34084D01*
X45550Y-34102D01*
X45506Y-34084D01*
X45439Y-34084D01*
X45326Y-34084D01*
X45326Y-33904D01*
X45326Y-33589D01*
X45300Y-33527D01*
X45253Y-33480D01*
X45191Y-33454D01*
X45124Y-33454D01*
X44964Y-33454D01*
X44902Y-33480D01*
X44855Y-33527D01*
X44829Y-33589D01*
X44829Y-33656D01*
X44829Y-33971D01*
X44829Y-34477D01*
X44540Y-34477D01*
X44540Y-33904D01*
X44540Y-33589D01*
X44514Y-33527D01*
X44467Y-33480D01*
X44405Y-33454D01*
X44338Y-33454D01*
X44242Y-33454D01*
X44242Y-27482D01*
X44199Y-27377D01*
X44119Y-27296D01*
X44013Y-27253D01*
X44006Y-27253D01*
X44006Y-23742D01*
X43963Y-23637D01*
X43882Y-23556D01*
X43777Y-23513D01*
X43663Y-23512D01*
X43558Y-23556D01*
X43477Y-23636D01*
X43434Y-23742D01*
X43434Y-23855D01*
X43477Y-23961D01*
X43558Y-24041D01*
X43663Y-24085D01*
X43777Y-24085D01*
X43882Y-24041D01*
X43962Y-23961D01*
X44006Y-23856D01*
X44006Y-23742D01*
X44006Y-27253D01*
X43900Y-27253D01*
X43856Y-27270D01*
X43823Y-27237D01*
X43718Y-27194D01*
X43604Y-27194D01*
X43499Y-27237D01*
X43418Y-27317D01*
X43375Y-27423D01*
X43375Y-27536D01*
X43418Y-27642D01*
X43499Y-27722D01*
X43604Y-27766D01*
X43718Y-27766D01*
X43761Y-27748D01*
X43794Y-27781D01*
X43899Y-27825D01*
X44013Y-27825D01*
X44118Y-27782D01*
X44199Y-27701D01*
X44242Y-27596D01*
X44242Y-27482D01*
X44242Y-33454D01*
X44178Y-33454D01*
X44116Y-33480D01*
X44069Y-33527D01*
X44043Y-33589D01*
X44043Y-33656D01*
X44043Y-33971D01*
X44043Y-34084D01*
X44023Y-34084D01*
X43863Y-34084D01*
X43819Y-34102D01*
X43775Y-34084D01*
X43708Y-34084D01*
X43691Y-34084D01*
X43691Y-33525D01*
X43648Y-33420D01*
X43567Y-33340D01*
X43462Y-33296D01*
X43435Y-33296D01*
X43435Y-29431D01*
X43392Y-29326D01*
X43311Y-29245D01*
X43278Y-29231D01*
X43278Y-23821D01*
X43234Y-23716D01*
X43154Y-23635D01*
X43049Y-23591D01*
X42935Y-23591D01*
X42830Y-23635D01*
X42749Y-23715D01*
X42705Y-23820D01*
X42705Y-23934D01*
X42749Y-24039D01*
X42829Y-24120D01*
X42934Y-24164D01*
X43048Y-24164D01*
X43154Y-24120D01*
X43234Y-24040D01*
X43278Y-23935D01*
X43278Y-23821D01*
X43278Y-29231D01*
X43206Y-29202D01*
X43092Y-29201D01*
X42987Y-29245D01*
X42907Y-29325D01*
X42863Y-29431D01*
X42863Y-29443D01*
X42771Y-29481D01*
X42690Y-29562D01*
X42652Y-29654D01*
X42620Y-29654D01*
X42515Y-29698D01*
X42434Y-29778D01*
X42427Y-29795D01*
X42419Y-29792D01*
X42305Y-29792D01*
X42200Y-29835D01*
X42119Y-29916D01*
X42076Y-30021D01*
X42075Y-30135D01*
X42119Y-30240D01*
X42199Y-30321D01*
X42305Y-30364D01*
X42418Y-30365D01*
X42524Y-30321D01*
X42604Y-30241D01*
X42611Y-30223D01*
X42619Y-30227D01*
X42733Y-30227D01*
X42839Y-30183D01*
X42919Y-30103D01*
X42958Y-30010D01*
X42989Y-30010D01*
X43094Y-29967D01*
X43175Y-29886D01*
X43219Y-29781D01*
X43219Y-29769D01*
X43311Y-29730D01*
X43392Y-29650D01*
X43435Y-29545D01*
X43435Y-29431D01*
X43435Y-33296D01*
X43348Y-33296D01*
X43243Y-33339D01*
X43218Y-33364D01*
X43213Y-33359D01*
X43108Y-33316D01*
X42994Y-33316D01*
X42889Y-33359D01*
X42808Y-33440D01*
X42765Y-33545D01*
X42764Y-33659D01*
X42808Y-33764D01*
X42888Y-33844D01*
X42993Y-33888D01*
X43107Y-33888D01*
X43213Y-33845D01*
X43238Y-33820D01*
X43243Y-33825D01*
X43348Y-33868D01*
X43462Y-33868D01*
X43567Y-33825D01*
X43648Y-33745D01*
X43691Y-33639D01*
X43691Y-33525D01*
X43691Y-34084D01*
X43548Y-34084D01*
X43486Y-34110D01*
X43439Y-34157D01*
X43413Y-34219D01*
X43413Y-34286D01*
X43413Y-35072D01*
X43413Y-36648D01*
X43413Y-37434D01*
X43439Y-37495D01*
X43486Y-37543D01*
X43548Y-37568D01*
X43615Y-37568D01*
X43775Y-37568D01*
X43819Y-37550D01*
X43863Y-37568D01*
X43930Y-37568D01*
X44043Y-37568D01*
X44043Y-37749D01*
X44043Y-38064D01*
X44069Y-38125D01*
X44116Y-38173D01*
X44178Y-38198D01*
X44245Y-38198D01*
X44405Y-38198D01*
X44467Y-38173D01*
X44514Y-38126D01*
X44540Y-38064D01*
X44540Y-37997D01*
X44540Y-37682D01*
X44540Y-37175D01*
X44829Y-37175D01*
X44829Y-37749D01*
X44829Y-38064D01*
X44855Y-38125D01*
X44902Y-38173D01*
X44964Y-38198D01*
X45031Y-38198D01*
X45191Y-38198D01*
X45253Y-38173D01*
X45300Y-38126D01*
X45326Y-38064D01*
X45326Y-37997D01*
X45326Y-37682D01*
X45326Y-37568D01*
X45346Y-37568D01*
X45506Y-37568D01*
X45550Y-37550D01*
X45594Y-37568D01*
X45661Y-37568D01*
X45821Y-37568D01*
X45883Y-37543D01*
X45930Y-37496D01*
X45956Y-37434D01*
X45956Y-37367D01*
X45956Y-39263D01*
X45843Y-39263D01*
X45738Y-39307D01*
X45717Y-39328D01*
X45674Y-39285D01*
X45568Y-39241D01*
X45455Y-39241D01*
X45349Y-39284D01*
X45269Y-39365D01*
X45225Y-39470D01*
X45225Y-39584D01*
X45269Y-39689D01*
X45349Y-39770D01*
X45454Y-39813D01*
X45568Y-39813D01*
X45673Y-39770D01*
X45694Y-39749D01*
X45737Y-39792D01*
X45842Y-39836D01*
X45956Y-39836D01*
X46061Y-39792D01*
X46142Y-39712D01*
X46186Y-39607D01*
X46186Y-39493D01*
X46186Y-40824D01*
X46128Y-40800D01*
X46128Y-40729D01*
X46093Y-40645D01*
X46029Y-40581D01*
X45945Y-40546D01*
X45854Y-40546D01*
X45770Y-40581D01*
X45706Y-40645D01*
X45671Y-40729D01*
X45671Y-40820D01*
X45706Y-40904D01*
X45770Y-40968D01*
X45846Y-40999D01*
X45846Y-41070D01*
X45881Y-41154D01*
X45945Y-41218D01*
X46029Y-41253D01*
X46120Y-41253D01*
X46204Y-41218D01*
X46268Y-41154D01*
X46303Y-41070D01*
X46303Y-40979D01*
X46303Y-43547D01*
X46273Y-43577D01*
X46250Y-43631D01*
X46250Y-43545D01*
X46207Y-43440D01*
X46126Y-43359D01*
X46021Y-43316D01*
X45907Y-43316D01*
X45802Y-43359D01*
X45722Y-43440D01*
X45678Y-43545D01*
X45678Y-43659D01*
X45721Y-43764D01*
X45802Y-43844D01*
X45907Y-43888D01*
X46021Y-43888D01*
X46126Y-43845D01*
X46207Y-43764D01*
X46229Y-43710D01*
X46229Y-43796D01*
X46272Y-43902D01*
X46353Y-43982D01*
X46458Y-44026D01*
X46572Y-44026D01*
X46677Y-43982D01*
X46758Y-43902D01*
X46801Y-43797D01*
X46802Y-43683D01*
X46802Y-54267D01*
X46742Y-54291D01*
X46623Y-54411D01*
X46558Y-54566D01*
X46558Y-54727D01*
X46406Y-54727D01*
X46406Y-54567D01*
X46341Y-54411D01*
X46236Y-54305D01*
X46236Y-46843D01*
X46192Y-46738D01*
X46112Y-46657D01*
X46093Y-46649D01*
X46093Y-45356D01*
X46049Y-45251D01*
X45969Y-45170D01*
X45864Y-45127D01*
X45750Y-45127D01*
X45645Y-45170D01*
X45564Y-45251D01*
X45520Y-45356D01*
X45520Y-45470D01*
X45564Y-45575D01*
X45644Y-45655D01*
X45749Y-45699D01*
X45863Y-45699D01*
X45969Y-45656D01*
X46049Y-45575D01*
X46093Y-45470D01*
X46093Y-45356D01*
X46093Y-46649D01*
X46007Y-46613D01*
X45893Y-46613D01*
X45788Y-46657D01*
X45707Y-46737D01*
X45663Y-46842D01*
X45663Y-46921D01*
X45566Y-46961D01*
X45485Y-47042D01*
X45442Y-47147D01*
X45442Y-47261D01*
X45485Y-47366D01*
X45563Y-47445D01*
X45563Y-47556D01*
X45607Y-47661D01*
X45687Y-47742D01*
X45792Y-47786D01*
X45906Y-47786D01*
X46011Y-47742D01*
X46092Y-47662D01*
X46136Y-47557D01*
X46136Y-47443D01*
X46092Y-47338D01*
X46014Y-47259D01*
X46014Y-47183D01*
X46111Y-47142D01*
X46192Y-47062D01*
X46236Y-46957D01*
X46236Y-46843D01*
X46236Y-54305D01*
X46222Y-54292D01*
X46211Y-54287D01*
X46211Y-52502D01*
X46167Y-52397D01*
X46087Y-52316D01*
X45982Y-52272D01*
X45975Y-52272D01*
X45975Y-52246D01*
X45931Y-52141D01*
X45851Y-52060D01*
X45746Y-52016D01*
X45632Y-52016D01*
X45527Y-52060D01*
X45446Y-52140D01*
X45402Y-52245D01*
X45402Y-52359D01*
X45446Y-52465D01*
X45526Y-52545D01*
X45631Y-52589D01*
X45638Y-52589D01*
X45638Y-52615D01*
X45682Y-52720D01*
X45762Y-52801D01*
X45868Y-52845D01*
X45981Y-52845D01*
X46087Y-52801D01*
X46167Y-52721D01*
X46211Y-52616D01*
X46211Y-52502D01*
X46211Y-54287D01*
X46066Y-54227D01*
X45898Y-54227D01*
X45742Y-54291D01*
X45623Y-54411D01*
X45558Y-54566D01*
X45558Y-54727D01*
X45406Y-54727D01*
X45406Y-54567D01*
X45384Y-54515D01*
X45384Y-42659D01*
X45341Y-42554D01*
X45267Y-42480D01*
X45267Y-42395D01*
X45232Y-42311D01*
X45168Y-42247D01*
X45086Y-42213D01*
X45086Y-39493D01*
X45042Y-39388D01*
X44962Y-39307D01*
X44857Y-39263D01*
X44743Y-39263D01*
X44638Y-39307D01*
X44557Y-39387D01*
X44513Y-39492D01*
X44513Y-39606D01*
X44557Y-39711D01*
X44637Y-39792D01*
X44742Y-39836D01*
X44856Y-39836D01*
X44961Y-39792D01*
X45042Y-39712D01*
X45086Y-39607D01*
X45086Y-39493D01*
X45086Y-42213D01*
X45084Y-42212D01*
X45028Y-42212D01*
X45028Y-42204D01*
X44993Y-42120D01*
X44929Y-42056D01*
X44845Y-42021D01*
X44778Y-42021D01*
X44778Y-42004D01*
X44743Y-41920D01*
X44679Y-41856D01*
X44628Y-41835D01*
X44628Y-41804D01*
X44593Y-41720D01*
X44529Y-41656D01*
X44445Y-41621D01*
X44354Y-41621D01*
X44270Y-41656D01*
X44206Y-41720D01*
X44203Y-41729D01*
X44203Y-39554D01*
X44168Y-39470D01*
X44104Y-39406D01*
X44020Y-39371D01*
X43929Y-39371D01*
X43927Y-39372D01*
X43928Y-39274D01*
X43884Y-39168D01*
X43804Y-39088D01*
X43698Y-39044D01*
X43585Y-39044D01*
X43479Y-39087D01*
X43399Y-39168D01*
X43355Y-39273D01*
X43355Y-39387D01*
X43398Y-39492D01*
X43479Y-39573D01*
X43584Y-39616D01*
X43698Y-39616D01*
X43746Y-39596D01*
X43746Y-39645D01*
X43781Y-39729D01*
X43845Y-39793D01*
X43929Y-39828D01*
X44020Y-39828D01*
X44104Y-39793D01*
X44168Y-39729D01*
X44203Y-39645D01*
X44203Y-39554D01*
X44203Y-41729D01*
X44195Y-41747D01*
X44154Y-41706D01*
X44078Y-41675D01*
X44078Y-40454D01*
X44043Y-40370D01*
X43979Y-40306D01*
X43895Y-40271D01*
X43804Y-40271D01*
X43720Y-40306D01*
X43656Y-40370D01*
X43621Y-40454D01*
X43621Y-40545D01*
X43656Y-40629D01*
X43720Y-40693D01*
X43804Y-40728D01*
X43895Y-40728D01*
X43979Y-40693D01*
X44043Y-40629D01*
X44078Y-40545D01*
X44078Y-40454D01*
X44078Y-41675D01*
X44070Y-41671D01*
X43979Y-41671D01*
X43899Y-41704D01*
X43820Y-41671D01*
X43729Y-41671D01*
X43645Y-41706D01*
X43626Y-41725D01*
X43521Y-41682D01*
X43407Y-41682D01*
X43302Y-41725D01*
X43222Y-41806D01*
X43178Y-41911D01*
X43178Y-42025D01*
X43221Y-42130D01*
X43302Y-42211D01*
X43407Y-42254D01*
X43521Y-42254D01*
X43626Y-42211D01*
X43707Y-42130D01*
X43711Y-42120D01*
X43729Y-42128D01*
X43820Y-42128D01*
X43900Y-42095D01*
X43979Y-42128D01*
X44070Y-42128D01*
X44154Y-42093D01*
X44218Y-42029D01*
X44229Y-42002D01*
X44270Y-42043D01*
X44321Y-42064D01*
X44321Y-42095D01*
X44356Y-42179D01*
X44420Y-42243D01*
X44504Y-42278D01*
X44571Y-42278D01*
X44571Y-42295D01*
X44606Y-42379D01*
X44670Y-42443D01*
X44754Y-42478D01*
X44811Y-42478D01*
X44811Y-42486D01*
X44845Y-42569D01*
X44848Y-42572D01*
X44812Y-42659D01*
X44812Y-42773D01*
X44855Y-42878D01*
X44936Y-42959D01*
X45041Y-43002D01*
X45155Y-43002D01*
X45260Y-42959D01*
X45340Y-42878D01*
X45384Y-42773D01*
X45384Y-42659D01*
X45384Y-54515D01*
X45365Y-54467D01*
X45365Y-51714D01*
X45321Y-51609D01*
X45241Y-51529D01*
X45135Y-51485D01*
X45022Y-51485D01*
X45021Y-51485D01*
X45045Y-51461D01*
X45089Y-51356D01*
X45089Y-51349D01*
X45096Y-51349D01*
X45201Y-51305D01*
X45281Y-51225D01*
X45325Y-51120D01*
X45325Y-51006D01*
X45282Y-50901D01*
X45201Y-50820D01*
X45096Y-50776D01*
X44982Y-50776D01*
X44982Y-50776D01*
X44986Y-50772D01*
X45025Y-50679D01*
X45096Y-50679D01*
X45201Y-50636D01*
X45281Y-50556D01*
X45325Y-50450D01*
X45325Y-50337D01*
X45282Y-50231D01*
X45201Y-50151D01*
X45096Y-50107D01*
X44982Y-50107D01*
X44881Y-50149D01*
X44927Y-50103D01*
X44966Y-50010D01*
X45036Y-50010D01*
X45142Y-49967D01*
X45222Y-49886D01*
X45266Y-49781D01*
X45266Y-49667D01*
X45223Y-49562D01*
X45142Y-49481D01*
X45037Y-49438D01*
X44923Y-49438D01*
X44855Y-49466D01*
X44907Y-49414D01*
X44946Y-49321D01*
X44977Y-49321D01*
X45083Y-49278D01*
X45163Y-49197D01*
X45207Y-49092D01*
X45207Y-48978D01*
X45164Y-48873D01*
X45083Y-48792D01*
X44978Y-48749D01*
X44884Y-48749D01*
X44888Y-48745D01*
X44926Y-48652D01*
X44958Y-48652D01*
X45063Y-48608D01*
X45144Y-48528D01*
X45187Y-48423D01*
X45187Y-48309D01*
X45150Y-48218D01*
X45187Y-48128D01*
X45187Y-48014D01*
X45144Y-47908D01*
X45063Y-47828D01*
X44958Y-47784D01*
X44844Y-47784D01*
X44794Y-47805D01*
X44794Y-47797D01*
X44750Y-47692D01*
X44724Y-47665D01*
X44728Y-47664D01*
X44809Y-47583D01*
X44853Y-47478D01*
X44853Y-47364D01*
X44809Y-47259D01*
X44729Y-47178D01*
X44626Y-47136D01*
X44651Y-47111D01*
X44695Y-47006D01*
X44695Y-46892D01*
X44665Y-46819D01*
X44765Y-46860D01*
X44879Y-46861D01*
X44984Y-46817D01*
X45065Y-46737D01*
X45109Y-46631D01*
X45109Y-46518D01*
X45089Y-46470D01*
X45089Y-44864D01*
X45045Y-44759D01*
X44965Y-44678D01*
X44860Y-44635D01*
X44746Y-44634D01*
X44641Y-44678D01*
X44560Y-44758D01*
X44516Y-44864D01*
X44516Y-44977D01*
X44560Y-45083D01*
X44640Y-45163D01*
X44745Y-45207D01*
X44859Y-45207D01*
X44965Y-45164D01*
X45045Y-45083D01*
X45089Y-44978D01*
X45089Y-44864D01*
X45089Y-46470D01*
X45065Y-46412D01*
X44985Y-46332D01*
X44880Y-46288D01*
X44766Y-46288D01*
X44715Y-46309D01*
X44715Y-46203D01*
X44714Y-46201D01*
X44789Y-46126D01*
X44833Y-46021D01*
X44833Y-45907D01*
X44790Y-45802D01*
X44709Y-45722D01*
X44604Y-45678D01*
X44490Y-45678D01*
X44439Y-45699D01*
X44439Y-43112D01*
X44396Y-43007D01*
X44315Y-42926D01*
X44210Y-42883D01*
X44096Y-42883D01*
X43991Y-42926D01*
X43911Y-43006D01*
X43867Y-43112D01*
X43867Y-43225D01*
X43910Y-43331D01*
X43991Y-43411D01*
X44096Y-43455D01*
X44210Y-43455D01*
X44315Y-43412D01*
X44396Y-43331D01*
X44439Y-43226D01*
X44439Y-43112D01*
X44439Y-45699D01*
X44385Y-45721D01*
X44304Y-45802D01*
X44261Y-45907D01*
X44260Y-46021D01*
X44261Y-46022D01*
X44186Y-46097D01*
X44142Y-46202D01*
X44142Y-46316D01*
X44186Y-46421D01*
X44266Y-46502D01*
X44371Y-46546D01*
X44485Y-46546D01*
X44536Y-46525D01*
X44536Y-46631D01*
X44566Y-46704D01*
X44466Y-46662D01*
X44352Y-46662D01*
X44247Y-46706D01*
X44166Y-46786D01*
X44123Y-46891D01*
X44123Y-47005D01*
X44166Y-47110D01*
X44247Y-47191D01*
X44349Y-47233D01*
X44324Y-47258D01*
X44280Y-47364D01*
X44280Y-47477D01*
X44324Y-47583D01*
X44350Y-47609D01*
X44345Y-47611D01*
X44265Y-47691D01*
X44221Y-47797D01*
X44221Y-47911D01*
X44265Y-48016D01*
X44345Y-48096D01*
X44450Y-48140D01*
X44564Y-48140D01*
X44615Y-48119D01*
X44615Y-48127D01*
X44652Y-48218D01*
X44620Y-48296D01*
X44588Y-48296D01*
X44483Y-48339D01*
X44403Y-48420D01*
X44364Y-48512D01*
X44352Y-48512D01*
X44247Y-48556D01*
X44166Y-48636D01*
X44123Y-48742D01*
X44123Y-48855D01*
X44166Y-48961D01*
X44247Y-49041D01*
X44352Y-49085D01*
X44427Y-49085D01*
X44422Y-49089D01*
X44379Y-49194D01*
X44379Y-49226D01*
X44286Y-49265D01*
X44206Y-49345D01*
X44162Y-49450D01*
X44162Y-49564D01*
X44206Y-49669D01*
X44286Y-49750D01*
X44391Y-49794D01*
X44436Y-49794D01*
X44398Y-49883D01*
X44398Y-49890D01*
X44352Y-49890D01*
X44247Y-49934D01*
X44166Y-50014D01*
X44123Y-50119D01*
X44123Y-50233D01*
X44166Y-50339D01*
X44247Y-50419D01*
X44352Y-50463D01*
X44466Y-50463D01*
X44501Y-50448D01*
X44463Y-50540D01*
X44392Y-50540D01*
X44286Y-50583D01*
X44206Y-50664D01*
X44162Y-50769D01*
X44162Y-50883D01*
X44206Y-50988D01*
X44286Y-51069D01*
X44391Y-51112D01*
X44505Y-51113D01*
X44610Y-51069D01*
X44691Y-50989D01*
X44729Y-50896D01*
X44800Y-50896D01*
X44801Y-50896D01*
X44796Y-50900D01*
X44753Y-51005D01*
X44753Y-51012D01*
X44746Y-51012D01*
X44641Y-51056D01*
X44560Y-51136D01*
X44516Y-51242D01*
X44516Y-51249D01*
X44510Y-51249D01*
X44405Y-51292D01*
X44324Y-51373D01*
X44280Y-51478D01*
X44280Y-51592D01*
X44324Y-51697D01*
X44404Y-51777D01*
X44509Y-51821D01*
X44623Y-51821D01*
X44728Y-51778D01*
X44792Y-51714D01*
X44792Y-51828D01*
X44835Y-51933D01*
X44916Y-52014D01*
X45021Y-52057D01*
X45135Y-52057D01*
X45240Y-52014D01*
X45321Y-51933D01*
X45364Y-51828D01*
X45365Y-51714D01*
X45365Y-54467D01*
X45341Y-54411D01*
X45222Y-54292D01*
X45066Y-54227D01*
X44898Y-54227D01*
X44742Y-54291D01*
X44623Y-54411D01*
X44558Y-54566D01*
X44558Y-54727D01*
X44406Y-54727D01*
X44406Y-54567D01*
X44341Y-54411D01*
X44222Y-54292D01*
X44066Y-54227D01*
X43898Y-54227D01*
X43742Y-54291D01*
X43623Y-54411D01*
X43558Y-54566D01*
X43558Y-54735D01*
X43622Y-54891D01*
X43741Y-55010D01*
X43897Y-55075D01*
X44058Y-55075D01*
X44058Y-55235D01*
X44106Y-55353D01*
X43416Y-55353D01*
X43416Y-46183D01*
X43372Y-46078D01*
X43305Y-46011D01*
X43317Y-45982D01*
X43317Y-45868D01*
X43274Y-45763D01*
X43193Y-45682D01*
X43088Y-45639D01*
X43069Y-45639D01*
X43075Y-45636D01*
X43155Y-45556D01*
X43199Y-45450D01*
X43199Y-45337D01*
X43156Y-45231D01*
X43119Y-45194D01*
X43160Y-45096D01*
X43160Y-44982D01*
X43159Y-44981D01*
X43193Y-44967D01*
X43274Y-44886D01*
X43317Y-44781D01*
X43317Y-44667D01*
X43274Y-44562D01*
X43193Y-44481D01*
X43088Y-44438D01*
X43042Y-44438D01*
X43042Y-38545D01*
X42998Y-38440D01*
X42918Y-38359D01*
X42813Y-38316D01*
X42699Y-38316D01*
X42593Y-38359D01*
X42513Y-38440D01*
X42469Y-38545D01*
X42469Y-38659D01*
X42513Y-38764D01*
X42593Y-38844D01*
X42698Y-38888D01*
X42812Y-38888D01*
X42917Y-38845D01*
X42998Y-38764D01*
X43042Y-38659D01*
X43042Y-38545D01*
X43042Y-44438D01*
X42974Y-44438D01*
X42869Y-44481D01*
X42788Y-44562D01*
X42745Y-44667D01*
X42745Y-44781D01*
X42745Y-44782D01*
X42712Y-44796D01*
X42631Y-44877D01*
X42589Y-44978D01*
X42589Y-41104D01*
X42545Y-40999D01*
X42465Y-40918D01*
X42360Y-40875D01*
X42246Y-40875D01*
X42195Y-40896D01*
X42195Y-37108D01*
X42152Y-37003D01*
X42071Y-36922D01*
X41998Y-36892D01*
X41998Y-23840D01*
X41955Y-23735D01*
X41874Y-23655D01*
X41769Y-23611D01*
X41655Y-23611D01*
X41550Y-23654D01*
X41470Y-23735D01*
X41426Y-23840D01*
X41426Y-23954D01*
X41469Y-24059D01*
X41550Y-24140D01*
X41655Y-24183D01*
X41769Y-24183D01*
X41874Y-24140D01*
X41955Y-24059D01*
X41998Y-23954D01*
X41998Y-23840D01*
X41998Y-36892D01*
X41979Y-36884D01*
X41979Y-34805D01*
X41935Y-34700D01*
X41920Y-34684D01*
X41920Y-25573D01*
X41876Y-25468D01*
X41857Y-25448D01*
X41880Y-25391D01*
X41880Y-25277D01*
X41839Y-25177D01*
X41880Y-25076D01*
X41880Y-24963D01*
X41837Y-24857D01*
X41756Y-24777D01*
X41651Y-24733D01*
X41537Y-24733D01*
X41432Y-24776D01*
X41351Y-24857D01*
X41308Y-24962D01*
X41308Y-25076D01*
X41349Y-25177D01*
X41308Y-25277D01*
X41308Y-25391D01*
X41337Y-25461D01*
X41281Y-25461D01*
X41176Y-25505D01*
X41096Y-25585D01*
X41052Y-25690D01*
X41052Y-25804D01*
X41095Y-25909D01*
X41176Y-25990D01*
X41281Y-26034D01*
X41395Y-26034D01*
X41500Y-25990D01*
X41575Y-25915D01*
X41576Y-25916D01*
X41690Y-25916D01*
X41795Y-25872D01*
X41876Y-25792D01*
X41920Y-25687D01*
X41920Y-25573D01*
X41920Y-34684D01*
X41880Y-34645D01*
X41880Y-29116D01*
X41837Y-29011D01*
X41756Y-28930D01*
X41651Y-28887D01*
X41537Y-28886D01*
X41526Y-28891D01*
X41526Y-26813D01*
X41482Y-26708D01*
X41402Y-26627D01*
X41297Y-26583D01*
X41183Y-26583D01*
X41078Y-26627D01*
X40997Y-26707D01*
X40953Y-26812D01*
X40953Y-26926D01*
X40997Y-27031D01*
X41077Y-27112D01*
X41182Y-27156D01*
X41296Y-27156D01*
X41402Y-27112D01*
X41482Y-27032D01*
X41526Y-26927D01*
X41526Y-26813D01*
X41526Y-28891D01*
X41432Y-28930D01*
X41428Y-28935D01*
X41428Y-27443D01*
X41384Y-27338D01*
X41304Y-27257D01*
X41198Y-27213D01*
X41085Y-27213D01*
X40979Y-27257D01*
X40899Y-27337D01*
X40855Y-27442D01*
X40855Y-27454D01*
X40844Y-27450D01*
X40730Y-27449D01*
X40625Y-27493D01*
X40620Y-27498D01*
X40595Y-27474D01*
X40502Y-27435D01*
X40502Y-25140D01*
X40459Y-25034D01*
X40447Y-25023D01*
X40483Y-24939D01*
X40483Y-24825D01*
X40439Y-24719D01*
X40359Y-24639D01*
X40254Y-24595D01*
X40140Y-24595D01*
X40034Y-24639D01*
X39954Y-24719D01*
X39910Y-24824D01*
X39910Y-24938D01*
X39954Y-25043D01*
X39965Y-25055D01*
X39930Y-25139D01*
X39930Y-25253D01*
X39973Y-25358D01*
X40054Y-25439D01*
X40159Y-25483D01*
X40273Y-25483D01*
X40378Y-25439D01*
X40459Y-25359D01*
X40502Y-25254D01*
X40502Y-25140D01*
X40502Y-27435D01*
X40490Y-27430D01*
X40376Y-27430D01*
X40271Y-27473D01*
X40190Y-27554D01*
X40146Y-27659D01*
X40146Y-27773D01*
X40190Y-27878D01*
X40270Y-27959D01*
X40375Y-28002D01*
X40489Y-28002D01*
X40594Y-27959D01*
X40600Y-27953D01*
X40625Y-27978D01*
X40730Y-28022D01*
X40844Y-28022D01*
X40949Y-27979D01*
X41029Y-27898D01*
X41073Y-27793D01*
X41073Y-27781D01*
X41084Y-27786D01*
X41198Y-27786D01*
X41303Y-27742D01*
X41384Y-27662D01*
X41427Y-27557D01*
X41428Y-27443D01*
X41428Y-28935D01*
X41351Y-29010D01*
X41308Y-29116D01*
X41308Y-29229D01*
X41351Y-29335D01*
X41432Y-29415D01*
X41537Y-29459D01*
X41651Y-29459D01*
X41756Y-29416D01*
X41836Y-29335D01*
X41880Y-29230D01*
X41880Y-29116D01*
X41880Y-34645D01*
X41855Y-34619D01*
X41750Y-34576D01*
X41636Y-34575D01*
X41530Y-34619D01*
X41450Y-34699D01*
X41406Y-34805D01*
X41406Y-34918D01*
X41450Y-35024D01*
X41530Y-35104D01*
X41635Y-35148D01*
X41749Y-35148D01*
X41854Y-35104D01*
X41935Y-35024D01*
X41979Y-34919D01*
X41979Y-34805D01*
X41979Y-36884D01*
X41966Y-36879D01*
X41852Y-36879D01*
X41747Y-36922D01*
X41666Y-37003D01*
X41644Y-37056D01*
X41644Y-35789D01*
X41601Y-35684D01*
X41520Y-35603D01*
X41415Y-35560D01*
X41301Y-35560D01*
X41196Y-35603D01*
X41115Y-35684D01*
X41072Y-35789D01*
X41071Y-35903D01*
X41115Y-36008D01*
X41195Y-36088D01*
X41301Y-36132D01*
X41414Y-36132D01*
X41520Y-36089D01*
X41600Y-36008D01*
X41644Y-35903D01*
X41644Y-35789D01*
X41644Y-37056D01*
X41623Y-37108D01*
X41623Y-37222D01*
X41666Y-37327D01*
X41747Y-37407D01*
X41852Y-37451D01*
X41966Y-37451D01*
X42071Y-37408D01*
X42151Y-37327D01*
X42195Y-37222D01*
X42195Y-37108D01*
X42195Y-40896D01*
X42141Y-40918D01*
X42060Y-40999D01*
X42016Y-41104D01*
X42016Y-41218D01*
X42060Y-41323D01*
X42140Y-41403D01*
X42245Y-41447D01*
X42359Y-41447D01*
X42465Y-41404D01*
X42545Y-41323D01*
X42589Y-41218D01*
X42589Y-41104D01*
X42589Y-44978D01*
X42587Y-44982D01*
X42587Y-44993D01*
X42576Y-44989D01*
X42463Y-44989D01*
X42357Y-45032D01*
X42277Y-45113D01*
X42233Y-45218D01*
X42233Y-45332D01*
X42276Y-45437D01*
X42357Y-45518D01*
X42462Y-45561D01*
X42576Y-45561D01*
X42659Y-45527D01*
X42670Y-45555D01*
X42751Y-45636D01*
X42856Y-45679D01*
X42875Y-45679D01*
X42869Y-45682D01*
X42788Y-45762D01*
X42745Y-45868D01*
X42745Y-45981D01*
X42788Y-46087D01*
X42855Y-46154D01*
X42843Y-46182D01*
X42843Y-46296D01*
X42887Y-46402D01*
X42967Y-46482D01*
X43072Y-46526D01*
X43186Y-46526D01*
X43291Y-46482D01*
X43372Y-46402D01*
X43416Y-46297D01*
X43416Y-46183D01*
X43416Y-55353D01*
X42215Y-55353D01*
X42215Y-43525D01*
X42171Y-43420D01*
X42091Y-43340D01*
X41986Y-43296D01*
X41872Y-43296D01*
X41767Y-43339D01*
X41686Y-43420D01*
X41642Y-43525D01*
X41642Y-43639D01*
X41686Y-43744D01*
X41766Y-43825D01*
X41871Y-43868D01*
X41985Y-43868D01*
X42091Y-43825D01*
X42171Y-43745D01*
X42215Y-43639D01*
X42215Y-43525D01*
X42215Y-55353D01*
X41565Y-55353D01*
X41565Y-45592D01*
X41546Y-45545D01*
X41546Y-37088D01*
X41502Y-36983D01*
X41448Y-36929D01*
X41462Y-36914D01*
X41506Y-36809D01*
X41506Y-36695D01*
X41463Y-36590D01*
X41382Y-36509D01*
X41309Y-36479D01*
X41309Y-36459D01*
X41266Y-36353D01*
X41185Y-36273D01*
X41080Y-36229D01*
X40966Y-36229D01*
X40876Y-36266D01*
X40876Y-31734D01*
X40833Y-31629D01*
X40798Y-31594D01*
X40798Y-28781D01*
X40754Y-28676D01*
X40674Y-28596D01*
X40568Y-28552D01*
X40455Y-28552D01*
X40349Y-28595D01*
X40269Y-28676D01*
X40229Y-28772D01*
X40133Y-28812D01*
X40052Y-28892D01*
X40009Y-28997D01*
X40009Y-29111D01*
X40052Y-29217D01*
X40132Y-29297D01*
X40238Y-29341D01*
X40351Y-29341D01*
X40457Y-29297D01*
X40537Y-29217D01*
X40577Y-29120D01*
X40673Y-29081D01*
X40754Y-29000D01*
X40797Y-28895D01*
X40798Y-28781D01*
X40798Y-31594D01*
X40752Y-31548D01*
X40739Y-31543D01*
X40739Y-30317D01*
X40695Y-30212D01*
X40615Y-30131D01*
X40509Y-30087D01*
X40396Y-30087D01*
X40290Y-30131D01*
X40210Y-30211D01*
X40166Y-30316D01*
X40166Y-30363D01*
X40100Y-30363D01*
X39995Y-30406D01*
X39971Y-30431D01*
X39971Y-28329D01*
X39927Y-28223D01*
X39902Y-28198D01*
X39907Y-28193D01*
X39951Y-28088D01*
X39951Y-27974D01*
X39908Y-27869D01*
X39827Y-27788D01*
X39813Y-27783D01*
X39813Y-24372D01*
X39770Y-24267D01*
X39689Y-24186D01*
X39584Y-24142D01*
X39470Y-24142D01*
X39365Y-24186D01*
X39285Y-24266D01*
X39241Y-24371D01*
X39241Y-24485D01*
X39284Y-24591D01*
X39365Y-24671D01*
X39470Y-24715D01*
X39584Y-24715D01*
X39689Y-24671D01*
X39770Y-24591D01*
X39813Y-24486D01*
X39813Y-24372D01*
X39813Y-27783D01*
X39722Y-27745D01*
X39608Y-27745D01*
X39503Y-27788D01*
X39422Y-27869D01*
X39379Y-27974D01*
X39379Y-28088D01*
X39422Y-28193D01*
X39447Y-28218D01*
X39442Y-28223D01*
X39398Y-28328D01*
X39398Y-28442D01*
X39442Y-28547D01*
X39522Y-28628D01*
X39627Y-28671D01*
X39741Y-28672D01*
X39846Y-28628D01*
X39927Y-28548D01*
X39971Y-28443D01*
X39971Y-28329D01*
X39971Y-30431D01*
X39914Y-30487D01*
X39871Y-30592D01*
X39871Y-30706D01*
X39914Y-30811D01*
X39995Y-30892D01*
X40100Y-30935D01*
X40214Y-30935D01*
X40319Y-30892D01*
X40399Y-30811D01*
X40443Y-30706D01*
X40443Y-30660D01*
X40509Y-30660D01*
X40614Y-30616D01*
X40695Y-30536D01*
X40738Y-30431D01*
X40739Y-30317D01*
X40739Y-31543D01*
X40647Y-31505D01*
X40640Y-31505D01*
X40640Y-31498D01*
X40597Y-31393D01*
X40516Y-31312D01*
X40411Y-31268D01*
X40297Y-31268D01*
X40192Y-31312D01*
X40111Y-31392D01*
X40068Y-31497D01*
X40068Y-31611D01*
X40111Y-31717D01*
X40191Y-31797D01*
X40297Y-31841D01*
X40304Y-31841D01*
X40304Y-31848D01*
X40347Y-31953D01*
X40428Y-32033D01*
X40533Y-32077D01*
X40647Y-32077D01*
X40752Y-32034D01*
X40833Y-31953D01*
X40876Y-31848D01*
X40876Y-31734D01*
X40876Y-36266D01*
X40861Y-36272D01*
X40781Y-36353D01*
X40737Y-36458D01*
X40737Y-36572D01*
X40780Y-36677D01*
X40861Y-36758D01*
X40934Y-36788D01*
X40934Y-36808D01*
X40977Y-36913D01*
X41032Y-36968D01*
X41017Y-36983D01*
X40973Y-37088D01*
X40973Y-37202D01*
X41017Y-37307D01*
X41087Y-37378D01*
X40999Y-37414D01*
X40918Y-37495D01*
X40875Y-37600D01*
X40875Y-37714D01*
X40918Y-37819D01*
X40973Y-37874D01*
X40958Y-37888D01*
X40914Y-37993D01*
X40914Y-38107D01*
X40958Y-38213D01*
X41002Y-38257D01*
X40977Y-38282D01*
X40934Y-38387D01*
X40934Y-38501D01*
X40977Y-38606D01*
X41058Y-38687D01*
X41163Y-38731D01*
X41277Y-38731D01*
X41382Y-38687D01*
X41462Y-38607D01*
X41506Y-38502D01*
X41506Y-38388D01*
X41463Y-38282D01*
X41418Y-38238D01*
X41443Y-38213D01*
X41486Y-38108D01*
X41487Y-37994D01*
X41443Y-37889D01*
X41389Y-37834D01*
X41403Y-37819D01*
X41447Y-37714D01*
X41447Y-37600D01*
X41404Y-37495D01*
X41333Y-37424D01*
X41421Y-37388D01*
X41502Y-37308D01*
X41546Y-37202D01*
X41546Y-37088D01*
X41546Y-45545D01*
X41522Y-45487D01*
X41487Y-45452D01*
X41487Y-44214D01*
X41443Y-44109D01*
X41363Y-44029D01*
X41257Y-43985D01*
X41144Y-43985D01*
X41038Y-44028D01*
X40958Y-44109D01*
X40914Y-44214D01*
X40914Y-44328D01*
X40958Y-44433D01*
X41038Y-44514D01*
X41143Y-44557D01*
X41257Y-44557D01*
X41362Y-44514D01*
X41443Y-44433D01*
X41486Y-44328D01*
X41487Y-44214D01*
X41487Y-45452D01*
X41441Y-45407D01*
X41336Y-45363D01*
X41222Y-45363D01*
X41117Y-45406D01*
X41037Y-45487D01*
X40993Y-45592D01*
X40993Y-45706D01*
X41022Y-45777D01*
X41017Y-45782D01*
X40973Y-45887D01*
X40973Y-46001D01*
X41017Y-46106D01*
X41097Y-46187D01*
X41202Y-46231D01*
X41316Y-46231D01*
X41421Y-46187D01*
X41502Y-46107D01*
X41546Y-46002D01*
X41546Y-45888D01*
X41516Y-45817D01*
X41522Y-45811D01*
X41565Y-45706D01*
X41565Y-45592D01*
X41565Y-55353D01*
X41386Y-55353D01*
X41386Y-46443D01*
X41342Y-46338D01*
X41262Y-46257D01*
X41157Y-46213D01*
X41043Y-46213D01*
X40938Y-46257D01*
X40890Y-46304D01*
X40805Y-46268D01*
X40691Y-46268D01*
X40640Y-46289D01*
X40640Y-45337D01*
X40597Y-45231D01*
X40516Y-45151D01*
X40411Y-45107D01*
X40325Y-45107D01*
X40325Y-43762D01*
X40282Y-43656D01*
X40201Y-43576D01*
X40096Y-43532D01*
X39982Y-43532D01*
X39877Y-43576D01*
X39796Y-43656D01*
X39753Y-43761D01*
X39753Y-43777D01*
X39709Y-43733D01*
X39604Y-43690D01*
X39490Y-43690D01*
X39385Y-43733D01*
X39304Y-43814D01*
X39262Y-43915D01*
X39262Y-28053D01*
X39219Y-27948D01*
X39138Y-27867D01*
X39033Y-27824D01*
X38919Y-27823D01*
X38848Y-27853D01*
X38823Y-27828D01*
X38718Y-27784D01*
X38604Y-27784D01*
X38503Y-27826D01*
X38403Y-27784D01*
X38289Y-27784D01*
X38184Y-27828D01*
X38103Y-27908D01*
X38060Y-28013D01*
X38060Y-28127D01*
X38103Y-28232D01*
X38184Y-28313D01*
X38289Y-28357D01*
X38403Y-28357D01*
X38504Y-28315D01*
X38604Y-28357D01*
X38718Y-28357D01*
X38789Y-28327D01*
X38814Y-28352D01*
X38919Y-28396D01*
X39033Y-28396D01*
X39138Y-28353D01*
X39218Y-28272D01*
X39262Y-28167D01*
X39262Y-28053D01*
X39262Y-43915D01*
X39261Y-43919D01*
X39260Y-44033D01*
X39304Y-44138D01*
X39384Y-44218D01*
X39490Y-44262D01*
X39603Y-44262D01*
X39709Y-44219D01*
X39789Y-44138D01*
X39833Y-44033D01*
X39833Y-44017D01*
X39877Y-44061D01*
X39982Y-44105D01*
X40096Y-44105D01*
X40201Y-44061D01*
X40281Y-43981D01*
X40325Y-43876D01*
X40325Y-43762D01*
X40325Y-45107D01*
X40297Y-45107D01*
X40192Y-45150D01*
X40111Y-45231D01*
X40089Y-45285D01*
X40089Y-44766D01*
X40045Y-44660D01*
X39965Y-44580D01*
X39860Y-44536D01*
X39746Y-44536D01*
X39641Y-44580D01*
X39560Y-44660D01*
X39516Y-44765D01*
X39516Y-44879D01*
X39560Y-44984D01*
X39640Y-45065D01*
X39745Y-45109D01*
X39859Y-45109D01*
X39965Y-45065D01*
X40045Y-44985D01*
X40089Y-44880D01*
X40089Y-44766D01*
X40089Y-45285D01*
X40068Y-45336D01*
X40068Y-45450D01*
X40111Y-45555D01*
X40191Y-45636D01*
X40297Y-45679D01*
X40411Y-45679D01*
X40516Y-45636D01*
X40596Y-45556D01*
X40640Y-45450D01*
X40640Y-45337D01*
X40640Y-46289D01*
X40586Y-46312D01*
X40505Y-46392D01*
X40461Y-46497D01*
X40461Y-46611D01*
X40505Y-46717D01*
X40585Y-46797D01*
X40690Y-46841D01*
X40804Y-46841D01*
X40909Y-46797D01*
X40957Y-46750D01*
X41042Y-46786D01*
X41156Y-46786D01*
X41261Y-46742D01*
X41342Y-46662D01*
X41386Y-46557D01*
X41386Y-46443D01*
X41386Y-55353D01*
X40778Y-55353D01*
X40778Y-48722D01*
X40758Y-48675D01*
X40758Y-47797D01*
X40715Y-47692D01*
X40634Y-47611D01*
X40529Y-47568D01*
X40415Y-47568D01*
X40310Y-47611D01*
X40229Y-47691D01*
X40186Y-47797D01*
X40186Y-47911D01*
X40229Y-48016D01*
X40310Y-48096D01*
X40415Y-48140D01*
X40529Y-48140D01*
X40634Y-48097D01*
X40714Y-48016D01*
X40758Y-47911D01*
X40758Y-47797D01*
X40758Y-48675D01*
X40734Y-48617D01*
X40654Y-48537D01*
X40549Y-48493D01*
X40435Y-48493D01*
X40330Y-48536D01*
X40249Y-48617D01*
X40205Y-48722D01*
X40205Y-48836D01*
X40249Y-48941D01*
X40329Y-49022D01*
X40434Y-49065D01*
X40548Y-49065D01*
X40654Y-49022D01*
X40734Y-48941D01*
X40778Y-48836D01*
X40778Y-48722D01*
X40778Y-55353D01*
X40109Y-55353D01*
X40109Y-47049D01*
X40065Y-46944D01*
X39985Y-46863D01*
X39880Y-46820D01*
X39766Y-46820D01*
X39660Y-46863D01*
X39580Y-46943D01*
X39536Y-47049D01*
X39536Y-47162D01*
X39580Y-47268D01*
X39660Y-47348D01*
X39765Y-47392D01*
X39879Y-47392D01*
X39984Y-47349D01*
X40065Y-47268D01*
X40109Y-47163D01*
X40109Y-47049D01*
X40109Y-55353D01*
X40069Y-55353D01*
X40069Y-47659D01*
X40026Y-47554D01*
X39945Y-47474D01*
X39840Y-47430D01*
X39726Y-47430D01*
X39655Y-47459D01*
X39630Y-47434D01*
X39525Y-47390D01*
X39411Y-47390D01*
X39306Y-47434D01*
X39225Y-47514D01*
X39182Y-47619D01*
X39182Y-47733D01*
X39225Y-47839D01*
X39306Y-47919D01*
X39411Y-47963D01*
X39525Y-47963D01*
X39596Y-47934D01*
X39621Y-47959D01*
X39726Y-48002D01*
X39840Y-48002D01*
X39945Y-47959D01*
X40025Y-47878D01*
X40069Y-47773D01*
X40069Y-47659D01*
X40069Y-55353D01*
X39449Y-55353D01*
X39449Y-52713D01*
X39406Y-52608D01*
X39325Y-52527D01*
X39220Y-52484D01*
X39106Y-52484D01*
X39085Y-52492D01*
X39085Y-42325D01*
X39041Y-42219D01*
X38961Y-42139D01*
X38856Y-42095D01*
X38742Y-42095D01*
X38657Y-42130D01*
X38646Y-42119D01*
X38541Y-42076D01*
X38427Y-42075D01*
X38322Y-42119D01*
X38258Y-42182D01*
X38258Y-34844D01*
X38215Y-34739D01*
X38134Y-34659D01*
X38029Y-34615D01*
X37915Y-34615D01*
X37810Y-34658D01*
X37729Y-34739D01*
X37686Y-34844D01*
X37686Y-34958D01*
X37729Y-35063D01*
X37810Y-35144D01*
X37915Y-35187D01*
X38029Y-35187D01*
X38134Y-35144D01*
X38214Y-35063D01*
X38258Y-34958D01*
X38258Y-34844D01*
X38258Y-42182D01*
X38241Y-42199D01*
X38198Y-42305D01*
X38197Y-42418D01*
X38241Y-42524D01*
X38321Y-42604D01*
X38427Y-42648D01*
X38540Y-42648D01*
X38625Y-42613D01*
X38636Y-42624D01*
X38742Y-42668D01*
X38855Y-42668D01*
X38961Y-42624D01*
X39041Y-42544D01*
X39085Y-42439D01*
X39085Y-42325D01*
X39085Y-52492D01*
X39001Y-52527D01*
X38920Y-52608D01*
X38877Y-52713D01*
X38877Y-52827D01*
X38920Y-52932D01*
X39001Y-53012D01*
X39106Y-53056D01*
X39220Y-53056D01*
X39325Y-53013D01*
X39405Y-52932D01*
X39449Y-52827D01*
X39449Y-52713D01*
X39449Y-55353D01*
X38967Y-55353D01*
X38967Y-54588D01*
X38923Y-54483D01*
X38843Y-54403D01*
X38738Y-54359D01*
X38624Y-54359D01*
X38519Y-54402D01*
X38438Y-54483D01*
X38394Y-54588D01*
X38394Y-54702D01*
X38438Y-54807D01*
X38518Y-54888D01*
X38623Y-54931D01*
X38737Y-54931D01*
X38843Y-54888D01*
X38923Y-54808D01*
X38967Y-54702D01*
X38967Y-54588D01*
X38967Y-55353D01*
X37749Y-55353D01*
X37749Y-54513D01*
X37706Y-54408D01*
X37625Y-54327D01*
X37520Y-54284D01*
X37412Y-54284D01*
X37412Y-33033D01*
X37368Y-32928D01*
X37288Y-32848D01*
X37183Y-32804D01*
X37069Y-32804D01*
X36964Y-32847D01*
X36883Y-32928D01*
X36839Y-33033D01*
X36839Y-33147D01*
X36883Y-33252D01*
X36963Y-33333D01*
X37068Y-33376D01*
X37182Y-33376D01*
X37287Y-33333D01*
X37368Y-33252D01*
X37412Y-33147D01*
X37412Y-33033D01*
X37412Y-54284D01*
X37406Y-54284D01*
X37353Y-54306D01*
X37353Y-49490D01*
X37309Y-49385D01*
X37229Y-49304D01*
X37195Y-49290D01*
X37195Y-40966D01*
X37152Y-40861D01*
X37071Y-40781D01*
X36998Y-40750D01*
X36998Y-39608D01*
X36955Y-39503D01*
X36874Y-39422D01*
X36769Y-39379D01*
X36655Y-39379D01*
X36550Y-39422D01*
X36470Y-39503D01*
X36447Y-39556D01*
X36447Y-32837D01*
X36404Y-32731D01*
X36323Y-32651D01*
X36270Y-32629D01*
X36270Y-29037D01*
X36227Y-28932D01*
X36146Y-28851D01*
X36041Y-28808D01*
X35927Y-28808D01*
X35822Y-28851D01*
X35741Y-28932D01*
X35698Y-29037D01*
X35697Y-29151D01*
X35741Y-29256D01*
X35821Y-29336D01*
X35927Y-29380D01*
X36040Y-29380D01*
X36146Y-29337D01*
X36226Y-29256D01*
X36270Y-29151D01*
X36270Y-29037D01*
X36270Y-32629D01*
X36218Y-32607D01*
X36104Y-32607D01*
X35999Y-32650D01*
X35918Y-32731D01*
X35875Y-32836D01*
X35875Y-32950D01*
X35918Y-33055D01*
X35999Y-33136D01*
X36104Y-33179D01*
X36218Y-33179D01*
X36323Y-33136D01*
X36403Y-33056D01*
X36447Y-32950D01*
X36447Y-32837D01*
X36447Y-39556D01*
X36426Y-39608D01*
X36426Y-39722D01*
X36428Y-39726D01*
X36353Y-39757D01*
X36273Y-39837D01*
X36229Y-39942D01*
X36229Y-40056D01*
X36272Y-40161D01*
X36317Y-40206D01*
X36273Y-40251D01*
X36229Y-40356D01*
X36229Y-40470D01*
X36272Y-40575D01*
X36353Y-40655D01*
X36458Y-40699D01*
X36572Y-40699D01*
X36677Y-40656D01*
X36758Y-40575D01*
X36801Y-40470D01*
X36802Y-40356D01*
X36758Y-40251D01*
X36713Y-40206D01*
X36758Y-40162D01*
X36801Y-40057D01*
X36802Y-39943D01*
X36800Y-39938D01*
X36874Y-39908D01*
X36955Y-39827D01*
X36998Y-39722D01*
X36998Y-39608D01*
X36998Y-40750D01*
X36966Y-40737D01*
X36852Y-40737D01*
X36747Y-40780D01*
X36666Y-40861D01*
X36623Y-40966D01*
X36623Y-40987D01*
X36550Y-41017D01*
X36470Y-41097D01*
X36426Y-41202D01*
X36426Y-41316D01*
X36469Y-41421D01*
X36550Y-41502D01*
X36655Y-41546D01*
X36769Y-41546D01*
X36874Y-41502D01*
X36955Y-41422D01*
X36998Y-41317D01*
X36998Y-41296D01*
X37071Y-41266D01*
X37151Y-41185D01*
X37195Y-41080D01*
X37195Y-40966D01*
X37195Y-49290D01*
X37124Y-49261D01*
X37010Y-49260D01*
X36939Y-49290D01*
X36939Y-45809D01*
X36896Y-45704D01*
X36815Y-45623D01*
X36710Y-45579D01*
X36596Y-45579D01*
X36491Y-45623D01*
X36411Y-45703D01*
X36367Y-45808D01*
X36367Y-45922D01*
X36410Y-46028D01*
X36491Y-46108D01*
X36596Y-46152D01*
X36710Y-46152D01*
X36815Y-46108D01*
X36896Y-46028D01*
X36939Y-45923D01*
X36939Y-45809D01*
X36939Y-49290D01*
X36905Y-49304D01*
X36824Y-49384D01*
X36780Y-49490D01*
X36780Y-49603D01*
X36824Y-49709D01*
X36904Y-49789D01*
X37009Y-49833D01*
X37123Y-49833D01*
X37228Y-49790D01*
X37309Y-49709D01*
X37353Y-49604D01*
X37353Y-49490D01*
X37353Y-54306D01*
X37301Y-54327D01*
X37220Y-54408D01*
X37177Y-54513D01*
X37177Y-54627D01*
X37220Y-54732D01*
X37301Y-54812D01*
X37406Y-54856D01*
X37520Y-54856D01*
X37625Y-54813D01*
X37705Y-54732D01*
X37749Y-54627D01*
X37749Y-54513D01*
X37749Y-55353D01*
X36526Y-55353D01*
X36526Y-47659D01*
X36482Y-47554D01*
X36402Y-47474D01*
X36297Y-47430D01*
X36183Y-47430D01*
X36078Y-47473D01*
X35997Y-47554D01*
X35953Y-47659D01*
X35953Y-47773D01*
X35997Y-47878D01*
X36077Y-47959D01*
X36182Y-48002D01*
X36296Y-48002D01*
X36402Y-47959D01*
X36482Y-47878D01*
X36526Y-47773D01*
X36526Y-47659D01*
X36526Y-55353D01*
X35955Y-55353D01*
X35955Y-49726D01*
X35916Y-49631D01*
X35916Y-39884D01*
X35872Y-39779D01*
X35792Y-39698D01*
X35739Y-39676D01*
X35739Y-35711D01*
X35695Y-35605D01*
X35695Y-35605D01*
X35695Y-24779D01*
X35695Y-21779D01*
X35633Y-21622D01*
X35624Y-21609D01*
X35551Y-21586D01*
X35539Y-21599D01*
X35539Y-21573D01*
X35516Y-21501D01*
X35361Y-21433D01*
X35193Y-21430D01*
X35036Y-21492D01*
X35022Y-21501D01*
X35000Y-21573D01*
X35269Y-21843D01*
X35539Y-21573D01*
X35539Y-21599D01*
X35282Y-21856D01*
X35551Y-22125D01*
X35624Y-22103D01*
X35692Y-21948D01*
X35695Y-21779D01*
X35695Y-24779D01*
X35633Y-24622D01*
X35624Y-24609D01*
X35551Y-24586D01*
X35282Y-24856D01*
X35551Y-25125D01*
X35624Y-25103D01*
X35692Y-24948D01*
X35695Y-24779D01*
X35695Y-35605D01*
X35615Y-35525D01*
X35509Y-35481D01*
X35396Y-35481D01*
X35290Y-35524D01*
X35210Y-35605D01*
X35166Y-35710D01*
X35166Y-35824D01*
X35209Y-35929D01*
X35290Y-36010D01*
X35395Y-36053D01*
X35509Y-36053D01*
X35614Y-36010D01*
X35695Y-35930D01*
X35738Y-35824D01*
X35739Y-35711D01*
X35739Y-39676D01*
X35687Y-39654D01*
X35573Y-39654D01*
X35483Y-39691D01*
X35483Y-39648D01*
X35439Y-39542D01*
X35359Y-39462D01*
X35254Y-39418D01*
X35140Y-39418D01*
X35034Y-39461D01*
X34954Y-39542D01*
X34910Y-39647D01*
X34910Y-39761D01*
X34954Y-39866D01*
X35034Y-39947D01*
X35139Y-39990D01*
X35253Y-39990D01*
X35343Y-39953D01*
X35343Y-39997D01*
X35387Y-40102D01*
X35467Y-40183D01*
X35572Y-40227D01*
X35686Y-40227D01*
X35791Y-40183D01*
X35872Y-40103D01*
X35916Y-39998D01*
X35916Y-39884D01*
X35916Y-49631D01*
X35912Y-49621D01*
X35831Y-49540D01*
X35726Y-49497D01*
X35612Y-49497D01*
X35507Y-49540D01*
X35426Y-49621D01*
X35383Y-49726D01*
X35383Y-49840D01*
X35426Y-49945D01*
X35506Y-50025D01*
X35612Y-50069D01*
X35725Y-50069D01*
X35831Y-50026D01*
X35911Y-49945D01*
X35955Y-49840D01*
X35955Y-49726D01*
X35955Y-55353D01*
X35660Y-55353D01*
X35660Y-52167D01*
X35616Y-52062D01*
X35536Y-51981D01*
X35431Y-51938D01*
X35317Y-51938D01*
X35212Y-51981D01*
X35131Y-52062D01*
X35087Y-52167D01*
X35087Y-52281D01*
X35131Y-52386D01*
X35211Y-52466D01*
X35316Y-52510D01*
X35430Y-52510D01*
X35535Y-52467D01*
X35616Y-52386D01*
X35660Y-52281D01*
X35660Y-52167D01*
X35660Y-55353D01*
X34557Y-55353D01*
X34557Y-54704D01*
X34557Y-53271D01*
X34580Y-53138D01*
X34619Y-53232D01*
X34699Y-53313D01*
X34805Y-53357D01*
X34918Y-53357D01*
X35024Y-53313D01*
X35104Y-53233D01*
X35148Y-53128D01*
X35148Y-53014D01*
X35104Y-52908D01*
X35024Y-52828D01*
X34919Y-52784D01*
X34805Y-52784D01*
X34700Y-52828D01*
X34619Y-52908D01*
X34677Y-52567D01*
X34508Y-37126D01*
X34508Y-31665D01*
X34522Y-31711D01*
X34677Y-31778D01*
X34846Y-31781D01*
X35003Y-31720D01*
X35016Y-31711D01*
X35039Y-31638D01*
X34769Y-31369D01*
X34764Y-31374D01*
X34751Y-31361D01*
X34756Y-31356D01*
X34751Y-31350D01*
X34764Y-31337D01*
X34769Y-31343D01*
X34775Y-31337D01*
X34788Y-31350D01*
X34782Y-31356D01*
X35051Y-31625D01*
X35124Y-31603D01*
X35192Y-31448D01*
X35195Y-31280D01*
X35353Y-31280D01*
X35509Y-31215D01*
X35628Y-31096D01*
X35693Y-30941D01*
X35693Y-30772D01*
X35629Y-30616D01*
X35510Y-30497D01*
X35354Y-30432D01*
X35193Y-30432D01*
X35193Y-30280D01*
X35353Y-30280D01*
X35509Y-30215D01*
X35628Y-30096D01*
X35693Y-29941D01*
X35693Y-29772D01*
X35629Y-29616D01*
X35510Y-29497D01*
X35354Y-29432D01*
X35192Y-29432D01*
X35195Y-29280D01*
X35353Y-29280D01*
X35509Y-29215D01*
X35628Y-29096D01*
X35693Y-28941D01*
X35693Y-28772D01*
X35629Y-28616D01*
X35510Y-28497D01*
X35354Y-28432D01*
X35193Y-28432D01*
X35193Y-28280D01*
X35353Y-28280D01*
X35509Y-28215D01*
X35628Y-28096D01*
X35693Y-27941D01*
X35693Y-27772D01*
X35629Y-27616D01*
X35510Y-27497D01*
X35354Y-27432D01*
X35192Y-27432D01*
X35195Y-27280D01*
X35353Y-27280D01*
X35509Y-27215D01*
X35628Y-27096D01*
X35693Y-26941D01*
X35693Y-26772D01*
X35629Y-26616D01*
X35510Y-26497D01*
X35354Y-26432D01*
X35193Y-26432D01*
X35193Y-26280D01*
X35353Y-26280D01*
X35509Y-26215D01*
X35628Y-26096D01*
X35693Y-25941D01*
X35693Y-25772D01*
X35629Y-25616D01*
X35510Y-25497D01*
X35354Y-25432D01*
X35193Y-25432D01*
X35193Y-25278D01*
X35346Y-25281D01*
X35503Y-25220D01*
X35516Y-25211D01*
X35539Y-25138D01*
X35269Y-24869D01*
X35264Y-24874D01*
X35251Y-24861D01*
X35256Y-24856D01*
X35251Y-24850D01*
X35264Y-24837D01*
X35269Y-24843D01*
X35539Y-24573D01*
X35516Y-24501D01*
X35361Y-24433D01*
X35193Y-24430D01*
X35193Y-24280D01*
X35353Y-24280D01*
X35509Y-24215D01*
X35628Y-24096D01*
X35693Y-23941D01*
X35693Y-23772D01*
X35629Y-23616D01*
X35510Y-23497D01*
X35354Y-23432D01*
X35193Y-23432D01*
X35193Y-23280D01*
X35353Y-23280D01*
X35509Y-23215D01*
X35628Y-23096D01*
X35693Y-22941D01*
X35693Y-22772D01*
X35629Y-22616D01*
X35510Y-22497D01*
X35354Y-22432D01*
X35193Y-22432D01*
X35193Y-22278D01*
X35346Y-22281D01*
X35503Y-22220D01*
X35516Y-22211D01*
X35539Y-22138D01*
X35269Y-21869D01*
X35264Y-21874D01*
X35251Y-21861D01*
X35256Y-21856D01*
X34987Y-21586D01*
X34914Y-21609D01*
X34847Y-21764D01*
X34844Y-21932D01*
X34685Y-21932D01*
X34529Y-21996D01*
X34508Y-22017D01*
X34508Y-20217D01*
X34686Y-20217D01*
X34686Y-20218D01*
X34621Y-20373D01*
X34621Y-20542D01*
X34685Y-20698D01*
X34804Y-20817D01*
X34960Y-20882D01*
X35121Y-20882D01*
X35121Y-21042D01*
X35185Y-21198D01*
X35304Y-21317D01*
X35460Y-21382D01*
X35629Y-21382D01*
X35785Y-21318D01*
X35904Y-21199D01*
X35969Y-21043D01*
X35969Y-20882D01*
X36121Y-20882D01*
X36121Y-21042D01*
X36185Y-21198D01*
X36304Y-21317D01*
X36460Y-21382D01*
X36629Y-21382D01*
X36785Y-21318D01*
X36904Y-21199D01*
X36969Y-21043D01*
X36969Y-20882D01*
X37121Y-20882D01*
X37121Y-21042D01*
X37185Y-21198D01*
X37304Y-21317D01*
X37460Y-21382D01*
X37629Y-21382D01*
X37785Y-21318D01*
X37904Y-21199D01*
X37969Y-21043D01*
X37969Y-20882D01*
X38121Y-20882D01*
X38121Y-21042D01*
X38185Y-21198D01*
X38304Y-21317D01*
X38460Y-21382D01*
X38629Y-21382D01*
X38785Y-21318D01*
X38904Y-21199D01*
X38969Y-21043D01*
X38969Y-20882D01*
X39121Y-20882D01*
X39121Y-21042D01*
X39185Y-21198D01*
X39304Y-21317D01*
X39460Y-21382D01*
X39629Y-21382D01*
X39785Y-21318D01*
X39904Y-21199D01*
X39969Y-21043D01*
X39969Y-20882D01*
X40121Y-20882D01*
X40121Y-21042D01*
X40185Y-21198D01*
X40304Y-21317D01*
X40460Y-21382D01*
X40629Y-21382D01*
X40785Y-21318D01*
X40904Y-21199D01*
X40969Y-21043D01*
X40969Y-20882D01*
X41121Y-20882D01*
X41121Y-21042D01*
X41185Y-21198D01*
X41304Y-21317D01*
X41460Y-21382D01*
X41629Y-21382D01*
X41785Y-21318D01*
X41904Y-21199D01*
X41969Y-21043D01*
X41969Y-20882D01*
X42121Y-20882D01*
X42121Y-21042D01*
X42185Y-21198D01*
X42304Y-21317D01*
X42460Y-21382D01*
X42629Y-21382D01*
X42785Y-21318D01*
X42904Y-21199D01*
X42969Y-21043D01*
X42969Y-20882D01*
X43121Y-20882D01*
X43121Y-21042D01*
X43185Y-21198D01*
X43304Y-21317D01*
X43460Y-21382D01*
X43629Y-21382D01*
X43653Y-21372D01*
X43651Y-21480D01*
X43712Y-21637D01*
X43721Y-21650D01*
X43794Y-21673D01*
X44063Y-21403D01*
X44058Y-21397D01*
X44071Y-21385D01*
X44076Y-21390D01*
X44082Y-21385D01*
X44095Y-21397D01*
X44089Y-21403D01*
X44095Y-21409D01*
X44082Y-21421D01*
X44076Y-21416D01*
X43807Y-21685D01*
X43830Y-21758D01*
X43984Y-21825D01*
X44152Y-21829D01*
X44152Y-21987D01*
X44217Y-22143D01*
X44336Y-22262D01*
X44492Y-22327D01*
X44660Y-22327D01*
X44816Y-22263D01*
X44936Y-22144D01*
X45000Y-21988D01*
X45000Y-21827D01*
X45152Y-21827D01*
X45152Y-21987D01*
X45185Y-22066D01*
X45153Y-22080D01*
X45072Y-22160D01*
X45028Y-22265D01*
X45028Y-22379D01*
X45072Y-22484D01*
X45152Y-22565D01*
X45257Y-22609D01*
X45371Y-22609D01*
X45476Y-22565D01*
X45557Y-22485D01*
X45601Y-22380D01*
X45601Y-22327D01*
X45660Y-22327D01*
X45816Y-22263D01*
X45936Y-22144D01*
X46000Y-21988D01*
X46000Y-21827D01*
X46152Y-21827D01*
X46152Y-21987D01*
X46217Y-22143D01*
X46336Y-22262D01*
X46492Y-22327D01*
X46660Y-22327D01*
X46816Y-22263D01*
X46936Y-22144D01*
X47000Y-21988D01*
X47000Y-21827D01*
X47154Y-21827D01*
X47151Y-21980D01*
X47212Y-22137D01*
X47221Y-22150D01*
X47294Y-22173D01*
X47563Y-21903D01*
X47558Y-21897D01*
X47571Y-21885D01*
X47576Y-21890D01*
X47582Y-21885D01*
X47595Y-21897D01*
X47589Y-21903D01*
X47859Y-22173D01*
X47931Y-22150D01*
X47999Y-21995D01*
X48002Y-21827D01*
X48152Y-21827D01*
X48152Y-21987D01*
X48217Y-22143D01*
X48336Y-22262D01*
X48492Y-22327D01*
X48660Y-22327D01*
X48816Y-22263D01*
X48936Y-22144D01*
X49000Y-21988D01*
X49000Y-21827D01*
X49152Y-21827D01*
X49152Y-21987D01*
X49217Y-22143D01*
X49336Y-22262D01*
X49492Y-22327D01*
X49660Y-22327D01*
X49816Y-22263D01*
X49936Y-22144D01*
X50000Y-21988D01*
X50000Y-21827D01*
X50152Y-21827D01*
X50152Y-21987D01*
X50217Y-22143D01*
X50336Y-22262D01*
X50492Y-22327D01*
X50660Y-22327D01*
X50816Y-22263D01*
X50936Y-22144D01*
X51000Y-21988D01*
X51000Y-21827D01*
X51152Y-21827D01*
X51152Y-21987D01*
X51217Y-22143D01*
X51336Y-22262D01*
X51492Y-22327D01*
X51660Y-22327D01*
X51816Y-22263D01*
X51936Y-22144D01*
X52000Y-21988D01*
X52000Y-21827D01*
X52152Y-21827D01*
X52152Y-21987D01*
X52217Y-22143D01*
X52336Y-22262D01*
X52492Y-22327D01*
X52660Y-22327D01*
X52816Y-22263D01*
X52936Y-22144D01*
X53000Y-21988D01*
X53000Y-21827D01*
X53154Y-21827D01*
X53151Y-21980D01*
X53212Y-22137D01*
X53221Y-22150D01*
X53294Y-22173D01*
X53563Y-21903D01*
X53558Y-21897D01*
X53571Y-21885D01*
X53576Y-21890D01*
X53582Y-21885D01*
X53595Y-21897D01*
X53589Y-21903D01*
X53595Y-21909D01*
X53582Y-21921D01*
X53576Y-21916D01*
X53307Y-22185D01*
X53330Y-22258D01*
X53484Y-22325D01*
X53653Y-22329D01*
X53786Y-22276D01*
X53786Y-22276D01*
G37*
G54D16*
X53786Y-22276D02*
X53784Y-23610D01*
X53679Y-23504D01*
X53523Y-23440D01*
X53355Y-23440D01*
X53199Y-23504D01*
X53079Y-23623D01*
X53015Y-23779D01*
X53014Y-23940D01*
X52855Y-23940D01*
X52699Y-24004D01*
X52579Y-24123D01*
X52515Y-24279D01*
X52514Y-24448D01*
X52579Y-24604D01*
X52698Y-24723D01*
X52854Y-24788D01*
X53016Y-24788D01*
X53013Y-24940D01*
X52855Y-24940D01*
X52699Y-25004D01*
X52579Y-25123D01*
X52515Y-25279D01*
X52514Y-25448D01*
X52579Y-25604D01*
X52698Y-25723D01*
X52854Y-25788D01*
X53015Y-25788D01*
X53014Y-25940D01*
X52855Y-25940D01*
X52699Y-26004D01*
X52579Y-26123D01*
X52515Y-26279D01*
X52514Y-26448D01*
X52579Y-26604D01*
X52698Y-26723D01*
X52854Y-26788D01*
X53015Y-26788D01*
X53014Y-26940D01*
X52855Y-26940D01*
X52699Y-27004D01*
X52579Y-27123D01*
X52515Y-27279D01*
X52514Y-27448D01*
X52579Y-27604D01*
X52698Y-27723D01*
X52854Y-27788D01*
X53015Y-27788D01*
X53014Y-27941D01*
X52862Y-27938D01*
X52705Y-28000D01*
X52692Y-28009D01*
X52669Y-28081D01*
X52938Y-28351D01*
X52944Y-28345D01*
X52957Y-28358D01*
X52951Y-28364D01*
X52957Y-28369D01*
X52944Y-28382D01*
X52938Y-28376D01*
X52926Y-28389D01*
X52926Y-28364D01*
X52656Y-28094D01*
X52583Y-28117D01*
X52516Y-28272D01*
X52513Y-28440D01*
X52575Y-28597D01*
X52583Y-28610D01*
X52656Y-28633D01*
X52926Y-28364D01*
X52926Y-28389D01*
X52669Y-28646D01*
X52692Y-28719D01*
X52846Y-28786D01*
X53015Y-28789D01*
X53014Y-28940D01*
X52855Y-28940D01*
X52699Y-29004D01*
X52579Y-29123D01*
X52515Y-29279D01*
X52514Y-29448D01*
X52579Y-29604D01*
X52698Y-29723D01*
X52854Y-29788D01*
X53016Y-29788D01*
X53013Y-29940D01*
X52855Y-29940D01*
X52699Y-30004D01*
X52579Y-30123D01*
X52515Y-30279D01*
X52514Y-30448D01*
X52579Y-30604D01*
X52698Y-30723D01*
X52854Y-30788D01*
X53015Y-30788D01*
X53014Y-30941D01*
X52862Y-30938D01*
X52705Y-31000D01*
X52692Y-31009D01*
X52669Y-31081D01*
X52938Y-31351D01*
X52944Y-31345D01*
X52957Y-31358D01*
X52951Y-31364D01*
X52957Y-31369D01*
X52944Y-31382D01*
X52938Y-31376D01*
X52926Y-31389D01*
X52926Y-31364D01*
X52656Y-31094D01*
X52583Y-31117D01*
X52516Y-31272D01*
X52513Y-31440D01*
X52575Y-31597D01*
X52583Y-31610D01*
X52656Y-31633D01*
X52926Y-31364D01*
X52926Y-31389D01*
X52669Y-31646D01*
X52692Y-31719D01*
X52846Y-31786D01*
X53015Y-31789D01*
X53014Y-31940D01*
X52855Y-31940D01*
X52699Y-32004D01*
X52579Y-32123D01*
X52515Y-32279D01*
X52514Y-32448D01*
X52579Y-32604D01*
X52698Y-32723D01*
X52854Y-32788D01*
X53015Y-32788D01*
X53014Y-32941D01*
X52862Y-32938D01*
X52705Y-33000D01*
X52692Y-33009D01*
X52669Y-33081D01*
X52938Y-33351D01*
X52944Y-33345D01*
X52957Y-33358D01*
X52951Y-33364D01*
X53221Y-33633D01*
X53293Y-33610D01*
X53361Y-33456D01*
X53364Y-33288D01*
X53522Y-33288D01*
X53678Y-33223D01*
X53774Y-33128D01*
X53750Y-54863D01*
X53729Y-54796D01*
X53613Y-54746D01*
X53613Y-34057D01*
X53569Y-33952D01*
X53489Y-33871D01*
X53383Y-33828D01*
X53270Y-33827D01*
X53208Y-33853D01*
X53208Y-33646D01*
X52938Y-33376D01*
X52926Y-33389D01*
X52926Y-33364D01*
X52656Y-33094D01*
X52583Y-33117D01*
X52516Y-33272D01*
X52513Y-33440D01*
X52575Y-33597D01*
X52583Y-33610D01*
X52656Y-33633D01*
X52926Y-33364D01*
X52926Y-33389D01*
X52669Y-33646D01*
X52692Y-33719D01*
X52846Y-33786D01*
X53015Y-33789D01*
X53172Y-33727D01*
X53185Y-33719D01*
X53208Y-33646D01*
X53208Y-33853D01*
X53164Y-33871D01*
X53084Y-33951D01*
X53040Y-34056D01*
X53040Y-34170D01*
X53083Y-34276D01*
X53164Y-34356D01*
X53269Y-34400D01*
X53383Y-34400D01*
X53488Y-34356D01*
X53569Y-34276D01*
X53612Y-34171D01*
X53613Y-34057D01*
X53613Y-54746D01*
X53574Y-54729D01*
X53406Y-54726D01*
X53406Y-54567D01*
X53341Y-54411D01*
X53222Y-54292D01*
X53066Y-54227D01*
X52898Y-54227D01*
X52742Y-54291D01*
X52623Y-54411D01*
X52558Y-54566D01*
X52558Y-54727D01*
X52406Y-54727D01*
X52406Y-54567D01*
X52341Y-54411D01*
X52222Y-54292D01*
X52066Y-54227D01*
X51898Y-54227D01*
X51821Y-54259D01*
X51821Y-34096D01*
X51778Y-33991D01*
X51742Y-33956D01*
X51742Y-32049D01*
X51699Y-31944D01*
X51619Y-31863D01*
X51513Y-31820D01*
X51400Y-31820D01*
X51294Y-31863D01*
X51250Y-31907D01*
X51250Y-30396D01*
X51207Y-30290D01*
X51182Y-30265D01*
X51187Y-30260D01*
X51231Y-30155D01*
X51231Y-30041D01*
X51187Y-29936D01*
X51107Y-29855D01*
X51002Y-29812D01*
X50975Y-29812D01*
X50975Y-27010D01*
X50931Y-26905D01*
X50851Y-26824D01*
X50746Y-26780D01*
X50632Y-26780D01*
X50527Y-26824D01*
X50446Y-26904D01*
X50402Y-27009D01*
X50402Y-27123D01*
X50446Y-27228D01*
X50526Y-27309D01*
X50631Y-27353D01*
X50745Y-27353D01*
X50850Y-27309D01*
X50931Y-27229D01*
X50975Y-27124D01*
X50975Y-27010D01*
X50975Y-29812D01*
X50888Y-29812D01*
X50782Y-29855D01*
X50702Y-29936D01*
X50658Y-30041D01*
X50658Y-30155D01*
X50702Y-30260D01*
X50727Y-30285D01*
X50722Y-30290D01*
X50678Y-30395D01*
X50678Y-30509D01*
X50721Y-30614D01*
X50802Y-30695D01*
X50907Y-30738D01*
X51021Y-30739D01*
X51126Y-30695D01*
X51207Y-30615D01*
X51250Y-30509D01*
X51250Y-30396D01*
X51250Y-31907D01*
X51214Y-31943D01*
X51170Y-32049D01*
X51170Y-32162D01*
X51199Y-32234D01*
X51155Y-32278D01*
X51111Y-32383D01*
X51111Y-32497D01*
X51154Y-32602D01*
X51235Y-32683D01*
X51340Y-32727D01*
X51454Y-32727D01*
X51559Y-32683D01*
X51640Y-32603D01*
X51683Y-32498D01*
X51683Y-32384D01*
X51654Y-32313D01*
X51699Y-32268D01*
X51742Y-32163D01*
X51742Y-32049D01*
X51742Y-33956D01*
X51697Y-33911D01*
X51592Y-33867D01*
X51478Y-33867D01*
X51373Y-33910D01*
X51292Y-33991D01*
X51249Y-34096D01*
X51249Y-34210D01*
X51292Y-34315D01*
X51373Y-34396D01*
X51478Y-34439D01*
X51592Y-34439D01*
X51697Y-34396D01*
X51777Y-34315D01*
X51821Y-34210D01*
X51821Y-34096D01*
X51821Y-54259D01*
X51742Y-54291D01*
X51623Y-54411D01*
X51605Y-54454D01*
X51605Y-46911D01*
X51561Y-46806D01*
X51481Y-46725D01*
X51376Y-46682D01*
X51262Y-46682D01*
X51156Y-46725D01*
X51076Y-46806D01*
X51042Y-46887D01*
X51021Y-46879D01*
X50907Y-46879D01*
X50837Y-46908D01*
X50837Y-45809D01*
X50793Y-45704D01*
X50713Y-45623D01*
X50620Y-45585D01*
X50620Y-45553D01*
X50577Y-45448D01*
X50496Y-45367D01*
X50483Y-45361D01*
X50483Y-30081D01*
X50439Y-29975D01*
X50359Y-29895D01*
X50254Y-29851D01*
X50140Y-29851D01*
X50034Y-29895D01*
X49954Y-29975D01*
X49931Y-30029D01*
X49931Y-25888D01*
X49888Y-25782D01*
X49808Y-25702D01*
X49702Y-25658D01*
X49588Y-25658D01*
X49483Y-25702D01*
X49403Y-25782D01*
X49359Y-25887D01*
X49359Y-26001D01*
X49402Y-26106D01*
X49483Y-26187D01*
X49588Y-26231D01*
X49702Y-26231D01*
X49807Y-26187D01*
X49888Y-26107D01*
X49931Y-26002D01*
X49931Y-25888D01*
X49931Y-30029D01*
X49910Y-30080D01*
X49910Y-30194D01*
X49951Y-30293D01*
X49934Y-30310D01*
X49890Y-30415D01*
X49890Y-30529D01*
X49934Y-30634D01*
X50014Y-30714D01*
X50119Y-30758D01*
X50233Y-30758D01*
X50339Y-30715D01*
X50419Y-30634D01*
X50463Y-30529D01*
X50463Y-30415D01*
X50422Y-30316D01*
X50439Y-30300D01*
X50483Y-30194D01*
X50483Y-30081D01*
X50483Y-45361D01*
X50391Y-45324D01*
X50277Y-45323D01*
X50172Y-45367D01*
X50092Y-45447D01*
X50048Y-45553D01*
X50048Y-45666D01*
X50091Y-45772D01*
X50172Y-45852D01*
X50264Y-45891D01*
X50264Y-45922D01*
X50308Y-46028D01*
X50388Y-46108D01*
X50493Y-46152D01*
X50607Y-46152D01*
X50713Y-46108D01*
X50793Y-46028D01*
X50837Y-45923D01*
X50837Y-45809D01*
X50837Y-46908D01*
X50802Y-46922D01*
X50722Y-47003D01*
X50688Y-47084D01*
X50667Y-47076D01*
X50553Y-47075D01*
X50542Y-47080D01*
X50542Y-46596D01*
X50498Y-46491D01*
X50418Y-46411D01*
X50313Y-46367D01*
X50199Y-46367D01*
X50093Y-46410D01*
X50013Y-46491D01*
X49971Y-46592D01*
X49971Y-33585D01*
X49927Y-33479D01*
X49902Y-33454D01*
X49907Y-33449D01*
X49951Y-33344D01*
X49951Y-33230D01*
X49908Y-33125D01*
X49827Y-33044D01*
X49722Y-33001D01*
X49608Y-33001D01*
X49503Y-33044D01*
X49422Y-33125D01*
X49379Y-33230D01*
X49379Y-33344D01*
X49422Y-33449D01*
X49447Y-33474D01*
X49442Y-33479D01*
X49398Y-33584D01*
X49398Y-33698D01*
X49442Y-33803D01*
X49522Y-33884D01*
X49627Y-33927D01*
X49741Y-33928D01*
X49846Y-33884D01*
X49927Y-33804D01*
X49971Y-33698D01*
X49971Y-33585D01*
X49971Y-46592D01*
X49969Y-46596D01*
X49969Y-46710D01*
X50013Y-46815D01*
X50093Y-46896D01*
X50198Y-46939D01*
X50312Y-46939D01*
X50417Y-46896D01*
X50498Y-46815D01*
X50542Y-46710D01*
X50542Y-46596D01*
X50542Y-47080D01*
X50448Y-47119D01*
X50367Y-47199D01*
X50324Y-47305D01*
X50323Y-47418D01*
X50367Y-47524D01*
X50447Y-47604D01*
X50553Y-47648D01*
X50666Y-47648D01*
X50772Y-47604D01*
X50852Y-47524D01*
X50886Y-47442D01*
X50907Y-47451D01*
X51021Y-47451D01*
X51126Y-47408D01*
X51207Y-47327D01*
X51240Y-47246D01*
X51261Y-47254D01*
X51375Y-47254D01*
X51480Y-47211D01*
X51561Y-47130D01*
X51605Y-47025D01*
X51605Y-46911D01*
X51605Y-54454D01*
X51558Y-54566D01*
X51558Y-54727D01*
X51406Y-54727D01*
X51406Y-54567D01*
X51341Y-54411D01*
X51222Y-54292D01*
X51066Y-54227D01*
X50898Y-54227D01*
X50742Y-54291D01*
X50623Y-54411D01*
X50558Y-54566D01*
X50558Y-54727D01*
X50406Y-54727D01*
X50406Y-54567D01*
X50341Y-54411D01*
X50222Y-54292D01*
X50066Y-54227D01*
X49898Y-54227D01*
X49742Y-54291D01*
X49715Y-54318D01*
X49715Y-47581D01*
X49671Y-47475D01*
X49591Y-47395D01*
X49557Y-47381D01*
X49557Y-46340D01*
X49514Y-46235D01*
X49433Y-46155D01*
X49401Y-46141D01*
X49433Y-46128D01*
X49514Y-46048D01*
X49557Y-45943D01*
X49557Y-45829D01*
X49514Y-45723D01*
X49433Y-45643D01*
X49328Y-45599D01*
X49222Y-45599D01*
X49276Y-45577D01*
X49356Y-45496D01*
X49400Y-45391D01*
X49400Y-45277D01*
X49356Y-45172D01*
X49276Y-45092D01*
X49223Y-45070D01*
X49223Y-28073D01*
X49179Y-27968D01*
X49099Y-27887D01*
X48994Y-27843D01*
X48880Y-27843D01*
X48775Y-27887D01*
X48694Y-27967D01*
X48650Y-28072D01*
X48650Y-28186D01*
X48694Y-28291D01*
X48774Y-28372D01*
X48879Y-28416D01*
X48993Y-28416D01*
X49098Y-28372D01*
X49179Y-28292D01*
X49223Y-28187D01*
X49223Y-28073D01*
X49223Y-45070D01*
X49171Y-45048D01*
X49136Y-45048D01*
X49136Y-43593D01*
X49092Y-43488D01*
X49012Y-43407D01*
X48907Y-43363D01*
X48793Y-43363D01*
X48688Y-43407D01*
X48607Y-43487D01*
X48586Y-43538D01*
X48586Y-37893D01*
X48542Y-37788D01*
X48536Y-37781D01*
X48536Y-36493D01*
X48534Y-36488D01*
X48534Y-33191D01*
X48490Y-33086D01*
X48473Y-33068D01*
X48514Y-32970D01*
X48514Y-32856D01*
X48471Y-32751D01*
X48465Y-32746D01*
X48490Y-32721D01*
X48534Y-32616D01*
X48534Y-32502D01*
X48490Y-32397D01*
X48410Y-32316D01*
X48305Y-32272D01*
X48191Y-32272D01*
X48086Y-32316D01*
X48005Y-32396D01*
X47961Y-32501D01*
X47961Y-32615D01*
X48005Y-32720D01*
X48010Y-32726D01*
X47985Y-32751D01*
X47942Y-32856D01*
X47942Y-32970D01*
X47985Y-33075D01*
X48002Y-33092D01*
X47961Y-33190D01*
X47961Y-33304D01*
X47998Y-33394D01*
X47994Y-33394D01*
X47889Y-33438D01*
X47877Y-33449D01*
X47846Y-33436D01*
X47846Y-22185D01*
X47576Y-21916D01*
X47307Y-22185D01*
X47330Y-22258D01*
X47484Y-22325D01*
X47653Y-22329D01*
X47810Y-22267D01*
X47823Y-22258D01*
X47846Y-22185D01*
X47846Y-33436D01*
X47793Y-33414D01*
X47679Y-33414D01*
X47609Y-33443D01*
X47609Y-29431D01*
X47565Y-29326D01*
X47485Y-29245D01*
X47380Y-29202D01*
X47266Y-29201D01*
X47160Y-29245D01*
X47080Y-29325D01*
X47036Y-29431D01*
X47036Y-29544D01*
X47080Y-29650D01*
X47160Y-29730D01*
X47265Y-29774D01*
X47379Y-29774D01*
X47484Y-29730D01*
X47565Y-29650D01*
X47609Y-29545D01*
X47609Y-29431D01*
X47609Y-33443D01*
X47589Y-33451D01*
X47589Y-33112D01*
X47545Y-33007D01*
X47465Y-32926D01*
X47360Y-32883D01*
X47264Y-32883D01*
X47235Y-32853D01*
X47235Y-32403D01*
X47191Y-32298D01*
X47111Y-32218D01*
X47006Y-32174D01*
X46892Y-32174D01*
X46786Y-32217D01*
X46706Y-32298D01*
X46673Y-32378D01*
X46640Y-32298D01*
X46559Y-32218D01*
X46454Y-32174D01*
X46340Y-32174D01*
X46235Y-32217D01*
X46211Y-32242D01*
X46211Y-22837D01*
X46167Y-22731D01*
X46087Y-22651D01*
X45982Y-22607D01*
X45868Y-22607D01*
X45763Y-22650D01*
X45682Y-22731D01*
X45639Y-22836D01*
X45638Y-22950D01*
X45682Y-23055D01*
X45762Y-23136D01*
X45868Y-23179D01*
X45981Y-23179D01*
X46087Y-23136D01*
X46167Y-23056D01*
X46211Y-22950D01*
X46211Y-22837D01*
X46211Y-32242D01*
X46155Y-32298D01*
X46111Y-32403D01*
X46111Y-32517D01*
X46154Y-32622D01*
X46235Y-32703D01*
X46340Y-32746D01*
X46454Y-32746D01*
X46559Y-32703D01*
X46640Y-32622D01*
X46673Y-32543D01*
X46706Y-32622D01*
X46786Y-32703D01*
X46891Y-32746D01*
X47005Y-32746D01*
X47110Y-32703D01*
X47191Y-32622D01*
X47234Y-32517D01*
X47235Y-32403D01*
X47235Y-32853D01*
X47189Y-32808D01*
X47084Y-32765D01*
X46970Y-32764D01*
X46865Y-32808D01*
X46785Y-32888D01*
X46741Y-32993D01*
X46741Y-33107D01*
X46784Y-33213D01*
X46849Y-33277D01*
X46804Y-33321D01*
X46761Y-33427D01*
X46760Y-33540D01*
X46804Y-33646D01*
X46884Y-33726D01*
X46990Y-33770D01*
X47103Y-33770D01*
X47209Y-33727D01*
X47289Y-33646D01*
X47333Y-33541D01*
X47333Y-33455D01*
X47359Y-33455D01*
X47465Y-33412D01*
X47545Y-33331D01*
X47589Y-33226D01*
X47589Y-33112D01*
X47589Y-33451D01*
X47574Y-33458D01*
X47493Y-33538D01*
X47450Y-33643D01*
X47449Y-33757D01*
X47493Y-33862D01*
X47573Y-33943D01*
X47679Y-33986D01*
X47792Y-33987D01*
X47898Y-33943D01*
X47909Y-33932D01*
X47925Y-33938D01*
X47849Y-33969D01*
X47769Y-34050D01*
X47725Y-34155D01*
X47725Y-34269D01*
X47731Y-34284D01*
X47731Y-34284D01*
X47651Y-34365D01*
X47607Y-34470D01*
X47607Y-34575D01*
X47600Y-34575D01*
X47495Y-34619D01*
X47414Y-34699D01*
X47371Y-34805D01*
X47371Y-34918D01*
X47414Y-35024D01*
X47495Y-35104D01*
X47600Y-35148D01*
X47714Y-35148D01*
X47819Y-35104D01*
X47899Y-35024D01*
X47943Y-34919D01*
X47943Y-34813D01*
X47950Y-34813D01*
X48055Y-34770D01*
X48136Y-34689D01*
X48179Y-34584D01*
X48179Y-34470D01*
X48173Y-34455D01*
X48173Y-34455D01*
X48254Y-34374D01*
X48297Y-34269D01*
X48298Y-34155D01*
X48254Y-34050D01*
X48174Y-33970D01*
X48137Y-33955D01*
X48213Y-33923D01*
X48293Y-33843D01*
X48337Y-33738D01*
X48337Y-33624D01*
X48300Y-33534D01*
X48304Y-33534D01*
X48409Y-33490D01*
X48490Y-33410D01*
X48534Y-33305D01*
X48534Y-33191D01*
X48534Y-36488D01*
X48492Y-36388D01*
X48412Y-36307D01*
X48307Y-36263D01*
X48193Y-36263D01*
X48088Y-36307D01*
X48007Y-36387D01*
X47963Y-36492D01*
X47963Y-36606D01*
X48007Y-36711D01*
X48087Y-36792D01*
X48192Y-36836D01*
X48306Y-36836D01*
X48411Y-36792D01*
X48492Y-36712D01*
X48536Y-36607D01*
X48536Y-36493D01*
X48536Y-37781D01*
X48462Y-37707D01*
X48357Y-37663D01*
X48243Y-37663D01*
X48138Y-37707D01*
X48057Y-37787D01*
X48013Y-37892D01*
X48013Y-38006D01*
X48057Y-38111D01*
X48137Y-38192D01*
X48242Y-38236D01*
X48356Y-38236D01*
X48461Y-38192D01*
X48542Y-38112D01*
X48586Y-38007D01*
X48586Y-37893D01*
X48586Y-43538D01*
X48563Y-43592D01*
X48563Y-43706D01*
X48607Y-43811D01*
X48687Y-43892D01*
X48792Y-43936D01*
X48906Y-43936D01*
X49011Y-43892D01*
X49092Y-43812D01*
X49136Y-43707D01*
X49136Y-43593D01*
X49136Y-45048D01*
X49057Y-45048D01*
X48952Y-45091D01*
X48871Y-45172D01*
X48828Y-45277D01*
X48827Y-45391D01*
X48871Y-45496D01*
X48951Y-45577D01*
X49056Y-45620D01*
X49163Y-45620D01*
X49109Y-45643D01*
X49029Y-45723D01*
X48985Y-45828D01*
X48985Y-45942D01*
X49028Y-46047D01*
X49109Y-46128D01*
X49141Y-46141D01*
X49109Y-46154D01*
X49029Y-46235D01*
X48985Y-46340D01*
X48985Y-46454D01*
X49028Y-46559D01*
X49109Y-46640D01*
X49214Y-46683D01*
X49328Y-46683D01*
X49433Y-46640D01*
X49514Y-46559D01*
X49557Y-46454D01*
X49557Y-46340D01*
X49557Y-47381D01*
X49486Y-47351D01*
X49372Y-47351D01*
X49267Y-47395D01*
X49186Y-47475D01*
X49142Y-47580D01*
X49142Y-47694D01*
X49186Y-47799D01*
X49266Y-47880D01*
X49371Y-47923D01*
X49485Y-47924D01*
X49591Y-47880D01*
X49671Y-47800D01*
X49715Y-47694D01*
X49715Y-47581D01*
X49715Y-54318D01*
X49623Y-54411D01*
X49558Y-54566D01*
X49558Y-54727D01*
X49406Y-54727D01*
X49406Y-54567D01*
X49341Y-54411D01*
X49222Y-54292D01*
X49183Y-54276D01*
X49183Y-51714D01*
X49140Y-51609D01*
X49059Y-51529D01*
X48954Y-51485D01*
X48840Y-51485D01*
X48840Y-51485D01*
X48864Y-51461D01*
X48908Y-51356D01*
X48908Y-51335D01*
X48980Y-51305D01*
X49061Y-51225D01*
X49105Y-51120D01*
X49105Y-51006D01*
X49061Y-50901D01*
X48981Y-50820D01*
X48876Y-50776D01*
X48820Y-50776D01*
X48825Y-50772D01*
X48865Y-50676D01*
X48961Y-50636D01*
X49041Y-50556D01*
X49085Y-50450D01*
X49085Y-50337D01*
X49041Y-50231D01*
X48961Y-50151D01*
X48856Y-50107D01*
X48801Y-50107D01*
X48805Y-50103D01*
X48843Y-50010D01*
X48855Y-50010D01*
X48961Y-49967D01*
X49041Y-49886D01*
X49085Y-49781D01*
X49085Y-49667D01*
X49041Y-49562D01*
X48961Y-49481D01*
X48856Y-49438D01*
X48742Y-49438D01*
X48708Y-49452D01*
X48746Y-49414D01*
X48784Y-49321D01*
X48796Y-49321D01*
X48902Y-49278D01*
X48982Y-49197D01*
X49026Y-49092D01*
X49026Y-48978D01*
X48982Y-48873D01*
X48902Y-48792D01*
X48797Y-48749D01*
X48702Y-48749D01*
X48707Y-48745D01*
X48745Y-48652D01*
X48757Y-48652D01*
X48862Y-48608D01*
X48943Y-48528D01*
X48986Y-48423D01*
X48987Y-48309D01*
X48943Y-48204D01*
X48863Y-48123D01*
X48757Y-48079D01*
X48644Y-48079D01*
X48538Y-48123D01*
X48528Y-48134D01*
X48528Y-40154D01*
X48493Y-40070D01*
X48429Y-40006D01*
X48345Y-39971D01*
X48254Y-39971D01*
X48186Y-40000D01*
X48186Y-39493D01*
X48142Y-39388D01*
X48062Y-39307D01*
X47957Y-39263D01*
X47843Y-39263D01*
X47738Y-39307D01*
X47657Y-39387D01*
X47613Y-39492D01*
X47613Y-39606D01*
X47657Y-39711D01*
X47737Y-39792D01*
X47842Y-39836D01*
X47956Y-39836D01*
X48061Y-39792D01*
X48142Y-39712D01*
X48186Y-39607D01*
X48186Y-39493D01*
X48186Y-40000D01*
X48170Y-40006D01*
X48106Y-40070D01*
X48071Y-40154D01*
X48071Y-40245D01*
X48106Y-40329D01*
X48170Y-40393D01*
X48254Y-40428D01*
X48345Y-40428D01*
X48429Y-40393D01*
X48493Y-40329D01*
X48528Y-40245D01*
X48528Y-40154D01*
X48528Y-48134D01*
X48458Y-48203D01*
X48419Y-48296D01*
X48407Y-48296D01*
X48302Y-48339D01*
X48222Y-48420D01*
X48219Y-48426D01*
X48219Y-44490D01*
X48175Y-44385D01*
X48095Y-44304D01*
X48078Y-44297D01*
X48078Y-40654D01*
X48043Y-40570D01*
X47979Y-40506D01*
X47895Y-40471D01*
X47804Y-40471D01*
X47720Y-40506D01*
X47656Y-40570D01*
X47656Y-40571D01*
X47604Y-40571D01*
X47595Y-40575D01*
X47593Y-40570D01*
X47529Y-40506D01*
X47445Y-40471D01*
X47354Y-40471D01*
X47270Y-40506D01*
X47206Y-40570D01*
X47171Y-40654D01*
X47171Y-40745D01*
X47206Y-40829D01*
X47270Y-40893D01*
X47354Y-40928D01*
X47445Y-40928D01*
X47454Y-40924D01*
X47456Y-40929D01*
X47520Y-40993D01*
X47604Y-41028D01*
X47695Y-41028D01*
X47779Y-40993D01*
X47843Y-40929D01*
X47843Y-40928D01*
X47895Y-40928D01*
X47979Y-40893D01*
X48043Y-40829D01*
X48078Y-40745D01*
X48078Y-40654D01*
X48078Y-44297D01*
X47990Y-44261D01*
X47876Y-44260D01*
X47771Y-44304D01*
X47690Y-44384D01*
X47646Y-44490D01*
X47646Y-44586D01*
X47613Y-44599D01*
X47533Y-44680D01*
X47489Y-44785D01*
X47489Y-44873D01*
X47436Y-44895D01*
X47355Y-44975D01*
X47312Y-45080D01*
X47312Y-45156D01*
X47236Y-45156D01*
X47131Y-45200D01*
X47077Y-45253D01*
X47077Y-34667D01*
X47034Y-34562D01*
X46953Y-34481D01*
X46848Y-34438D01*
X46734Y-34438D01*
X46629Y-34481D01*
X46548Y-34562D01*
X46505Y-34667D01*
X46505Y-34781D01*
X46548Y-34886D01*
X46628Y-34966D01*
X46734Y-35010D01*
X46848Y-35010D01*
X46953Y-34967D01*
X47033Y-34886D01*
X47077Y-34781D01*
X47077Y-34667D01*
X47077Y-45253D01*
X47050Y-45280D01*
X47007Y-45385D01*
X47007Y-45499D01*
X47050Y-45604D01*
X47130Y-45685D01*
X47236Y-45729D01*
X47349Y-45729D01*
X47455Y-45685D01*
X47535Y-45605D01*
X47579Y-45500D01*
X47579Y-45423D01*
X47655Y-45424D01*
X47760Y-45380D01*
X47840Y-45300D01*
X47884Y-45194D01*
X47884Y-45107D01*
X47937Y-45085D01*
X48018Y-45004D01*
X48061Y-44899D01*
X48061Y-44803D01*
X48094Y-44790D01*
X48175Y-44709D01*
X48219Y-44604D01*
X48219Y-44490D01*
X48219Y-48426D01*
X48182Y-48516D01*
X48086Y-48556D01*
X48005Y-48636D01*
X47961Y-48742D01*
X47961Y-48855D01*
X48005Y-48961D01*
X48085Y-49041D01*
X48190Y-49085D01*
X48265Y-49085D01*
X48261Y-49089D01*
X48217Y-49194D01*
X48217Y-49226D01*
X48125Y-49265D01*
X48044Y-49345D01*
X48001Y-49450D01*
X48001Y-49564D01*
X48044Y-49669D01*
X48125Y-49750D01*
X48230Y-49794D01*
X48314Y-49794D01*
X48276Y-49883D01*
X48276Y-49904D01*
X48204Y-49934D01*
X48123Y-50014D01*
X48079Y-50119D01*
X48079Y-50233D01*
X48123Y-50339D01*
X48203Y-50419D01*
X48308Y-50463D01*
X48333Y-50463D01*
X48301Y-50540D01*
X48289Y-50540D01*
X48184Y-50583D01*
X48103Y-50664D01*
X48060Y-50769D01*
X48060Y-50883D01*
X48103Y-50988D01*
X48184Y-51069D01*
X48289Y-51112D01*
X48403Y-51113D01*
X48403Y-51112D01*
X48379Y-51136D01*
X48335Y-51242D01*
X48335Y-51262D01*
X48263Y-51292D01*
X48182Y-51373D01*
X48139Y-51478D01*
X48138Y-51592D01*
X48182Y-51697D01*
X48262Y-51777D01*
X48368Y-51821D01*
X48481Y-51821D01*
X48587Y-51778D01*
X48611Y-51753D01*
X48611Y-51828D01*
X48654Y-51933D01*
X48735Y-52014D01*
X48840Y-52057D01*
X48954Y-52057D01*
X49059Y-52014D01*
X49140Y-51933D01*
X49183Y-51828D01*
X49183Y-51714D01*
X49183Y-54276D01*
X49066Y-54227D01*
X48898Y-54227D01*
X48742Y-54291D01*
X48623Y-54411D01*
X48558Y-54566D01*
X48558Y-54727D01*
X48406Y-54727D01*
X48406Y-54567D01*
X48341Y-54411D01*
X48222Y-54292D01*
X48066Y-54227D01*
X47898Y-54227D01*
X47742Y-54291D01*
X47623Y-54411D01*
X47558Y-54566D01*
X47558Y-54727D01*
X47406Y-54727D01*
X47406Y-54567D01*
X47341Y-54411D01*
X47222Y-54292D01*
X47066Y-54227D01*
X46898Y-54227D01*
X46802Y-54267D01*
X46802Y-43683D01*
X46758Y-43578D01*
X46678Y-43497D01*
X46572Y-43453D01*
X46459Y-43453D01*
X46353Y-43497D01*
X46303Y-43547D01*
X46303Y-40979D01*
X46268Y-40895D01*
X46204Y-40831D01*
X46186Y-40824D01*
X46186Y-39493D01*
X46142Y-39388D01*
X46062Y-39307D01*
X46014Y-39287D01*
X46014Y-30100D01*
X45971Y-29995D01*
X45890Y-29914D01*
X45837Y-29892D01*
X45837Y-29490D01*
X45793Y-29385D01*
X45713Y-29304D01*
X45608Y-29261D01*
X45601Y-29261D01*
X45601Y-29155D01*
X45557Y-29050D01*
X45522Y-29015D01*
X45557Y-28981D01*
X45601Y-28876D01*
X45601Y-28762D01*
X45557Y-28656D01*
X45477Y-28576D01*
X45372Y-28532D01*
X45258Y-28532D01*
X45153Y-28576D01*
X45072Y-28656D01*
X45028Y-28761D01*
X45028Y-28875D01*
X45072Y-28980D01*
X45107Y-29015D01*
X45072Y-29050D01*
X45028Y-29155D01*
X45028Y-29269D01*
X45072Y-29374D01*
X45152Y-29455D01*
X45257Y-29498D01*
X45265Y-29498D01*
X45264Y-29603D01*
X45308Y-29709D01*
X45388Y-29789D01*
X45493Y-29833D01*
X45607Y-29833D01*
X45713Y-29790D01*
X45793Y-29709D01*
X45837Y-29604D01*
X45837Y-29490D01*
X45837Y-29892D01*
X45785Y-29871D01*
X45671Y-29871D01*
X45566Y-29914D01*
X45485Y-29995D01*
X45442Y-30100D01*
X45442Y-30214D01*
X45485Y-30319D01*
X45566Y-30399D01*
X45671Y-30443D01*
X45785Y-30443D01*
X45890Y-30400D01*
X45970Y-30319D01*
X46014Y-30214D01*
X46014Y-30100D01*
X46014Y-39287D01*
X45957Y-39263D01*
X45956Y-39263D01*
X45956Y-37367D01*
X45956Y-36581D01*
X45956Y-35005D01*
X45956Y-34219D01*
X45930Y-34157D01*
X45883Y-34110D01*
X45821Y-34084D01*
X45778Y-34084D01*
X45778Y-32935D01*
X45734Y-32830D01*
X45654Y-32749D01*
X45640Y-32743D01*
X45640Y-30809D01*
X45597Y-30704D01*
X45516Y-30623D01*
X45411Y-30579D01*
X45297Y-30579D01*
X45192Y-30623D01*
X45111Y-30703D01*
X45068Y-30808D01*
X45068Y-30922D01*
X45111Y-31028D01*
X45191Y-31108D01*
X45297Y-31152D01*
X45411Y-31152D01*
X45516Y-31108D01*
X45596Y-31028D01*
X45640Y-30923D01*
X45640Y-30809D01*
X45640Y-32743D01*
X45549Y-32705D01*
X45470Y-32705D01*
X45476Y-32703D01*
X45557Y-32622D01*
X45601Y-32517D01*
X45601Y-32403D01*
X45557Y-32298D01*
X45477Y-32218D01*
X45372Y-32174D01*
X45258Y-32174D01*
X45227Y-32187D01*
X45227Y-32148D01*
X45183Y-32042D01*
X45103Y-31962D01*
X44998Y-31918D01*
X44884Y-31918D01*
X44779Y-31961D01*
X44698Y-32042D01*
X44654Y-32147D01*
X44654Y-32261D01*
X44698Y-32366D01*
X44778Y-32447D01*
X44883Y-32490D01*
X44997Y-32490D01*
X45028Y-32478D01*
X45028Y-32517D01*
X45072Y-32622D01*
X45152Y-32703D01*
X45257Y-32746D01*
X45336Y-32746D01*
X45330Y-32749D01*
X45249Y-32829D01*
X45205Y-32934D01*
X45205Y-33048D01*
X45249Y-33154D01*
X45329Y-33234D01*
X45434Y-33278D01*
X45548Y-33278D01*
X45654Y-33234D01*
X45734Y-33154D01*
X45778Y-33049D01*
X45778Y-32935D01*
X45778Y-34084D01*
X45754Y-34084D01*
X45594Y-34084D01*
X45550Y-34102D01*
X45506Y-34084D01*
X45439Y-34084D01*
X45326Y-34084D01*
X45326Y-33904D01*
X45326Y-33589D01*
X45300Y-33527D01*
X45253Y-33480D01*
X45191Y-33454D01*
X45124Y-33454D01*
X44964Y-33454D01*
X44902Y-33480D01*
X44855Y-33527D01*
X44829Y-33589D01*
X44829Y-33656D01*
X44829Y-33971D01*
X44829Y-34477D01*
X44540Y-34477D01*
X44540Y-33904D01*
X44540Y-33589D01*
X44514Y-33527D01*
X44467Y-33480D01*
X44405Y-33454D01*
X44338Y-33454D01*
X44242Y-33454D01*
X44242Y-27482D01*
X44199Y-27377D01*
X44119Y-27296D01*
X44013Y-27253D01*
X44006Y-27253D01*
X44006Y-23742D01*
X43963Y-23637D01*
X43882Y-23556D01*
X43777Y-23513D01*
X43663Y-23512D01*
X43558Y-23556D01*
X43477Y-23636D01*
X43434Y-23742D01*
X43434Y-23855D01*
X43477Y-23961D01*
X43558Y-24041D01*
X43663Y-24085D01*
X43777Y-24085D01*
X43882Y-24041D01*
X43962Y-23961D01*
X44006Y-23856D01*
X44006Y-23742D01*
X44006Y-27253D01*
X43900Y-27253D01*
X43856Y-27270D01*
X43823Y-27237D01*
X43718Y-27194D01*
X43604Y-27194D01*
X43499Y-27237D01*
X43418Y-27317D01*
X43375Y-27423D01*
X43375Y-27536D01*
X43418Y-27642D01*
X43499Y-27722D01*
X43604Y-27766D01*
X43718Y-27766D01*
X43761Y-27748D01*
X43794Y-27781D01*
X43899Y-27825D01*
X44013Y-27825D01*
X44118Y-27782D01*
X44199Y-27701D01*
X44242Y-27596D01*
X44242Y-27482D01*
X44242Y-33454D01*
X44178Y-33454D01*
X44116Y-33480D01*
X44069Y-33527D01*
X44043Y-33589D01*
X44043Y-33656D01*
X44043Y-33971D01*
X44043Y-34084D01*
X44023Y-34084D01*
X43863Y-34084D01*
X43819Y-34102D01*
X43775Y-34084D01*
X43708Y-34084D01*
X43691Y-34084D01*
X43691Y-33525D01*
X43648Y-33420D01*
X43567Y-33340D01*
X43462Y-33296D01*
X43435Y-33296D01*
X43435Y-29431D01*
X43392Y-29326D01*
X43311Y-29245D01*
X43278Y-29231D01*
X43278Y-23821D01*
X43234Y-23716D01*
X43154Y-23635D01*
X43049Y-23591D01*
X42935Y-23591D01*
X42830Y-23635D01*
X42749Y-23715D01*
X42705Y-23820D01*
X42705Y-23934D01*
X42749Y-24039D01*
X42829Y-24120D01*
X42934Y-24164D01*
X43048Y-24164D01*
X43154Y-24120D01*
X43234Y-24040D01*
X43278Y-23935D01*
X43278Y-23821D01*
X43278Y-29231D01*
X43206Y-29202D01*
X43092Y-29201D01*
X42987Y-29245D01*
X42907Y-29325D01*
X42863Y-29431D01*
X42863Y-29443D01*
X42771Y-29481D01*
X42690Y-29562D01*
X42652Y-29654D01*
X42620Y-29654D01*
X42515Y-29698D01*
X42434Y-29778D01*
X42427Y-29795D01*
X42419Y-29792D01*
X42305Y-29792D01*
X42200Y-29835D01*
X42119Y-29916D01*
X42076Y-30021D01*
X42075Y-30135D01*
X42119Y-30240D01*
X42199Y-30321D01*
X42305Y-30364D01*
X42418Y-30365D01*
X42524Y-30321D01*
X42604Y-30241D01*
X42611Y-30223D01*
X42619Y-30227D01*
X42733Y-30227D01*
X42839Y-30183D01*
X42919Y-30103D01*
X42958Y-30010D01*
X42989Y-30010D01*
X43094Y-29967D01*
X43175Y-29886D01*
X43219Y-29781D01*
X43219Y-29769D01*
X43311Y-29730D01*
X43392Y-29650D01*
X43435Y-29545D01*
X43435Y-29431D01*
X43435Y-33296D01*
X43348Y-33296D01*
X43243Y-33339D01*
X43218Y-33364D01*
X43213Y-33359D01*
X43108Y-33316D01*
X42994Y-33316D01*
X42889Y-33359D01*
X42808Y-33440D01*
X42765Y-33545D01*
X42764Y-33659D01*
X42808Y-33764D01*
X42888Y-33844D01*
X42993Y-33888D01*
X43107Y-33888D01*
X43213Y-33845D01*
X43238Y-33820D01*
X43243Y-33825D01*
X43348Y-33868D01*
X43462Y-33868D01*
X43567Y-33825D01*
X43648Y-33745D01*
X43691Y-33639D01*
X43691Y-33525D01*
X43691Y-34084D01*
X43548Y-34084D01*
X43486Y-34110D01*
X43439Y-34157D01*
X43413Y-34219D01*
X43413Y-34286D01*
X43413Y-35072D01*
X43413Y-36648D01*
X43413Y-37434D01*
X43439Y-37495D01*
X43486Y-37543D01*
X43548Y-37568D01*
X43615Y-37568D01*
X43775Y-37568D01*
X43819Y-37550D01*
X43863Y-37568D01*
X43930Y-37568D01*
X44043Y-37568D01*
X44043Y-37749D01*
X44043Y-38064D01*
X44069Y-38125D01*
X44116Y-38173D01*
X44178Y-38198D01*
X44245Y-38198D01*
X44405Y-38198D01*
X44467Y-38173D01*
X44514Y-38126D01*
X44540Y-38064D01*
X44540Y-37997D01*
X44540Y-37682D01*
X44540Y-37175D01*
X44829Y-37175D01*
X44829Y-37749D01*
X44829Y-38064D01*
X44855Y-38125D01*
X44902Y-38173D01*
X44964Y-38198D01*
X45031Y-38198D01*
X45191Y-38198D01*
X45253Y-38173D01*
X45300Y-38126D01*
X45326Y-38064D01*
X45326Y-37997D01*
X45326Y-37682D01*
X45326Y-37568D01*
X45346Y-37568D01*
X45506Y-37568D01*
X45550Y-37550D01*
X45594Y-37568D01*
X45661Y-37568D01*
X45821Y-37568D01*
X45883Y-37543D01*
X45930Y-37496D01*
X45956Y-37434D01*
X45956Y-37367D01*
X45956Y-39263D01*
X45843Y-39263D01*
X45738Y-39307D01*
X45717Y-39328D01*
X45674Y-39285D01*
X45568Y-39241D01*
X45455Y-39241D01*
X45349Y-39284D01*
X45269Y-39365D01*
X45225Y-39470D01*
X45225Y-39584D01*
X45269Y-39689D01*
X45349Y-39770D01*
X45454Y-39813D01*
X45568Y-39813D01*
X45673Y-39770D01*
X45694Y-39749D01*
X45737Y-39792D01*
X45842Y-39836D01*
X45956Y-39836D01*
X46061Y-39792D01*
X46142Y-39712D01*
X46186Y-39607D01*
X46186Y-39493D01*
X46186Y-40824D01*
X46128Y-40800D01*
X46128Y-40729D01*
X46093Y-40645D01*
X46029Y-40581D01*
X45945Y-40546D01*
X45854Y-40546D01*
X45770Y-40581D01*
X45706Y-40645D01*
X45671Y-40729D01*
X45671Y-40820D01*
X45706Y-40904D01*
X45770Y-40968D01*
X45846Y-40999D01*
X45846Y-41070D01*
X45881Y-41154D01*
X45945Y-41218D01*
X46029Y-41253D01*
X46120Y-41253D01*
X46204Y-41218D01*
X46268Y-41154D01*
X46303Y-41070D01*
X46303Y-40979D01*
X46303Y-43547D01*
X46273Y-43577D01*
X46250Y-43631D01*
X46250Y-43545D01*
X46207Y-43440D01*
X46126Y-43359D01*
X46021Y-43316D01*
X45907Y-43316D01*
X45802Y-43359D01*
X45722Y-43440D01*
X45678Y-43545D01*
X45678Y-43659D01*
X45721Y-43764D01*
X45802Y-43844D01*
X45907Y-43888D01*
X46021Y-43888D01*
X46126Y-43845D01*
X46207Y-43764D01*
X46229Y-43710D01*
X46229Y-43796D01*
X46272Y-43902D01*
X46353Y-43982D01*
X46458Y-44026D01*
X46572Y-44026D01*
X46677Y-43982D01*
X46758Y-43902D01*
X46801Y-43797D01*
X46802Y-43683D01*
X46802Y-54267D01*
X46742Y-54291D01*
X46623Y-54411D01*
X46558Y-54566D01*
X46558Y-54727D01*
X46406Y-54727D01*
X46406Y-54567D01*
X46341Y-54411D01*
X46236Y-54305D01*
X46236Y-46843D01*
X46192Y-46738D01*
X46112Y-46657D01*
X46093Y-46649D01*
X46093Y-45356D01*
X46049Y-45251D01*
X45969Y-45170D01*
X45864Y-45127D01*
X45750Y-45127D01*
X45645Y-45170D01*
X45564Y-45251D01*
X45520Y-45356D01*
X45520Y-45470D01*
X45564Y-45575D01*
X45644Y-45655D01*
X45749Y-45699D01*
X45863Y-45699D01*
X45969Y-45656D01*
X46049Y-45575D01*
X46093Y-45470D01*
X46093Y-45356D01*
X46093Y-46649D01*
X46007Y-46613D01*
X45893Y-46613D01*
X45788Y-46657D01*
X45707Y-46737D01*
X45663Y-46842D01*
X45663Y-46921D01*
X45566Y-46961D01*
X45485Y-47042D01*
X45442Y-47147D01*
X45442Y-47261D01*
X45485Y-47366D01*
X45563Y-47445D01*
X45563Y-47556D01*
X45607Y-47661D01*
X45687Y-47742D01*
X45792Y-47786D01*
X45906Y-47786D01*
X46011Y-47742D01*
X46092Y-47662D01*
X46136Y-47557D01*
X46136Y-47443D01*
X46092Y-47338D01*
X46014Y-47259D01*
X46014Y-47183D01*
X46111Y-47142D01*
X46192Y-47062D01*
X46236Y-46957D01*
X46236Y-46843D01*
X46236Y-54305D01*
X46222Y-54292D01*
X46211Y-54287D01*
X46211Y-52502D01*
X46167Y-52397D01*
X46087Y-52316D01*
X45982Y-52272D01*
X45975Y-52272D01*
X45975Y-52246D01*
X45931Y-52141D01*
X45851Y-52060D01*
X45746Y-52016D01*
X45632Y-52016D01*
X45527Y-52060D01*
X45446Y-52140D01*
X45402Y-52245D01*
X45402Y-52359D01*
X45446Y-52465D01*
X45526Y-52545D01*
X45631Y-52589D01*
X45638Y-52589D01*
X45638Y-52615D01*
X45682Y-52720D01*
X45762Y-52801D01*
X45868Y-52845D01*
X45981Y-52845D01*
X46087Y-52801D01*
X46167Y-52721D01*
X46211Y-52616D01*
X46211Y-52502D01*
X46211Y-54287D01*
X46066Y-54227D01*
X45898Y-54227D01*
X45742Y-54291D01*
X45623Y-54411D01*
X45558Y-54566D01*
X45558Y-54727D01*
X45406Y-54727D01*
X45406Y-54567D01*
X45384Y-54515D01*
X45384Y-42659D01*
X45341Y-42554D01*
X45267Y-42480D01*
X45267Y-42395D01*
X45232Y-42311D01*
X45168Y-42247D01*
X45086Y-42213D01*
X45086Y-39493D01*
X45042Y-39388D01*
X44962Y-39307D01*
X44857Y-39263D01*
X44743Y-39263D01*
X44638Y-39307D01*
X44557Y-39387D01*
X44513Y-39492D01*
X44513Y-39606D01*
X44557Y-39711D01*
X44637Y-39792D01*
X44742Y-39836D01*
X44856Y-39836D01*
X44961Y-39792D01*
X45042Y-39712D01*
X45086Y-39607D01*
X45086Y-39493D01*
X45086Y-42213D01*
X45084Y-42212D01*
X45028Y-42212D01*
X45028Y-42204D01*
X44993Y-42120D01*
X44929Y-42056D01*
X44845Y-42021D01*
X44778Y-42021D01*
X44778Y-42004D01*
X44743Y-41920D01*
X44679Y-41856D01*
X44628Y-41835D01*
X44628Y-41804D01*
X44593Y-41720D01*
X44529Y-41656D01*
X44445Y-41621D01*
X44354Y-41621D01*
X44270Y-41656D01*
X44206Y-41720D01*
X44203Y-41729D01*
X44203Y-39554D01*
X44168Y-39470D01*
X44104Y-39406D01*
X44020Y-39371D01*
X43929Y-39371D01*
X43927Y-39372D01*
X43928Y-39274D01*
X43884Y-39168D01*
X43804Y-39088D01*
X43698Y-39044D01*
X43585Y-39044D01*
X43479Y-39087D01*
X43399Y-39168D01*
X43355Y-39273D01*
X43355Y-39387D01*
X43398Y-39492D01*
X43479Y-39573D01*
X43584Y-39616D01*
X43698Y-39616D01*
X43746Y-39596D01*
X43746Y-39645D01*
X43781Y-39729D01*
X43845Y-39793D01*
X43929Y-39828D01*
X44020Y-39828D01*
X44104Y-39793D01*
X44168Y-39729D01*
X44203Y-39645D01*
X44203Y-39554D01*
X44203Y-41729D01*
X44195Y-41747D01*
X44154Y-41706D01*
X44078Y-41675D01*
X44078Y-40454D01*
X44043Y-40370D01*
X43979Y-40306D01*
X43895Y-40271D01*
X43804Y-40271D01*
X43720Y-40306D01*
X43656Y-40370D01*
X43621Y-40454D01*
X43621Y-40545D01*
X43656Y-40629D01*
X43720Y-40693D01*
X43804Y-40728D01*
X43895Y-40728D01*
X43979Y-40693D01*
X44043Y-40629D01*
X44078Y-40545D01*
X44078Y-40454D01*
X44078Y-41675D01*
X44070Y-41671D01*
X43979Y-41671D01*
X43899Y-41704D01*
X43820Y-41671D01*
X43729Y-41671D01*
X43645Y-41706D01*
X43626Y-41725D01*
X43521Y-41682D01*
X43407Y-41682D01*
X43302Y-41725D01*
X43222Y-41806D01*
X43178Y-41911D01*
X43178Y-42025D01*
X43221Y-42130D01*
X43302Y-42211D01*
X43407Y-42254D01*
X43521Y-42254D01*
X43626Y-42211D01*
X43707Y-42130D01*
X43711Y-42120D01*
X43729Y-42128D01*
X43820Y-42128D01*
X43900Y-42095D01*
X43979Y-42128D01*
X44070Y-42128D01*
X44154Y-42093D01*
X44218Y-42029D01*
X44229Y-42002D01*
X44270Y-42043D01*
X44321Y-42064D01*
X44321Y-42095D01*
X44356Y-42179D01*
X44420Y-42243D01*
X44504Y-42278D01*
X44571Y-42278D01*
X44571Y-42295D01*
X44606Y-42379D01*
X44670Y-42443D01*
X44754Y-42478D01*
X44811Y-42478D01*
X44811Y-42486D01*
X44845Y-42569D01*
X44848Y-42572D01*
X44812Y-42659D01*
X44812Y-42773D01*
X44855Y-42878D01*
X44936Y-42959D01*
X45041Y-43002D01*
X45155Y-43002D01*
X45260Y-42959D01*
X45340Y-42878D01*
X45384Y-42773D01*
X45384Y-42659D01*
X45384Y-54515D01*
X45365Y-54467D01*
X45365Y-51714D01*
X45321Y-51609D01*
X45241Y-51529D01*
X45135Y-51485D01*
X45022Y-51485D01*
X45021Y-51485D01*
X45045Y-51461D01*
X45089Y-51356D01*
X45089Y-51349D01*
X45096Y-51349D01*
X45201Y-51305D01*
X45281Y-51225D01*
X45325Y-51120D01*
X45325Y-51006D01*
X45282Y-50901D01*
X45201Y-50820D01*
X45096Y-50776D01*
X44982Y-50776D01*
X44982Y-50776D01*
X44986Y-50772D01*
X45025Y-50679D01*
X45096Y-50679D01*
X45201Y-50636D01*
X45281Y-50556D01*
X45325Y-50450D01*
X45325Y-50337D01*
X45282Y-50231D01*
X45201Y-50151D01*
X45096Y-50107D01*
X44982Y-50107D01*
X44881Y-50149D01*
X44927Y-50103D01*
X44966Y-50010D01*
X45036Y-50010D01*
X45142Y-49967D01*
X45222Y-49886D01*
X45266Y-49781D01*
X45266Y-49667D01*
X45223Y-49562D01*
X45142Y-49481D01*
X45037Y-49438D01*
X44923Y-49438D01*
X44855Y-49466D01*
X44907Y-49414D01*
X44946Y-49321D01*
X44977Y-49321D01*
X45083Y-49278D01*
X45163Y-49197D01*
X45207Y-49092D01*
X45207Y-48978D01*
X45164Y-48873D01*
X45083Y-48792D01*
X44978Y-48749D01*
X44884Y-48749D01*
X44888Y-48745D01*
X44926Y-48652D01*
X44958Y-48652D01*
X45063Y-48608D01*
X45144Y-48528D01*
X45187Y-48423D01*
X45187Y-48309D01*
X45150Y-48218D01*
X45187Y-48128D01*
X45187Y-48014D01*
X45144Y-47908D01*
X45063Y-47828D01*
X44958Y-47784D01*
X44844Y-47784D01*
X44794Y-47805D01*
X44794Y-47797D01*
X44750Y-47692D01*
X44724Y-47665D01*
X44728Y-47664D01*
X44809Y-47583D01*
X44853Y-47478D01*
X44853Y-47364D01*
X44809Y-47259D01*
X44729Y-47178D01*
X44626Y-47136D01*
X44651Y-47111D01*
X44695Y-47006D01*
X44695Y-46892D01*
X44665Y-46819D01*
X44765Y-46860D01*
X44879Y-46861D01*
X44984Y-46817D01*
X45065Y-46737D01*
X45109Y-46631D01*
X45109Y-46518D01*
X45089Y-46470D01*
X45089Y-44864D01*
X45045Y-44759D01*
X44965Y-44678D01*
X44860Y-44635D01*
X44746Y-44634D01*
X44641Y-44678D01*
X44560Y-44758D01*
X44516Y-44864D01*
X44516Y-44977D01*
X44560Y-45083D01*
X44640Y-45163D01*
X44745Y-45207D01*
X44859Y-45207D01*
X44965Y-45164D01*
X45045Y-45083D01*
X45089Y-44978D01*
X45089Y-44864D01*
X45089Y-46470D01*
X45065Y-46412D01*
X44985Y-46332D01*
X44880Y-46288D01*
X44766Y-46288D01*
X44715Y-46309D01*
X44715Y-46203D01*
X44714Y-46201D01*
X44789Y-46126D01*
X44833Y-46021D01*
X44833Y-45907D01*
X44790Y-45802D01*
X44709Y-45722D01*
X44604Y-45678D01*
X44490Y-45678D01*
X44439Y-45699D01*
X44439Y-43112D01*
X44396Y-43007D01*
X44315Y-42926D01*
X44210Y-42883D01*
X44096Y-42883D01*
X43991Y-42926D01*
X43911Y-43006D01*
X43867Y-43112D01*
X43867Y-43225D01*
X43910Y-43331D01*
X43991Y-43411D01*
X44096Y-43455D01*
X44210Y-43455D01*
X44315Y-43412D01*
X44396Y-43331D01*
X44439Y-43226D01*
X44439Y-43112D01*
X44439Y-45699D01*
X44385Y-45721D01*
X44304Y-45802D01*
X44261Y-45907D01*
X44260Y-46021D01*
X44261Y-46022D01*
X44186Y-46097D01*
X44142Y-46202D01*
X44142Y-46316D01*
X44186Y-46421D01*
X44266Y-46502D01*
X44371Y-46546D01*
X44485Y-46546D01*
X44536Y-46525D01*
X44536Y-46631D01*
X44566Y-46704D01*
X44466Y-46662D01*
X44352Y-46662D01*
X44247Y-46706D01*
X44166Y-46786D01*
X44123Y-46891D01*
X44123Y-47005D01*
X44166Y-47110D01*
X44247Y-47191D01*
X44349Y-47233D01*
X44324Y-47258D01*
X44280Y-47364D01*
X44280Y-47477D01*
X44324Y-47583D01*
X44350Y-47609D01*
X44345Y-47611D01*
X44265Y-47691D01*
X44221Y-47797D01*
X44221Y-47911D01*
X44265Y-48016D01*
X44345Y-48096D01*
X44450Y-48140D01*
X44564Y-48140D01*
X44615Y-48119D01*
X44615Y-48127D01*
X44652Y-48218D01*
X44620Y-48296D01*
X44588Y-48296D01*
X44483Y-48339D01*
X44403Y-48420D01*
X44364Y-48512D01*
X44352Y-48512D01*
X44247Y-48556D01*
X44166Y-48636D01*
X44123Y-48742D01*
X44123Y-48855D01*
X44166Y-48961D01*
X44247Y-49041D01*
X44352Y-49085D01*
X44427Y-49085D01*
X44422Y-49089D01*
X44379Y-49194D01*
X44379Y-49226D01*
X44286Y-49265D01*
X44206Y-49345D01*
X44162Y-49450D01*
X44162Y-49564D01*
X44206Y-49669D01*
X44286Y-49750D01*
X44391Y-49794D01*
X44436Y-49794D01*
X44398Y-49883D01*
X44398Y-49890D01*
X44352Y-49890D01*
X44247Y-49934D01*
X44166Y-50014D01*
X44123Y-50119D01*
X44123Y-50233D01*
X44166Y-50339D01*
X44247Y-50419D01*
X44352Y-50463D01*
X44466Y-50463D01*
X44501Y-50448D01*
X44463Y-50540D01*
X44392Y-50540D01*
X44286Y-50583D01*
X44206Y-50664D01*
X44162Y-50769D01*
X44162Y-50883D01*
X44206Y-50988D01*
X44286Y-51069D01*
X44391Y-51112D01*
X44505Y-51113D01*
X44610Y-51069D01*
X44691Y-50989D01*
X44729Y-50896D01*
X44800Y-50896D01*
X44801Y-50896D01*
X44796Y-50900D01*
X44753Y-51005D01*
X44753Y-51012D01*
X44746Y-51012D01*
X44641Y-51056D01*
X44560Y-51136D01*
X44516Y-51242D01*
X44516Y-51249D01*
X44510Y-51249D01*
X44405Y-51292D01*
X44324Y-51373D01*
X44280Y-51478D01*
X44280Y-51592D01*
X44324Y-51697D01*
X44404Y-51777D01*
X44509Y-51821D01*
X44623Y-51821D01*
X44728Y-51778D01*
X44792Y-51714D01*
X44792Y-51828D01*
X44835Y-51933D01*
X44916Y-52014D01*
X45021Y-52057D01*
X45135Y-52057D01*
X45240Y-52014D01*
X45321Y-51933D01*
X45364Y-51828D01*
X45365Y-51714D01*
X45365Y-54467D01*
X45341Y-54411D01*
X45222Y-54292D01*
X45066Y-54227D01*
X44898Y-54227D01*
X44742Y-54291D01*
X44623Y-54411D01*
X44558Y-54566D01*
X44558Y-54727D01*
X44406Y-54727D01*
X44406Y-54567D01*
X44341Y-54411D01*
X44222Y-54292D01*
X44066Y-54227D01*
X43898Y-54227D01*
X43742Y-54291D01*
X43623Y-54411D01*
X43558Y-54566D01*
X43558Y-54735D01*
X43622Y-54891D01*
X43741Y-55010D01*
X43897Y-55075D01*
X44058Y-55075D01*
X44058Y-55235D01*
X44106Y-55353D01*
X43416Y-55353D01*
X43416Y-46183D01*
X43372Y-46078D01*
X43305Y-46011D01*
X43317Y-45982D01*
X43317Y-45868D01*
X43274Y-45763D01*
X43193Y-45682D01*
X43088Y-45639D01*
X43069Y-45639D01*
X43075Y-45636D01*
X43155Y-45556D01*
X43199Y-45450D01*
X43199Y-45337D01*
X43156Y-45231D01*
X43119Y-45194D01*
X43160Y-45096D01*
X43160Y-44982D01*
X43159Y-44981D01*
X43193Y-44967D01*
X43274Y-44886D01*
X43317Y-44781D01*
X43317Y-44667D01*
X43274Y-44562D01*
X43193Y-44481D01*
X43088Y-44438D01*
X43042Y-44438D01*
X43042Y-38545D01*
X42998Y-38440D01*
X42918Y-38359D01*
X42813Y-38316D01*
X42699Y-38316D01*
X42593Y-38359D01*
X42513Y-38440D01*
X42469Y-38545D01*
X42469Y-38659D01*
X42513Y-38764D01*
X42593Y-38844D01*
X42698Y-38888D01*
X42812Y-38888D01*
X42917Y-38845D01*
X42998Y-38764D01*
X43042Y-38659D01*
X43042Y-38545D01*
X43042Y-44438D01*
X42974Y-44438D01*
X42869Y-44481D01*
X42788Y-44562D01*
X42745Y-44667D01*
X42745Y-44781D01*
X42745Y-44782D01*
X42712Y-44796D01*
X42631Y-44877D01*
X42589Y-44978D01*
X42589Y-41104D01*
X42545Y-40999D01*
X42465Y-40918D01*
X42360Y-40875D01*
X42246Y-40875D01*
X42195Y-40896D01*
X42195Y-37108D01*
X42152Y-37003D01*
X42071Y-36922D01*
X41998Y-36892D01*
X41998Y-23840D01*
X41955Y-23735D01*
X41874Y-23655D01*
X41769Y-23611D01*
X41655Y-23611D01*
X41550Y-23654D01*
X41470Y-23735D01*
X41426Y-23840D01*
X41426Y-23954D01*
X41469Y-24059D01*
X41550Y-24140D01*
X41655Y-24183D01*
X41769Y-24183D01*
X41874Y-24140D01*
X41955Y-24059D01*
X41998Y-23954D01*
X41998Y-23840D01*
X41998Y-36892D01*
X41979Y-36884D01*
X41979Y-34805D01*
X41935Y-34700D01*
X41920Y-34684D01*
X41920Y-25573D01*
X41876Y-25468D01*
X41857Y-25448D01*
X41880Y-25391D01*
X41880Y-25277D01*
X41839Y-25177D01*
X41880Y-25076D01*
X41880Y-24963D01*
X41837Y-24857D01*
X41756Y-24777D01*
X41651Y-24733D01*
X41537Y-24733D01*
X41432Y-24776D01*
X41351Y-24857D01*
X41308Y-24962D01*
X41308Y-25076D01*
X41349Y-25177D01*
X41308Y-25277D01*
X41308Y-25391D01*
X41337Y-25461D01*
X41281Y-25461D01*
X41176Y-25505D01*
X41096Y-25585D01*
X41052Y-25690D01*
X41052Y-25804D01*
X41095Y-25909D01*
X41176Y-25990D01*
X41281Y-26034D01*
X41395Y-26034D01*
X41500Y-25990D01*
X41575Y-25915D01*
X41576Y-25916D01*
X41690Y-25916D01*
X41795Y-25872D01*
X41876Y-25792D01*
X41920Y-25687D01*
X41920Y-25573D01*
X41920Y-34684D01*
X41880Y-34645D01*
X41880Y-29116D01*
X41837Y-29011D01*
X41756Y-28930D01*
X41651Y-28887D01*
X41537Y-28886D01*
X41526Y-28891D01*
X41526Y-26813D01*
X41482Y-26708D01*
X41402Y-26627D01*
X41297Y-26583D01*
X41183Y-26583D01*
X41078Y-26627D01*
X40997Y-26707D01*
X40953Y-26812D01*
X40953Y-26926D01*
X40997Y-27031D01*
X41077Y-27112D01*
X41182Y-27156D01*
X41296Y-27156D01*
X41402Y-27112D01*
X41482Y-27032D01*
X41526Y-26927D01*
X41526Y-26813D01*
X41526Y-28891D01*
X41432Y-28930D01*
X41428Y-28935D01*
X41428Y-27443D01*
X41384Y-27338D01*
X41304Y-27257D01*
X41198Y-27213D01*
X41085Y-27213D01*
X40979Y-27257D01*
X40899Y-27337D01*
X40855Y-27442D01*
X40855Y-27454D01*
X40844Y-27450D01*
X40730Y-27449D01*
X40625Y-27493D01*
X40620Y-27498D01*
X40595Y-27474D01*
X40502Y-27435D01*
X40502Y-25140D01*
X40459Y-25034D01*
X40447Y-25023D01*
X40483Y-24939D01*
X40483Y-24825D01*
X40439Y-24719D01*
X40359Y-24639D01*
X40254Y-24595D01*
X40140Y-24595D01*
X40034Y-24639D01*
X39954Y-24719D01*
X39910Y-24824D01*
X39910Y-24938D01*
X39954Y-25043D01*
X39965Y-25055D01*
X39930Y-25139D01*
X39930Y-25253D01*
X39973Y-25358D01*
X40054Y-25439D01*
X40159Y-25483D01*
X40273Y-25483D01*
X40378Y-25439D01*
X40459Y-25359D01*
X40502Y-25254D01*
X40502Y-25140D01*
X40502Y-27435D01*
X40490Y-27430D01*
X40376Y-27430D01*
X40271Y-27473D01*
X40190Y-27554D01*
X40146Y-27659D01*
X40146Y-27773D01*
X40190Y-27878D01*
X40270Y-27959D01*
X40375Y-28002D01*
X40489Y-28002D01*
X40594Y-27959D01*
X40600Y-27953D01*
X40625Y-27978D01*
X40730Y-28022D01*
X40844Y-28022D01*
X40949Y-27979D01*
X41029Y-27898D01*
X41073Y-27793D01*
X41073Y-27781D01*
X41084Y-27786D01*
X41198Y-27786D01*
X41303Y-27742D01*
X41384Y-27662D01*
X41427Y-27557D01*
X41428Y-27443D01*
X41428Y-28935D01*
X41351Y-29010D01*
X41308Y-29116D01*
X41308Y-29229D01*
X41351Y-29335D01*
X41432Y-29415D01*
X41537Y-29459D01*
X41651Y-29459D01*
X41756Y-29416D01*
X41836Y-29335D01*
X41880Y-29230D01*
X41880Y-29116D01*
X41880Y-34645D01*
X41855Y-34619D01*
X41750Y-34576D01*
X41636Y-34575D01*
X41530Y-34619D01*
X41450Y-34699D01*
X41406Y-34805D01*
X41406Y-34918D01*
X41450Y-35024D01*
X41530Y-35104D01*
X41635Y-35148D01*
X41749Y-35148D01*
X41854Y-35104D01*
X41935Y-35024D01*
X41979Y-34919D01*
X41979Y-34805D01*
X41979Y-36884D01*
X41966Y-36879D01*
X41852Y-36879D01*
X41747Y-36922D01*
X41666Y-37003D01*
X41644Y-37056D01*
X41644Y-35789D01*
X41601Y-35684D01*
X41520Y-35603D01*
X41415Y-35560D01*
X41301Y-35560D01*
X41196Y-35603D01*
X41115Y-35684D01*
X41072Y-35789D01*
X41071Y-35903D01*
X41115Y-36008D01*
X41195Y-36088D01*
X41301Y-36132D01*
X41414Y-36132D01*
X41520Y-36089D01*
X41600Y-36008D01*
X41644Y-35903D01*
X41644Y-35789D01*
X41644Y-37056D01*
X41623Y-37108D01*
X41623Y-37222D01*
X41666Y-37327D01*
X41747Y-37407D01*
X41852Y-37451D01*
X41966Y-37451D01*
X42071Y-37408D01*
X42151Y-37327D01*
X42195Y-37222D01*
X42195Y-37108D01*
X42195Y-40896D01*
X42141Y-40918D01*
X42060Y-40999D01*
X42016Y-41104D01*
X42016Y-41218D01*
X42060Y-41323D01*
X42140Y-41403D01*
X42245Y-41447D01*
X42359Y-41447D01*
X42465Y-41404D01*
X42545Y-41323D01*
X42589Y-41218D01*
X42589Y-41104D01*
X42589Y-44978D01*
X42587Y-44982D01*
X42587Y-44993D01*
X42576Y-44989D01*
X42463Y-44989D01*
X42357Y-45032D01*
X42277Y-45113D01*
X42233Y-45218D01*
X42233Y-45332D01*
X42276Y-45437D01*
X42357Y-45518D01*
X42462Y-45561D01*
X42576Y-45561D01*
X42659Y-45527D01*
X42670Y-45555D01*
X42751Y-45636D01*
X42856Y-45679D01*
X42875Y-45679D01*
X42869Y-45682D01*
X42788Y-45762D01*
X42745Y-45868D01*
X42745Y-45981D01*
X42788Y-46087D01*
X42855Y-46154D01*
X42843Y-46182D01*
X42843Y-46296D01*
X42887Y-46402D01*
X42967Y-46482D01*
X43072Y-46526D01*
X43186Y-46526D01*
X43291Y-46482D01*
X43372Y-46402D01*
X43416Y-46297D01*
X43416Y-46183D01*
X43416Y-55353D01*
X42215Y-55353D01*
X42215Y-43525D01*
X42171Y-43420D01*
X42091Y-43340D01*
X41986Y-43296D01*
X41872Y-43296D01*
X41767Y-43339D01*
X41686Y-43420D01*
X41642Y-43525D01*
X41642Y-43639D01*
X41686Y-43744D01*
X41766Y-43825D01*
X41871Y-43868D01*
X41985Y-43868D01*
X42091Y-43825D01*
X42171Y-43745D01*
X42215Y-43639D01*
X42215Y-43525D01*
X42215Y-55353D01*
X41565Y-55353D01*
X41565Y-45592D01*
X41546Y-45545D01*
X41546Y-37088D01*
X41502Y-36983D01*
X41448Y-36929D01*
X41462Y-36914D01*
X41506Y-36809D01*
X41506Y-36695D01*
X41463Y-36590D01*
X41382Y-36509D01*
X41309Y-36479D01*
X41309Y-36459D01*
X41266Y-36353D01*
X41185Y-36273D01*
X41080Y-36229D01*
X40966Y-36229D01*
X40876Y-36266D01*
X40876Y-31734D01*
X40833Y-31629D01*
X40798Y-31594D01*
X40798Y-28781D01*
X40754Y-28676D01*
X40674Y-28596D01*
X40568Y-28552D01*
X40455Y-28552D01*
X40349Y-28595D01*
X40269Y-28676D01*
X40229Y-28772D01*
X40133Y-28812D01*
X40052Y-28892D01*
X40009Y-28997D01*
X40009Y-29111D01*
X40052Y-29217D01*
X40132Y-29297D01*
X40238Y-29341D01*
X40351Y-29341D01*
X40457Y-29297D01*
X40537Y-29217D01*
X40577Y-29120D01*
X40673Y-29081D01*
X40754Y-29000D01*
X40797Y-28895D01*
X40798Y-28781D01*
X40798Y-31594D01*
X40752Y-31548D01*
X40739Y-31543D01*
X40739Y-30317D01*
X40695Y-30212D01*
X40615Y-30131D01*
X40509Y-30087D01*
X40396Y-30087D01*
X40290Y-30131D01*
X40210Y-30211D01*
X40166Y-30316D01*
X40166Y-30363D01*
X40100Y-30363D01*
X39995Y-30406D01*
X39971Y-30431D01*
X39971Y-28329D01*
X39927Y-28223D01*
X39902Y-28198D01*
X39907Y-28193D01*
X39951Y-28088D01*
X39951Y-27974D01*
X39908Y-27869D01*
X39827Y-27788D01*
X39813Y-27783D01*
X39813Y-24372D01*
X39770Y-24267D01*
X39689Y-24186D01*
X39584Y-24142D01*
X39470Y-24142D01*
X39365Y-24186D01*
X39285Y-24266D01*
X39241Y-24371D01*
X39241Y-24485D01*
X39284Y-24591D01*
X39365Y-24671D01*
X39470Y-24715D01*
X39584Y-24715D01*
X39689Y-24671D01*
X39770Y-24591D01*
X39813Y-24486D01*
X39813Y-24372D01*
X39813Y-27783D01*
X39722Y-27745D01*
X39608Y-27745D01*
X39503Y-27788D01*
X39422Y-27869D01*
X39379Y-27974D01*
X39379Y-28088D01*
X39422Y-28193D01*
X39447Y-28218D01*
X39442Y-28223D01*
X39398Y-28328D01*
X39398Y-28442D01*
X39442Y-28547D01*
X39522Y-28628D01*
X39627Y-28671D01*
X39741Y-28672D01*
X39846Y-28628D01*
X39927Y-28548D01*
X39971Y-28443D01*
X39971Y-28329D01*
X39971Y-30431D01*
X39914Y-30487D01*
X39871Y-30592D01*
X39871Y-30706D01*
X39914Y-30811D01*
X39995Y-30892D01*
X40100Y-30935D01*
X40214Y-30935D01*
X40319Y-30892D01*
X40399Y-30811D01*
X40443Y-30706D01*
X40443Y-30660D01*
X40509Y-30660D01*
X40614Y-30616D01*
X40695Y-30536D01*
X40738Y-30431D01*
X40739Y-30317D01*
X40739Y-31543D01*
X40647Y-31505D01*
X40640Y-31505D01*
X40640Y-31498D01*
X40597Y-31393D01*
X40516Y-31312D01*
X40411Y-31268D01*
X40297Y-31268D01*
X40192Y-31312D01*
X40111Y-31392D01*
X40068Y-31497D01*
X40068Y-31611D01*
X40111Y-31717D01*
X40191Y-31797D01*
X40297Y-31841D01*
X40304Y-31841D01*
X40304Y-31848D01*
X40347Y-31953D01*
X40428Y-32033D01*
X40533Y-32077D01*
X40647Y-32077D01*
X40752Y-32034D01*
X40833Y-31953D01*
X40876Y-31848D01*
X40876Y-31734D01*
X40876Y-36266D01*
X40861Y-36272D01*
X40781Y-36353D01*
X40737Y-36458D01*
X40737Y-36572D01*
X40780Y-36677D01*
X40861Y-36758D01*
X40934Y-36788D01*
X40934Y-36808D01*
X40977Y-36913D01*
X41032Y-36968D01*
X41017Y-36983D01*
X40973Y-37088D01*
X40973Y-37202D01*
X41017Y-37307D01*
X41087Y-37378D01*
X40999Y-37414D01*
X40918Y-37495D01*
X40875Y-37600D01*
X40875Y-37714D01*
X40918Y-37819D01*
X40973Y-37874D01*
X40958Y-37888D01*
X40914Y-37993D01*
X40914Y-38107D01*
X40958Y-38213D01*
X41002Y-38257D01*
X40977Y-38282D01*
X40934Y-38387D01*
X40934Y-38501D01*
X40977Y-38606D01*
X41058Y-38687D01*
X41163Y-38731D01*
X41277Y-38731D01*
X41382Y-38687D01*
X41462Y-38607D01*
X41506Y-38502D01*
X41506Y-38388D01*
X41463Y-38282D01*
X41418Y-38238D01*
X41443Y-38213D01*
X41486Y-38108D01*
X41487Y-37994D01*
X41443Y-37889D01*
X41389Y-37834D01*
X41403Y-37819D01*
X41447Y-37714D01*
X41447Y-37600D01*
X41404Y-37495D01*
X41333Y-37424D01*
X41421Y-37388D01*
X41502Y-37308D01*
X41546Y-37202D01*
X41546Y-37088D01*
X41546Y-45545D01*
X41522Y-45487D01*
X41487Y-45452D01*
X41487Y-44214D01*
X41443Y-44109D01*
X41363Y-44029D01*
X41257Y-43985D01*
X41144Y-43985D01*
X41038Y-44028D01*
X40958Y-44109D01*
X40914Y-44214D01*
X40914Y-44328D01*
X40958Y-44433D01*
X41038Y-44514D01*
X41143Y-44557D01*
X41257Y-44557D01*
X41362Y-44514D01*
X41443Y-44433D01*
X41486Y-44328D01*
X41487Y-44214D01*
X41487Y-45452D01*
X41441Y-45407D01*
X41336Y-45363D01*
X41222Y-45363D01*
X41117Y-45406D01*
X41037Y-45487D01*
X40993Y-45592D01*
X40993Y-45706D01*
X41022Y-45777D01*
X41017Y-45782D01*
X40973Y-45887D01*
X40973Y-46001D01*
X41017Y-46106D01*
X41097Y-46187D01*
X41202Y-46231D01*
X41316Y-46231D01*
X41421Y-46187D01*
X41502Y-46107D01*
X41546Y-46002D01*
X41546Y-45888D01*
X41516Y-45817D01*
X41522Y-45811D01*
X41565Y-45706D01*
X41565Y-45592D01*
X41565Y-55353D01*
X41386Y-55353D01*
X41386Y-46443D01*
X41342Y-46338D01*
X41262Y-46257D01*
X41157Y-46213D01*
X41043Y-46213D01*
X40938Y-46257D01*
X40890Y-46304D01*
X40805Y-46268D01*
X40691Y-46268D01*
X40640Y-46289D01*
X40640Y-45337D01*
X40597Y-45231D01*
X40516Y-45151D01*
X40411Y-45107D01*
X40325Y-45107D01*
X40325Y-43762D01*
X40282Y-43656D01*
X40201Y-43576D01*
X40096Y-43532D01*
X39982Y-43532D01*
X39877Y-43576D01*
X39796Y-43656D01*
X39753Y-43761D01*
X39753Y-43777D01*
X39709Y-43733D01*
X39604Y-43690D01*
X39490Y-43690D01*
X39385Y-43733D01*
X39304Y-43814D01*
X39262Y-43915D01*
X39262Y-28053D01*
X39219Y-27948D01*
X39138Y-27867D01*
X39033Y-27824D01*
X38919Y-27823D01*
X38848Y-27853D01*
X38823Y-27828D01*
X38718Y-27784D01*
X38604Y-27784D01*
X38503Y-27826D01*
X38403Y-27784D01*
X38289Y-27784D01*
X38184Y-27828D01*
X38103Y-27908D01*
X38060Y-28013D01*
X38060Y-28127D01*
X38103Y-28232D01*
X38184Y-28313D01*
X38289Y-28357D01*
X38403Y-28357D01*
X38504Y-28315D01*
X38604Y-28357D01*
X38718Y-28357D01*
X38789Y-28327D01*
X38814Y-28352D01*
X38919Y-28396D01*
X39033Y-28396D01*
X39138Y-28353D01*
X39218Y-28272D01*
X39262Y-28167D01*
X39262Y-28053D01*
X39262Y-43915D01*
X39261Y-43919D01*
X39260Y-44033D01*
X39304Y-44138D01*
X39384Y-44218D01*
X39490Y-44262D01*
X39603Y-44262D01*
X39709Y-44219D01*
X39789Y-44138D01*
X39833Y-44033D01*
X39833Y-44017D01*
X39877Y-44061D01*
X39982Y-44105D01*
X40096Y-44105D01*
X40201Y-44061D01*
X40281Y-43981D01*
X40325Y-43876D01*
X40325Y-43762D01*
X40325Y-45107D01*
X40297Y-45107D01*
X40192Y-45150D01*
X40111Y-45231D01*
X40089Y-45285D01*
X40089Y-44766D01*
X40045Y-44660D01*
X39965Y-44580D01*
X39860Y-44536D01*
X39746Y-44536D01*
X39641Y-44580D01*
X39560Y-44660D01*
X39516Y-44765D01*
X39516Y-44879D01*
X39560Y-44984D01*
X39640Y-45065D01*
X39745Y-45109D01*
X39859Y-45109D01*
X39965Y-45065D01*
X40045Y-44985D01*
X40089Y-44880D01*
X40089Y-44766D01*
X40089Y-45285D01*
X40068Y-45336D01*
X40068Y-45450D01*
X40111Y-45555D01*
X40191Y-45636D01*
X40297Y-45679D01*
X40411Y-45679D01*
X40516Y-45636D01*
X40596Y-45556D01*
X40640Y-45450D01*
X40640Y-45337D01*
X40640Y-46289D01*
X40586Y-46312D01*
X40505Y-46392D01*
X40461Y-46497D01*
X40461Y-46611D01*
X40505Y-46717D01*
X40585Y-46797D01*
X40690Y-46841D01*
X40804Y-46841D01*
X40909Y-46797D01*
X40957Y-46750D01*
X41042Y-46786D01*
X41156Y-46786D01*
X41261Y-46742D01*
X41342Y-46662D01*
X41386Y-46557D01*
X41386Y-46443D01*
X41386Y-55353D01*
X40778Y-55353D01*
X40778Y-48722D01*
X40758Y-48675D01*
X40758Y-47797D01*
X40715Y-47692D01*
X40634Y-47611D01*
X40529Y-47568D01*
X40415Y-47568D01*
X40310Y-47611D01*
X40229Y-47691D01*
X40186Y-47797D01*
X40186Y-47911D01*
X40229Y-48016D01*
X40310Y-48096D01*
X40415Y-48140D01*
X40529Y-48140D01*
X40634Y-48097D01*
X40714Y-48016D01*
X40758Y-47911D01*
X40758Y-47797D01*
X40758Y-48675D01*
X40734Y-48617D01*
X40654Y-48537D01*
X40549Y-48493D01*
X40435Y-48493D01*
X40330Y-48536D01*
X40249Y-48617D01*
X40205Y-48722D01*
X40205Y-48836D01*
X40249Y-48941D01*
X40329Y-49022D01*
X40434Y-49065D01*
X40548Y-49065D01*
X40654Y-49022D01*
X40734Y-48941D01*
X40778Y-48836D01*
X40778Y-48722D01*
X40778Y-55353D01*
X40109Y-55353D01*
X40109Y-47049D01*
X40065Y-46944D01*
X39985Y-46863D01*
X39880Y-46820D01*
X39766Y-46820D01*
X39660Y-46863D01*
X39580Y-46943D01*
X39536Y-47049D01*
X39536Y-47162D01*
X39580Y-47268D01*
X39660Y-47348D01*
X39765Y-47392D01*
X39879Y-47392D01*
X39984Y-47349D01*
X40065Y-47268D01*
X40109Y-47163D01*
X40109Y-47049D01*
X40109Y-55353D01*
X40069Y-55353D01*
X40069Y-47659D01*
X40026Y-47554D01*
X39945Y-47474D01*
X39840Y-47430D01*
X39726Y-47430D01*
X39655Y-47459D01*
X39630Y-47434D01*
X39525Y-47390D01*
X39411Y-47390D01*
X39306Y-47434D01*
X39225Y-47514D01*
X39182Y-47619D01*
X39182Y-47733D01*
X39225Y-47839D01*
X39306Y-47919D01*
X39411Y-47963D01*
X39525Y-47963D01*
X39596Y-47934D01*
X39621Y-47959D01*
X39726Y-48002D01*
X39840Y-48002D01*
X39945Y-47959D01*
X40025Y-47878D01*
X40069Y-47773D01*
X40069Y-47659D01*
X40069Y-55353D01*
X39449Y-55353D01*
X39449Y-52713D01*
X39406Y-52608D01*
X39325Y-52527D01*
X39220Y-52484D01*
X39106Y-52484D01*
X39085Y-52492D01*
X39085Y-42325D01*
X39041Y-42219D01*
X38961Y-42139D01*
X38856Y-42095D01*
X38742Y-42095D01*
X38657Y-42130D01*
X38646Y-42119D01*
X38541Y-42076D01*
X38427Y-42075D01*
X38322Y-42119D01*
X38258Y-42182D01*
X38258Y-34844D01*
X38215Y-34739D01*
X38134Y-34659D01*
X38029Y-34615D01*
X37915Y-34615D01*
X37810Y-34658D01*
X37729Y-34739D01*
X37686Y-34844D01*
X37686Y-34958D01*
X37729Y-35063D01*
X37810Y-35144D01*
X37915Y-35187D01*
X38029Y-35187D01*
X38134Y-35144D01*
X38214Y-35063D01*
X38258Y-34958D01*
X38258Y-34844D01*
X38258Y-42182D01*
X38241Y-42199D01*
X38198Y-42305D01*
X38197Y-42418D01*
X38241Y-42524D01*
X38321Y-42604D01*
X38427Y-42648D01*
X38540Y-42648D01*
X38625Y-42613D01*
X38636Y-42624D01*
X38742Y-42668D01*
X38855Y-42668D01*
X38961Y-42624D01*
X39041Y-42544D01*
X39085Y-42439D01*
X39085Y-42325D01*
X39085Y-52492D01*
X39001Y-52527D01*
X38920Y-52608D01*
X38877Y-52713D01*
X38877Y-52827D01*
X38920Y-52932D01*
X39001Y-53012D01*
X39106Y-53056D01*
X39220Y-53056D01*
X39325Y-53013D01*
X39405Y-52932D01*
X39449Y-52827D01*
X39449Y-52713D01*
X39449Y-55353D01*
X38967Y-55353D01*
X38967Y-54588D01*
X38923Y-54483D01*
X38843Y-54403D01*
X38738Y-54359D01*
X38624Y-54359D01*
X38519Y-54402D01*
X38438Y-54483D01*
X38394Y-54588D01*
X38394Y-54702D01*
X38438Y-54807D01*
X38518Y-54888D01*
X38623Y-54931D01*
X38737Y-54931D01*
X38843Y-54888D01*
X38923Y-54808D01*
X38967Y-54702D01*
X38967Y-54588D01*
X38967Y-55353D01*
X37749Y-55353D01*
X37749Y-54513D01*
X37706Y-54408D01*
X37625Y-54327D01*
X37520Y-54284D01*
X37412Y-54284D01*
X37412Y-33033D01*
X37368Y-32928D01*
X37288Y-32848D01*
X37183Y-32804D01*
X37069Y-32804D01*
X36964Y-32847D01*
X36883Y-32928D01*
X36839Y-33033D01*
X36839Y-33147D01*
X36883Y-33252D01*
X36963Y-33333D01*
X37068Y-33376D01*
X37182Y-33376D01*
X37287Y-33333D01*
X37368Y-33252D01*
X37412Y-33147D01*
X37412Y-33033D01*
X37412Y-54284D01*
X37406Y-54284D01*
X37353Y-54306D01*
X37353Y-49490D01*
X37309Y-49385D01*
X37229Y-49304D01*
X37195Y-49290D01*
X37195Y-40966D01*
X37152Y-40861D01*
X37071Y-40781D01*
X36998Y-40750D01*
X36998Y-39608D01*
X36955Y-39503D01*
X36874Y-39422D01*
X36769Y-39379D01*
X36655Y-39379D01*
X36550Y-39422D01*
X36470Y-39503D01*
X36447Y-39556D01*
X36447Y-32837D01*
X36404Y-32731D01*
X36323Y-32651D01*
X36270Y-32629D01*
X36270Y-29037D01*
X36227Y-28932D01*
X36146Y-28851D01*
X36041Y-28808D01*
X35927Y-28808D01*
X35822Y-28851D01*
X35741Y-28932D01*
X35698Y-29037D01*
X35697Y-29151D01*
X35741Y-29256D01*
X35821Y-29336D01*
X35927Y-29380D01*
X36040Y-29380D01*
X36146Y-29337D01*
X36226Y-29256D01*
X36270Y-29151D01*
X36270Y-29037D01*
X36270Y-32629D01*
X36218Y-32607D01*
X36104Y-32607D01*
X35999Y-32650D01*
X35918Y-32731D01*
X35875Y-32836D01*
X35875Y-32950D01*
X35918Y-33055D01*
X35999Y-33136D01*
X36104Y-33179D01*
X36218Y-33179D01*
X36323Y-33136D01*
X36403Y-33056D01*
X36447Y-32950D01*
X36447Y-32837D01*
X36447Y-39556D01*
X36426Y-39608D01*
X36426Y-39722D01*
X36428Y-39726D01*
X36353Y-39757D01*
X36273Y-39837D01*
X36229Y-39942D01*
X36229Y-40056D01*
X36272Y-40161D01*
X36317Y-40206D01*
X36273Y-40251D01*
X36229Y-40356D01*
X36229Y-40470D01*
X36272Y-40575D01*
X36353Y-40655D01*
X36458Y-40699D01*
X36572Y-40699D01*
X36677Y-40656D01*
X36758Y-40575D01*
X36801Y-40470D01*
X36802Y-40356D01*
X36758Y-40251D01*
X36713Y-40206D01*
X36758Y-40162D01*
X36801Y-40057D01*
X36802Y-39943D01*
X36800Y-39938D01*
X36874Y-39908D01*
X36955Y-39827D01*
X36998Y-39722D01*
X36998Y-39608D01*
X36998Y-40750D01*
X36966Y-40737D01*
X36852Y-40737D01*
X36747Y-40780D01*
X36666Y-40861D01*
X36623Y-40966D01*
X36623Y-40987D01*
X36550Y-41017D01*
X36470Y-41097D01*
X36426Y-41202D01*
X36426Y-41316D01*
X36469Y-41421D01*
X36550Y-41502D01*
X36655Y-41546D01*
X36769Y-41546D01*
X36874Y-41502D01*
X36955Y-41422D01*
X36998Y-41317D01*
X36998Y-41296D01*
X37071Y-41266D01*
X37151Y-41185D01*
X37195Y-41080D01*
X37195Y-40966D01*
X37195Y-49290D01*
X37124Y-49261D01*
X37010Y-49260D01*
X36939Y-49290D01*
X36939Y-45809D01*
X36896Y-45704D01*
X36815Y-45623D01*
X36710Y-45579D01*
X36596Y-45579D01*
X36491Y-45623D01*
X36411Y-45703D01*
X36367Y-45808D01*
X36367Y-45922D01*
X36410Y-46028D01*
X36491Y-46108D01*
X36596Y-46152D01*
X36710Y-46152D01*
X36815Y-46108D01*
X36896Y-46028D01*
X36939Y-45923D01*
X36939Y-45809D01*
X36939Y-49290D01*
X36905Y-49304D01*
X36824Y-49384D01*
X36780Y-49490D01*
X36780Y-49603D01*
X36824Y-49709D01*
X36904Y-49789D01*
X37009Y-49833D01*
X37123Y-49833D01*
X37228Y-49790D01*
X37309Y-49709D01*
X37353Y-49604D01*
X37353Y-49490D01*
X37353Y-54306D01*
X37301Y-54327D01*
X37220Y-54408D01*
X37177Y-54513D01*
X37177Y-54627D01*
X37220Y-54732D01*
X37301Y-54812D01*
X37406Y-54856D01*
X37520Y-54856D01*
X37625Y-54813D01*
X37705Y-54732D01*
X37749Y-54627D01*
X37749Y-54513D01*
X37749Y-55353D01*
X36526Y-55353D01*
X36526Y-47659D01*
X36482Y-47554D01*
X36402Y-47474D01*
X36297Y-47430D01*
X36183Y-47430D01*
X36078Y-47473D01*
X35997Y-47554D01*
X35953Y-47659D01*
X35953Y-47773D01*
X35997Y-47878D01*
X36077Y-47959D01*
X36182Y-48002D01*
X36296Y-48002D01*
X36402Y-47959D01*
X36482Y-47878D01*
X36526Y-47773D01*
X36526Y-47659D01*
X36526Y-55353D01*
X35955Y-55353D01*
X35955Y-49726D01*
X35916Y-49631D01*
X35916Y-39884D01*
X35872Y-39779D01*
X35792Y-39698D01*
X35739Y-39676D01*
X35739Y-35711D01*
X35695Y-35605D01*
X35695Y-35605D01*
X35695Y-24779D01*
X35695Y-21779D01*
X35633Y-21622D01*
X35624Y-21609D01*
X35551Y-21586D01*
X35539Y-21599D01*
X35539Y-21573D01*
X35516Y-21501D01*
X35361Y-21433D01*
X35193Y-21430D01*
X35036Y-21492D01*
X35022Y-21501D01*
X35000Y-21573D01*
X35269Y-21843D01*
X35539Y-21573D01*
X35539Y-21599D01*
X35282Y-21856D01*
X35551Y-22125D01*
X35624Y-22103D01*
X35692Y-21948D01*
X35695Y-21779D01*
X35695Y-24779D01*
X35633Y-24622D01*
X35624Y-24609D01*
X35551Y-24586D01*
X35282Y-24856D01*
X35551Y-25125D01*
X35624Y-25103D01*
X35692Y-24948D01*
X35695Y-24779D01*
X35695Y-35605D01*
X35615Y-35525D01*
X35509Y-35481D01*
X35396Y-35481D01*
X35290Y-35524D01*
X35210Y-35605D01*
X35166Y-35710D01*
X35166Y-35824D01*
X35209Y-35929D01*
X35290Y-36010D01*
X35395Y-36053D01*
X35509Y-36053D01*
X35614Y-36010D01*
X35695Y-35930D01*
X35738Y-35824D01*
X35739Y-35711D01*
X35739Y-39676D01*
X35687Y-39654D01*
X35573Y-39654D01*
X35483Y-39691D01*
X35483Y-39648D01*
X35439Y-39542D01*
X35359Y-39462D01*
X35254Y-39418D01*
X35140Y-39418D01*
X35034Y-39461D01*
X34954Y-39542D01*
X34910Y-39647D01*
X34910Y-39761D01*
X34954Y-39866D01*
X35034Y-39947D01*
X35139Y-39990D01*
X35253Y-39990D01*
X35343Y-39953D01*
X35343Y-39997D01*
X35387Y-40102D01*
X35467Y-40183D01*
X35572Y-40227D01*
X35686Y-40227D01*
X35791Y-40183D01*
X35872Y-40103D01*
X35916Y-39998D01*
X35916Y-39884D01*
X35916Y-49631D01*
X35912Y-49621D01*
X35831Y-49540D01*
X35726Y-49497D01*
X35612Y-49497D01*
X35507Y-49540D01*
X35426Y-49621D01*
X35383Y-49726D01*
X35383Y-49840D01*
X35426Y-49945D01*
X35506Y-50025D01*
X35612Y-50069D01*
X35725Y-50069D01*
X35831Y-50026D01*
X35911Y-49945D01*
X35955Y-49840D01*
X35955Y-49726D01*
X35955Y-55353D01*
X35660Y-55353D01*
X35660Y-52167D01*
X35616Y-52062D01*
X35536Y-51981D01*
X35431Y-51938D01*
X35317Y-51938D01*
X35212Y-51981D01*
X35131Y-52062D01*
X35087Y-52167D01*
X35087Y-52281D01*
X35131Y-52386D01*
X35211Y-52466D01*
X35316Y-52510D01*
X35430Y-52510D01*
X35535Y-52467D01*
X35616Y-52386D01*
X35660Y-52281D01*
X35660Y-52167D01*
X35660Y-55353D01*
X34557Y-55353D01*
X34557Y-54704D01*
X34557Y-53271D01*
X34580Y-53138D01*
X34619Y-53232D01*
X34699Y-53313D01*
X34805Y-53357D01*
X34918Y-53357D01*
X35024Y-53313D01*
X35104Y-53233D01*
X35148Y-53128D01*
X35148Y-53014D01*
X35104Y-52908D01*
X35024Y-52828D01*
X34919Y-52784D01*
X34805Y-52784D01*
X34700Y-52828D01*
X34619Y-52908D01*
X34677Y-52567D01*
X34508Y-37126D01*
X34508Y-31665D01*
X34522Y-31711D01*
X34677Y-31778D01*
X34846Y-31781D01*
X35003Y-31720D01*
X35016Y-31711D01*
X35039Y-31638D01*
X34769Y-31369D01*
X34764Y-31374D01*
X34751Y-31361D01*
X34756Y-31356D01*
X34751Y-31350D01*
X34764Y-31337D01*
X34769Y-31343D01*
X34775Y-31337D01*
X34788Y-31350D01*
X34782Y-31356D01*
X35051Y-31625D01*
X35124Y-31603D01*
X35192Y-31448D01*
X35195Y-31280D01*
X35353Y-31280D01*
X35509Y-31215D01*
X35628Y-31096D01*
X35693Y-30941D01*
X35693Y-30772D01*
X35629Y-30616D01*
X35510Y-30497D01*
X35354Y-30432D01*
X35193Y-30432D01*
X35193Y-30280D01*
X35353Y-30280D01*
X35509Y-30215D01*
X35628Y-30096D01*
X35693Y-29941D01*
X35693Y-29772D01*
X35629Y-29616D01*
X35510Y-29497D01*
X35354Y-29432D01*
X35192Y-29432D01*
X35195Y-29280D01*
X35353Y-29280D01*
X35509Y-29215D01*
X35628Y-29096D01*
X35693Y-28941D01*
X35693Y-28772D01*
X35629Y-28616D01*
X35510Y-28497D01*
X35354Y-28432D01*
X35193Y-28432D01*
X35193Y-28280D01*
X35353Y-28280D01*
X35509Y-28215D01*
X35628Y-28096D01*
X35693Y-27941D01*
X35693Y-27772D01*
X35629Y-27616D01*
X35510Y-27497D01*
X35354Y-27432D01*
X35192Y-27432D01*
X35195Y-27280D01*
X35353Y-27280D01*
X35509Y-27215D01*
X35628Y-27096D01*
X35693Y-26941D01*
X35693Y-26772D01*
X35629Y-26616D01*
X35510Y-26497D01*
X35354Y-26432D01*
X35193Y-26432D01*
X35193Y-26280D01*
X35353Y-26280D01*
X35509Y-26215D01*
X35628Y-26096D01*
X35693Y-25941D01*
X35693Y-25772D01*
X35629Y-25616D01*
X35510Y-25497D01*
X35354Y-25432D01*
X35193Y-25432D01*
X35193Y-25278D01*
X35346Y-25281D01*
X35503Y-25220D01*
X35516Y-25211D01*
X35539Y-25138D01*
X35269Y-24869D01*
X35264Y-24874D01*
X35251Y-24861D01*
X35256Y-24856D01*
X35251Y-24850D01*
X35264Y-24837D01*
X35269Y-24843D01*
X35539Y-24573D01*
X35516Y-24501D01*
X35361Y-24433D01*
X35193Y-24430D01*
X35193Y-24280D01*
X35353Y-24280D01*
X35509Y-24215D01*
X35628Y-24096D01*
X35693Y-23941D01*
X35693Y-23772D01*
X35629Y-23616D01*
X35510Y-23497D01*
X35354Y-23432D01*
X35193Y-23432D01*
X35193Y-23280D01*
X35353Y-23280D01*
X35509Y-23215D01*
X35628Y-23096D01*
X35693Y-22941D01*
X35693Y-22772D01*
X35629Y-22616D01*
X35510Y-22497D01*
X35354Y-22432D01*
X35193Y-22432D01*
X35193Y-22278D01*
X35346Y-22281D01*
X35503Y-22220D01*
X35516Y-22211D01*
X35539Y-22138D01*
X35269Y-21869D01*
X35264Y-21874D01*
X35251Y-21861D01*
X35256Y-21856D01*
X34987Y-21586D01*
X34914Y-21609D01*
X34847Y-21764D01*
X34844Y-21932D01*
X34685Y-21932D01*
X34529Y-21996D01*
X34508Y-22017D01*
X34508Y-20217D01*
X34686Y-20217D01*
X34686Y-20218D01*
X34621Y-20373D01*
X34621Y-20542D01*
X34685Y-20698D01*
X34804Y-20817D01*
X34960Y-20882D01*
X35121Y-20882D01*
X35121Y-21042D01*
X35185Y-21198D01*
X35304Y-21317D01*
X35460Y-21382D01*
X35629Y-21382D01*
X35785Y-21318D01*
X35904Y-21199D01*
X35969Y-21043D01*
X35969Y-20882D01*
X36121Y-20882D01*
X36121Y-21042D01*
X36185Y-21198D01*
X36304Y-21317D01*
X36460Y-21382D01*
X36629Y-21382D01*
X36785Y-21318D01*
X36904Y-21199D01*
X36969Y-21043D01*
X36969Y-20882D01*
X37121Y-20882D01*
X37121Y-21042D01*
X37185Y-21198D01*
X37304Y-21317D01*
X37460Y-21382D01*
X37629Y-21382D01*
X37785Y-21318D01*
X37904Y-21199D01*
X37969Y-21043D01*
X37969Y-20882D01*
X38121Y-20882D01*
X38121Y-21042D01*
X38185Y-21198D01*
X38304Y-21317D01*
X38460Y-21382D01*
X38629Y-21382D01*
X38785Y-21318D01*
X38904Y-21199D01*
X38969Y-21043D01*
X38969Y-20882D01*
X39121Y-20882D01*
X39121Y-21042D01*
X39185Y-21198D01*
X39304Y-21317D01*
X39460Y-21382D01*
X39629Y-21382D01*
X39785Y-21318D01*
X39904Y-21199D01*
X39969Y-21043D01*
X39969Y-20882D01*
X40121Y-20882D01*
X40121Y-21042D01*
X40185Y-21198D01*
X40304Y-21317D01*
X40460Y-21382D01*
X40629Y-21382D01*
X40785Y-21318D01*
X40904Y-21199D01*
X40969Y-21043D01*
X40969Y-20882D01*
X41121Y-20882D01*
X41121Y-21042D01*
X41185Y-21198D01*
X41304Y-21317D01*
X41460Y-21382D01*
X41629Y-21382D01*
X41785Y-21318D01*
X41904Y-21199D01*
X41969Y-21043D01*
X41969Y-20882D01*
X42121Y-20882D01*
X42121Y-21042D01*
X42185Y-21198D01*
X42304Y-21317D01*
X42460Y-21382D01*
X42629Y-21382D01*
X42785Y-21318D01*
X42904Y-21199D01*
X42969Y-21043D01*
X42969Y-20882D01*
X43121Y-20882D01*
X43121Y-21042D01*
X43185Y-21198D01*
X43304Y-21317D01*
X43460Y-21382D01*
X43629Y-21382D01*
X43653Y-21372D01*
X43651Y-21480D01*
X43712Y-21637D01*
X43721Y-21650D01*
X43794Y-21673D01*
X44063Y-21403D01*
X44058Y-21397D01*
X44071Y-21385D01*
X44076Y-21390D01*
X44082Y-21385D01*
X44095Y-21397D01*
X44089Y-21403D01*
X44095Y-21409D01*
X44082Y-21421D01*
X44076Y-21416D01*
X43807Y-21685D01*
X43830Y-21758D01*
X43984Y-21825D01*
X44152Y-21829D01*
X44152Y-21987D01*
X44217Y-22143D01*
X44336Y-22262D01*
X44492Y-22327D01*
X44660Y-22327D01*
X44816Y-22263D01*
X44936Y-22144D01*
X45000Y-21988D01*
X45000Y-21827D01*
X45152Y-21827D01*
X45152Y-21987D01*
X45185Y-22066D01*
X45153Y-22080D01*
X45072Y-22160D01*
X45028Y-22265D01*
X45028Y-22379D01*
X45072Y-22484D01*
X45152Y-22565D01*
X45257Y-22609D01*
X45371Y-22609D01*
X45476Y-22565D01*
X45557Y-22485D01*
X45601Y-22380D01*
X45601Y-22327D01*
X45660Y-22327D01*
X45816Y-22263D01*
X45936Y-22144D01*
X46000Y-21988D01*
X46000Y-21827D01*
X46152Y-21827D01*
X46152Y-21987D01*
X46217Y-22143D01*
X46336Y-22262D01*
X46492Y-22327D01*
X46660Y-22327D01*
X46816Y-22263D01*
X46936Y-22144D01*
X47000Y-21988D01*
X47000Y-21827D01*
X47154Y-21827D01*
X47151Y-21980D01*
X47212Y-22137D01*
X47221Y-22150D01*
X47294Y-22173D01*
X47563Y-21903D01*
X47558Y-21897D01*
X47571Y-21885D01*
X47576Y-21890D01*
X47582Y-21885D01*
X47595Y-21897D01*
X47589Y-21903D01*
X47859Y-22173D01*
X47931Y-22150D01*
X47999Y-21995D01*
X48002Y-21827D01*
X48152Y-21827D01*
X48152Y-21987D01*
X48217Y-22143D01*
X48336Y-22262D01*
X48492Y-22327D01*
X48660Y-22327D01*
X48816Y-22263D01*
X48936Y-22144D01*
X49000Y-21988D01*
X49000Y-21827D01*
X49152Y-21827D01*
X49152Y-21987D01*
X49217Y-22143D01*
X49336Y-22262D01*
X49492Y-22327D01*
X49660Y-22327D01*
X49816Y-22263D01*
X49936Y-22144D01*
X50000Y-21988D01*
X50000Y-21827D01*
X50152Y-21827D01*
X50152Y-21987D01*
X50217Y-22143D01*
X50336Y-22262D01*
X50492Y-22327D01*
X50660Y-22327D01*
X50816Y-22263D01*
X50936Y-22144D01*
X51000Y-21988D01*
X51000Y-21827D01*
X51152Y-21827D01*
X51152Y-21987D01*
X51217Y-22143D01*
X51336Y-22262D01*
X51492Y-22327D01*
X51660Y-22327D01*
X51816Y-22263D01*
X51936Y-22144D01*
X52000Y-21988D01*
X52000Y-21827D01*
X52152Y-21827D01*
X52152Y-21987D01*
X52217Y-22143D01*
X52336Y-22262D01*
X52492Y-22327D01*
X52660Y-22327D01*
X52816Y-22263D01*
X52936Y-22144D01*
X53000Y-21988D01*
X53000Y-21827D01*
X53154Y-21827D01*
X53151Y-21980D01*
X53212Y-22137D01*
X53221Y-22150D01*
X53294Y-22173D01*
X53563Y-21903D01*
X53558Y-21897D01*
X53571Y-21885D01*
X53576Y-21890D01*
X53582Y-21885D01*
X53595Y-21897D01*
X53589Y-21903D01*
X53595Y-21909D01*
X53582Y-21921D01*
X53576Y-21916D01*
X53307Y-22185D01*
X53330Y-22258D01*
X53484Y-22325D01*
X53653Y-22329D01*
X53786Y-22276D01*
M02*
