G04 (created by PCBNEW (2013-04-12 BZR 4023)-testing) date Втр 16 Апр 2013 22:46:09*
%MOIN*%
G04 Gerber Fmt 3.4, Leading zero omitted, Abs format*
%FSLAX34Y34*%
G01*
G70*
G90*
G04 APERTURE LIST*
%ADD10C,0.006*%
%ADD11C,0.00590551*%
%ADD12C,0.005*%
%ADD13C,0.007*%
%ADD14C,0.0026*%
%ADD15C,0.004*%
%ADD16C,0.008*%
%ADD17C,0.0001*%
%ADD18C,0.012*%
%ADD19C,0.003*%
%ADD20C,0.0045*%
%ADD21C,0.0035*%
%ADD22C,0.00492126*%
%ADD23C,0.00875*%
G04 APERTURE END LIST*
G54D10*
G54D11*
X43956Y-23838D02*
G75*
G03X43366Y-24429I0J-590D01*
G74*
G01*
X44547Y-24429D02*
G75*
G03X43956Y-23838I-590J0D01*
G74*
G01*
X43366Y-24665D02*
G75*
G03X43956Y-25255I590J0D01*
G74*
G01*
X43956Y-25255D02*
G75*
G03X44547Y-24665I0J590D01*
G74*
G01*
X44547Y-24744D02*
X44547Y-24350D01*
X43366Y-24744D02*
X43366Y-24350D01*
G54D12*
X36872Y-47112D02*
X37772Y-47112D01*
X37772Y-47112D02*
X37772Y-47612D01*
X37772Y-47612D02*
X36872Y-47612D01*
X36872Y-47612D02*
X36872Y-47112D01*
X44589Y-22564D02*
X45489Y-22564D01*
X45489Y-22564D02*
X45489Y-23064D01*
X45489Y-23064D02*
X44589Y-23064D01*
X44589Y-23064D02*
X44589Y-22564D01*
X36608Y-35081D02*
X36608Y-35981D01*
X36608Y-35981D02*
X36108Y-35981D01*
X36108Y-35981D02*
X36108Y-35081D01*
X36108Y-35081D02*
X36608Y-35081D01*
X39423Y-50160D02*
X39423Y-51060D01*
X39423Y-51060D02*
X38923Y-51060D01*
X38923Y-51060D02*
X38923Y-50160D01*
X38923Y-50160D02*
X39423Y-50160D01*
X38053Y-47112D02*
X38953Y-47112D01*
X38953Y-47112D02*
X38953Y-47612D01*
X38953Y-47612D02*
X38053Y-47612D01*
X38053Y-47612D02*
X38053Y-47112D01*
G54D13*
X36220Y-36653D02*
X35354Y-36653D01*
X35393Y-36613D02*
X35393Y-36298D01*
X35472Y-36298D02*
X35472Y-36613D01*
X35433Y-36613D02*
X35433Y-36298D01*
X35511Y-36298D02*
X35511Y-36613D01*
X36063Y-36298D02*
X36063Y-36613D01*
X36102Y-36613D02*
X36102Y-36298D01*
X36141Y-36298D02*
X36141Y-36613D01*
X36181Y-36613D02*
X36181Y-36298D01*
X36220Y-36613D02*
X35354Y-36613D01*
X35354Y-36298D02*
X35511Y-36298D01*
X36220Y-36298D02*
X36063Y-36298D01*
X36220Y-37480D02*
X36063Y-37480D01*
X35354Y-37480D02*
X35511Y-37480D01*
X35354Y-36298D02*
X35354Y-37480D01*
X36220Y-36298D02*
X36220Y-37480D01*
G54D14*
X44134Y-22992D02*
X44488Y-22992D01*
X44488Y-22992D02*
X44488Y-22835D01*
X44134Y-22835D02*
X44488Y-22835D01*
X44134Y-22992D02*
X44134Y-22835D01*
X44134Y-23503D02*
X44488Y-23503D01*
X44488Y-23503D02*
X44488Y-23346D01*
X44134Y-23346D02*
X44488Y-23346D01*
X44134Y-23503D02*
X44134Y-23346D01*
X44134Y-23169D02*
X44193Y-23169D01*
X44193Y-23169D02*
X44193Y-23051D01*
X44134Y-23051D02*
X44193Y-23051D01*
X44134Y-23169D02*
X44134Y-23051D01*
X44429Y-23169D02*
X44488Y-23169D01*
X44488Y-23169D02*
X44488Y-23051D01*
X44429Y-23051D02*
X44488Y-23051D01*
X44429Y-23169D02*
X44429Y-23051D01*
X44252Y-23169D02*
X44370Y-23169D01*
X44370Y-23169D02*
X44370Y-23051D01*
X44252Y-23051D02*
X44370Y-23051D01*
X44252Y-23169D02*
X44252Y-23051D01*
G54D15*
X44154Y-22992D02*
X44154Y-23346D01*
X44468Y-22992D02*
X44468Y-23346D01*
G54D12*
X40500Y-43750D02*
X40500Y-42850D01*
X40500Y-42850D02*
X41000Y-42850D01*
X41000Y-42850D02*
X41000Y-43750D01*
X41000Y-43750D02*
X40500Y-43750D01*
X53520Y-22553D02*
X52620Y-22553D01*
X52620Y-22553D02*
X52620Y-22053D01*
X52620Y-22053D02*
X53520Y-22053D01*
X53520Y-22053D02*
X53520Y-22553D01*
X38352Y-53914D02*
X38352Y-53014D01*
X38352Y-53014D02*
X38852Y-53014D01*
X38852Y-53014D02*
X38852Y-53914D01*
X38852Y-53914D02*
X38352Y-53914D01*
X43979Y-22013D02*
X44879Y-22013D01*
X44879Y-22013D02*
X44879Y-22513D01*
X44879Y-22513D02*
X43979Y-22513D01*
X43979Y-22513D02*
X43979Y-22013D01*
X35494Y-33175D02*
X36394Y-33175D01*
X36394Y-33175D02*
X36394Y-33675D01*
X36394Y-33675D02*
X35494Y-33675D01*
X35494Y-33675D02*
X35494Y-33175D01*
X52640Y-21403D02*
X53540Y-21403D01*
X53540Y-21403D02*
X53540Y-21903D01*
X53540Y-21903D02*
X52640Y-21903D01*
X52640Y-21903D02*
X52640Y-21403D01*
X41276Y-24561D02*
X40376Y-24561D01*
X40376Y-24561D02*
X40376Y-24061D01*
X40376Y-24061D02*
X41276Y-24061D01*
X41276Y-24061D02*
X41276Y-24561D01*
X35475Y-33962D02*
X36375Y-33962D01*
X36375Y-33962D02*
X36375Y-34462D01*
X36375Y-34462D02*
X35475Y-34462D01*
X35475Y-34462D02*
X35475Y-33962D01*
X53540Y-21273D02*
X52640Y-21273D01*
X52640Y-21273D02*
X52640Y-20773D01*
X52640Y-20773D02*
X53540Y-20773D01*
X53540Y-20773D02*
X53540Y-21273D01*
X37257Y-35061D02*
X37257Y-35961D01*
X37257Y-35961D02*
X36757Y-35961D01*
X36757Y-35961D02*
X36757Y-35061D01*
X36757Y-35061D02*
X37257Y-35061D01*
X40852Y-28324D02*
X40852Y-27424D01*
X40852Y-27424D02*
X41352Y-27424D01*
X41352Y-27424D02*
X41352Y-28324D01*
X41352Y-28324D02*
X40852Y-28324D01*
X46729Y-29265D02*
X45829Y-29265D01*
X45829Y-29265D02*
X45829Y-28765D01*
X45829Y-28765D02*
X46729Y-28765D01*
X46729Y-28765D02*
X46729Y-29265D01*
X42772Y-24364D02*
X41872Y-24364D01*
X41872Y-24364D02*
X41872Y-23864D01*
X41872Y-23864D02*
X42772Y-23864D01*
X42772Y-23864D02*
X42772Y-24364D01*
X46729Y-29856D02*
X45829Y-29856D01*
X45829Y-29856D02*
X45829Y-29356D01*
X45829Y-29356D02*
X46729Y-29356D01*
X46729Y-29356D02*
X46729Y-29856D01*
X43683Y-25419D02*
X44583Y-25419D01*
X44583Y-25419D02*
X44583Y-25919D01*
X44583Y-25919D02*
X43683Y-25919D01*
X43683Y-25919D02*
X43683Y-25419D01*
X42831Y-22868D02*
X41931Y-22868D01*
X41931Y-22868D02*
X41931Y-22368D01*
X41931Y-22368D02*
X42831Y-22368D01*
X42831Y-22368D02*
X42831Y-22868D01*
X35573Y-50832D02*
X36473Y-50832D01*
X36473Y-50832D02*
X36473Y-51332D01*
X36473Y-51332D02*
X35573Y-51332D01*
X35573Y-51332D02*
X35573Y-50832D01*
X39974Y-50160D02*
X39974Y-51060D01*
X39974Y-51060D02*
X39474Y-51060D01*
X39474Y-51060D02*
X39474Y-50160D01*
X39474Y-50160D02*
X39974Y-50160D01*
X42125Y-41800D02*
X42125Y-42700D01*
X42125Y-42700D02*
X41625Y-42700D01*
X41625Y-42700D02*
X41625Y-41800D01*
X41625Y-41800D02*
X42125Y-41800D01*
X36313Y-54420D02*
X36313Y-55320D01*
X36313Y-55320D02*
X35813Y-55320D01*
X35813Y-55320D02*
X35813Y-54420D01*
X35813Y-54420D02*
X36313Y-54420D01*
X40734Y-48914D02*
X40734Y-48014D01*
X40734Y-48014D02*
X41234Y-48014D01*
X41234Y-48014D02*
X41234Y-48914D01*
X41234Y-48914D02*
X40734Y-48914D01*
X41194Y-46794D02*
X41194Y-47694D01*
X41194Y-47694D02*
X40694Y-47694D01*
X40694Y-47694D02*
X40694Y-46794D01*
X40694Y-46794D02*
X41194Y-46794D01*
X51257Y-22612D02*
X50357Y-22612D01*
X50357Y-22612D02*
X50357Y-22112D01*
X50357Y-22112D02*
X51257Y-22112D01*
X51257Y-22112D02*
X51257Y-22612D01*
X46785Y-21518D02*
X46785Y-22418D01*
X46785Y-22418D02*
X46285Y-22418D01*
X46285Y-22418D02*
X46285Y-21518D01*
X46285Y-21518D02*
X46785Y-21518D01*
X43664Y-26029D02*
X44564Y-26029D01*
X44564Y-26029D02*
X44564Y-26529D01*
X44564Y-26529D02*
X43664Y-26529D01*
X43664Y-26529D02*
X43664Y-26029D01*
X48202Y-21557D02*
X48202Y-22457D01*
X48202Y-22457D02*
X47702Y-22457D01*
X47702Y-22457D02*
X47702Y-21557D01*
X47702Y-21557D02*
X48202Y-21557D01*
X45064Y-45056D02*
X45064Y-44156D01*
X45064Y-44156D02*
X45564Y-44156D01*
X45564Y-44156D02*
X45564Y-45056D01*
X45564Y-45056D02*
X45064Y-45056D01*
X45045Y-46473D02*
X45045Y-45573D01*
X45045Y-45573D02*
X45545Y-45573D01*
X45545Y-45573D02*
X45545Y-46473D01*
X45545Y-46473D02*
X45045Y-46473D01*
X45564Y-43191D02*
X45564Y-44091D01*
X45564Y-44091D02*
X45064Y-44091D01*
X45064Y-44091D02*
X45064Y-43191D01*
X45064Y-43191D02*
X45564Y-43191D01*
X45505Y-47030D02*
X45505Y-47930D01*
X45505Y-47930D02*
X45005Y-47930D01*
X45005Y-47930D02*
X45005Y-47030D01*
X45005Y-47030D02*
X45505Y-47030D01*
X43832Y-22640D02*
X43832Y-23540D01*
X43832Y-23540D02*
X43332Y-23540D01*
X43332Y-23540D02*
X43332Y-22640D01*
X43332Y-22640D02*
X43832Y-22640D01*
X40376Y-24612D02*
X41276Y-24612D01*
X41276Y-24612D02*
X41276Y-25112D01*
X41276Y-25112D02*
X40376Y-25112D01*
X40376Y-25112D02*
X40376Y-24612D01*
X40550Y-46300D02*
X40550Y-45400D01*
X40550Y-45400D02*
X41050Y-45400D01*
X41050Y-45400D02*
X41050Y-46300D01*
X41050Y-46300D02*
X40550Y-46300D01*
X41774Y-23155D02*
X42674Y-23155D01*
X42674Y-23155D02*
X42674Y-23655D01*
X42674Y-23655D02*
X41774Y-23655D01*
X41774Y-23655D02*
X41774Y-23155D01*
X49583Y-30722D02*
X48683Y-30722D01*
X48683Y-30722D02*
X48683Y-30222D01*
X48683Y-30222D02*
X49583Y-30222D01*
X49583Y-30222D02*
X49583Y-30722D01*
X46234Y-21518D02*
X46234Y-22418D01*
X46234Y-22418D02*
X45734Y-22418D01*
X45734Y-22418D02*
X45734Y-21518D01*
X45734Y-21518D02*
X46234Y-21518D01*
X49583Y-30171D02*
X48683Y-30171D01*
X48683Y-30171D02*
X48683Y-29671D01*
X48683Y-29671D02*
X49583Y-29671D01*
X49583Y-29671D02*
X49583Y-30171D01*
X50416Y-23234D02*
X51316Y-23234D01*
X51316Y-23234D02*
X51316Y-23734D01*
X51316Y-23734D02*
X50416Y-23734D01*
X50416Y-23734D02*
X50416Y-23234D01*
X52601Y-22624D02*
X53501Y-22624D01*
X53501Y-22624D02*
X53501Y-23124D01*
X53501Y-23124D02*
X52601Y-23124D01*
X52601Y-23124D02*
X52601Y-22624D01*
X50376Y-21541D02*
X51276Y-21541D01*
X51276Y-21541D02*
X51276Y-22041D01*
X51276Y-22041D02*
X50376Y-22041D01*
X50376Y-22041D02*
X50376Y-21541D01*
X51663Y-36650D02*
X52299Y-37286D01*
X52299Y-37286D02*
X51946Y-37639D01*
X51946Y-37639D02*
X51310Y-37003D01*
X51310Y-37003D02*
X51663Y-36650D01*
X37525Y-37379D02*
X37525Y-36479D01*
X37525Y-36479D02*
X38025Y-36479D01*
X38025Y-36479D02*
X38025Y-37379D01*
X38025Y-37379D02*
X37525Y-37379D01*
X38112Y-36895D02*
X39012Y-36895D01*
X39012Y-36895D02*
X39012Y-37395D01*
X39012Y-37395D02*
X38112Y-37395D01*
X38112Y-37395D02*
X38112Y-36895D01*
X51867Y-24541D02*
X50967Y-24541D01*
X50967Y-24541D02*
X50967Y-24041D01*
X50967Y-24041D02*
X51867Y-24041D01*
X51867Y-24041D02*
X51867Y-24541D01*
X45525Y-29766D02*
X45525Y-30666D01*
X45525Y-30666D02*
X45025Y-30666D01*
X45025Y-30666D02*
X45025Y-29766D01*
X45025Y-29766D02*
X45525Y-29766D01*
X46150Y-30950D02*
X46150Y-30050D01*
X46150Y-30050D02*
X46650Y-30050D01*
X46650Y-30050D02*
X46650Y-30950D01*
X46650Y-30950D02*
X46150Y-30950D01*
X50150Y-33050D02*
X51050Y-33050D01*
X51050Y-33050D02*
X51050Y-33550D01*
X51050Y-33550D02*
X50150Y-33550D01*
X50150Y-33550D02*
X50150Y-33050D01*
X50140Y-31383D02*
X51040Y-31383D01*
X51040Y-31383D02*
X51040Y-31883D01*
X51040Y-31883D02*
X50140Y-31883D01*
X50140Y-31883D02*
X50140Y-31383D01*
X52556Y-32494D02*
X51656Y-32494D01*
X51656Y-32494D02*
X51656Y-31994D01*
X51656Y-31994D02*
X52556Y-31994D01*
X52556Y-31994D02*
X52556Y-32494D01*
X52556Y-33045D02*
X51656Y-33045D01*
X51656Y-33045D02*
X51656Y-32545D01*
X51656Y-32545D02*
X52556Y-32545D01*
X52556Y-32545D02*
X52556Y-33045D01*
X51400Y-33116D02*
X52300Y-33116D01*
X52300Y-33116D02*
X52300Y-33616D01*
X52300Y-33616D02*
X51400Y-33616D01*
X51400Y-33616D02*
X51400Y-33116D01*
X48009Y-29265D02*
X47109Y-29265D01*
X47109Y-29265D02*
X47109Y-28765D01*
X47109Y-28765D02*
X48009Y-28765D01*
X48009Y-28765D02*
X48009Y-29265D01*
X49553Y-32930D02*
X49553Y-32030D01*
X49553Y-32030D02*
X50053Y-32030D01*
X50053Y-32030D02*
X50053Y-32930D01*
X50053Y-32930D02*
X49553Y-32930D01*
X48529Y-31808D02*
X48529Y-30908D01*
X48529Y-30908D02*
X49029Y-30908D01*
X49029Y-30908D02*
X49029Y-31808D01*
X49029Y-31808D02*
X48529Y-31808D01*
X50036Y-29521D02*
X49136Y-29521D01*
X49136Y-29521D02*
X49136Y-29021D01*
X49136Y-29021D02*
X50036Y-29021D01*
X50036Y-29021D02*
X50036Y-29521D01*
X49474Y-31906D02*
X49474Y-31006D01*
X49474Y-31006D02*
X49974Y-31006D01*
X49974Y-31006D02*
X49974Y-31906D01*
X49974Y-31906D02*
X49474Y-31906D01*
X50140Y-31974D02*
X51040Y-31974D01*
X51040Y-31974D02*
X51040Y-32474D01*
X51040Y-32474D02*
X50140Y-32474D01*
X50140Y-32474D02*
X50140Y-31974D01*
X41892Y-25124D02*
X42792Y-25124D01*
X42792Y-25124D02*
X42792Y-25624D01*
X42792Y-25624D02*
X41892Y-25624D01*
X41892Y-25624D02*
X41892Y-25124D01*
X41892Y-24513D02*
X42792Y-24513D01*
X42792Y-24513D02*
X42792Y-25013D01*
X42792Y-25013D02*
X41892Y-25013D01*
X41892Y-25013D02*
X41892Y-24513D01*
X36757Y-36926D02*
X36757Y-36026D01*
X36757Y-36026D02*
X37257Y-36026D01*
X37257Y-36026D02*
X37257Y-36926D01*
X37257Y-36926D02*
X36757Y-36926D01*
X49057Y-23076D02*
X49957Y-23076D01*
X49957Y-23076D02*
X49957Y-23576D01*
X49957Y-23576D02*
X49057Y-23576D01*
X49057Y-23576D02*
X49057Y-23076D01*
X41335Y-23399D02*
X40435Y-23399D01*
X40435Y-23399D02*
X40435Y-22899D01*
X40435Y-22899D02*
X41335Y-22899D01*
X41335Y-22899D02*
X41335Y-23399D01*
X49406Y-26706D02*
X48506Y-26706D01*
X48506Y-26706D02*
X48506Y-26206D01*
X48506Y-26206D02*
X49406Y-26206D01*
X49406Y-26206D02*
X49406Y-26706D01*
X49820Y-26155D02*
X48920Y-26155D01*
X48920Y-26155D02*
X48920Y-25655D01*
X48920Y-25655D02*
X49820Y-25655D01*
X49820Y-25655D02*
X49820Y-26155D01*
X46706Y-26498D02*
X46706Y-27398D01*
X46706Y-27398D02*
X46206Y-27398D01*
X46206Y-27398D02*
X46206Y-26498D01*
X46206Y-26498D02*
X46706Y-26498D01*
X51729Y-25643D02*
X50829Y-25643D01*
X50829Y-25643D02*
X50829Y-25143D01*
X50829Y-25143D02*
X51729Y-25143D01*
X51729Y-25143D02*
X51729Y-25643D01*
X51729Y-25092D02*
X50829Y-25092D01*
X50829Y-25092D02*
X50829Y-24592D01*
X50829Y-24592D02*
X51729Y-24592D01*
X51729Y-24592D02*
X51729Y-25092D01*
X42958Y-21257D02*
X42958Y-20357D01*
X42958Y-20357D02*
X43458Y-20357D01*
X43458Y-20357D02*
X43458Y-21257D01*
X43458Y-21257D02*
X42958Y-21257D01*
X47109Y-29356D02*
X48009Y-29356D01*
X48009Y-29356D02*
X48009Y-29856D01*
X48009Y-29856D02*
X47109Y-29856D01*
X47109Y-29856D02*
X47109Y-29356D01*
X51872Y-20143D02*
X52772Y-20143D01*
X52772Y-20143D02*
X52772Y-20643D01*
X52772Y-20643D02*
X51872Y-20643D01*
X51872Y-20643D02*
X51872Y-20143D01*
X52300Y-23940D02*
X52936Y-23304D01*
X52936Y-23304D02*
X53290Y-23657D01*
X53290Y-23657D02*
X52653Y-24294D01*
X52653Y-24294D02*
X52300Y-23940D01*
X38913Y-53920D02*
X38913Y-53020D01*
X38913Y-53020D02*
X39413Y-53020D01*
X39413Y-53020D02*
X39413Y-53920D01*
X39413Y-53920D02*
X38913Y-53920D01*
X36663Y-55320D02*
X36663Y-54420D01*
X36663Y-54420D02*
X37163Y-54420D01*
X37163Y-54420D02*
X37163Y-55320D01*
X37163Y-55320D02*
X36663Y-55320D01*
X38923Y-55390D02*
X38923Y-54490D01*
X38923Y-54490D02*
X39423Y-54490D01*
X39423Y-54490D02*
X39423Y-55390D01*
X39423Y-55390D02*
X38923Y-55390D01*
X51400Y-31403D02*
X52300Y-31403D01*
X52300Y-31403D02*
X52300Y-31903D01*
X52300Y-31903D02*
X51400Y-31903D01*
X51400Y-31903D02*
X51400Y-31403D01*
X37801Y-51060D02*
X37801Y-50160D01*
X37801Y-50160D02*
X38301Y-50160D01*
X38301Y-50160D02*
X38301Y-51060D01*
X38301Y-51060D02*
X37801Y-51060D01*
X38372Y-51060D02*
X38372Y-50160D01*
X38372Y-50160D02*
X38872Y-50160D01*
X38872Y-50160D02*
X38872Y-51060D01*
X38872Y-51060D02*
X38372Y-51060D01*
X36223Y-50025D02*
X37123Y-50025D01*
X37123Y-50025D02*
X37123Y-50525D01*
X37123Y-50525D02*
X36223Y-50525D01*
X36223Y-50525D02*
X36223Y-50025D01*
X45525Y-25396D02*
X45525Y-26296D01*
X45525Y-26296D02*
X45025Y-26296D01*
X45025Y-26296D02*
X45025Y-25396D01*
X45025Y-25396D02*
X45525Y-25396D01*
X35398Y-48356D02*
X36098Y-48356D01*
X36098Y-48356D02*
X36098Y-49556D01*
X36098Y-49556D02*
X35398Y-49556D01*
X35398Y-49556D02*
X35398Y-48356D01*
X37751Y-54162D02*
X37051Y-54162D01*
X37051Y-54162D02*
X37051Y-52962D01*
X37051Y-52962D02*
X37751Y-52962D01*
X37751Y-52962D02*
X37751Y-54162D01*
G54D14*
X34498Y-46623D02*
X34833Y-46623D01*
X34833Y-46623D02*
X34833Y-46505D01*
X34498Y-46505D02*
X34833Y-46505D01*
X34498Y-46623D02*
X34498Y-46505D01*
X34695Y-46623D02*
X35030Y-46623D01*
X35030Y-46623D02*
X35030Y-46505D01*
X34695Y-46505D02*
X35030Y-46505D01*
X34695Y-46623D02*
X34695Y-46505D01*
X34892Y-46623D02*
X35227Y-46623D01*
X35227Y-46623D02*
X35227Y-46505D01*
X34892Y-46505D02*
X35227Y-46505D01*
X34892Y-46623D02*
X34892Y-46505D01*
X35089Y-46623D02*
X35424Y-46623D01*
X35424Y-46623D02*
X35424Y-46505D01*
X35089Y-46505D02*
X35424Y-46505D01*
X35089Y-46623D02*
X35089Y-46505D01*
X35286Y-46623D02*
X35620Y-46623D01*
X35620Y-46623D02*
X35620Y-46505D01*
X35286Y-46505D02*
X35620Y-46505D01*
X35286Y-46623D02*
X35286Y-46505D01*
X35483Y-46623D02*
X35817Y-46623D01*
X35817Y-46623D02*
X35817Y-46505D01*
X35483Y-46505D02*
X35817Y-46505D01*
X35483Y-46623D02*
X35483Y-46505D01*
X35679Y-46623D02*
X36014Y-46623D01*
X36014Y-46623D02*
X36014Y-46505D01*
X35679Y-46505D02*
X36014Y-46505D01*
X35679Y-46623D02*
X35679Y-46505D01*
X35876Y-46623D02*
X36211Y-46623D01*
X36211Y-46623D02*
X36211Y-46505D01*
X35876Y-46505D02*
X36211Y-46505D01*
X35876Y-46623D02*
X35876Y-46505D01*
X36073Y-46623D02*
X36408Y-46623D01*
X36408Y-46623D02*
X36408Y-46505D01*
X36073Y-46505D02*
X36408Y-46505D01*
X36073Y-46623D02*
X36073Y-46505D01*
X36270Y-46623D02*
X36605Y-46623D01*
X36605Y-46623D02*
X36605Y-46505D01*
X36270Y-46505D02*
X36605Y-46505D01*
X36270Y-46623D02*
X36270Y-46505D01*
X36467Y-46623D02*
X36802Y-46623D01*
X36802Y-46623D02*
X36802Y-46505D01*
X36467Y-46505D02*
X36802Y-46505D01*
X36467Y-46623D02*
X36467Y-46505D01*
X36664Y-46623D02*
X36997Y-46623D01*
X36997Y-46623D02*
X36997Y-46505D01*
X36664Y-46505D02*
X36997Y-46505D01*
X36664Y-46623D02*
X36664Y-46505D01*
X36861Y-46623D02*
X37194Y-46623D01*
X37194Y-46623D02*
X37194Y-46505D01*
X36861Y-46505D02*
X37194Y-46505D01*
X36861Y-46623D02*
X36861Y-46505D01*
X37056Y-46623D02*
X37391Y-46623D01*
X37391Y-46623D02*
X37391Y-46505D01*
X37056Y-46505D02*
X37391Y-46505D01*
X37056Y-46623D02*
X37056Y-46505D01*
X37253Y-46623D02*
X37588Y-46623D01*
X37588Y-46623D02*
X37588Y-46505D01*
X37253Y-46505D02*
X37588Y-46505D01*
X37253Y-46623D02*
X37253Y-46505D01*
X37450Y-46623D02*
X37785Y-46623D01*
X37785Y-46623D02*
X37785Y-46505D01*
X37450Y-46505D02*
X37785Y-46505D01*
X37450Y-46623D02*
X37450Y-46505D01*
X37647Y-46623D02*
X37982Y-46623D01*
X37982Y-46623D02*
X37982Y-46505D01*
X37647Y-46505D02*
X37982Y-46505D01*
X37647Y-46623D02*
X37647Y-46505D01*
X37844Y-46623D02*
X38179Y-46623D01*
X38179Y-46623D02*
X38179Y-46505D01*
X37844Y-46505D02*
X38179Y-46505D01*
X37844Y-46623D02*
X37844Y-46505D01*
X38041Y-46623D02*
X38375Y-46623D01*
X38375Y-46623D02*
X38375Y-46505D01*
X38041Y-46505D02*
X38375Y-46505D01*
X38041Y-46623D02*
X38041Y-46505D01*
X38238Y-46623D02*
X38572Y-46623D01*
X38572Y-46623D02*
X38572Y-46505D01*
X38238Y-46505D02*
X38572Y-46505D01*
X38238Y-46623D02*
X38238Y-46505D01*
X38434Y-46623D02*
X38769Y-46623D01*
X38769Y-46623D02*
X38769Y-46505D01*
X38434Y-46505D02*
X38769Y-46505D01*
X38434Y-46623D02*
X38434Y-46505D01*
X38631Y-46623D02*
X38966Y-46623D01*
X38966Y-46623D02*
X38966Y-46505D01*
X38631Y-46505D02*
X38966Y-46505D01*
X38631Y-46623D02*
X38631Y-46505D01*
X38828Y-46623D02*
X39163Y-46623D01*
X39163Y-46623D02*
X39163Y-46505D01*
X38828Y-46505D02*
X39163Y-46505D01*
X38828Y-46623D02*
X38828Y-46505D01*
X39025Y-46623D02*
X39360Y-46623D01*
X39360Y-46623D02*
X39360Y-46505D01*
X39025Y-46505D02*
X39360Y-46505D01*
X39025Y-46623D02*
X39025Y-46505D01*
X39025Y-39005D02*
X39360Y-39005D01*
X39360Y-39005D02*
X39360Y-38887D01*
X39025Y-38887D02*
X39360Y-38887D01*
X39025Y-39005D02*
X39025Y-38887D01*
X38828Y-39005D02*
X39163Y-39005D01*
X39163Y-39005D02*
X39163Y-38887D01*
X38828Y-38887D02*
X39163Y-38887D01*
X38828Y-39005D02*
X38828Y-38887D01*
X38631Y-39005D02*
X38966Y-39005D01*
X38966Y-39005D02*
X38966Y-38887D01*
X38631Y-38887D02*
X38966Y-38887D01*
X38631Y-39005D02*
X38631Y-38887D01*
X38434Y-39005D02*
X38769Y-39005D01*
X38769Y-39005D02*
X38769Y-38887D01*
X38434Y-38887D02*
X38769Y-38887D01*
X38434Y-39005D02*
X38434Y-38887D01*
X38238Y-39005D02*
X38572Y-39005D01*
X38572Y-39005D02*
X38572Y-38887D01*
X38238Y-38887D02*
X38572Y-38887D01*
X38238Y-39005D02*
X38238Y-38887D01*
X38041Y-39005D02*
X38375Y-39005D01*
X38375Y-39005D02*
X38375Y-38887D01*
X38041Y-38887D02*
X38375Y-38887D01*
X38041Y-39005D02*
X38041Y-38887D01*
X37844Y-39005D02*
X38179Y-39005D01*
X38179Y-39005D02*
X38179Y-38887D01*
X37844Y-38887D02*
X38179Y-38887D01*
X37844Y-39005D02*
X37844Y-38887D01*
X37647Y-39005D02*
X37982Y-39005D01*
X37982Y-39005D02*
X37982Y-38887D01*
X37647Y-38887D02*
X37982Y-38887D01*
X37647Y-39005D02*
X37647Y-38887D01*
X37450Y-39005D02*
X37785Y-39005D01*
X37785Y-39005D02*
X37785Y-38887D01*
X37450Y-38887D02*
X37785Y-38887D01*
X37450Y-39005D02*
X37450Y-38887D01*
X37253Y-39005D02*
X37588Y-39005D01*
X37588Y-39005D02*
X37588Y-38887D01*
X37253Y-38887D02*
X37588Y-38887D01*
X37253Y-39005D02*
X37253Y-38887D01*
X37056Y-39005D02*
X37391Y-39005D01*
X37391Y-39005D02*
X37391Y-38887D01*
X37056Y-38887D02*
X37391Y-38887D01*
X37056Y-39005D02*
X37056Y-38887D01*
X36861Y-39005D02*
X37194Y-39005D01*
X37194Y-39005D02*
X37194Y-38887D01*
X36861Y-38887D02*
X37194Y-38887D01*
X36861Y-39005D02*
X36861Y-38887D01*
X36664Y-39005D02*
X36997Y-39005D01*
X36997Y-39005D02*
X36997Y-38887D01*
X36664Y-38887D02*
X36997Y-38887D01*
X36664Y-39005D02*
X36664Y-38887D01*
X36467Y-39005D02*
X36802Y-39005D01*
X36802Y-39005D02*
X36802Y-38887D01*
X36467Y-38887D02*
X36802Y-38887D01*
X36467Y-39005D02*
X36467Y-38887D01*
X36270Y-39005D02*
X36605Y-39005D01*
X36605Y-39005D02*
X36605Y-38887D01*
X36270Y-38887D02*
X36605Y-38887D01*
X36270Y-39005D02*
X36270Y-38887D01*
X36073Y-39005D02*
X36408Y-39005D01*
X36408Y-39005D02*
X36408Y-38887D01*
X36073Y-38887D02*
X36408Y-38887D01*
X36073Y-39005D02*
X36073Y-38887D01*
X35876Y-39005D02*
X36211Y-39005D01*
X36211Y-39005D02*
X36211Y-38887D01*
X35876Y-38887D02*
X36211Y-38887D01*
X35876Y-39005D02*
X35876Y-38887D01*
X35679Y-39005D02*
X36014Y-39005D01*
X36014Y-39005D02*
X36014Y-38887D01*
X35679Y-38887D02*
X36014Y-38887D01*
X35679Y-39005D02*
X35679Y-38887D01*
X35483Y-39005D02*
X35817Y-39005D01*
X35817Y-39005D02*
X35817Y-38887D01*
X35483Y-38887D02*
X35817Y-38887D01*
X35483Y-39005D02*
X35483Y-38887D01*
X35286Y-39005D02*
X35620Y-39005D01*
X35620Y-39005D02*
X35620Y-38887D01*
X35286Y-38887D02*
X35620Y-38887D01*
X35286Y-39005D02*
X35286Y-38887D01*
X35089Y-39005D02*
X35424Y-39005D01*
X35424Y-39005D02*
X35424Y-38887D01*
X35089Y-38887D02*
X35424Y-38887D01*
X35089Y-39005D02*
X35089Y-38887D01*
X34892Y-39005D02*
X35227Y-39005D01*
X35227Y-39005D02*
X35227Y-38887D01*
X34892Y-38887D02*
X35227Y-38887D01*
X34892Y-39005D02*
X34892Y-38887D01*
X34695Y-39005D02*
X35030Y-39005D01*
X35030Y-39005D02*
X35030Y-38887D01*
X34695Y-38887D02*
X35030Y-38887D01*
X34695Y-39005D02*
X34695Y-38887D01*
X34498Y-39005D02*
X34833Y-39005D01*
X34833Y-39005D02*
X34833Y-38887D01*
X34498Y-38887D02*
X34833Y-38887D01*
X34498Y-39005D02*
X34498Y-38887D01*
G54D16*
X39367Y-39135D02*
X39367Y-46375D01*
X39367Y-46375D02*
X34491Y-46375D01*
X34491Y-46375D02*
X34491Y-39135D01*
X34491Y-39135D02*
X39367Y-39135D01*
G54D17*
X35016Y-45880D02*
G75*
G03X35016Y-45880I-87J0D01*
G74*
G01*
G54D11*
X48385Y-26889D02*
G75*
G03X47795Y-26299I-590J0D01*
G74*
G01*
X47795Y-27480D02*
G75*
G03X48385Y-26889I0J590D01*
G74*
G01*
X47559Y-26299D02*
G75*
G03X46968Y-26889I0J-590D01*
G74*
G01*
X46968Y-26889D02*
G75*
G03X47559Y-27480I590J0D01*
G74*
G01*
X47480Y-27480D02*
X47874Y-27480D01*
X47480Y-26299D02*
X47874Y-26299D01*
X49822Y-24055D02*
G75*
G03X49232Y-24645I0J-590D01*
G74*
G01*
X50413Y-24645D02*
G75*
G03X49822Y-24055I-590J0D01*
G74*
G01*
X49232Y-24881D02*
G75*
G03X49822Y-25472I590J0D01*
G74*
G01*
X49822Y-25472D02*
G75*
G03X50413Y-24881I0J590D01*
G74*
G01*
X50413Y-24960D02*
X50413Y-24566D01*
X49232Y-24960D02*
X49232Y-24566D01*
X35787Y-52755D02*
G75*
G03X35196Y-53346I0J-590D01*
G74*
G01*
X36377Y-53346D02*
G75*
G03X35787Y-52755I-590J0D01*
G74*
G01*
X35196Y-53582D02*
G75*
G03X35787Y-54173I590J0D01*
G74*
G01*
X35787Y-54173D02*
G75*
G03X36377Y-53582I0J590D01*
G74*
G01*
X36377Y-53661D02*
X36377Y-53267D01*
X35196Y-53661D02*
X35196Y-53267D01*
X37263Y-49586D02*
G75*
G03X37854Y-48996I0J590D01*
G74*
G01*
X36673Y-48996D02*
G75*
G03X37263Y-49586I590J0D01*
G74*
G01*
X37854Y-48759D02*
G75*
G03X37263Y-48169I-590J0D01*
G74*
G01*
X37263Y-48169D02*
G75*
G03X36673Y-48759I0J-590D01*
G74*
G01*
X36673Y-48681D02*
X36673Y-49074D01*
X37854Y-48681D02*
X37854Y-49074D01*
G54D12*
X48925Y-41200D02*
X48925Y-41400D01*
X48925Y-41400D02*
X49225Y-41400D01*
X49225Y-41400D02*
X49225Y-41200D01*
X48925Y-41000D02*
X48925Y-40800D01*
X48925Y-40800D02*
X49225Y-40800D01*
X49225Y-40800D02*
X49225Y-41000D01*
X49325Y-41200D02*
X49325Y-41400D01*
X49325Y-41400D02*
X49625Y-41400D01*
X49625Y-41400D02*
X49625Y-41200D01*
X49325Y-41000D02*
X49325Y-40800D01*
X49325Y-40800D02*
X49625Y-40800D01*
X49625Y-40800D02*
X49625Y-41000D01*
X43450Y-42600D02*
X43450Y-42800D01*
X43450Y-42800D02*
X43750Y-42800D01*
X43750Y-42800D02*
X43750Y-42600D01*
X43450Y-42400D02*
X43450Y-42200D01*
X43450Y-42200D02*
X43750Y-42200D01*
X43750Y-42200D02*
X43750Y-42400D01*
X43800Y-42600D02*
X43800Y-42800D01*
X43800Y-42800D02*
X44100Y-42800D01*
X44100Y-42800D02*
X44100Y-42600D01*
X43800Y-42400D02*
X43800Y-42200D01*
X43800Y-42200D02*
X44100Y-42200D01*
X44100Y-42200D02*
X44100Y-42400D01*
X46621Y-42107D02*
X46621Y-42307D01*
X46621Y-42307D02*
X46921Y-42307D01*
X46921Y-42307D02*
X46921Y-42107D01*
X46621Y-41907D02*
X46621Y-41707D01*
X46621Y-41707D02*
X46921Y-41707D01*
X46921Y-41707D02*
X46921Y-41907D01*
X43400Y-42400D02*
X43400Y-42200D01*
X43400Y-42200D02*
X43100Y-42200D01*
X43100Y-42200D02*
X43100Y-42400D01*
X43400Y-42600D02*
X43400Y-42800D01*
X43400Y-42800D02*
X43100Y-42800D01*
X43100Y-42800D02*
X43100Y-42600D01*
X46100Y-41900D02*
X46100Y-41700D01*
X46100Y-41700D02*
X45800Y-41700D01*
X45800Y-41700D02*
X45800Y-41900D01*
X46100Y-42100D02*
X46100Y-42300D01*
X46100Y-42300D02*
X45800Y-42300D01*
X45800Y-42300D02*
X45800Y-42100D01*
X46247Y-42107D02*
X46247Y-42307D01*
X46247Y-42307D02*
X46547Y-42307D01*
X46547Y-42307D02*
X46547Y-42107D01*
X46247Y-41907D02*
X46247Y-41707D01*
X46247Y-41707D02*
X46547Y-41707D01*
X46547Y-41707D02*
X46547Y-41907D01*
X49554Y-46064D02*
X49554Y-46264D01*
X49554Y-46264D02*
X49854Y-46264D01*
X49854Y-46264D02*
X49854Y-46064D01*
X49554Y-45864D02*
X49554Y-45664D01*
X49554Y-45664D02*
X49854Y-45664D01*
X49854Y-45664D02*
X49854Y-45864D01*
X45910Y-41123D02*
X45768Y-40981D01*
X45768Y-40981D02*
X45556Y-41193D01*
X45556Y-41193D02*
X45698Y-41335D01*
X46051Y-41264D02*
X46193Y-41406D01*
X46193Y-41406D02*
X45981Y-41618D01*
X45981Y-41618D02*
X45839Y-41476D01*
X48555Y-40746D02*
X48555Y-40546D01*
X48555Y-40546D02*
X48255Y-40546D01*
X48255Y-40546D02*
X48255Y-40746D01*
X48555Y-40946D02*
X48555Y-41146D01*
X48555Y-41146D02*
X48255Y-41146D01*
X48255Y-41146D02*
X48255Y-40946D01*
X51711Y-22231D02*
X51511Y-22231D01*
X51511Y-22231D02*
X51511Y-22531D01*
X51511Y-22531D02*
X51711Y-22531D01*
X51911Y-22231D02*
X52111Y-22231D01*
X52111Y-22231D02*
X52111Y-22531D01*
X52111Y-22531D02*
X51911Y-22531D01*
X39329Y-34928D02*
X39129Y-34928D01*
X39129Y-34928D02*
X39129Y-35228D01*
X39129Y-35228D02*
X39329Y-35228D01*
X39529Y-34928D02*
X39729Y-34928D01*
X39729Y-34928D02*
X39729Y-35228D01*
X39729Y-35228D02*
X39529Y-35228D01*
X46764Y-41476D02*
X46906Y-41618D01*
X46906Y-41618D02*
X47118Y-41406D01*
X47118Y-41406D02*
X46976Y-41264D01*
X46623Y-41335D02*
X46481Y-41193D01*
X46481Y-41193D02*
X46693Y-40981D01*
X46693Y-40981D02*
X46835Y-41123D01*
X50040Y-34874D02*
X50240Y-34874D01*
X50240Y-34874D02*
X50240Y-34574D01*
X50240Y-34574D02*
X50040Y-34574D01*
X49840Y-34874D02*
X49640Y-34874D01*
X49640Y-34874D02*
X49640Y-34574D01*
X49640Y-34574D02*
X49840Y-34574D01*
X39706Y-37000D02*
X39906Y-37000D01*
X39906Y-37000D02*
X39906Y-36700D01*
X39906Y-36700D02*
X39706Y-36700D01*
X39506Y-37000D02*
X39306Y-37000D01*
X39306Y-37000D02*
X39306Y-36700D01*
X39306Y-36700D02*
X39506Y-36700D01*
X39374Y-33641D02*
X39515Y-33782D01*
X39515Y-33782D02*
X39727Y-33570D01*
X39727Y-33570D02*
X39586Y-33429D01*
X39232Y-33499D02*
X39091Y-33358D01*
X39091Y-33358D02*
X39303Y-33146D01*
X39303Y-33146D02*
X39444Y-33287D01*
X37664Y-35690D02*
X37664Y-35890D01*
X37664Y-35890D02*
X37964Y-35890D01*
X37964Y-35890D02*
X37964Y-35690D01*
X37664Y-35490D02*
X37664Y-35290D01*
X37664Y-35290D02*
X37964Y-35290D01*
X37964Y-35290D02*
X37964Y-35490D01*
X50040Y-34185D02*
X50240Y-34185D01*
X50240Y-34185D02*
X50240Y-33885D01*
X50240Y-33885D02*
X50040Y-33885D01*
X49840Y-34185D02*
X49640Y-34185D01*
X49640Y-34185D02*
X49640Y-33885D01*
X49640Y-33885D02*
X49840Y-33885D01*
X50040Y-34539D02*
X50240Y-34539D01*
X50240Y-34539D02*
X50240Y-34239D01*
X50240Y-34239D02*
X50040Y-34239D01*
X49840Y-34539D02*
X49640Y-34539D01*
X49640Y-34539D02*
X49640Y-34239D01*
X49640Y-34239D02*
X49840Y-34239D01*
X50690Y-33988D02*
X50890Y-33988D01*
X50890Y-33988D02*
X50890Y-33688D01*
X50890Y-33688D02*
X50690Y-33688D01*
X50490Y-33988D02*
X50290Y-33988D01*
X50290Y-33988D02*
X50290Y-33688D01*
X50290Y-33688D02*
X50490Y-33688D01*
X39525Y-37050D02*
X39325Y-37050D01*
X39325Y-37050D02*
X39325Y-37350D01*
X39325Y-37350D02*
X39525Y-37350D01*
X39725Y-37050D02*
X39925Y-37050D01*
X39925Y-37050D02*
X39925Y-37350D01*
X39925Y-37350D02*
X39725Y-37350D01*
X40650Y-40300D02*
X40650Y-40500D01*
X40650Y-40500D02*
X40950Y-40500D01*
X40950Y-40500D02*
X40950Y-40300D01*
X40650Y-40100D02*
X40650Y-39900D01*
X40650Y-39900D02*
X40950Y-39900D01*
X40950Y-39900D02*
X40950Y-40100D01*
X39900Y-40300D02*
X39900Y-40500D01*
X39900Y-40500D02*
X40200Y-40500D01*
X40200Y-40500D02*
X40200Y-40300D01*
X39900Y-40100D02*
X39900Y-39900D01*
X39900Y-39900D02*
X40200Y-39900D01*
X40200Y-39900D02*
X40200Y-40100D01*
X40050Y-41000D02*
X40050Y-41200D01*
X40050Y-41200D02*
X40350Y-41200D01*
X40350Y-41200D02*
X40350Y-41000D01*
X40050Y-40800D02*
X40050Y-40600D01*
X40050Y-40600D02*
X40350Y-40600D01*
X40350Y-40600D02*
X40350Y-40800D01*
X39486Y-35972D02*
X39286Y-35972D01*
X39286Y-35972D02*
X39286Y-36272D01*
X39286Y-36272D02*
X39486Y-36272D01*
X39686Y-35972D02*
X39886Y-35972D01*
X39886Y-35972D02*
X39886Y-36272D01*
X39886Y-36272D02*
X39686Y-36272D01*
X44875Y-40875D02*
X44875Y-40675D01*
X44875Y-40675D02*
X44575Y-40675D01*
X44575Y-40675D02*
X44575Y-40875D01*
X44875Y-41075D02*
X44875Y-41275D01*
X44875Y-41275D02*
X44575Y-41275D01*
X44575Y-41275D02*
X44575Y-41075D01*
X50460Y-38073D02*
X50318Y-37931D01*
X50318Y-37931D02*
X50106Y-38143D01*
X50106Y-38143D02*
X50248Y-38285D01*
X50601Y-38214D02*
X50743Y-38356D01*
X50743Y-38356D02*
X50531Y-38568D01*
X50531Y-38568D02*
X50389Y-38426D01*
X41416Y-41157D02*
X41558Y-41015D01*
X41558Y-41015D02*
X41346Y-40803D01*
X41346Y-40803D02*
X41204Y-40945D01*
X41275Y-41298D02*
X41134Y-41440D01*
X41134Y-41440D02*
X40921Y-41228D01*
X40921Y-41228D02*
X41063Y-41086D01*
X43457Y-40844D02*
X43457Y-40644D01*
X43457Y-40644D02*
X43157Y-40644D01*
X43157Y-40644D02*
X43157Y-40844D01*
X43457Y-41044D02*
X43457Y-41244D01*
X43457Y-41244D02*
X43157Y-41244D01*
X43157Y-41244D02*
X43157Y-41044D01*
X42645Y-41044D02*
X42645Y-41244D01*
X42645Y-41244D02*
X42945Y-41244D01*
X42945Y-41244D02*
X42945Y-41044D01*
X42645Y-40844D02*
X42645Y-40644D01*
X42645Y-40644D02*
X42945Y-40644D01*
X42945Y-40644D02*
X42945Y-40844D01*
G54D18*
X41357Y-48012D02*
X44311Y-48012D01*
X44311Y-48012D02*
X44311Y-43798D01*
X44311Y-43798D02*
X41357Y-43798D01*
X41357Y-43798D02*
X41357Y-48012D01*
X46082Y-48012D02*
X49036Y-48012D01*
X49036Y-48012D02*
X49036Y-43798D01*
X49036Y-43798D02*
X46082Y-43798D01*
X46082Y-43798D02*
X46082Y-48012D01*
G54D14*
X41254Y-31939D02*
X41345Y-31939D01*
X41345Y-31939D02*
X41345Y-31546D01*
X41254Y-31546D02*
X41345Y-31546D01*
X41254Y-31939D02*
X41254Y-31546D01*
X41412Y-31939D02*
X41502Y-31939D01*
X41502Y-31939D02*
X41502Y-31546D01*
X41412Y-31546D02*
X41502Y-31546D01*
X41412Y-31939D02*
X41412Y-31546D01*
X41569Y-31939D02*
X41660Y-31939D01*
X41660Y-31939D02*
X41660Y-31546D01*
X41569Y-31546D02*
X41660Y-31546D01*
X41569Y-31939D02*
X41569Y-31546D01*
X41727Y-31939D02*
X41817Y-31939D01*
X41817Y-31939D02*
X41817Y-31546D01*
X41727Y-31546D02*
X41817Y-31546D01*
X41727Y-31939D02*
X41727Y-31546D01*
X41884Y-31939D02*
X41975Y-31939D01*
X41975Y-31939D02*
X41975Y-31546D01*
X41884Y-31546D02*
X41975Y-31546D01*
X41884Y-31939D02*
X41884Y-31546D01*
X42042Y-31939D02*
X42132Y-31939D01*
X42132Y-31939D02*
X42132Y-31546D01*
X42042Y-31546D02*
X42132Y-31546D01*
X42042Y-31939D02*
X42042Y-31546D01*
X42199Y-31939D02*
X42290Y-31939D01*
X42290Y-31939D02*
X42290Y-31546D01*
X42199Y-31546D02*
X42290Y-31546D01*
X42199Y-31939D02*
X42199Y-31546D01*
X42357Y-31939D02*
X42447Y-31939D01*
X42447Y-31939D02*
X42447Y-31546D01*
X42357Y-31546D02*
X42447Y-31546D01*
X42357Y-31939D02*
X42357Y-31546D01*
X42514Y-31939D02*
X42605Y-31939D01*
X42605Y-31939D02*
X42605Y-31546D01*
X42514Y-31546D02*
X42605Y-31546D01*
X42514Y-31939D02*
X42514Y-31546D01*
X42672Y-31939D02*
X42762Y-31939D01*
X42762Y-31939D02*
X42762Y-31546D01*
X42672Y-31546D02*
X42762Y-31546D01*
X42672Y-31939D02*
X42672Y-31546D01*
X42829Y-31939D02*
X42920Y-31939D01*
X42920Y-31939D02*
X42920Y-31546D01*
X42829Y-31546D02*
X42920Y-31546D01*
X42829Y-31939D02*
X42829Y-31546D01*
X42987Y-31939D02*
X43077Y-31939D01*
X43077Y-31939D02*
X43077Y-31546D01*
X42987Y-31546D02*
X43077Y-31546D01*
X42987Y-31939D02*
X42987Y-31546D01*
X43144Y-31939D02*
X43235Y-31939D01*
X43235Y-31939D02*
X43235Y-31546D01*
X43144Y-31546D02*
X43235Y-31546D01*
X43144Y-31939D02*
X43144Y-31546D01*
X43302Y-31939D02*
X43392Y-31939D01*
X43392Y-31939D02*
X43392Y-31546D01*
X43302Y-31546D02*
X43392Y-31546D01*
X43302Y-31939D02*
X43302Y-31546D01*
X43459Y-31939D02*
X43550Y-31939D01*
X43550Y-31939D02*
X43550Y-31546D01*
X43459Y-31546D02*
X43550Y-31546D01*
X43459Y-31939D02*
X43459Y-31546D01*
X43617Y-31939D02*
X43707Y-31939D01*
X43707Y-31939D02*
X43707Y-31546D01*
X43617Y-31546D02*
X43707Y-31546D01*
X43617Y-31939D02*
X43617Y-31546D01*
X43774Y-31939D02*
X43865Y-31939D01*
X43865Y-31939D02*
X43865Y-31546D01*
X43774Y-31546D02*
X43865Y-31546D01*
X43774Y-31939D02*
X43774Y-31546D01*
X43932Y-31939D02*
X44022Y-31939D01*
X44022Y-31939D02*
X44022Y-31546D01*
X43932Y-31546D02*
X44022Y-31546D01*
X43932Y-31939D02*
X43932Y-31546D01*
X44089Y-31939D02*
X44180Y-31939D01*
X44180Y-31939D02*
X44180Y-31546D01*
X44089Y-31546D02*
X44180Y-31546D01*
X44089Y-31939D02*
X44089Y-31546D01*
X44247Y-31939D02*
X44337Y-31939D01*
X44337Y-31939D02*
X44337Y-31546D01*
X44247Y-31546D02*
X44337Y-31546D01*
X44247Y-31939D02*
X44247Y-31546D01*
X44404Y-31939D02*
X44495Y-31939D01*
X44495Y-31939D02*
X44495Y-31546D01*
X44404Y-31546D02*
X44495Y-31546D01*
X44404Y-31939D02*
X44404Y-31546D01*
X44561Y-31939D02*
X44652Y-31939D01*
X44652Y-31939D02*
X44652Y-31546D01*
X44561Y-31546D02*
X44652Y-31546D01*
X44561Y-31939D02*
X44561Y-31546D01*
X44718Y-31939D02*
X44809Y-31939D01*
X44809Y-31939D02*
X44809Y-31546D01*
X44718Y-31546D02*
X44809Y-31546D01*
X44718Y-31939D02*
X44718Y-31546D01*
X44875Y-31939D02*
X44966Y-31939D01*
X44966Y-31939D02*
X44966Y-31546D01*
X44875Y-31546D02*
X44966Y-31546D01*
X44875Y-31939D02*
X44875Y-31546D01*
X45033Y-31939D02*
X45123Y-31939D01*
X45123Y-31939D02*
X45123Y-31546D01*
X45033Y-31546D02*
X45123Y-31546D01*
X45033Y-31939D02*
X45033Y-31546D01*
X45190Y-31939D02*
X45281Y-31939D01*
X45281Y-31939D02*
X45281Y-31546D01*
X45190Y-31546D02*
X45281Y-31546D01*
X45190Y-31939D02*
X45190Y-31546D01*
X45348Y-31939D02*
X45438Y-31939D01*
X45438Y-31939D02*
X45438Y-31546D01*
X45348Y-31546D02*
X45438Y-31546D01*
X45348Y-31939D02*
X45348Y-31546D01*
X45505Y-31939D02*
X45596Y-31939D01*
X45596Y-31939D02*
X45596Y-31546D01*
X45505Y-31546D02*
X45596Y-31546D01*
X45505Y-31939D02*
X45505Y-31546D01*
X45663Y-31939D02*
X45753Y-31939D01*
X45753Y-31939D02*
X45753Y-31546D01*
X45663Y-31546D02*
X45753Y-31546D01*
X45663Y-31939D02*
X45663Y-31546D01*
X45820Y-31939D02*
X45911Y-31939D01*
X45911Y-31939D02*
X45911Y-31546D01*
X45820Y-31546D02*
X45911Y-31546D01*
X45820Y-31939D02*
X45820Y-31546D01*
X45978Y-31939D02*
X46068Y-31939D01*
X46068Y-31939D02*
X46068Y-31546D01*
X45978Y-31546D02*
X46068Y-31546D01*
X45978Y-31939D02*
X45978Y-31546D01*
X46135Y-31939D02*
X46226Y-31939D01*
X46226Y-31939D02*
X46226Y-31546D01*
X46135Y-31546D02*
X46226Y-31546D01*
X46135Y-31939D02*
X46135Y-31546D01*
X46293Y-31939D02*
X46383Y-31939D01*
X46383Y-31939D02*
X46383Y-31546D01*
X46293Y-31546D02*
X46383Y-31546D01*
X46293Y-31939D02*
X46293Y-31546D01*
X46450Y-31939D02*
X46541Y-31939D01*
X46541Y-31939D02*
X46541Y-31546D01*
X46450Y-31546D02*
X46541Y-31546D01*
X46450Y-31939D02*
X46450Y-31546D01*
X46608Y-31939D02*
X46698Y-31939D01*
X46698Y-31939D02*
X46698Y-31546D01*
X46608Y-31546D02*
X46698Y-31546D01*
X46608Y-31939D02*
X46608Y-31546D01*
X46765Y-31939D02*
X46856Y-31939D01*
X46856Y-31939D02*
X46856Y-31546D01*
X46765Y-31546D02*
X46856Y-31546D01*
X46765Y-31939D02*
X46765Y-31546D01*
X46923Y-31939D02*
X47013Y-31939D01*
X47013Y-31939D02*
X47013Y-31546D01*
X46923Y-31546D02*
X47013Y-31546D01*
X46923Y-31939D02*
X46923Y-31546D01*
X47080Y-31939D02*
X47171Y-31939D01*
X47171Y-31939D02*
X47171Y-31546D01*
X47080Y-31546D02*
X47171Y-31546D01*
X47080Y-31939D02*
X47080Y-31546D01*
X47238Y-31939D02*
X47328Y-31939D01*
X47328Y-31939D02*
X47328Y-31546D01*
X47238Y-31546D02*
X47328Y-31546D01*
X47238Y-31939D02*
X47238Y-31546D01*
X47395Y-31939D02*
X47486Y-31939D01*
X47486Y-31939D02*
X47486Y-31546D01*
X47395Y-31546D02*
X47486Y-31546D01*
X47395Y-31939D02*
X47395Y-31546D01*
X47553Y-31939D02*
X47643Y-31939D01*
X47643Y-31939D02*
X47643Y-31546D01*
X47553Y-31546D02*
X47643Y-31546D01*
X47553Y-31939D02*
X47553Y-31546D01*
X47710Y-31939D02*
X47801Y-31939D01*
X47801Y-31939D02*
X47801Y-31546D01*
X47710Y-31546D02*
X47801Y-31546D01*
X47710Y-31939D02*
X47710Y-31546D01*
X47868Y-31939D02*
X47958Y-31939D01*
X47958Y-31939D02*
X47958Y-31546D01*
X47868Y-31546D02*
X47958Y-31546D01*
X47868Y-31939D02*
X47868Y-31546D01*
X48025Y-31939D02*
X48116Y-31939D01*
X48116Y-31939D02*
X48116Y-31546D01*
X48025Y-31546D02*
X48116Y-31546D01*
X48025Y-31939D02*
X48025Y-31546D01*
X48025Y-40106D02*
X48116Y-40106D01*
X48116Y-40106D02*
X48116Y-39713D01*
X48025Y-39713D02*
X48116Y-39713D01*
X48025Y-40106D02*
X48025Y-39713D01*
X47868Y-40106D02*
X47958Y-40106D01*
X47958Y-40106D02*
X47958Y-39713D01*
X47868Y-39713D02*
X47958Y-39713D01*
X47868Y-40106D02*
X47868Y-39713D01*
X47710Y-40106D02*
X47801Y-40106D01*
X47801Y-40106D02*
X47801Y-39713D01*
X47710Y-39713D02*
X47801Y-39713D01*
X47710Y-40106D02*
X47710Y-39713D01*
X47553Y-40106D02*
X47643Y-40106D01*
X47643Y-40106D02*
X47643Y-39713D01*
X47553Y-39713D02*
X47643Y-39713D01*
X47553Y-40106D02*
X47553Y-39713D01*
X47395Y-40106D02*
X47486Y-40106D01*
X47486Y-40106D02*
X47486Y-39713D01*
X47395Y-39713D02*
X47486Y-39713D01*
X47395Y-40106D02*
X47395Y-39713D01*
X47238Y-40106D02*
X47328Y-40106D01*
X47328Y-40106D02*
X47328Y-39713D01*
X47238Y-39713D02*
X47328Y-39713D01*
X47238Y-40106D02*
X47238Y-39713D01*
X47080Y-40106D02*
X47171Y-40106D01*
X47171Y-40106D02*
X47171Y-39713D01*
X47080Y-39713D02*
X47171Y-39713D01*
X47080Y-40106D02*
X47080Y-39713D01*
X46923Y-40106D02*
X47013Y-40106D01*
X47013Y-40106D02*
X47013Y-39713D01*
X46923Y-39713D02*
X47013Y-39713D01*
X46923Y-40106D02*
X46923Y-39713D01*
X46765Y-40106D02*
X46856Y-40106D01*
X46856Y-40106D02*
X46856Y-39713D01*
X46765Y-39713D02*
X46856Y-39713D01*
X46765Y-40106D02*
X46765Y-39713D01*
X46608Y-40106D02*
X46698Y-40106D01*
X46698Y-40106D02*
X46698Y-39713D01*
X46608Y-39713D02*
X46698Y-39713D01*
X46608Y-40106D02*
X46608Y-39713D01*
X46450Y-40106D02*
X46541Y-40106D01*
X46541Y-40106D02*
X46541Y-39713D01*
X46450Y-39713D02*
X46541Y-39713D01*
X46450Y-40106D02*
X46450Y-39713D01*
X46293Y-40106D02*
X46383Y-40106D01*
X46383Y-40106D02*
X46383Y-39713D01*
X46293Y-39713D02*
X46383Y-39713D01*
X46293Y-40106D02*
X46293Y-39713D01*
X46135Y-40106D02*
X46226Y-40106D01*
X46226Y-40106D02*
X46226Y-39713D01*
X46135Y-39713D02*
X46226Y-39713D01*
X46135Y-40106D02*
X46135Y-39713D01*
X45978Y-40106D02*
X46068Y-40106D01*
X46068Y-40106D02*
X46068Y-39713D01*
X45978Y-39713D02*
X46068Y-39713D01*
X45978Y-40106D02*
X45978Y-39713D01*
X45820Y-40106D02*
X45911Y-40106D01*
X45911Y-40106D02*
X45911Y-39713D01*
X45820Y-39713D02*
X45911Y-39713D01*
X45820Y-40106D02*
X45820Y-39713D01*
X45663Y-40106D02*
X45753Y-40106D01*
X45753Y-40106D02*
X45753Y-39713D01*
X45663Y-39713D02*
X45753Y-39713D01*
X45663Y-40106D02*
X45663Y-39713D01*
X45505Y-40106D02*
X45596Y-40106D01*
X45596Y-40106D02*
X45596Y-39713D01*
X45505Y-39713D02*
X45596Y-39713D01*
X45505Y-40106D02*
X45505Y-39713D01*
X45348Y-40106D02*
X45438Y-40106D01*
X45438Y-40106D02*
X45438Y-39713D01*
X45348Y-39713D02*
X45438Y-39713D01*
X45348Y-40106D02*
X45348Y-39713D01*
X45190Y-40106D02*
X45281Y-40106D01*
X45281Y-40106D02*
X45281Y-39713D01*
X45190Y-39713D02*
X45281Y-39713D01*
X45190Y-40106D02*
X45190Y-39713D01*
X45033Y-40106D02*
X45123Y-40106D01*
X45123Y-40106D02*
X45123Y-39713D01*
X45033Y-39713D02*
X45123Y-39713D01*
X45033Y-40106D02*
X45033Y-39713D01*
X44875Y-40106D02*
X44966Y-40106D01*
X44966Y-40106D02*
X44966Y-39713D01*
X44875Y-39713D02*
X44966Y-39713D01*
X44875Y-40106D02*
X44875Y-39713D01*
X44718Y-40106D02*
X44809Y-40106D01*
X44809Y-40106D02*
X44809Y-39713D01*
X44718Y-39713D02*
X44809Y-39713D01*
X44718Y-40106D02*
X44718Y-39713D01*
X44561Y-40106D02*
X44652Y-40106D01*
X44652Y-40106D02*
X44652Y-39713D01*
X44561Y-39713D02*
X44652Y-39713D01*
X44561Y-40106D02*
X44561Y-39713D01*
X44404Y-40106D02*
X44495Y-40106D01*
X44495Y-40106D02*
X44495Y-39713D01*
X44404Y-39713D02*
X44495Y-39713D01*
X44404Y-40106D02*
X44404Y-39713D01*
X44247Y-40106D02*
X44337Y-40106D01*
X44337Y-40106D02*
X44337Y-39713D01*
X44247Y-39713D02*
X44337Y-39713D01*
X44247Y-40106D02*
X44247Y-39713D01*
X44089Y-40106D02*
X44180Y-40106D01*
X44180Y-40106D02*
X44180Y-39713D01*
X44089Y-39713D02*
X44180Y-39713D01*
X44089Y-40106D02*
X44089Y-39713D01*
X43932Y-40106D02*
X44022Y-40106D01*
X44022Y-40106D02*
X44022Y-39713D01*
X43932Y-39713D02*
X44022Y-39713D01*
X43932Y-40106D02*
X43932Y-39713D01*
X43774Y-40106D02*
X43865Y-40106D01*
X43865Y-40106D02*
X43865Y-39713D01*
X43774Y-39713D02*
X43865Y-39713D01*
X43774Y-40106D02*
X43774Y-39713D01*
X43617Y-40106D02*
X43707Y-40106D01*
X43707Y-40106D02*
X43707Y-39713D01*
X43617Y-39713D02*
X43707Y-39713D01*
X43617Y-40106D02*
X43617Y-39713D01*
X43459Y-40106D02*
X43550Y-40106D01*
X43550Y-40106D02*
X43550Y-39713D01*
X43459Y-39713D02*
X43550Y-39713D01*
X43459Y-40106D02*
X43459Y-39713D01*
X43302Y-40106D02*
X43392Y-40106D01*
X43392Y-40106D02*
X43392Y-39713D01*
X43302Y-39713D02*
X43392Y-39713D01*
X43302Y-40106D02*
X43302Y-39713D01*
X43144Y-40106D02*
X43235Y-40106D01*
X43235Y-40106D02*
X43235Y-39713D01*
X43144Y-39713D02*
X43235Y-39713D01*
X43144Y-40106D02*
X43144Y-39713D01*
X42987Y-40106D02*
X43077Y-40106D01*
X43077Y-40106D02*
X43077Y-39713D01*
X42987Y-39713D02*
X43077Y-39713D01*
X42987Y-40106D02*
X42987Y-39713D01*
X42829Y-40106D02*
X42920Y-40106D01*
X42920Y-40106D02*
X42920Y-39713D01*
X42829Y-39713D02*
X42920Y-39713D01*
X42829Y-40106D02*
X42829Y-39713D01*
X42672Y-40106D02*
X42762Y-40106D01*
X42762Y-40106D02*
X42762Y-39713D01*
X42672Y-39713D02*
X42762Y-39713D01*
X42672Y-40106D02*
X42672Y-39713D01*
X42514Y-40106D02*
X42605Y-40106D01*
X42605Y-40106D02*
X42605Y-39713D01*
X42514Y-39713D02*
X42605Y-39713D01*
X42514Y-40106D02*
X42514Y-39713D01*
X42357Y-40106D02*
X42447Y-40106D01*
X42447Y-40106D02*
X42447Y-39713D01*
X42357Y-39713D02*
X42447Y-39713D01*
X42357Y-40106D02*
X42357Y-39713D01*
X42199Y-40106D02*
X42290Y-40106D01*
X42290Y-40106D02*
X42290Y-39713D01*
X42199Y-39713D02*
X42290Y-39713D01*
X42199Y-40106D02*
X42199Y-39713D01*
X42042Y-40106D02*
X42132Y-40106D01*
X42132Y-40106D02*
X42132Y-39713D01*
X42042Y-39713D02*
X42132Y-39713D01*
X42042Y-40106D02*
X42042Y-39713D01*
X41884Y-40106D02*
X41975Y-40106D01*
X41975Y-40106D02*
X41975Y-39713D01*
X41884Y-39713D02*
X41975Y-39713D01*
X41884Y-40106D02*
X41884Y-39713D01*
X41727Y-40106D02*
X41817Y-40106D01*
X41817Y-40106D02*
X41817Y-39713D01*
X41727Y-39713D02*
X41817Y-39713D01*
X41727Y-40106D02*
X41727Y-39713D01*
X41569Y-40106D02*
X41660Y-40106D01*
X41660Y-40106D02*
X41660Y-39713D01*
X41569Y-39713D02*
X41660Y-39713D01*
X41569Y-40106D02*
X41569Y-39713D01*
X41412Y-40106D02*
X41502Y-40106D01*
X41502Y-40106D02*
X41502Y-39713D01*
X41412Y-39713D02*
X41502Y-39713D01*
X41412Y-40106D02*
X41412Y-39713D01*
X41254Y-40106D02*
X41345Y-40106D01*
X41345Y-40106D02*
X41345Y-39713D01*
X41254Y-39713D02*
X41345Y-39713D01*
X41254Y-40106D02*
X41254Y-39713D01*
X40405Y-39257D02*
X40798Y-39257D01*
X40798Y-39257D02*
X40798Y-39166D01*
X40405Y-39166D02*
X40798Y-39166D01*
X40405Y-39257D02*
X40405Y-39166D01*
X40405Y-39099D02*
X40798Y-39099D01*
X40798Y-39099D02*
X40798Y-39009D01*
X40405Y-39009D02*
X40798Y-39009D01*
X40405Y-39099D02*
X40405Y-39009D01*
X40405Y-38942D02*
X40798Y-38942D01*
X40798Y-38942D02*
X40798Y-38851D01*
X40405Y-38851D02*
X40798Y-38851D01*
X40405Y-38942D02*
X40405Y-38851D01*
X40405Y-38784D02*
X40798Y-38784D01*
X40798Y-38784D02*
X40798Y-38694D01*
X40405Y-38694D02*
X40798Y-38694D01*
X40405Y-38784D02*
X40405Y-38694D01*
X40405Y-38627D02*
X40798Y-38627D01*
X40798Y-38627D02*
X40798Y-38536D01*
X40405Y-38536D02*
X40798Y-38536D01*
X40405Y-38627D02*
X40405Y-38536D01*
X40405Y-38469D02*
X40798Y-38469D01*
X40798Y-38469D02*
X40798Y-38379D01*
X40405Y-38379D02*
X40798Y-38379D01*
X40405Y-38469D02*
X40405Y-38379D01*
X40405Y-38312D02*
X40798Y-38312D01*
X40798Y-38312D02*
X40798Y-38221D01*
X40405Y-38221D02*
X40798Y-38221D01*
X40405Y-38312D02*
X40405Y-38221D01*
X40405Y-38154D02*
X40798Y-38154D01*
X40798Y-38154D02*
X40798Y-38064D01*
X40405Y-38064D02*
X40798Y-38064D01*
X40405Y-38154D02*
X40405Y-38064D01*
X40405Y-37997D02*
X40798Y-37997D01*
X40798Y-37997D02*
X40798Y-37906D01*
X40405Y-37906D02*
X40798Y-37906D01*
X40405Y-37997D02*
X40405Y-37906D01*
X40405Y-37839D02*
X40798Y-37839D01*
X40798Y-37839D02*
X40798Y-37749D01*
X40405Y-37749D02*
X40798Y-37749D01*
X40405Y-37839D02*
X40405Y-37749D01*
X40405Y-37682D02*
X40798Y-37682D01*
X40798Y-37682D02*
X40798Y-37591D01*
X40405Y-37591D02*
X40798Y-37591D01*
X40405Y-37682D02*
X40405Y-37591D01*
X40405Y-37524D02*
X40798Y-37524D01*
X40798Y-37524D02*
X40798Y-37434D01*
X40405Y-37434D02*
X40798Y-37434D01*
X40405Y-37524D02*
X40405Y-37434D01*
X40405Y-37367D02*
X40798Y-37367D01*
X40798Y-37367D02*
X40798Y-37276D01*
X40405Y-37276D02*
X40798Y-37276D01*
X40405Y-37367D02*
X40405Y-37276D01*
X40405Y-37209D02*
X40798Y-37209D01*
X40798Y-37209D02*
X40798Y-37119D01*
X40405Y-37119D02*
X40798Y-37119D01*
X40405Y-37209D02*
X40405Y-37119D01*
X40405Y-37052D02*
X40798Y-37052D01*
X40798Y-37052D02*
X40798Y-36961D01*
X40405Y-36961D02*
X40798Y-36961D01*
X40405Y-37052D02*
X40405Y-36961D01*
X40405Y-36894D02*
X40798Y-36894D01*
X40798Y-36894D02*
X40798Y-36804D01*
X40405Y-36804D02*
X40798Y-36804D01*
X40405Y-36894D02*
X40405Y-36804D01*
X40405Y-36737D02*
X40798Y-36737D01*
X40798Y-36737D02*
X40798Y-36646D01*
X40405Y-36646D02*
X40798Y-36646D01*
X40405Y-36737D02*
X40405Y-36646D01*
X40405Y-36579D02*
X40798Y-36579D01*
X40798Y-36579D02*
X40798Y-36489D01*
X40405Y-36489D02*
X40798Y-36489D01*
X40405Y-36579D02*
X40405Y-36489D01*
X40405Y-36422D02*
X40798Y-36422D01*
X40798Y-36422D02*
X40798Y-36331D01*
X40405Y-36331D02*
X40798Y-36331D01*
X40405Y-36422D02*
X40405Y-36331D01*
X40405Y-36264D02*
X40798Y-36264D01*
X40798Y-36264D02*
X40798Y-36174D01*
X40405Y-36174D02*
X40798Y-36174D01*
X40405Y-36264D02*
X40405Y-36174D01*
X40405Y-36107D02*
X40798Y-36107D01*
X40798Y-36107D02*
X40798Y-36016D01*
X40405Y-36016D02*
X40798Y-36016D01*
X40405Y-36107D02*
X40405Y-36016D01*
X40405Y-35950D02*
X40798Y-35950D01*
X40798Y-35950D02*
X40798Y-35859D01*
X40405Y-35859D02*
X40798Y-35859D01*
X40405Y-35950D02*
X40405Y-35859D01*
X40405Y-35793D02*
X40798Y-35793D01*
X40798Y-35793D02*
X40798Y-35702D01*
X40405Y-35702D02*
X40798Y-35702D01*
X40405Y-35793D02*
X40405Y-35702D01*
X40405Y-35636D02*
X40798Y-35636D01*
X40798Y-35636D02*
X40798Y-35545D01*
X40405Y-35545D02*
X40798Y-35545D01*
X40405Y-35636D02*
X40405Y-35545D01*
X40405Y-35478D02*
X40798Y-35478D01*
X40798Y-35478D02*
X40798Y-35388D01*
X40405Y-35388D02*
X40798Y-35388D01*
X40405Y-35478D02*
X40405Y-35388D01*
X40405Y-35321D02*
X40798Y-35321D01*
X40798Y-35321D02*
X40798Y-35230D01*
X40405Y-35230D02*
X40798Y-35230D01*
X40405Y-35321D02*
X40405Y-35230D01*
X40405Y-35163D02*
X40798Y-35163D01*
X40798Y-35163D02*
X40798Y-35073D01*
X40405Y-35073D02*
X40798Y-35073D01*
X40405Y-35163D02*
X40405Y-35073D01*
X40405Y-35006D02*
X40798Y-35006D01*
X40798Y-35006D02*
X40798Y-34915D01*
X40405Y-34915D02*
X40798Y-34915D01*
X40405Y-35006D02*
X40405Y-34915D01*
X40405Y-34848D02*
X40798Y-34848D01*
X40798Y-34848D02*
X40798Y-34758D01*
X40405Y-34758D02*
X40798Y-34758D01*
X40405Y-34848D02*
X40405Y-34758D01*
X40405Y-34691D02*
X40798Y-34691D01*
X40798Y-34691D02*
X40798Y-34600D01*
X40405Y-34600D02*
X40798Y-34600D01*
X40405Y-34691D02*
X40405Y-34600D01*
X40405Y-34533D02*
X40798Y-34533D01*
X40798Y-34533D02*
X40798Y-34443D01*
X40405Y-34443D02*
X40798Y-34443D01*
X40405Y-34533D02*
X40405Y-34443D01*
X40405Y-34376D02*
X40798Y-34376D01*
X40798Y-34376D02*
X40798Y-34285D01*
X40405Y-34285D02*
X40798Y-34285D01*
X40405Y-34376D02*
X40405Y-34285D01*
X40405Y-34218D02*
X40798Y-34218D01*
X40798Y-34218D02*
X40798Y-34128D01*
X40405Y-34128D02*
X40798Y-34128D01*
X40405Y-34218D02*
X40405Y-34128D01*
X40405Y-34061D02*
X40798Y-34061D01*
X40798Y-34061D02*
X40798Y-33970D01*
X40405Y-33970D02*
X40798Y-33970D01*
X40405Y-34061D02*
X40405Y-33970D01*
X40405Y-33903D02*
X40798Y-33903D01*
X40798Y-33903D02*
X40798Y-33813D01*
X40405Y-33813D02*
X40798Y-33813D01*
X40405Y-33903D02*
X40405Y-33813D01*
X40405Y-33746D02*
X40798Y-33746D01*
X40798Y-33746D02*
X40798Y-33655D01*
X40405Y-33655D02*
X40798Y-33655D01*
X40405Y-33746D02*
X40405Y-33655D01*
X40405Y-33588D02*
X40798Y-33588D01*
X40798Y-33588D02*
X40798Y-33498D01*
X40405Y-33498D02*
X40798Y-33498D01*
X40405Y-33588D02*
X40405Y-33498D01*
X40405Y-33431D02*
X40798Y-33431D01*
X40798Y-33431D02*
X40798Y-33340D01*
X40405Y-33340D02*
X40798Y-33340D01*
X40405Y-33431D02*
X40405Y-33340D01*
X40405Y-33273D02*
X40798Y-33273D01*
X40798Y-33273D02*
X40798Y-33183D01*
X40405Y-33183D02*
X40798Y-33183D01*
X40405Y-33273D02*
X40405Y-33183D01*
X40405Y-33116D02*
X40798Y-33116D01*
X40798Y-33116D02*
X40798Y-33025D01*
X40405Y-33025D02*
X40798Y-33025D01*
X40405Y-33116D02*
X40405Y-33025D01*
X40405Y-32958D02*
X40798Y-32958D01*
X40798Y-32958D02*
X40798Y-32868D01*
X40405Y-32868D02*
X40798Y-32868D01*
X40405Y-32958D02*
X40405Y-32868D01*
X40405Y-32801D02*
X40798Y-32801D01*
X40798Y-32801D02*
X40798Y-32710D01*
X40405Y-32710D02*
X40798Y-32710D01*
X40405Y-32801D02*
X40405Y-32710D01*
X40405Y-32643D02*
X40798Y-32643D01*
X40798Y-32643D02*
X40798Y-32553D01*
X40405Y-32553D02*
X40798Y-32553D01*
X40405Y-32643D02*
X40405Y-32553D01*
X40405Y-32486D02*
X40798Y-32486D01*
X40798Y-32486D02*
X40798Y-32395D01*
X40405Y-32395D02*
X40798Y-32395D01*
X40405Y-32486D02*
X40405Y-32395D01*
X48572Y-32486D02*
X48965Y-32486D01*
X48965Y-32486D02*
X48965Y-32395D01*
X48572Y-32395D02*
X48965Y-32395D01*
X48572Y-32486D02*
X48572Y-32395D01*
X48572Y-32643D02*
X48965Y-32643D01*
X48965Y-32643D02*
X48965Y-32553D01*
X48572Y-32553D02*
X48965Y-32553D01*
X48572Y-32643D02*
X48572Y-32553D01*
X48572Y-32801D02*
X48965Y-32801D01*
X48965Y-32801D02*
X48965Y-32710D01*
X48572Y-32710D02*
X48965Y-32710D01*
X48572Y-32801D02*
X48572Y-32710D01*
X48572Y-32958D02*
X48965Y-32958D01*
X48965Y-32958D02*
X48965Y-32868D01*
X48572Y-32868D02*
X48965Y-32868D01*
X48572Y-32958D02*
X48572Y-32868D01*
X48572Y-33116D02*
X48965Y-33116D01*
X48965Y-33116D02*
X48965Y-33025D01*
X48572Y-33025D02*
X48965Y-33025D01*
X48572Y-33116D02*
X48572Y-33025D01*
X48572Y-33273D02*
X48965Y-33273D01*
X48965Y-33273D02*
X48965Y-33183D01*
X48572Y-33183D02*
X48965Y-33183D01*
X48572Y-33273D02*
X48572Y-33183D01*
X48572Y-33431D02*
X48965Y-33431D01*
X48965Y-33431D02*
X48965Y-33340D01*
X48572Y-33340D02*
X48965Y-33340D01*
X48572Y-33431D02*
X48572Y-33340D01*
X48572Y-33588D02*
X48965Y-33588D01*
X48965Y-33588D02*
X48965Y-33498D01*
X48572Y-33498D02*
X48965Y-33498D01*
X48572Y-33588D02*
X48572Y-33498D01*
X48572Y-33746D02*
X48965Y-33746D01*
X48965Y-33746D02*
X48965Y-33655D01*
X48572Y-33655D02*
X48965Y-33655D01*
X48572Y-33746D02*
X48572Y-33655D01*
X48572Y-33903D02*
X48965Y-33903D01*
X48965Y-33903D02*
X48965Y-33813D01*
X48572Y-33813D02*
X48965Y-33813D01*
X48572Y-33903D02*
X48572Y-33813D01*
X48572Y-34061D02*
X48965Y-34061D01*
X48965Y-34061D02*
X48965Y-33970D01*
X48572Y-33970D02*
X48965Y-33970D01*
X48572Y-34061D02*
X48572Y-33970D01*
X48572Y-34218D02*
X48965Y-34218D01*
X48965Y-34218D02*
X48965Y-34128D01*
X48572Y-34128D02*
X48965Y-34128D01*
X48572Y-34218D02*
X48572Y-34128D01*
X48572Y-34376D02*
X48965Y-34376D01*
X48965Y-34376D02*
X48965Y-34285D01*
X48572Y-34285D02*
X48965Y-34285D01*
X48572Y-34376D02*
X48572Y-34285D01*
X48572Y-34533D02*
X48965Y-34533D01*
X48965Y-34533D02*
X48965Y-34443D01*
X48572Y-34443D02*
X48965Y-34443D01*
X48572Y-34533D02*
X48572Y-34443D01*
X48572Y-34691D02*
X48965Y-34691D01*
X48965Y-34691D02*
X48965Y-34600D01*
X48572Y-34600D02*
X48965Y-34600D01*
X48572Y-34691D02*
X48572Y-34600D01*
X48572Y-34848D02*
X48965Y-34848D01*
X48965Y-34848D02*
X48965Y-34758D01*
X48572Y-34758D02*
X48965Y-34758D01*
X48572Y-34848D02*
X48572Y-34758D01*
X48572Y-35006D02*
X48965Y-35006D01*
X48965Y-35006D02*
X48965Y-34915D01*
X48572Y-34915D02*
X48965Y-34915D01*
X48572Y-35006D02*
X48572Y-34915D01*
X48572Y-35163D02*
X48965Y-35163D01*
X48965Y-35163D02*
X48965Y-35073D01*
X48572Y-35073D02*
X48965Y-35073D01*
X48572Y-35163D02*
X48572Y-35073D01*
X48572Y-35321D02*
X48965Y-35321D01*
X48965Y-35321D02*
X48965Y-35230D01*
X48572Y-35230D02*
X48965Y-35230D01*
X48572Y-35321D02*
X48572Y-35230D01*
X48572Y-35478D02*
X48965Y-35478D01*
X48965Y-35478D02*
X48965Y-35388D01*
X48572Y-35388D02*
X48965Y-35388D01*
X48572Y-35478D02*
X48572Y-35388D01*
X48572Y-35636D02*
X48965Y-35636D01*
X48965Y-35636D02*
X48965Y-35545D01*
X48572Y-35545D02*
X48965Y-35545D01*
X48572Y-35636D02*
X48572Y-35545D01*
X48572Y-35793D02*
X48965Y-35793D01*
X48965Y-35793D02*
X48965Y-35702D01*
X48572Y-35702D02*
X48965Y-35702D01*
X48572Y-35793D02*
X48572Y-35702D01*
X48572Y-35950D02*
X48965Y-35950D01*
X48965Y-35950D02*
X48965Y-35859D01*
X48572Y-35859D02*
X48965Y-35859D01*
X48572Y-35950D02*
X48572Y-35859D01*
X48572Y-36107D02*
X48965Y-36107D01*
X48965Y-36107D02*
X48965Y-36016D01*
X48572Y-36016D02*
X48965Y-36016D01*
X48572Y-36107D02*
X48572Y-36016D01*
X48572Y-36264D02*
X48965Y-36264D01*
X48965Y-36264D02*
X48965Y-36174D01*
X48572Y-36174D02*
X48965Y-36174D01*
X48572Y-36264D02*
X48572Y-36174D01*
X48572Y-36422D02*
X48965Y-36422D01*
X48965Y-36422D02*
X48965Y-36331D01*
X48572Y-36331D02*
X48965Y-36331D01*
X48572Y-36422D02*
X48572Y-36331D01*
X48572Y-36579D02*
X48965Y-36579D01*
X48965Y-36579D02*
X48965Y-36489D01*
X48572Y-36489D02*
X48965Y-36489D01*
X48572Y-36579D02*
X48572Y-36489D01*
X48572Y-36737D02*
X48965Y-36737D01*
X48965Y-36737D02*
X48965Y-36646D01*
X48572Y-36646D02*
X48965Y-36646D01*
X48572Y-36737D02*
X48572Y-36646D01*
X48572Y-36894D02*
X48965Y-36894D01*
X48965Y-36894D02*
X48965Y-36804D01*
X48572Y-36804D02*
X48965Y-36804D01*
X48572Y-36894D02*
X48572Y-36804D01*
X48572Y-37052D02*
X48965Y-37052D01*
X48965Y-37052D02*
X48965Y-36961D01*
X48572Y-36961D02*
X48965Y-36961D01*
X48572Y-37052D02*
X48572Y-36961D01*
X48572Y-37209D02*
X48965Y-37209D01*
X48965Y-37209D02*
X48965Y-37119D01*
X48572Y-37119D02*
X48965Y-37119D01*
X48572Y-37209D02*
X48572Y-37119D01*
X48572Y-37367D02*
X48965Y-37367D01*
X48965Y-37367D02*
X48965Y-37276D01*
X48572Y-37276D02*
X48965Y-37276D01*
X48572Y-37367D02*
X48572Y-37276D01*
X48572Y-37524D02*
X48965Y-37524D01*
X48965Y-37524D02*
X48965Y-37434D01*
X48572Y-37434D02*
X48965Y-37434D01*
X48572Y-37524D02*
X48572Y-37434D01*
X48572Y-37682D02*
X48965Y-37682D01*
X48965Y-37682D02*
X48965Y-37591D01*
X48572Y-37591D02*
X48965Y-37591D01*
X48572Y-37682D02*
X48572Y-37591D01*
X48572Y-37839D02*
X48965Y-37839D01*
X48965Y-37839D02*
X48965Y-37749D01*
X48572Y-37749D02*
X48965Y-37749D01*
X48572Y-37839D02*
X48572Y-37749D01*
X48572Y-37997D02*
X48965Y-37997D01*
X48965Y-37997D02*
X48965Y-37906D01*
X48572Y-37906D02*
X48965Y-37906D01*
X48572Y-37997D02*
X48572Y-37906D01*
X48572Y-38154D02*
X48965Y-38154D01*
X48965Y-38154D02*
X48965Y-38064D01*
X48572Y-38064D02*
X48965Y-38064D01*
X48572Y-38154D02*
X48572Y-38064D01*
X48572Y-38312D02*
X48965Y-38312D01*
X48965Y-38312D02*
X48965Y-38221D01*
X48572Y-38221D02*
X48965Y-38221D01*
X48572Y-38312D02*
X48572Y-38221D01*
X48572Y-38469D02*
X48965Y-38469D01*
X48965Y-38469D02*
X48965Y-38379D01*
X48572Y-38379D02*
X48965Y-38379D01*
X48572Y-38469D02*
X48572Y-38379D01*
X48572Y-38627D02*
X48965Y-38627D01*
X48965Y-38627D02*
X48965Y-38536D01*
X48572Y-38536D02*
X48965Y-38536D01*
X48572Y-38627D02*
X48572Y-38536D01*
X48572Y-38784D02*
X48965Y-38784D01*
X48965Y-38784D02*
X48965Y-38694D01*
X48572Y-38694D02*
X48965Y-38694D01*
X48572Y-38784D02*
X48572Y-38694D01*
X48572Y-38942D02*
X48965Y-38942D01*
X48965Y-38942D02*
X48965Y-38851D01*
X48572Y-38851D02*
X48965Y-38851D01*
X48572Y-38942D02*
X48572Y-38851D01*
X48572Y-39099D02*
X48965Y-39099D01*
X48965Y-39099D02*
X48965Y-39009D01*
X48572Y-39009D02*
X48965Y-39009D01*
X48572Y-39099D02*
X48572Y-39009D01*
X48572Y-39257D02*
X48965Y-39257D01*
X48965Y-39257D02*
X48965Y-39166D01*
X48572Y-39166D02*
X48965Y-39166D01*
X48572Y-39257D02*
X48572Y-39166D01*
X43583Y-36928D02*
X44213Y-36928D01*
X44213Y-36928D02*
X44213Y-36298D01*
X43583Y-36298D02*
X44213Y-36298D01*
X43583Y-36928D02*
X43583Y-36298D01*
X44371Y-36928D02*
X44999Y-36928D01*
X44999Y-36928D02*
X44999Y-36298D01*
X44371Y-36298D02*
X44999Y-36298D01*
X44371Y-36928D02*
X44371Y-36298D01*
X45157Y-36928D02*
X45787Y-36928D01*
X45787Y-36928D02*
X45787Y-36298D01*
X45157Y-36298D02*
X45787Y-36298D01*
X45157Y-36928D02*
X45157Y-36298D01*
X43583Y-36140D02*
X44213Y-36140D01*
X44213Y-36140D02*
X44213Y-35512D01*
X43583Y-35512D02*
X44213Y-35512D01*
X43583Y-36140D02*
X43583Y-35512D01*
X45157Y-36140D02*
X45787Y-36140D01*
X45787Y-36140D02*
X45787Y-35512D01*
X45157Y-35512D02*
X45787Y-35512D01*
X45157Y-36140D02*
X45157Y-35512D01*
X43583Y-35354D02*
X44213Y-35354D01*
X44213Y-35354D02*
X44213Y-34724D01*
X43583Y-34724D02*
X44213Y-34724D01*
X43583Y-35354D02*
X43583Y-34724D01*
X44371Y-35354D02*
X44999Y-35354D01*
X44999Y-35354D02*
X44999Y-34724D01*
X44371Y-34724D02*
X44999Y-34724D01*
X44371Y-35354D02*
X44371Y-34724D01*
X45157Y-35354D02*
X45787Y-35354D01*
X45787Y-35354D02*
X45787Y-34724D01*
X45157Y-34724D02*
X45787Y-34724D01*
X45157Y-35354D02*
X45157Y-34724D01*
G54D10*
X40759Y-31900D02*
X48611Y-31900D01*
X48611Y-31900D02*
X48611Y-39752D01*
X48611Y-39752D02*
X41153Y-39752D01*
X41153Y-39752D02*
X40759Y-39358D01*
X40759Y-39358D02*
X40759Y-31900D01*
G54D19*
X42010Y-38778D02*
G75*
G03X42010Y-38778I-277J0D01*
G74*
G01*
G54D11*
X51771Y-30255D02*
X51771Y-28287D01*
X51771Y-28287D02*
X50511Y-28287D01*
X50511Y-28287D02*
X50511Y-30255D01*
X50511Y-30255D02*
X51771Y-30255D01*
G54D12*
X45704Y-25401D02*
X45704Y-25501D01*
X45704Y-25501D02*
X45904Y-25751D01*
X45904Y-25751D02*
X46054Y-25751D01*
X45704Y-25401D02*
X45704Y-22751D01*
X45704Y-22751D02*
X48704Y-22751D01*
X48704Y-22751D02*
X48704Y-25751D01*
X48704Y-25751D02*
X46054Y-25751D01*
X46047Y-25562D02*
G75*
G03X46047Y-25562I-125J0D01*
G74*
G01*
G54D11*
X43851Y-25748D02*
X43664Y-25748D01*
X43664Y-25355D01*
X44151Y-25486D02*
X44151Y-25748D01*
X44057Y-25336D02*
X43964Y-25617D01*
X44207Y-25617D01*
G54D20*
X37207Y-47452D02*
X37147Y-47357D01*
X37104Y-47452D02*
X37104Y-47252D01*
X37172Y-47252D01*
X37189Y-47262D01*
X37198Y-47271D01*
X37207Y-47290D01*
X37207Y-47319D01*
X37198Y-47338D01*
X37189Y-47347D01*
X37172Y-47357D01*
X37104Y-47357D01*
X37369Y-47252D02*
X37284Y-47252D01*
X37275Y-47347D01*
X37284Y-47338D01*
X37301Y-47328D01*
X37344Y-47328D01*
X37361Y-47338D01*
X37369Y-47347D01*
X37378Y-47366D01*
X37378Y-47414D01*
X37369Y-47433D01*
X37361Y-47443D01*
X37344Y-47452D01*
X37301Y-47452D01*
X37284Y-47443D01*
X37275Y-47433D01*
X37532Y-47252D02*
X37498Y-47252D01*
X37481Y-47262D01*
X37472Y-47271D01*
X37455Y-47300D01*
X37447Y-47338D01*
X37447Y-47414D01*
X37455Y-47433D01*
X37464Y-47443D01*
X37481Y-47452D01*
X37515Y-47452D01*
X37532Y-47443D01*
X37541Y-47433D01*
X37549Y-47414D01*
X37549Y-47366D01*
X37541Y-47347D01*
X37532Y-47338D01*
X37515Y-47328D01*
X37481Y-47328D01*
X37464Y-47338D01*
X37455Y-47347D01*
X37447Y-47366D01*
X44923Y-22905D02*
X44863Y-22810D01*
X44820Y-22905D02*
X44820Y-22705D01*
X44889Y-22705D01*
X44906Y-22714D01*
X44915Y-22724D01*
X44923Y-22743D01*
X44923Y-22772D01*
X44915Y-22791D01*
X44906Y-22800D01*
X44889Y-22810D01*
X44820Y-22810D01*
X45077Y-22705D02*
X45043Y-22705D01*
X45026Y-22714D01*
X45017Y-22724D01*
X45000Y-22753D01*
X44992Y-22791D01*
X44992Y-22867D01*
X45000Y-22886D01*
X45009Y-22895D01*
X45026Y-22905D01*
X45060Y-22905D01*
X45077Y-22895D01*
X45086Y-22886D01*
X45095Y-22867D01*
X45095Y-22819D01*
X45086Y-22800D01*
X45077Y-22791D01*
X45060Y-22781D01*
X45026Y-22781D01*
X45009Y-22791D01*
X45000Y-22800D01*
X44992Y-22819D01*
X45163Y-22724D02*
X45172Y-22714D01*
X45189Y-22705D01*
X45232Y-22705D01*
X45249Y-22714D01*
X45257Y-22724D01*
X45266Y-22743D01*
X45266Y-22762D01*
X45257Y-22791D01*
X45155Y-22905D01*
X45266Y-22905D01*
X36429Y-35647D02*
X36439Y-35655D01*
X36448Y-35681D01*
X36448Y-35698D01*
X36439Y-35724D01*
X36420Y-35741D01*
X36401Y-35750D01*
X36363Y-35758D01*
X36334Y-35758D01*
X36296Y-35750D01*
X36277Y-35741D01*
X36258Y-35724D01*
X36248Y-35698D01*
X36248Y-35681D01*
X36258Y-35655D01*
X36267Y-35647D01*
X36448Y-35475D02*
X36448Y-35578D01*
X36448Y-35527D02*
X36248Y-35527D01*
X36277Y-35544D01*
X36296Y-35561D01*
X36305Y-35578D01*
X36248Y-35321D02*
X36248Y-35355D01*
X36258Y-35372D01*
X36267Y-35381D01*
X36296Y-35398D01*
X36334Y-35407D01*
X36410Y-35407D01*
X36429Y-35398D01*
X36439Y-35390D01*
X36448Y-35372D01*
X36448Y-35338D01*
X36439Y-35321D01*
X36429Y-35312D01*
X36410Y-35304D01*
X36363Y-35304D01*
X36343Y-35312D01*
X36334Y-35321D01*
X36324Y-35338D01*
X36324Y-35372D01*
X36334Y-35390D01*
X36343Y-35398D01*
X36363Y-35407D01*
X39244Y-50725D02*
X39254Y-50734D01*
X39263Y-50760D01*
X39263Y-50777D01*
X39254Y-50803D01*
X39235Y-50820D01*
X39216Y-50828D01*
X39177Y-50837D01*
X39149Y-50837D01*
X39111Y-50828D01*
X39092Y-50820D01*
X39073Y-50803D01*
X39063Y-50777D01*
X39063Y-50760D01*
X39073Y-50734D01*
X39082Y-50725D01*
X39263Y-50554D02*
X39263Y-50657D01*
X39263Y-50605D02*
X39063Y-50605D01*
X39092Y-50623D01*
X39111Y-50640D01*
X39120Y-50657D01*
X39063Y-50391D02*
X39063Y-50477D01*
X39158Y-50485D01*
X39149Y-50477D01*
X39139Y-50460D01*
X39139Y-50417D01*
X39149Y-50400D01*
X39158Y-50391D01*
X39177Y-50383D01*
X39225Y-50383D01*
X39244Y-50391D01*
X39254Y-50400D01*
X39263Y-50417D01*
X39263Y-50460D01*
X39254Y-50477D01*
X39244Y-50485D01*
X38388Y-47433D02*
X38379Y-47443D01*
X38353Y-47452D01*
X38336Y-47452D01*
X38311Y-47443D01*
X38293Y-47424D01*
X38285Y-47405D01*
X38276Y-47366D01*
X38276Y-47338D01*
X38285Y-47300D01*
X38293Y-47281D01*
X38311Y-47262D01*
X38336Y-47252D01*
X38353Y-47252D01*
X38379Y-47262D01*
X38388Y-47271D01*
X38559Y-47452D02*
X38456Y-47452D01*
X38508Y-47452D02*
X38508Y-47252D01*
X38491Y-47281D01*
X38473Y-47300D01*
X38456Y-47309D01*
X38713Y-47319D02*
X38713Y-47452D01*
X38671Y-47243D02*
X38628Y-47386D01*
X38739Y-47386D01*
G54D12*
X44001Y-23316D02*
X43801Y-23316D01*
X43801Y-23269D01*
X43811Y-23240D01*
X43830Y-23221D01*
X43849Y-23212D01*
X43887Y-23202D01*
X43915Y-23202D01*
X43953Y-23212D01*
X43972Y-23221D01*
X43991Y-23240D01*
X44001Y-23269D01*
X44001Y-23316D01*
X44001Y-23012D02*
X44001Y-23126D01*
X44001Y-23069D02*
X43801Y-23069D01*
X43830Y-23088D01*
X43849Y-23107D01*
X43858Y-23126D01*
G54D20*
X40840Y-43415D02*
X40745Y-43475D01*
X40840Y-43518D02*
X40640Y-43518D01*
X40640Y-43450D01*
X40650Y-43432D01*
X40659Y-43424D01*
X40678Y-43415D01*
X40707Y-43415D01*
X40726Y-43424D01*
X40735Y-43432D01*
X40745Y-43450D01*
X40745Y-43518D01*
X40707Y-43261D02*
X40840Y-43261D01*
X40630Y-43304D02*
X40773Y-43347D01*
X40773Y-43235D01*
X40840Y-43158D02*
X40840Y-43124D01*
X40830Y-43107D01*
X40821Y-43098D01*
X40792Y-43081D01*
X40754Y-43072D01*
X40678Y-43072D01*
X40659Y-43081D01*
X40650Y-43090D01*
X40640Y-43107D01*
X40640Y-43141D01*
X40650Y-43158D01*
X40659Y-43167D01*
X40678Y-43175D01*
X40726Y-43175D01*
X40745Y-43167D01*
X40754Y-43158D01*
X40764Y-43141D01*
X40764Y-43107D01*
X40754Y-43090D01*
X40745Y-43081D01*
X40726Y-43072D01*
X53040Y-22393D02*
X52980Y-22298D01*
X52938Y-22393D02*
X52938Y-22193D01*
X53006Y-22193D01*
X53023Y-22203D01*
X53032Y-22212D01*
X53040Y-22231D01*
X53040Y-22260D01*
X53032Y-22279D01*
X53023Y-22288D01*
X53006Y-22298D01*
X52938Y-22298D01*
X53195Y-22193D02*
X53160Y-22193D01*
X53143Y-22203D01*
X53135Y-22212D01*
X53118Y-22241D01*
X53109Y-22279D01*
X53109Y-22355D01*
X53118Y-22374D01*
X53126Y-22384D01*
X53143Y-22393D01*
X53178Y-22393D01*
X53195Y-22384D01*
X53203Y-22374D01*
X53212Y-22355D01*
X53212Y-22307D01*
X53203Y-22288D01*
X53195Y-22279D01*
X53178Y-22269D01*
X53143Y-22269D01*
X53126Y-22279D01*
X53118Y-22288D01*
X53109Y-22307D01*
X38692Y-53580D02*
X38597Y-53640D01*
X38692Y-53683D02*
X38492Y-53683D01*
X38492Y-53614D01*
X38502Y-53597D01*
X38511Y-53588D01*
X38530Y-53580D01*
X38559Y-53580D01*
X38578Y-53588D01*
X38588Y-53597D01*
X38597Y-53614D01*
X38597Y-53683D01*
X38492Y-53425D02*
X38492Y-53460D01*
X38502Y-53477D01*
X38511Y-53485D01*
X38540Y-53503D01*
X38578Y-53511D01*
X38654Y-53511D01*
X38673Y-53503D01*
X38683Y-53494D01*
X38692Y-53477D01*
X38692Y-53443D01*
X38683Y-53425D01*
X38673Y-53417D01*
X38654Y-53408D01*
X38607Y-53408D01*
X38588Y-53417D01*
X38578Y-53425D01*
X38569Y-53443D01*
X38569Y-53477D01*
X38578Y-53494D01*
X38588Y-53503D01*
X38607Y-53511D01*
X38492Y-53348D02*
X38492Y-53228D01*
X38692Y-53305D01*
X44313Y-22354D02*
X44253Y-22259D01*
X44210Y-22354D02*
X44210Y-22154D01*
X44279Y-22154D01*
X44296Y-22163D01*
X44304Y-22173D01*
X44313Y-22192D01*
X44313Y-22220D01*
X44304Y-22239D01*
X44296Y-22249D01*
X44279Y-22259D01*
X44210Y-22259D01*
X44476Y-22154D02*
X44390Y-22154D01*
X44381Y-22249D01*
X44390Y-22239D01*
X44407Y-22230D01*
X44450Y-22230D01*
X44467Y-22239D01*
X44476Y-22249D01*
X44484Y-22268D01*
X44484Y-22316D01*
X44476Y-22335D01*
X44467Y-22344D01*
X44450Y-22354D01*
X44407Y-22354D01*
X44390Y-22344D01*
X44381Y-22335D01*
X44544Y-22154D02*
X44656Y-22154D01*
X44596Y-22230D01*
X44621Y-22230D01*
X44639Y-22239D01*
X44647Y-22249D01*
X44656Y-22268D01*
X44656Y-22316D01*
X44647Y-22335D01*
X44639Y-22344D01*
X44621Y-22354D01*
X44570Y-22354D01*
X44553Y-22344D01*
X44544Y-22335D01*
X35914Y-33515D02*
X35854Y-33420D01*
X35812Y-33515D02*
X35812Y-33315D01*
X35880Y-33315D01*
X35897Y-33325D01*
X35906Y-33334D01*
X35914Y-33353D01*
X35914Y-33382D01*
X35906Y-33401D01*
X35897Y-33410D01*
X35880Y-33420D01*
X35812Y-33420D01*
X35974Y-33315D02*
X36086Y-33315D01*
X36026Y-33391D01*
X36052Y-33391D01*
X36069Y-33401D01*
X36077Y-33410D01*
X36086Y-33429D01*
X36086Y-33477D01*
X36077Y-33496D01*
X36069Y-33506D01*
X36052Y-33515D01*
X36000Y-33515D01*
X35983Y-33506D01*
X35974Y-33496D01*
X53060Y-21744D02*
X53000Y-21648D01*
X52957Y-21744D02*
X52957Y-21544D01*
X53026Y-21544D01*
X53043Y-21553D01*
X53051Y-21563D01*
X53060Y-21582D01*
X53060Y-21610D01*
X53051Y-21629D01*
X53043Y-21639D01*
X53026Y-21648D01*
X52957Y-21648D01*
X53223Y-21544D02*
X53137Y-21544D01*
X53129Y-21639D01*
X53137Y-21629D01*
X53154Y-21620D01*
X53197Y-21620D01*
X53214Y-21629D01*
X53223Y-21639D01*
X53231Y-21658D01*
X53231Y-21705D01*
X53223Y-21724D01*
X53214Y-21734D01*
X53197Y-21744D01*
X53154Y-21744D01*
X53137Y-21734D01*
X53129Y-21724D01*
X40711Y-24401D02*
X40651Y-24306D01*
X40608Y-24401D02*
X40608Y-24201D01*
X40676Y-24201D01*
X40693Y-24211D01*
X40702Y-24220D01*
X40711Y-24239D01*
X40711Y-24268D01*
X40702Y-24287D01*
X40693Y-24296D01*
X40676Y-24306D01*
X40608Y-24306D01*
X40873Y-24201D02*
X40788Y-24201D01*
X40779Y-24296D01*
X40788Y-24287D01*
X40805Y-24277D01*
X40848Y-24277D01*
X40865Y-24287D01*
X40873Y-24296D01*
X40882Y-24315D01*
X40882Y-24363D01*
X40873Y-24382D01*
X40865Y-24391D01*
X40848Y-24401D01*
X40805Y-24401D01*
X40788Y-24391D01*
X40779Y-24382D01*
X41045Y-24201D02*
X40959Y-24201D01*
X40951Y-24296D01*
X40959Y-24287D01*
X40976Y-24277D01*
X41019Y-24277D01*
X41036Y-24287D01*
X41045Y-24296D01*
X41053Y-24315D01*
X41053Y-24363D01*
X41045Y-24382D01*
X41036Y-24391D01*
X41019Y-24401D01*
X40976Y-24401D01*
X40959Y-24391D01*
X40951Y-24382D01*
X35895Y-34303D02*
X35835Y-34207D01*
X35792Y-34303D02*
X35792Y-34103D01*
X35860Y-34103D01*
X35878Y-34112D01*
X35886Y-34122D01*
X35895Y-34141D01*
X35895Y-34169D01*
X35886Y-34188D01*
X35878Y-34198D01*
X35860Y-34207D01*
X35792Y-34207D01*
X36066Y-34303D02*
X35963Y-34303D01*
X36015Y-34303D02*
X36015Y-34103D01*
X35998Y-34131D01*
X35980Y-34150D01*
X35963Y-34160D01*
X52974Y-21114D02*
X52914Y-21018D01*
X52871Y-21114D02*
X52871Y-20914D01*
X52940Y-20914D01*
X52957Y-20923D01*
X52966Y-20933D01*
X52974Y-20952D01*
X52974Y-20980D01*
X52966Y-20999D01*
X52957Y-21009D01*
X52940Y-21018D01*
X52871Y-21018D01*
X53137Y-20914D02*
X53051Y-20914D01*
X53043Y-21009D01*
X53051Y-20999D01*
X53069Y-20990D01*
X53111Y-20990D01*
X53129Y-20999D01*
X53137Y-21009D01*
X53146Y-21028D01*
X53146Y-21076D01*
X53137Y-21095D01*
X53129Y-21104D01*
X53111Y-21114D01*
X53069Y-21114D01*
X53051Y-21104D01*
X53043Y-21095D01*
X53206Y-20914D02*
X53326Y-20914D01*
X53249Y-21114D01*
X37098Y-35541D02*
X37003Y-35601D01*
X37098Y-35644D02*
X36898Y-35644D01*
X36898Y-35576D01*
X36907Y-35558D01*
X36917Y-35550D01*
X36936Y-35541D01*
X36965Y-35541D01*
X36984Y-35550D01*
X36993Y-35558D01*
X37003Y-35576D01*
X37003Y-35644D01*
X36965Y-35387D02*
X37098Y-35387D01*
X36888Y-35430D02*
X37031Y-35473D01*
X37031Y-35361D01*
X41192Y-27989D02*
X41097Y-28049D01*
X41192Y-28092D02*
X40992Y-28092D01*
X40992Y-28024D01*
X41002Y-28006D01*
X41011Y-27998D01*
X41030Y-27989D01*
X41059Y-27989D01*
X41078Y-27998D01*
X41088Y-28006D01*
X41097Y-28024D01*
X41097Y-28092D01*
X40992Y-27826D02*
X40992Y-27912D01*
X41088Y-27921D01*
X41078Y-27912D01*
X41069Y-27895D01*
X41069Y-27852D01*
X41078Y-27835D01*
X41088Y-27826D01*
X41107Y-27818D01*
X41154Y-27818D01*
X41173Y-27826D01*
X41183Y-27835D01*
X41192Y-27852D01*
X41192Y-27895D01*
X41183Y-27912D01*
X41173Y-27921D01*
X41192Y-27732D02*
X41192Y-27698D01*
X41183Y-27681D01*
X41173Y-27672D01*
X41145Y-27655D01*
X41107Y-27646D01*
X41030Y-27646D01*
X41011Y-27655D01*
X41002Y-27664D01*
X40992Y-27681D01*
X40992Y-27715D01*
X41002Y-27732D01*
X41011Y-27741D01*
X41030Y-27749D01*
X41078Y-27749D01*
X41097Y-27741D01*
X41107Y-27732D01*
X41116Y-27715D01*
X41116Y-27681D01*
X41107Y-27664D01*
X41097Y-27655D01*
X41078Y-27646D01*
X46163Y-29106D02*
X46103Y-29010D01*
X46060Y-29106D02*
X46060Y-28906D01*
X46129Y-28906D01*
X46146Y-28915D01*
X46155Y-28925D01*
X46163Y-28944D01*
X46163Y-28972D01*
X46155Y-28991D01*
X46146Y-29001D01*
X46129Y-29010D01*
X46060Y-29010D01*
X46318Y-28906D02*
X46283Y-28906D01*
X46266Y-28915D01*
X46258Y-28925D01*
X46240Y-28953D01*
X46232Y-28991D01*
X46232Y-29068D01*
X46240Y-29087D01*
X46249Y-29096D01*
X46266Y-29106D01*
X46300Y-29106D01*
X46318Y-29096D01*
X46326Y-29087D01*
X46335Y-29068D01*
X46335Y-29020D01*
X46326Y-29001D01*
X46318Y-28991D01*
X46300Y-28982D01*
X46266Y-28982D01*
X46249Y-28991D01*
X46240Y-29001D01*
X46232Y-29020D01*
X46446Y-28906D02*
X46463Y-28906D01*
X46480Y-28915D01*
X46489Y-28925D01*
X46498Y-28944D01*
X46506Y-28982D01*
X46506Y-29030D01*
X46498Y-29068D01*
X46489Y-29087D01*
X46480Y-29096D01*
X46463Y-29106D01*
X46446Y-29106D01*
X46429Y-29096D01*
X46420Y-29087D01*
X46412Y-29068D01*
X46403Y-29030D01*
X46403Y-28982D01*
X46412Y-28944D01*
X46420Y-28925D01*
X46429Y-28915D01*
X46446Y-28906D01*
X42207Y-24204D02*
X42147Y-24109D01*
X42104Y-24204D02*
X42104Y-24004D01*
X42172Y-24004D01*
X42189Y-24014D01*
X42198Y-24023D01*
X42207Y-24042D01*
X42207Y-24071D01*
X42198Y-24090D01*
X42189Y-24099D01*
X42172Y-24109D01*
X42104Y-24109D01*
X42361Y-24004D02*
X42327Y-24004D01*
X42309Y-24014D01*
X42301Y-24023D01*
X42284Y-24052D01*
X42275Y-24090D01*
X42275Y-24166D01*
X42284Y-24185D01*
X42292Y-24195D01*
X42309Y-24204D01*
X42344Y-24204D01*
X42361Y-24195D01*
X42369Y-24185D01*
X42378Y-24166D01*
X42378Y-24118D01*
X42369Y-24099D01*
X42361Y-24090D01*
X42344Y-24080D01*
X42309Y-24080D01*
X42292Y-24090D01*
X42284Y-24099D01*
X42275Y-24118D01*
X42541Y-24004D02*
X42455Y-24004D01*
X42447Y-24099D01*
X42455Y-24090D01*
X42472Y-24080D01*
X42515Y-24080D01*
X42532Y-24090D01*
X42541Y-24099D01*
X42549Y-24118D01*
X42549Y-24166D01*
X42541Y-24185D01*
X42532Y-24195D01*
X42515Y-24204D01*
X42472Y-24204D01*
X42455Y-24195D01*
X42447Y-24185D01*
X46163Y-29696D02*
X46103Y-29601D01*
X46060Y-29696D02*
X46060Y-29496D01*
X46129Y-29496D01*
X46146Y-29506D01*
X46155Y-29515D01*
X46163Y-29534D01*
X46163Y-29563D01*
X46155Y-29582D01*
X46146Y-29592D01*
X46129Y-29601D01*
X46060Y-29601D01*
X46318Y-29496D02*
X46283Y-29496D01*
X46266Y-29506D01*
X46258Y-29515D01*
X46240Y-29544D01*
X46232Y-29582D01*
X46232Y-29658D01*
X46240Y-29677D01*
X46249Y-29687D01*
X46266Y-29696D01*
X46300Y-29696D01*
X46318Y-29687D01*
X46326Y-29677D01*
X46335Y-29658D01*
X46335Y-29611D01*
X46326Y-29592D01*
X46318Y-29582D01*
X46300Y-29572D01*
X46266Y-29572D01*
X46249Y-29582D01*
X46240Y-29592D01*
X46232Y-29611D01*
X46506Y-29696D02*
X46403Y-29696D01*
X46455Y-29696D02*
X46455Y-29496D01*
X46438Y-29525D01*
X46420Y-29544D01*
X46403Y-29553D01*
X44018Y-25759D02*
X43958Y-25664D01*
X43915Y-25759D02*
X43915Y-25559D01*
X43983Y-25559D01*
X44001Y-25569D01*
X44009Y-25578D01*
X44018Y-25597D01*
X44018Y-25626D01*
X44009Y-25645D01*
X44001Y-25655D01*
X43983Y-25664D01*
X43915Y-25664D01*
X44181Y-25559D02*
X44095Y-25559D01*
X44086Y-25655D01*
X44095Y-25645D01*
X44112Y-25635D01*
X44155Y-25635D01*
X44172Y-25645D01*
X44181Y-25655D01*
X44189Y-25674D01*
X44189Y-25721D01*
X44181Y-25740D01*
X44172Y-25750D01*
X44155Y-25759D01*
X44112Y-25759D01*
X44095Y-25750D01*
X44086Y-25740D01*
X44292Y-25645D02*
X44275Y-25635D01*
X44266Y-25626D01*
X44258Y-25607D01*
X44258Y-25597D01*
X44266Y-25578D01*
X44275Y-25569D01*
X44292Y-25559D01*
X44326Y-25559D01*
X44343Y-25569D01*
X44352Y-25578D01*
X44361Y-25597D01*
X44361Y-25607D01*
X44352Y-25626D01*
X44343Y-25635D01*
X44326Y-25645D01*
X44292Y-25645D01*
X44275Y-25655D01*
X44266Y-25664D01*
X44258Y-25683D01*
X44258Y-25721D01*
X44266Y-25740D01*
X44275Y-25750D01*
X44292Y-25759D01*
X44326Y-25759D01*
X44343Y-25750D01*
X44352Y-25740D01*
X44361Y-25721D01*
X44361Y-25683D01*
X44352Y-25664D01*
X44343Y-25655D01*
X44326Y-25645D01*
X42266Y-22708D02*
X42206Y-22613D01*
X42163Y-22708D02*
X42163Y-22508D01*
X42231Y-22508D01*
X42249Y-22518D01*
X42257Y-22527D01*
X42266Y-22546D01*
X42266Y-22575D01*
X42257Y-22594D01*
X42249Y-22603D01*
X42231Y-22613D01*
X42163Y-22613D01*
X42429Y-22508D02*
X42343Y-22508D01*
X42334Y-22603D01*
X42343Y-22594D01*
X42360Y-22584D01*
X42403Y-22584D01*
X42420Y-22594D01*
X42429Y-22603D01*
X42437Y-22622D01*
X42437Y-22670D01*
X42429Y-22689D01*
X42420Y-22699D01*
X42403Y-22708D01*
X42360Y-22708D01*
X42343Y-22699D01*
X42334Y-22689D01*
X42591Y-22575D02*
X42591Y-22708D01*
X42549Y-22499D02*
X42506Y-22641D01*
X42617Y-22641D01*
X35907Y-51173D02*
X35847Y-51077D01*
X35805Y-51173D02*
X35805Y-50973D01*
X35873Y-50973D01*
X35890Y-50982D01*
X35899Y-50992D01*
X35907Y-51011D01*
X35907Y-51039D01*
X35899Y-51058D01*
X35890Y-51068D01*
X35873Y-51077D01*
X35805Y-51077D01*
X36062Y-50973D02*
X36027Y-50973D01*
X36010Y-50982D01*
X36002Y-50992D01*
X35985Y-51020D01*
X35976Y-51058D01*
X35976Y-51135D01*
X35985Y-51154D01*
X35993Y-51163D01*
X36010Y-51173D01*
X36045Y-51173D01*
X36062Y-51163D01*
X36070Y-51154D01*
X36079Y-51135D01*
X36079Y-51087D01*
X36070Y-51068D01*
X36062Y-51058D01*
X36045Y-51049D01*
X36010Y-51049D01*
X35993Y-51058D01*
X35985Y-51068D01*
X35976Y-51087D01*
X36233Y-51039D02*
X36233Y-51173D01*
X36190Y-50963D02*
X36147Y-51106D01*
X36259Y-51106D01*
X39814Y-50725D02*
X39719Y-50785D01*
X39814Y-50828D02*
X39614Y-50828D01*
X39614Y-50760D01*
X39624Y-50743D01*
X39633Y-50734D01*
X39652Y-50725D01*
X39681Y-50725D01*
X39700Y-50734D01*
X39710Y-50743D01*
X39719Y-50760D01*
X39719Y-50828D01*
X39614Y-50571D02*
X39614Y-50605D01*
X39624Y-50623D01*
X39633Y-50631D01*
X39662Y-50648D01*
X39700Y-50657D01*
X39776Y-50657D01*
X39795Y-50648D01*
X39805Y-50640D01*
X39814Y-50623D01*
X39814Y-50588D01*
X39805Y-50571D01*
X39795Y-50563D01*
X39776Y-50554D01*
X39729Y-50554D01*
X39710Y-50563D01*
X39700Y-50571D01*
X39691Y-50588D01*
X39691Y-50623D01*
X39700Y-50640D01*
X39710Y-50648D01*
X39729Y-50657D01*
X39614Y-50494D02*
X39614Y-50383D01*
X39691Y-50443D01*
X39691Y-50417D01*
X39700Y-50400D01*
X39710Y-50391D01*
X39729Y-50383D01*
X39776Y-50383D01*
X39795Y-50391D01*
X39805Y-50400D01*
X39814Y-50417D01*
X39814Y-50468D01*
X39805Y-50485D01*
X39795Y-50494D01*
X41965Y-42280D02*
X41870Y-42340D01*
X41965Y-42382D02*
X41765Y-42382D01*
X41765Y-42314D01*
X41775Y-42297D01*
X41784Y-42288D01*
X41803Y-42280D01*
X41832Y-42280D01*
X41851Y-42288D01*
X41860Y-42297D01*
X41870Y-42314D01*
X41870Y-42382D01*
X41784Y-42211D02*
X41775Y-42202D01*
X41765Y-42185D01*
X41765Y-42142D01*
X41775Y-42125D01*
X41784Y-42117D01*
X41803Y-42108D01*
X41822Y-42108D01*
X41851Y-42117D01*
X41965Y-42220D01*
X41965Y-42108D01*
X36153Y-54986D02*
X36058Y-55046D01*
X36153Y-55089D02*
X35953Y-55089D01*
X35953Y-55020D01*
X35963Y-55003D01*
X35972Y-54994D01*
X35991Y-54986D01*
X36020Y-54986D01*
X36039Y-54994D01*
X36049Y-55003D01*
X36058Y-55020D01*
X36058Y-55089D01*
X35953Y-54831D02*
X35953Y-54866D01*
X35963Y-54883D01*
X35972Y-54891D01*
X36001Y-54909D01*
X36039Y-54917D01*
X36115Y-54917D01*
X36134Y-54909D01*
X36144Y-54900D01*
X36153Y-54883D01*
X36153Y-54849D01*
X36144Y-54831D01*
X36134Y-54823D01*
X36115Y-54814D01*
X36068Y-54814D01*
X36049Y-54823D01*
X36039Y-54831D01*
X36030Y-54849D01*
X36030Y-54883D01*
X36039Y-54900D01*
X36049Y-54909D01*
X36068Y-54917D01*
X35953Y-54660D02*
X35953Y-54694D01*
X35963Y-54711D01*
X35972Y-54720D01*
X36001Y-54737D01*
X36039Y-54746D01*
X36115Y-54746D01*
X36134Y-54737D01*
X36144Y-54729D01*
X36153Y-54711D01*
X36153Y-54677D01*
X36144Y-54660D01*
X36134Y-54651D01*
X36115Y-54643D01*
X36068Y-54643D01*
X36049Y-54651D01*
X36039Y-54660D01*
X36030Y-54677D01*
X36030Y-54711D01*
X36039Y-54729D01*
X36049Y-54737D01*
X36068Y-54746D01*
X41074Y-48580D02*
X40979Y-48640D01*
X41074Y-48683D02*
X40874Y-48683D01*
X40874Y-48614D01*
X40884Y-48597D01*
X40893Y-48588D01*
X40912Y-48580D01*
X40941Y-48580D01*
X40960Y-48588D01*
X40969Y-48597D01*
X40979Y-48614D01*
X40979Y-48683D01*
X40874Y-48417D02*
X40874Y-48503D01*
X40969Y-48511D01*
X40960Y-48503D01*
X40950Y-48485D01*
X40950Y-48443D01*
X40960Y-48425D01*
X40969Y-48417D01*
X40989Y-48408D01*
X41036Y-48408D01*
X41055Y-48417D01*
X41065Y-48425D01*
X41074Y-48443D01*
X41074Y-48485D01*
X41065Y-48503D01*
X41055Y-48511D01*
X41074Y-48237D02*
X41074Y-48340D01*
X41074Y-48288D02*
X40874Y-48288D01*
X40903Y-48305D01*
X40922Y-48323D01*
X40931Y-48340D01*
X41035Y-47359D02*
X40940Y-47419D01*
X41035Y-47462D02*
X40835Y-47462D01*
X40835Y-47394D01*
X40844Y-47376D01*
X40854Y-47368D01*
X40873Y-47359D01*
X40902Y-47359D01*
X40921Y-47368D01*
X40930Y-47376D01*
X40940Y-47394D01*
X40940Y-47462D01*
X40835Y-47196D02*
X40835Y-47282D01*
X40930Y-47291D01*
X40921Y-47282D01*
X40911Y-47265D01*
X40911Y-47222D01*
X40921Y-47205D01*
X40930Y-47196D01*
X40949Y-47188D01*
X40997Y-47188D01*
X41016Y-47196D01*
X41025Y-47205D01*
X41035Y-47222D01*
X41035Y-47265D01*
X41025Y-47282D01*
X41016Y-47291D01*
X40854Y-47119D02*
X40844Y-47111D01*
X40835Y-47094D01*
X40835Y-47051D01*
X40844Y-47034D01*
X40854Y-47025D01*
X40873Y-47016D01*
X40892Y-47016D01*
X40921Y-47025D01*
X41035Y-47128D01*
X41035Y-47016D01*
X50691Y-22433D02*
X50682Y-22443D01*
X50657Y-22452D01*
X50639Y-22452D01*
X50614Y-22443D01*
X50597Y-22424D01*
X50588Y-22405D01*
X50579Y-22366D01*
X50579Y-22338D01*
X50588Y-22300D01*
X50597Y-22281D01*
X50614Y-22262D01*
X50639Y-22252D01*
X50657Y-22252D01*
X50682Y-22262D01*
X50691Y-22271D01*
X50862Y-22452D02*
X50759Y-22452D01*
X50811Y-22452D02*
X50811Y-22252D01*
X50794Y-22281D01*
X50777Y-22300D01*
X50759Y-22309D01*
X50965Y-22338D02*
X50948Y-22328D01*
X50939Y-22319D01*
X50931Y-22300D01*
X50931Y-22290D01*
X50939Y-22271D01*
X50948Y-22262D01*
X50965Y-22252D01*
X50999Y-22252D01*
X51017Y-22262D01*
X51025Y-22271D01*
X51034Y-22290D01*
X51034Y-22300D01*
X51025Y-22319D01*
X51017Y-22328D01*
X50999Y-22338D01*
X50965Y-22338D01*
X50948Y-22347D01*
X50939Y-22357D01*
X50931Y-22376D01*
X50931Y-22414D01*
X50939Y-22433D01*
X50948Y-22443D01*
X50965Y-22452D01*
X50999Y-22452D01*
X51017Y-22443D01*
X51025Y-22433D01*
X51034Y-22414D01*
X51034Y-22376D01*
X51025Y-22357D01*
X51017Y-22347D01*
X50999Y-22338D01*
X46606Y-22084D02*
X46616Y-22092D01*
X46625Y-22118D01*
X46625Y-22135D01*
X46616Y-22161D01*
X46597Y-22178D01*
X46578Y-22187D01*
X46540Y-22195D01*
X46511Y-22195D01*
X46473Y-22187D01*
X46454Y-22178D01*
X46435Y-22161D01*
X46425Y-22135D01*
X46425Y-22118D01*
X46435Y-22092D01*
X46444Y-22084D01*
X46444Y-22015D02*
X46435Y-22007D01*
X46425Y-21989D01*
X46425Y-21947D01*
X46435Y-21929D01*
X46444Y-21921D01*
X46464Y-21912D01*
X46483Y-21912D01*
X46511Y-21921D01*
X46625Y-22024D01*
X46625Y-21912D01*
X46425Y-21801D02*
X46425Y-21784D01*
X46435Y-21767D01*
X46444Y-21758D01*
X46464Y-21749D01*
X46502Y-21741D01*
X46549Y-21741D01*
X46587Y-21749D01*
X46606Y-21758D01*
X46616Y-21767D01*
X46625Y-21784D01*
X46625Y-21801D01*
X46616Y-21818D01*
X46606Y-21827D01*
X46587Y-21835D01*
X46549Y-21844D01*
X46502Y-21844D01*
X46464Y-21835D01*
X46444Y-21827D01*
X46435Y-21818D01*
X46425Y-21801D01*
X43998Y-26350D02*
X43989Y-26360D01*
X43964Y-26370D01*
X43947Y-26370D01*
X43921Y-26360D01*
X43904Y-26341D01*
X43895Y-26322D01*
X43887Y-26284D01*
X43887Y-26255D01*
X43895Y-26217D01*
X43904Y-26198D01*
X43921Y-26179D01*
X43947Y-26170D01*
X43964Y-26170D01*
X43989Y-26179D01*
X43998Y-26189D01*
X44169Y-26370D02*
X44067Y-26370D01*
X44118Y-26370D02*
X44118Y-26170D01*
X44101Y-26198D01*
X44084Y-26217D01*
X44067Y-26227D01*
X44255Y-26370D02*
X44289Y-26370D01*
X44307Y-26360D01*
X44315Y-26350D01*
X44332Y-26322D01*
X44341Y-26284D01*
X44341Y-26208D01*
X44332Y-26189D01*
X44324Y-26179D01*
X44307Y-26170D01*
X44272Y-26170D01*
X44255Y-26179D01*
X44247Y-26189D01*
X44238Y-26208D01*
X44238Y-26255D01*
X44247Y-26274D01*
X44255Y-26284D01*
X44272Y-26293D01*
X44307Y-26293D01*
X44324Y-26284D01*
X44332Y-26274D01*
X44341Y-26255D01*
X48024Y-22123D02*
X48033Y-22132D01*
X48043Y-22157D01*
X48043Y-22175D01*
X48033Y-22200D01*
X48014Y-22217D01*
X47995Y-22226D01*
X47957Y-22235D01*
X47928Y-22235D01*
X47890Y-22226D01*
X47871Y-22217D01*
X47852Y-22200D01*
X47843Y-22175D01*
X47843Y-22157D01*
X47852Y-22132D01*
X47862Y-22123D01*
X48043Y-21952D02*
X48043Y-22055D01*
X48043Y-22003D02*
X47843Y-22003D01*
X47871Y-22020D01*
X47890Y-22037D01*
X47900Y-22055D01*
X47843Y-21892D02*
X47843Y-21772D01*
X48043Y-21849D01*
X45386Y-44722D02*
X45395Y-44730D01*
X45405Y-44756D01*
X45405Y-44773D01*
X45395Y-44799D01*
X45376Y-44816D01*
X45357Y-44824D01*
X45319Y-44833D01*
X45291Y-44833D01*
X45253Y-44824D01*
X45234Y-44816D01*
X45214Y-44799D01*
X45205Y-44773D01*
X45205Y-44756D01*
X45214Y-44730D01*
X45224Y-44722D01*
X45405Y-44550D02*
X45405Y-44653D01*
X45405Y-44602D02*
X45205Y-44602D01*
X45234Y-44619D01*
X45253Y-44636D01*
X45262Y-44653D01*
X45205Y-44439D02*
X45205Y-44422D01*
X45214Y-44404D01*
X45224Y-44396D01*
X45243Y-44387D01*
X45281Y-44379D01*
X45329Y-44379D01*
X45367Y-44387D01*
X45386Y-44396D01*
X45395Y-44404D01*
X45405Y-44422D01*
X45405Y-44439D01*
X45395Y-44456D01*
X45386Y-44464D01*
X45367Y-44473D01*
X45329Y-44482D01*
X45281Y-44482D01*
X45243Y-44473D01*
X45224Y-44464D01*
X45214Y-44456D01*
X45205Y-44439D01*
X45366Y-46053D02*
X45376Y-46062D01*
X45385Y-46087D01*
X45385Y-46105D01*
X45376Y-46130D01*
X45357Y-46147D01*
X45338Y-46156D01*
X45300Y-46165D01*
X45271Y-46165D01*
X45233Y-46156D01*
X45214Y-46147D01*
X45195Y-46130D01*
X45185Y-46105D01*
X45185Y-46087D01*
X45195Y-46062D01*
X45204Y-46053D01*
X45185Y-45993D02*
X45185Y-45882D01*
X45261Y-45942D01*
X45261Y-45916D01*
X45271Y-45899D01*
X45280Y-45890D01*
X45300Y-45882D01*
X45347Y-45882D01*
X45366Y-45890D01*
X45376Y-45899D01*
X45385Y-45916D01*
X45385Y-45967D01*
X45376Y-45985D01*
X45366Y-45993D01*
X45386Y-43671D02*
X45395Y-43680D01*
X45405Y-43706D01*
X45405Y-43723D01*
X45395Y-43748D01*
X45376Y-43766D01*
X45357Y-43774D01*
X45319Y-43783D01*
X45291Y-43783D01*
X45253Y-43774D01*
X45234Y-43766D01*
X45214Y-43748D01*
X45205Y-43723D01*
X45205Y-43706D01*
X45214Y-43680D01*
X45224Y-43671D01*
X45224Y-43603D02*
X45214Y-43594D01*
X45205Y-43577D01*
X45205Y-43534D01*
X45214Y-43517D01*
X45224Y-43508D01*
X45243Y-43500D01*
X45262Y-43500D01*
X45291Y-43508D01*
X45405Y-43611D01*
X45405Y-43500D01*
X45327Y-47510D02*
X45336Y-47518D01*
X45346Y-47544D01*
X45346Y-47561D01*
X45336Y-47587D01*
X45317Y-47604D01*
X45298Y-47613D01*
X45260Y-47621D01*
X45232Y-47621D01*
X45194Y-47613D01*
X45174Y-47604D01*
X45155Y-47587D01*
X45146Y-47561D01*
X45146Y-47544D01*
X45155Y-47518D01*
X45165Y-47510D01*
X45346Y-47338D02*
X45346Y-47441D01*
X45346Y-47390D02*
X45146Y-47390D01*
X45174Y-47407D01*
X45194Y-47424D01*
X45203Y-47441D01*
X43654Y-23206D02*
X43663Y-23214D01*
X43673Y-23240D01*
X43673Y-23257D01*
X43663Y-23283D01*
X43644Y-23300D01*
X43625Y-23309D01*
X43587Y-23317D01*
X43558Y-23317D01*
X43520Y-23309D01*
X43501Y-23300D01*
X43482Y-23283D01*
X43473Y-23257D01*
X43473Y-23240D01*
X43482Y-23214D01*
X43492Y-23206D01*
X43473Y-23146D02*
X43473Y-23034D01*
X43549Y-23094D01*
X43549Y-23069D01*
X43558Y-23051D01*
X43568Y-23043D01*
X43587Y-23034D01*
X43635Y-23034D01*
X43654Y-23043D01*
X43663Y-23051D01*
X43673Y-23069D01*
X43673Y-23120D01*
X43663Y-23137D01*
X43654Y-23146D01*
X43558Y-22931D02*
X43549Y-22949D01*
X43539Y-22957D01*
X43520Y-22966D01*
X43511Y-22966D01*
X43492Y-22957D01*
X43482Y-22949D01*
X43473Y-22931D01*
X43473Y-22897D01*
X43482Y-22880D01*
X43492Y-22871D01*
X43511Y-22863D01*
X43520Y-22863D01*
X43539Y-22871D01*
X43549Y-22880D01*
X43558Y-22897D01*
X43558Y-22931D01*
X43568Y-22949D01*
X43577Y-22957D01*
X43596Y-22966D01*
X43635Y-22966D01*
X43654Y-22957D01*
X43663Y-22949D01*
X43673Y-22931D01*
X43673Y-22897D01*
X43663Y-22880D01*
X43654Y-22871D01*
X43635Y-22863D01*
X43596Y-22863D01*
X43577Y-22871D01*
X43568Y-22880D01*
X43558Y-22897D01*
X40711Y-24933D02*
X40702Y-24943D01*
X40676Y-24952D01*
X40659Y-24952D01*
X40633Y-24943D01*
X40616Y-24924D01*
X40608Y-24905D01*
X40599Y-24866D01*
X40599Y-24838D01*
X40608Y-24800D01*
X40616Y-24781D01*
X40633Y-24762D01*
X40659Y-24752D01*
X40676Y-24752D01*
X40702Y-24762D01*
X40711Y-24771D01*
X40882Y-24952D02*
X40779Y-24952D01*
X40831Y-24952D02*
X40831Y-24752D01*
X40813Y-24781D01*
X40796Y-24800D01*
X40779Y-24809D01*
X40942Y-24752D02*
X41053Y-24752D01*
X40993Y-24828D01*
X41019Y-24828D01*
X41036Y-24838D01*
X41045Y-24847D01*
X41053Y-24866D01*
X41053Y-24914D01*
X41045Y-24933D01*
X41036Y-24943D01*
X41019Y-24952D01*
X40968Y-24952D01*
X40951Y-24943D01*
X40942Y-24933D01*
X40871Y-45880D02*
X40880Y-45888D01*
X40890Y-45914D01*
X40890Y-45931D01*
X40880Y-45957D01*
X40861Y-45974D01*
X40842Y-45982D01*
X40804Y-45991D01*
X40776Y-45991D01*
X40738Y-45982D01*
X40719Y-45974D01*
X40700Y-45957D01*
X40690Y-45931D01*
X40690Y-45914D01*
X40700Y-45888D01*
X40709Y-45880D01*
X40890Y-45794D02*
X40890Y-45760D01*
X40880Y-45742D01*
X40871Y-45734D01*
X40842Y-45717D01*
X40804Y-45708D01*
X40728Y-45708D01*
X40709Y-45717D01*
X40700Y-45725D01*
X40690Y-45742D01*
X40690Y-45777D01*
X40700Y-45794D01*
X40709Y-45802D01*
X40728Y-45811D01*
X40776Y-45811D01*
X40795Y-45802D01*
X40804Y-45794D01*
X40814Y-45777D01*
X40814Y-45742D01*
X40804Y-45725D01*
X40795Y-45717D01*
X40776Y-45708D01*
X42108Y-23476D02*
X42100Y-23486D01*
X42074Y-23495D01*
X42057Y-23495D01*
X42031Y-23486D01*
X42014Y-23467D01*
X42005Y-23448D01*
X41997Y-23410D01*
X41997Y-23381D01*
X42005Y-23343D01*
X42014Y-23324D01*
X42031Y-23305D01*
X42057Y-23295D01*
X42074Y-23295D01*
X42100Y-23305D01*
X42108Y-23315D01*
X42280Y-23495D02*
X42177Y-23495D01*
X42228Y-23495D02*
X42228Y-23295D01*
X42211Y-23324D01*
X42194Y-23343D01*
X42177Y-23353D01*
X42348Y-23315D02*
X42357Y-23305D01*
X42374Y-23295D01*
X42417Y-23295D01*
X42434Y-23305D01*
X42442Y-23315D01*
X42451Y-23334D01*
X42451Y-23353D01*
X42442Y-23381D01*
X42340Y-23495D01*
X42451Y-23495D01*
X49018Y-30543D02*
X49009Y-30553D01*
X48983Y-30562D01*
X48966Y-30562D01*
X48941Y-30553D01*
X48923Y-30534D01*
X48915Y-30515D01*
X48906Y-30477D01*
X48906Y-30448D01*
X48915Y-30410D01*
X48923Y-30391D01*
X48941Y-30372D01*
X48966Y-30362D01*
X48983Y-30362D01*
X49009Y-30372D01*
X49018Y-30381D01*
X49078Y-30362D02*
X49198Y-30362D01*
X49121Y-30562D01*
X49275Y-30562D02*
X49309Y-30562D01*
X49326Y-30553D01*
X49335Y-30543D01*
X49352Y-30515D01*
X49361Y-30477D01*
X49361Y-30401D01*
X49352Y-30381D01*
X49343Y-30372D01*
X49326Y-30362D01*
X49292Y-30362D01*
X49275Y-30372D01*
X49266Y-30381D01*
X49258Y-30401D01*
X49258Y-30448D01*
X49266Y-30467D01*
X49275Y-30477D01*
X49292Y-30486D01*
X49326Y-30486D01*
X49343Y-30477D01*
X49352Y-30467D01*
X49361Y-30448D01*
X46055Y-22084D02*
X46065Y-22092D01*
X46074Y-22118D01*
X46074Y-22135D01*
X46065Y-22161D01*
X46046Y-22178D01*
X46027Y-22187D01*
X45989Y-22195D01*
X45960Y-22195D01*
X45922Y-22187D01*
X45903Y-22178D01*
X45884Y-22161D01*
X45874Y-22135D01*
X45874Y-22118D01*
X45884Y-22092D01*
X45893Y-22084D01*
X46074Y-21912D02*
X46074Y-22015D01*
X46074Y-21964D02*
X45874Y-21964D01*
X45903Y-21981D01*
X45922Y-21998D01*
X45931Y-22015D01*
X46074Y-21741D02*
X46074Y-21844D01*
X46074Y-21792D02*
X45874Y-21792D01*
X45903Y-21809D01*
X45922Y-21827D01*
X45931Y-21844D01*
X49018Y-29992D02*
X49009Y-30002D01*
X48983Y-30011D01*
X48966Y-30011D01*
X48941Y-30002D01*
X48923Y-29983D01*
X48915Y-29964D01*
X48906Y-29926D01*
X48906Y-29897D01*
X48915Y-29859D01*
X48923Y-29840D01*
X48941Y-29821D01*
X48966Y-29811D01*
X48983Y-29811D01*
X49009Y-29821D01*
X49018Y-29830D01*
X49121Y-29897D02*
X49103Y-29887D01*
X49095Y-29878D01*
X49086Y-29859D01*
X49086Y-29849D01*
X49095Y-29830D01*
X49103Y-29821D01*
X49121Y-29811D01*
X49155Y-29811D01*
X49172Y-29821D01*
X49181Y-29830D01*
X49189Y-29849D01*
X49189Y-29859D01*
X49181Y-29878D01*
X49172Y-29887D01*
X49155Y-29897D01*
X49121Y-29897D01*
X49103Y-29906D01*
X49095Y-29916D01*
X49086Y-29935D01*
X49086Y-29973D01*
X49095Y-29992D01*
X49103Y-30002D01*
X49121Y-30011D01*
X49155Y-30011D01*
X49172Y-30002D01*
X49181Y-29992D01*
X49189Y-29973D01*
X49189Y-29935D01*
X49181Y-29916D01*
X49172Y-29906D01*
X49155Y-29897D01*
X49301Y-29811D02*
X49318Y-29811D01*
X49335Y-29821D01*
X49343Y-29830D01*
X49352Y-29849D01*
X49361Y-29887D01*
X49361Y-29935D01*
X49352Y-29973D01*
X49343Y-29992D01*
X49335Y-30002D01*
X49318Y-30011D01*
X49301Y-30011D01*
X49283Y-30002D01*
X49275Y-29992D01*
X49266Y-29973D01*
X49258Y-29935D01*
X49258Y-29887D01*
X49266Y-29849D01*
X49275Y-29830D01*
X49283Y-29821D01*
X49301Y-29811D01*
X50750Y-23555D02*
X50741Y-23565D01*
X50716Y-23574D01*
X50698Y-23574D01*
X50673Y-23565D01*
X50656Y-23546D01*
X50647Y-23527D01*
X50638Y-23489D01*
X50638Y-23460D01*
X50647Y-23422D01*
X50656Y-23403D01*
X50673Y-23384D01*
X50698Y-23374D01*
X50716Y-23374D01*
X50741Y-23384D01*
X50750Y-23393D01*
X50810Y-23374D02*
X50930Y-23374D01*
X50853Y-23574D01*
X50981Y-23374D02*
X51101Y-23374D01*
X51024Y-23574D01*
X52935Y-22945D02*
X52926Y-22954D01*
X52901Y-22964D01*
X52884Y-22964D01*
X52858Y-22954D01*
X52841Y-22935D01*
X52832Y-22916D01*
X52824Y-22878D01*
X52824Y-22850D01*
X52832Y-22812D01*
X52841Y-22793D01*
X52858Y-22774D01*
X52884Y-22764D01*
X52901Y-22764D01*
X52926Y-22774D01*
X52935Y-22783D01*
X53038Y-22850D02*
X53021Y-22840D01*
X53012Y-22831D01*
X53004Y-22812D01*
X53004Y-22802D01*
X53012Y-22783D01*
X53021Y-22774D01*
X53038Y-22764D01*
X53072Y-22764D01*
X53089Y-22774D01*
X53098Y-22783D01*
X53106Y-22802D01*
X53106Y-22812D01*
X53098Y-22831D01*
X53089Y-22840D01*
X53072Y-22850D01*
X53038Y-22850D01*
X53021Y-22859D01*
X53012Y-22869D01*
X53004Y-22888D01*
X53004Y-22926D01*
X53012Y-22945D01*
X53021Y-22954D01*
X53038Y-22964D01*
X53072Y-22964D01*
X53089Y-22954D01*
X53098Y-22945D01*
X53106Y-22926D01*
X53106Y-22888D01*
X53098Y-22869D01*
X53089Y-22859D01*
X53072Y-22850D01*
X53175Y-22783D02*
X53184Y-22774D01*
X53201Y-22764D01*
X53244Y-22764D01*
X53261Y-22774D01*
X53269Y-22783D01*
X53278Y-22802D01*
X53278Y-22821D01*
X53269Y-22850D01*
X53166Y-22964D01*
X53278Y-22964D01*
X50711Y-21862D02*
X50702Y-21872D01*
X50676Y-21881D01*
X50659Y-21881D01*
X50633Y-21872D01*
X50616Y-21853D01*
X50608Y-21834D01*
X50599Y-21796D01*
X50599Y-21767D01*
X50608Y-21729D01*
X50616Y-21710D01*
X50633Y-21691D01*
X50659Y-21681D01*
X50676Y-21681D01*
X50702Y-21691D01*
X50711Y-21700D01*
X50813Y-21767D02*
X50796Y-21758D01*
X50788Y-21748D01*
X50779Y-21729D01*
X50779Y-21719D01*
X50788Y-21700D01*
X50796Y-21691D01*
X50813Y-21681D01*
X50848Y-21681D01*
X50865Y-21691D01*
X50873Y-21700D01*
X50882Y-21719D01*
X50882Y-21729D01*
X50873Y-21748D01*
X50865Y-21758D01*
X50848Y-21767D01*
X50813Y-21767D01*
X50796Y-21777D01*
X50788Y-21786D01*
X50779Y-21805D01*
X50779Y-21843D01*
X50788Y-21862D01*
X50796Y-21872D01*
X50813Y-21881D01*
X50848Y-21881D01*
X50865Y-21872D01*
X50873Y-21862D01*
X50882Y-21843D01*
X50882Y-21805D01*
X50873Y-21786D01*
X50865Y-21777D01*
X50848Y-21767D01*
X51053Y-21881D02*
X50951Y-21881D01*
X51002Y-21881D02*
X51002Y-21681D01*
X50985Y-21710D01*
X50968Y-21729D01*
X50951Y-21738D01*
X51733Y-37174D02*
X51720Y-37174D01*
X51695Y-37163D01*
X51683Y-37151D01*
X51671Y-37126D01*
X51673Y-37100D01*
X51680Y-37081D01*
X51701Y-37048D01*
X51721Y-37028D01*
X51754Y-37007D01*
X51774Y-36999D01*
X51799Y-36998D01*
X51824Y-37009D01*
X51836Y-37022D01*
X51848Y-37047D01*
X51847Y-37059D01*
X51873Y-37179D02*
X51867Y-37160D01*
X51868Y-37148D01*
X51876Y-37128D01*
X51882Y-37121D01*
X51902Y-37114D01*
X51915Y-37113D01*
X51933Y-37119D01*
X51958Y-37143D01*
X51963Y-37162D01*
X51962Y-37174D01*
X51955Y-37194D01*
X51948Y-37201D01*
X51929Y-37208D01*
X51916Y-37209D01*
X51897Y-37203D01*
X51873Y-37179D01*
X51854Y-37174D01*
X51841Y-37174D01*
X51822Y-37182D01*
X51795Y-37209D01*
X51787Y-37228D01*
X51787Y-37241D01*
X51792Y-37260D01*
X51816Y-37284D01*
X51835Y-37290D01*
X51848Y-37289D01*
X51867Y-37282D01*
X51894Y-37255D01*
X51902Y-37235D01*
X51902Y-37222D01*
X51897Y-37203D01*
X37847Y-37044D02*
X37856Y-37053D01*
X37866Y-37079D01*
X37866Y-37096D01*
X37856Y-37121D01*
X37837Y-37139D01*
X37818Y-37147D01*
X37780Y-37156D01*
X37751Y-37156D01*
X37713Y-37147D01*
X37694Y-37139D01*
X37675Y-37121D01*
X37666Y-37096D01*
X37666Y-37079D01*
X37675Y-37053D01*
X37685Y-37044D01*
X37666Y-36881D02*
X37666Y-36967D01*
X37761Y-36976D01*
X37751Y-36967D01*
X37742Y-36950D01*
X37742Y-36907D01*
X37751Y-36890D01*
X37761Y-36881D01*
X37780Y-36873D01*
X37827Y-36873D01*
X37847Y-36881D01*
X37856Y-36890D01*
X37866Y-36907D01*
X37866Y-36950D01*
X37856Y-36967D01*
X37847Y-36976D01*
X37666Y-36813D02*
X37666Y-36701D01*
X37742Y-36761D01*
X37742Y-36736D01*
X37751Y-36719D01*
X37761Y-36710D01*
X37780Y-36701D01*
X37827Y-36701D01*
X37847Y-36710D01*
X37856Y-36719D01*
X37866Y-36736D01*
X37866Y-36787D01*
X37856Y-36804D01*
X37847Y-36813D01*
X38447Y-37217D02*
X38438Y-37226D01*
X38412Y-37236D01*
X38395Y-37236D01*
X38370Y-37226D01*
X38352Y-37207D01*
X38344Y-37188D01*
X38335Y-37150D01*
X38335Y-37121D01*
X38344Y-37083D01*
X38352Y-37064D01*
X38370Y-37045D01*
X38395Y-37036D01*
X38412Y-37036D01*
X38438Y-37045D01*
X38447Y-37055D01*
X38610Y-37036D02*
X38524Y-37036D01*
X38515Y-37131D01*
X38524Y-37121D01*
X38541Y-37112D01*
X38584Y-37112D01*
X38601Y-37121D01*
X38610Y-37131D01*
X38618Y-37150D01*
X38618Y-37198D01*
X38610Y-37217D01*
X38601Y-37226D01*
X38584Y-37236D01*
X38541Y-37236D01*
X38524Y-37226D01*
X38515Y-37217D01*
X38772Y-37102D02*
X38772Y-37236D01*
X38730Y-37026D02*
X38687Y-37169D01*
X38798Y-37169D01*
X51301Y-24362D02*
X51293Y-24372D01*
X51267Y-24381D01*
X51250Y-24381D01*
X51224Y-24372D01*
X51207Y-24353D01*
X51198Y-24334D01*
X51190Y-24296D01*
X51190Y-24267D01*
X51198Y-24229D01*
X51207Y-24210D01*
X51224Y-24191D01*
X51250Y-24181D01*
X51267Y-24181D01*
X51293Y-24191D01*
X51301Y-24200D01*
X51455Y-24181D02*
X51421Y-24181D01*
X51404Y-24191D01*
X51395Y-24200D01*
X51378Y-24229D01*
X51370Y-24267D01*
X51370Y-24343D01*
X51378Y-24362D01*
X51387Y-24372D01*
X51404Y-24381D01*
X51438Y-24381D01*
X51455Y-24372D01*
X51464Y-24362D01*
X51473Y-24343D01*
X51473Y-24296D01*
X51464Y-24277D01*
X51455Y-24267D01*
X51438Y-24258D01*
X51404Y-24258D01*
X51387Y-24267D01*
X51378Y-24277D01*
X51370Y-24296D01*
X51541Y-24200D02*
X51550Y-24191D01*
X51567Y-24181D01*
X51610Y-24181D01*
X51627Y-24191D01*
X51635Y-24200D01*
X51644Y-24219D01*
X51644Y-24238D01*
X51635Y-24267D01*
X51533Y-24381D01*
X51644Y-24381D01*
X45347Y-30332D02*
X45356Y-30340D01*
X45366Y-30366D01*
X45366Y-30383D01*
X45356Y-30409D01*
X45337Y-30426D01*
X45318Y-30435D01*
X45280Y-30443D01*
X45251Y-30443D01*
X45213Y-30435D01*
X45194Y-30426D01*
X45175Y-30409D01*
X45166Y-30383D01*
X45166Y-30366D01*
X45175Y-30340D01*
X45185Y-30332D01*
X45166Y-30177D02*
X45166Y-30212D01*
X45175Y-30229D01*
X45185Y-30237D01*
X45213Y-30255D01*
X45251Y-30263D01*
X45327Y-30263D01*
X45347Y-30255D01*
X45356Y-30246D01*
X45366Y-30229D01*
X45366Y-30195D01*
X45356Y-30177D01*
X45347Y-30169D01*
X45327Y-30160D01*
X45280Y-30160D01*
X45261Y-30169D01*
X45251Y-30177D01*
X45242Y-30195D01*
X45242Y-30229D01*
X45251Y-30246D01*
X45261Y-30255D01*
X45280Y-30263D01*
X45166Y-29997D02*
X45166Y-30083D01*
X45261Y-30092D01*
X45251Y-30083D01*
X45242Y-30066D01*
X45242Y-30023D01*
X45251Y-30006D01*
X45261Y-29997D01*
X45280Y-29989D01*
X45327Y-29989D01*
X45347Y-29997D01*
X45356Y-30006D01*
X45366Y-30023D01*
X45366Y-30066D01*
X45356Y-30083D01*
X45347Y-30092D01*
X46471Y-30615D02*
X46480Y-30624D01*
X46490Y-30650D01*
X46490Y-30667D01*
X46480Y-30692D01*
X46461Y-30710D01*
X46442Y-30718D01*
X46404Y-30727D01*
X46376Y-30727D01*
X46338Y-30718D01*
X46319Y-30710D01*
X46300Y-30692D01*
X46290Y-30667D01*
X46290Y-30650D01*
X46300Y-30624D01*
X46309Y-30615D01*
X46290Y-30461D02*
X46290Y-30495D01*
X46300Y-30512D01*
X46309Y-30521D01*
X46338Y-30538D01*
X46376Y-30547D01*
X46452Y-30547D01*
X46471Y-30538D01*
X46480Y-30530D01*
X46490Y-30512D01*
X46490Y-30478D01*
X46480Y-30461D01*
X46471Y-30452D01*
X46452Y-30444D01*
X46404Y-30444D01*
X46385Y-30452D01*
X46376Y-30461D01*
X46366Y-30478D01*
X46366Y-30512D01*
X46376Y-30530D01*
X46385Y-30538D01*
X46404Y-30547D01*
X46357Y-30290D02*
X46490Y-30290D01*
X46280Y-30332D02*
X46423Y-30375D01*
X46423Y-30264D01*
X50484Y-33371D02*
X50475Y-33380D01*
X50450Y-33390D01*
X50432Y-33390D01*
X50407Y-33380D01*
X50390Y-33361D01*
X50381Y-33342D01*
X50372Y-33304D01*
X50372Y-33276D01*
X50381Y-33238D01*
X50390Y-33219D01*
X50407Y-33200D01*
X50432Y-33190D01*
X50450Y-33190D01*
X50475Y-33200D01*
X50484Y-33209D01*
X50638Y-33190D02*
X50604Y-33190D01*
X50587Y-33200D01*
X50578Y-33209D01*
X50561Y-33238D01*
X50552Y-33276D01*
X50552Y-33352D01*
X50561Y-33371D01*
X50570Y-33380D01*
X50587Y-33390D01*
X50621Y-33390D01*
X50638Y-33380D01*
X50647Y-33371D01*
X50655Y-33352D01*
X50655Y-33304D01*
X50647Y-33285D01*
X50638Y-33276D01*
X50621Y-33266D01*
X50587Y-33266D01*
X50570Y-33276D01*
X50561Y-33285D01*
X50552Y-33304D01*
X50715Y-33190D02*
X50827Y-33190D01*
X50767Y-33266D01*
X50792Y-33266D01*
X50810Y-33276D01*
X50818Y-33285D01*
X50827Y-33304D01*
X50827Y-33352D01*
X50818Y-33371D01*
X50810Y-33380D01*
X50792Y-33390D01*
X50741Y-33390D01*
X50724Y-33380D01*
X50715Y-33371D01*
X50474Y-31705D02*
X50466Y-31714D01*
X50440Y-31724D01*
X50423Y-31724D01*
X50397Y-31714D01*
X50380Y-31695D01*
X50371Y-31676D01*
X50363Y-31638D01*
X50363Y-31610D01*
X50371Y-31571D01*
X50380Y-31552D01*
X50397Y-31533D01*
X50423Y-31524D01*
X50440Y-31524D01*
X50466Y-31533D01*
X50474Y-31543D01*
X50637Y-31524D02*
X50551Y-31524D01*
X50543Y-31619D01*
X50551Y-31610D01*
X50569Y-31600D01*
X50611Y-31600D01*
X50629Y-31610D01*
X50637Y-31619D01*
X50646Y-31638D01*
X50646Y-31686D01*
X50637Y-31705D01*
X50629Y-31714D01*
X50611Y-31724D01*
X50569Y-31724D01*
X50551Y-31714D01*
X50543Y-31705D01*
X50757Y-31524D02*
X50774Y-31524D01*
X50791Y-31533D01*
X50800Y-31543D01*
X50809Y-31562D01*
X50817Y-31600D01*
X50817Y-31648D01*
X50809Y-31686D01*
X50800Y-31705D01*
X50791Y-31714D01*
X50774Y-31724D01*
X50757Y-31724D01*
X50740Y-31714D01*
X50731Y-31705D01*
X50723Y-31686D01*
X50714Y-31648D01*
X50714Y-31600D01*
X50723Y-31562D01*
X50731Y-31543D01*
X50740Y-31533D01*
X50757Y-31524D01*
X51990Y-32315D02*
X51982Y-32325D01*
X51956Y-32334D01*
X51939Y-32334D01*
X51913Y-32325D01*
X51896Y-32305D01*
X51887Y-32286D01*
X51879Y-32248D01*
X51879Y-32220D01*
X51887Y-32182D01*
X51896Y-32163D01*
X51913Y-32144D01*
X51939Y-32134D01*
X51956Y-32134D01*
X51982Y-32144D01*
X51990Y-32153D01*
X52059Y-32153D02*
X52067Y-32144D01*
X52084Y-32134D01*
X52127Y-32134D01*
X52144Y-32144D01*
X52153Y-32153D01*
X52162Y-32172D01*
X52162Y-32191D01*
X52153Y-32220D01*
X52050Y-32334D01*
X52162Y-32334D01*
X52316Y-32201D02*
X52316Y-32334D01*
X52273Y-32125D02*
X52230Y-32267D01*
X52342Y-32267D01*
X51990Y-32866D02*
X51982Y-32876D01*
X51956Y-32885D01*
X51939Y-32885D01*
X51913Y-32876D01*
X51896Y-32857D01*
X51887Y-32838D01*
X51879Y-32800D01*
X51879Y-32771D01*
X51887Y-32733D01*
X51896Y-32714D01*
X51913Y-32695D01*
X51939Y-32685D01*
X51956Y-32685D01*
X51982Y-32695D01*
X51990Y-32704D01*
X52144Y-32752D02*
X52144Y-32885D01*
X52102Y-32676D02*
X52059Y-32819D01*
X52170Y-32819D01*
X52222Y-32685D02*
X52333Y-32685D01*
X52273Y-32761D01*
X52299Y-32761D01*
X52316Y-32771D01*
X52324Y-32780D01*
X52333Y-32800D01*
X52333Y-32847D01*
X52324Y-32866D01*
X52316Y-32876D01*
X52299Y-32885D01*
X52247Y-32885D01*
X52230Y-32876D01*
X52222Y-32866D01*
X51734Y-33437D02*
X51726Y-33447D01*
X51700Y-33456D01*
X51683Y-33456D01*
X51657Y-33447D01*
X51640Y-33428D01*
X51631Y-33408D01*
X51623Y-33370D01*
X51623Y-33342D01*
X51631Y-33304D01*
X51640Y-33285D01*
X51657Y-33266D01*
X51683Y-33256D01*
X51700Y-33256D01*
X51726Y-33266D01*
X51734Y-33275D01*
X51897Y-33256D02*
X51811Y-33256D01*
X51803Y-33351D01*
X51811Y-33342D01*
X51828Y-33332D01*
X51871Y-33332D01*
X51888Y-33342D01*
X51897Y-33351D01*
X51906Y-33370D01*
X51906Y-33418D01*
X51897Y-33437D01*
X51888Y-33447D01*
X51871Y-33456D01*
X51828Y-33456D01*
X51811Y-33447D01*
X51803Y-33437D01*
X52077Y-33456D02*
X51974Y-33456D01*
X52026Y-33456D02*
X52026Y-33256D01*
X52008Y-33285D01*
X51991Y-33304D01*
X51974Y-33313D01*
X47443Y-29087D02*
X47434Y-29096D01*
X47409Y-29106D01*
X47391Y-29106D01*
X47366Y-29096D01*
X47349Y-29077D01*
X47340Y-29058D01*
X47331Y-29020D01*
X47331Y-28991D01*
X47340Y-28953D01*
X47349Y-28934D01*
X47366Y-28915D01*
X47391Y-28906D01*
X47409Y-28906D01*
X47434Y-28915D01*
X47443Y-28925D01*
X47606Y-28906D02*
X47520Y-28906D01*
X47511Y-29001D01*
X47520Y-28991D01*
X47537Y-28982D01*
X47580Y-28982D01*
X47597Y-28991D01*
X47606Y-29001D01*
X47614Y-29020D01*
X47614Y-29068D01*
X47606Y-29087D01*
X47597Y-29096D01*
X47580Y-29106D01*
X47537Y-29106D01*
X47520Y-29096D01*
X47511Y-29087D01*
X47674Y-28906D02*
X47794Y-28906D01*
X47717Y-29106D01*
X49874Y-32596D02*
X49884Y-32604D01*
X49893Y-32630D01*
X49893Y-32647D01*
X49884Y-32673D01*
X49865Y-32690D01*
X49846Y-32698D01*
X49807Y-32707D01*
X49779Y-32707D01*
X49741Y-32698D01*
X49722Y-32690D01*
X49703Y-32673D01*
X49693Y-32647D01*
X49693Y-32630D01*
X49703Y-32604D01*
X49712Y-32596D01*
X49693Y-32536D02*
X49693Y-32416D01*
X49893Y-32493D01*
X49760Y-32270D02*
X49893Y-32270D01*
X49684Y-32313D02*
X49826Y-32356D01*
X49826Y-32244D01*
X48850Y-31473D02*
X48860Y-31482D01*
X48870Y-31508D01*
X48870Y-31525D01*
X48860Y-31551D01*
X48841Y-31568D01*
X48822Y-31576D01*
X48784Y-31585D01*
X48755Y-31585D01*
X48717Y-31576D01*
X48698Y-31568D01*
X48679Y-31551D01*
X48670Y-31525D01*
X48670Y-31508D01*
X48679Y-31482D01*
X48689Y-31473D01*
X48670Y-31413D02*
X48670Y-31293D01*
X48870Y-31371D01*
X48689Y-31233D02*
X48679Y-31225D01*
X48670Y-31208D01*
X48670Y-31165D01*
X48679Y-31148D01*
X48689Y-31139D01*
X48708Y-31131D01*
X48727Y-31131D01*
X48755Y-31139D01*
X48870Y-31242D01*
X48870Y-31131D01*
X49470Y-29343D02*
X49462Y-29352D01*
X49436Y-29362D01*
X49419Y-29362D01*
X49393Y-29352D01*
X49376Y-29333D01*
X49368Y-29314D01*
X49359Y-29276D01*
X49359Y-29247D01*
X49368Y-29209D01*
X49376Y-29190D01*
X49393Y-29171D01*
X49419Y-29162D01*
X49436Y-29162D01*
X49462Y-29171D01*
X49470Y-29181D01*
X49530Y-29162D02*
X49650Y-29162D01*
X49573Y-29362D01*
X49805Y-29162D02*
X49719Y-29162D01*
X49710Y-29257D01*
X49719Y-29247D01*
X49736Y-29238D01*
X49779Y-29238D01*
X49796Y-29247D01*
X49805Y-29257D01*
X49813Y-29276D01*
X49813Y-29324D01*
X49805Y-29343D01*
X49796Y-29352D01*
X49779Y-29362D01*
X49736Y-29362D01*
X49719Y-29352D01*
X49710Y-29343D01*
X49795Y-31572D02*
X49805Y-31580D01*
X49814Y-31606D01*
X49814Y-31623D01*
X49805Y-31649D01*
X49786Y-31666D01*
X49767Y-31675D01*
X49729Y-31683D01*
X49700Y-31683D01*
X49662Y-31675D01*
X49643Y-31666D01*
X49624Y-31649D01*
X49614Y-31623D01*
X49614Y-31606D01*
X49624Y-31580D01*
X49633Y-31572D01*
X49614Y-31512D02*
X49614Y-31392D01*
X49814Y-31469D01*
X49614Y-31340D02*
X49614Y-31229D01*
X49691Y-31289D01*
X49691Y-31263D01*
X49700Y-31246D01*
X49710Y-31238D01*
X49729Y-31229D01*
X49776Y-31229D01*
X49795Y-31238D01*
X49805Y-31246D01*
X49814Y-31263D01*
X49814Y-31315D01*
X49805Y-31332D01*
X49795Y-31340D01*
X50474Y-32295D02*
X50466Y-32305D01*
X50440Y-32314D01*
X50423Y-32314D01*
X50397Y-32305D01*
X50380Y-32286D01*
X50371Y-32267D01*
X50363Y-32229D01*
X50363Y-32200D01*
X50371Y-32162D01*
X50380Y-32143D01*
X50397Y-32124D01*
X50423Y-32114D01*
X50440Y-32114D01*
X50466Y-32124D01*
X50474Y-32133D01*
X50629Y-32181D02*
X50629Y-32314D01*
X50586Y-32105D02*
X50543Y-32248D01*
X50654Y-32248D01*
X50731Y-32314D02*
X50766Y-32314D01*
X50783Y-32305D01*
X50791Y-32295D01*
X50809Y-32267D01*
X50817Y-32229D01*
X50817Y-32152D01*
X50809Y-32133D01*
X50800Y-32124D01*
X50783Y-32114D01*
X50749Y-32114D01*
X50731Y-32124D01*
X50723Y-32133D01*
X50714Y-32152D01*
X50714Y-32200D01*
X50723Y-32219D01*
X50731Y-32229D01*
X50749Y-32238D01*
X50783Y-32238D01*
X50800Y-32229D01*
X50809Y-32219D01*
X50817Y-32200D01*
X42226Y-25445D02*
X42218Y-25454D01*
X42192Y-25464D01*
X42175Y-25464D01*
X42149Y-25454D01*
X42132Y-25435D01*
X42123Y-25416D01*
X42115Y-25378D01*
X42115Y-25350D01*
X42123Y-25312D01*
X42132Y-25293D01*
X42149Y-25274D01*
X42175Y-25264D01*
X42192Y-25264D01*
X42218Y-25274D01*
X42226Y-25283D01*
X42295Y-25283D02*
X42303Y-25274D01*
X42321Y-25264D01*
X42363Y-25264D01*
X42381Y-25274D01*
X42389Y-25283D01*
X42398Y-25302D01*
X42398Y-25321D01*
X42389Y-25350D01*
X42286Y-25464D01*
X42398Y-25464D01*
X42501Y-25350D02*
X42483Y-25340D01*
X42475Y-25331D01*
X42466Y-25312D01*
X42466Y-25302D01*
X42475Y-25283D01*
X42483Y-25274D01*
X42501Y-25264D01*
X42535Y-25264D01*
X42552Y-25274D01*
X42561Y-25283D01*
X42569Y-25302D01*
X42569Y-25312D01*
X42561Y-25331D01*
X42552Y-25340D01*
X42535Y-25350D01*
X42501Y-25350D01*
X42483Y-25359D01*
X42475Y-25369D01*
X42466Y-25388D01*
X42466Y-25426D01*
X42475Y-25445D01*
X42483Y-25454D01*
X42501Y-25464D01*
X42535Y-25464D01*
X42552Y-25454D01*
X42561Y-25445D01*
X42569Y-25426D01*
X42569Y-25388D01*
X42561Y-25369D01*
X42552Y-25359D01*
X42535Y-25350D01*
X42226Y-24835D02*
X42218Y-24844D01*
X42192Y-24854D01*
X42175Y-24854D01*
X42149Y-24844D01*
X42132Y-24825D01*
X42123Y-24806D01*
X42115Y-24768D01*
X42115Y-24739D01*
X42123Y-24701D01*
X42132Y-24682D01*
X42149Y-24663D01*
X42175Y-24654D01*
X42192Y-24654D01*
X42218Y-24663D01*
X42226Y-24673D01*
X42286Y-24654D02*
X42398Y-24654D01*
X42338Y-24730D01*
X42363Y-24730D01*
X42381Y-24739D01*
X42389Y-24749D01*
X42398Y-24768D01*
X42398Y-24816D01*
X42389Y-24835D01*
X42381Y-24844D01*
X42363Y-24854D01*
X42312Y-24854D01*
X42295Y-24844D01*
X42286Y-24835D01*
X42466Y-24673D02*
X42475Y-24663D01*
X42492Y-24654D01*
X42535Y-24654D01*
X42552Y-24663D01*
X42561Y-24673D01*
X42569Y-24692D01*
X42569Y-24711D01*
X42561Y-24739D01*
X42458Y-24854D01*
X42569Y-24854D01*
X37079Y-36592D02*
X37088Y-36600D01*
X37098Y-36626D01*
X37098Y-36643D01*
X37088Y-36669D01*
X37069Y-36686D01*
X37050Y-36694D01*
X37012Y-36703D01*
X36984Y-36703D01*
X36945Y-36694D01*
X36926Y-36686D01*
X36907Y-36669D01*
X36898Y-36643D01*
X36898Y-36626D01*
X36907Y-36600D01*
X36917Y-36592D01*
X36898Y-36532D02*
X36898Y-36412D01*
X37098Y-36489D01*
X37098Y-36249D02*
X37098Y-36352D01*
X37098Y-36300D02*
X36898Y-36300D01*
X36926Y-36317D01*
X36945Y-36334D01*
X36955Y-36352D01*
X49392Y-23398D02*
X49383Y-23407D01*
X49357Y-23417D01*
X49340Y-23417D01*
X49315Y-23407D01*
X49297Y-23388D01*
X49289Y-23369D01*
X49280Y-23331D01*
X49280Y-23302D01*
X49289Y-23264D01*
X49297Y-23245D01*
X49315Y-23226D01*
X49340Y-23217D01*
X49357Y-23217D01*
X49383Y-23226D01*
X49392Y-23236D01*
X49460Y-23236D02*
X49469Y-23226D01*
X49486Y-23217D01*
X49529Y-23217D01*
X49546Y-23226D01*
X49555Y-23236D01*
X49563Y-23255D01*
X49563Y-23274D01*
X49555Y-23302D01*
X49452Y-23417D01*
X49563Y-23417D01*
X49735Y-23417D02*
X49632Y-23417D01*
X49683Y-23417D02*
X49683Y-23217D01*
X49666Y-23245D01*
X49649Y-23264D01*
X49632Y-23274D01*
X40770Y-23221D02*
X40761Y-23230D01*
X40735Y-23240D01*
X40718Y-23240D01*
X40692Y-23230D01*
X40675Y-23211D01*
X40667Y-23192D01*
X40658Y-23154D01*
X40658Y-23125D01*
X40667Y-23087D01*
X40675Y-23068D01*
X40692Y-23049D01*
X40718Y-23040D01*
X40735Y-23040D01*
X40761Y-23049D01*
X40770Y-23059D01*
X40838Y-23059D02*
X40847Y-23049D01*
X40864Y-23040D01*
X40907Y-23040D01*
X40924Y-23049D01*
X40932Y-23059D01*
X40941Y-23078D01*
X40941Y-23097D01*
X40932Y-23125D01*
X40830Y-23240D01*
X40941Y-23240D01*
X41010Y-23059D02*
X41018Y-23049D01*
X41035Y-23040D01*
X41078Y-23040D01*
X41095Y-23049D01*
X41104Y-23059D01*
X41112Y-23078D01*
X41112Y-23097D01*
X41104Y-23125D01*
X41001Y-23240D01*
X41112Y-23240D01*
X48840Y-26528D02*
X48832Y-26537D01*
X48806Y-26547D01*
X48789Y-26547D01*
X48763Y-26537D01*
X48746Y-26518D01*
X48738Y-26499D01*
X48729Y-26461D01*
X48729Y-26432D01*
X48738Y-26394D01*
X48746Y-26375D01*
X48763Y-26356D01*
X48789Y-26347D01*
X48806Y-26347D01*
X48832Y-26356D01*
X48840Y-26366D01*
X48909Y-26366D02*
X48918Y-26356D01*
X48935Y-26347D01*
X48978Y-26347D01*
X48995Y-26356D01*
X49003Y-26366D01*
X49012Y-26385D01*
X49012Y-26404D01*
X49003Y-26432D01*
X48900Y-26547D01*
X49012Y-26547D01*
X49166Y-26347D02*
X49132Y-26347D01*
X49115Y-26356D01*
X49106Y-26366D01*
X49089Y-26394D01*
X49080Y-26432D01*
X49080Y-26509D01*
X49089Y-26528D01*
X49098Y-26537D01*
X49115Y-26547D01*
X49149Y-26547D01*
X49166Y-26537D01*
X49175Y-26528D01*
X49183Y-26509D01*
X49183Y-26461D01*
X49175Y-26442D01*
X49166Y-26432D01*
X49149Y-26423D01*
X49115Y-26423D01*
X49098Y-26432D01*
X49089Y-26442D01*
X49080Y-26461D01*
X49254Y-25976D02*
X49245Y-25986D01*
X49220Y-25995D01*
X49202Y-25995D01*
X49177Y-25986D01*
X49160Y-25967D01*
X49151Y-25948D01*
X49142Y-25910D01*
X49142Y-25881D01*
X49151Y-25843D01*
X49160Y-25824D01*
X49177Y-25805D01*
X49202Y-25795D01*
X49220Y-25795D01*
X49245Y-25805D01*
X49254Y-25815D01*
X49314Y-25795D02*
X49425Y-25795D01*
X49365Y-25872D01*
X49391Y-25872D01*
X49408Y-25881D01*
X49417Y-25891D01*
X49425Y-25910D01*
X49425Y-25957D01*
X49417Y-25976D01*
X49408Y-25986D01*
X49391Y-25995D01*
X49340Y-25995D01*
X49322Y-25986D01*
X49314Y-25976D01*
X49537Y-25795D02*
X49554Y-25795D01*
X49571Y-25805D01*
X49580Y-25815D01*
X49588Y-25834D01*
X49597Y-25872D01*
X49597Y-25919D01*
X49588Y-25957D01*
X49580Y-25976D01*
X49571Y-25986D01*
X49554Y-25995D01*
X49537Y-25995D01*
X49520Y-25986D01*
X49511Y-25976D01*
X49502Y-25957D01*
X49494Y-25919D01*
X49494Y-25872D01*
X49502Y-25834D01*
X49511Y-25815D01*
X49520Y-25805D01*
X49537Y-25795D01*
X46528Y-27064D02*
X46537Y-27073D01*
X46547Y-27098D01*
X46547Y-27115D01*
X46537Y-27141D01*
X46518Y-27158D01*
X46499Y-27167D01*
X46461Y-27175D01*
X46432Y-27175D01*
X46394Y-27167D01*
X46375Y-27158D01*
X46356Y-27141D01*
X46347Y-27115D01*
X46347Y-27098D01*
X46356Y-27073D01*
X46366Y-27064D01*
X46366Y-26995D02*
X46356Y-26987D01*
X46347Y-26970D01*
X46347Y-26927D01*
X46356Y-26910D01*
X46366Y-26901D01*
X46385Y-26893D01*
X46404Y-26893D01*
X46432Y-26901D01*
X46547Y-27004D01*
X46547Y-26893D01*
X46347Y-26833D02*
X46347Y-26721D01*
X46423Y-26781D01*
X46423Y-26755D01*
X46432Y-26738D01*
X46442Y-26730D01*
X46461Y-26721D01*
X46509Y-26721D01*
X46528Y-26730D01*
X46537Y-26738D01*
X46547Y-26755D01*
X46547Y-26807D01*
X46537Y-26824D01*
X46528Y-26833D01*
X51163Y-25465D02*
X51155Y-25474D01*
X51129Y-25484D01*
X51112Y-25484D01*
X51086Y-25474D01*
X51069Y-25455D01*
X51060Y-25436D01*
X51052Y-25398D01*
X51052Y-25369D01*
X51060Y-25331D01*
X51069Y-25312D01*
X51086Y-25293D01*
X51112Y-25284D01*
X51129Y-25284D01*
X51155Y-25293D01*
X51163Y-25303D01*
X51232Y-25303D02*
X51240Y-25293D01*
X51258Y-25284D01*
X51300Y-25284D01*
X51318Y-25293D01*
X51326Y-25303D01*
X51335Y-25322D01*
X51335Y-25341D01*
X51326Y-25369D01*
X51223Y-25484D01*
X51335Y-25484D01*
X51395Y-25284D02*
X51515Y-25284D01*
X51438Y-25484D01*
X51163Y-24913D02*
X51155Y-24923D01*
X51129Y-24932D01*
X51112Y-24932D01*
X51086Y-24923D01*
X51069Y-24904D01*
X51060Y-24885D01*
X51052Y-24847D01*
X51052Y-24818D01*
X51060Y-24780D01*
X51069Y-24761D01*
X51086Y-24742D01*
X51112Y-24732D01*
X51129Y-24732D01*
X51155Y-24742D01*
X51163Y-24752D01*
X51223Y-24732D02*
X51335Y-24732D01*
X51275Y-24809D01*
X51300Y-24809D01*
X51318Y-24818D01*
X51326Y-24828D01*
X51335Y-24847D01*
X51335Y-24894D01*
X51326Y-24913D01*
X51318Y-24923D01*
X51300Y-24932D01*
X51249Y-24932D01*
X51232Y-24923D01*
X51223Y-24913D01*
X51506Y-24932D02*
X51403Y-24932D01*
X51455Y-24932D02*
X51455Y-24732D01*
X51438Y-24761D01*
X51420Y-24780D01*
X51403Y-24790D01*
X43280Y-20922D02*
X43289Y-20931D01*
X43299Y-20957D01*
X43299Y-20974D01*
X43289Y-20999D01*
X43270Y-21017D01*
X43251Y-21025D01*
X43213Y-21034D01*
X43184Y-21034D01*
X43146Y-21025D01*
X43127Y-21017D01*
X43108Y-20999D01*
X43099Y-20974D01*
X43099Y-20957D01*
X43108Y-20931D01*
X43118Y-20922D01*
X43099Y-20862D02*
X43099Y-20751D01*
X43175Y-20811D01*
X43175Y-20785D01*
X43184Y-20768D01*
X43194Y-20759D01*
X43213Y-20751D01*
X43261Y-20751D01*
X43280Y-20759D01*
X43289Y-20768D01*
X43299Y-20785D01*
X43299Y-20837D01*
X43289Y-20854D01*
X43280Y-20862D01*
X43099Y-20691D02*
X43099Y-20579D01*
X43175Y-20639D01*
X43175Y-20614D01*
X43184Y-20597D01*
X43194Y-20588D01*
X43213Y-20579D01*
X43261Y-20579D01*
X43280Y-20588D01*
X43289Y-20597D01*
X43299Y-20614D01*
X43299Y-20665D01*
X43289Y-20682D01*
X43280Y-20691D01*
X47443Y-29677D02*
X47434Y-29687D01*
X47409Y-29696D01*
X47391Y-29696D01*
X47366Y-29687D01*
X47349Y-29668D01*
X47340Y-29649D01*
X47331Y-29611D01*
X47331Y-29582D01*
X47340Y-29544D01*
X47349Y-29525D01*
X47366Y-29506D01*
X47391Y-29496D01*
X47409Y-29496D01*
X47434Y-29506D01*
X47443Y-29515D01*
X47503Y-29496D02*
X47614Y-29496D01*
X47554Y-29572D01*
X47580Y-29572D01*
X47597Y-29582D01*
X47606Y-29592D01*
X47614Y-29611D01*
X47614Y-29658D01*
X47606Y-29677D01*
X47597Y-29687D01*
X47580Y-29696D01*
X47529Y-29696D01*
X47511Y-29687D01*
X47503Y-29677D01*
X47769Y-29563D02*
X47769Y-29696D01*
X47726Y-29487D02*
X47683Y-29630D01*
X47794Y-29630D01*
X52207Y-20465D02*
X52198Y-20474D01*
X52172Y-20484D01*
X52155Y-20484D01*
X52129Y-20474D01*
X52112Y-20455D01*
X52104Y-20436D01*
X52095Y-20398D01*
X52095Y-20369D01*
X52104Y-20331D01*
X52112Y-20312D01*
X52129Y-20293D01*
X52155Y-20284D01*
X52172Y-20284D01*
X52198Y-20293D01*
X52207Y-20303D01*
X52267Y-20284D02*
X52378Y-20284D01*
X52318Y-20360D01*
X52344Y-20360D01*
X52361Y-20369D01*
X52369Y-20379D01*
X52378Y-20398D01*
X52378Y-20446D01*
X52369Y-20465D01*
X52361Y-20474D01*
X52344Y-20484D01*
X52292Y-20484D01*
X52275Y-20474D01*
X52267Y-20465D01*
X52541Y-20284D02*
X52455Y-20284D01*
X52447Y-20379D01*
X52455Y-20369D01*
X52472Y-20360D01*
X52515Y-20360D01*
X52532Y-20369D01*
X52541Y-20379D01*
X52549Y-20398D01*
X52549Y-20446D01*
X52541Y-20465D01*
X52532Y-20474D01*
X52515Y-20484D01*
X52472Y-20484D01*
X52455Y-20474D01*
X52447Y-20465D01*
X52763Y-23931D02*
X52764Y-23944D01*
X52753Y-23969D01*
X52741Y-23981D01*
X52716Y-23992D01*
X52690Y-23991D01*
X52671Y-23984D01*
X52638Y-23963D01*
X52617Y-23942D01*
X52596Y-23909D01*
X52589Y-23890D01*
X52588Y-23864D01*
X52599Y-23839D01*
X52611Y-23827D01*
X52636Y-23816D01*
X52649Y-23817D01*
X52678Y-23761D02*
X52757Y-23682D01*
X52768Y-23778D01*
X52786Y-23760D01*
X52805Y-23755D01*
X52818Y-23755D01*
X52838Y-23763D01*
X52871Y-23796D01*
X52879Y-23816D01*
X52879Y-23829D01*
X52874Y-23848D01*
X52838Y-23884D01*
X52819Y-23889D01*
X52806Y-23889D01*
X52799Y-23639D02*
X52884Y-23555D01*
X52971Y-23751D01*
X39234Y-53586D02*
X39244Y-53594D01*
X39253Y-53620D01*
X39253Y-53637D01*
X39244Y-53663D01*
X39225Y-53680D01*
X39206Y-53689D01*
X39168Y-53697D01*
X39139Y-53697D01*
X39101Y-53689D01*
X39082Y-53680D01*
X39063Y-53663D01*
X39053Y-53637D01*
X39053Y-53620D01*
X39063Y-53594D01*
X39072Y-53586D01*
X39053Y-53526D02*
X39053Y-53414D01*
X39130Y-53474D01*
X39130Y-53449D01*
X39139Y-53431D01*
X39149Y-53423D01*
X39168Y-53414D01*
X39215Y-53414D01*
X39234Y-53423D01*
X39244Y-53431D01*
X39253Y-53449D01*
X39253Y-53500D01*
X39244Y-53517D01*
X39234Y-53526D01*
X39253Y-53329D02*
X39253Y-53294D01*
X39244Y-53277D01*
X39234Y-53269D01*
X39206Y-53251D01*
X39168Y-53243D01*
X39091Y-53243D01*
X39072Y-53251D01*
X39063Y-53260D01*
X39053Y-53277D01*
X39053Y-53311D01*
X39063Y-53329D01*
X39072Y-53337D01*
X39091Y-53346D01*
X39139Y-53346D01*
X39158Y-53337D01*
X39168Y-53329D01*
X39177Y-53311D01*
X39177Y-53277D01*
X39168Y-53260D01*
X39158Y-53251D01*
X39139Y-53243D01*
X36984Y-54986D02*
X36994Y-54994D01*
X37003Y-55020D01*
X37003Y-55037D01*
X36994Y-55063D01*
X36975Y-55080D01*
X36956Y-55089D01*
X36918Y-55097D01*
X36889Y-55097D01*
X36851Y-55089D01*
X36832Y-55080D01*
X36813Y-55063D01*
X36803Y-55037D01*
X36803Y-55020D01*
X36813Y-54994D01*
X36822Y-54986D01*
X36870Y-54831D02*
X37003Y-54831D01*
X36794Y-54874D02*
X36937Y-54917D01*
X36937Y-54806D01*
X36803Y-54703D02*
X36803Y-54686D01*
X36813Y-54669D01*
X36822Y-54660D01*
X36841Y-54651D01*
X36880Y-54643D01*
X36927Y-54643D01*
X36965Y-54651D01*
X36984Y-54660D01*
X36994Y-54669D01*
X37003Y-54686D01*
X37003Y-54703D01*
X36994Y-54720D01*
X36984Y-54729D01*
X36965Y-54737D01*
X36927Y-54746D01*
X36880Y-54746D01*
X36841Y-54737D01*
X36822Y-54729D01*
X36813Y-54720D01*
X36803Y-54703D01*
X39244Y-55056D02*
X39254Y-55065D01*
X39263Y-55090D01*
X39263Y-55108D01*
X39254Y-55133D01*
X39235Y-55150D01*
X39216Y-55159D01*
X39177Y-55168D01*
X39149Y-55168D01*
X39111Y-55159D01*
X39092Y-55150D01*
X39073Y-55133D01*
X39063Y-55108D01*
X39063Y-55090D01*
X39073Y-55065D01*
X39082Y-55056D01*
X39130Y-54902D02*
X39263Y-54902D01*
X39054Y-54945D02*
X39197Y-54988D01*
X39197Y-54876D01*
X39263Y-54713D02*
X39263Y-54816D01*
X39263Y-54765D02*
X39063Y-54765D01*
X39092Y-54782D01*
X39111Y-54799D01*
X39120Y-54816D01*
X51734Y-31724D02*
X51726Y-31734D01*
X51700Y-31744D01*
X51683Y-31744D01*
X51657Y-31734D01*
X51640Y-31715D01*
X51631Y-31696D01*
X51623Y-31658D01*
X51623Y-31629D01*
X51631Y-31591D01*
X51640Y-31572D01*
X51657Y-31553D01*
X51683Y-31544D01*
X51700Y-31544D01*
X51726Y-31553D01*
X51734Y-31563D01*
X51794Y-31544D02*
X51914Y-31544D01*
X51837Y-31744D01*
X52060Y-31544D02*
X52026Y-31544D01*
X52008Y-31553D01*
X52000Y-31563D01*
X51983Y-31591D01*
X51974Y-31629D01*
X51974Y-31705D01*
X51983Y-31724D01*
X51991Y-31734D01*
X52008Y-31744D01*
X52043Y-31744D01*
X52060Y-31734D01*
X52068Y-31724D01*
X52077Y-31705D01*
X52077Y-31658D01*
X52068Y-31639D01*
X52060Y-31629D01*
X52043Y-31620D01*
X52008Y-31620D01*
X51991Y-31629D01*
X51983Y-31639D01*
X51974Y-31658D01*
X38122Y-50725D02*
X38132Y-50734D01*
X38141Y-50760D01*
X38141Y-50777D01*
X38132Y-50803D01*
X38113Y-50820D01*
X38094Y-50828D01*
X38055Y-50837D01*
X38027Y-50837D01*
X37989Y-50828D01*
X37970Y-50820D01*
X37951Y-50803D01*
X37941Y-50777D01*
X37941Y-50760D01*
X37951Y-50734D01*
X37960Y-50725D01*
X37960Y-50657D02*
X37951Y-50648D01*
X37941Y-50631D01*
X37941Y-50588D01*
X37951Y-50571D01*
X37960Y-50563D01*
X37979Y-50554D01*
X37998Y-50554D01*
X38027Y-50563D01*
X38141Y-50665D01*
X38141Y-50554D01*
X37941Y-50391D02*
X37941Y-50477D01*
X38036Y-50485D01*
X38027Y-50477D01*
X38017Y-50460D01*
X38017Y-50417D01*
X38027Y-50400D01*
X38036Y-50391D01*
X38055Y-50383D01*
X38103Y-50383D01*
X38122Y-50391D01*
X38132Y-50400D01*
X38141Y-50417D01*
X38141Y-50460D01*
X38132Y-50477D01*
X38122Y-50485D01*
X38693Y-50725D02*
X38702Y-50734D01*
X38712Y-50760D01*
X38712Y-50777D01*
X38702Y-50803D01*
X38683Y-50820D01*
X38664Y-50828D01*
X38626Y-50837D01*
X38598Y-50837D01*
X38560Y-50828D01*
X38541Y-50820D01*
X38522Y-50803D01*
X38512Y-50777D01*
X38512Y-50760D01*
X38522Y-50734D01*
X38531Y-50725D01*
X38531Y-50657D02*
X38522Y-50648D01*
X38512Y-50631D01*
X38512Y-50588D01*
X38522Y-50571D01*
X38531Y-50563D01*
X38550Y-50554D01*
X38569Y-50554D01*
X38598Y-50563D01*
X38712Y-50665D01*
X38712Y-50554D01*
X38712Y-50468D02*
X38712Y-50434D01*
X38702Y-50417D01*
X38693Y-50408D01*
X38664Y-50391D01*
X38626Y-50383D01*
X38550Y-50383D01*
X38531Y-50391D01*
X38522Y-50400D01*
X38512Y-50417D01*
X38512Y-50451D01*
X38522Y-50468D01*
X38531Y-50477D01*
X38550Y-50485D01*
X38598Y-50485D01*
X38617Y-50477D01*
X38626Y-50468D01*
X38636Y-50451D01*
X38636Y-50417D01*
X38626Y-50400D01*
X38617Y-50391D01*
X38598Y-50383D01*
X36557Y-50347D02*
X36548Y-50356D01*
X36523Y-50366D01*
X36506Y-50366D01*
X36480Y-50356D01*
X36463Y-50337D01*
X36454Y-50318D01*
X36446Y-50280D01*
X36446Y-50251D01*
X36454Y-50213D01*
X36463Y-50194D01*
X36480Y-50175D01*
X36506Y-50166D01*
X36523Y-50166D01*
X36548Y-50175D01*
X36557Y-50185D01*
X36711Y-50232D02*
X36711Y-50366D01*
X36668Y-50156D02*
X36626Y-50299D01*
X36737Y-50299D01*
X36797Y-50185D02*
X36806Y-50175D01*
X36823Y-50166D01*
X36866Y-50166D01*
X36883Y-50175D01*
X36891Y-50185D01*
X36900Y-50204D01*
X36900Y-50223D01*
X36891Y-50251D01*
X36788Y-50366D01*
X36900Y-50366D01*
X45347Y-25962D02*
X45356Y-25970D01*
X45366Y-25996D01*
X45366Y-26013D01*
X45356Y-26039D01*
X45337Y-26056D01*
X45318Y-26065D01*
X45280Y-26073D01*
X45251Y-26073D01*
X45213Y-26065D01*
X45194Y-26056D01*
X45175Y-26039D01*
X45166Y-26013D01*
X45166Y-25996D01*
X45175Y-25970D01*
X45185Y-25962D01*
X45166Y-25902D02*
X45166Y-25790D01*
X45242Y-25850D01*
X45242Y-25825D01*
X45251Y-25807D01*
X45261Y-25799D01*
X45280Y-25790D01*
X45327Y-25790D01*
X45347Y-25799D01*
X45356Y-25807D01*
X45366Y-25825D01*
X45366Y-25876D01*
X45356Y-25893D01*
X45347Y-25902D01*
X45166Y-25636D02*
X45166Y-25670D01*
X45175Y-25687D01*
X45185Y-25696D01*
X45213Y-25713D01*
X45251Y-25722D01*
X45327Y-25722D01*
X45347Y-25713D01*
X45356Y-25705D01*
X45366Y-25687D01*
X45366Y-25653D01*
X45356Y-25636D01*
X45347Y-25627D01*
X45327Y-25619D01*
X45280Y-25619D01*
X45261Y-25627D01*
X45251Y-25636D01*
X45242Y-25653D01*
X45242Y-25687D01*
X45251Y-25705D01*
X45261Y-25713D01*
X45280Y-25722D01*
G54D12*
X35439Y-47953D02*
X35439Y-48156D01*
X35451Y-48179D01*
X35463Y-48191D01*
X35487Y-48203D01*
X35534Y-48203D01*
X35558Y-48191D01*
X35570Y-48179D01*
X35582Y-48156D01*
X35582Y-47953D01*
X35808Y-47953D02*
X35760Y-47953D01*
X35737Y-47965D01*
X35725Y-47977D01*
X35701Y-48013D01*
X35689Y-48060D01*
X35689Y-48156D01*
X35701Y-48179D01*
X35713Y-48191D01*
X35737Y-48203D01*
X35784Y-48203D01*
X35808Y-48191D01*
X35820Y-48179D01*
X35832Y-48156D01*
X35832Y-48096D01*
X35820Y-48072D01*
X35808Y-48060D01*
X35784Y-48049D01*
X35737Y-48049D01*
X35713Y-48060D01*
X35701Y-48072D01*
X35689Y-48096D01*
X37329Y-54292D02*
X37329Y-54494D01*
X37341Y-54518D01*
X37352Y-54530D01*
X37376Y-54542D01*
X37424Y-54542D01*
X37448Y-54530D01*
X37460Y-54518D01*
X37471Y-54494D01*
X37471Y-54292D01*
X37567Y-54292D02*
X37733Y-54292D01*
X37626Y-54542D01*
G54D21*
X33760Y-45685D02*
X34083Y-45685D01*
X34121Y-45666D01*
X34141Y-45647D01*
X34160Y-45609D01*
X34160Y-45533D01*
X34141Y-45495D01*
X34121Y-45476D01*
X34083Y-45457D01*
X33760Y-45457D01*
X34160Y-45057D02*
X34160Y-45285D01*
X34160Y-45171D02*
X33760Y-45171D01*
X33817Y-45209D01*
X33855Y-45247D01*
X33874Y-45285D01*
G54D22*
X42385Y-42037D02*
X42320Y-41944D01*
X42273Y-42037D02*
X42273Y-41841D01*
X42348Y-41841D01*
X42367Y-41850D01*
X42376Y-41859D01*
X42385Y-41878D01*
X42385Y-41906D01*
X42376Y-41925D01*
X42367Y-41934D01*
X42348Y-41944D01*
X42273Y-41944D01*
X42460Y-41981D02*
X42554Y-41981D01*
X42442Y-42037D02*
X42507Y-41841D01*
X42573Y-42037D01*
X42742Y-42037D02*
X42629Y-42037D01*
X42685Y-42037D02*
X42685Y-41841D01*
X42667Y-41869D01*
X42648Y-41887D01*
X42629Y-41897D01*
X43135Y-30738D02*
X43069Y-30644D01*
X43023Y-30738D02*
X43023Y-30541D01*
X43098Y-30541D01*
X43116Y-30551D01*
X43126Y-30560D01*
X43135Y-30579D01*
X43135Y-30607D01*
X43126Y-30626D01*
X43116Y-30635D01*
X43098Y-30644D01*
X43023Y-30644D01*
X43210Y-30682D02*
X43304Y-30682D01*
X43191Y-30738D02*
X43257Y-30541D01*
X43323Y-30738D01*
X43491Y-30738D02*
X43379Y-30738D01*
X43435Y-30738D02*
X43435Y-30541D01*
X43416Y-30569D01*
X43398Y-30588D01*
X43379Y-30598D01*
X43585Y-30738D02*
X43622Y-30738D01*
X43641Y-30729D01*
X43651Y-30719D01*
X43669Y-30691D01*
X43679Y-30654D01*
X43679Y-30579D01*
X43669Y-30560D01*
X43660Y-30551D01*
X43641Y-30541D01*
X43604Y-30541D01*
X43585Y-30551D01*
X43576Y-30560D01*
X43566Y-30579D01*
X43566Y-30626D01*
X43576Y-30644D01*
X43585Y-30654D01*
X43604Y-30663D01*
X43641Y-30663D01*
X43660Y-30654D01*
X43669Y-30644D01*
X43679Y-30626D01*
X41245Y-31250D02*
X41180Y-31156D01*
X41133Y-31250D02*
X41133Y-31053D01*
X41208Y-31053D01*
X41227Y-31062D01*
X41236Y-31072D01*
X41245Y-31091D01*
X41245Y-31119D01*
X41236Y-31137D01*
X41227Y-31147D01*
X41208Y-31156D01*
X41133Y-31156D01*
X41320Y-31194D02*
X41414Y-31194D01*
X41302Y-31250D02*
X41367Y-31053D01*
X41433Y-31250D01*
X41601Y-31250D02*
X41489Y-31250D01*
X41545Y-31250D02*
X41545Y-31053D01*
X41526Y-31081D01*
X41508Y-31100D01*
X41489Y-31109D01*
X41714Y-31137D02*
X41695Y-31128D01*
X41686Y-31119D01*
X41676Y-31100D01*
X41676Y-31091D01*
X41686Y-31072D01*
X41695Y-31062D01*
X41714Y-31053D01*
X41751Y-31053D01*
X41770Y-31062D01*
X41780Y-31072D01*
X41789Y-31091D01*
X41789Y-31100D01*
X41780Y-31119D01*
X41770Y-31128D01*
X41751Y-31137D01*
X41714Y-31137D01*
X41695Y-31147D01*
X41686Y-31156D01*
X41676Y-31175D01*
X41676Y-31212D01*
X41686Y-31231D01*
X41695Y-31241D01*
X41714Y-31250D01*
X41751Y-31250D01*
X41770Y-31241D01*
X41780Y-31231D01*
X41789Y-31212D01*
X41789Y-31175D01*
X41780Y-31156D01*
X41770Y-31147D01*
X41751Y-31137D01*
X40419Y-31250D02*
X40353Y-31156D01*
X40306Y-31250D02*
X40306Y-31053D01*
X40381Y-31053D01*
X40400Y-31062D01*
X40409Y-31072D01*
X40419Y-31091D01*
X40419Y-31119D01*
X40409Y-31137D01*
X40400Y-31147D01*
X40381Y-31156D01*
X40306Y-31156D01*
X40494Y-31194D02*
X40587Y-31194D01*
X40475Y-31250D02*
X40540Y-31053D01*
X40606Y-31250D01*
X40775Y-31250D02*
X40662Y-31250D01*
X40718Y-31250D02*
X40718Y-31053D01*
X40700Y-31081D01*
X40681Y-31100D01*
X40662Y-31109D01*
X40840Y-31053D02*
X40972Y-31053D01*
X40887Y-31250D01*
X39585Y-31240D02*
X39520Y-31146D01*
X39473Y-31240D02*
X39473Y-31043D01*
X39548Y-31043D01*
X39567Y-31052D01*
X39576Y-31062D01*
X39585Y-31080D01*
X39585Y-31108D01*
X39576Y-31127D01*
X39567Y-31137D01*
X39548Y-31146D01*
X39473Y-31146D01*
X39660Y-31183D02*
X39754Y-31183D01*
X39642Y-31240D02*
X39707Y-31043D01*
X39773Y-31240D01*
X39942Y-31240D02*
X39829Y-31240D01*
X39885Y-31240D02*
X39885Y-31043D01*
X39867Y-31071D01*
X39848Y-31090D01*
X39829Y-31099D01*
X40120Y-31043D02*
X40026Y-31043D01*
X40017Y-31137D01*
X40026Y-31127D01*
X40045Y-31118D01*
X40092Y-31118D01*
X40110Y-31127D01*
X40120Y-31137D01*
X40129Y-31155D01*
X40129Y-31202D01*
X40120Y-31221D01*
X40110Y-31230D01*
X40092Y-31240D01*
X40045Y-31240D01*
X40026Y-31230D01*
X40017Y-31221D01*
X38635Y-31240D02*
X38570Y-31146D01*
X38523Y-31240D02*
X38523Y-31043D01*
X38598Y-31043D01*
X38617Y-31052D01*
X38626Y-31062D01*
X38635Y-31080D01*
X38635Y-31108D01*
X38626Y-31127D01*
X38617Y-31137D01*
X38598Y-31146D01*
X38523Y-31146D01*
X38710Y-31183D02*
X38804Y-31183D01*
X38692Y-31240D02*
X38757Y-31043D01*
X38823Y-31240D01*
X38992Y-31240D02*
X38879Y-31240D01*
X38935Y-31240D02*
X38935Y-31043D01*
X38917Y-31071D01*
X38898Y-31090D01*
X38879Y-31099D01*
X39160Y-31108D02*
X39160Y-31240D01*
X39114Y-31034D02*
X39067Y-31174D01*
X39188Y-31174D01*
X37735Y-31240D02*
X37670Y-31146D01*
X37623Y-31240D02*
X37623Y-31043D01*
X37698Y-31043D01*
X37717Y-31052D01*
X37726Y-31062D01*
X37735Y-31080D01*
X37735Y-31108D01*
X37726Y-31127D01*
X37717Y-31137D01*
X37698Y-31146D01*
X37623Y-31146D01*
X37810Y-31183D02*
X37904Y-31183D01*
X37792Y-31240D02*
X37857Y-31043D01*
X37923Y-31240D01*
X38092Y-31240D02*
X37979Y-31240D01*
X38035Y-31240D02*
X38035Y-31043D01*
X38017Y-31071D01*
X37998Y-31090D01*
X37979Y-31099D01*
X38157Y-31043D02*
X38279Y-31043D01*
X38214Y-31118D01*
X38242Y-31118D01*
X38260Y-31127D01*
X38270Y-31137D01*
X38279Y-31155D01*
X38279Y-31202D01*
X38270Y-31221D01*
X38260Y-31230D01*
X38242Y-31240D01*
X38185Y-31240D01*
X38167Y-31230D01*
X38157Y-31221D01*
X44535Y-31140D02*
X44470Y-31046D01*
X44423Y-31140D02*
X44423Y-30943D01*
X44498Y-30943D01*
X44517Y-30952D01*
X44526Y-30962D01*
X44535Y-30980D01*
X44535Y-31008D01*
X44526Y-31027D01*
X44517Y-31037D01*
X44498Y-31046D01*
X44423Y-31046D01*
X44610Y-31083D02*
X44704Y-31083D01*
X44592Y-31140D02*
X44657Y-30943D01*
X44723Y-31140D01*
X44892Y-31140D02*
X44779Y-31140D01*
X44835Y-31140D02*
X44835Y-30943D01*
X44817Y-30971D01*
X44798Y-30990D01*
X44779Y-30999D01*
X45079Y-31140D02*
X44967Y-31140D01*
X45023Y-31140D02*
X45023Y-30943D01*
X45004Y-30971D01*
X44985Y-30990D01*
X44967Y-30999D01*
X51255Y-39152D02*
X51190Y-39059D01*
X51143Y-39152D02*
X51143Y-38956D01*
X51218Y-38956D01*
X51237Y-38965D01*
X51246Y-38974D01*
X51255Y-38993D01*
X51255Y-39021D01*
X51246Y-39040D01*
X51237Y-39049D01*
X51218Y-39059D01*
X51143Y-39059D01*
X51330Y-39096D02*
X51424Y-39096D01*
X51312Y-39152D02*
X51377Y-38956D01*
X51443Y-39152D01*
X51518Y-39152D02*
X51555Y-39152D01*
X51574Y-39143D01*
X51584Y-39134D01*
X51602Y-39106D01*
X51612Y-39068D01*
X51612Y-38993D01*
X51602Y-38974D01*
X51593Y-38965D01*
X51574Y-38956D01*
X51537Y-38956D01*
X51518Y-38965D01*
X51509Y-38974D01*
X51499Y-38993D01*
X51499Y-39040D01*
X51509Y-39059D01*
X51518Y-39068D01*
X51537Y-39077D01*
X51574Y-39077D01*
X51593Y-39068D01*
X51602Y-39059D01*
X51612Y-39040D01*
X47735Y-41837D02*
X47670Y-41744D01*
X47623Y-41837D02*
X47623Y-41641D01*
X47698Y-41641D01*
X47717Y-41650D01*
X47726Y-41659D01*
X47735Y-41678D01*
X47735Y-41706D01*
X47726Y-41725D01*
X47717Y-41734D01*
X47698Y-41744D01*
X47623Y-41744D01*
X47810Y-41781D02*
X47904Y-41781D01*
X47792Y-41837D02*
X47857Y-41641D01*
X47923Y-41837D01*
X47979Y-41659D02*
X47989Y-41650D01*
X48007Y-41641D01*
X48054Y-41641D01*
X48073Y-41650D01*
X48082Y-41659D01*
X48092Y-41678D01*
X48092Y-41697D01*
X48082Y-41725D01*
X47970Y-41837D01*
X48092Y-41837D01*
X45035Y-41537D02*
X44970Y-41444D01*
X44923Y-41537D02*
X44923Y-41341D01*
X44998Y-41341D01*
X45017Y-41350D01*
X45026Y-41359D01*
X45035Y-41378D01*
X45035Y-41406D01*
X45026Y-41425D01*
X45017Y-41434D01*
X44998Y-41444D01*
X44923Y-41444D01*
X45110Y-41481D02*
X45204Y-41481D01*
X45092Y-41537D02*
X45157Y-41341D01*
X45223Y-41537D01*
X45373Y-41406D02*
X45373Y-41537D01*
X45326Y-41331D02*
X45279Y-41472D01*
X45401Y-41472D01*
X44235Y-42137D02*
X44170Y-42044D01*
X44123Y-42137D02*
X44123Y-41941D01*
X44198Y-41941D01*
X44217Y-41950D01*
X44226Y-41959D01*
X44235Y-41978D01*
X44235Y-42006D01*
X44226Y-42025D01*
X44217Y-42034D01*
X44198Y-42044D01*
X44123Y-42044D01*
X44310Y-42081D02*
X44404Y-42081D01*
X44292Y-42137D02*
X44357Y-41941D01*
X44423Y-42137D01*
X44470Y-41941D02*
X44592Y-41941D01*
X44526Y-42016D01*
X44554Y-42016D01*
X44573Y-42025D01*
X44582Y-42034D01*
X44592Y-42053D01*
X44592Y-42100D01*
X44582Y-42119D01*
X44573Y-42128D01*
X44554Y-42137D01*
X44498Y-42137D01*
X44479Y-42128D01*
X44470Y-42119D01*
X52010Y-38462D02*
X51945Y-38369D01*
X51898Y-38462D02*
X51898Y-38266D01*
X51973Y-38266D01*
X51992Y-38275D01*
X52001Y-38284D01*
X52010Y-38303D01*
X52010Y-38331D01*
X52001Y-38350D01*
X51992Y-38359D01*
X51973Y-38369D01*
X51898Y-38369D01*
X52085Y-38406D02*
X52179Y-38406D01*
X52067Y-38462D02*
X52132Y-38266D01*
X52198Y-38462D01*
X52357Y-38266D02*
X52264Y-38266D01*
X52254Y-38359D01*
X52264Y-38350D01*
X52282Y-38341D01*
X52329Y-38341D01*
X52348Y-38350D01*
X52357Y-38359D01*
X52367Y-38378D01*
X52367Y-38425D01*
X52357Y-38444D01*
X52348Y-38453D01*
X52329Y-38462D01*
X52282Y-38462D01*
X52264Y-38453D01*
X52254Y-38444D01*
X49843Y-39222D02*
X49777Y-39129D01*
X49730Y-39222D02*
X49730Y-39026D01*
X49805Y-39026D01*
X49824Y-39035D01*
X49834Y-39044D01*
X49843Y-39063D01*
X49843Y-39091D01*
X49834Y-39110D01*
X49824Y-39119D01*
X49805Y-39129D01*
X49730Y-39129D01*
X49918Y-39166D02*
X50012Y-39166D01*
X49899Y-39222D02*
X49965Y-39026D01*
X50030Y-39222D01*
X50077Y-39026D02*
X50209Y-39026D01*
X50124Y-39222D01*
X50525Y-39802D02*
X50460Y-39709D01*
X50413Y-39802D02*
X50413Y-39606D01*
X50488Y-39606D01*
X50507Y-39615D01*
X50516Y-39624D01*
X50525Y-39643D01*
X50525Y-39671D01*
X50516Y-39690D01*
X50507Y-39699D01*
X50488Y-39709D01*
X50413Y-39709D01*
X50600Y-39746D02*
X50694Y-39746D01*
X50582Y-39802D02*
X50647Y-39606D01*
X50713Y-39802D01*
X50863Y-39606D02*
X50825Y-39606D01*
X50807Y-39615D01*
X50797Y-39624D01*
X50779Y-39652D01*
X50769Y-39690D01*
X50769Y-39765D01*
X50779Y-39784D01*
X50788Y-39793D01*
X50807Y-39802D01*
X50844Y-39802D01*
X50863Y-39793D01*
X50872Y-39784D01*
X50882Y-39765D01*
X50882Y-39718D01*
X50872Y-39699D01*
X50863Y-39690D01*
X50844Y-39681D01*
X50807Y-39681D01*
X50788Y-39690D01*
X50779Y-39699D01*
X50769Y-39718D01*
X52323Y-40010D02*
X52258Y-39916D01*
X52211Y-40010D02*
X52211Y-39813D01*
X52286Y-39813D01*
X52305Y-39822D01*
X52314Y-39832D01*
X52323Y-39850D01*
X52323Y-39879D01*
X52314Y-39897D01*
X52305Y-39907D01*
X52286Y-39916D01*
X52211Y-39916D01*
X52398Y-39954D02*
X52492Y-39954D01*
X52380Y-40010D02*
X52445Y-39813D01*
X52511Y-40010D01*
X52604Y-39897D02*
X52586Y-39888D01*
X52576Y-39879D01*
X52567Y-39860D01*
X52567Y-39850D01*
X52576Y-39832D01*
X52586Y-39822D01*
X52604Y-39813D01*
X52642Y-39813D01*
X52661Y-39822D01*
X52670Y-39832D01*
X52679Y-39850D01*
X52679Y-39860D01*
X52670Y-39879D01*
X52661Y-39888D01*
X52642Y-39897D01*
X52604Y-39897D01*
X52586Y-39907D01*
X52576Y-39916D01*
X52567Y-39935D01*
X52567Y-39972D01*
X52576Y-39991D01*
X52586Y-40000D01*
X52604Y-40010D01*
X52642Y-40010D01*
X52661Y-40000D01*
X52670Y-39991D01*
X52679Y-39972D01*
X52679Y-39935D01*
X52670Y-39916D01*
X52661Y-39907D01*
X52642Y-39897D01*
X52958Y-39498D02*
X52892Y-39404D01*
X52845Y-39498D02*
X52845Y-39301D01*
X52920Y-39301D01*
X52939Y-39311D01*
X52949Y-39320D01*
X52958Y-39339D01*
X52958Y-39367D01*
X52949Y-39386D01*
X52939Y-39395D01*
X52920Y-39404D01*
X52845Y-39404D01*
X53033Y-39442D02*
X53127Y-39442D01*
X53014Y-39498D02*
X53080Y-39301D01*
X53145Y-39498D01*
X53314Y-39498D02*
X53202Y-39498D01*
X53258Y-39498D02*
X53258Y-39301D01*
X53239Y-39329D01*
X53220Y-39348D01*
X53202Y-39357D01*
X53436Y-39301D02*
X53455Y-39301D01*
X53473Y-39311D01*
X53483Y-39320D01*
X53492Y-39339D01*
X53502Y-39376D01*
X53502Y-39423D01*
X53492Y-39461D01*
X53483Y-39479D01*
X53473Y-39489D01*
X53455Y-39498D01*
X53436Y-39498D01*
X53417Y-39489D01*
X53408Y-39479D01*
X53398Y-39461D01*
X53389Y-39423D01*
X53389Y-39376D01*
X53398Y-39339D01*
X53408Y-39320D01*
X53417Y-39311D01*
X53436Y-39301D01*
G54D11*
X46831Y-26916D02*
X46831Y-27103D01*
X46437Y-27103D01*
X46475Y-26803D02*
X46456Y-26784D01*
X46437Y-26747D01*
X46437Y-26653D01*
X46456Y-26616D01*
X46475Y-26597D01*
X46512Y-26578D01*
X46550Y-26578D01*
X46606Y-26597D01*
X46831Y-26822D01*
X46831Y-26578D01*
X49717Y-25965D02*
X49530Y-25965D01*
X49530Y-25571D01*
X49811Y-25571D02*
X50055Y-25571D01*
X49924Y-25721D01*
X49980Y-25721D01*
X50017Y-25740D01*
X50036Y-25759D01*
X50055Y-25796D01*
X50055Y-25890D01*
X50036Y-25928D01*
X50017Y-25946D01*
X49980Y-25965D01*
X49867Y-25965D01*
X49830Y-25946D01*
X49811Y-25928D01*
X35682Y-54666D02*
X35494Y-54666D01*
X35494Y-54272D01*
X36001Y-54272D02*
X35813Y-54272D01*
X35794Y-54460D01*
X35813Y-54441D01*
X35851Y-54422D01*
X35944Y-54422D01*
X35982Y-54441D01*
X36001Y-54460D01*
X36019Y-54497D01*
X36019Y-54591D01*
X36001Y-54628D01*
X35982Y-54647D01*
X35944Y-54666D01*
X35851Y-54666D01*
X35813Y-54647D01*
X35794Y-54628D01*
X37237Y-48032D02*
X37050Y-48032D01*
X37050Y-47638D01*
X37574Y-48032D02*
X37350Y-48032D01*
X37462Y-48032D02*
X37462Y-47638D01*
X37425Y-47694D01*
X37387Y-47732D01*
X37350Y-47751D01*
G54D19*
X49429Y-41177D02*
X49372Y-41217D01*
X49429Y-41245D02*
X49309Y-41245D01*
X49309Y-41200D01*
X49315Y-41188D01*
X49320Y-41182D01*
X49332Y-41177D01*
X49349Y-41177D01*
X49360Y-41182D01*
X49366Y-41188D01*
X49372Y-41200D01*
X49372Y-41245D01*
X49429Y-41062D02*
X49429Y-41131D01*
X49429Y-41097D02*
X49309Y-41097D01*
X49326Y-41108D01*
X49337Y-41120D01*
X49343Y-41131D01*
X49309Y-41022D02*
X49309Y-40942D01*
X49429Y-40994D01*
X49829Y-41177D02*
X49772Y-41217D01*
X49829Y-41245D02*
X49709Y-41245D01*
X49709Y-41200D01*
X49715Y-41188D01*
X49720Y-41182D01*
X49732Y-41177D01*
X49749Y-41177D01*
X49760Y-41182D01*
X49766Y-41188D01*
X49772Y-41200D01*
X49772Y-41245D01*
X49829Y-41062D02*
X49829Y-41131D01*
X49829Y-41097D02*
X49709Y-41097D01*
X49726Y-41108D01*
X49737Y-41120D01*
X49743Y-41131D01*
X49760Y-40994D02*
X49755Y-41005D01*
X49749Y-41011D01*
X49737Y-41017D01*
X49732Y-41017D01*
X49720Y-41011D01*
X49715Y-41005D01*
X49709Y-40994D01*
X49709Y-40971D01*
X49715Y-40960D01*
X49720Y-40954D01*
X49732Y-40948D01*
X49737Y-40948D01*
X49749Y-40954D01*
X49755Y-40960D01*
X49760Y-40971D01*
X49760Y-40994D01*
X49766Y-41005D01*
X49772Y-41011D01*
X49783Y-41017D01*
X49806Y-41017D01*
X49817Y-41011D01*
X49823Y-41005D01*
X49829Y-40994D01*
X49829Y-40971D01*
X49823Y-40960D01*
X49817Y-40954D01*
X49806Y-40948D01*
X49783Y-40948D01*
X49772Y-40954D01*
X49766Y-40960D01*
X49760Y-40971D01*
X43954Y-42577D02*
X43897Y-42617D01*
X43954Y-42645D02*
X43834Y-42645D01*
X43834Y-42600D01*
X43840Y-42588D01*
X43845Y-42582D01*
X43857Y-42577D01*
X43874Y-42577D01*
X43885Y-42582D01*
X43891Y-42588D01*
X43897Y-42600D01*
X43897Y-42645D01*
X43954Y-42462D02*
X43954Y-42531D01*
X43954Y-42497D02*
X43834Y-42497D01*
X43851Y-42508D01*
X43862Y-42520D01*
X43868Y-42531D01*
X43954Y-42405D02*
X43954Y-42382D01*
X43948Y-42371D01*
X43942Y-42365D01*
X43925Y-42354D01*
X43902Y-42348D01*
X43857Y-42348D01*
X43845Y-42354D01*
X43840Y-42360D01*
X43834Y-42371D01*
X43834Y-42394D01*
X43840Y-42405D01*
X43845Y-42411D01*
X43857Y-42417D01*
X43885Y-42417D01*
X43897Y-42411D01*
X43902Y-42405D01*
X43908Y-42394D01*
X43908Y-42371D01*
X43902Y-42360D01*
X43897Y-42354D01*
X43885Y-42348D01*
X44304Y-42577D02*
X44247Y-42617D01*
X44304Y-42645D02*
X44184Y-42645D01*
X44184Y-42600D01*
X44190Y-42588D01*
X44195Y-42582D01*
X44207Y-42577D01*
X44224Y-42577D01*
X44235Y-42582D01*
X44241Y-42588D01*
X44247Y-42600D01*
X44247Y-42645D01*
X44195Y-42531D02*
X44190Y-42525D01*
X44184Y-42514D01*
X44184Y-42485D01*
X44190Y-42474D01*
X44195Y-42468D01*
X44207Y-42462D01*
X44218Y-42462D01*
X44235Y-42468D01*
X44304Y-42537D01*
X44304Y-42462D01*
X44184Y-42388D02*
X44184Y-42377D01*
X44190Y-42365D01*
X44195Y-42360D01*
X44207Y-42354D01*
X44230Y-42348D01*
X44258Y-42348D01*
X44281Y-42354D01*
X44292Y-42360D01*
X44298Y-42365D01*
X44304Y-42377D01*
X44304Y-42388D01*
X44298Y-42400D01*
X44292Y-42405D01*
X44281Y-42411D01*
X44258Y-42417D01*
X44230Y-42417D01*
X44207Y-42411D01*
X44195Y-42405D01*
X44190Y-42400D01*
X44184Y-42388D01*
X47125Y-42085D02*
X47068Y-42125D01*
X47125Y-42153D02*
X47005Y-42153D01*
X47005Y-42107D01*
X47011Y-42096D01*
X47017Y-42090D01*
X47028Y-42085D01*
X47045Y-42085D01*
X47057Y-42090D01*
X47063Y-42096D01*
X47068Y-42107D01*
X47068Y-42153D01*
X47017Y-42039D02*
X47011Y-42033D01*
X47005Y-42022D01*
X47005Y-41993D01*
X47011Y-41982D01*
X47017Y-41976D01*
X47028Y-41970D01*
X47040Y-41970D01*
X47057Y-41976D01*
X47125Y-42045D01*
X47125Y-41970D01*
X47017Y-41925D02*
X47011Y-41919D01*
X47005Y-41907D01*
X47005Y-41879D01*
X47011Y-41867D01*
X47017Y-41862D01*
X47028Y-41856D01*
X47040Y-41856D01*
X47057Y-41862D01*
X47125Y-41930D01*
X47125Y-41856D01*
X43004Y-42577D02*
X42947Y-42617D01*
X43004Y-42645D02*
X42884Y-42645D01*
X42884Y-42600D01*
X42890Y-42588D01*
X42895Y-42582D01*
X42907Y-42577D01*
X42924Y-42577D01*
X42935Y-42582D01*
X42941Y-42588D01*
X42947Y-42600D01*
X42947Y-42645D01*
X42924Y-42474D02*
X43004Y-42474D01*
X42878Y-42502D02*
X42964Y-42531D01*
X42964Y-42457D01*
X42895Y-42417D02*
X42890Y-42411D01*
X42884Y-42400D01*
X42884Y-42371D01*
X42890Y-42360D01*
X42895Y-42354D01*
X42907Y-42348D01*
X42918Y-42348D01*
X42935Y-42354D01*
X43004Y-42422D01*
X43004Y-42348D01*
X45704Y-42077D02*
X45647Y-42117D01*
X45704Y-42145D02*
X45584Y-42145D01*
X45584Y-42100D01*
X45590Y-42088D01*
X45595Y-42082D01*
X45607Y-42077D01*
X45624Y-42077D01*
X45635Y-42082D01*
X45641Y-42088D01*
X45647Y-42100D01*
X45647Y-42145D01*
X45624Y-41974D02*
X45704Y-41974D01*
X45578Y-42002D02*
X45664Y-42031D01*
X45664Y-41957D01*
X45584Y-41922D02*
X45584Y-41848D01*
X45630Y-41888D01*
X45630Y-41871D01*
X45635Y-41860D01*
X45641Y-41854D01*
X45652Y-41848D01*
X45681Y-41848D01*
X45692Y-41854D01*
X45698Y-41860D01*
X45704Y-41871D01*
X45704Y-41905D01*
X45698Y-41917D01*
X45692Y-41922D01*
X46751Y-42085D02*
X46694Y-42125D01*
X46751Y-42153D02*
X46631Y-42153D01*
X46631Y-42107D01*
X46637Y-42096D01*
X46643Y-42090D01*
X46654Y-42085D01*
X46671Y-42085D01*
X46683Y-42090D01*
X46689Y-42096D01*
X46694Y-42107D01*
X46694Y-42153D01*
X46643Y-42039D02*
X46637Y-42033D01*
X46631Y-42022D01*
X46631Y-41993D01*
X46637Y-41982D01*
X46643Y-41976D01*
X46654Y-41970D01*
X46666Y-41970D01*
X46683Y-41976D01*
X46751Y-42045D01*
X46751Y-41970D01*
X46751Y-41856D02*
X46751Y-41925D01*
X46751Y-41890D02*
X46631Y-41890D01*
X46649Y-41902D01*
X46660Y-41913D01*
X46666Y-41925D01*
X50059Y-46041D02*
X50001Y-46081D01*
X50059Y-46110D02*
X49939Y-46110D01*
X49939Y-46064D01*
X49944Y-46053D01*
X49950Y-46047D01*
X49961Y-46041D01*
X49979Y-46041D01*
X49990Y-46047D01*
X49996Y-46053D01*
X50001Y-46064D01*
X50001Y-46110D01*
X49939Y-45933D02*
X49939Y-45990D01*
X49996Y-45995D01*
X49990Y-45990D01*
X49984Y-45978D01*
X49984Y-45950D01*
X49990Y-45938D01*
X49996Y-45933D01*
X50007Y-45927D01*
X50036Y-45927D01*
X50047Y-45933D01*
X50053Y-45938D01*
X50059Y-45950D01*
X50059Y-45978D01*
X50053Y-45990D01*
X50047Y-45995D01*
X49939Y-45853D02*
X49939Y-45841D01*
X49944Y-45830D01*
X49950Y-45824D01*
X49961Y-45818D01*
X49984Y-45813D01*
X50013Y-45813D01*
X50036Y-45818D01*
X50047Y-45824D01*
X50053Y-45830D01*
X50059Y-45841D01*
X50059Y-45853D01*
X50053Y-45864D01*
X50047Y-45870D01*
X50036Y-45875D01*
X50013Y-45881D01*
X49984Y-45881D01*
X49961Y-45875D01*
X49950Y-45870D01*
X49944Y-45864D01*
X49939Y-45853D01*
X45618Y-41528D02*
X45610Y-41528D01*
X45594Y-41520D01*
X45586Y-41512D01*
X45578Y-41495D01*
X45578Y-41479D01*
X45582Y-41467D01*
X45594Y-41447D01*
X45606Y-41435D01*
X45626Y-41423D01*
X45638Y-41419D01*
X45654Y-41419D01*
X45670Y-41427D01*
X45679Y-41435D01*
X45687Y-41451D01*
X45687Y-41459D01*
X45771Y-41528D02*
X45731Y-41487D01*
X45687Y-41524D01*
X45695Y-41524D01*
X45707Y-41528D01*
X45727Y-41548D01*
X45731Y-41560D01*
X45731Y-41568D01*
X45727Y-41580D01*
X45707Y-41601D01*
X45695Y-41605D01*
X45687Y-41605D01*
X45674Y-41601D01*
X45654Y-41580D01*
X45650Y-41568D01*
X45650Y-41560D01*
X48148Y-40866D02*
X48154Y-40872D01*
X48159Y-40889D01*
X48159Y-40900D01*
X48154Y-40917D01*
X48142Y-40929D01*
X48131Y-40935D01*
X48108Y-40940D01*
X48091Y-40940D01*
X48068Y-40935D01*
X48056Y-40929D01*
X48045Y-40917D01*
X48039Y-40900D01*
X48039Y-40889D01*
X48045Y-40872D01*
X48051Y-40866D01*
X48039Y-40763D02*
X48039Y-40786D01*
X48045Y-40797D01*
X48051Y-40803D01*
X48068Y-40815D01*
X48091Y-40820D01*
X48136Y-40820D01*
X48148Y-40815D01*
X48154Y-40809D01*
X48159Y-40797D01*
X48159Y-40775D01*
X48154Y-40763D01*
X48148Y-40757D01*
X48136Y-40752D01*
X48108Y-40752D01*
X48096Y-40757D01*
X48091Y-40763D01*
X48085Y-40775D01*
X48085Y-40797D01*
X48091Y-40809D01*
X48096Y-40815D01*
X48108Y-40820D01*
X51733Y-22724D02*
X51728Y-22730D01*
X51711Y-22736D01*
X51699Y-22736D01*
X51682Y-22730D01*
X51671Y-22719D01*
X51665Y-22707D01*
X51659Y-22684D01*
X51659Y-22667D01*
X51665Y-22644D01*
X51671Y-22633D01*
X51682Y-22621D01*
X51699Y-22616D01*
X51711Y-22616D01*
X51728Y-22621D01*
X51733Y-22627D01*
X51773Y-22616D02*
X51853Y-22616D01*
X51802Y-22736D01*
X51916Y-22667D02*
X51905Y-22661D01*
X51899Y-22656D01*
X51893Y-22644D01*
X51893Y-22639D01*
X51899Y-22627D01*
X51905Y-22621D01*
X51916Y-22616D01*
X51939Y-22616D01*
X51951Y-22621D01*
X51956Y-22627D01*
X51962Y-22639D01*
X51962Y-22644D01*
X51956Y-22656D01*
X51951Y-22661D01*
X51939Y-22667D01*
X51916Y-22667D01*
X51905Y-22673D01*
X51899Y-22679D01*
X51893Y-22690D01*
X51893Y-22713D01*
X51899Y-22724D01*
X51905Y-22730D01*
X51916Y-22736D01*
X51939Y-22736D01*
X51951Y-22730D01*
X51956Y-22724D01*
X51962Y-22713D01*
X51962Y-22690D01*
X51956Y-22679D01*
X51951Y-22673D01*
X51939Y-22667D01*
X39351Y-35421D02*
X39346Y-35427D01*
X39329Y-35433D01*
X39317Y-35433D01*
X39300Y-35427D01*
X39289Y-35415D01*
X39283Y-35404D01*
X39277Y-35381D01*
X39277Y-35364D01*
X39283Y-35341D01*
X39289Y-35330D01*
X39300Y-35318D01*
X39317Y-35313D01*
X39329Y-35313D01*
X39346Y-35318D01*
X39351Y-35324D01*
X39454Y-35313D02*
X39431Y-35313D01*
X39420Y-35318D01*
X39414Y-35324D01*
X39403Y-35341D01*
X39397Y-35364D01*
X39397Y-35410D01*
X39403Y-35421D01*
X39409Y-35427D01*
X39420Y-35433D01*
X39443Y-35433D01*
X39454Y-35427D01*
X39460Y-35421D01*
X39466Y-35410D01*
X39466Y-35381D01*
X39460Y-35370D01*
X39454Y-35364D01*
X39443Y-35358D01*
X39420Y-35358D01*
X39409Y-35364D01*
X39403Y-35370D01*
X39397Y-35381D01*
X39569Y-35313D02*
X39546Y-35313D01*
X39534Y-35318D01*
X39529Y-35324D01*
X39517Y-35341D01*
X39511Y-35364D01*
X39511Y-35410D01*
X39517Y-35421D01*
X39523Y-35427D01*
X39534Y-35433D01*
X39557Y-35433D01*
X39569Y-35427D01*
X39574Y-35421D01*
X39580Y-35410D01*
X39580Y-35381D01*
X39574Y-35370D01*
X39569Y-35364D01*
X39557Y-35358D01*
X39534Y-35358D01*
X39523Y-35364D01*
X39517Y-35370D01*
X39511Y-35381D01*
X46927Y-41063D02*
X46919Y-41063D01*
X46903Y-41055D01*
X46894Y-41047D01*
X46886Y-41031D01*
X46886Y-41015D01*
X46890Y-41003D01*
X46903Y-40982D01*
X46915Y-40970D01*
X46935Y-40958D01*
X46947Y-40954D01*
X46963Y-40954D01*
X46979Y-40962D01*
X46987Y-40970D01*
X46995Y-40986D01*
X46995Y-40994D01*
X47080Y-41063D02*
X47040Y-41023D01*
X46995Y-41059D01*
X47004Y-41059D01*
X47016Y-41063D01*
X47036Y-41083D01*
X47040Y-41095D01*
X47040Y-41104D01*
X47036Y-41116D01*
X47016Y-41136D01*
X47004Y-41140D01*
X46995Y-41140D01*
X46983Y-41136D01*
X46963Y-41116D01*
X46959Y-41104D01*
X46959Y-41095D01*
X47040Y-41192D02*
X47056Y-41209D01*
X47068Y-41213D01*
X47076Y-41213D01*
X47096Y-41209D01*
X47117Y-41196D01*
X47149Y-41164D01*
X47153Y-41152D01*
X47153Y-41144D01*
X47149Y-41132D01*
X47133Y-41116D01*
X47121Y-41112D01*
X47113Y-41112D01*
X47101Y-41116D01*
X47080Y-41136D01*
X47076Y-41148D01*
X47076Y-41156D01*
X47080Y-41168D01*
X47096Y-41184D01*
X47109Y-41188D01*
X47117Y-41188D01*
X47129Y-41184D01*
X49863Y-34467D02*
X49858Y-34472D01*
X49840Y-34478D01*
X49829Y-34478D01*
X49812Y-34472D01*
X49800Y-34461D01*
X49795Y-34450D01*
X49789Y-34427D01*
X49789Y-34410D01*
X49795Y-34387D01*
X49800Y-34375D01*
X49812Y-34364D01*
X49829Y-34358D01*
X49840Y-34358D01*
X49858Y-34364D01*
X49863Y-34370D01*
X49966Y-34358D02*
X49943Y-34358D01*
X49932Y-34364D01*
X49926Y-34370D01*
X49915Y-34387D01*
X49909Y-34410D01*
X49909Y-34455D01*
X49915Y-34467D01*
X49920Y-34472D01*
X49932Y-34478D01*
X49955Y-34478D01*
X49966Y-34472D01*
X49972Y-34467D01*
X49978Y-34455D01*
X49978Y-34427D01*
X49972Y-34415D01*
X49966Y-34410D01*
X49955Y-34404D01*
X49932Y-34404D01*
X49920Y-34410D01*
X49915Y-34415D01*
X49909Y-34427D01*
X50052Y-34358D02*
X50063Y-34358D01*
X50075Y-34364D01*
X50080Y-34370D01*
X50086Y-34381D01*
X50092Y-34404D01*
X50092Y-34432D01*
X50086Y-34455D01*
X50080Y-34467D01*
X50075Y-34472D01*
X50063Y-34478D01*
X50052Y-34478D01*
X50040Y-34472D01*
X50035Y-34467D01*
X50029Y-34455D01*
X50023Y-34432D01*
X50023Y-34404D01*
X50029Y-34381D01*
X50035Y-34370D01*
X50040Y-34364D01*
X50052Y-34358D01*
X39529Y-36593D02*
X39523Y-36598D01*
X39506Y-36604D01*
X39494Y-36604D01*
X39477Y-36598D01*
X39466Y-36587D01*
X39460Y-36576D01*
X39454Y-36553D01*
X39454Y-36536D01*
X39460Y-36513D01*
X39466Y-36501D01*
X39477Y-36490D01*
X39494Y-36484D01*
X39506Y-36484D01*
X39523Y-36490D01*
X39529Y-36496D01*
X39637Y-36484D02*
X39580Y-36484D01*
X39574Y-36541D01*
X39580Y-36536D01*
X39592Y-36530D01*
X39620Y-36530D01*
X39632Y-36536D01*
X39637Y-36541D01*
X39643Y-36553D01*
X39643Y-36581D01*
X39637Y-36593D01*
X39632Y-36598D01*
X39620Y-36604D01*
X39592Y-36604D01*
X39580Y-36598D01*
X39574Y-36593D01*
X39712Y-36536D02*
X39700Y-36530D01*
X39694Y-36524D01*
X39689Y-36513D01*
X39689Y-36507D01*
X39694Y-36496D01*
X39700Y-36490D01*
X39712Y-36484D01*
X39734Y-36484D01*
X39746Y-36490D01*
X39752Y-36496D01*
X39757Y-36507D01*
X39757Y-36513D01*
X39752Y-36524D01*
X39746Y-36530D01*
X39734Y-36536D01*
X39712Y-36536D01*
X39700Y-36541D01*
X39694Y-36547D01*
X39689Y-36558D01*
X39689Y-36581D01*
X39694Y-36593D01*
X39700Y-36598D01*
X39712Y-36604D01*
X39734Y-36604D01*
X39746Y-36598D01*
X39752Y-36593D01*
X39757Y-36581D01*
X39757Y-36558D01*
X39752Y-36547D01*
X39746Y-36541D01*
X39734Y-36536D01*
X39536Y-33228D02*
X39528Y-33228D01*
X39512Y-33220D01*
X39504Y-33212D01*
X39496Y-33195D01*
X39496Y-33179D01*
X39500Y-33167D01*
X39512Y-33147D01*
X39524Y-33135D01*
X39544Y-33123D01*
X39556Y-33119D01*
X39573Y-33119D01*
X39589Y-33127D01*
X39597Y-33135D01*
X39605Y-33151D01*
X39605Y-33159D01*
X39686Y-33224D02*
X39670Y-33207D01*
X39657Y-33203D01*
X39649Y-33203D01*
X39629Y-33207D01*
X39609Y-33220D01*
X39577Y-33252D01*
X39573Y-33264D01*
X39573Y-33272D01*
X39577Y-33284D01*
X39593Y-33300D01*
X39605Y-33304D01*
X39613Y-33304D01*
X39625Y-33300D01*
X39645Y-33280D01*
X39649Y-33268D01*
X39649Y-33260D01*
X39645Y-33248D01*
X39629Y-33232D01*
X39617Y-33228D01*
X39609Y-33228D01*
X39597Y-33232D01*
X39690Y-33397D02*
X39641Y-33349D01*
X39666Y-33373D02*
X39750Y-33288D01*
X39730Y-33292D01*
X39714Y-33292D01*
X39702Y-33288D01*
X38157Y-35667D02*
X38163Y-35673D01*
X38169Y-35690D01*
X38169Y-35701D01*
X38163Y-35719D01*
X38152Y-35730D01*
X38140Y-35736D01*
X38117Y-35741D01*
X38100Y-35741D01*
X38077Y-35736D01*
X38066Y-35730D01*
X38054Y-35719D01*
X38049Y-35701D01*
X38049Y-35690D01*
X38054Y-35673D01*
X38060Y-35667D01*
X38049Y-35627D02*
X38049Y-35547D01*
X38169Y-35599D01*
X38049Y-35479D02*
X38049Y-35467D01*
X38054Y-35456D01*
X38060Y-35450D01*
X38072Y-35444D01*
X38094Y-35439D01*
X38123Y-35439D01*
X38146Y-35444D01*
X38157Y-35450D01*
X38163Y-35456D01*
X38169Y-35467D01*
X38169Y-35479D01*
X38163Y-35490D01*
X38157Y-35496D01*
X38146Y-35501D01*
X38123Y-35507D01*
X38094Y-35507D01*
X38072Y-35501D01*
X38060Y-35496D01*
X38054Y-35490D01*
X38049Y-35479D01*
X49863Y-33778D02*
X49858Y-33784D01*
X49840Y-33789D01*
X49829Y-33789D01*
X49812Y-33784D01*
X49800Y-33772D01*
X49795Y-33761D01*
X49789Y-33738D01*
X49789Y-33721D01*
X49795Y-33698D01*
X49800Y-33686D01*
X49812Y-33675D01*
X49829Y-33669D01*
X49840Y-33669D01*
X49858Y-33675D01*
X49863Y-33681D01*
X49972Y-33669D02*
X49915Y-33669D01*
X49909Y-33726D01*
X49915Y-33721D01*
X49926Y-33715D01*
X49955Y-33715D01*
X49966Y-33721D01*
X49972Y-33726D01*
X49978Y-33738D01*
X49978Y-33766D01*
X49972Y-33778D01*
X49966Y-33784D01*
X49955Y-33789D01*
X49926Y-33789D01*
X49915Y-33784D01*
X49909Y-33778D01*
X50080Y-33669D02*
X50058Y-33669D01*
X50046Y-33675D01*
X50040Y-33681D01*
X50029Y-33698D01*
X50023Y-33721D01*
X50023Y-33766D01*
X50029Y-33778D01*
X50035Y-33784D01*
X50046Y-33789D01*
X50069Y-33789D01*
X50080Y-33784D01*
X50086Y-33778D01*
X50092Y-33766D01*
X50092Y-33738D01*
X50086Y-33726D01*
X50080Y-33721D01*
X50069Y-33715D01*
X50046Y-33715D01*
X50035Y-33721D01*
X50029Y-33726D01*
X50023Y-33738D01*
X49863Y-34132D02*
X49858Y-34138D01*
X49840Y-34144D01*
X49829Y-34144D01*
X49812Y-34138D01*
X49800Y-34126D01*
X49795Y-34115D01*
X49789Y-34092D01*
X49789Y-34075D01*
X49795Y-34052D01*
X49800Y-34041D01*
X49812Y-34029D01*
X49829Y-34024D01*
X49840Y-34024D01*
X49858Y-34029D01*
X49863Y-34035D01*
X49966Y-34024D02*
X49943Y-34024D01*
X49932Y-34029D01*
X49926Y-34035D01*
X49915Y-34052D01*
X49909Y-34075D01*
X49909Y-34121D01*
X49915Y-34132D01*
X49920Y-34138D01*
X49932Y-34144D01*
X49955Y-34144D01*
X49966Y-34138D01*
X49972Y-34132D01*
X49978Y-34121D01*
X49978Y-34092D01*
X49972Y-34081D01*
X49966Y-34075D01*
X49955Y-34069D01*
X49932Y-34069D01*
X49920Y-34075D01*
X49915Y-34081D01*
X49909Y-34092D01*
X50046Y-34075D02*
X50035Y-34069D01*
X50029Y-34064D01*
X50023Y-34052D01*
X50023Y-34046D01*
X50029Y-34035D01*
X50035Y-34029D01*
X50046Y-34024D01*
X50069Y-34024D01*
X50080Y-34029D01*
X50086Y-34035D01*
X50092Y-34046D01*
X50092Y-34052D01*
X50086Y-34064D01*
X50080Y-34069D01*
X50069Y-34075D01*
X50046Y-34075D01*
X50035Y-34081D01*
X50029Y-34086D01*
X50023Y-34098D01*
X50023Y-34121D01*
X50029Y-34132D01*
X50035Y-34138D01*
X50046Y-34144D01*
X50069Y-34144D01*
X50080Y-34138D01*
X50086Y-34132D01*
X50092Y-34121D01*
X50092Y-34098D01*
X50086Y-34086D01*
X50080Y-34081D01*
X50069Y-34075D01*
X50513Y-33581D02*
X50507Y-33587D01*
X50490Y-33592D01*
X50479Y-33592D01*
X50461Y-33587D01*
X50450Y-33575D01*
X50444Y-33564D01*
X50439Y-33541D01*
X50439Y-33524D01*
X50444Y-33501D01*
X50450Y-33490D01*
X50461Y-33478D01*
X50479Y-33472D01*
X50490Y-33472D01*
X50507Y-33478D01*
X50513Y-33484D01*
X50616Y-33472D02*
X50593Y-33472D01*
X50581Y-33478D01*
X50576Y-33484D01*
X50564Y-33501D01*
X50559Y-33524D01*
X50559Y-33570D01*
X50564Y-33581D01*
X50570Y-33587D01*
X50581Y-33592D01*
X50604Y-33592D01*
X50616Y-33587D01*
X50621Y-33581D01*
X50627Y-33570D01*
X50627Y-33541D01*
X50621Y-33530D01*
X50616Y-33524D01*
X50604Y-33518D01*
X50581Y-33518D01*
X50570Y-33524D01*
X50564Y-33530D01*
X50559Y-33541D01*
X50684Y-33592D02*
X50707Y-33592D01*
X50719Y-33587D01*
X50724Y-33581D01*
X50736Y-33564D01*
X50741Y-33541D01*
X50741Y-33495D01*
X50736Y-33484D01*
X50730Y-33478D01*
X50719Y-33472D01*
X50696Y-33472D01*
X50684Y-33478D01*
X50679Y-33484D01*
X50673Y-33495D01*
X50673Y-33524D01*
X50679Y-33535D01*
X50684Y-33541D01*
X50696Y-33547D01*
X50719Y-33547D01*
X50730Y-33541D01*
X50736Y-33535D01*
X50741Y-33524D01*
X39547Y-37542D02*
X39542Y-37548D01*
X39525Y-37554D01*
X39513Y-37554D01*
X39496Y-37548D01*
X39485Y-37537D01*
X39479Y-37525D01*
X39473Y-37502D01*
X39473Y-37485D01*
X39479Y-37462D01*
X39485Y-37451D01*
X39496Y-37440D01*
X39513Y-37434D01*
X39525Y-37434D01*
X39542Y-37440D01*
X39547Y-37445D01*
X39656Y-37434D02*
X39599Y-37434D01*
X39593Y-37491D01*
X39599Y-37485D01*
X39610Y-37480D01*
X39639Y-37480D01*
X39650Y-37485D01*
X39656Y-37491D01*
X39662Y-37502D01*
X39662Y-37531D01*
X39656Y-37542D01*
X39650Y-37548D01*
X39639Y-37554D01*
X39610Y-37554D01*
X39599Y-37548D01*
X39593Y-37542D01*
X39707Y-37445D02*
X39713Y-37440D01*
X39725Y-37434D01*
X39753Y-37434D01*
X39765Y-37440D01*
X39770Y-37445D01*
X39776Y-37457D01*
X39776Y-37468D01*
X39770Y-37485D01*
X39702Y-37554D01*
X39776Y-37554D01*
X41142Y-40277D02*
X41148Y-40282D01*
X41154Y-40300D01*
X41154Y-40311D01*
X41148Y-40328D01*
X41137Y-40340D01*
X41125Y-40345D01*
X41102Y-40351D01*
X41085Y-40351D01*
X41062Y-40345D01*
X41051Y-40340D01*
X41040Y-40328D01*
X41034Y-40311D01*
X41034Y-40300D01*
X41040Y-40282D01*
X41045Y-40277D01*
X41074Y-40174D02*
X41154Y-40174D01*
X41028Y-40202D02*
X41114Y-40231D01*
X41114Y-40157D01*
X41074Y-40060D02*
X41154Y-40060D01*
X41028Y-40088D02*
X41114Y-40117D01*
X41114Y-40042D01*
X40392Y-40277D02*
X40398Y-40282D01*
X40404Y-40300D01*
X40404Y-40311D01*
X40398Y-40328D01*
X40387Y-40340D01*
X40375Y-40345D01*
X40352Y-40351D01*
X40335Y-40351D01*
X40312Y-40345D01*
X40301Y-40340D01*
X40290Y-40328D01*
X40284Y-40311D01*
X40284Y-40300D01*
X40290Y-40282D01*
X40295Y-40277D01*
X40324Y-40174D02*
X40404Y-40174D01*
X40278Y-40202D02*
X40364Y-40231D01*
X40364Y-40157D01*
X40284Y-40054D02*
X40284Y-40111D01*
X40341Y-40117D01*
X40335Y-40111D01*
X40330Y-40100D01*
X40330Y-40071D01*
X40335Y-40060D01*
X40341Y-40054D01*
X40352Y-40048D01*
X40381Y-40048D01*
X40392Y-40054D01*
X40398Y-40060D01*
X40404Y-40071D01*
X40404Y-40100D01*
X40398Y-40111D01*
X40392Y-40117D01*
X40542Y-40977D02*
X40548Y-40982D01*
X40554Y-41000D01*
X40554Y-41011D01*
X40548Y-41028D01*
X40537Y-41040D01*
X40525Y-41045D01*
X40502Y-41051D01*
X40485Y-41051D01*
X40462Y-41045D01*
X40451Y-41040D01*
X40440Y-41028D01*
X40434Y-41011D01*
X40434Y-41000D01*
X40440Y-40982D01*
X40445Y-40977D01*
X40474Y-40874D02*
X40554Y-40874D01*
X40428Y-40902D02*
X40514Y-40931D01*
X40514Y-40857D01*
X40434Y-40760D02*
X40434Y-40782D01*
X40440Y-40794D01*
X40445Y-40800D01*
X40462Y-40811D01*
X40485Y-40817D01*
X40531Y-40817D01*
X40542Y-40811D01*
X40548Y-40805D01*
X40554Y-40794D01*
X40554Y-40771D01*
X40548Y-40760D01*
X40542Y-40754D01*
X40531Y-40748D01*
X40502Y-40748D01*
X40491Y-40754D01*
X40485Y-40760D01*
X40480Y-40771D01*
X40480Y-40794D01*
X40485Y-40805D01*
X40491Y-40811D01*
X40502Y-40817D01*
X39509Y-36464D02*
X39503Y-36470D01*
X39486Y-36476D01*
X39475Y-36476D01*
X39458Y-36470D01*
X39446Y-36459D01*
X39440Y-36447D01*
X39435Y-36424D01*
X39435Y-36407D01*
X39440Y-36384D01*
X39446Y-36373D01*
X39458Y-36362D01*
X39475Y-36356D01*
X39486Y-36356D01*
X39503Y-36362D01*
X39509Y-36367D01*
X39612Y-36396D02*
X39612Y-36476D01*
X39583Y-36350D02*
X39555Y-36436D01*
X39629Y-36436D01*
X39692Y-36407D02*
X39680Y-36402D01*
X39675Y-36396D01*
X39669Y-36384D01*
X39669Y-36379D01*
X39675Y-36367D01*
X39680Y-36362D01*
X39692Y-36356D01*
X39715Y-36356D01*
X39726Y-36362D01*
X39732Y-36367D01*
X39738Y-36379D01*
X39738Y-36384D01*
X39732Y-36396D01*
X39726Y-36402D01*
X39715Y-36407D01*
X39692Y-36407D01*
X39680Y-36413D01*
X39675Y-36419D01*
X39669Y-36430D01*
X39669Y-36453D01*
X39675Y-36464D01*
X39680Y-36470D01*
X39692Y-36476D01*
X39715Y-36476D01*
X39726Y-36470D01*
X39732Y-36464D01*
X39738Y-36453D01*
X39738Y-36430D01*
X39732Y-36419D01*
X39726Y-36413D01*
X39715Y-36407D01*
X44467Y-40995D02*
X44473Y-41000D01*
X44479Y-41017D01*
X44479Y-41029D01*
X44473Y-41046D01*
X44462Y-41057D01*
X44450Y-41063D01*
X44427Y-41069D01*
X44410Y-41069D01*
X44387Y-41063D01*
X44376Y-41057D01*
X44365Y-41046D01*
X44359Y-41029D01*
X44359Y-41017D01*
X44365Y-41000D01*
X44370Y-40995D01*
X44399Y-40892D02*
X44479Y-40892D01*
X44353Y-40920D02*
X44439Y-40949D01*
X44439Y-40875D01*
X50168Y-38478D02*
X50160Y-38478D01*
X50144Y-38470D01*
X50136Y-38462D01*
X50128Y-38445D01*
X50128Y-38429D01*
X50132Y-38417D01*
X50144Y-38397D01*
X50156Y-38385D01*
X50176Y-38373D01*
X50188Y-38369D01*
X50204Y-38369D01*
X50220Y-38377D01*
X50229Y-38385D01*
X50237Y-38401D01*
X50237Y-38409D01*
X50273Y-38429D02*
X50330Y-38486D01*
X50208Y-38534D01*
X41003Y-40994D02*
X41003Y-41002D01*
X40995Y-41019D01*
X40987Y-41027D01*
X40971Y-41035D01*
X40955Y-41035D01*
X40943Y-41031D01*
X40922Y-41019D01*
X40910Y-41006D01*
X40898Y-40986D01*
X40894Y-40974D01*
X40894Y-40958D01*
X40902Y-40942D01*
X40910Y-40934D01*
X40927Y-40926D01*
X40935Y-40926D01*
X40999Y-40845D02*
X40983Y-40861D01*
X40979Y-40873D01*
X40979Y-40881D01*
X40983Y-40901D01*
X40995Y-40922D01*
X41028Y-40954D01*
X41040Y-40958D01*
X41048Y-40958D01*
X41060Y-40954D01*
X41076Y-40938D01*
X41080Y-40926D01*
X41080Y-40917D01*
X41076Y-40905D01*
X41056Y-40885D01*
X41044Y-40881D01*
X41036Y-40881D01*
X41023Y-40885D01*
X41007Y-40901D01*
X41003Y-40913D01*
X41003Y-40922D01*
X41007Y-40934D01*
X41036Y-40808D02*
X41092Y-40752D01*
X41141Y-40873D01*
X43049Y-41022D02*
X43055Y-41027D01*
X43061Y-41044D01*
X43061Y-41056D01*
X43055Y-41073D01*
X43044Y-41084D01*
X43032Y-41090D01*
X43009Y-41096D01*
X42992Y-41096D01*
X42969Y-41090D01*
X42958Y-41084D01*
X42947Y-41073D01*
X42941Y-41056D01*
X42941Y-41044D01*
X42947Y-41027D01*
X42952Y-41022D01*
X42941Y-40913D02*
X42941Y-40970D01*
X42998Y-40976D01*
X42992Y-40970D01*
X42987Y-40959D01*
X42987Y-40930D01*
X42992Y-40919D01*
X42998Y-40913D01*
X43009Y-40907D01*
X43038Y-40907D01*
X43049Y-40913D01*
X43055Y-40919D01*
X43061Y-40930D01*
X43061Y-40959D01*
X43055Y-40970D01*
X43049Y-40976D01*
X42941Y-40799D02*
X42941Y-40856D01*
X42998Y-40862D01*
X42992Y-40856D01*
X42987Y-40844D01*
X42987Y-40816D01*
X42992Y-40804D01*
X42998Y-40799D01*
X43009Y-40793D01*
X43038Y-40793D01*
X43049Y-40799D01*
X43055Y-40804D01*
X43061Y-40816D01*
X43061Y-40844D01*
X43055Y-40856D01*
X43049Y-40862D01*
X43138Y-41022D02*
X43143Y-41027D01*
X43149Y-41044D01*
X43149Y-41056D01*
X43143Y-41073D01*
X43132Y-41084D01*
X43120Y-41090D01*
X43098Y-41096D01*
X43080Y-41096D01*
X43058Y-41090D01*
X43046Y-41084D01*
X43035Y-41073D01*
X43029Y-41056D01*
X43029Y-41044D01*
X43035Y-41027D01*
X43040Y-41022D01*
X43069Y-40919D02*
X43149Y-40919D01*
X43023Y-40947D02*
X43109Y-40976D01*
X43109Y-40902D01*
X43029Y-40867D02*
X43029Y-40787D01*
X43149Y-40839D01*
G54D23*
X40891Y-46054D02*
X41174Y-46054D01*
X41207Y-46037D01*
X41224Y-46020D01*
X41241Y-45987D01*
X41241Y-45920D01*
X41224Y-45887D01*
X41207Y-45870D01*
X41174Y-45854D01*
X40891Y-45854D01*
X40891Y-45720D02*
X40891Y-45504D01*
X41024Y-45620D01*
X41024Y-45570D01*
X41041Y-45537D01*
X41057Y-45520D01*
X41091Y-45504D01*
X41174Y-45504D01*
X41207Y-45520D01*
X41224Y-45537D01*
X41241Y-45570D01*
X41241Y-45670D01*
X41224Y-45704D01*
X41207Y-45720D01*
G54D18*
G54D23*
X45615Y-46054D02*
X45898Y-46054D01*
X45932Y-46037D01*
X45948Y-46020D01*
X45965Y-45987D01*
X45965Y-45920D01*
X45948Y-45887D01*
X45932Y-45870D01*
X45898Y-45854D01*
X45615Y-45854D01*
X45732Y-45537D02*
X45965Y-45537D01*
X45598Y-45620D02*
X45848Y-45704D01*
X45848Y-45487D01*
G54D18*
G54D11*
X47441Y-55079D02*
X47441Y-54685D01*
X47591Y-54685D01*
X47629Y-54704D01*
X47647Y-54723D01*
X47666Y-54760D01*
X47666Y-54817D01*
X47647Y-54854D01*
X47629Y-54873D01*
X47591Y-54892D01*
X47441Y-54892D01*
X48022Y-54685D02*
X47835Y-54685D01*
X47816Y-54873D01*
X47835Y-54854D01*
X47872Y-54835D01*
X47966Y-54835D01*
X48004Y-54854D01*
X48022Y-54873D01*
X48041Y-54910D01*
X48041Y-55004D01*
X48022Y-55042D01*
X48004Y-55060D01*
X47966Y-55079D01*
X47872Y-55079D01*
X47835Y-55060D01*
X47816Y-55042D01*
X53170Y-26979D02*
X52776Y-26979D01*
X52776Y-26829D01*
X52795Y-26792D01*
X52814Y-26773D01*
X52851Y-26754D01*
X52907Y-26754D01*
X52945Y-26773D01*
X52964Y-26792D01*
X52982Y-26829D01*
X52982Y-26979D01*
X52907Y-26417D02*
X53170Y-26417D01*
X52757Y-26510D02*
X53038Y-26604D01*
X53038Y-26360D01*
X37520Y-20985D02*
X37520Y-20591D01*
X37670Y-20591D01*
X37707Y-20610D01*
X37726Y-20628D01*
X37745Y-20666D01*
X37745Y-20722D01*
X37726Y-20760D01*
X37707Y-20778D01*
X37670Y-20797D01*
X37520Y-20797D01*
X37876Y-20591D02*
X38120Y-20591D01*
X37989Y-20741D01*
X38045Y-20741D01*
X38082Y-20760D01*
X38101Y-20778D01*
X38120Y-20816D01*
X38120Y-20910D01*
X38101Y-20947D01*
X38082Y-20966D01*
X38045Y-20985D01*
X37932Y-20985D01*
X37895Y-20966D01*
X37876Y-20947D01*
X35256Y-24302D02*
X34863Y-24302D01*
X34863Y-24152D01*
X34881Y-24114D01*
X34900Y-24096D01*
X34938Y-24077D01*
X34994Y-24077D01*
X35031Y-24096D01*
X35050Y-24114D01*
X35069Y-24152D01*
X35069Y-24302D01*
X34900Y-23927D02*
X34881Y-23908D01*
X34863Y-23871D01*
X34863Y-23777D01*
X34881Y-23739D01*
X34900Y-23721D01*
X34938Y-23702D01*
X34975Y-23702D01*
X35031Y-23721D01*
X35256Y-23946D01*
X35256Y-23702D01*
X48256Y-20729D02*
X48256Y-20335D01*
X48406Y-20335D01*
X48444Y-20354D01*
X48462Y-20373D01*
X48481Y-20410D01*
X48481Y-20466D01*
X48462Y-20504D01*
X48444Y-20523D01*
X48406Y-20541D01*
X48256Y-20541D01*
X48856Y-20729D02*
X48631Y-20729D01*
X48744Y-20729D02*
X48744Y-20335D01*
X48706Y-20391D01*
X48669Y-20429D01*
X48631Y-20448D01*
X50926Y-29590D02*
X51319Y-29327D01*
X50926Y-29327D02*
X51319Y-29590D01*
X51319Y-28971D02*
X51319Y-29196D01*
X51319Y-29084D02*
X50926Y-29084D01*
X50982Y-29121D01*
X51019Y-29159D01*
X51038Y-29196D01*
G54D12*
X48540Y-22880D02*
X48783Y-22880D01*
X48811Y-22866D01*
X48826Y-22851D01*
X48840Y-22823D01*
X48840Y-22766D01*
X48826Y-22737D01*
X48811Y-22723D01*
X48783Y-22709D01*
X48540Y-22709D01*
X48540Y-22423D02*
X48540Y-22566D01*
X48683Y-22580D01*
X48669Y-22566D01*
X48654Y-22537D01*
X48654Y-22466D01*
X48669Y-22437D01*
X48683Y-22423D01*
X48711Y-22409D01*
X48783Y-22409D01*
X48811Y-22423D01*
X48826Y-22437D01*
X48840Y-22466D01*
X48840Y-22537D01*
X48826Y-22566D01*
X48811Y-22580D01*
M02*
