G04 (created by PCBNEW (2013-04-12 BZR 4023)-testing) date Втр 16 Апр 2013 04:22:38*
%MOIN*%
G04 Gerber Fmt 3.4, Leading zero omitted, Abs format*
%FSLAX34Y34*%
G01*
G70*
G90*
G04 APERTURE LIST*
%ADD10C,0.006*%
%ADD11R,0.0859X0.2362*%
%ADD12R,0.016X0.2362*%
%ADD13R,0.0314961X0.0393701*%
%ADD14R,0.0393701X0.0314961*%
%ADD15C,0.0748031*%
%ADD16R,0.0748031X0.0255906*%
%ADD17R,0.0255906X0.0748031*%
%ADD18R,0.0255906X0.0255906*%
%ADD19C,0.023622*%
%ADD20C,0.0393701*%
%ADD21C,0.015748*%
%ADD22C,0.00590551*%
%ADD23C,0.00787402*%
%ADD24C,0.0787402*%
%ADD25C,0.01*%
G04 APERTURE END LIST*
G54D10*
G54D11*
X44685Y-35826D03*
G54D12*
X43662Y-36219D03*
X43977Y-36219D03*
X44292Y-36849D03*
X44292Y-36534D03*
X45078Y-36849D03*
X45078Y-36534D03*
X45708Y-36219D03*
X45393Y-36219D03*
X43662Y-35433D03*
X43977Y-35433D03*
X45708Y-35433D03*
X45393Y-35433D03*
X44292Y-34803D03*
X44292Y-35118D03*
X45078Y-34803D03*
X45078Y-35118D03*
G54D13*
X52482Y-55151D03*
X52232Y-54401D03*
X51732Y-55151D03*
X51482Y-54401D03*
X50982Y-55151D03*
X50732Y-54401D03*
X50232Y-55151D03*
X49982Y-54401D03*
X49482Y-55151D03*
X49232Y-54401D03*
X48732Y-55151D03*
X48482Y-54401D03*
X47982Y-55151D03*
X47732Y-54401D03*
X47232Y-55151D03*
X46982Y-54401D03*
X46482Y-55151D03*
X46232Y-54401D03*
X45732Y-55151D03*
X45482Y-54401D03*
G54D14*
X52742Y-31438D03*
X53492Y-31188D03*
X52742Y-30688D03*
X53492Y-30438D03*
X52742Y-29938D03*
X53492Y-29688D03*
X52742Y-29188D03*
X53492Y-28938D03*
X52742Y-28438D03*
X53492Y-28188D03*
X52742Y-27688D03*
X53492Y-27438D03*
X52742Y-26938D03*
X53492Y-26688D03*
X52742Y-26188D03*
X53492Y-25938D03*
X52742Y-25438D03*
X53492Y-25188D03*
X52742Y-24688D03*
X53492Y-24438D03*
G54D13*
X42561Y-21057D03*
X42311Y-20307D03*
X41811Y-21057D03*
X41561Y-20307D03*
X41061Y-21057D03*
X40811Y-20307D03*
X40311Y-21057D03*
X40061Y-20307D03*
X39561Y-21057D03*
X39311Y-20307D03*
X38811Y-21057D03*
X38561Y-20307D03*
X38061Y-21057D03*
X37811Y-20307D03*
X37311Y-21057D03*
X37061Y-20307D03*
X36561Y-21057D03*
X36311Y-20307D03*
X35811Y-21057D03*
X35561Y-20307D03*
G54D14*
X34828Y-28761D03*
X35578Y-28511D03*
X34828Y-28011D03*
X35578Y-27761D03*
X34828Y-27261D03*
X35578Y-27011D03*
X34828Y-26511D03*
X35578Y-26261D03*
X34828Y-25761D03*
X35578Y-25511D03*
X34828Y-25011D03*
X35578Y-24761D03*
X34828Y-24261D03*
X35578Y-24011D03*
X34828Y-23511D03*
X35578Y-23261D03*
X34828Y-22761D03*
X35578Y-22511D03*
X34828Y-22011D03*
X35578Y-21761D03*
G54D13*
X43797Y-20301D03*
X44047Y-21051D03*
X44547Y-20301D03*
X44797Y-21051D03*
X45297Y-20301D03*
X45547Y-21051D03*
X46047Y-20301D03*
X46297Y-21051D03*
X46797Y-20301D03*
X47047Y-21051D03*
X47547Y-20301D03*
X47797Y-21051D03*
X48297Y-20301D03*
X48547Y-21051D03*
X49047Y-20301D03*
X49297Y-21051D03*
X49797Y-20301D03*
X50047Y-21051D03*
X50547Y-20301D03*
X50797Y-21051D03*
G54D15*
X47204Y-24251D03*
G54D16*
X47204Y-23801D03*
X47204Y-23551D03*
X47204Y-24701D03*
X47204Y-24951D03*
G54D17*
X47704Y-24251D03*
X47954Y-24251D03*
X46704Y-24251D03*
X46454Y-24251D03*
G54D18*
X46704Y-24751D03*
X46704Y-23751D03*
X47704Y-23751D03*
X47704Y-24751D03*
G54D19*
X41692Y-40708D03*
X48011Y-34212D03*
X46437Y-32381D03*
X46948Y-32460D03*
X37007Y-34842D03*
X42755Y-38602D03*
X41909Y-37165D03*
X37066Y-49547D03*
X36653Y-45866D03*
X36712Y-39665D03*
X41259Y-37145D03*
X43523Y-22322D03*
X47401Y-40698D03*
X44271Y-41948D03*
X44645Y-41909D03*
X47696Y-40807D03*
X45137Y-42618D03*
X48300Y-40200D03*
X44783Y-42185D03*
X47992Y-40748D03*
X45511Y-39527D03*
X43287Y-41968D03*
X46122Y-38976D03*
X43602Y-41968D03*
X45944Y-40787D03*
X43937Y-41948D03*
X44409Y-50177D03*
X48366Y-50177D03*
X50649Y-47066D03*
X44507Y-47854D03*
X44429Y-46259D03*
X49271Y-46397D03*
X48464Y-48582D03*
X44645Y-48582D03*
X50551Y-45866D03*
X44409Y-46948D03*
X45039Y-51062D03*
X48818Y-51062D03*
X48248Y-48799D03*
X44409Y-48799D03*
X44744Y-50610D03*
X48582Y-50610D03*
X45039Y-50393D03*
X48799Y-50393D03*
X44566Y-47421D03*
X50374Y-47244D03*
X48346Y-50826D03*
X44448Y-50826D03*
X50944Y-46929D03*
X44901Y-48070D03*
X45078Y-51771D03*
X48897Y-51771D03*
X44901Y-48366D03*
X48700Y-48366D03*
X44803Y-51299D03*
X48622Y-51299D03*
X48562Y-49940D03*
X44685Y-49940D03*
X50334Y-45610D03*
X44822Y-46574D03*
X48799Y-49724D03*
X44980Y-49724D03*
X48503Y-49251D03*
X44665Y-49251D03*
X47775Y-44842D03*
X42874Y-45039D03*
X44547Y-45964D03*
X49271Y-45885D03*
X42913Y-45393D03*
X47598Y-45137D03*
X53287Y-43877D03*
X41259Y-45944D03*
X45807Y-45413D03*
X48740Y-49035D03*
X44921Y-49035D03*
X48425Y-51535D03*
X44566Y-51535D03*
X48287Y-49507D03*
X44448Y-49507D03*
X38385Y-36673D03*
X41358Y-35846D03*
X48759Y-26968D03*
X42972Y-26574D03*
X42992Y-27696D03*
X41161Y-37657D03*
X41220Y-38444D03*
X41200Y-38051D03*
X47263Y-30295D03*
X50098Y-25748D03*
X47736Y-32244D03*
X46791Y-34803D03*
X47204Y-38523D03*
X47657Y-35649D03*
X41692Y-34862D03*
X47657Y-34862D03*
X45354Y-30866D03*
X44940Y-32204D03*
X41200Y-22598D03*
X46870Y-22578D03*
X40728Y-22401D03*
X47165Y-22145D03*
X40531Y-26496D03*
X42696Y-25984D03*
X43070Y-21948D03*
X35610Y-47125D03*
X35669Y-49783D03*
X43208Y-53562D03*
X50374Y-26220D03*
X45157Y-29566D03*
X40531Y-22716D03*
X40177Y-24901D03*
X45393Y-42795D03*
X38208Y-36220D03*
X39094Y-36122D03*
X42755Y-20334D03*
X43110Y-22539D03*
X49685Y-22933D03*
X48937Y-29330D03*
X47263Y-21692D03*
X51240Y-20492D03*
X51771Y-23562D03*
X53208Y-20433D03*
X51161Y-30413D03*
X51653Y-29271D03*
X41102Y-28582D03*
X45964Y-26948D03*
X47696Y-25925D03*
X48937Y-24763D03*
X51200Y-31161D03*
X48346Y-31397D03*
X47440Y-43149D03*
X43720Y-43622D03*
X44468Y-43622D03*
X50413Y-45137D03*
X44704Y-44488D03*
X48208Y-28681D03*
X50236Y-44468D03*
X41200Y-42550D03*
X37342Y-34488D03*
X43248Y-35846D03*
X50708Y-38720D03*
X52244Y-37696D03*
X35511Y-34704D03*
X38897Y-32952D03*
X44547Y-41476D03*
X42204Y-41594D03*
X48562Y-41515D03*
X39881Y-41397D03*
X40925Y-41437D03*
X41003Y-44744D03*
X41633Y-43681D03*
X39173Y-47559D03*
X40570Y-47440D03*
X44842Y-46259D03*
X44724Y-47007D03*
X45944Y-47893D03*
X46377Y-43405D03*
X47854Y-45531D03*
X50078Y-47244D03*
X49133Y-47933D03*
X49429Y-33897D03*
X46023Y-30216D03*
X39862Y-55354D03*
X37480Y-55059D03*
X37421Y-53779D03*
X39665Y-49901D03*
X39114Y-51358D03*
X35944Y-50236D03*
X35748Y-49173D03*
X36850Y-39960D03*
X37027Y-45846D03*
X44763Y-45236D03*
X49271Y-44429D03*
X41456Y-48248D03*
X41259Y-46240D03*
X45905Y-44822D03*
X49192Y-44862D03*
X52600Y-33500D03*
X48100Y-33850D03*
X52874Y-34921D03*
X47204Y-35137D03*
X47755Y-33700D03*
X40610Y-28543D03*
X40354Y-27578D03*
X49074Y-22480D03*
X45688Y-25551D03*
X40511Y-23720D03*
X48858Y-25433D03*
X47244Y-25905D03*
X46003Y-26200D03*
X45472Y-23464D03*
X45649Y-22637D03*
X45531Y-24547D03*
X42913Y-54035D03*
X35374Y-52224D03*
X52342Y-24153D03*
X50590Y-22972D03*
X48405Y-25944D03*
X51318Y-21161D03*
X51220Y-32637D03*
X51358Y-20846D03*
X52440Y-21653D03*
X50196Y-21791D03*
X47185Y-20374D03*
X35196Y-35000D03*
X35236Y-36377D03*
X51417Y-32362D03*
X49685Y-33641D03*
X37972Y-34901D03*
X47047Y-33484D03*
X44153Y-39074D03*
X42303Y-41161D03*
X51535Y-34153D03*
X48248Y-33248D03*
X51496Y-22933D03*
X49251Y-22893D03*
X48622Y-22696D03*
X49803Y-22027D03*
X47421Y-33011D03*
X50728Y-24094D03*
X52145Y-25492D03*
X48858Y-32086D03*
X52263Y-22952D03*
X53070Y-25078D03*
X43031Y-45925D03*
X40433Y-43976D03*
X45511Y-48149D03*
X45354Y-45295D03*
X45669Y-43070D03*
X43129Y-46240D03*
X40748Y-46555D03*
X47293Y-45442D03*
X45728Y-47204D03*
X39724Y-26968D03*
X42775Y-28720D03*
X43149Y-25905D03*
X38385Y-42362D03*
X36712Y-41259D03*
X36515Y-40413D03*
X35629Y-39940D03*
X36161Y-32893D03*
X39330Y-47933D03*
X41909Y-39311D03*
X42913Y-33700D03*
X39527Y-46358D03*
X43562Y-33562D03*
X45492Y-32992D03*
X45314Y-32460D03*
X41220Y-36751D03*
X41003Y-36496D03*
X45807Y-32972D03*
X45748Y-32677D03*
X45078Y-32657D03*
X44783Y-32736D03*
X42755Y-30708D03*
X42460Y-30807D03*
X44488Y-32736D03*
X44192Y-32736D03*
X43838Y-32716D03*
X43562Y-32578D03*
X43228Y-32500D03*
X43582Y-31082D03*
X43307Y-30885D03*
X43051Y-30708D03*
X43228Y-39074D03*
X43622Y-39291D03*
X43681Y-38976D03*
X42992Y-39311D03*
X52007Y-21673D03*
X51161Y-22972D03*
X46811Y-25944D03*
X52007Y-21240D03*
X46338Y-25964D03*
X50177Y-22440D03*
X39960Y-27185D03*
X37086Y-40748D03*
X38326Y-41456D03*
X42263Y-49842D03*
X38858Y-44606D03*
X41338Y-29448D03*
X37913Y-36181D03*
X35452Y-35767D03*
X35196Y-39704D03*
X36515Y-40000D03*
X36909Y-41023D03*
X38700Y-42362D03*
X39625Y-47755D03*
X36515Y-36496D03*
X46870Y-55295D03*
X40866Y-26535D03*
X40688Y-27185D03*
X45157Y-26850D03*
X46397Y-26279D03*
X44507Y-39015D03*
X43759Y-40688D03*
X48051Y-32460D03*
X51240Y-32106D03*
X51574Y-28031D03*
X50374Y-30472D03*
X50216Y-29173D03*
X52125Y-29665D03*
X46003Y-27244D03*
X45314Y-29114D03*
X46318Y-33956D03*
X45511Y-29448D03*
X46692Y-27618D03*
X46555Y-34429D03*
X45177Y-27145D03*
X40098Y-26220D03*
X46791Y-26299D03*
X51574Y-23248D03*
X43661Y-20708D03*
X47480Y-22165D03*
X40551Y-45118D03*
X37800Y-54800D03*
X34850Y-53700D03*
X40964Y-49114D03*
X49114Y-45334D03*
X47933Y-44547D03*
X41929Y-43582D03*
X41200Y-44271D03*
X42519Y-45275D03*
X43031Y-44724D03*
X44153Y-43169D03*
X50255Y-46653D03*
X49429Y-47637D03*
X45850Y-47500D03*
X38681Y-54645D03*
X41003Y-47854D03*
X44803Y-44921D03*
X41100Y-46500D03*
X41279Y-45649D03*
X45964Y-43602D03*
X45950Y-46900D03*
X48850Y-43650D03*
X46673Y-43740D03*
X47900Y-39550D03*
X44800Y-39550D03*
X45900Y-39550D03*
X48300Y-37950D03*
X48250Y-36550D03*
X37463Y-54570D03*
X39163Y-52770D03*
X34862Y-53070D03*
X46909Y-29311D03*
X48700Y-25748D03*
X49665Y-33287D03*
X36751Y-52775D03*
X48641Y-22224D03*
X45177Y-23779D03*
X52263Y-23562D03*
X52303Y-20885D03*
G54D20*
X37480Y-40098D02*
X38090Y-40708D01*
X38090Y-40708D02*
X41692Y-40708D01*
G54D21*
X52938Y-33366D02*
X52938Y-31635D01*
X52938Y-31635D02*
X52742Y-31438D01*
G54D20*
X37145Y-39665D02*
X37145Y-39625D01*
X36653Y-45590D02*
X37204Y-45039D01*
X37204Y-45039D02*
X37480Y-45039D01*
X37480Y-40000D02*
X37480Y-40098D01*
X37480Y-40098D02*
X37480Y-45039D01*
X37145Y-39665D02*
X37480Y-40000D01*
G54D21*
X36653Y-45866D02*
X36653Y-45590D01*
G54D20*
X37145Y-39625D02*
X36948Y-39429D01*
G54D21*
X48011Y-34212D02*
X50669Y-34212D01*
X52938Y-33655D02*
X52938Y-33366D01*
X52938Y-33366D02*
X52938Y-33364D01*
X52086Y-34507D02*
X52938Y-33655D01*
X50964Y-34507D02*
X52086Y-34507D01*
X50669Y-34212D02*
X50964Y-34507D01*
G54D22*
X48011Y-34212D02*
X47874Y-34212D01*
G54D21*
X47283Y-32460D02*
X46948Y-32460D01*
X47736Y-32913D02*
X47283Y-32460D01*
X47736Y-33188D02*
X47736Y-32913D01*
X47460Y-33464D02*
X47736Y-33188D01*
X47460Y-33799D02*
X47460Y-33464D01*
X47874Y-34212D02*
X47460Y-33799D01*
X46437Y-32381D02*
X46948Y-32460D01*
G54D20*
X37007Y-34842D02*
X37007Y-36437D01*
X37007Y-36437D02*
X38474Y-37903D01*
G54D22*
X41909Y-37165D02*
X42519Y-37165D01*
X42755Y-37401D02*
X42755Y-38602D01*
X42519Y-37165D02*
X42755Y-37401D01*
X41259Y-37145D02*
X41889Y-37145D01*
X41889Y-37145D02*
X41909Y-37165D01*
G54D20*
X36653Y-45866D02*
X36653Y-49133D01*
G54D22*
X36653Y-49133D02*
X37066Y-49547D01*
G54D21*
X36712Y-39665D02*
X36948Y-39429D01*
G54D20*
X36948Y-39429D02*
X38474Y-37903D01*
G54D22*
X49350Y-21338D02*
X50509Y-21338D01*
X49311Y-21377D02*
X49350Y-21338D01*
X48622Y-21909D02*
X48622Y-21850D01*
X48110Y-22421D02*
X48622Y-21909D01*
X46574Y-22933D02*
X47972Y-22933D01*
X47972Y-22933D02*
X48110Y-22795D01*
X48110Y-22795D02*
X48110Y-22421D01*
X48622Y-21850D02*
X49094Y-21377D01*
X49094Y-21377D02*
X49311Y-21377D01*
X50509Y-21338D02*
X50797Y-21051D01*
X46181Y-22204D02*
X46181Y-22539D01*
X45236Y-22322D02*
X45354Y-22204D01*
X45354Y-22204D02*
X46181Y-22204D01*
X43523Y-22322D02*
X45236Y-22322D01*
X46181Y-22539D02*
X46574Y-22933D01*
X46574Y-22933D02*
X46555Y-22913D01*
G54D20*
X43138Y-26476D02*
X45570Y-26456D01*
X45570Y-26456D02*
X45570Y-27519D01*
X46181Y-28129D02*
X48661Y-28129D01*
X48661Y-28129D02*
X48759Y-28031D01*
X48759Y-28031D02*
X48759Y-26968D01*
X42972Y-26574D02*
X43138Y-26476D01*
X45570Y-27519D02*
X46181Y-28129D01*
X42244Y-28661D02*
X42992Y-27696D01*
X41161Y-37657D02*
X41023Y-37519D01*
X40472Y-31929D02*
X42244Y-30157D01*
X40472Y-37303D02*
X40472Y-31929D01*
X40688Y-37519D02*
X40472Y-37303D01*
X41023Y-37519D02*
X40688Y-37519D01*
X42244Y-30157D02*
X42244Y-28661D01*
G54D21*
X47263Y-30295D02*
X46555Y-30295D01*
X45984Y-30866D02*
X45354Y-30866D01*
X46555Y-30295D02*
X45984Y-30866D01*
G54D22*
X46791Y-34803D02*
X46791Y-34685D01*
G54D20*
X47204Y-38523D02*
X47204Y-36102D01*
X47204Y-36102D02*
X47657Y-35649D01*
X41220Y-21594D02*
X41220Y-22578D01*
X41220Y-22578D02*
X41200Y-22598D01*
X46870Y-22578D02*
X46870Y-22401D01*
X39561Y-21568D02*
X39561Y-21057D01*
X39586Y-21594D02*
X39561Y-21568D01*
X42874Y-21594D02*
X41220Y-21594D01*
X41220Y-21594D02*
X39586Y-21594D01*
X43011Y-21456D02*
X42874Y-21594D01*
X43188Y-21456D02*
X43011Y-21456D01*
X43346Y-21614D02*
X43188Y-21456D01*
X46082Y-21614D02*
X43346Y-21614D01*
X46870Y-22401D02*
X46082Y-21614D01*
X35590Y-51417D02*
X35590Y-52007D01*
G54D21*
X40610Y-28838D02*
X40610Y-28543D01*
G54D20*
X37637Y-31811D02*
X40610Y-28838D01*
X37637Y-33070D02*
X37637Y-31811D01*
X35866Y-34842D02*
X37637Y-33070D01*
X35866Y-36476D02*
X35866Y-34842D01*
X36496Y-37106D02*
X35866Y-36476D01*
X36496Y-38700D02*
X36496Y-37106D01*
X36023Y-39173D02*
X36496Y-38700D01*
X36023Y-45216D02*
X36023Y-39173D01*
G54D21*
X36122Y-45314D02*
X36023Y-45216D01*
X36122Y-49370D02*
X36122Y-45314D01*
G54D20*
X36417Y-49665D02*
X36122Y-49370D01*
X36417Y-50314D02*
X36417Y-49665D01*
X35590Y-51141D02*
X36417Y-50314D01*
X35590Y-51417D02*
X35590Y-51141D01*
X35590Y-52007D02*
X35374Y-52224D01*
X39704Y-24094D02*
X39665Y-24094D01*
X40511Y-23720D02*
X40078Y-23720D01*
X39704Y-24094D02*
X40078Y-23720D01*
X39251Y-24507D02*
X39251Y-26417D01*
X39665Y-24094D02*
X39251Y-24507D01*
X39251Y-26417D02*
X39212Y-26456D01*
X39212Y-26456D02*
X39212Y-27342D01*
X39212Y-27342D02*
X39448Y-27578D01*
X39448Y-27578D02*
X40354Y-27578D01*
X47893Y-53366D02*
X48482Y-53954D01*
G54D21*
X52742Y-29938D02*
X52661Y-30019D01*
X49153Y-25433D02*
X48858Y-25433D01*
G54D20*
X49921Y-26200D02*
X49153Y-25433D01*
G54D21*
X49921Y-29350D02*
X49921Y-26200D01*
X50137Y-29566D02*
X49921Y-29350D01*
X50177Y-29566D02*
X50137Y-29566D01*
G54D20*
X50177Y-30019D02*
X50177Y-29566D01*
G54D21*
X52661Y-30019D02*
X50177Y-30019D01*
G54D22*
X45688Y-25551D02*
X45688Y-24704D01*
X45688Y-24704D02*
X45531Y-24547D01*
G54D20*
X43818Y-22637D02*
X42736Y-23720D01*
X43818Y-22637D02*
X45649Y-22637D01*
X42736Y-23720D02*
X40511Y-23720D01*
G54D22*
X47204Y-25492D02*
X47263Y-25433D01*
X47263Y-25433D02*
X48858Y-25433D01*
X45885Y-26043D02*
X46456Y-25472D01*
X47204Y-25866D02*
X47244Y-25905D01*
X47204Y-25472D02*
X47204Y-25492D01*
X47204Y-25492D02*
X47204Y-25866D01*
X46456Y-25472D02*
X47204Y-25472D01*
G54D20*
X45531Y-24547D02*
X45531Y-25748D01*
X45964Y-26200D02*
X45964Y-26161D01*
X45531Y-25748D02*
X45925Y-26141D01*
X45964Y-26161D02*
X46003Y-26200D01*
G54D21*
X45531Y-24547D02*
X45531Y-22755D01*
G54D20*
X45531Y-22755D02*
X45649Y-22637D01*
X42913Y-54035D02*
X44311Y-54035D01*
X48482Y-53954D02*
X48482Y-54401D01*
X44980Y-53366D02*
X47893Y-53366D01*
X44311Y-54035D02*
X44980Y-53366D01*
G54D21*
X52342Y-24153D02*
X52874Y-24232D01*
X52874Y-24232D02*
X52952Y-24311D01*
X50728Y-22972D02*
X50590Y-22972D01*
G54D20*
X53364Y-24311D02*
X53492Y-24438D01*
G54D21*
X52952Y-24311D02*
X53364Y-24311D01*
X52500Y-23858D02*
X52952Y-24311D01*
X51614Y-23858D02*
X52500Y-23858D01*
X50728Y-22972D02*
X51614Y-23858D01*
G54D23*
X43661Y-20708D02*
X47992Y-20708D01*
X47874Y-22165D02*
X47480Y-22165D01*
X48129Y-21909D02*
X47874Y-22165D01*
X48129Y-20846D02*
X48129Y-21909D01*
X47992Y-20708D02*
X48129Y-20846D01*
G54D22*
X41003Y-47854D02*
X41023Y-47874D01*
X41023Y-47874D02*
X40964Y-49114D01*
X49114Y-45334D02*
X49114Y-45492D01*
X48169Y-44311D02*
X47933Y-44547D01*
X48307Y-44311D02*
X48169Y-44311D01*
X48464Y-44468D02*
X48307Y-44311D01*
X48464Y-45531D02*
X48464Y-44468D01*
X48602Y-45669D02*
X48464Y-45531D01*
X48937Y-45669D02*
X48602Y-45669D01*
X49114Y-45492D02*
X48937Y-45669D01*
X41200Y-44271D02*
X41751Y-44271D01*
X42106Y-43759D02*
X41929Y-43582D01*
X42106Y-43917D02*
X42106Y-43759D01*
X41751Y-44271D02*
X42106Y-43917D01*
X42519Y-45275D02*
X42519Y-44940D01*
X42736Y-44724D02*
X43031Y-44724D01*
X42519Y-44940D02*
X42736Y-44724D01*
G54D24*
X40984Y-48799D02*
X39803Y-48799D01*
X39665Y-48661D02*
X41003Y-47854D01*
X39803Y-48799D02*
X39665Y-48661D01*
X39212Y-54665D02*
X40374Y-54665D01*
X41003Y-54035D02*
X40984Y-48799D01*
X40984Y-48799D02*
X40984Y-48779D01*
X40374Y-54665D02*
X41003Y-54035D01*
G54D21*
X46909Y-29311D02*
X46909Y-29606D01*
X46909Y-29606D02*
X46751Y-29763D01*
X48700Y-25748D02*
X49665Y-26712D01*
X49665Y-26712D02*
X49665Y-30314D01*
G54D20*
X45590Y-28818D02*
X46535Y-29763D01*
X46535Y-29763D02*
X46751Y-29763D01*
X46751Y-29763D02*
X49114Y-29763D01*
X49114Y-29763D02*
X49665Y-30314D01*
X41594Y-27047D02*
X41141Y-27500D01*
X44311Y-27047D02*
X41594Y-27047D01*
X45590Y-28326D02*
X44311Y-27047D01*
X45590Y-28818D02*
X45590Y-28326D01*
X50236Y-30885D02*
X50177Y-30826D01*
X49665Y-30314D02*
X50236Y-30885D01*
G54D21*
X49665Y-33287D02*
X50059Y-32893D01*
G54D20*
X50177Y-30826D02*
X50177Y-32775D01*
X50177Y-32775D02*
X50059Y-32893D01*
G54D23*
X35655Y-29356D02*
X35655Y-29297D01*
G54D20*
X36259Y-29507D02*
X35807Y-29507D01*
G54D21*
X35807Y-29507D02*
X35655Y-29356D01*
G54D23*
X35196Y-27629D02*
X34828Y-27261D01*
X35196Y-28838D02*
X35196Y-27629D01*
X35655Y-29297D02*
X35196Y-28838D01*
G54D20*
X39108Y-29356D02*
X36411Y-29356D01*
X40354Y-28110D02*
X40255Y-28208D01*
X39108Y-29356D02*
X40255Y-28208D01*
X40511Y-28110D02*
X40925Y-28110D01*
X40925Y-28110D02*
X41141Y-27893D01*
X41141Y-27500D02*
X41141Y-27893D01*
X40511Y-28110D02*
X40354Y-28110D01*
X36411Y-29356D02*
X36259Y-29507D01*
G54D21*
X41594Y-27952D02*
X41141Y-27500D01*
G54D20*
X34940Y-38405D02*
X35314Y-38031D01*
X35314Y-38031D02*
X35314Y-37618D01*
X35314Y-37618D02*
X34744Y-37047D01*
X34744Y-37047D02*
X34744Y-32145D01*
X34744Y-32145D02*
X36259Y-30629D01*
X36259Y-30629D02*
X36259Y-29507D01*
G54D21*
X34744Y-38602D02*
X34940Y-38405D01*
G54D20*
X34744Y-39980D02*
X34744Y-38602D01*
X35196Y-40433D02*
X34744Y-39980D01*
X35196Y-46909D02*
X35196Y-40433D01*
X34744Y-47362D02*
X35196Y-46909D01*
X34744Y-52303D02*
X34744Y-47362D01*
X35157Y-52775D02*
X34783Y-52401D01*
X36751Y-52775D02*
X35157Y-52775D01*
G54D23*
X51732Y-21122D02*
X51732Y-21043D01*
G54D21*
X49015Y-21909D02*
X49409Y-21515D01*
X49409Y-21515D02*
X49885Y-21515D01*
X51338Y-21515D02*
X51732Y-21122D01*
X49885Y-21515D02*
X51338Y-21515D01*
X48641Y-22224D02*
X49015Y-21909D01*
X51889Y-20885D02*
X52303Y-20885D01*
X51732Y-21043D02*
X51889Y-20885D01*
X52263Y-23562D02*
X52263Y-23484D01*
X52263Y-23484D02*
X52401Y-23346D01*
G54D20*
X53464Y-23562D02*
X52834Y-23562D01*
G54D21*
X52322Y-20885D02*
X52303Y-20885D01*
G54D20*
X52834Y-23562D02*
X52618Y-23346D01*
X52618Y-23346D02*
X52401Y-23346D01*
X52322Y-20885D02*
X53051Y-20964D01*
X53464Y-21377D02*
X53464Y-23562D01*
X53051Y-20964D02*
X53464Y-21377D01*
X52401Y-23346D02*
X52381Y-23346D01*
G54D10*
G36*
X50949Y-47898D02*
X50914Y-48283D01*
X49639Y-48283D01*
X49639Y-46324D01*
X49583Y-46189D01*
X49536Y-46141D01*
X49583Y-46094D01*
X49639Y-45959D01*
X49639Y-45812D01*
X49639Y-44356D01*
X49583Y-44220D01*
X49480Y-44117D01*
X49345Y-44061D01*
X49198Y-44060D01*
X49063Y-44116D01*
X48959Y-44220D01*
X48903Y-44355D01*
X48903Y-44502D01*
X48941Y-44593D01*
X48881Y-44653D01*
X48824Y-44788D01*
X48824Y-44935D01*
X48880Y-45070D01*
X48984Y-45174D01*
X49119Y-45230D01*
X49265Y-45230D01*
X49401Y-45174D01*
X49504Y-45070D01*
X49560Y-44935D01*
X49561Y-44789D01*
X49523Y-44697D01*
X49583Y-44637D01*
X49639Y-44502D01*
X49639Y-44356D01*
X49639Y-45812D01*
X49583Y-45677D01*
X49480Y-45573D01*
X49345Y-45517D01*
X49198Y-45517D01*
X49063Y-45573D01*
X48959Y-45677D01*
X48903Y-45812D01*
X48903Y-45958D01*
X48959Y-46094D01*
X49006Y-46141D01*
X48959Y-46188D01*
X48903Y-46324D01*
X48903Y-46470D01*
X48959Y-46605D01*
X49062Y-46709D01*
X49198Y-46765D01*
X49344Y-46765D01*
X49479Y-46709D01*
X49583Y-46606D01*
X49639Y-46471D01*
X49639Y-46324D01*
X49639Y-48283D01*
X49250Y-48283D01*
X49342Y-48245D01*
X49445Y-48141D01*
X49501Y-48006D01*
X49502Y-47860D01*
X49446Y-47724D01*
X49342Y-47621D01*
X49207Y-47565D01*
X49060Y-47564D01*
X48925Y-47620D01*
X48821Y-47724D01*
X48765Y-47859D01*
X48765Y-47998D01*
X48627Y-47997D01*
X48492Y-48053D01*
X48388Y-48157D01*
X48359Y-48227D01*
X48256Y-48270D01*
X48243Y-48283D01*
X48222Y-48283D01*
X48222Y-45458D01*
X48166Y-45323D01*
X48063Y-45219D01*
X47966Y-45179D01*
X47966Y-45161D01*
X47983Y-45154D01*
X48087Y-45051D01*
X48143Y-44916D01*
X48143Y-44769D01*
X48087Y-44634D01*
X47984Y-44530D01*
X47849Y-44474D01*
X47809Y-44474D01*
X47809Y-43076D01*
X47753Y-42941D01*
X47649Y-42837D01*
X47514Y-42781D01*
X47368Y-42781D01*
X47232Y-42837D01*
X47129Y-42940D01*
X47072Y-43076D01*
X47072Y-43222D01*
X47128Y-43357D01*
X47232Y-43461D01*
X47367Y-43517D01*
X47513Y-43517D01*
X47649Y-43461D01*
X47752Y-43358D01*
X47808Y-43223D01*
X47809Y-43076D01*
X47809Y-44474D01*
X47702Y-44474D01*
X47567Y-44530D01*
X47463Y-44633D01*
X47407Y-44768D01*
X47407Y-44818D01*
X47390Y-44825D01*
X47286Y-44929D01*
X47230Y-45064D01*
X47230Y-45074D01*
X47220Y-45074D01*
X47085Y-45130D01*
X46981Y-45234D01*
X46925Y-45369D01*
X46925Y-45515D01*
X46981Y-45651D01*
X47084Y-45754D01*
X47219Y-45810D01*
X47366Y-45811D01*
X47501Y-45755D01*
X47534Y-45722D01*
X47542Y-45739D01*
X47645Y-45843D01*
X47780Y-45899D01*
X47927Y-45899D01*
X48062Y-45843D01*
X48166Y-45740D01*
X48222Y-45605D01*
X48222Y-45458D01*
X48222Y-48283D01*
X46746Y-48283D01*
X46746Y-43332D01*
X46690Y-43197D01*
X46586Y-43093D01*
X46451Y-43037D01*
X46313Y-43037D01*
X46313Y-40714D01*
X46257Y-40579D01*
X46153Y-40475D01*
X46018Y-40419D01*
X45871Y-40419D01*
X45736Y-40475D01*
X45632Y-40578D01*
X45576Y-40713D01*
X45576Y-40860D01*
X45632Y-40995D01*
X45736Y-41099D01*
X45871Y-41155D01*
X46017Y-41155D01*
X46153Y-41099D01*
X46256Y-40996D01*
X46312Y-40860D01*
X46313Y-40714D01*
X46313Y-43037D01*
X46305Y-43037D01*
X46169Y-43093D01*
X46066Y-43196D01*
X46009Y-43331D01*
X46009Y-43478D01*
X46065Y-43613D01*
X46169Y-43717D01*
X46304Y-43773D01*
X46450Y-43773D01*
X46586Y-43717D01*
X46689Y-43614D01*
X46745Y-43479D01*
X46746Y-43332D01*
X46746Y-48283D01*
X45854Y-48283D01*
X45864Y-48259D01*
X45871Y-48261D01*
X46017Y-48261D01*
X46153Y-48205D01*
X46256Y-48102D01*
X46312Y-47967D01*
X46313Y-47820D01*
X46273Y-47725D01*
X46273Y-44749D01*
X46217Y-44614D01*
X46114Y-44510D01*
X45979Y-44454D01*
X45832Y-44454D01*
X45697Y-44510D01*
X45593Y-44614D01*
X45537Y-44749D01*
X45537Y-44895D01*
X45580Y-45001D01*
X45563Y-44983D01*
X45427Y-44927D01*
X45281Y-44927D01*
X45146Y-44983D01*
X45083Y-45045D01*
X45076Y-45027D01*
X45072Y-45024D01*
X45072Y-44415D01*
X45016Y-44279D01*
X44913Y-44176D01*
X44836Y-44144D01*
X44836Y-43549D01*
X44780Y-43413D01*
X44677Y-43310D01*
X44542Y-43254D01*
X44395Y-43253D01*
X44260Y-43309D01*
X44156Y-43413D01*
X44100Y-43548D01*
X44100Y-43694D01*
X44156Y-43830D01*
X44259Y-43933D01*
X44394Y-43990D01*
X44541Y-43990D01*
X44676Y-43934D01*
X44780Y-43830D01*
X44836Y-43695D01*
X44836Y-43549D01*
X44836Y-44144D01*
X44778Y-44120D01*
X44631Y-44120D01*
X44496Y-44175D01*
X44392Y-44279D01*
X44336Y-44414D01*
X44336Y-44561D01*
X44392Y-44696D01*
X44495Y-44800D01*
X44631Y-44856D01*
X44777Y-44856D01*
X44912Y-44800D01*
X45016Y-44696D01*
X45072Y-44561D01*
X45072Y-44415D01*
X45072Y-45024D01*
X44972Y-44924D01*
X44837Y-44868D01*
X44690Y-44868D01*
X44555Y-44923D01*
X44451Y-45027D01*
X44395Y-45162D01*
X44395Y-45309D01*
X44451Y-45444D01*
X44554Y-45548D01*
X44690Y-45604D01*
X44836Y-45604D01*
X44972Y-45548D01*
X45034Y-45485D01*
X45042Y-45503D01*
X45145Y-45607D01*
X45280Y-45663D01*
X45427Y-45663D01*
X45504Y-45631D01*
X45598Y-45725D01*
X45733Y-45781D01*
X45879Y-45781D01*
X46015Y-45725D01*
X46118Y-45622D01*
X46175Y-45486D01*
X46175Y-45340D01*
X46119Y-45205D01*
X46068Y-45153D01*
X46113Y-45135D01*
X46217Y-45031D01*
X46273Y-44896D01*
X46273Y-44749D01*
X46273Y-47725D01*
X46257Y-47685D01*
X46153Y-47581D01*
X46018Y-47525D01*
X45915Y-47525D01*
X45936Y-47516D01*
X46040Y-47413D01*
X46096Y-47278D01*
X46096Y-47131D01*
X46040Y-46996D01*
X45937Y-46892D01*
X45801Y-46836D01*
X45655Y-46836D01*
X45520Y-46892D01*
X45416Y-46995D01*
X45360Y-47131D01*
X45360Y-47277D01*
X45416Y-47412D01*
X45519Y-47516D01*
X45654Y-47572D01*
X45757Y-47572D01*
X45736Y-47581D01*
X45632Y-47684D01*
X45591Y-47784D01*
X45585Y-47781D01*
X45438Y-47781D01*
X45303Y-47837D01*
X45232Y-47908D01*
X45213Y-47862D01*
X45110Y-47758D01*
X44975Y-47702D01*
X44843Y-47702D01*
X44832Y-47676D01*
X44878Y-47630D01*
X44934Y-47494D01*
X44935Y-47348D01*
X44924Y-47323D01*
X44932Y-47320D01*
X45036Y-47216D01*
X45092Y-47081D01*
X45092Y-46934D01*
X45060Y-46857D01*
X45134Y-46783D01*
X45190Y-46648D01*
X45191Y-46501D01*
X45165Y-46441D01*
X45210Y-46333D01*
X45210Y-46186D01*
X45154Y-46051D01*
X45051Y-45947D01*
X44916Y-45891D01*
X44915Y-45891D01*
X44915Y-45891D01*
X44859Y-45756D01*
X44756Y-45652D01*
X44620Y-45596D01*
X44474Y-45596D01*
X44338Y-45652D01*
X44235Y-45755D01*
X44179Y-45891D01*
X44179Y-45989D01*
X44117Y-46051D01*
X44088Y-46119D01*
X44088Y-43549D01*
X44032Y-43413D01*
X43929Y-43310D01*
X43794Y-43254D01*
X43647Y-43253D01*
X43512Y-43309D01*
X43408Y-43413D01*
X43352Y-43548D01*
X43352Y-43694D01*
X43408Y-43830D01*
X43511Y-43933D01*
X43646Y-43990D01*
X43793Y-43990D01*
X43928Y-43934D01*
X44032Y-43830D01*
X44088Y-43695D01*
X44088Y-43549D01*
X44088Y-46119D01*
X44061Y-46186D01*
X44060Y-46332D01*
X44116Y-46468D01*
X44220Y-46571D01*
X44289Y-46600D01*
X44201Y-46636D01*
X44097Y-46740D01*
X44041Y-46875D01*
X44041Y-47021D01*
X44097Y-47157D01*
X44200Y-47260D01*
X44229Y-47272D01*
X44198Y-47347D01*
X44198Y-47494D01*
X44242Y-47599D01*
X44195Y-47645D01*
X44139Y-47780D01*
X44139Y-47927D01*
X44195Y-48062D01*
X44299Y-48166D01*
X44434Y-48222D01*
X44553Y-48222D01*
X44437Y-48270D01*
X44424Y-48283D01*
X43498Y-48283D01*
X43498Y-46167D01*
X43442Y-46031D01*
X43399Y-45989D01*
X43399Y-45852D01*
X43343Y-45716D01*
X43240Y-45613D01*
X43222Y-45605D01*
X43225Y-45602D01*
X43281Y-45467D01*
X43281Y-45320D01*
X43225Y-45185D01*
X43215Y-45175D01*
X43242Y-45112D01*
X43242Y-44966D01*
X43186Y-44831D01*
X43082Y-44727D01*
X42947Y-44671D01*
X42801Y-44671D01*
X42665Y-44727D01*
X42562Y-44830D01*
X42505Y-44965D01*
X42505Y-45112D01*
X42561Y-45247D01*
X42571Y-45257D01*
X42545Y-45320D01*
X42545Y-45466D01*
X42601Y-45601D01*
X42704Y-45705D01*
X42722Y-45713D01*
X42719Y-45716D01*
X42663Y-45851D01*
X42663Y-45998D01*
X42719Y-46133D01*
X42761Y-46176D01*
X42761Y-46313D01*
X42817Y-46448D01*
X42921Y-46552D01*
X43056Y-46608D01*
X43202Y-46608D01*
X43338Y-46552D01*
X43441Y-46448D01*
X43497Y-46313D01*
X43498Y-46167D01*
X43498Y-48283D01*
X42416Y-48283D01*
X42455Y-47900D01*
X41628Y-47900D01*
X41628Y-46167D01*
X41597Y-46092D01*
X41627Y-46018D01*
X41628Y-45871D01*
X41572Y-45736D01*
X41468Y-45632D01*
X41333Y-45576D01*
X41186Y-45576D01*
X41051Y-45632D01*
X40947Y-45736D01*
X40891Y-45871D01*
X40891Y-46017D01*
X40922Y-46092D01*
X40891Y-46166D01*
X40891Y-46216D01*
X40821Y-46187D01*
X40675Y-46186D01*
X40539Y-46242D01*
X40436Y-46346D01*
X40379Y-46481D01*
X40379Y-46628D01*
X40435Y-46763D01*
X40539Y-46867D01*
X40674Y-46923D01*
X40820Y-46923D01*
X40956Y-46867D01*
X41059Y-46763D01*
X41116Y-46628D01*
X41116Y-46579D01*
X41186Y-46608D01*
X41332Y-46608D01*
X41468Y-46552D01*
X41571Y-46448D01*
X41627Y-46313D01*
X41628Y-46167D01*
X41628Y-47900D01*
X41578Y-47900D01*
X41530Y-47879D01*
X41486Y-47879D01*
X41442Y-47850D01*
X41327Y-47850D01*
X41251Y-47934D01*
X41248Y-47935D01*
X41144Y-48039D01*
X41133Y-48065D01*
X40939Y-48282D01*
X40939Y-47368D01*
X40883Y-47232D01*
X40779Y-47129D01*
X40644Y-47072D01*
X40497Y-47072D01*
X40362Y-47128D01*
X40258Y-47232D01*
X40202Y-47367D01*
X40202Y-47513D01*
X40258Y-47649D01*
X40362Y-47752D01*
X40497Y-47808D01*
X40643Y-47809D01*
X40779Y-47753D01*
X40882Y-47649D01*
X40938Y-47514D01*
X40939Y-47368D01*
X40939Y-48282D01*
X40928Y-48293D01*
X40040Y-47687D01*
X40394Y-44850D01*
X40649Y-44850D01*
X40691Y-44952D01*
X40795Y-45055D01*
X40930Y-45112D01*
X41076Y-45112D01*
X41212Y-45056D01*
X41315Y-44952D01*
X41358Y-44850D01*
X41400Y-44850D01*
X41400Y-43967D01*
X41425Y-43992D01*
X41560Y-44049D01*
X41706Y-44049D01*
X41842Y-43993D01*
X41945Y-43889D01*
X42001Y-43754D01*
X42002Y-43608D01*
X41946Y-43472D01*
X41842Y-43369D01*
X41707Y-43313D01*
X41560Y-43312D01*
X41425Y-43368D01*
X41400Y-43394D01*
X41400Y-43207D01*
X44491Y-43207D01*
X44471Y-42392D01*
X44471Y-42393D01*
X44574Y-42496D01*
X44709Y-42553D01*
X44769Y-42553D01*
X44769Y-42691D01*
X44825Y-42826D01*
X44929Y-42929D01*
X45064Y-42986D01*
X45074Y-42986D01*
X45081Y-43003D01*
X45184Y-43107D01*
X45306Y-43157D01*
X45357Y-43279D01*
X45460Y-43382D01*
X45595Y-43438D01*
X45742Y-43439D01*
X45877Y-43383D01*
X45981Y-43279D01*
X46037Y-43144D01*
X46037Y-42997D01*
X45981Y-42862D01*
X45878Y-42758D01*
X45756Y-42708D01*
X45705Y-42587D01*
X45602Y-42483D01*
X45467Y-42427D01*
X45457Y-42427D01*
X45450Y-42409D01*
X45346Y-42306D01*
X45211Y-42250D01*
X45151Y-42250D01*
X45151Y-42112D01*
X45095Y-41976D01*
X45013Y-41894D01*
X45013Y-41836D01*
X44957Y-41701D01*
X44883Y-41626D01*
X44915Y-41549D01*
X44915Y-41403D01*
X44859Y-41268D01*
X44756Y-41164D01*
X44620Y-41108D01*
X44474Y-41108D01*
X44439Y-41122D01*
X44400Y-39570D01*
X44520Y-39450D01*
X45145Y-39450D01*
X45143Y-39454D01*
X45143Y-39600D01*
X45199Y-39735D01*
X45303Y-39839D01*
X45438Y-39895D01*
X45584Y-39895D01*
X45720Y-39839D01*
X45823Y-39736D01*
X45879Y-39601D01*
X45879Y-39454D01*
X45878Y-39450D01*
X48100Y-39450D01*
X48100Y-36200D01*
X49600Y-36200D01*
X49649Y-40103D01*
X48915Y-40148D01*
X48805Y-40064D01*
X48819Y-41251D01*
X48771Y-41203D01*
X48668Y-41160D01*
X48668Y-40127D01*
X48612Y-39991D01*
X48508Y-39888D01*
X48373Y-39831D01*
X48227Y-39831D01*
X48091Y-39887D01*
X47988Y-39991D01*
X47931Y-40126D01*
X47931Y-40272D01*
X47976Y-40379D01*
X47919Y-40379D01*
X47783Y-40435D01*
X47777Y-40442D01*
X47770Y-40439D01*
X47662Y-40438D01*
X47610Y-40386D01*
X47475Y-40330D01*
X47328Y-40330D01*
X47193Y-40386D01*
X47089Y-40489D01*
X47033Y-40624D01*
X47033Y-40771D01*
X47089Y-40906D01*
X47192Y-41010D01*
X47328Y-41066D01*
X47435Y-41066D01*
X47488Y-41118D01*
X47623Y-41175D01*
X47769Y-41175D01*
X47905Y-41119D01*
X47911Y-41113D01*
X47918Y-41116D01*
X48065Y-41116D01*
X48200Y-41060D01*
X48304Y-40956D01*
X48360Y-40821D01*
X48360Y-40675D01*
X48316Y-40568D01*
X48372Y-40568D01*
X48508Y-40512D01*
X48611Y-40408D01*
X48668Y-40273D01*
X48668Y-40127D01*
X48668Y-41160D01*
X48636Y-41147D01*
X48490Y-41147D01*
X48354Y-41203D01*
X48251Y-41306D01*
X48194Y-41442D01*
X48194Y-41588D01*
X48250Y-41723D01*
X48354Y-41827D01*
X48489Y-41883D01*
X48635Y-41883D01*
X48771Y-41827D01*
X48825Y-41773D01*
X48845Y-43444D01*
X50900Y-43444D01*
X50935Y-46561D01*
X50919Y-46561D01*
X50919Y-45793D01*
X50863Y-45657D01*
X50759Y-45554D01*
X50699Y-45529D01*
X50653Y-45418D01*
X50725Y-45346D01*
X50781Y-45211D01*
X50781Y-45064D01*
X50725Y-44929D01*
X50622Y-44825D01*
X50486Y-44769D01*
X50455Y-44769D01*
X50548Y-44677D01*
X50604Y-44542D01*
X50604Y-44395D01*
X50548Y-44260D01*
X50445Y-44156D01*
X50309Y-44100D01*
X50163Y-44100D01*
X50027Y-44156D01*
X49924Y-44259D01*
X49868Y-44394D01*
X49868Y-44541D01*
X49923Y-44676D01*
X50027Y-44780D01*
X50162Y-44836D01*
X50194Y-44836D01*
X50101Y-44929D01*
X50045Y-45064D01*
X50045Y-45210D01*
X50094Y-45329D01*
X50022Y-45401D01*
X49966Y-45536D01*
X49966Y-45683D01*
X50022Y-45818D01*
X50125Y-45922D01*
X50186Y-45947D01*
X50238Y-46074D01*
X50342Y-46178D01*
X50477Y-46234D01*
X50624Y-46234D01*
X50759Y-46178D01*
X50863Y-46074D01*
X50919Y-45939D01*
X50919Y-45793D01*
X50919Y-46561D01*
X50871Y-46560D01*
X50736Y-46616D01*
X50654Y-46698D01*
X50576Y-46698D01*
X50441Y-46754D01*
X50337Y-46858D01*
X50330Y-46875D01*
X50301Y-46875D01*
X50226Y-46906D01*
X50152Y-46876D01*
X50005Y-46875D01*
X49870Y-46931D01*
X49766Y-47035D01*
X49710Y-47170D01*
X49710Y-47316D01*
X49766Y-47452D01*
X49869Y-47555D01*
X50005Y-47612D01*
X50151Y-47612D01*
X50226Y-47581D01*
X50300Y-47612D01*
X50446Y-47612D01*
X50582Y-47556D01*
X50685Y-47452D01*
X50693Y-47435D01*
X50722Y-47435D01*
X50857Y-47379D01*
X50939Y-47297D01*
X50943Y-47297D01*
X50949Y-47898D01*
X50949Y-47898D01*
G37*
G54D25*
X50949Y-47898D02*
X50914Y-48283D01*
X49639Y-48283D01*
X49639Y-46324D01*
X49583Y-46189D01*
X49536Y-46141D01*
X49583Y-46094D01*
X49639Y-45959D01*
X49639Y-45812D01*
X49639Y-44356D01*
X49583Y-44220D01*
X49480Y-44117D01*
X49345Y-44061D01*
X49198Y-44060D01*
X49063Y-44116D01*
X48959Y-44220D01*
X48903Y-44355D01*
X48903Y-44502D01*
X48941Y-44593D01*
X48881Y-44653D01*
X48824Y-44788D01*
X48824Y-44935D01*
X48880Y-45070D01*
X48984Y-45174D01*
X49119Y-45230D01*
X49265Y-45230D01*
X49401Y-45174D01*
X49504Y-45070D01*
X49560Y-44935D01*
X49561Y-44789D01*
X49523Y-44697D01*
X49583Y-44637D01*
X49639Y-44502D01*
X49639Y-44356D01*
X49639Y-45812D01*
X49583Y-45677D01*
X49480Y-45573D01*
X49345Y-45517D01*
X49198Y-45517D01*
X49063Y-45573D01*
X48959Y-45677D01*
X48903Y-45812D01*
X48903Y-45958D01*
X48959Y-46094D01*
X49006Y-46141D01*
X48959Y-46188D01*
X48903Y-46324D01*
X48903Y-46470D01*
X48959Y-46605D01*
X49062Y-46709D01*
X49198Y-46765D01*
X49344Y-46765D01*
X49479Y-46709D01*
X49583Y-46606D01*
X49639Y-46471D01*
X49639Y-46324D01*
X49639Y-48283D01*
X49250Y-48283D01*
X49342Y-48245D01*
X49445Y-48141D01*
X49501Y-48006D01*
X49502Y-47860D01*
X49446Y-47724D01*
X49342Y-47621D01*
X49207Y-47565D01*
X49060Y-47564D01*
X48925Y-47620D01*
X48821Y-47724D01*
X48765Y-47859D01*
X48765Y-47998D01*
X48627Y-47997D01*
X48492Y-48053D01*
X48388Y-48157D01*
X48359Y-48227D01*
X48256Y-48270D01*
X48243Y-48283D01*
X48222Y-48283D01*
X48222Y-45458D01*
X48166Y-45323D01*
X48063Y-45219D01*
X47966Y-45179D01*
X47966Y-45161D01*
X47983Y-45154D01*
X48087Y-45051D01*
X48143Y-44916D01*
X48143Y-44769D01*
X48087Y-44634D01*
X47984Y-44530D01*
X47849Y-44474D01*
X47809Y-44474D01*
X47809Y-43076D01*
X47753Y-42941D01*
X47649Y-42837D01*
X47514Y-42781D01*
X47368Y-42781D01*
X47232Y-42837D01*
X47129Y-42940D01*
X47072Y-43076D01*
X47072Y-43222D01*
X47128Y-43357D01*
X47232Y-43461D01*
X47367Y-43517D01*
X47513Y-43517D01*
X47649Y-43461D01*
X47752Y-43358D01*
X47808Y-43223D01*
X47809Y-43076D01*
X47809Y-44474D01*
X47702Y-44474D01*
X47567Y-44530D01*
X47463Y-44633D01*
X47407Y-44768D01*
X47407Y-44818D01*
X47390Y-44825D01*
X47286Y-44929D01*
X47230Y-45064D01*
X47230Y-45074D01*
X47220Y-45074D01*
X47085Y-45130D01*
X46981Y-45234D01*
X46925Y-45369D01*
X46925Y-45515D01*
X46981Y-45651D01*
X47084Y-45754D01*
X47219Y-45810D01*
X47366Y-45811D01*
X47501Y-45755D01*
X47534Y-45722D01*
X47542Y-45739D01*
X47645Y-45843D01*
X47780Y-45899D01*
X47927Y-45899D01*
X48062Y-45843D01*
X48166Y-45740D01*
X48222Y-45605D01*
X48222Y-45458D01*
X48222Y-48283D01*
X46746Y-48283D01*
X46746Y-43332D01*
X46690Y-43197D01*
X46586Y-43093D01*
X46451Y-43037D01*
X46313Y-43037D01*
X46313Y-40714D01*
X46257Y-40579D01*
X46153Y-40475D01*
X46018Y-40419D01*
X45871Y-40419D01*
X45736Y-40475D01*
X45632Y-40578D01*
X45576Y-40713D01*
X45576Y-40860D01*
X45632Y-40995D01*
X45736Y-41099D01*
X45871Y-41155D01*
X46017Y-41155D01*
X46153Y-41099D01*
X46256Y-40996D01*
X46312Y-40860D01*
X46313Y-40714D01*
X46313Y-43037D01*
X46305Y-43037D01*
X46169Y-43093D01*
X46066Y-43196D01*
X46009Y-43331D01*
X46009Y-43478D01*
X46065Y-43613D01*
X46169Y-43717D01*
X46304Y-43773D01*
X46450Y-43773D01*
X46586Y-43717D01*
X46689Y-43614D01*
X46745Y-43479D01*
X46746Y-43332D01*
X46746Y-48283D01*
X45854Y-48283D01*
X45864Y-48259D01*
X45871Y-48261D01*
X46017Y-48261D01*
X46153Y-48205D01*
X46256Y-48102D01*
X46312Y-47967D01*
X46313Y-47820D01*
X46273Y-47725D01*
X46273Y-44749D01*
X46217Y-44614D01*
X46114Y-44510D01*
X45979Y-44454D01*
X45832Y-44454D01*
X45697Y-44510D01*
X45593Y-44614D01*
X45537Y-44749D01*
X45537Y-44895D01*
X45580Y-45001D01*
X45563Y-44983D01*
X45427Y-44927D01*
X45281Y-44927D01*
X45146Y-44983D01*
X45083Y-45045D01*
X45076Y-45027D01*
X45072Y-45024D01*
X45072Y-44415D01*
X45016Y-44279D01*
X44913Y-44176D01*
X44836Y-44144D01*
X44836Y-43549D01*
X44780Y-43413D01*
X44677Y-43310D01*
X44542Y-43254D01*
X44395Y-43253D01*
X44260Y-43309D01*
X44156Y-43413D01*
X44100Y-43548D01*
X44100Y-43694D01*
X44156Y-43830D01*
X44259Y-43933D01*
X44394Y-43990D01*
X44541Y-43990D01*
X44676Y-43934D01*
X44780Y-43830D01*
X44836Y-43695D01*
X44836Y-43549D01*
X44836Y-44144D01*
X44778Y-44120D01*
X44631Y-44120D01*
X44496Y-44175D01*
X44392Y-44279D01*
X44336Y-44414D01*
X44336Y-44561D01*
X44392Y-44696D01*
X44495Y-44800D01*
X44631Y-44856D01*
X44777Y-44856D01*
X44912Y-44800D01*
X45016Y-44696D01*
X45072Y-44561D01*
X45072Y-44415D01*
X45072Y-45024D01*
X44972Y-44924D01*
X44837Y-44868D01*
X44690Y-44868D01*
X44555Y-44923D01*
X44451Y-45027D01*
X44395Y-45162D01*
X44395Y-45309D01*
X44451Y-45444D01*
X44554Y-45548D01*
X44690Y-45604D01*
X44836Y-45604D01*
X44972Y-45548D01*
X45034Y-45485D01*
X45042Y-45503D01*
X45145Y-45607D01*
X45280Y-45663D01*
X45427Y-45663D01*
X45504Y-45631D01*
X45598Y-45725D01*
X45733Y-45781D01*
X45879Y-45781D01*
X46015Y-45725D01*
X46118Y-45622D01*
X46175Y-45486D01*
X46175Y-45340D01*
X46119Y-45205D01*
X46068Y-45153D01*
X46113Y-45135D01*
X46217Y-45031D01*
X46273Y-44896D01*
X46273Y-44749D01*
X46273Y-47725D01*
X46257Y-47685D01*
X46153Y-47581D01*
X46018Y-47525D01*
X45915Y-47525D01*
X45936Y-47516D01*
X46040Y-47413D01*
X46096Y-47278D01*
X46096Y-47131D01*
X46040Y-46996D01*
X45937Y-46892D01*
X45801Y-46836D01*
X45655Y-46836D01*
X45520Y-46892D01*
X45416Y-46995D01*
X45360Y-47131D01*
X45360Y-47277D01*
X45416Y-47412D01*
X45519Y-47516D01*
X45654Y-47572D01*
X45757Y-47572D01*
X45736Y-47581D01*
X45632Y-47684D01*
X45591Y-47784D01*
X45585Y-47781D01*
X45438Y-47781D01*
X45303Y-47837D01*
X45232Y-47908D01*
X45213Y-47862D01*
X45110Y-47758D01*
X44975Y-47702D01*
X44843Y-47702D01*
X44832Y-47676D01*
X44878Y-47630D01*
X44934Y-47494D01*
X44935Y-47348D01*
X44924Y-47323D01*
X44932Y-47320D01*
X45036Y-47216D01*
X45092Y-47081D01*
X45092Y-46934D01*
X45060Y-46857D01*
X45134Y-46783D01*
X45190Y-46648D01*
X45191Y-46501D01*
X45165Y-46441D01*
X45210Y-46333D01*
X45210Y-46186D01*
X45154Y-46051D01*
X45051Y-45947D01*
X44916Y-45891D01*
X44915Y-45891D01*
X44915Y-45891D01*
X44859Y-45756D01*
X44756Y-45652D01*
X44620Y-45596D01*
X44474Y-45596D01*
X44338Y-45652D01*
X44235Y-45755D01*
X44179Y-45891D01*
X44179Y-45989D01*
X44117Y-46051D01*
X44088Y-46119D01*
X44088Y-43549D01*
X44032Y-43413D01*
X43929Y-43310D01*
X43794Y-43254D01*
X43647Y-43253D01*
X43512Y-43309D01*
X43408Y-43413D01*
X43352Y-43548D01*
X43352Y-43694D01*
X43408Y-43830D01*
X43511Y-43933D01*
X43646Y-43990D01*
X43793Y-43990D01*
X43928Y-43934D01*
X44032Y-43830D01*
X44088Y-43695D01*
X44088Y-43549D01*
X44088Y-46119D01*
X44061Y-46186D01*
X44060Y-46332D01*
X44116Y-46468D01*
X44220Y-46571D01*
X44289Y-46600D01*
X44201Y-46636D01*
X44097Y-46740D01*
X44041Y-46875D01*
X44041Y-47021D01*
X44097Y-47157D01*
X44200Y-47260D01*
X44229Y-47272D01*
X44198Y-47347D01*
X44198Y-47494D01*
X44242Y-47599D01*
X44195Y-47645D01*
X44139Y-47780D01*
X44139Y-47927D01*
X44195Y-48062D01*
X44299Y-48166D01*
X44434Y-48222D01*
X44553Y-48222D01*
X44437Y-48270D01*
X44424Y-48283D01*
X43498Y-48283D01*
X43498Y-46167D01*
X43442Y-46031D01*
X43399Y-45989D01*
X43399Y-45852D01*
X43343Y-45716D01*
X43240Y-45613D01*
X43222Y-45605D01*
X43225Y-45602D01*
X43281Y-45467D01*
X43281Y-45320D01*
X43225Y-45185D01*
X43215Y-45175D01*
X43242Y-45112D01*
X43242Y-44966D01*
X43186Y-44831D01*
X43082Y-44727D01*
X42947Y-44671D01*
X42801Y-44671D01*
X42665Y-44727D01*
X42562Y-44830D01*
X42505Y-44965D01*
X42505Y-45112D01*
X42561Y-45247D01*
X42571Y-45257D01*
X42545Y-45320D01*
X42545Y-45466D01*
X42601Y-45601D01*
X42704Y-45705D01*
X42722Y-45713D01*
X42719Y-45716D01*
X42663Y-45851D01*
X42663Y-45998D01*
X42719Y-46133D01*
X42761Y-46176D01*
X42761Y-46313D01*
X42817Y-46448D01*
X42921Y-46552D01*
X43056Y-46608D01*
X43202Y-46608D01*
X43338Y-46552D01*
X43441Y-46448D01*
X43497Y-46313D01*
X43498Y-46167D01*
X43498Y-48283D01*
X42416Y-48283D01*
X42455Y-47900D01*
X41628Y-47900D01*
X41628Y-46167D01*
X41597Y-46092D01*
X41627Y-46018D01*
X41628Y-45871D01*
X41572Y-45736D01*
X41468Y-45632D01*
X41333Y-45576D01*
X41186Y-45576D01*
X41051Y-45632D01*
X40947Y-45736D01*
X40891Y-45871D01*
X40891Y-46017D01*
X40922Y-46092D01*
X40891Y-46166D01*
X40891Y-46216D01*
X40821Y-46187D01*
X40675Y-46186D01*
X40539Y-46242D01*
X40436Y-46346D01*
X40379Y-46481D01*
X40379Y-46628D01*
X40435Y-46763D01*
X40539Y-46867D01*
X40674Y-46923D01*
X40820Y-46923D01*
X40956Y-46867D01*
X41059Y-46763D01*
X41116Y-46628D01*
X41116Y-46579D01*
X41186Y-46608D01*
X41332Y-46608D01*
X41468Y-46552D01*
X41571Y-46448D01*
X41627Y-46313D01*
X41628Y-46167D01*
X41628Y-47900D01*
X41578Y-47900D01*
X41530Y-47879D01*
X41486Y-47879D01*
X41442Y-47850D01*
X41327Y-47850D01*
X41251Y-47934D01*
X41248Y-47935D01*
X41144Y-48039D01*
X41133Y-48065D01*
X40939Y-48282D01*
X40939Y-47368D01*
X40883Y-47232D01*
X40779Y-47129D01*
X40644Y-47072D01*
X40497Y-47072D01*
X40362Y-47128D01*
X40258Y-47232D01*
X40202Y-47367D01*
X40202Y-47513D01*
X40258Y-47649D01*
X40362Y-47752D01*
X40497Y-47808D01*
X40643Y-47809D01*
X40779Y-47753D01*
X40882Y-47649D01*
X40938Y-47514D01*
X40939Y-47368D01*
X40939Y-48282D01*
X40928Y-48293D01*
X40040Y-47687D01*
X40394Y-44850D01*
X40649Y-44850D01*
X40691Y-44952D01*
X40795Y-45055D01*
X40930Y-45112D01*
X41076Y-45112D01*
X41212Y-45056D01*
X41315Y-44952D01*
X41358Y-44850D01*
X41400Y-44850D01*
X41400Y-43967D01*
X41425Y-43992D01*
X41560Y-44049D01*
X41706Y-44049D01*
X41842Y-43993D01*
X41945Y-43889D01*
X42001Y-43754D01*
X42002Y-43608D01*
X41946Y-43472D01*
X41842Y-43369D01*
X41707Y-43313D01*
X41560Y-43312D01*
X41425Y-43368D01*
X41400Y-43394D01*
X41400Y-43207D01*
X44491Y-43207D01*
X44471Y-42392D01*
X44471Y-42393D01*
X44574Y-42496D01*
X44709Y-42553D01*
X44769Y-42553D01*
X44769Y-42691D01*
X44825Y-42826D01*
X44929Y-42929D01*
X45064Y-42986D01*
X45074Y-42986D01*
X45081Y-43003D01*
X45184Y-43107D01*
X45306Y-43157D01*
X45357Y-43279D01*
X45460Y-43382D01*
X45595Y-43438D01*
X45742Y-43439D01*
X45877Y-43383D01*
X45981Y-43279D01*
X46037Y-43144D01*
X46037Y-42997D01*
X45981Y-42862D01*
X45878Y-42758D01*
X45756Y-42708D01*
X45705Y-42587D01*
X45602Y-42483D01*
X45467Y-42427D01*
X45457Y-42427D01*
X45450Y-42409D01*
X45346Y-42306D01*
X45211Y-42250D01*
X45151Y-42250D01*
X45151Y-42112D01*
X45095Y-41976D01*
X45013Y-41894D01*
X45013Y-41836D01*
X44957Y-41701D01*
X44883Y-41626D01*
X44915Y-41549D01*
X44915Y-41403D01*
X44859Y-41268D01*
X44756Y-41164D01*
X44620Y-41108D01*
X44474Y-41108D01*
X44439Y-41122D01*
X44400Y-39570D01*
X44520Y-39450D01*
X45145Y-39450D01*
X45143Y-39454D01*
X45143Y-39600D01*
X45199Y-39735D01*
X45303Y-39839D01*
X45438Y-39895D01*
X45584Y-39895D01*
X45720Y-39839D01*
X45823Y-39736D01*
X45879Y-39601D01*
X45879Y-39454D01*
X45878Y-39450D01*
X48100Y-39450D01*
X48100Y-36200D01*
X49600Y-36200D01*
X49649Y-40103D01*
X48915Y-40148D01*
X48805Y-40064D01*
X48819Y-41251D01*
X48771Y-41203D01*
X48668Y-41160D01*
X48668Y-40127D01*
X48612Y-39991D01*
X48508Y-39888D01*
X48373Y-39831D01*
X48227Y-39831D01*
X48091Y-39887D01*
X47988Y-39991D01*
X47931Y-40126D01*
X47931Y-40272D01*
X47976Y-40379D01*
X47919Y-40379D01*
X47783Y-40435D01*
X47777Y-40442D01*
X47770Y-40439D01*
X47662Y-40438D01*
X47610Y-40386D01*
X47475Y-40330D01*
X47328Y-40330D01*
X47193Y-40386D01*
X47089Y-40489D01*
X47033Y-40624D01*
X47033Y-40771D01*
X47089Y-40906D01*
X47192Y-41010D01*
X47328Y-41066D01*
X47435Y-41066D01*
X47488Y-41118D01*
X47623Y-41175D01*
X47769Y-41175D01*
X47905Y-41119D01*
X47911Y-41113D01*
X47918Y-41116D01*
X48065Y-41116D01*
X48200Y-41060D01*
X48304Y-40956D01*
X48360Y-40821D01*
X48360Y-40675D01*
X48316Y-40568D01*
X48372Y-40568D01*
X48508Y-40512D01*
X48611Y-40408D01*
X48668Y-40273D01*
X48668Y-40127D01*
X48668Y-41160D01*
X48636Y-41147D01*
X48490Y-41147D01*
X48354Y-41203D01*
X48251Y-41306D01*
X48194Y-41442D01*
X48194Y-41588D01*
X48250Y-41723D01*
X48354Y-41827D01*
X48489Y-41883D01*
X48635Y-41883D01*
X48771Y-41827D01*
X48825Y-41773D01*
X48845Y-43444D01*
X50900Y-43444D01*
X50935Y-46561D01*
X50919Y-46561D01*
X50919Y-45793D01*
X50863Y-45657D01*
X50759Y-45554D01*
X50699Y-45529D01*
X50653Y-45418D01*
X50725Y-45346D01*
X50781Y-45211D01*
X50781Y-45064D01*
X50725Y-44929D01*
X50622Y-44825D01*
X50486Y-44769D01*
X50455Y-44769D01*
X50548Y-44677D01*
X50604Y-44542D01*
X50604Y-44395D01*
X50548Y-44260D01*
X50445Y-44156D01*
X50309Y-44100D01*
X50163Y-44100D01*
X50027Y-44156D01*
X49924Y-44259D01*
X49868Y-44394D01*
X49868Y-44541D01*
X49923Y-44676D01*
X50027Y-44780D01*
X50162Y-44836D01*
X50194Y-44836D01*
X50101Y-44929D01*
X50045Y-45064D01*
X50045Y-45210D01*
X50094Y-45329D01*
X50022Y-45401D01*
X49966Y-45536D01*
X49966Y-45683D01*
X50022Y-45818D01*
X50125Y-45922D01*
X50186Y-45947D01*
X50238Y-46074D01*
X50342Y-46178D01*
X50477Y-46234D01*
X50624Y-46234D01*
X50759Y-46178D01*
X50863Y-46074D01*
X50919Y-45939D01*
X50919Y-45793D01*
X50919Y-46561D01*
X50871Y-46560D01*
X50736Y-46616D01*
X50654Y-46698D01*
X50576Y-46698D01*
X50441Y-46754D01*
X50337Y-46858D01*
X50330Y-46875D01*
X50301Y-46875D01*
X50226Y-46906D01*
X50152Y-46876D01*
X50005Y-46875D01*
X49870Y-46931D01*
X49766Y-47035D01*
X49710Y-47170D01*
X49710Y-47316D01*
X49766Y-47452D01*
X49869Y-47555D01*
X50005Y-47612D01*
X50151Y-47612D01*
X50226Y-47581D01*
X50300Y-47612D01*
X50446Y-47612D01*
X50582Y-47556D01*
X50685Y-47452D01*
X50693Y-47435D01*
X50722Y-47435D01*
X50857Y-47379D01*
X50939Y-47297D01*
X50943Y-47297D01*
X50949Y-47898D01*
G54D10*
G36*
X39563Y-55132D02*
X39550Y-55145D01*
X39497Y-55271D01*
X37788Y-55271D01*
X37792Y-55267D01*
X37848Y-55132D01*
X37848Y-54986D01*
X37792Y-54850D01*
X37789Y-54847D01*
X37789Y-53706D01*
X37733Y-53571D01*
X37630Y-53467D01*
X37494Y-53411D01*
X37348Y-53411D01*
X37213Y-53467D01*
X37109Y-53570D01*
X37053Y-53705D01*
X37053Y-53852D01*
X37109Y-53987D01*
X37212Y-54091D01*
X37347Y-54147D01*
X37494Y-54147D01*
X37629Y-54091D01*
X37733Y-53988D01*
X37789Y-53853D01*
X37789Y-53706D01*
X37789Y-54847D01*
X37689Y-54747D01*
X37553Y-54691D01*
X37407Y-54690D01*
X37272Y-54746D01*
X37168Y-54850D01*
X37112Y-54985D01*
X37112Y-55131D01*
X37168Y-55267D01*
X37172Y-55271D01*
X34610Y-55271D01*
X34610Y-52860D01*
X34841Y-53091D01*
X34841Y-53091D01*
X34986Y-53188D01*
X35157Y-53222D01*
X35157Y-53222D01*
X36751Y-53222D01*
X36922Y-53188D01*
X37067Y-53091D01*
X37164Y-52946D01*
X37198Y-52775D01*
X37164Y-52604D01*
X37089Y-52491D01*
X39563Y-52519D01*
X39563Y-55132D01*
X39563Y-55132D01*
G37*
G54D25*
X39563Y-55132D02*
X39550Y-55145D01*
X39497Y-55271D01*
X37788Y-55271D01*
X37792Y-55267D01*
X37848Y-55132D01*
X37848Y-54986D01*
X37792Y-54850D01*
X37789Y-54847D01*
X37789Y-53706D01*
X37733Y-53571D01*
X37630Y-53467D01*
X37494Y-53411D01*
X37348Y-53411D01*
X37213Y-53467D01*
X37109Y-53570D01*
X37053Y-53705D01*
X37053Y-53852D01*
X37109Y-53987D01*
X37212Y-54091D01*
X37347Y-54147D01*
X37494Y-54147D01*
X37629Y-54091D01*
X37733Y-53988D01*
X37789Y-53853D01*
X37789Y-53706D01*
X37789Y-54847D01*
X37689Y-54747D01*
X37553Y-54691D01*
X37407Y-54690D01*
X37272Y-54746D01*
X37168Y-54850D01*
X37112Y-54985D01*
X37112Y-55131D01*
X37168Y-55267D01*
X37172Y-55271D01*
X34610Y-55271D01*
X34610Y-52860D01*
X34841Y-53091D01*
X34841Y-53091D01*
X34986Y-53188D01*
X35157Y-53222D01*
X35157Y-53222D01*
X36751Y-53222D01*
X36922Y-53188D01*
X37067Y-53091D01*
X37164Y-52946D01*
X37198Y-52775D01*
X37164Y-52604D01*
X37089Y-52491D01*
X39563Y-52519D01*
X39563Y-55132D01*
G54D10*
G36*
X34468Y-47914D02*
X34527Y-47913D01*
X34468Y-47913D01*
X34468Y-47914D01*
X34468Y-47914D01*
G37*
G54D25*
X34468Y-47914D02*
X34527Y-47913D01*
X34468Y-47913D01*
X34468Y-47914D01*
G54D10*
G36*
X41248Y-41634D02*
X38680Y-44281D01*
X38650Y-44294D01*
X38546Y-44397D01*
X38530Y-44436D01*
X38184Y-44793D01*
X38275Y-47546D01*
X37395Y-47515D01*
X37395Y-45773D01*
X37339Y-45638D01*
X37236Y-45534D01*
X37101Y-45478D01*
X36954Y-45478D01*
X36819Y-45534D01*
X36715Y-45637D01*
X36659Y-45772D01*
X36659Y-45919D01*
X36715Y-46054D01*
X36818Y-46158D01*
X36954Y-46214D01*
X37100Y-46214D01*
X37235Y-46158D01*
X37339Y-46055D01*
X37395Y-45919D01*
X37395Y-45773D01*
X37395Y-47515D01*
X36709Y-47490D01*
X36506Y-46901D01*
X36519Y-41578D01*
X36639Y-41627D01*
X36785Y-41628D01*
X36920Y-41572D01*
X37024Y-41468D01*
X37071Y-41354D01*
X37117Y-41335D01*
X37221Y-41232D01*
X37277Y-41097D01*
X37277Y-41067D01*
X37294Y-41060D01*
X37398Y-40956D01*
X37454Y-40821D01*
X37454Y-40675D01*
X37398Y-40539D01*
X37295Y-40436D01*
X37160Y-40379D01*
X37013Y-40379D01*
X36883Y-40433D01*
X36883Y-40340D01*
X36879Y-40328D01*
X36923Y-40328D01*
X37058Y-40272D01*
X37162Y-40169D01*
X37218Y-40034D01*
X37218Y-39887D01*
X37162Y-39752D01*
X37059Y-39648D01*
X36923Y-39592D01*
X36777Y-39592D01*
X36642Y-39648D01*
X36638Y-39652D01*
X36589Y-39631D01*
X36523Y-39631D01*
X36524Y-39304D01*
X36812Y-39016D01*
X36908Y-38871D01*
X36908Y-38871D01*
X36942Y-38700D01*
X36942Y-38654D01*
X37983Y-38708D01*
X38065Y-41197D01*
X38014Y-41247D01*
X37958Y-41383D01*
X37958Y-41529D01*
X38014Y-41664D01*
X38082Y-41733D01*
X38096Y-42131D01*
X38073Y-42153D01*
X38017Y-42288D01*
X38017Y-42435D01*
X38073Y-42570D01*
X38111Y-42608D01*
X38150Y-43772D01*
X40557Y-41399D01*
X40557Y-41509D01*
X40612Y-41645D01*
X40716Y-41748D01*
X40851Y-41805D01*
X40998Y-41805D01*
X41133Y-41749D01*
X41237Y-41645D01*
X41243Y-41629D01*
X41248Y-41634D01*
X41248Y-41634D01*
G37*
G54D25*
X41248Y-41634D02*
X38680Y-44281D01*
X38650Y-44294D01*
X38546Y-44397D01*
X38530Y-44436D01*
X38184Y-44793D01*
X38275Y-47546D01*
X37395Y-47515D01*
X37395Y-45773D01*
X37339Y-45638D01*
X37236Y-45534D01*
X37101Y-45478D01*
X36954Y-45478D01*
X36819Y-45534D01*
X36715Y-45637D01*
X36659Y-45772D01*
X36659Y-45919D01*
X36715Y-46054D01*
X36818Y-46158D01*
X36954Y-46214D01*
X37100Y-46214D01*
X37235Y-46158D01*
X37339Y-46055D01*
X37395Y-45919D01*
X37395Y-45773D01*
X37395Y-47515D01*
X36709Y-47490D01*
X36506Y-46901D01*
X36519Y-41578D01*
X36639Y-41627D01*
X36785Y-41628D01*
X36920Y-41572D01*
X37024Y-41468D01*
X37071Y-41354D01*
X37117Y-41335D01*
X37221Y-41232D01*
X37277Y-41097D01*
X37277Y-41067D01*
X37294Y-41060D01*
X37398Y-40956D01*
X37454Y-40821D01*
X37454Y-40675D01*
X37398Y-40539D01*
X37295Y-40436D01*
X37160Y-40379D01*
X37013Y-40379D01*
X36883Y-40433D01*
X36883Y-40340D01*
X36879Y-40328D01*
X36923Y-40328D01*
X37058Y-40272D01*
X37162Y-40169D01*
X37218Y-40034D01*
X37218Y-39887D01*
X37162Y-39752D01*
X37059Y-39648D01*
X36923Y-39592D01*
X36777Y-39592D01*
X36642Y-39648D01*
X36638Y-39652D01*
X36589Y-39631D01*
X36523Y-39631D01*
X36524Y-39304D01*
X36812Y-39016D01*
X36908Y-38871D01*
X36908Y-38871D01*
X36942Y-38700D01*
X36942Y-38654D01*
X37983Y-38708D01*
X38065Y-41197D01*
X38014Y-41247D01*
X37958Y-41383D01*
X37958Y-41529D01*
X38014Y-41664D01*
X38082Y-41733D01*
X38096Y-42131D01*
X38073Y-42153D01*
X38017Y-42288D01*
X38017Y-42435D01*
X38073Y-42570D01*
X38111Y-42608D01*
X38150Y-43772D01*
X40557Y-41399D01*
X40557Y-41509D01*
X40612Y-41645D01*
X40716Y-41748D01*
X40851Y-41805D01*
X40998Y-41805D01*
X41133Y-41749D01*
X41237Y-41645D01*
X41243Y-41629D01*
X41248Y-41634D01*
G54D10*
G36*
X43731Y-40320D02*
X43686Y-40320D01*
X43551Y-40376D01*
X43447Y-40480D01*
X43391Y-40615D01*
X43391Y-40751D01*
X42106Y-40677D01*
X41293Y-41490D01*
X41293Y-41364D01*
X41237Y-41228D01*
X41133Y-41125D01*
X40998Y-41068D01*
X40852Y-41068D01*
X40852Y-41068D01*
X41505Y-40415D01*
X41570Y-39454D01*
X41597Y-39519D01*
X41700Y-39622D01*
X41835Y-39679D01*
X41982Y-39679D01*
X42117Y-39623D01*
X42221Y-39519D01*
X42277Y-39384D01*
X42277Y-39262D01*
X42569Y-39262D01*
X42569Y-37272D01*
X41408Y-37272D01*
X41339Y-37203D01*
X41214Y-37120D01*
X41293Y-37120D01*
X41428Y-37064D01*
X41442Y-37050D01*
X42569Y-37017D01*
X42569Y-36998D01*
X42884Y-36998D01*
X42931Y-38851D01*
X42916Y-38866D01*
X42877Y-38960D01*
X42783Y-38998D01*
X42680Y-39102D01*
X42624Y-39237D01*
X42623Y-39383D01*
X42679Y-39519D01*
X42783Y-39622D01*
X42918Y-39679D01*
X43065Y-39679D01*
X43200Y-39623D01*
X43304Y-39519D01*
X43311Y-39501D01*
X43413Y-39603D01*
X43548Y-39659D01*
X43683Y-39659D01*
X43731Y-40320D01*
X43731Y-40320D01*
G37*
G54D25*
X43731Y-40320D02*
X43686Y-40320D01*
X43551Y-40376D01*
X43447Y-40480D01*
X43391Y-40615D01*
X43391Y-40751D01*
X42106Y-40677D01*
X41293Y-41490D01*
X41293Y-41364D01*
X41237Y-41228D01*
X41133Y-41125D01*
X40998Y-41068D01*
X40852Y-41068D01*
X40852Y-41068D01*
X41505Y-40415D01*
X41570Y-39454D01*
X41597Y-39519D01*
X41700Y-39622D01*
X41835Y-39679D01*
X41982Y-39679D01*
X42117Y-39623D01*
X42221Y-39519D01*
X42277Y-39384D01*
X42277Y-39262D01*
X42569Y-39262D01*
X42569Y-37272D01*
X41408Y-37272D01*
X41339Y-37203D01*
X41214Y-37120D01*
X41293Y-37120D01*
X41428Y-37064D01*
X41442Y-37050D01*
X42569Y-37017D01*
X42569Y-36998D01*
X42884Y-36998D01*
X42931Y-38851D01*
X42916Y-38866D01*
X42877Y-38960D01*
X42783Y-38998D01*
X42680Y-39102D01*
X42624Y-39237D01*
X42623Y-39383D01*
X42679Y-39519D01*
X42783Y-39622D01*
X42918Y-39679D01*
X43065Y-39679D01*
X43200Y-39623D01*
X43304Y-39519D01*
X43311Y-39501D01*
X43413Y-39603D01*
X43548Y-39659D01*
X43683Y-39659D01*
X43731Y-40320D01*
G54D10*
G36*
X48391Y-32601D02*
X48384Y-32906D01*
X48321Y-32879D01*
X48175Y-32879D01*
X48039Y-32935D01*
X47936Y-33039D01*
X47879Y-33174D01*
X47879Y-33320D01*
X47896Y-33360D01*
X47829Y-33332D01*
X47789Y-33332D01*
X47789Y-32938D01*
X47733Y-32803D01*
X47630Y-32699D01*
X47494Y-32643D01*
X47348Y-32643D01*
X47213Y-32699D01*
X47109Y-32803D01*
X47053Y-32938D01*
X47053Y-33084D01*
X47066Y-33116D01*
X46974Y-33116D01*
X46838Y-33172D01*
X46735Y-33275D01*
X46679Y-33410D01*
X46679Y-33557D01*
X46734Y-33692D01*
X46838Y-33796D01*
X46973Y-33852D01*
X47120Y-33852D01*
X47255Y-33796D01*
X47359Y-33693D01*
X47415Y-33557D01*
X47415Y-33411D01*
X47402Y-33379D01*
X47494Y-33379D01*
X47629Y-33324D01*
X47733Y-33220D01*
X47789Y-33085D01*
X47789Y-32938D01*
X47789Y-33332D01*
X47683Y-33332D01*
X47547Y-33388D01*
X47444Y-33491D01*
X47387Y-33627D01*
X47387Y-33773D01*
X47443Y-33909D01*
X47547Y-34012D01*
X47682Y-34068D01*
X47798Y-34068D01*
X47891Y-34161D01*
X48026Y-34218D01*
X48172Y-34218D01*
X48308Y-34162D01*
X48358Y-34111D01*
X48356Y-34221D01*
X46867Y-34221D01*
X46867Y-34220D01*
X46763Y-34117D01*
X46667Y-34077D01*
X46686Y-34030D01*
X46687Y-33883D01*
X46631Y-33748D01*
X46527Y-33644D01*
X46392Y-33588D01*
X46245Y-33588D01*
X46220Y-33599D01*
X46153Y-33097D01*
X46175Y-33045D01*
X46175Y-32899D01*
X46147Y-32832D01*
X46133Y-32038D01*
X47423Y-32038D01*
X47368Y-32170D01*
X47368Y-32316D01*
X47423Y-32452D01*
X47527Y-32555D01*
X47662Y-32612D01*
X47715Y-32612D01*
X47738Y-32668D01*
X47842Y-32772D01*
X47977Y-32828D01*
X48124Y-32828D01*
X48259Y-32772D01*
X48363Y-32669D01*
X48391Y-32601D01*
X48391Y-32601D01*
G37*
G54D25*
X48391Y-32601D02*
X48384Y-32906D01*
X48321Y-32879D01*
X48175Y-32879D01*
X48039Y-32935D01*
X47936Y-33039D01*
X47879Y-33174D01*
X47879Y-33320D01*
X47896Y-33360D01*
X47829Y-33332D01*
X47789Y-33332D01*
X47789Y-32938D01*
X47733Y-32803D01*
X47630Y-32699D01*
X47494Y-32643D01*
X47348Y-32643D01*
X47213Y-32699D01*
X47109Y-32803D01*
X47053Y-32938D01*
X47053Y-33084D01*
X47066Y-33116D01*
X46974Y-33116D01*
X46838Y-33172D01*
X46735Y-33275D01*
X46679Y-33410D01*
X46679Y-33557D01*
X46734Y-33692D01*
X46838Y-33796D01*
X46973Y-33852D01*
X47120Y-33852D01*
X47255Y-33796D01*
X47359Y-33693D01*
X47415Y-33557D01*
X47415Y-33411D01*
X47402Y-33379D01*
X47494Y-33379D01*
X47629Y-33324D01*
X47733Y-33220D01*
X47789Y-33085D01*
X47789Y-32938D01*
X47789Y-33332D01*
X47683Y-33332D01*
X47547Y-33388D01*
X47444Y-33491D01*
X47387Y-33627D01*
X47387Y-33773D01*
X47443Y-33909D01*
X47547Y-34012D01*
X47682Y-34068D01*
X47798Y-34068D01*
X47891Y-34161D01*
X48026Y-34218D01*
X48172Y-34218D01*
X48308Y-34162D01*
X48358Y-34111D01*
X48356Y-34221D01*
X46867Y-34221D01*
X46867Y-34220D01*
X46763Y-34117D01*
X46667Y-34077D01*
X46686Y-34030D01*
X46687Y-33883D01*
X46631Y-33748D01*
X46527Y-33644D01*
X46392Y-33588D01*
X46245Y-33588D01*
X46220Y-33599D01*
X46153Y-33097D01*
X46175Y-33045D01*
X46175Y-32899D01*
X46147Y-32832D01*
X46133Y-32038D01*
X47423Y-32038D01*
X47368Y-32170D01*
X47368Y-32316D01*
X47423Y-32452D01*
X47527Y-32555D01*
X47662Y-32612D01*
X47715Y-32612D01*
X47738Y-32668D01*
X47842Y-32772D01*
X47977Y-32828D01*
X48124Y-32828D01*
X48259Y-32772D01*
X48363Y-32669D01*
X48391Y-32601D01*
G54D10*
G36*
X42250Y-38846D02*
X41091Y-38828D01*
X41035Y-37593D01*
X41349Y-37659D01*
X41389Y-38534D01*
X42235Y-38534D01*
X42250Y-38846D01*
X42250Y-38846D01*
G37*
G54D25*
X42250Y-38846D02*
X41091Y-38828D01*
X41035Y-37593D01*
X41349Y-37659D01*
X41389Y-38534D01*
X42235Y-38534D01*
X42250Y-38846D01*
G54D10*
G36*
X40025Y-51721D02*
X39400Y-51721D01*
X39400Y-51301D01*
X39356Y-51196D01*
X39276Y-51115D01*
X39171Y-51072D01*
X39057Y-51071D01*
X38952Y-51115D01*
X38871Y-51195D01*
X38828Y-51301D01*
X38827Y-51414D01*
X38871Y-51520D01*
X38951Y-51600D01*
X39056Y-51644D01*
X39170Y-51644D01*
X39276Y-51601D01*
X39356Y-51520D01*
X39400Y-51415D01*
X39400Y-51301D01*
X39400Y-51721D01*
X35955Y-51721D01*
X35955Y-51417D01*
X35955Y-51292D01*
X36675Y-50573D01*
X36675Y-50573D01*
X36754Y-50454D01*
X36782Y-50314D01*
X36782Y-50314D01*
X36782Y-49665D01*
X36754Y-49525D01*
X36675Y-49407D01*
X36380Y-49112D01*
X36368Y-49104D01*
X36368Y-47971D01*
X39044Y-47980D01*
X39044Y-47989D01*
X39087Y-48094D01*
X39168Y-48175D01*
X39273Y-48219D01*
X39332Y-48219D01*
X39324Y-48226D01*
X39268Y-48264D01*
X39244Y-48299D01*
X39213Y-48328D01*
X39184Y-48389D01*
X39146Y-48446D01*
X39138Y-48488D01*
X39119Y-48526D01*
X39116Y-48594D01*
X39103Y-48661D01*
X39111Y-48703D01*
X39109Y-48745D01*
X39133Y-48809D01*
X39146Y-48876D01*
X39169Y-48911D01*
X39184Y-48951D01*
X39230Y-49001D01*
X39268Y-49058D01*
X39405Y-49196D01*
X39405Y-49196D01*
X39588Y-49318D01*
X39803Y-49361D01*
X39803Y-49361D01*
X39803Y-49361D01*
X39892Y-49361D01*
X39914Y-49756D01*
X39908Y-49739D01*
X39827Y-49659D01*
X39722Y-49615D01*
X39608Y-49615D01*
X39503Y-49658D01*
X39422Y-49739D01*
X39379Y-49844D01*
X39379Y-49958D01*
X39422Y-50063D01*
X39503Y-50144D01*
X39608Y-50187D01*
X39722Y-50187D01*
X39827Y-50144D01*
X39907Y-50063D01*
X39929Y-50012D01*
X40025Y-51721D01*
X40025Y-51721D01*
G37*
G54D25*
X40025Y-51721D02*
X39400Y-51721D01*
X39400Y-51301D01*
X39356Y-51196D01*
X39276Y-51115D01*
X39171Y-51072D01*
X39057Y-51071D01*
X38952Y-51115D01*
X38871Y-51195D01*
X38828Y-51301D01*
X38827Y-51414D01*
X38871Y-51520D01*
X38951Y-51600D01*
X39056Y-51644D01*
X39170Y-51644D01*
X39276Y-51601D01*
X39356Y-51520D01*
X39400Y-51415D01*
X39400Y-51301D01*
X39400Y-51721D01*
X35955Y-51721D01*
X35955Y-51417D01*
X35955Y-51292D01*
X36675Y-50573D01*
X36675Y-50573D01*
X36754Y-50454D01*
X36782Y-50314D01*
X36782Y-50314D01*
X36782Y-49665D01*
X36754Y-49525D01*
X36675Y-49407D01*
X36380Y-49112D01*
X36368Y-49104D01*
X36368Y-47971D01*
X39044Y-47980D01*
X39044Y-47989D01*
X39087Y-48094D01*
X39168Y-48175D01*
X39273Y-48219D01*
X39332Y-48219D01*
X39324Y-48226D01*
X39268Y-48264D01*
X39244Y-48299D01*
X39213Y-48328D01*
X39184Y-48389D01*
X39146Y-48446D01*
X39138Y-48488D01*
X39119Y-48526D01*
X39116Y-48594D01*
X39103Y-48661D01*
X39111Y-48703D01*
X39109Y-48745D01*
X39133Y-48809D01*
X39146Y-48876D01*
X39169Y-48911D01*
X39184Y-48951D01*
X39230Y-49001D01*
X39268Y-49058D01*
X39405Y-49196D01*
X39405Y-49196D01*
X39588Y-49318D01*
X39803Y-49361D01*
X39803Y-49361D01*
X39803Y-49361D01*
X39892Y-49361D01*
X39914Y-49756D01*
X39908Y-49739D01*
X39827Y-49659D01*
X39722Y-49615D01*
X39608Y-49615D01*
X39503Y-49658D01*
X39422Y-49739D01*
X39379Y-49844D01*
X39379Y-49958D01*
X39422Y-50063D01*
X39503Y-50144D01*
X39608Y-50187D01*
X39722Y-50187D01*
X39827Y-50144D01*
X39907Y-50063D01*
X39929Y-50012D01*
X40025Y-51721D01*
G54D10*
G36*
X49418Y-27794D02*
X46879Y-27836D01*
X46935Y-27780D01*
X46979Y-27675D01*
X46979Y-27561D01*
X46935Y-27456D01*
X46855Y-27375D01*
X46750Y-27331D01*
X46636Y-27331D01*
X46530Y-27375D01*
X46491Y-27415D01*
X46498Y-26547D01*
X46559Y-26522D01*
X46584Y-26497D01*
X46628Y-26541D01*
X46734Y-26585D01*
X46848Y-26585D01*
X46953Y-26541D01*
X47033Y-26461D01*
X47077Y-26356D01*
X47077Y-26242D01*
X47034Y-26137D01*
X47028Y-26131D01*
X47047Y-26113D01*
X47081Y-26148D01*
X47186Y-26191D01*
X47300Y-26191D01*
X47406Y-26148D01*
X47460Y-26093D01*
X47534Y-26167D01*
X47639Y-26211D01*
X47753Y-26211D01*
X47858Y-26167D01*
X47939Y-26087D01*
X47983Y-25982D01*
X47983Y-25868D01*
X47939Y-25763D01*
X47859Y-25682D01*
X47754Y-25639D01*
X47640Y-25638D01*
X47534Y-25682D01*
X47480Y-25736D01*
X47406Y-25663D01*
X47402Y-25661D01*
X47402Y-25630D01*
X48439Y-25630D01*
X48427Y-25658D01*
X48348Y-25658D01*
X48243Y-25702D01*
X48163Y-25782D01*
X48119Y-25887D01*
X48119Y-26001D01*
X48162Y-26106D01*
X48243Y-26187D01*
X48348Y-26231D01*
X48462Y-26231D01*
X48567Y-26187D01*
X48648Y-26107D01*
X48666Y-26062D01*
X49418Y-26814D01*
X49418Y-27794D01*
X49418Y-27794D01*
G37*
G54D25*
X49418Y-27794D02*
X46879Y-27836D01*
X46935Y-27780D01*
X46979Y-27675D01*
X46979Y-27561D01*
X46935Y-27456D01*
X46855Y-27375D01*
X46750Y-27331D01*
X46636Y-27331D01*
X46530Y-27375D01*
X46491Y-27415D01*
X46498Y-26547D01*
X46559Y-26522D01*
X46584Y-26497D01*
X46628Y-26541D01*
X46734Y-26585D01*
X46848Y-26585D01*
X46953Y-26541D01*
X47033Y-26461D01*
X47077Y-26356D01*
X47077Y-26242D01*
X47034Y-26137D01*
X47028Y-26131D01*
X47047Y-26113D01*
X47081Y-26148D01*
X47186Y-26191D01*
X47300Y-26191D01*
X47406Y-26148D01*
X47460Y-26093D01*
X47534Y-26167D01*
X47639Y-26211D01*
X47753Y-26211D01*
X47858Y-26167D01*
X47939Y-26087D01*
X47983Y-25982D01*
X47983Y-25868D01*
X47939Y-25763D01*
X47859Y-25682D01*
X47754Y-25639D01*
X47640Y-25638D01*
X47534Y-25682D01*
X47480Y-25736D01*
X47406Y-25663D01*
X47402Y-25661D01*
X47402Y-25630D01*
X48439Y-25630D01*
X48427Y-25658D01*
X48348Y-25658D01*
X48243Y-25702D01*
X48163Y-25782D01*
X48119Y-25887D01*
X48119Y-26001D01*
X48162Y-26106D01*
X48243Y-26187D01*
X48348Y-26231D01*
X48462Y-26231D01*
X48567Y-26187D01*
X48648Y-26107D01*
X48666Y-26062D01*
X49418Y-26814D01*
X49418Y-27794D01*
G54D10*
G36*
X47783Y-38749D02*
X47490Y-38749D01*
X47490Y-35081D01*
X47447Y-34975D01*
X47367Y-34895D01*
X47261Y-34851D01*
X47148Y-34851D01*
X47042Y-34895D01*
X46962Y-34975D01*
X46918Y-35080D01*
X46918Y-35194D01*
X46961Y-35299D01*
X47042Y-35380D01*
X47147Y-35423D01*
X47261Y-35424D01*
X47366Y-35380D01*
X47447Y-35300D01*
X47490Y-35194D01*
X47490Y-35081D01*
X47490Y-38749D01*
X46399Y-38749D01*
X46293Y-38742D01*
X46284Y-38733D01*
X46179Y-38690D01*
X46065Y-38690D01*
X45983Y-38723D01*
X43237Y-38555D01*
X43179Y-36749D01*
X41953Y-35584D01*
X40897Y-35356D01*
X40957Y-35237D01*
X40974Y-32710D01*
X42843Y-33419D01*
X42751Y-33458D01*
X42670Y-33538D01*
X42627Y-33643D01*
X42627Y-33757D01*
X42670Y-33862D01*
X42751Y-33943D01*
X42856Y-33986D01*
X42970Y-33987D01*
X43075Y-33943D01*
X43155Y-33863D01*
X43199Y-33757D01*
X43199Y-33644D01*
X43156Y-33538D01*
X43155Y-33538D01*
X43276Y-33584D01*
X43276Y-33619D01*
X43320Y-33724D01*
X43400Y-33805D01*
X43505Y-33849D01*
X43619Y-33849D01*
X43724Y-33805D01*
X43762Y-33768D01*
X44043Y-33875D01*
X44043Y-33971D01*
X44043Y-34084D01*
X44023Y-34084D01*
X43863Y-34084D01*
X43819Y-34102D01*
X43775Y-34084D01*
X43708Y-34084D01*
X43548Y-34084D01*
X43486Y-34110D01*
X43439Y-34157D01*
X43413Y-34219D01*
X43413Y-34286D01*
X43413Y-35072D01*
X43413Y-35607D01*
X43410Y-35603D01*
X43305Y-35560D01*
X43191Y-35560D01*
X43086Y-35603D01*
X43005Y-35684D01*
X42961Y-35789D01*
X42961Y-35903D01*
X43005Y-36008D01*
X43085Y-36088D01*
X43190Y-36132D01*
X43304Y-36132D01*
X43409Y-36089D01*
X43413Y-36085D01*
X43413Y-36648D01*
X43413Y-37434D01*
X43439Y-37495D01*
X43486Y-37543D01*
X43548Y-37568D01*
X43615Y-37568D01*
X43775Y-37568D01*
X43819Y-37550D01*
X43863Y-37568D01*
X43930Y-37568D01*
X44043Y-37568D01*
X44043Y-37749D01*
X44043Y-38064D01*
X44069Y-38125D01*
X44116Y-38173D01*
X44178Y-38198D01*
X44245Y-38198D01*
X44405Y-38198D01*
X44467Y-38173D01*
X44514Y-38126D01*
X44540Y-38064D01*
X44540Y-37997D01*
X44540Y-37682D01*
X44540Y-37175D01*
X44829Y-37175D01*
X44829Y-37749D01*
X44829Y-38064D01*
X44855Y-38125D01*
X44902Y-38173D01*
X44964Y-38198D01*
X45031Y-38198D01*
X45191Y-38198D01*
X45253Y-38173D01*
X45300Y-38126D01*
X45326Y-38064D01*
X45326Y-37997D01*
X45326Y-37682D01*
X45326Y-37568D01*
X45346Y-37568D01*
X45506Y-37568D01*
X45550Y-37550D01*
X45594Y-37568D01*
X45661Y-37568D01*
X45821Y-37568D01*
X45883Y-37543D01*
X45930Y-37496D01*
X45956Y-37434D01*
X45956Y-37367D01*
X45956Y-36581D01*
X45956Y-35005D01*
X45956Y-34601D01*
X46152Y-34676D01*
X46392Y-34670D01*
X46392Y-34671D01*
X46497Y-34715D01*
X46611Y-34715D01*
X46717Y-34671D01*
X46725Y-34663D01*
X47041Y-34656D01*
X47726Y-34841D01*
X47783Y-38749D01*
X47783Y-38749D01*
G37*
G54D25*
X47783Y-38749D02*
X47490Y-38749D01*
X47490Y-35081D01*
X47447Y-34975D01*
X47367Y-34895D01*
X47261Y-34851D01*
X47148Y-34851D01*
X47042Y-34895D01*
X46962Y-34975D01*
X46918Y-35080D01*
X46918Y-35194D01*
X46961Y-35299D01*
X47042Y-35380D01*
X47147Y-35423D01*
X47261Y-35424D01*
X47366Y-35380D01*
X47447Y-35300D01*
X47490Y-35194D01*
X47490Y-35081D01*
X47490Y-38749D01*
X46399Y-38749D01*
X46293Y-38742D01*
X46284Y-38733D01*
X46179Y-38690D01*
X46065Y-38690D01*
X45983Y-38723D01*
X43237Y-38555D01*
X43179Y-36749D01*
X41953Y-35584D01*
X40897Y-35356D01*
X40957Y-35237D01*
X40974Y-32710D01*
X42843Y-33419D01*
X42751Y-33458D01*
X42670Y-33538D01*
X42627Y-33643D01*
X42627Y-33757D01*
X42670Y-33862D01*
X42751Y-33943D01*
X42856Y-33986D01*
X42970Y-33987D01*
X43075Y-33943D01*
X43155Y-33863D01*
X43199Y-33757D01*
X43199Y-33644D01*
X43156Y-33538D01*
X43155Y-33538D01*
X43276Y-33584D01*
X43276Y-33619D01*
X43320Y-33724D01*
X43400Y-33805D01*
X43505Y-33849D01*
X43619Y-33849D01*
X43724Y-33805D01*
X43762Y-33768D01*
X44043Y-33875D01*
X44043Y-33971D01*
X44043Y-34084D01*
X44023Y-34084D01*
X43863Y-34084D01*
X43819Y-34102D01*
X43775Y-34084D01*
X43708Y-34084D01*
X43548Y-34084D01*
X43486Y-34110D01*
X43439Y-34157D01*
X43413Y-34219D01*
X43413Y-34286D01*
X43413Y-35072D01*
X43413Y-35607D01*
X43410Y-35603D01*
X43305Y-35560D01*
X43191Y-35560D01*
X43086Y-35603D01*
X43005Y-35684D01*
X42961Y-35789D01*
X42961Y-35903D01*
X43005Y-36008D01*
X43085Y-36088D01*
X43190Y-36132D01*
X43304Y-36132D01*
X43409Y-36089D01*
X43413Y-36085D01*
X43413Y-36648D01*
X43413Y-37434D01*
X43439Y-37495D01*
X43486Y-37543D01*
X43548Y-37568D01*
X43615Y-37568D01*
X43775Y-37568D01*
X43819Y-37550D01*
X43863Y-37568D01*
X43930Y-37568D01*
X44043Y-37568D01*
X44043Y-37749D01*
X44043Y-38064D01*
X44069Y-38125D01*
X44116Y-38173D01*
X44178Y-38198D01*
X44245Y-38198D01*
X44405Y-38198D01*
X44467Y-38173D01*
X44514Y-38126D01*
X44540Y-38064D01*
X44540Y-37997D01*
X44540Y-37682D01*
X44540Y-37175D01*
X44829Y-37175D01*
X44829Y-37749D01*
X44829Y-38064D01*
X44855Y-38125D01*
X44902Y-38173D01*
X44964Y-38198D01*
X45031Y-38198D01*
X45191Y-38198D01*
X45253Y-38173D01*
X45300Y-38126D01*
X45326Y-38064D01*
X45326Y-37997D01*
X45326Y-37682D01*
X45326Y-37568D01*
X45346Y-37568D01*
X45506Y-37568D01*
X45550Y-37550D01*
X45594Y-37568D01*
X45661Y-37568D01*
X45821Y-37568D01*
X45883Y-37543D01*
X45930Y-37496D01*
X45956Y-37434D01*
X45956Y-37367D01*
X45956Y-36581D01*
X45956Y-35005D01*
X45956Y-34601D01*
X46152Y-34676D01*
X46392Y-34670D01*
X46392Y-34671D01*
X46497Y-34715D01*
X46611Y-34715D01*
X46717Y-34671D01*
X46725Y-34663D01*
X47041Y-34656D01*
X47726Y-34841D01*
X47783Y-38749D01*
G54D10*
G36*
X53837Y-22293D02*
X49482Y-22334D01*
X49330Y-22616D01*
X49309Y-22607D01*
X49195Y-22607D01*
X49090Y-22650D01*
X49009Y-22731D01*
X48965Y-22836D01*
X48965Y-22950D01*
X49009Y-23055D01*
X49063Y-23110D01*
X48985Y-23255D01*
X48985Y-24146D01*
X48629Y-24383D01*
X48650Y-24745D01*
X48650Y-24820D01*
X48655Y-24833D01*
X48672Y-25107D01*
X48808Y-25193D01*
X48754Y-25205D01*
X47690Y-25205D01*
X47721Y-25175D01*
X47746Y-25113D01*
X47746Y-25048D01*
X47865Y-25048D01*
X47927Y-25022D01*
X47975Y-24975D01*
X48000Y-24913D01*
X48000Y-24846D01*
X48000Y-24794D01*
X48115Y-24794D01*
X48177Y-24768D01*
X48225Y-24721D01*
X48250Y-24659D01*
X48250Y-24592D01*
X48250Y-23844D01*
X48225Y-23782D01*
X48178Y-23735D01*
X48116Y-23709D01*
X48049Y-23709D01*
X48000Y-23709D01*
X48000Y-23590D01*
X47975Y-23528D01*
X47928Y-23481D01*
X47866Y-23455D01*
X47799Y-23455D01*
X47746Y-23455D01*
X47746Y-23390D01*
X47721Y-23328D01*
X47674Y-23281D01*
X47612Y-23255D01*
X47545Y-23255D01*
X46797Y-23255D01*
X46735Y-23281D01*
X46688Y-23328D01*
X46662Y-23390D01*
X46662Y-23455D01*
X46543Y-23455D01*
X46481Y-23481D01*
X46434Y-23528D01*
X46408Y-23590D01*
X46408Y-23657D01*
X46408Y-23709D01*
X46293Y-23709D01*
X46231Y-23735D01*
X46184Y-23782D01*
X46158Y-23844D01*
X46158Y-23911D01*
X46158Y-24659D01*
X46184Y-24721D01*
X46231Y-24768D01*
X46293Y-24794D01*
X46360Y-24794D01*
X46408Y-24794D01*
X46408Y-24913D01*
X46434Y-24975D01*
X46481Y-25022D01*
X46543Y-25048D01*
X46610Y-25048D01*
X46662Y-25048D01*
X46662Y-25113D01*
X46688Y-25175D01*
X46716Y-25203D01*
X45404Y-25186D01*
X45404Y-23957D01*
X45419Y-23941D01*
X45463Y-23836D01*
X45463Y-23722D01*
X45419Y-23617D01*
X45404Y-23601D01*
X45404Y-23050D01*
X45386Y-22451D01*
X45409Y-22429D01*
X45983Y-22408D01*
X45983Y-22539D01*
X45998Y-22615D01*
X46041Y-22679D01*
X46415Y-23053D01*
X46415Y-23053D01*
X46435Y-23072D01*
X46435Y-23072D01*
X46499Y-23115D01*
X46574Y-23130D01*
X47972Y-23130D01*
X48048Y-23115D01*
X48112Y-23072D01*
X48249Y-22935D01*
X48249Y-22935D01*
X48249Y-22935D01*
X48292Y-22870D01*
X48307Y-22795D01*
X48307Y-22795D01*
X48307Y-22795D01*
X48307Y-22503D01*
X48411Y-22399D01*
X48464Y-22452D01*
X48460Y-22454D01*
X48379Y-22534D01*
X48335Y-22639D01*
X48335Y-22753D01*
X48379Y-22858D01*
X48459Y-22939D01*
X48564Y-22983D01*
X48678Y-22983D01*
X48783Y-22939D01*
X48864Y-22859D01*
X48908Y-22754D01*
X48908Y-22640D01*
X48864Y-22534D01*
X48799Y-22469D01*
X48803Y-22467D01*
X48884Y-22386D01*
X48912Y-22319D01*
X48931Y-22303D01*
X49658Y-22277D01*
X49745Y-22313D01*
X49859Y-22313D01*
X49959Y-22272D01*
X53837Y-22272D01*
X53837Y-22293D01*
X53837Y-22293D01*
G37*
G54D25*
X53837Y-22293D02*
X49482Y-22334D01*
X49330Y-22616D01*
X49309Y-22607D01*
X49195Y-22607D01*
X49090Y-22650D01*
X49009Y-22731D01*
X48965Y-22836D01*
X48965Y-22950D01*
X49009Y-23055D01*
X49063Y-23110D01*
X48985Y-23255D01*
X48985Y-24146D01*
X48629Y-24383D01*
X48650Y-24745D01*
X48650Y-24820D01*
X48655Y-24833D01*
X48672Y-25107D01*
X48808Y-25193D01*
X48754Y-25205D01*
X47690Y-25205D01*
X47721Y-25175D01*
X47746Y-25113D01*
X47746Y-25048D01*
X47865Y-25048D01*
X47927Y-25022D01*
X47975Y-24975D01*
X48000Y-24913D01*
X48000Y-24846D01*
X48000Y-24794D01*
X48115Y-24794D01*
X48177Y-24768D01*
X48225Y-24721D01*
X48250Y-24659D01*
X48250Y-24592D01*
X48250Y-23844D01*
X48225Y-23782D01*
X48178Y-23735D01*
X48116Y-23709D01*
X48049Y-23709D01*
X48000Y-23709D01*
X48000Y-23590D01*
X47975Y-23528D01*
X47928Y-23481D01*
X47866Y-23455D01*
X47799Y-23455D01*
X47746Y-23455D01*
X47746Y-23390D01*
X47721Y-23328D01*
X47674Y-23281D01*
X47612Y-23255D01*
X47545Y-23255D01*
X46797Y-23255D01*
X46735Y-23281D01*
X46688Y-23328D01*
X46662Y-23390D01*
X46662Y-23455D01*
X46543Y-23455D01*
X46481Y-23481D01*
X46434Y-23528D01*
X46408Y-23590D01*
X46408Y-23657D01*
X46408Y-23709D01*
X46293Y-23709D01*
X46231Y-23735D01*
X46184Y-23782D01*
X46158Y-23844D01*
X46158Y-23911D01*
X46158Y-24659D01*
X46184Y-24721D01*
X46231Y-24768D01*
X46293Y-24794D01*
X46360Y-24794D01*
X46408Y-24794D01*
X46408Y-24913D01*
X46434Y-24975D01*
X46481Y-25022D01*
X46543Y-25048D01*
X46610Y-25048D01*
X46662Y-25048D01*
X46662Y-25113D01*
X46688Y-25175D01*
X46716Y-25203D01*
X45404Y-25186D01*
X45404Y-23957D01*
X45419Y-23941D01*
X45463Y-23836D01*
X45463Y-23722D01*
X45419Y-23617D01*
X45404Y-23601D01*
X45404Y-23050D01*
X45386Y-22451D01*
X45409Y-22429D01*
X45983Y-22408D01*
X45983Y-22539D01*
X45998Y-22615D01*
X46041Y-22679D01*
X46415Y-23053D01*
X46415Y-23053D01*
X46435Y-23072D01*
X46435Y-23072D01*
X46499Y-23115D01*
X46574Y-23130D01*
X47972Y-23130D01*
X48048Y-23115D01*
X48112Y-23072D01*
X48249Y-22935D01*
X48249Y-22935D01*
X48249Y-22935D01*
X48292Y-22870D01*
X48307Y-22795D01*
X48307Y-22795D01*
X48307Y-22795D01*
X48307Y-22503D01*
X48411Y-22399D01*
X48464Y-22452D01*
X48460Y-22454D01*
X48379Y-22534D01*
X48335Y-22639D01*
X48335Y-22753D01*
X48379Y-22858D01*
X48459Y-22939D01*
X48564Y-22983D01*
X48678Y-22983D01*
X48783Y-22939D01*
X48864Y-22859D01*
X48908Y-22754D01*
X48908Y-22640D01*
X48864Y-22534D01*
X48799Y-22469D01*
X48803Y-22467D01*
X48884Y-22386D01*
X48912Y-22319D01*
X48931Y-22303D01*
X49658Y-22277D01*
X49745Y-22313D01*
X49859Y-22313D01*
X49959Y-22272D01*
X53837Y-22272D01*
X53837Y-22293D01*
M02*
