G04 (created by PCBNEW (2013-04-20 BZR 4024)-testing) date Сбт 20 Апр 2013 22:11:26*
%MOIN*%
G04 Gerber Fmt 3.4, Leading zero omitted, Abs format*
%FSLAX34Y34*%
G01*
G70*
G90*
G04 APERTURE LIST*
%ADD10C,0.006*%
%ADD11C,0.00590551*%
%ADD12C,0.007*%
%ADD13C,0.0026*%
%ADD14C,0.004*%
%ADD15C,0.005*%
%ADD16C,0.008*%
%ADD17C,0.0001*%
%ADD18C,0.012*%
%ADD19C,0.003*%
%ADD20C,0.0045*%
%ADD21C,0.0035*%
%ADD22C,0.00875*%
%ADD23C,0.00492126*%
G04 APERTURE END LIST*
G54D10*
G54D11*
X43956Y-23838D02*
G75*
G03X43366Y-24429I0J-590D01*
G74*
G01*
X44547Y-24429D02*
G75*
G03X43956Y-23838I-590J0D01*
G74*
G01*
X43366Y-24665D02*
G75*
G03X43956Y-25255I590J0D01*
G74*
G01*
X43956Y-25255D02*
G75*
G03X44547Y-24665I0J590D01*
G74*
G01*
X44547Y-24744D02*
X44547Y-24350D01*
X43366Y-24744D02*
X43366Y-24350D01*
G54D12*
X36220Y-36653D02*
X35354Y-36653D01*
X35393Y-36613D02*
X35393Y-36298D01*
X35472Y-36298D02*
X35472Y-36613D01*
X35433Y-36613D02*
X35433Y-36298D01*
X35511Y-36298D02*
X35511Y-36613D01*
X36063Y-36298D02*
X36063Y-36613D01*
X36102Y-36613D02*
X36102Y-36298D01*
X36141Y-36298D02*
X36141Y-36613D01*
X36181Y-36613D02*
X36181Y-36298D01*
X36220Y-36613D02*
X35354Y-36613D01*
X35354Y-36298D02*
X35511Y-36298D01*
X36220Y-36298D02*
X36063Y-36298D01*
X36220Y-37480D02*
X36063Y-37480D01*
X35354Y-37480D02*
X35511Y-37480D01*
X35354Y-36298D02*
X35354Y-37480D01*
X36220Y-36298D02*
X36220Y-37480D01*
G54D13*
X44134Y-22992D02*
X44488Y-22992D01*
X44488Y-22992D02*
X44488Y-22835D01*
X44134Y-22835D02*
X44488Y-22835D01*
X44134Y-22992D02*
X44134Y-22835D01*
X44134Y-23503D02*
X44488Y-23503D01*
X44488Y-23503D02*
X44488Y-23346D01*
X44134Y-23346D02*
X44488Y-23346D01*
X44134Y-23503D02*
X44134Y-23346D01*
X44134Y-23169D02*
X44193Y-23169D01*
X44193Y-23169D02*
X44193Y-23051D01*
X44134Y-23051D02*
X44193Y-23051D01*
X44134Y-23169D02*
X44134Y-23051D01*
X44429Y-23169D02*
X44488Y-23169D01*
X44488Y-23169D02*
X44488Y-23051D01*
X44429Y-23051D02*
X44488Y-23051D01*
X44429Y-23169D02*
X44429Y-23051D01*
X44252Y-23169D02*
X44370Y-23169D01*
X44370Y-23169D02*
X44370Y-23051D01*
X44252Y-23051D02*
X44370Y-23051D01*
X44252Y-23169D02*
X44252Y-23051D01*
G54D14*
X44154Y-22992D02*
X44154Y-23346D01*
X44468Y-22992D02*
X44468Y-23346D01*
G54D15*
X45045Y-46473D02*
X45045Y-45573D01*
X45045Y-45573D02*
X45545Y-45573D01*
X45545Y-45573D02*
X45545Y-46473D01*
X45545Y-46473D02*
X45045Y-46473D01*
X45525Y-43191D02*
X45525Y-44091D01*
X45525Y-44091D02*
X45025Y-44091D01*
X45025Y-44091D02*
X45025Y-43191D01*
X45025Y-43191D02*
X45525Y-43191D01*
X45505Y-47030D02*
X45505Y-47930D01*
X45505Y-47930D02*
X45005Y-47930D01*
X45005Y-47930D02*
X45005Y-47030D01*
X45005Y-47030D02*
X45505Y-47030D01*
X35398Y-48356D02*
X36098Y-48356D01*
X36098Y-48356D02*
X36098Y-49556D01*
X36098Y-49556D02*
X35398Y-49556D01*
X35398Y-49556D02*
X35398Y-48356D01*
X37751Y-54162D02*
X37051Y-54162D01*
X37051Y-54162D02*
X37051Y-52962D01*
X37051Y-52962D02*
X37751Y-52962D01*
X37751Y-52962D02*
X37751Y-54162D01*
G54D13*
X34498Y-46623D02*
X34833Y-46623D01*
X34833Y-46623D02*
X34833Y-46505D01*
X34498Y-46505D02*
X34833Y-46505D01*
X34498Y-46623D02*
X34498Y-46505D01*
X34695Y-46623D02*
X35030Y-46623D01*
X35030Y-46623D02*
X35030Y-46505D01*
X34695Y-46505D02*
X35030Y-46505D01*
X34695Y-46623D02*
X34695Y-46505D01*
X34892Y-46623D02*
X35227Y-46623D01*
X35227Y-46623D02*
X35227Y-46505D01*
X34892Y-46505D02*
X35227Y-46505D01*
X34892Y-46623D02*
X34892Y-46505D01*
X35089Y-46623D02*
X35424Y-46623D01*
X35424Y-46623D02*
X35424Y-46505D01*
X35089Y-46505D02*
X35424Y-46505D01*
X35089Y-46623D02*
X35089Y-46505D01*
X35286Y-46623D02*
X35620Y-46623D01*
X35620Y-46623D02*
X35620Y-46505D01*
X35286Y-46505D02*
X35620Y-46505D01*
X35286Y-46623D02*
X35286Y-46505D01*
X35483Y-46623D02*
X35817Y-46623D01*
X35817Y-46623D02*
X35817Y-46505D01*
X35483Y-46505D02*
X35817Y-46505D01*
X35483Y-46623D02*
X35483Y-46505D01*
X35679Y-46623D02*
X36014Y-46623D01*
X36014Y-46623D02*
X36014Y-46505D01*
X35679Y-46505D02*
X36014Y-46505D01*
X35679Y-46623D02*
X35679Y-46505D01*
X35876Y-46623D02*
X36211Y-46623D01*
X36211Y-46623D02*
X36211Y-46505D01*
X35876Y-46505D02*
X36211Y-46505D01*
X35876Y-46623D02*
X35876Y-46505D01*
X36073Y-46623D02*
X36408Y-46623D01*
X36408Y-46623D02*
X36408Y-46505D01*
X36073Y-46505D02*
X36408Y-46505D01*
X36073Y-46623D02*
X36073Y-46505D01*
X36270Y-46623D02*
X36605Y-46623D01*
X36605Y-46623D02*
X36605Y-46505D01*
X36270Y-46505D02*
X36605Y-46505D01*
X36270Y-46623D02*
X36270Y-46505D01*
X36467Y-46623D02*
X36802Y-46623D01*
X36802Y-46623D02*
X36802Y-46505D01*
X36467Y-46505D02*
X36802Y-46505D01*
X36467Y-46623D02*
X36467Y-46505D01*
X36664Y-46623D02*
X36997Y-46623D01*
X36997Y-46623D02*
X36997Y-46505D01*
X36664Y-46505D02*
X36997Y-46505D01*
X36664Y-46623D02*
X36664Y-46505D01*
X36861Y-46623D02*
X37194Y-46623D01*
X37194Y-46623D02*
X37194Y-46505D01*
X36861Y-46505D02*
X37194Y-46505D01*
X36861Y-46623D02*
X36861Y-46505D01*
X37056Y-46623D02*
X37391Y-46623D01*
X37391Y-46623D02*
X37391Y-46505D01*
X37056Y-46505D02*
X37391Y-46505D01*
X37056Y-46623D02*
X37056Y-46505D01*
X37253Y-46623D02*
X37588Y-46623D01*
X37588Y-46623D02*
X37588Y-46505D01*
X37253Y-46505D02*
X37588Y-46505D01*
X37253Y-46623D02*
X37253Y-46505D01*
X37450Y-46623D02*
X37785Y-46623D01*
X37785Y-46623D02*
X37785Y-46505D01*
X37450Y-46505D02*
X37785Y-46505D01*
X37450Y-46623D02*
X37450Y-46505D01*
X37647Y-46623D02*
X37982Y-46623D01*
X37982Y-46623D02*
X37982Y-46505D01*
X37647Y-46505D02*
X37982Y-46505D01*
X37647Y-46623D02*
X37647Y-46505D01*
X37844Y-46623D02*
X38179Y-46623D01*
X38179Y-46623D02*
X38179Y-46505D01*
X37844Y-46505D02*
X38179Y-46505D01*
X37844Y-46623D02*
X37844Y-46505D01*
X38041Y-46623D02*
X38375Y-46623D01*
X38375Y-46623D02*
X38375Y-46505D01*
X38041Y-46505D02*
X38375Y-46505D01*
X38041Y-46623D02*
X38041Y-46505D01*
X38238Y-46623D02*
X38572Y-46623D01*
X38572Y-46623D02*
X38572Y-46505D01*
X38238Y-46505D02*
X38572Y-46505D01*
X38238Y-46623D02*
X38238Y-46505D01*
X38434Y-46623D02*
X38769Y-46623D01*
X38769Y-46623D02*
X38769Y-46505D01*
X38434Y-46505D02*
X38769Y-46505D01*
X38434Y-46623D02*
X38434Y-46505D01*
X38631Y-46623D02*
X38966Y-46623D01*
X38966Y-46623D02*
X38966Y-46505D01*
X38631Y-46505D02*
X38966Y-46505D01*
X38631Y-46623D02*
X38631Y-46505D01*
X38828Y-46623D02*
X39163Y-46623D01*
X39163Y-46623D02*
X39163Y-46505D01*
X38828Y-46505D02*
X39163Y-46505D01*
X38828Y-46623D02*
X38828Y-46505D01*
X39025Y-46623D02*
X39360Y-46623D01*
X39360Y-46623D02*
X39360Y-46505D01*
X39025Y-46505D02*
X39360Y-46505D01*
X39025Y-46623D02*
X39025Y-46505D01*
X39025Y-39005D02*
X39360Y-39005D01*
X39360Y-39005D02*
X39360Y-38887D01*
X39025Y-38887D02*
X39360Y-38887D01*
X39025Y-39005D02*
X39025Y-38887D01*
X38828Y-39005D02*
X39163Y-39005D01*
X39163Y-39005D02*
X39163Y-38887D01*
X38828Y-38887D02*
X39163Y-38887D01*
X38828Y-39005D02*
X38828Y-38887D01*
X38631Y-39005D02*
X38966Y-39005D01*
X38966Y-39005D02*
X38966Y-38887D01*
X38631Y-38887D02*
X38966Y-38887D01*
X38631Y-39005D02*
X38631Y-38887D01*
X38434Y-39005D02*
X38769Y-39005D01*
X38769Y-39005D02*
X38769Y-38887D01*
X38434Y-38887D02*
X38769Y-38887D01*
X38434Y-39005D02*
X38434Y-38887D01*
X38238Y-39005D02*
X38572Y-39005D01*
X38572Y-39005D02*
X38572Y-38887D01*
X38238Y-38887D02*
X38572Y-38887D01*
X38238Y-39005D02*
X38238Y-38887D01*
X38041Y-39005D02*
X38375Y-39005D01*
X38375Y-39005D02*
X38375Y-38887D01*
X38041Y-38887D02*
X38375Y-38887D01*
X38041Y-39005D02*
X38041Y-38887D01*
X37844Y-39005D02*
X38179Y-39005D01*
X38179Y-39005D02*
X38179Y-38887D01*
X37844Y-38887D02*
X38179Y-38887D01*
X37844Y-39005D02*
X37844Y-38887D01*
X37647Y-39005D02*
X37982Y-39005D01*
X37982Y-39005D02*
X37982Y-38887D01*
X37647Y-38887D02*
X37982Y-38887D01*
X37647Y-39005D02*
X37647Y-38887D01*
X37450Y-39005D02*
X37785Y-39005D01*
X37785Y-39005D02*
X37785Y-38887D01*
X37450Y-38887D02*
X37785Y-38887D01*
X37450Y-39005D02*
X37450Y-38887D01*
X37253Y-39005D02*
X37588Y-39005D01*
X37588Y-39005D02*
X37588Y-38887D01*
X37253Y-38887D02*
X37588Y-38887D01*
X37253Y-39005D02*
X37253Y-38887D01*
X37056Y-39005D02*
X37391Y-39005D01*
X37391Y-39005D02*
X37391Y-38887D01*
X37056Y-38887D02*
X37391Y-38887D01*
X37056Y-39005D02*
X37056Y-38887D01*
X36861Y-39005D02*
X37194Y-39005D01*
X37194Y-39005D02*
X37194Y-38887D01*
X36861Y-38887D02*
X37194Y-38887D01*
X36861Y-39005D02*
X36861Y-38887D01*
X36664Y-39005D02*
X36997Y-39005D01*
X36997Y-39005D02*
X36997Y-38887D01*
X36664Y-38887D02*
X36997Y-38887D01*
X36664Y-39005D02*
X36664Y-38887D01*
X36467Y-39005D02*
X36802Y-39005D01*
X36802Y-39005D02*
X36802Y-38887D01*
X36467Y-38887D02*
X36802Y-38887D01*
X36467Y-39005D02*
X36467Y-38887D01*
X36270Y-39005D02*
X36605Y-39005D01*
X36605Y-39005D02*
X36605Y-38887D01*
X36270Y-38887D02*
X36605Y-38887D01*
X36270Y-39005D02*
X36270Y-38887D01*
X36073Y-39005D02*
X36408Y-39005D01*
X36408Y-39005D02*
X36408Y-38887D01*
X36073Y-38887D02*
X36408Y-38887D01*
X36073Y-39005D02*
X36073Y-38887D01*
X35876Y-39005D02*
X36211Y-39005D01*
X36211Y-39005D02*
X36211Y-38887D01*
X35876Y-38887D02*
X36211Y-38887D01*
X35876Y-39005D02*
X35876Y-38887D01*
X35679Y-39005D02*
X36014Y-39005D01*
X36014Y-39005D02*
X36014Y-38887D01*
X35679Y-38887D02*
X36014Y-38887D01*
X35679Y-39005D02*
X35679Y-38887D01*
X35483Y-39005D02*
X35817Y-39005D01*
X35817Y-39005D02*
X35817Y-38887D01*
X35483Y-38887D02*
X35817Y-38887D01*
X35483Y-39005D02*
X35483Y-38887D01*
X35286Y-39005D02*
X35620Y-39005D01*
X35620Y-39005D02*
X35620Y-38887D01*
X35286Y-38887D02*
X35620Y-38887D01*
X35286Y-39005D02*
X35286Y-38887D01*
X35089Y-39005D02*
X35424Y-39005D01*
X35424Y-39005D02*
X35424Y-38887D01*
X35089Y-38887D02*
X35424Y-38887D01*
X35089Y-39005D02*
X35089Y-38887D01*
X34892Y-39005D02*
X35227Y-39005D01*
X35227Y-39005D02*
X35227Y-38887D01*
X34892Y-38887D02*
X35227Y-38887D01*
X34892Y-39005D02*
X34892Y-38887D01*
X34695Y-39005D02*
X35030Y-39005D01*
X35030Y-39005D02*
X35030Y-38887D01*
X34695Y-38887D02*
X35030Y-38887D01*
X34695Y-39005D02*
X34695Y-38887D01*
X34498Y-39005D02*
X34833Y-39005D01*
X34833Y-39005D02*
X34833Y-38887D01*
X34498Y-38887D02*
X34833Y-38887D01*
X34498Y-39005D02*
X34498Y-38887D01*
G54D16*
X39367Y-39135D02*
X39367Y-46375D01*
X39367Y-46375D02*
X34491Y-46375D01*
X34491Y-46375D02*
X34491Y-39135D01*
X34491Y-39135D02*
X39367Y-39135D01*
G54D17*
X35016Y-45880D02*
G75*
G03X35016Y-45880I-87J0D01*
G74*
G01*
G54D11*
X48385Y-26889D02*
G75*
G03X47795Y-26299I-590J0D01*
G74*
G01*
X47795Y-27480D02*
G75*
G03X48385Y-26889I0J590D01*
G74*
G01*
X47559Y-26299D02*
G75*
G03X46968Y-26889I0J-590D01*
G74*
G01*
X46968Y-26889D02*
G75*
G03X47559Y-27480I590J0D01*
G74*
G01*
X47480Y-27480D02*
X47874Y-27480D01*
X47480Y-26299D02*
X47874Y-26299D01*
X49822Y-24055D02*
G75*
G03X49232Y-24645I0J-590D01*
G74*
G01*
X50413Y-24645D02*
G75*
G03X49822Y-24055I-590J0D01*
G74*
G01*
X49232Y-24881D02*
G75*
G03X49822Y-25472I590J0D01*
G74*
G01*
X49822Y-25472D02*
G75*
G03X50413Y-24881I0J590D01*
G74*
G01*
X50413Y-24960D02*
X50413Y-24566D01*
X49232Y-24960D02*
X49232Y-24566D01*
X35748Y-52696D02*
G75*
G03X35157Y-53287I0J-590D01*
G74*
G01*
X36338Y-53287D02*
G75*
G03X35748Y-52696I-590J0D01*
G74*
G01*
X35157Y-53523D02*
G75*
G03X35748Y-54114I590J0D01*
G74*
G01*
X35748Y-54114D02*
G75*
G03X36338Y-53523I0J590D01*
G74*
G01*
X36338Y-53602D02*
X36338Y-53208D01*
X35157Y-53602D02*
X35157Y-53208D01*
X37263Y-49586D02*
G75*
G03X37854Y-48996I0J590D01*
G74*
G01*
X36673Y-48996D02*
G75*
G03X37263Y-49586I590J0D01*
G74*
G01*
X37854Y-48759D02*
G75*
G03X37263Y-48169I-590J0D01*
G74*
G01*
X37263Y-48169D02*
G75*
G03X36673Y-48759I0J-590D01*
G74*
G01*
X36673Y-48681D02*
X36673Y-49074D01*
X37854Y-48681D02*
X37854Y-49074D01*
G54D15*
X48925Y-41200D02*
X48925Y-41400D01*
X48925Y-41400D02*
X49225Y-41400D01*
X49225Y-41400D02*
X49225Y-41200D01*
X48925Y-41000D02*
X48925Y-40800D01*
X48925Y-40800D02*
X49225Y-40800D01*
X49225Y-40800D02*
X49225Y-41000D01*
X49325Y-41200D02*
X49325Y-41400D01*
X49325Y-41400D02*
X49625Y-41400D01*
X49625Y-41400D02*
X49625Y-41200D01*
X49325Y-41000D02*
X49325Y-40800D01*
X49325Y-40800D02*
X49625Y-40800D01*
X49625Y-40800D02*
X49625Y-41000D01*
X43450Y-42600D02*
X43450Y-42800D01*
X43450Y-42800D02*
X43750Y-42800D01*
X43750Y-42800D02*
X43750Y-42600D01*
X43450Y-42400D02*
X43450Y-42200D01*
X43450Y-42200D02*
X43750Y-42200D01*
X43750Y-42200D02*
X43750Y-42400D01*
X43800Y-42600D02*
X43800Y-42800D01*
X43800Y-42800D02*
X44100Y-42800D01*
X44100Y-42800D02*
X44100Y-42600D01*
X43800Y-42400D02*
X43800Y-42200D01*
X43800Y-42200D02*
X44100Y-42200D01*
X44100Y-42200D02*
X44100Y-42400D01*
X46621Y-42107D02*
X46621Y-42307D01*
X46621Y-42307D02*
X46921Y-42307D01*
X46921Y-42307D02*
X46921Y-42107D01*
X46621Y-41907D02*
X46621Y-41707D01*
X46621Y-41707D02*
X46921Y-41707D01*
X46921Y-41707D02*
X46921Y-41907D01*
X43400Y-42400D02*
X43400Y-42200D01*
X43400Y-42200D02*
X43100Y-42200D01*
X43100Y-42200D02*
X43100Y-42400D01*
X43400Y-42600D02*
X43400Y-42800D01*
X43400Y-42800D02*
X43100Y-42800D01*
X43100Y-42800D02*
X43100Y-42600D01*
X46100Y-41900D02*
X46100Y-41700D01*
X46100Y-41700D02*
X45800Y-41700D01*
X45800Y-41700D02*
X45800Y-41900D01*
X46100Y-42100D02*
X46100Y-42300D01*
X46100Y-42300D02*
X45800Y-42300D01*
X45800Y-42300D02*
X45800Y-42100D01*
X46247Y-42107D02*
X46247Y-42307D01*
X46247Y-42307D02*
X46547Y-42307D01*
X46547Y-42307D02*
X46547Y-42107D01*
X46247Y-41907D02*
X46247Y-41707D01*
X46247Y-41707D02*
X46547Y-41707D01*
X46547Y-41707D02*
X46547Y-41907D01*
X49554Y-46064D02*
X49554Y-46264D01*
X49554Y-46264D02*
X49854Y-46264D01*
X49854Y-46264D02*
X49854Y-46064D01*
X49554Y-45864D02*
X49554Y-45664D01*
X49554Y-45664D02*
X49854Y-45664D01*
X49854Y-45664D02*
X49854Y-45864D01*
X45910Y-41123D02*
X45768Y-40981D01*
X45768Y-40981D02*
X45556Y-41193D01*
X45556Y-41193D02*
X45698Y-41335D01*
X46051Y-41264D02*
X46193Y-41406D01*
X46193Y-41406D02*
X45981Y-41618D01*
X45981Y-41618D02*
X45839Y-41476D01*
X48555Y-40746D02*
X48555Y-40546D01*
X48555Y-40546D02*
X48255Y-40546D01*
X48255Y-40546D02*
X48255Y-40746D01*
X48555Y-40946D02*
X48555Y-41146D01*
X48555Y-41146D02*
X48255Y-41146D01*
X48255Y-41146D02*
X48255Y-40946D01*
X51711Y-22231D02*
X51511Y-22231D01*
X51511Y-22231D02*
X51511Y-22531D01*
X51511Y-22531D02*
X51711Y-22531D01*
X51911Y-22231D02*
X52111Y-22231D01*
X52111Y-22231D02*
X52111Y-22531D01*
X52111Y-22531D02*
X51911Y-22531D01*
X39329Y-34928D02*
X39129Y-34928D01*
X39129Y-34928D02*
X39129Y-35228D01*
X39129Y-35228D02*
X39329Y-35228D01*
X39529Y-34928D02*
X39729Y-34928D01*
X39729Y-34928D02*
X39729Y-35228D01*
X39729Y-35228D02*
X39529Y-35228D01*
X46764Y-41476D02*
X46906Y-41618D01*
X46906Y-41618D02*
X47118Y-41406D01*
X47118Y-41406D02*
X46976Y-41264D01*
X46623Y-41335D02*
X46481Y-41193D01*
X46481Y-41193D02*
X46693Y-40981D01*
X46693Y-40981D02*
X46835Y-41123D01*
X50040Y-34874D02*
X50240Y-34874D01*
X50240Y-34874D02*
X50240Y-34574D01*
X50240Y-34574D02*
X50040Y-34574D01*
X49840Y-34874D02*
X49640Y-34874D01*
X49640Y-34874D02*
X49640Y-34574D01*
X49640Y-34574D02*
X49840Y-34574D01*
X39706Y-37000D02*
X39906Y-37000D01*
X39906Y-37000D02*
X39906Y-36700D01*
X39906Y-36700D02*
X39706Y-36700D01*
X39506Y-37000D02*
X39306Y-37000D01*
X39306Y-37000D02*
X39306Y-36700D01*
X39306Y-36700D02*
X39506Y-36700D01*
X39374Y-33641D02*
X39515Y-33782D01*
X39515Y-33782D02*
X39727Y-33570D01*
X39727Y-33570D02*
X39586Y-33429D01*
X39232Y-33499D02*
X39091Y-33358D01*
X39091Y-33358D02*
X39303Y-33146D01*
X39303Y-33146D02*
X39444Y-33287D01*
X37664Y-35690D02*
X37664Y-35890D01*
X37664Y-35890D02*
X37964Y-35890D01*
X37964Y-35890D02*
X37964Y-35690D01*
X37664Y-35490D02*
X37664Y-35290D01*
X37664Y-35290D02*
X37964Y-35290D01*
X37964Y-35290D02*
X37964Y-35490D01*
X50040Y-34185D02*
X50240Y-34185D01*
X50240Y-34185D02*
X50240Y-33885D01*
X50240Y-33885D02*
X50040Y-33885D01*
X49840Y-34185D02*
X49640Y-34185D01*
X49640Y-34185D02*
X49640Y-33885D01*
X49640Y-33885D02*
X49840Y-33885D01*
X50040Y-34539D02*
X50240Y-34539D01*
X50240Y-34539D02*
X50240Y-34239D01*
X50240Y-34239D02*
X50040Y-34239D01*
X49840Y-34539D02*
X49640Y-34539D01*
X49640Y-34539D02*
X49640Y-34239D01*
X49640Y-34239D02*
X49840Y-34239D01*
X50690Y-33988D02*
X50890Y-33988D01*
X50890Y-33988D02*
X50890Y-33688D01*
X50890Y-33688D02*
X50690Y-33688D01*
X50490Y-33988D02*
X50290Y-33988D01*
X50290Y-33988D02*
X50290Y-33688D01*
X50290Y-33688D02*
X50490Y-33688D01*
X39525Y-37050D02*
X39325Y-37050D01*
X39325Y-37050D02*
X39325Y-37350D01*
X39325Y-37350D02*
X39525Y-37350D01*
X39725Y-37050D02*
X39925Y-37050D01*
X39925Y-37050D02*
X39925Y-37350D01*
X39925Y-37350D02*
X39725Y-37350D01*
X40650Y-40300D02*
X40650Y-40500D01*
X40650Y-40500D02*
X40950Y-40500D01*
X40950Y-40500D02*
X40950Y-40300D01*
X40650Y-40100D02*
X40650Y-39900D01*
X40650Y-39900D02*
X40950Y-39900D01*
X40950Y-39900D02*
X40950Y-40100D01*
X39900Y-40300D02*
X39900Y-40500D01*
X39900Y-40500D02*
X40200Y-40500D01*
X40200Y-40500D02*
X40200Y-40300D01*
X39900Y-40100D02*
X39900Y-39900D01*
X39900Y-39900D02*
X40200Y-39900D01*
X40200Y-39900D02*
X40200Y-40100D01*
X40263Y-40296D02*
X40263Y-40496D01*
X40263Y-40496D02*
X40563Y-40496D01*
X40563Y-40496D02*
X40563Y-40296D01*
X40263Y-40096D02*
X40263Y-39896D01*
X40263Y-39896D02*
X40563Y-39896D01*
X40563Y-39896D02*
X40563Y-40096D01*
X39486Y-35972D02*
X39286Y-35972D01*
X39286Y-35972D02*
X39286Y-36272D01*
X39286Y-36272D02*
X39486Y-36272D01*
X39686Y-35972D02*
X39886Y-35972D01*
X39886Y-35972D02*
X39886Y-36272D01*
X39886Y-36272D02*
X39686Y-36272D01*
X44875Y-40875D02*
X44875Y-40675D01*
X44875Y-40675D02*
X44575Y-40675D01*
X44575Y-40675D02*
X44575Y-40875D01*
X44875Y-41075D02*
X44875Y-41275D01*
X44875Y-41275D02*
X44575Y-41275D01*
X44575Y-41275D02*
X44575Y-41075D01*
X50460Y-38073D02*
X50318Y-37931D01*
X50318Y-37931D02*
X50106Y-38143D01*
X50106Y-38143D02*
X50248Y-38285D01*
X50601Y-38214D02*
X50743Y-38356D01*
X50743Y-38356D02*
X50531Y-38568D01*
X50531Y-38568D02*
X50389Y-38426D01*
X41416Y-41157D02*
X41558Y-41015D01*
X41558Y-41015D02*
X41346Y-40803D01*
X41346Y-40803D02*
X41204Y-40945D01*
X41275Y-41298D02*
X41134Y-41440D01*
X41134Y-41440D02*
X40921Y-41228D01*
X40921Y-41228D02*
X41063Y-41086D01*
X43457Y-40844D02*
X43457Y-40644D01*
X43457Y-40644D02*
X43157Y-40644D01*
X43157Y-40644D02*
X43157Y-40844D01*
X43457Y-41044D02*
X43457Y-41244D01*
X43457Y-41244D02*
X43157Y-41244D01*
X43157Y-41244D02*
X43157Y-41044D01*
X42645Y-41044D02*
X42645Y-41244D01*
X42645Y-41244D02*
X42945Y-41244D01*
X42945Y-41244D02*
X42945Y-41044D01*
X42645Y-40844D02*
X42645Y-40644D01*
X42645Y-40644D02*
X42945Y-40644D01*
X42945Y-40644D02*
X42945Y-40844D01*
G54D18*
X41357Y-48012D02*
X44311Y-48012D01*
X44311Y-48012D02*
X44311Y-43798D01*
X44311Y-43798D02*
X41357Y-43798D01*
X41357Y-43798D02*
X41357Y-48012D01*
X46082Y-48012D02*
X49036Y-48012D01*
X49036Y-48012D02*
X49036Y-43798D01*
X49036Y-43798D02*
X46082Y-43798D01*
X46082Y-43798D02*
X46082Y-48012D01*
G54D13*
X41254Y-31939D02*
X41345Y-31939D01*
X41345Y-31939D02*
X41345Y-31546D01*
X41254Y-31546D02*
X41345Y-31546D01*
X41254Y-31939D02*
X41254Y-31546D01*
X41412Y-31939D02*
X41502Y-31939D01*
X41502Y-31939D02*
X41502Y-31546D01*
X41412Y-31546D02*
X41502Y-31546D01*
X41412Y-31939D02*
X41412Y-31546D01*
X41569Y-31939D02*
X41660Y-31939D01*
X41660Y-31939D02*
X41660Y-31546D01*
X41569Y-31546D02*
X41660Y-31546D01*
X41569Y-31939D02*
X41569Y-31546D01*
X41727Y-31939D02*
X41817Y-31939D01*
X41817Y-31939D02*
X41817Y-31546D01*
X41727Y-31546D02*
X41817Y-31546D01*
X41727Y-31939D02*
X41727Y-31546D01*
X41884Y-31939D02*
X41975Y-31939D01*
X41975Y-31939D02*
X41975Y-31546D01*
X41884Y-31546D02*
X41975Y-31546D01*
X41884Y-31939D02*
X41884Y-31546D01*
X42042Y-31939D02*
X42132Y-31939D01*
X42132Y-31939D02*
X42132Y-31546D01*
X42042Y-31546D02*
X42132Y-31546D01*
X42042Y-31939D02*
X42042Y-31546D01*
X42199Y-31939D02*
X42290Y-31939D01*
X42290Y-31939D02*
X42290Y-31546D01*
X42199Y-31546D02*
X42290Y-31546D01*
X42199Y-31939D02*
X42199Y-31546D01*
X42357Y-31939D02*
X42447Y-31939D01*
X42447Y-31939D02*
X42447Y-31546D01*
X42357Y-31546D02*
X42447Y-31546D01*
X42357Y-31939D02*
X42357Y-31546D01*
X42514Y-31939D02*
X42605Y-31939D01*
X42605Y-31939D02*
X42605Y-31546D01*
X42514Y-31546D02*
X42605Y-31546D01*
X42514Y-31939D02*
X42514Y-31546D01*
X42672Y-31939D02*
X42762Y-31939D01*
X42762Y-31939D02*
X42762Y-31546D01*
X42672Y-31546D02*
X42762Y-31546D01*
X42672Y-31939D02*
X42672Y-31546D01*
X42829Y-31939D02*
X42920Y-31939D01*
X42920Y-31939D02*
X42920Y-31546D01*
X42829Y-31546D02*
X42920Y-31546D01*
X42829Y-31939D02*
X42829Y-31546D01*
X42987Y-31939D02*
X43077Y-31939D01*
X43077Y-31939D02*
X43077Y-31546D01*
X42987Y-31546D02*
X43077Y-31546D01*
X42987Y-31939D02*
X42987Y-31546D01*
X43144Y-31939D02*
X43235Y-31939D01*
X43235Y-31939D02*
X43235Y-31546D01*
X43144Y-31546D02*
X43235Y-31546D01*
X43144Y-31939D02*
X43144Y-31546D01*
X43302Y-31939D02*
X43392Y-31939D01*
X43392Y-31939D02*
X43392Y-31546D01*
X43302Y-31546D02*
X43392Y-31546D01*
X43302Y-31939D02*
X43302Y-31546D01*
X43459Y-31939D02*
X43550Y-31939D01*
X43550Y-31939D02*
X43550Y-31546D01*
X43459Y-31546D02*
X43550Y-31546D01*
X43459Y-31939D02*
X43459Y-31546D01*
X43617Y-31939D02*
X43707Y-31939D01*
X43707Y-31939D02*
X43707Y-31546D01*
X43617Y-31546D02*
X43707Y-31546D01*
X43617Y-31939D02*
X43617Y-31546D01*
X43774Y-31939D02*
X43865Y-31939D01*
X43865Y-31939D02*
X43865Y-31546D01*
X43774Y-31546D02*
X43865Y-31546D01*
X43774Y-31939D02*
X43774Y-31546D01*
X43932Y-31939D02*
X44022Y-31939D01*
X44022Y-31939D02*
X44022Y-31546D01*
X43932Y-31546D02*
X44022Y-31546D01*
X43932Y-31939D02*
X43932Y-31546D01*
X44089Y-31939D02*
X44180Y-31939D01*
X44180Y-31939D02*
X44180Y-31546D01*
X44089Y-31546D02*
X44180Y-31546D01*
X44089Y-31939D02*
X44089Y-31546D01*
X44247Y-31939D02*
X44337Y-31939D01*
X44337Y-31939D02*
X44337Y-31546D01*
X44247Y-31546D02*
X44337Y-31546D01*
X44247Y-31939D02*
X44247Y-31546D01*
X44404Y-31939D02*
X44495Y-31939D01*
X44495Y-31939D02*
X44495Y-31546D01*
X44404Y-31546D02*
X44495Y-31546D01*
X44404Y-31939D02*
X44404Y-31546D01*
X44561Y-31939D02*
X44652Y-31939D01*
X44652Y-31939D02*
X44652Y-31546D01*
X44561Y-31546D02*
X44652Y-31546D01*
X44561Y-31939D02*
X44561Y-31546D01*
X44718Y-31939D02*
X44809Y-31939D01*
X44809Y-31939D02*
X44809Y-31546D01*
X44718Y-31546D02*
X44809Y-31546D01*
X44718Y-31939D02*
X44718Y-31546D01*
X44875Y-31939D02*
X44966Y-31939D01*
X44966Y-31939D02*
X44966Y-31546D01*
X44875Y-31546D02*
X44966Y-31546D01*
X44875Y-31939D02*
X44875Y-31546D01*
X45033Y-31939D02*
X45123Y-31939D01*
X45123Y-31939D02*
X45123Y-31546D01*
X45033Y-31546D02*
X45123Y-31546D01*
X45033Y-31939D02*
X45033Y-31546D01*
X45190Y-31939D02*
X45281Y-31939D01*
X45281Y-31939D02*
X45281Y-31546D01*
X45190Y-31546D02*
X45281Y-31546D01*
X45190Y-31939D02*
X45190Y-31546D01*
X45348Y-31939D02*
X45438Y-31939D01*
X45438Y-31939D02*
X45438Y-31546D01*
X45348Y-31546D02*
X45438Y-31546D01*
X45348Y-31939D02*
X45348Y-31546D01*
X45505Y-31939D02*
X45596Y-31939D01*
X45596Y-31939D02*
X45596Y-31546D01*
X45505Y-31546D02*
X45596Y-31546D01*
X45505Y-31939D02*
X45505Y-31546D01*
X45663Y-31939D02*
X45753Y-31939D01*
X45753Y-31939D02*
X45753Y-31546D01*
X45663Y-31546D02*
X45753Y-31546D01*
X45663Y-31939D02*
X45663Y-31546D01*
X45820Y-31939D02*
X45911Y-31939D01*
X45911Y-31939D02*
X45911Y-31546D01*
X45820Y-31546D02*
X45911Y-31546D01*
X45820Y-31939D02*
X45820Y-31546D01*
X45978Y-31939D02*
X46068Y-31939D01*
X46068Y-31939D02*
X46068Y-31546D01*
X45978Y-31546D02*
X46068Y-31546D01*
X45978Y-31939D02*
X45978Y-31546D01*
X46135Y-31939D02*
X46226Y-31939D01*
X46226Y-31939D02*
X46226Y-31546D01*
X46135Y-31546D02*
X46226Y-31546D01*
X46135Y-31939D02*
X46135Y-31546D01*
X46293Y-31939D02*
X46383Y-31939D01*
X46383Y-31939D02*
X46383Y-31546D01*
X46293Y-31546D02*
X46383Y-31546D01*
X46293Y-31939D02*
X46293Y-31546D01*
X46450Y-31939D02*
X46541Y-31939D01*
X46541Y-31939D02*
X46541Y-31546D01*
X46450Y-31546D02*
X46541Y-31546D01*
X46450Y-31939D02*
X46450Y-31546D01*
X46608Y-31939D02*
X46698Y-31939D01*
X46698Y-31939D02*
X46698Y-31546D01*
X46608Y-31546D02*
X46698Y-31546D01*
X46608Y-31939D02*
X46608Y-31546D01*
X46765Y-31939D02*
X46856Y-31939D01*
X46856Y-31939D02*
X46856Y-31546D01*
X46765Y-31546D02*
X46856Y-31546D01*
X46765Y-31939D02*
X46765Y-31546D01*
X46923Y-31939D02*
X47013Y-31939D01*
X47013Y-31939D02*
X47013Y-31546D01*
X46923Y-31546D02*
X47013Y-31546D01*
X46923Y-31939D02*
X46923Y-31546D01*
X47080Y-31939D02*
X47171Y-31939D01*
X47171Y-31939D02*
X47171Y-31546D01*
X47080Y-31546D02*
X47171Y-31546D01*
X47080Y-31939D02*
X47080Y-31546D01*
X47238Y-31939D02*
X47328Y-31939D01*
X47328Y-31939D02*
X47328Y-31546D01*
X47238Y-31546D02*
X47328Y-31546D01*
X47238Y-31939D02*
X47238Y-31546D01*
X47395Y-31939D02*
X47486Y-31939D01*
X47486Y-31939D02*
X47486Y-31546D01*
X47395Y-31546D02*
X47486Y-31546D01*
X47395Y-31939D02*
X47395Y-31546D01*
X47553Y-31939D02*
X47643Y-31939D01*
X47643Y-31939D02*
X47643Y-31546D01*
X47553Y-31546D02*
X47643Y-31546D01*
X47553Y-31939D02*
X47553Y-31546D01*
X47710Y-31939D02*
X47801Y-31939D01*
X47801Y-31939D02*
X47801Y-31546D01*
X47710Y-31546D02*
X47801Y-31546D01*
X47710Y-31939D02*
X47710Y-31546D01*
X47868Y-31939D02*
X47958Y-31939D01*
X47958Y-31939D02*
X47958Y-31546D01*
X47868Y-31546D02*
X47958Y-31546D01*
X47868Y-31939D02*
X47868Y-31546D01*
X48025Y-31939D02*
X48116Y-31939D01*
X48116Y-31939D02*
X48116Y-31546D01*
X48025Y-31546D02*
X48116Y-31546D01*
X48025Y-31939D02*
X48025Y-31546D01*
X48025Y-40106D02*
X48116Y-40106D01*
X48116Y-40106D02*
X48116Y-39713D01*
X48025Y-39713D02*
X48116Y-39713D01*
X48025Y-40106D02*
X48025Y-39713D01*
X47868Y-40106D02*
X47958Y-40106D01*
X47958Y-40106D02*
X47958Y-39713D01*
X47868Y-39713D02*
X47958Y-39713D01*
X47868Y-40106D02*
X47868Y-39713D01*
X47710Y-40106D02*
X47801Y-40106D01*
X47801Y-40106D02*
X47801Y-39713D01*
X47710Y-39713D02*
X47801Y-39713D01*
X47710Y-40106D02*
X47710Y-39713D01*
X47553Y-40106D02*
X47643Y-40106D01*
X47643Y-40106D02*
X47643Y-39713D01*
X47553Y-39713D02*
X47643Y-39713D01*
X47553Y-40106D02*
X47553Y-39713D01*
X47395Y-40106D02*
X47486Y-40106D01*
X47486Y-40106D02*
X47486Y-39713D01*
X47395Y-39713D02*
X47486Y-39713D01*
X47395Y-40106D02*
X47395Y-39713D01*
X47238Y-40106D02*
X47328Y-40106D01*
X47328Y-40106D02*
X47328Y-39713D01*
X47238Y-39713D02*
X47328Y-39713D01*
X47238Y-40106D02*
X47238Y-39713D01*
X47080Y-40106D02*
X47171Y-40106D01*
X47171Y-40106D02*
X47171Y-39713D01*
X47080Y-39713D02*
X47171Y-39713D01*
X47080Y-40106D02*
X47080Y-39713D01*
X46923Y-40106D02*
X47013Y-40106D01*
X47013Y-40106D02*
X47013Y-39713D01*
X46923Y-39713D02*
X47013Y-39713D01*
X46923Y-40106D02*
X46923Y-39713D01*
X46765Y-40106D02*
X46856Y-40106D01*
X46856Y-40106D02*
X46856Y-39713D01*
X46765Y-39713D02*
X46856Y-39713D01*
X46765Y-40106D02*
X46765Y-39713D01*
X46608Y-40106D02*
X46698Y-40106D01*
X46698Y-40106D02*
X46698Y-39713D01*
X46608Y-39713D02*
X46698Y-39713D01*
X46608Y-40106D02*
X46608Y-39713D01*
X46450Y-40106D02*
X46541Y-40106D01*
X46541Y-40106D02*
X46541Y-39713D01*
X46450Y-39713D02*
X46541Y-39713D01*
X46450Y-40106D02*
X46450Y-39713D01*
X46293Y-40106D02*
X46383Y-40106D01*
X46383Y-40106D02*
X46383Y-39713D01*
X46293Y-39713D02*
X46383Y-39713D01*
X46293Y-40106D02*
X46293Y-39713D01*
X46135Y-40106D02*
X46226Y-40106D01*
X46226Y-40106D02*
X46226Y-39713D01*
X46135Y-39713D02*
X46226Y-39713D01*
X46135Y-40106D02*
X46135Y-39713D01*
X45978Y-40106D02*
X46068Y-40106D01*
X46068Y-40106D02*
X46068Y-39713D01*
X45978Y-39713D02*
X46068Y-39713D01*
X45978Y-40106D02*
X45978Y-39713D01*
X45820Y-40106D02*
X45911Y-40106D01*
X45911Y-40106D02*
X45911Y-39713D01*
X45820Y-39713D02*
X45911Y-39713D01*
X45820Y-40106D02*
X45820Y-39713D01*
X45663Y-40106D02*
X45753Y-40106D01*
X45753Y-40106D02*
X45753Y-39713D01*
X45663Y-39713D02*
X45753Y-39713D01*
X45663Y-40106D02*
X45663Y-39713D01*
X45505Y-40106D02*
X45596Y-40106D01*
X45596Y-40106D02*
X45596Y-39713D01*
X45505Y-39713D02*
X45596Y-39713D01*
X45505Y-40106D02*
X45505Y-39713D01*
X45348Y-40106D02*
X45438Y-40106D01*
X45438Y-40106D02*
X45438Y-39713D01*
X45348Y-39713D02*
X45438Y-39713D01*
X45348Y-40106D02*
X45348Y-39713D01*
X45190Y-40106D02*
X45281Y-40106D01*
X45281Y-40106D02*
X45281Y-39713D01*
X45190Y-39713D02*
X45281Y-39713D01*
X45190Y-40106D02*
X45190Y-39713D01*
X45033Y-40106D02*
X45123Y-40106D01*
X45123Y-40106D02*
X45123Y-39713D01*
X45033Y-39713D02*
X45123Y-39713D01*
X45033Y-40106D02*
X45033Y-39713D01*
X44875Y-40106D02*
X44966Y-40106D01*
X44966Y-40106D02*
X44966Y-39713D01*
X44875Y-39713D02*
X44966Y-39713D01*
X44875Y-40106D02*
X44875Y-39713D01*
X44718Y-40106D02*
X44809Y-40106D01*
X44809Y-40106D02*
X44809Y-39713D01*
X44718Y-39713D02*
X44809Y-39713D01*
X44718Y-40106D02*
X44718Y-39713D01*
X44561Y-40106D02*
X44652Y-40106D01*
X44652Y-40106D02*
X44652Y-39713D01*
X44561Y-39713D02*
X44652Y-39713D01*
X44561Y-40106D02*
X44561Y-39713D01*
X44404Y-40106D02*
X44495Y-40106D01*
X44495Y-40106D02*
X44495Y-39713D01*
X44404Y-39713D02*
X44495Y-39713D01*
X44404Y-40106D02*
X44404Y-39713D01*
X44247Y-40106D02*
X44337Y-40106D01*
X44337Y-40106D02*
X44337Y-39713D01*
X44247Y-39713D02*
X44337Y-39713D01*
X44247Y-40106D02*
X44247Y-39713D01*
X44089Y-40106D02*
X44180Y-40106D01*
X44180Y-40106D02*
X44180Y-39713D01*
X44089Y-39713D02*
X44180Y-39713D01*
X44089Y-40106D02*
X44089Y-39713D01*
X43932Y-40106D02*
X44022Y-40106D01*
X44022Y-40106D02*
X44022Y-39713D01*
X43932Y-39713D02*
X44022Y-39713D01*
X43932Y-40106D02*
X43932Y-39713D01*
X43774Y-40106D02*
X43865Y-40106D01*
X43865Y-40106D02*
X43865Y-39713D01*
X43774Y-39713D02*
X43865Y-39713D01*
X43774Y-40106D02*
X43774Y-39713D01*
X43617Y-40106D02*
X43707Y-40106D01*
X43707Y-40106D02*
X43707Y-39713D01*
X43617Y-39713D02*
X43707Y-39713D01*
X43617Y-40106D02*
X43617Y-39713D01*
X43459Y-40106D02*
X43550Y-40106D01*
X43550Y-40106D02*
X43550Y-39713D01*
X43459Y-39713D02*
X43550Y-39713D01*
X43459Y-40106D02*
X43459Y-39713D01*
X43302Y-40106D02*
X43392Y-40106D01*
X43392Y-40106D02*
X43392Y-39713D01*
X43302Y-39713D02*
X43392Y-39713D01*
X43302Y-40106D02*
X43302Y-39713D01*
X43144Y-40106D02*
X43235Y-40106D01*
X43235Y-40106D02*
X43235Y-39713D01*
X43144Y-39713D02*
X43235Y-39713D01*
X43144Y-40106D02*
X43144Y-39713D01*
X42987Y-40106D02*
X43077Y-40106D01*
X43077Y-40106D02*
X43077Y-39713D01*
X42987Y-39713D02*
X43077Y-39713D01*
X42987Y-40106D02*
X42987Y-39713D01*
X42829Y-40106D02*
X42920Y-40106D01*
X42920Y-40106D02*
X42920Y-39713D01*
X42829Y-39713D02*
X42920Y-39713D01*
X42829Y-40106D02*
X42829Y-39713D01*
X42672Y-40106D02*
X42762Y-40106D01*
X42762Y-40106D02*
X42762Y-39713D01*
X42672Y-39713D02*
X42762Y-39713D01*
X42672Y-40106D02*
X42672Y-39713D01*
X42514Y-40106D02*
X42605Y-40106D01*
X42605Y-40106D02*
X42605Y-39713D01*
X42514Y-39713D02*
X42605Y-39713D01*
X42514Y-40106D02*
X42514Y-39713D01*
X42357Y-40106D02*
X42447Y-40106D01*
X42447Y-40106D02*
X42447Y-39713D01*
X42357Y-39713D02*
X42447Y-39713D01*
X42357Y-40106D02*
X42357Y-39713D01*
X42199Y-40106D02*
X42290Y-40106D01*
X42290Y-40106D02*
X42290Y-39713D01*
X42199Y-39713D02*
X42290Y-39713D01*
X42199Y-40106D02*
X42199Y-39713D01*
X42042Y-40106D02*
X42132Y-40106D01*
X42132Y-40106D02*
X42132Y-39713D01*
X42042Y-39713D02*
X42132Y-39713D01*
X42042Y-40106D02*
X42042Y-39713D01*
X41884Y-40106D02*
X41975Y-40106D01*
X41975Y-40106D02*
X41975Y-39713D01*
X41884Y-39713D02*
X41975Y-39713D01*
X41884Y-40106D02*
X41884Y-39713D01*
X41727Y-40106D02*
X41817Y-40106D01*
X41817Y-40106D02*
X41817Y-39713D01*
X41727Y-39713D02*
X41817Y-39713D01*
X41727Y-40106D02*
X41727Y-39713D01*
X41569Y-40106D02*
X41660Y-40106D01*
X41660Y-40106D02*
X41660Y-39713D01*
X41569Y-39713D02*
X41660Y-39713D01*
X41569Y-40106D02*
X41569Y-39713D01*
X41412Y-40106D02*
X41502Y-40106D01*
X41502Y-40106D02*
X41502Y-39713D01*
X41412Y-39713D02*
X41502Y-39713D01*
X41412Y-40106D02*
X41412Y-39713D01*
X41254Y-40106D02*
X41345Y-40106D01*
X41345Y-40106D02*
X41345Y-39713D01*
X41254Y-39713D02*
X41345Y-39713D01*
X41254Y-40106D02*
X41254Y-39713D01*
X40405Y-39257D02*
X40798Y-39257D01*
X40798Y-39257D02*
X40798Y-39166D01*
X40405Y-39166D02*
X40798Y-39166D01*
X40405Y-39257D02*
X40405Y-39166D01*
X40405Y-39099D02*
X40798Y-39099D01*
X40798Y-39099D02*
X40798Y-39009D01*
X40405Y-39009D02*
X40798Y-39009D01*
X40405Y-39099D02*
X40405Y-39009D01*
X40405Y-38942D02*
X40798Y-38942D01*
X40798Y-38942D02*
X40798Y-38851D01*
X40405Y-38851D02*
X40798Y-38851D01*
X40405Y-38942D02*
X40405Y-38851D01*
X40405Y-38784D02*
X40798Y-38784D01*
X40798Y-38784D02*
X40798Y-38694D01*
X40405Y-38694D02*
X40798Y-38694D01*
X40405Y-38784D02*
X40405Y-38694D01*
X40405Y-38627D02*
X40798Y-38627D01*
X40798Y-38627D02*
X40798Y-38536D01*
X40405Y-38536D02*
X40798Y-38536D01*
X40405Y-38627D02*
X40405Y-38536D01*
X40405Y-38469D02*
X40798Y-38469D01*
X40798Y-38469D02*
X40798Y-38379D01*
X40405Y-38379D02*
X40798Y-38379D01*
X40405Y-38469D02*
X40405Y-38379D01*
X40405Y-38312D02*
X40798Y-38312D01*
X40798Y-38312D02*
X40798Y-38221D01*
X40405Y-38221D02*
X40798Y-38221D01*
X40405Y-38312D02*
X40405Y-38221D01*
X40405Y-38154D02*
X40798Y-38154D01*
X40798Y-38154D02*
X40798Y-38064D01*
X40405Y-38064D02*
X40798Y-38064D01*
X40405Y-38154D02*
X40405Y-38064D01*
X40405Y-37997D02*
X40798Y-37997D01*
X40798Y-37997D02*
X40798Y-37906D01*
X40405Y-37906D02*
X40798Y-37906D01*
X40405Y-37997D02*
X40405Y-37906D01*
X40405Y-37839D02*
X40798Y-37839D01*
X40798Y-37839D02*
X40798Y-37749D01*
X40405Y-37749D02*
X40798Y-37749D01*
X40405Y-37839D02*
X40405Y-37749D01*
X40405Y-37682D02*
X40798Y-37682D01*
X40798Y-37682D02*
X40798Y-37591D01*
X40405Y-37591D02*
X40798Y-37591D01*
X40405Y-37682D02*
X40405Y-37591D01*
X40405Y-37524D02*
X40798Y-37524D01*
X40798Y-37524D02*
X40798Y-37434D01*
X40405Y-37434D02*
X40798Y-37434D01*
X40405Y-37524D02*
X40405Y-37434D01*
X40405Y-37367D02*
X40798Y-37367D01*
X40798Y-37367D02*
X40798Y-37276D01*
X40405Y-37276D02*
X40798Y-37276D01*
X40405Y-37367D02*
X40405Y-37276D01*
X40405Y-37209D02*
X40798Y-37209D01*
X40798Y-37209D02*
X40798Y-37119D01*
X40405Y-37119D02*
X40798Y-37119D01*
X40405Y-37209D02*
X40405Y-37119D01*
X40405Y-37052D02*
X40798Y-37052D01*
X40798Y-37052D02*
X40798Y-36961D01*
X40405Y-36961D02*
X40798Y-36961D01*
X40405Y-37052D02*
X40405Y-36961D01*
X40405Y-36894D02*
X40798Y-36894D01*
X40798Y-36894D02*
X40798Y-36804D01*
X40405Y-36804D02*
X40798Y-36804D01*
X40405Y-36894D02*
X40405Y-36804D01*
X40405Y-36737D02*
X40798Y-36737D01*
X40798Y-36737D02*
X40798Y-36646D01*
X40405Y-36646D02*
X40798Y-36646D01*
X40405Y-36737D02*
X40405Y-36646D01*
X40405Y-36579D02*
X40798Y-36579D01*
X40798Y-36579D02*
X40798Y-36489D01*
X40405Y-36489D02*
X40798Y-36489D01*
X40405Y-36579D02*
X40405Y-36489D01*
X40405Y-36422D02*
X40798Y-36422D01*
X40798Y-36422D02*
X40798Y-36331D01*
X40405Y-36331D02*
X40798Y-36331D01*
X40405Y-36422D02*
X40405Y-36331D01*
X40405Y-36264D02*
X40798Y-36264D01*
X40798Y-36264D02*
X40798Y-36174D01*
X40405Y-36174D02*
X40798Y-36174D01*
X40405Y-36264D02*
X40405Y-36174D01*
X40405Y-36107D02*
X40798Y-36107D01*
X40798Y-36107D02*
X40798Y-36016D01*
X40405Y-36016D02*
X40798Y-36016D01*
X40405Y-36107D02*
X40405Y-36016D01*
X40405Y-35950D02*
X40798Y-35950D01*
X40798Y-35950D02*
X40798Y-35859D01*
X40405Y-35859D02*
X40798Y-35859D01*
X40405Y-35950D02*
X40405Y-35859D01*
X40405Y-35793D02*
X40798Y-35793D01*
X40798Y-35793D02*
X40798Y-35702D01*
X40405Y-35702D02*
X40798Y-35702D01*
X40405Y-35793D02*
X40405Y-35702D01*
X40405Y-35636D02*
X40798Y-35636D01*
X40798Y-35636D02*
X40798Y-35545D01*
X40405Y-35545D02*
X40798Y-35545D01*
X40405Y-35636D02*
X40405Y-35545D01*
X40405Y-35478D02*
X40798Y-35478D01*
X40798Y-35478D02*
X40798Y-35388D01*
X40405Y-35388D02*
X40798Y-35388D01*
X40405Y-35478D02*
X40405Y-35388D01*
X40405Y-35321D02*
X40798Y-35321D01*
X40798Y-35321D02*
X40798Y-35230D01*
X40405Y-35230D02*
X40798Y-35230D01*
X40405Y-35321D02*
X40405Y-35230D01*
X40405Y-35163D02*
X40798Y-35163D01*
X40798Y-35163D02*
X40798Y-35073D01*
X40405Y-35073D02*
X40798Y-35073D01*
X40405Y-35163D02*
X40405Y-35073D01*
X40405Y-35006D02*
X40798Y-35006D01*
X40798Y-35006D02*
X40798Y-34915D01*
X40405Y-34915D02*
X40798Y-34915D01*
X40405Y-35006D02*
X40405Y-34915D01*
X40405Y-34848D02*
X40798Y-34848D01*
X40798Y-34848D02*
X40798Y-34758D01*
X40405Y-34758D02*
X40798Y-34758D01*
X40405Y-34848D02*
X40405Y-34758D01*
X40405Y-34691D02*
X40798Y-34691D01*
X40798Y-34691D02*
X40798Y-34600D01*
X40405Y-34600D02*
X40798Y-34600D01*
X40405Y-34691D02*
X40405Y-34600D01*
X40405Y-34533D02*
X40798Y-34533D01*
X40798Y-34533D02*
X40798Y-34443D01*
X40405Y-34443D02*
X40798Y-34443D01*
X40405Y-34533D02*
X40405Y-34443D01*
X40405Y-34376D02*
X40798Y-34376D01*
X40798Y-34376D02*
X40798Y-34285D01*
X40405Y-34285D02*
X40798Y-34285D01*
X40405Y-34376D02*
X40405Y-34285D01*
X40405Y-34218D02*
X40798Y-34218D01*
X40798Y-34218D02*
X40798Y-34128D01*
X40405Y-34128D02*
X40798Y-34128D01*
X40405Y-34218D02*
X40405Y-34128D01*
X40405Y-34061D02*
X40798Y-34061D01*
X40798Y-34061D02*
X40798Y-33970D01*
X40405Y-33970D02*
X40798Y-33970D01*
X40405Y-34061D02*
X40405Y-33970D01*
X40405Y-33903D02*
X40798Y-33903D01*
X40798Y-33903D02*
X40798Y-33813D01*
X40405Y-33813D02*
X40798Y-33813D01*
X40405Y-33903D02*
X40405Y-33813D01*
X40405Y-33746D02*
X40798Y-33746D01*
X40798Y-33746D02*
X40798Y-33655D01*
X40405Y-33655D02*
X40798Y-33655D01*
X40405Y-33746D02*
X40405Y-33655D01*
X40405Y-33588D02*
X40798Y-33588D01*
X40798Y-33588D02*
X40798Y-33498D01*
X40405Y-33498D02*
X40798Y-33498D01*
X40405Y-33588D02*
X40405Y-33498D01*
X40405Y-33431D02*
X40798Y-33431D01*
X40798Y-33431D02*
X40798Y-33340D01*
X40405Y-33340D02*
X40798Y-33340D01*
X40405Y-33431D02*
X40405Y-33340D01*
X40405Y-33273D02*
X40798Y-33273D01*
X40798Y-33273D02*
X40798Y-33183D01*
X40405Y-33183D02*
X40798Y-33183D01*
X40405Y-33273D02*
X40405Y-33183D01*
X40405Y-33116D02*
X40798Y-33116D01*
X40798Y-33116D02*
X40798Y-33025D01*
X40405Y-33025D02*
X40798Y-33025D01*
X40405Y-33116D02*
X40405Y-33025D01*
X40405Y-32958D02*
X40798Y-32958D01*
X40798Y-32958D02*
X40798Y-32868D01*
X40405Y-32868D02*
X40798Y-32868D01*
X40405Y-32958D02*
X40405Y-32868D01*
X40405Y-32801D02*
X40798Y-32801D01*
X40798Y-32801D02*
X40798Y-32710D01*
X40405Y-32710D02*
X40798Y-32710D01*
X40405Y-32801D02*
X40405Y-32710D01*
X40405Y-32643D02*
X40798Y-32643D01*
X40798Y-32643D02*
X40798Y-32553D01*
X40405Y-32553D02*
X40798Y-32553D01*
X40405Y-32643D02*
X40405Y-32553D01*
X40405Y-32486D02*
X40798Y-32486D01*
X40798Y-32486D02*
X40798Y-32395D01*
X40405Y-32395D02*
X40798Y-32395D01*
X40405Y-32486D02*
X40405Y-32395D01*
X48572Y-32486D02*
X48965Y-32486D01*
X48965Y-32486D02*
X48965Y-32395D01*
X48572Y-32395D02*
X48965Y-32395D01*
X48572Y-32486D02*
X48572Y-32395D01*
X48572Y-32643D02*
X48965Y-32643D01*
X48965Y-32643D02*
X48965Y-32553D01*
X48572Y-32553D02*
X48965Y-32553D01*
X48572Y-32643D02*
X48572Y-32553D01*
X48572Y-32801D02*
X48965Y-32801D01*
X48965Y-32801D02*
X48965Y-32710D01*
X48572Y-32710D02*
X48965Y-32710D01*
X48572Y-32801D02*
X48572Y-32710D01*
X48572Y-32958D02*
X48965Y-32958D01*
X48965Y-32958D02*
X48965Y-32868D01*
X48572Y-32868D02*
X48965Y-32868D01*
X48572Y-32958D02*
X48572Y-32868D01*
X48572Y-33116D02*
X48965Y-33116D01*
X48965Y-33116D02*
X48965Y-33025D01*
X48572Y-33025D02*
X48965Y-33025D01*
X48572Y-33116D02*
X48572Y-33025D01*
X48572Y-33273D02*
X48965Y-33273D01*
X48965Y-33273D02*
X48965Y-33183D01*
X48572Y-33183D02*
X48965Y-33183D01*
X48572Y-33273D02*
X48572Y-33183D01*
X48572Y-33431D02*
X48965Y-33431D01*
X48965Y-33431D02*
X48965Y-33340D01*
X48572Y-33340D02*
X48965Y-33340D01*
X48572Y-33431D02*
X48572Y-33340D01*
X48572Y-33588D02*
X48965Y-33588D01*
X48965Y-33588D02*
X48965Y-33498D01*
X48572Y-33498D02*
X48965Y-33498D01*
X48572Y-33588D02*
X48572Y-33498D01*
X48572Y-33746D02*
X48965Y-33746D01*
X48965Y-33746D02*
X48965Y-33655D01*
X48572Y-33655D02*
X48965Y-33655D01*
X48572Y-33746D02*
X48572Y-33655D01*
X48572Y-33903D02*
X48965Y-33903D01*
X48965Y-33903D02*
X48965Y-33813D01*
X48572Y-33813D02*
X48965Y-33813D01*
X48572Y-33903D02*
X48572Y-33813D01*
X48572Y-34061D02*
X48965Y-34061D01*
X48965Y-34061D02*
X48965Y-33970D01*
X48572Y-33970D02*
X48965Y-33970D01*
X48572Y-34061D02*
X48572Y-33970D01*
X48572Y-34218D02*
X48965Y-34218D01*
X48965Y-34218D02*
X48965Y-34128D01*
X48572Y-34128D02*
X48965Y-34128D01*
X48572Y-34218D02*
X48572Y-34128D01*
X48572Y-34376D02*
X48965Y-34376D01*
X48965Y-34376D02*
X48965Y-34285D01*
X48572Y-34285D02*
X48965Y-34285D01*
X48572Y-34376D02*
X48572Y-34285D01*
X48572Y-34533D02*
X48965Y-34533D01*
X48965Y-34533D02*
X48965Y-34443D01*
X48572Y-34443D02*
X48965Y-34443D01*
X48572Y-34533D02*
X48572Y-34443D01*
X48572Y-34691D02*
X48965Y-34691D01*
X48965Y-34691D02*
X48965Y-34600D01*
X48572Y-34600D02*
X48965Y-34600D01*
X48572Y-34691D02*
X48572Y-34600D01*
X48572Y-34848D02*
X48965Y-34848D01*
X48965Y-34848D02*
X48965Y-34758D01*
X48572Y-34758D02*
X48965Y-34758D01*
X48572Y-34848D02*
X48572Y-34758D01*
X48572Y-35006D02*
X48965Y-35006D01*
X48965Y-35006D02*
X48965Y-34915D01*
X48572Y-34915D02*
X48965Y-34915D01*
X48572Y-35006D02*
X48572Y-34915D01*
X48572Y-35163D02*
X48965Y-35163D01*
X48965Y-35163D02*
X48965Y-35073D01*
X48572Y-35073D02*
X48965Y-35073D01*
X48572Y-35163D02*
X48572Y-35073D01*
X48572Y-35321D02*
X48965Y-35321D01*
X48965Y-35321D02*
X48965Y-35230D01*
X48572Y-35230D02*
X48965Y-35230D01*
X48572Y-35321D02*
X48572Y-35230D01*
X48572Y-35478D02*
X48965Y-35478D01*
X48965Y-35478D02*
X48965Y-35388D01*
X48572Y-35388D02*
X48965Y-35388D01*
X48572Y-35478D02*
X48572Y-35388D01*
X48572Y-35636D02*
X48965Y-35636D01*
X48965Y-35636D02*
X48965Y-35545D01*
X48572Y-35545D02*
X48965Y-35545D01*
X48572Y-35636D02*
X48572Y-35545D01*
X48572Y-35793D02*
X48965Y-35793D01*
X48965Y-35793D02*
X48965Y-35702D01*
X48572Y-35702D02*
X48965Y-35702D01*
X48572Y-35793D02*
X48572Y-35702D01*
X48572Y-35950D02*
X48965Y-35950D01*
X48965Y-35950D02*
X48965Y-35859D01*
X48572Y-35859D02*
X48965Y-35859D01*
X48572Y-35950D02*
X48572Y-35859D01*
X48572Y-36107D02*
X48965Y-36107D01*
X48965Y-36107D02*
X48965Y-36016D01*
X48572Y-36016D02*
X48965Y-36016D01*
X48572Y-36107D02*
X48572Y-36016D01*
X48572Y-36264D02*
X48965Y-36264D01*
X48965Y-36264D02*
X48965Y-36174D01*
X48572Y-36174D02*
X48965Y-36174D01*
X48572Y-36264D02*
X48572Y-36174D01*
X48572Y-36422D02*
X48965Y-36422D01*
X48965Y-36422D02*
X48965Y-36331D01*
X48572Y-36331D02*
X48965Y-36331D01*
X48572Y-36422D02*
X48572Y-36331D01*
X48572Y-36579D02*
X48965Y-36579D01*
X48965Y-36579D02*
X48965Y-36489D01*
X48572Y-36489D02*
X48965Y-36489D01*
X48572Y-36579D02*
X48572Y-36489D01*
X48572Y-36737D02*
X48965Y-36737D01*
X48965Y-36737D02*
X48965Y-36646D01*
X48572Y-36646D02*
X48965Y-36646D01*
X48572Y-36737D02*
X48572Y-36646D01*
X48572Y-36894D02*
X48965Y-36894D01*
X48965Y-36894D02*
X48965Y-36804D01*
X48572Y-36804D02*
X48965Y-36804D01*
X48572Y-36894D02*
X48572Y-36804D01*
X48572Y-37052D02*
X48965Y-37052D01*
X48965Y-37052D02*
X48965Y-36961D01*
X48572Y-36961D02*
X48965Y-36961D01*
X48572Y-37052D02*
X48572Y-36961D01*
X48572Y-37209D02*
X48965Y-37209D01*
X48965Y-37209D02*
X48965Y-37119D01*
X48572Y-37119D02*
X48965Y-37119D01*
X48572Y-37209D02*
X48572Y-37119D01*
X48572Y-37367D02*
X48965Y-37367D01*
X48965Y-37367D02*
X48965Y-37276D01*
X48572Y-37276D02*
X48965Y-37276D01*
X48572Y-37367D02*
X48572Y-37276D01*
X48572Y-37524D02*
X48965Y-37524D01*
X48965Y-37524D02*
X48965Y-37434D01*
X48572Y-37434D02*
X48965Y-37434D01*
X48572Y-37524D02*
X48572Y-37434D01*
X48572Y-37682D02*
X48965Y-37682D01*
X48965Y-37682D02*
X48965Y-37591D01*
X48572Y-37591D02*
X48965Y-37591D01*
X48572Y-37682D02*
X48572Y-37591D01*
X48572Y-37839D02*
X48965Y-37839D01*
X48965Y-37839D02*
X48965Y-37749D01*
X48572Y-37749D02*
X48965Y-37749D01*
X48572Y-37839D02*
X48572Y-37749D01*
X48572Y-37997D02*
X48965Y-37997D01*
X48965Y-37997D02*
X48965Y-37906D01*
X48572Y-37906D02*
X48965Y-37906D01*
X48572Y-37997D02*
X48572Y-37906D01*
X48572Y-38154D02*
X48965Y-38154D01*
X48965Y-38154D02*
X48965Y-38064D01*
X48572Y-38064D02*
X48965Y-38064D01*
X48572Y-38154D02*
X48572Y-38064D01*
X48572Y-38312D02*
X48965Y-38312D01*
X48965Y-38312D02*
X48965Y-38221D01*
X48572Y-38221D02*
X48965Y-38221D01*
X48572Y-38312D02*
X48572Y-38221D01*
X48572Y-38469D02*
X48965Y-38469D01*
X48965Y-38469D02*
X48965Y-38379D01*
X48572Y-38379D02*
X48965Y-38379D01*
X48572Y-38469D02*
X48572Y-38379D01*
X48572Y-38627D02*
X48965Y-38627D01*
X48965Y-38627D02*
X48965Y-38536D01*
X48572Y-38536D02*
X48965Y-38536D01*
X48572Y-38627D02*
X48572Y-38536D01*
X48572Y-38784D02*
X48965Y-38784D01*
X48965Y-38784D02*
X48965Y-38694D01*
X48572Y-38694D02*
X48965Y-38694D01*
X48572Y-38784D02*
X48572Y-38694D01*
X48572Y-38942D02*
X48965Y-38942D01*
X48965Y-38942D02*
X48965Y-38851D01*
X48572Y-38851D02*
X48965Y-38851D01*
X48572Y-38942D02*
X48572Y-38851D01*
X48572Y-39099D02*
X48965Y-39099D01*
X48965Y-39099D02*
X48965Y-39009D01*
X48572Y-39009D02*
X48965Y-39009D01*
X48572Y-39099D02*
X48572Y-39009D01*
X48572Y-39257D02*
X48965Y-39257D01*
X48965Y-39257D02*
X48965Y-39166D01*
X48572Y-39166D02*
X48965Y-39166D01*
X48572Y-39257D02*
X48572Y-39166D01*
X43583Y-36928D02*
X44213Y-36928D01*
X44213Y-36928D02*
X44213Y-36298D01*
X43583Y-36298D02*
X44213Y-36298D01*
X43583Y-36928D02*
X43583Y-36298D01*
X44371Y-36928D02*
X44999Y-36928D01*
X44999Y-36928D02*
X44999Y-36298D01*
X44371Y-36298D02*
X44999Y-36298D01*
X44371Y-36928D02*
X44371Y-36298D01*
X45157Y-36928D02*
X45787Y-36928D01*
X45787Y-36928D02*
X45787Y-36298D01*
X45157Y-36298D02*
X45787Y-36298D01*
X45157Y-36928D02*
X45157Y-36298D01*
X43583Y-36140D02*
X44213Y-36140D01*
X44213Y-36140D02*
X44213Y-35512D01*
X43583Y-35512D02*
X44213Y-35512D01*
X43583Y-36140D02*
X43583Y-35512D01*
X45157Y-36140D02*
X45787Y-36140D01*
X45787Y-36140D02*
X45787Y-35512D01*
X45157Y-35512D02*
X45787Y-35512D01*
X45157Y-36140D02*
X45157Y-35512D01*
X43583Y-35354D02*
X44213Y-35354D01*
X44213Y-35354D02*
X44213Y-34724D01*
X43583Y-34724D02*
X44213Y-34724D01*
X43583Y-35354D02*
X43583Y-34724D01*
X44371Y-35354D02*
X44999Y-35354D01*
X44999Y-35354D02*
X44999Y-34724D01*
X44371Y-34724D02*
X44999Y-34724D01*
X44371Y-35354D02*
X44371Y-34724D01*
X45157Y-35354D02*
X45787Y-35354D01*
X45787Y-35354D02*
X45787Y-34724D01*
X45157Y-34724D02*
X45787Y-34724D01*
X45157Y-35354D02*
X45157Y-34724D01*
G54D10*
X40759Y-31900D02*
X48611Y-31900D01*
X48611Y-31900D02*
X48611Y-39752D01*
X48611Y-39752D02*
X41153Y-39752D01*
X41153Y-39752D02*
X40759Y-39358D01*
X40759Y-39358D02*
X40759Y-31900D01*
G54D19*
X42010Y-38778D02*
G75*
G03X42010Y-38778I-277J0D01*
G74*
G01*
G54D11*
X51771Y-30255D02*
X51771Y-28287D01*
X51771Y-28287D02*
X50511Y-28287D01*
X50511Y-28287D02*
X50511Y-30255D01*
X50511Y-30255D02*
X51771Y-30255D01*
G54D15*
X37525Y-37379D02*
X37525Y-36479D01*
X37525Y-36479D02*
X38025Y-36479D01*
X38025Y-36479D02*
X38025Y-37379D01*
X38025Y-37379D02*
X37525Y-37379D01*
X36608Y-35081D02*
X36608Y-35981D01*
X36608Y-35981D02*
X36108Y-35981D01*
X36108Y-35981D02*
X36108Y-35081D01*
X36108Y-35081D02*
X36608Y-35081D01*
X39423Y-50160D02*
X39423Y-51060D01*
X39423Y-51060D02*
X38923Y-51060D01*
X38923Y-51060D02*
X38923Y-50160D01*
X38923Y-50160D02*
X39423Y-50160D01*
X38053Y-47112D02*
X38953Y-47112D01*
X38953Y-47112D02*
X38953Y-47612D01*
X38953Y-47612D02*
X38053Y-47612D01*
X38053Y-47612D02*
X38053Y-47112D01*
X51257Y-22612D02*
X50357Y-22612D01*
X50357Y-22612D02*
X50357Y-22112D01*
X50357Y-22112D02*
X51257Y-22112D01*
X51257Y-22112D02*
X51257Y-22612D01*
X46785Y-21518D02*
X46785Y-22418D01*
X46785Y-22418D02*
X46285Y-22418D01*
X46285Y-22418D02*
X46285Y-21518D01*
X46285Y-21518D02*
X46785Y-21518D01*
X43664Y-26029D02*
X44564Y-26029D01*
X44564Y-26029D02*
X44564Y-26529D01*
X44564Y-26529D02*
X43664Y-26529D01*
X43664Y-26529D02*
X43664Y-26029D01*
X48202Y-21557D02*
X48202Y-22457D01*
X48202Y-22457D02*
X47702Y-22457D01*
X47702Y-22457D02*
X47702Y-21557D01*
X47702Y-21557D02*
X48202Y-21557D01*
X45025Y-45056D02*
X45025Y-44156D01*
X45025Y-44156D02*
X45525Y-44156D01*
X45525Y-44156D02*
X45525Y-45056D01*
X45525Y-45056D02*
X45025Y-45056D01*
X43832Y-22640D02*
X43832Y-23540D01*
X43832Y-23540D02*
X43332Y-23540D01*
X43332Y-23540D02*
X43332Y-22640D01*
X43332Y-22640D02*
X43832Y-22640D01*
X40376Y-24612D02*
X41276Y-24612D01*
X41276Y-24612D02*
X41276Y-25112D01*
X41276Y-25112D02*
X40376Y-25112D01*
X40376Y-25112D02*
X40376Y-24612D01*
X40550Y-46300D02*
X40550Y-45400D01*
X40550Y-45400D02*
X41050Y-45400D01*
X41050Y-45400D02*
X41050Y-46300D01*
X41050Y-46300D02*
X40550Y-46300D01*
X41774Y-23155D02*
X42674Y-23155D01*
X42674Y-23155D02*
X42674Y-23655D01*
X42674Y-23655D02*
X41774Y-23655D01*
X41774Y-23655D02*
X41774Y-23155D01*
X49583Y-30722D02*
X48683Y-30722D01*
X48683Y-30722D02*
X48683Y-30222D01*
X48683Y-30222D02*
X49583Y-30222D01*
X49583Y-30222D02*
X49583Y-30722D01*
X46234Y-21518D02*
X46234Y-22418D01*
X46234Y-22418D02*
X45734Y-22418D01*
X45734Y-22418D02*
X45734Y-21518D01*
X45734Y-21518D02*
X46234Y-21518D01*
X49583Y-30171D02*
X48683Y-30171D01*
X48683Y-30171D02*
X48683Y-29671D01*
X48683Y-29671D02*
X49583Y-29671D01*
X49583Y-29671D02*
X49583Y-30171D01*
X50416Y-23234D02*
X51316Y-23234D01*
X51316Y-23234D02*
X51316Y-23734D01*
X51316Y-23734D02*
X50416Y-23734D01*
X50416Y-23734D02*
X50416Y-23234D01*
X52601Y-22624D02*
X53501Y-22624D01*
X53501Y-22624D02*
X53501Y-23124D01*
X53501Y-23124D02*
X52601Y-23124D01*
X52601Y-23124D02*
X52601Y-22624D01*
X50376Y-21541D02*
X51276Y-21541D01*
X51276Y-21541D02*
X51276Y-22041D01*
X51276Y-22041D02*
X50376Y-22041D01*
X50376Y-22041D02*
X50376Y-21541D01*
X51663Y-36650D02*
X52299Y-37286D01*
X52299Y-37286D02*
X51946Y-37639D01*
X51946Y-37639D02*
X51310Y-37003D01*
X51310Y-37003D02*
X51663Y-36650D01*
X38112Y-36895D02*
X39012Y-36895D01*
X39012Y-36895D02*
X39012Y-37395D01*
X39012Y-37395D02*
X38112Y-37395D01*
X38112Y-37395D02*
X38112Y-36895D01*
X51867Y-24541D02*
X50967Y-24541D01*
X50967Y-24541D02*
X50967Y-24041D01*
X50967Y-24041D02*
X51867Y-24041D01*
X51867Y-24041D02*
X51867Y-24541D01*
X45525Y-29766D02*
X45525Y-30666D01*
X45525Y-30666D02*
X45025Y-30666D01*
X45025Y-30666D02*
X45025Y-29766D01*
X45025Y-29766D02*
X45525Y-29766D01*
X46150Y-30950D02*
X46150Y-30050D01*
X46150Y-30050D02*
X46650Y-30050D01*
X46650Y-30050D02*
X46650Y-30950D01*
X46650Y-30950D02*
X46150Y-30950D01*
X50150Y-33050D02*
X51050Y-33050D01*
X51050Y-33050D02*
X51050Y-33550D01*
X51050Y-33550D02*
X50150Y-33550D01*
X50150Y-33550D02*
X50150Y-33050D01*
X50140Y-31383D02*
X51040Y-31383D01*
X51040Y-31383D02*
X51040Y-31883D01*
X51040Y-31883D02*
X50140Y-31883D01*
X50140Y-31883D02*
X50140Y-31383D01*
X52556Y-32494D02*
X51656Y-32494D01*
X51656Y-32494D02*
X51656Y-31994D01*
X51656Y-31994D02*
X52556Y-31994D01*
X52556Y-31994D02*
X52556Y-32494D01*
X52556Y-33045D02*
X51656Y-33045D01*
X51656Y-33045D02*
X51656Y-32545D01*
X51656Y-32545D02*
X52556Y-32545D01*
X52556Y-32545D02*
X52556Y-33045D01*
X51400Y-33116D02*
X52300Y-33116D01*
X52300Y-33116D02*
X52300Y-33616D01*
X52300Y-33616D02*
X51400Y-33616D01*
X51400Y-33616D02*
X51400Y-33116D01*
X48009Y-29265D02*
X47109Y-29265D01*
X47109Y-29265D02*
X47109Y-28765D01*
X47109Y-28765D02*
X48009Y-28765D01*
X48009Y-28765D02*
X48009Y-29265D01*
X49553Y-32930D02*
X49553Y-32030D01*
X49553Y-32030D02*
X50053Y-32030D01*
X50053Y-32030D02*
X50053Y-32930D01*
X50053Y-32930D02*
X49553Y-32930D01*
X48706Y-31808D02*
X48706Y-30908D01*
X48706Y-30908D02*
X49206Y-30908D01*
X49206Y-30908D02*
X49206Y-31808D01*
X49206Y-31808D02*
X48706Y-31808D01*
X50036Y-29521D02*
X49136Y-29521D01*
X49136Y-29521D02*
X49136Y-29021D01*
X49136Y-29021D02*
X50036Y-29021D01*
X50036Y-29021D02*
X50036Y-29521D01*
X49474Y-31906D02*
X49474Y-31006D01*
X49474Y-31006D02*
X49974Y-31006D01*
X49974Y-31006D02*
X49974Y-31906D01*
X49974Y-31906D02*
X49474Y-31906D01*
X50140Y-31974D02*
X51040Y-31974D01*
X51040Y-31974D02*
X51040Y-32474D01*
X51040Y-32474D02*
X50140Y-32474D01*
X50140Y-32474D02*
X50140Y-31974D01*
X41892Y-25124D02*
X42792Y-25124D01*
X42792Y-25124D02*
X42792Y-25624D01*
X42792Y-25624D02*
X41892Y-25624D01*
X41892Y-25624D02*
X41892Y-25124D01*
X41892Y-24513D02*
X42792Y-24513D01*
X42792Y-24513D02*
X42792Y-25013D01*
X42792Y-25013D02*
X41892Y-25013D01*
X41892Y-25013D02*
X41892Y-24513D01*
X36757Y-36926D02*
X36757Y-36026D01*
X36757Y-36026D02*
X37257Y-36026D01*
X37257Y-36026D02*
X37257Y-36926D01*
X37257Y-36926D02*
X36757Y-36926D01*
X49057Y-23076D02*
X49957Y-23076D01*
X49957Y-23076D02*
X49957Y-23576D01*
X49957Y-23576D02*
X49057Y-23576D01*
X49057Y-23576D02*
X49057Y-23076D01*
X41335Y-23399D02*
X40435Y-23399D01*
X40435Y-23399D02*
X40435Y-22899D01*
X40435Y-22899D02*
X41335Y-22899D01*
X41335Y-22899D02*
X41335Y-23399D01*
X49406Y-26706D02*
X48506Y-26706D01*
X48506Y-26706D02*
X48506Y-26206D01*
X48506Y-26206D02*
X49406Y-26206D01*
X49406Y-26206D02*
X49406Y-26706D01*
X49820Y-26155D02*
X48920Y-26155D01*
X48920Y-26155D02*
X48920Y-25655D01*
X48920Y-25655D02*
X49820Y-25655D01*
X49820Y-25655D02*
X49820Y-26155D01*
X46706Y-26498D02*
X46706Y-27398D01*
X46706Y-27398D02*
X46206Y-27398D01*
X46206Y-27398D02*
X46206Y-26498D01*
X46206Y-26498D02*
X46706Y-26498D01*
X51729Y-25643D02*
X50829Y-25643D01*
X50829Y-25643D02*
X50829Y-25143D01*
X50829Y-25143D02*
X51729Y-25143D01*
X51729Y-25143D02*
X51729Y-25643D01*
X51729Y-25092D02*
X50829Y-25092D01*
X50829Y-25092D02*
X50829Y-24592D01*
X50829Y-24592D02*
X51729Y-24592D01*
X51729Y-24592D02*
X51729Y-25092D01*
X42958Y-21257D02*
X42958Y-20357D01*
X42958Y-20357D02*
X43458Y-20357D01*
X43458Y-20357D02*
X43458Y-21257D01*
X43458Y-21257D02*
X42958Y-21257D01*
X47109Y-29356D02*
X48009Y-29356D01*
X48009Y-29356D02*
X48009Y-29856D01*
X48009Y-29856D02*
X47109Y-29856D01*
X47109Y-29856D02*
X47109Y-29356D01*
X51872Y-20143D02*
X52772Y-20143D01*
X52772Y-20143D02*
X52772Y-20643D01*
X52772Y-20643D02*
X51872Y-20643D01*
X51872Y-20643D02*
X51872Y-20143D01*
X52300Y-23940D02*
X52936Y-23304D01*
X52936Y-23304D02*
X53290Y-23657D01*
X53290Y-23657D02*
X52653Y-24294D01*
X52653Y-24294D02*
X52300Y-23940D01*
X39375Y-53914D02*
X39375Y-53014D01*
X39375Y-53014D02*
X39875Y-53014D01*
X39875Y-53014D02*
X39875Y-53914D01*
X39875Y-53914D02*
X39375Y-53914D01*
X39927Y-53914D02*
X39927Y-53014D01*
X39927Y-53014D02*
X40427Y-53014D01*
X40427Y-53014D02*
X40427Y-53914D01*
X40427Y-53914D02*
X39927Y-53914D01*
X40478Y-53914D02*
X40478Y-53014D01*
X40478Y-53014D02*
X40978Y-53014D01*
X40978Y-53014D02*
X40978Y-53914D01*
X40978Y-53914D02*
X40478Y-53914D01*
X51400Y-31403D02*
X52300Y-31403D01*
X52300Y-31403D02*
X52300Y-31903D01*
X52300Y-31903D02*
X51400Y-31903D01*
X51400Y-31903D02*
X51400Y-31403D01*
X37801Y-51060D02*
X37801Y-50160D01*
X37801Y-50160D02*
X38301Y-50160D01*
X38301Y-50160D02*
X38301Y-51060D01*
X38301Y-51060D02*
X37801Y-51060D01*
X38372Y-51060D02*
X38372Y-50160D01*
X38372Y-50160D02*
X38872Y-50160D01*
X38872Y-50160D02*
X38872Y-51060D01*
X38872Y-51060D02*
X38372Y-51060D01*
X37250Y-51060D02*
X37250Y-50160D01*
X37250Y-50160D02*
X37750Y-50160D01*
X37750Y-50160D02*
X37750Y-51060D01*
X37750Y-51060D02*
X37250Y-51060D01*
X45525Y-25396D02*
X45525Y-26296D01*
X45525Y-26296D02*
X45025Y-26296D01*
X45025Y-26296D02*
X45025Y-25396D01*
X45025Y-25396D02*
X45525Y-25396D01*
X39364Y-53014D02*
X39364Y-53914D01*
X39364Y-53914D02*
X38864Y-53914D01*
X38864Y-53914D02*
X38864Y-53014D01*
X38864Y-53014D02*
X39364Y-53014D01*
X36872Y-47112D02*
X37772Y-47112D01*
X37772Y-47112D02*
X37772Y-47612D01*
X37772Y-47612D02*
X36872Y-47612D01*
X36872Y-47612D02*
X36872Y-47112D01*
X44589Y-22564D02*
X45489Y-22564D01*
X45489Y-22564D02*
X45489Y-23064D01*
X45489Y-23064D02*
X44589Y-23064D01*
X44589Y-23064D02*
X44589Y-22564D01*
X40500Y-43750D02*
X40500Y-42850D01*
X40500Y-42850D02*
X41000Y-42850D01*
X41000Y-42850D02*
X41000Y-43750D01*
X41000Y-43750D02*
X40500Y-43750D01*
X53520Y-22553D02*
X52620Y-22553D01*
X52620Y-22553D02*
X52620Y-22053D01*
X52620Y-22053D02*
X53520Y-22053D01*
X53520Y-22053D02*
X53520Y-22553D01*
X38352Y-53914D02*
X38352Y-53014D01*
X38352Y-53014D02*
X38852Y-53014D01*
X38852Y-53014D02*
X38852Y-53914D01*
X38852Y-53914D02*
X38352Y-53914D01*
X43979Y-22013D02*
X44879Y-22013D01*
X44879Y-22013D02*
X44879Y-22513D01*
X44879Y-22513D02*
X43979Y-22513D01*
X43979Y-22513D02*
X43979Y-22013D01*
X35494Y-33175D02*
X36394Y-33175D01*
X36394Y-33175D02*
X36394Y-33675D01*
X36394Y-33675D02*
X35494Y-33675D01*
X35494Y-33675D02*
X35494Y-33175D01*
X52620Y-21561D02*
X53520Y-21561D01*
X53520Y-21561D02*
X53520Y-22061D01*
X53520Y-22061D02*
X52620Y-22061D01*
X52620Y-22061D02*
X52620Y-21561D01*
X41276Y-24561D02*
X40376Y-24561D01*
X40376Y-24561D02*
X40376Y-24061D01*
X40376Y-24061D02*
X41276Y-24061D01*
X41276Y-24061D02*
X41276Y-24561D01*
X35475Y-33962D02*
X36375Y-33962D01*
X36375Y-33962D02*
X36375Y-34462D01*
X36375Y-34462D02*
X35475Y-34462D01*
X35475Y-34462D02*
X35475Y-33962D01*
X53520Y-21568D02*
X52620Y-21568D01*
X52620Y-21568D02*
X52620Y-21068D01*
X52620Y-21068D02*
X53520Y-21068D01*
X53520Y-21068D02*
X53520Y-21568D01*
X37257Y-35061D02*
X37257Y-35961D01*
X37257Y-35961D02*
X36757Y-35961D01*
X36757Y-35961D02*
X36757Y-35061D01*
X36757Y-35061D02*
X37257Y-35061D01*
X40852Y-28324D02*
X40852Y-27424D01*
X40852Y-27424D02*
X41352Y-27424D01*
X41352Y-27424D02*
X41352Y-28324D01*
X41352Y-28324D02*
X40852Y-28324D01*
X46729Y-29265D02*
X45829Y-29265D01*
X45829Y-29265D02*
X45829Y-28765D01*
X45829Y-28765D02*
X46729Y-28765D01*
X46729Y-28765D02*
X46729Y-29265D01*
X42772Y-24364D02*
X41872Y-24364D01*
X41872Y-24364D02*
X41872Y-23864D01*
X41872Y-23864D02*
X42772Y-23864D01*
X42772Y-23864D02*
X42772Y-24364D01*
X46729Y-29856D02*
X45829Y-29856D01*
X45829Y-29856D02*
X45829Y-29356D01*
X45829Y-29356D02*
X46729Y-29356D01*
X46729Y-29356D02*
X46729Y-29856D01*
X43683Y-25419D02*
X44583Y-25419D01*
X44583Y-25419D02*
X44583Y-25919D01*
X44583Y-25919D02*
X43683Y-25919D01*
X43683Y-25919D02*
X43683Y-25419D01*
X42831Y-22868D02*
X41931Y-22868D01*
X41931Y-22868D02*
X41931Y-22368D01*
X41931Y-22368D02*
X42831Y-22368D01*
X42831Y-22368D02*
X42831Y-22868D01*
X36718Y-51060D02*
X36718Y-50160D01*
X36718Y-50160D02*
X37218Y-50160D01*
X37218Y-50160D02*
X37218Y-51060D01*
X37218Y-51060D02*
X36718Y-51060D01*
X36765Y-50160D02*
X36765Y-51060D01*
X36765Y-51060D02*
X36265Y-51060D01*
X36265Y-51060D02*
X36265Y-50160D01*
X36265Y-50160D02*
X36765Y-50160D01*
X42125Y-41800D02*
X42125Y-42700D01*
X42125Y-42700D02*
X41625Y-42700D01*
X41625Y-42700D02*
X41625Y-41800D01*
X41625Y-41800D02*
X42125Y-41800D01*
X40734Y-48914D02*
X40734Y-48014D01*
X40734Y-48014D02*
X41234Y-48014D01*
X41234Y-48014D02*
X41234Y-48914D01*
X41234Y-48914D02*
X40734Y-48914D01*
X41194Y-46794D02*
X41194Y-47694D01*
X41194Y-47694D02*
X40694Y-47694D01*
X40694Y-47694D02*
X40694Y-46794D01*
X40694Y-46794D02*
X41194Y-46794D01*
X45704Y-25401D02*
X45704Y-25501D01*
X45704Y-25501D02*
X45904Y-25751D01*
X45904Y-25751D02*
X46054Y-25751D01*
X45704Y-25401D02*
X45704Y-22751D01*
X45704Y-22751D02*
X48704Y-22751D01*
X48704Y-22751D02*
X48704Y-25751D01*
X48704Y-25751D02*
X46054Y-25751D01*
X46047Y-25562D02*
G75*
G03X46047Y-25562I-125J0D01*
G74*
G01*
G54D11*
X43851Y-25748D02*
X43664Y-25748D01*
X43664Y-25355D01*
X44151Y-25486D02*
X44151Y-25748D01*
X44057Y-25336D02*
X43964Y-25617D01*
X44207Y-25617D01*
G54D15*
X44001Y-23316D02*
X43801Y-23316D01*
X43801Y-23269D01*
X43811Y-23240D01*
X43830Y-23221D01*
X43849Y-23212D01*
X43887Y-23202D01*
X43915Y-23202D01*
X43953Y-23212D01*
X43972Y-23221D01*
X43991Y-23240D01*
X44001Y-23269D01*
X44001Y-23316D01*
X44001Y-23012D02*
X44001Y-23126D01*
X44001Y-23069D02*
X43801Y-23069D01*
X43830Y-23088D01*
X43849Y-23107D01*
X43858Y-23126D01*
G54D20*
X45366Y-46053D02*
X45376Y-46062D01*
X45385Y-46087D01*
X45385Y-46105D01*
X45376Y-46130D01*
X45357Y-46147D01*
X45338Y-46156D01*
X45300Y-46165D01*
X45271Y-46165D01*
X45233Y-46156D01*
X45214Y-46147D01*
X45195Y-46130D01*
X45185Y-46105D01*
X45185Y-46087D01*
X45195Y-46062D01*
X45204Y-46053D01*
X45185Y-45993D02*
X45185Y-45882D01*
X45261Y-45942D01*
X45261Y-45916D01*
X45271Y-45899D01*
X45280Y-45890D01*
X45300Y-45882D01*
X45347Y-45882D01*
X45366Y-45890D01*
X45376Y-45899D01*
X45385Y-45916D01*
X45385Y-45967D01*
X45376Y-45985D01*
X45366Y-45993D01*
X45347Y-43671D02*
X45356Y-43680D01*
X45366Y-43706D01*
X45366Y-43723D01*
X45356Y-43748D01*
X45337Y-43766D01*
X45318Y-43774D01*
X45280Y-43783D01*
X45251Y-43783D01*
X45213Y-43774D01*
X45194Y-43766D01*
X45175Y-43748D01*
X45166Y-43723D01*
X45166Y-43706D01*
X45175Y-43680D01*
X45185Y-43671D01*
X45185Y-43603D02*
X45175Y-43594D01*
X45166Y-43577D01*
X45166Y-43534D01*
X45175Y-43517D01*
X45185Y-43508D01*
X45204Y-43500D01*
X45223Y-43500D01*
X45251Y-43508D01*
X45366Y-43611D01*
X45366Y-43500D01*
X45327Y-47510D02*
X45336Y-47518D01*
X45346Y-47544D01*
X45346Y-47561D01*
X45336Y-47587D01*
X45317Y-47604D01*
X45298Y-47613D01*
X45260Y-47621D01*
X45232Y-47621D01*
X45194Y-47613D01*
X45174Y-47604D01*
X45155Y-47587D01*
X45146Y-47561D01*
X45146Y-47544D01*
X45155Y-47518D01*
X45165Y-47510D01*
X45346Y-47338D02*
X45346Y-47441D01*
X45346Y-47390D02*
X45146Y-47390D01*
X45174Y-47407D01*
X45194Y-47424D01*
X45203Y-47441D01*
G54D15*
X35439Y-47953D02*
X35439Y-48156D01*
X35451Y-48179D01*
X35463Y-48191D01*
X35487Y-48203D01*
X35534Y-48203D01*
X35558Y-48191D01*
X35570Y-48179D01*
X35582Y-48156D01*
X35582Y-47953D01*
X35808Y-47953D02*
X35760Y-47953D01*
X35737Y-47965D01*
X35725Y-47977D01*
X35701Y-48013D01*
X35689Y-48060D01*
X35689Y-48156D01*
X35701Y-48179D01*
X35713Y-48191D01*
X35737Y-48203D01*
X35784Y-48203D01*
X35808Y-48191D01*
X35820Y-48179D01*
X35832Y-48156D01*
X35832Y-48096D01*
X35820Y-48072D01*
X35808Y-48060D01*
X35784Y-48049D01*
X35737Y-48049D01*
X35713Y-48060D01*
X35701Y-48072D01*
X35689Y-48096D01*
X37329Y-54292D02*
X37329Y-54494D01*
X37341Y-54518D01*
X37352Y-54530D01*
X37376Y-54542D01*
X37424Y-54542D01*
X37448Y-54530D01*
X37460Y-54518D01*
X37471Y-54494D01*
X37471Y-54292D01*
X37567Y-54292D02*
X37733Y-54292D01*
X37626Y-54542D01*
G54D21*
X36454Y-44517D02*
X36777Y-44517D01*
X36816Y-44498D01*
X36835Y-44479D01*
X36854Y-44441D01*
X36854Y-44364D01*
X36835Y-44326D01*
X36816Y-44307D01*
X36777Y-44288D01*
X36454Y-44288D01*
X36854Y-43888D02*
X36854Y-44117D01*
X36854Y-44003D02*
X36454Y-44003D01*
X36511Y-44041D01*
X36549Y-44079D01*
X36568Y-44117D01*
G54D11*
X46831Y-26916D02*
X46831Y-27103D01*
X46437Y-27103D01*
X46475Y-26803D02*
X46456Y-26784D01*
X46437Y-26747D01*
X46437Y-26653D01*
X46456Y-26616D01*
X46475Y-26597D01*
X46512Y-26578D01*
X46550Y-26578D01*
X46606Y-26597D01*
X46831Y-26822D01*
X46831Y-26578D01*
X49717Y-25965D02*
X49530Y-25965D01*
X49530Y-25571D01*
X49811Y-25571D02*
X50055Y-25571D01*
X49924Y-25721D01*
X49980Y-25721D01*
X50017Y-25740D01*
X50036Y-25759D01*
X50055Y-25796D01*
X50055Y-25890D01*
X50036Y-25928D01*
X50017Y-25946D01*
X49980Y-25965D01*
X49867Y-25965D01*
X49830Y-25946D01*
X49811Y-25928D01*
X35643Y-54607D02*
X35455Y-54607D01*
X35455Y-54213D01*
X35961Y-54213D02*
X35774Y-54213D01*
X35755Y-54401D01*
X35774Y-54382D01*
X35811Y-54363D01*
X35905Y-54363D01*
X35943Y-54382D01*
X35961Y-54401D01*
X35980Y-54438D01*
X35980Y-54532D01*
X35961Y-54569D01*
X35943Y-54588D01*
X35905Y-54607D01*
X35811Y-54607D01*
X35774Y-54588D01*
X35755Y-54569D01*
X37237Y-48032D02*
X37050Y-48032D01*
X37050Y-47638D01*
X37574Y-48032D02*
X37350Y-48032D01*
X37462Y-48032D02*
X37462Y-47638D01*
X37425Y-47694D01*
X37387Y-47732D01*
X37350Y-47751D01*
G54D19*
X49429Y-41177D02*
X49372Y-41217D01*
X49429Y-41245D02*
X49309Y-41245D01*
X49309Y-41200D01*
X49315Y-41188D01*
X49320Y-41182D01*
X49332Y-41177D01*
X49349Y-41177D01*
X49360Y-41182D01*
X49366Y-41188D01*
X49372Y-41200D01*
X49372Y-41245D01*
X49429Y-41062D02*
X49429Y-41131D01*
X49429Y-41097D02*
X49309Y-41097D01*
X49326Y-41108D01*
X49337Y-41120D01*
X49343Y-41131D01*
X49309Y-41022D02*
X49309Y-40942D01*
X49429Y-40994D01*
X49829Y-41177D02*
X49772Y-41217D01*
X49829Y-41245D02*
X49709Y-41245D01*
X49709Y-41200D01*
X49715Y-41188D01*
X49720Y-41182D01*
X49732Y-41177D01*
X49749Y-41177D01*
X49760Y-41182D01*
X49766Y-41188D01*
X49772Y-41200D01*
X49772Y-41245D01*
X49829Y-41062D02*
X49829Y-41131D01*
X49829Y-41097D02*
X49709Y-41097D01*
X49726Y-41108D01*
X49737Y-41120D01*
X49743Y-41131D01*
X49760Y-40994D02*
X49755Y-41005D01*
X49749Y-41011D01*
X49737Y-41017D01*
X49732Y-41017D01*
X49720Y-41011D01*
X49715Y-41005D01*
X49709Y-40994D01*
X49709Y-40971D01*
X49715Y-40960D01*
X49720Y-40954D01*
X49732Y-40948D01*
X49737Y-40948D01*
X49749Y-40954D01*
X49755Y-40960D01*
X49760Y-40971D01*
X49760Y-40994D01*
X49766Y-41005D01*
X49772Y-41011D01*
X49783Y-41017D01*
X49806Y-41017D01*
X49817Y-41011D01*
X49823Y-41005D01*
X49829Y-40994D01*
X49829Y-40971D01*
X49823Y-40960D01*
X49817Y-40954D01*
X49806Y-40948D01*
X49783Y-40948D01*
X49772Y-40954D01*
X49766Y-40960D01*
X49760Y-40971D01*
X43954Y-42577D02*
X43897Y-42617D01*
X43954Y-42645D02*
X43834Y-42645D01*
X43834Y-42600D01*
X43840Y-42588D01*
X43845Y-42582D01*
X43857Y-42577D01*
X43874Y-42577D01*
X43885Y-42582D01*
X43891Y-42588D01*
X43897Y-42600D01*
X43897Y-42645D01*
X43954Y-42462D02*
X43954Y-42531D01*
X43954Y-42497D02*
X43834Y-42497D01*
X43851Y-42508D01*
X43862Y-42520D01*
X43868Y-42531D01*
X43954Y-42405D02*
X43954Y-42382D01*
X43948Y-42371D01*
X43942Y-42365D01*
X43925Y-42354D01*
X43902Y-42348D01*
X43857Y-42348D01*
X43845Y-42354D01*
X43840Y-42360D01*
X43834Y-42371D01*
X43834Y-42394D01*
X43840Y-42405D01*
X43845Y-42411D01*
X43857Y-42417D01*
X43885Y-42417D01*
X43897Y-42411D01*
X43902Y-42405D01*
X43908Y-42394D01*
X43908Y-42371D01*
X43902Y-42360D01*
X43897Y-42354D01*
X43885Y-42348D01*
X44304Y-42577D02*
X44247Y-42617D01*
X44304Y-42645D02*
X44184Y-42645D01*
X44184Y-42600D01*
X44190Y-42588D01*
X44195Y-42582D01*
X44207Y-42577D01*
X44224Y-42577D01*
X44235Y-42582D01*
X44241Y-42588D01*
X44247Y-42600D01*
X44247Y-42645D01*
X44195Y-42531D02*
X44190Y-42525D01*
X44184Y-42514D01*
X44184Y-42485D01*
X44190Y-42474D01*
X44195Y-42468D01*
X44207Y-42462D01*
X44218Y-42462D01*
X44235Y-42468D01*
X44304Y-42537D01*
X44304Y-42462D01*
X44184Y-42388D02*
X44184Y-42377D01*
X44190Y-42365D01*
X44195Y-42360D01*
X44207Y-42354D01*
X44230Y-42348D01*
X44258Y-42348D01*
X44281Y-42354D01*
X44292Y-42360D01*
X44298Y-42365D01*
X44304Y-42377D01*
X44304Y-42388D01*
X44298Y-42400D01*
X44292Y-42405D01*
X44281Y-42411D01*
X44258Y-42417D01*
X44230Y-42417D01*
X44207Y-42411D01*
X44195Y-42405D01*
X44190Y-42400D01*
X44184Y-42388D01*
X47125Y-42085D02*
X47068Y-42125D01*
X47125Y-42153D02*
X47005Y-42153D01*
X47005Y-42107D01*
X47011Y-42096D01*
X47017Y-42090D01*
X47028Y-42085D01*
X47045Y-42085D01*
X47057Y-42090D01*
X47063Y-42096D01*
X47068Y-42107D01*
X47068Y-42153D01*
X47017Y-42039D02*
X47011Y-42033D01*
X47005Y-42022D01*
X47005Y-41993D01*
X47011Y-41982D01*
X47017Y-41976D01*
X47028Y-41970D01*
X47040Y-41970D01*
X47057Y-41976D01*
X47125Y-42045D01*
X47125Y-41970D01*
X47017Y-41925D02*
X47011Y-41919D01*
X47005Y-41907D01*
X47005Y-41879D01*
X47011Y-41867D01*
X47017Y-41862D01*
X47028Y-41856D01*
X47040Y-41856D01*
X47057Y-41862D01*
X47125Y-41930D01*
X47125Y-41856D01*
X43004Y-42577D02*
X42947Y-42617D01*
X43004Y-42645D02*
X42884Y-42645D01*
X42884Y-42600D01*
X42890Y-42588D01*
X42895Y-42582D01*
X42907Y-42577D01*
X42924Y-42577D01*
X42935Y-42582D01*
X42941Y-42588D01*
X42947Y-42600D01*
X42947Y-42645D01*
X42924Y-42474D02*
X43004Y-42474D01*
X42878Y-42502D02*
X42964Y-42531D01*
X42964Y-42457D01*
X42895Y-42417D02*
X42890Y-42411D01*
X42884Y-42400D01*
X42884Y-42371D01*
X42890Y-42360D01*
X42895Y-42354D01*
X42907Y-42348D01*
X42918Y-42348D01*
X42935Y-42354D01*
X43004Y-42422D01*
X43004Y-42348D01*
X45704Y-42077D02*
X45647Y-42117D01*
X45704Y-42145D02*
X45584Y-42145D01*
X45584Y-42100D01*
X45590Y-42088D01*
X45595Y-42082D01*
X45607Y-42077D01*
X45624Y-42077D01*
X45635Y-42082D01*
X45641Y-42088D01*
X45647Y-42100D01*
X45647Y-42145D01*
X45624Y-41974D02*
X45704Y-41974D01*
X45578Y-42002D02*
X45664Y-42031D01*
X45664Y-41957D01*
X45584Y-41922D02*
X45584Y-41848D01*
X45630Y-41888D01*
X45630Y-41871D01*
X45635Y-41860D01*
X45641Y-41854D01*
X45652Y-41848D01*
X45681Y-41848D01*
X45692Y-41854D01*
X45698Y-41860D01*
X45704Y-41871D01*
X45704Y-41905D01*
X45698Y-41917D01*
X45692Y-41922D01*
X46751Y-42085D02*
X46694Y-42125D01*
X46751Y-42153D02*
X46631Y-42153D01*
X46631Y-42107D01*
X46637Y-42096D01*
X46643Y-42090D01*
X46654Y-42085D01*
X46671Y-42085D01*
X46683Y-42090D01*
X46689Y-42096D01*
X46694Y-42107D01*
X46694Y-42153D01*
X46643Y-42039D02*
X46637Y-42033D01*
X46631Y-42022D01*
X46631Y-41993D01*
X46637Y-41982D01*
X46643Y-41976D01*
X46654Y-41970D01*
X46666Y-41970D01*
X46683Y-41976D01*
X46751Y-42045D01*
X46751Y-41970D01*
X46751Y-41856D02*
X46751Y-41925D01*
X46751Y-41890D02*
X46631Y-41890D01*
X46649Y-41902D01*
X46660Y-41913D01*
X46666Y-41925D01*
X50059Y-46041D02*
X50001Y-46081D01*
X50059Y-46110D02*
X49939Y-46110D01*
X49939Y-46064D01*
X49944Y-46053D01*
X49950Y-46047D01*
X49961Y-46041D01*
X49979Y-46041D01*
X49990Y-46047D01*
X49996Y-46053D01*
X50001Y-46064D01*
X50001Y-46110D01*
X49939Y-45933D02*
X49939Y-45990D01*
X49996Y-45995D01*
X49990Y-45990D01*
X49984Y-45978D01*
X49984Y-45950D01*
X49990Y-45938D01*
X49996Y-45933D01*
X50007Y-45927D01*
X50036Y-45927D01*
X50047Y-45933D01*
X50053Y-45938D01*
X50059Y-45950D01*
X50059Y-45978D01*
X50053Y-45990D01*
X50047Y-45995D01*
X49939Y-45853D02*
X49939Y-45841D01*
X49944Y-45830D01*
X49950Y-45824D01*
X49961Y-45818D01*
X49984Y-45813D01*
X50013Y-45813D01*
X50036Y-45818D01*
X50047Y-45824D01*
X50053Y-45830D01*
X50059Y-45841D01*
X50059Y-45853D01*
X50053Y-45864D01*
X50047Y-45870D01*
X50036Y-45875D01*
X50013Y-45881D01*
X49984Y-45881D01*
X49961Y-45875D01*
X49950Y-45870D01*
X49944Y-45864D01*
X49939Y-45853D01*
X45618Y-41528D02*
X45610Y-41528D01*
X45594Y-41520D01*
X45586Y-41512D01*
X45578Y-41495D01*
X45578Y-41479D01*
X45582Y-41467D01*
X45594Y-41447D01*
X45606Y-41435D01*
X45626Y-41423D01*
X45638Y-41419D01*
X45654Y-41419D01*
X45670Y-41427D01*
X45679Y-41435D01*
X45687Y-41451D01*
X45687Y-41459D01*
X45771Y-41528D02*
X45731Y-41487D01*
X45687Y-41524D01*
X45695Y-41524D01*
X45707Y-41528D01*
X45727Y-41548D01*
X45731Y-41560D01*
X45731Y-41568D01*
X45727Y-41580D01*
X45707Y-41601D01*
X45695Y-41605D01*
X45687Y-41605D01*
X45674Y-41601D01*
X45654Y-41580D01*
X45650Y-41568D01*
X45650Y-41560D01*
X48148Y-40866D02*
X48154Y-40872D01*
X48159Y-40889D01*
X48159Y-40900D01*
X48154Y-40917D01*
X48142Y-40929D01*
X48131Y-40935D01*
X48108Y-40940D01*
X48091Y-40940D01*
X48068Y-40935D01*
X48056Y-40929D01*
X48045Y-40917D01*
X48039Y-40900D01*
X48039Y-40889D01*
X48045Y-40872D01*
X48051Y-40866D01*
X48039Y-40763D02*
X48039Y-40786D01*
X48045Y-40797D01*
X48051Y-40803D01*
X48068Y-40815D01*
X48091Y-40820D01*
X48136Y-40820D01*
X48148Y-40815D01*
X48154Y-40809D01*
X48159Y-40797D01*
X48159Y-40775D01*
X48154Y-40763D01*
X48148Y-40757D01*
X48136Y-40752D01*
X48108Y-40752D01*
X48096Y-40757D01*
X48091Y-40763D01*
X48085Y-40775D01*
X48085Y-40797D01*
X48091Y-40809D01*
X48096Y-40815D01*
X48108Y-40820D01*
X51733Y-22724D02*
X51728Y-22730D01*
X51711Y-22736D01*
X51699Y-22736D01*
X51682Y-22730D01*
X51671Y-22719D01*
X51665Y-22707D01*
X51659Y-22684D01*
X51659Y-22667D01*
X51665Y-22644D01*
X51671Y-22633D01*
X51682Y-22621D01*
X51699Y-22616D01*
X51711Y-22616D01*
X51728Y-22621D01*
X51733Y-22627D01*
X51773Y-22616D02*
X51853Y-22616D01*
X51802Y-22736D01*
X51916Y-22667D02*
X51905Y-22661D01*
X51899Y-22656D01*
X51893Y-22644D01*
X51893Y-22639D01*
X51899Y-22627D01*
X51905Y-22621D01*
X51916Y-22616D01*
X51939Y-22616D01*
X51951Y-22621D01*
X51956Y-22627D01*
X51962Y-22639D01*
X51962Y-22644D01*
X51956Y-22656D01*
X51951Y-22661D01*
X51939Y-22667D01*
X51916Y-22667D01*
X51905Y-22673D01*
X51899Y-22679D01*
X51893Y-22690D01*
X51893Y-22713D01*
X51899Y-22724D01*
X51905Y-22730D01*
X51916Y-22736D01*
X51939Y-22736D01*
X51951Y-22730D01*
X51956Y-22724D01*
X51962Y-22713D01*
X51962Y-22690D01*
X51956Y-22679D01*
X51951Y-22673D01*
X51939Y-22667D01*
X39351Y-35421D02*
X39346Y-35427D01*
X39329Y-35433D01*
X39317Y-35433D01*
X39300Y-35427D01*
X39289Y-35415D01*
X39283Y-35404D01*
X39277Y-35381D01*
X39277Y-35364D01*
X39283Y-35341D01*
X39289Y-35330D01*
X39300Y-35318D01*
X39317Y-35313D01*
X39329Y-35313D01*
X39346Y-35318D01*
X39351Y-35324D01*
X39454Y-35313D02*
X39431Y-35313D01*
X39420Y-35318D01*
X39414Y-35324D01*
X39403Y-35341D01*
X39397Y-35364D01*
X39397Y-35410D01*
X39403Y-35421D01*
X39409Y-35427D01*
X39420Y-35433D01*
X39443Y-35433D01*
X39454Y-35427D01*
X39460Y-35421D01*
X39466Y-35410D01*
X39466Y-35381D01*
X39460Y-35370D01*
X39454Y-35364D01*
X39443Y-35358D01*
X39420Y-35358D01*
X39409Y-35364D01*
X39403Y-35370D01*
X39397Y-35381D01*
X39569Y-35313D02*
X39546Y-35313D01*
X39534Y-35318D01*
X39529Y-35324D01*
X39517Y-35341D01*
X39511Y-35364D01*
X39511Y-35410D01*
X39517Y-35421D01*
X39523Y-35427D01*
X39534Y-35433D01*
X39557Y-35433D01*
X39569Y-35427D01*
X39574Y-35421D01*
X39580Y-35410D01*
X39580Y-35381D01*
X39574Y-35370D01*
X39569Y-35364D01*
X39557Y-35358D01*
X39534Y-35358D01*
X39523Y-35364D01*
X39517Y-35370D01*
X39511Y-35381D01*
X46927Y-41063D02*
X46919Y-41063D01*
X46903Y-41055D01*
X46894Y-41047D01*
X46886Y-41031D01*
X46886Y-41015D01*
X46890Y-41003D01*
X46903Y-40982D01*
X46915Y-40970D01*
X46935Y-40958D01*
X46947Y-40954D01*
X46963Y-40954D01*
X46979Y-40962D01*
X46987Y-40970D01*
X46995Y-40986D01*
X46995Y-40994D01*
X47080Y-41063D02*
X47040Y-41023D01*
X46995Y-41059D01*
X47004Y-41059D01*
X47016Y-41063D01*
X47036Y-41083D01*
X47040Y-41095D01*
X47040Y-41104D01*
X47036Y-41116D01*
X47016Y-41136D01*
X47004Y-41140D01*
X46995Y-41140D01*
X46983Y-41136D01*
X46963Y-41116D01*
X46959Y-41104D01*
X46959Y-41095D01*
X47040Y-41192D02*
X47056Y-41209D01*
X47068Y-41213D01*
X47076Y-41213D01*
X47096Y-41209D01*
X47117Y-41196D01*
X47149Y-41164D01*
X47153Y-41152D01*
X47153Y-41144D01*
X47149Y-41132D01*
X47133Y-41116D01*
X47121Y-41112D01*
X47113Y-41112D01*
X47101Y-41116D01*
X47080Y-41136D01*
X47076Y-41148D01*
X47076Y-41156D01*
X47080Y-41168D01*
X47096Y-41184D01*
X47109Y-41188D01*
X47117Y-41188D01*
X47129Y-41184D01*
X49983Y-34466D02*
X49989Y-34472D01*
X49995Y-34489D01*
X49995Y-34501D01*
X49989Y-34518D01*
X49978Y-34529D01*
X49966Y-34535D01*
X49943Y-34541D01*
X49926Y-34541D01*
X49903Y-34535D01*
X49892Y-34529D01*
X49880Y-34518D01*
X49875Y-34501D01*
X49875Y-34489D01*
X49880Y-34472D01*
X49886Y-34466D01*
X49875Y-34364D02*
X49875Y-34386D01*
X49880Y-34398D01*
X49886Y-34404D01*
X49903Y-34415D01*
X49926Y-34421D01*
X49972Y-34421D01*
X49983Y-34415D01*
X49989Y-34409D01*
X49995Y-34398D01*
X49995Y-34375D01*
X49989Y-34364D01*
X49983Y-34358D01*
X49972Y-34352D01*
X49943Y-34352D01*
X49932Y-34358D01*
X49926Y-34364D01*
X49920Y-34375D01*
X49920Y-34398D01*
X49926Y-34409D01*
X49932Y-34415D01*
X49943Y-34421D01*
X49875Y-34278D02*
X49875Y-34266D01*
X49880Y-34255D01*
X49886Y-34249D01*
X49898Y-34244D01*
X49920Y-34238D01*
X49949Y-34238D01*
X49972Y-34244D01*
X49983Y-34249D01*
X49989Y-34255D01*
X49995Y-34266D01*
X49995Y-34278D01*
X49989Y-34289D01*
X49983Y-34295D01*
X49972Y-34301D01*
X49949Y-34306D01*
X49920Y-34306D01*
X49898Y-34301D01*
X49886Y-34295D01*
X49880Y-34289D01*
X49875Y-34278D01*
X39529Y-36593D02*
X39523Y-36598D01*
X39506Y-36604D01*
X39494Y-36604D01*
X39477Y-36598D01*
X39466Y-36587D01*
X39460Y-36576D01*
X39454Y-36553D01*
X39454Y-36536D01*
X39460Y-36513D01*
X39466Y-36501D01*
X39477Y-36490D01*
X39494Y-36484D01*
X39506Y-36484D01*
X39523Y-36490D01*
X39529Y-36496D01*
X39637Y-36484D02*
X39580Y-36484D01*
X39574Y-36541D01*
X39580Y-36536D01*
X39592Y-36530D01*
X39620Y-36530D01*
X39632Y-36536D01*
X39637Y-36541D01*
X39643Y-36553D01*
X39643Y-36581D01*
X39637Y-36593D01*
X39632Y-36598D01*
X39620Y-36604D01*
X39592Y-36604D01*
X39580Y-36598D01*
X39574Y-36593D01*
X39712Y-36536D02*
X39700Y-36530D01*
X39694Y-36524D01*
X39689Y-36513D01*
X39689Y-36507D01*
X39694Y-36496D01*
X39700Y-36490D01*
X39712Y-36484D01*
X39734Y-36484D01*
X39746Y-36490D01*
X39752Y-36496D01*
X39757Y-36507D01*
X39757Y-36513D01*
X39752Y-36524D01*
X39746Y-36530D01*
X39734Y-36536D01*
X39712Y-36536D01*
X39700Y-36541D01*
X39694Y-36547D01*
X39689Y-36558D01*
X39689Y-36581D01*
X39694Y-36593D01*
X39700Y-36598D01*
X39712Y-36604D01*
X39734Y-36604D01*
X39746Y-36598D01*
X39752Y-36593D01*
X39757Y-36581D01*
X39757Y-36558D01*
X39752Y-36547D01*
X39746Y-36541D01*
X39734Y-36536D01*
X39536Y-33228D02*
X39528Y-33228D01*
X39512Y-33220D01*
X39504Y-33212D01*
X39496Y-33195D01*
X39496Y-33179D01*
X39500Y-33167D01*
X39512Y-33147D01*
X39524Y-33135D01*
X39544Y-33123D01*
X39556Y-33119D01*
X39573Y-33119D01*
X39589Y-33127D01*
X39597Y-33135D01*
X39605Y-33151D01*
X39605Y-33159D01*
X39686Y-33224D02*
X39670Y-33207D01*
X39657Y-33203D01*
X39649Y-33203D01*
X39629Y-33207D01*
X39609Y-33220D01*
X39577Y-33252D01*
X39573Y-33264D01*
X39573Y-33272D01*
X39577Y-33284D01*
X39593Y-33300D01*
X39605Y-33304D01*
X39613Y-33304D01*
X39625Y-33300D01*
X39645Y-33280D01*
X39649Y-33268D01*
X39649Y-33260D01*
X39645Y-33248D01*
X39629Y-33232D01*
X39617Y-33228D01*
X39609Y-33228D01*
X39597Y-33232D01*
X39690Y-33397D02*
X39641Y-33349D01*
X39666Y-33373D02*
X39750Y-33288D01*
X39730Y-33292D01*
X39714Y-33292D01*
X39702Y-33288D01*
X38157Y-35667D02*
X38163Y-35673D01*
X38169Y-35690D01*
X38169Y-35701D01*
X38163Y-35719D01*
X38152Y-35730D01*
X38140Y-35736D01*
X38117Y-35741D01*
X38100Y-35741D01*
X38077Y-35736D01*
X38066Y-35730D01*
X38054Y-35719D01*
X38049Y-35701D01*
X38049Y-35690D01*
X38054Y-35673D01*
X38060Y-35667D01*
X38049Y-35627D02*
X38049Y-35547D01*
X38169Y-35599D01*
X38049Y-35479D02*
X38049Y-35467D01*
X38054Y-35456D01*
X38060Y-35450D01*
X38072Y-35444D01*
X38094Y-35439D01*
X38123Y-35439D01*
X38146Y-35444D01*
X38157Y-35450D01*
X38163Y-35456D01*
X38169Y-35467D01*
X38169Y-35479D01*
X38163Y-35490D01*
X38157Y-35496D01*
X38146Y-35501D01*
X38123Y-35507D01*
X38094Y-35507D01*
X38072Y-35501D01*
X38060Y-35496D01*
X38054Y-35490D01*
X38049Y-35479D01*
X49863Y-33778D02*
X49858Y-33784D01*
X49840Y-33789D01*
X49829Y-33789D01*
X49812Y-33784D01*
X49800Y-33772D01*
X49795Y-33761D01*
X49789Y-33738D01*
X49789Y-33721D01*
X49795Y-33698D01*
X49800Y-33686D01*
X49812Y-33675D01*
X49829Y-33669D01*
X49840Y-33669D01*
X49858Y-33675D01*
X49863Y-33681D01*
X49972Y-33669D02*
X49915Y-33669D01*
X49909Y-33726D01*
X49915Y-33721D01*
X49926Y-33715D01*
X49955Y-33715D01*
X49966Y-33721D01*
X49972Y-33726D01*
X49978Y-33738D01*
X49978Y-33766D01*
X49972Y-33778D01*
X49966Y-33784D01*
X49955Y-33789D01*
X49926Y-33789D01*
X49915Y-33784D01*
X49909Y-33778D01*
X50080Y-33669D02*
X50058Y-33669D01*
X50046Y-33675D01*
X50040Y-33681D01*
X50029Y-33698D01*
X50023Y-33721D01*
X50023Y-33766D01*
X50029Y-33778D01*
X50035Y-33784D01*
X50046Y-33789D01*
X50069Y-33789D01*
X50080Y-33784D01*
X50086Y-33778D01*
X50092Y-33766D01*
X50092Y-33738D01*
X50086Y-33726D01*
X50080Y-33721D01*
X50069Y-33715D01*
X50046Y-33715D01*
X50035Y-33721D01*
X50029Y-33726D01*
X50023Y-33738D01*
X49983Y-34073D02*
X49989Y-34078D01*
X49995Y-34096D01*
X49995Y-34107D01*
X49989Y-34124D01*
X49978Y-34136D01*
X49966Y-34141D01*
X49943Y-34147D01*
X49926Y-34147D01*
X49903Y-34141D01*
X49892Y-34136D01*
X49880Y-34124D01*
X49875Y-34107D01*
X49875Y-34096D01*
X49880Y-34078D01*
X49886Y-34073D01*
X49875Y-33970D02*
X49875Y-33993D01*
X49880Y-34004D01*
X49886Y-34010D01*
X49903Y-34021D01*
X49926Y-34027D01*
X49972Y-34027D01*
X49983Y-34021D01*
X49989Y-34016D01*
X49995Y-34004D01*
X49995Y-33981D01*
X49989Y-33970D01*
X49983Y-33964D01*
X49972Y-33958D01*
X49943Y-33958D01*
X49932Y-33964D01*
X49926Y-33970D01*
X49920Y-33981D01*
X49920Y-34004D01*
X49926Y-34016D01*
X49932Y-34021D01*
X49943Y-34027D01*
X49926Y-33890D02*
X49920Y-33901D01*
X49915Y-33907D01*
X49903Y-33913D01*
X49898Y-33913D01*
X49886Y-33907D01*
X49880Y-33901D01*
X49875Y-33890D01*
X49875Y-33867D01*
X49880Y-33856D01*
X49886Y-33850D01*
X49898Y-33844D01*
X49903Y-33844D01*
X49915Y-33850D01*
X49920Y-33856D01*
X49926Y-33867D01*
X49926Y-33890D01*
X49932Y-33901D01*
X49938Y-33907D01*
X49949Y-33913D01*
X49972Y-33913D01*
X49983Y-33907D01*
X49989Y-33901D01*
X49995Y-33890D01*
X49995Y-33867D01*
X49989Y-33856D01*
X49983Y-33850D01*
X49972Y-33844D01*
X49949Y-33844D01*
X49938Y-33850D01*
X49932Y-33856D01*
X49926Y-33867D01*
X50633Y-33915D02*
X50639Y-33921D01*
X50644Y-33938D01*
X50644Y-33950D01*
X50639Y-33967D01*
X50627Y-33978D01*
X50616Y-33984D01*
X50593Y-33990D01*
X50576Y-33990D01*
X50553Y-33984D01*
X50541Y-33978D01*
X50530Y-33967D01*
X50524Y-33950D01*
X50524Y-33938D01*
X50530Y-33921D01*
X50536Y-33915D01*
X50524Y-33812D02*
X50524Y-33835D01*
X50530Y-33847D01*
X50536Y-33852D01*
X50553Y-33864D01*
X50576Y-33870D01*
X50621Y-33870D01*
X50633Y-33864D01*
X50639Y-33858D01*
X50644Y-33847D01*
X50644Y-33824D01*
X50639Y-33812D01*
X50633Y-33807D01*
X50621Y-33801D01*
X50593Y-33801D01*
X50581Y-33807D01*
X50576Y-33812D01*
X50570Y-33824D01*
X50570Y-33847D01*
X50576Y-33858D01*
X50581Y-33864D01*
X50593Y-33870D01*
X50644Y-33744D02*
X50644Y-33721D01*
X50639Y-33710D01*
X50633Y-33704D01*
X50616Y-33692D01*
X50593Y-33687D01*
X50547Y-33687D01*
X50536Y-33692D01*
X50530Y-33698D01*
X50524Y-33710D01*
X50524Y-33732D01*
X50530Y-33744D01*
X50536Y-33750D01*
X50547Y-33755D01*
X50576Y-33755D01*
X50587Y-33750D01*
X50593Y-33744D01*
X50599Y-33732D01*
X50599Y-33710D01*
X50593Y-33698D01*
X50587Y-33692D01*
X50576Y-33687D01*
X39547Y-37542D02*
X39542Y-37548D01*
X39525Y-37554D01*
X39513Y-37554D01*
X39496Y-37548D01*
X39485Y-37537D01*
X39479Y-37525D01*
X39473Y-37502D01*
X39473Y-37485D01*
X39479Y-37462D01*
X39485Y-37451D01*
X39496Y-37440D01*
X39513Y-37434D01*
X39525Y-37434D01*
X39542Y-37440D01*
X39547Y-37445D01*
X39656Y-37434D02*
X39599Y-37434D01*
X39593Y-37491D01*
X39599Y-37485D01*
X39610Y-37480D01*
X39639Y-37480D01*
X39650Y-37485D01*
X39656Y-37491D01*
X39662Y-37502D01*
X39662Y-37531D01*
X39656Y-37542D01*
X39650Y-37548D01*
X39639Y-37554D01*
X39610Y-37554D01*
X39599Y-37548D01*
X39593Y-37542D01*
X39707Y-37445D02*
X39713Y-37440D01*
X39725Y-37434D01*
X39753Y-37434D01*
X39765Y-37440D01*
X39770Y-37445D01*
X39776Y-37457D01*
X39776Y-37468D01*
X39770Y-37485D01*
X39702Y-37554D01*
X39776Y-37554D01*
X41142Y-40277D02*
X41148Y-40282D01*
X41154Y-40300D01*
X41154Y-40311D01*
X41148Y-40328D01*
X41137Y-40340D01*
X41125Y-40345D01*
X41102Y-40351D01*
X41085Y-40351D01*
X41062Y-40345D01*
X41051Y-40340D01*
X41040Y-40328D01*
X41034Y-40311D01*
X41034Y-40300D01*
X41040Y-40282D01*
X41045Y-40277D01*
X41074Y-40174D02*
X41154Y-40174D01*
X41028Y-40202D02*
X41114Y-40231D01*
X41114Y-40157D01*
X41074Y-40060D02*
X41154Y-40060D01*
X41028Y-40088D02*
X41114Y-40117D01*
X41114Y-40042D01*
X40392Y-40277D02*
X40398Y-40282D01*
X40404Y-40300D01*
X40404Y-40311D01*
X40398Y-40328D01*
X40387Y-40340D01*
X40375Y-40345D01*
X40352Y-40351D01*
X40335Y-40351D01*
X40312Y-40345D01*
X40301Y-40340D01*
X40290Y-40328D01*
X40284Y-40311D01*
X40284Y-40300D01*
X40290Y-40282D01*
X40295Y-40277D01*
X40324Y-40174D02*
X40404Y-40174D01*
X40278Y-40202D02*
X40364Y-40231D01*
X40364Y-40157D01*
X40284Y-40054D02*
X40284Y-40111D01*
X40341Y-40117D01*
X40335Y-40111D01*
X40330Y-40100D01*
X40330Y-40071D01*
X40335Y-40060D01*
X40341Y-40054D01*
X40352Y-40048D01*
X40381Y-40048D01*
X40392Y-40054D01*
X40398Y-40060D01*
X40404Y-40071D01*
X40404Y-40100D01*
X40398Y-40111D01*
X40392Y-40117D01*
X40756Y-40273D02*
X40761Y-40279D01*
X40767Y-40296D01*
X40767Y-40308D01*
X40761Y-40325D01*
X40750Y-40336D01*
X40739Y-40342D01*
X40716Y-40348D01*
X40699Y-40348D01*
X40676Y-40342D01*
X40664Y-40336D01*
X40653Y-40325D01*
X40647Y-40308D01*
X40647Y-40296D01*
X40653Y-40279D01*
X40659Y-40273D01*
X40687Y-40171D02*
X40767Y-40171D01*
X40641Y-40199D02*
X40727Y-40228D01*
X40727Y-40153D01*
X40647Y-40056D02*
X40647Y-40079D01*
X40653Y-40091D01*
X40659Y-40096D01*
X40676Y-40108D01*
X40699Y-40113D01*
X40744Y-40113D01*
X40756Y-40108D01*
X40761Y-40102D01*
X40767Y-40091D01*
X40767Y-40068D01*
X40761Y-40056D01*
X40756Y-40051D01*
X40744Y-40045D01*
X40716Y-40045D01*
X40704Y-40051D01*
X40699Y-40056D01*
X40693Y-40068D01*
X40693Y-40091D01*
X40699Y-40102D01*
X40704Y-40108D01*
X40716Y-40113D01*
X39509Y-36464D02*
X39503Y-36470D01*
X39486Y-36476D01*
X39475Y-36476D01*
X39458Y-36470D01*
X39446Y-36459D01*
X39440Y-36447D01*
X39435Y-36424D01*
X39435Y-36407D01*
X39440Y-36384D01*
X39446Y-36373D01*
X39458Y-36362D01*
X39475Y-36356D01*
X39486Y-36356D01*
X39503Y-36362D01*
X39509Y-36367D01*
X39612Y-36396D02*
X39612Y-36476D01*
X39583Y-36350D02*
X39555Y-36436D01*
X39629Y-36436D01*
X39692Y-36407D02*
X39680Y-36402D01*
X39675Y-36396D01*
X39669Y-36384D01*
X39669Y-36379D01*
X39675Y-36367D01*
X39680Y-36362D01*
X39692Y-36356D01*
X39715Y-36356D01*
X39726Y-36362D01*
X39732Y-36367D01*
X39738Y-36379D01*
X39738Y-36384D01*
X39732Y-36396D01*
X39726Y-36402D01*
X39715Y-36407D01*
X39692Y-36407D01*
X39680Y-36413D01*
X39675Y-36419D01*
X39669Y-36430D01*
X39669Y-36453D01*
X39675Y-36464D01*
X39680Y-36470D01*
X39692Y-36476D01*
X39715Y-36476D01*
X39726Y-36470D01*
X39732Y-36464D01*
X39738Y-36453D01*
X39738Y-36430D01*
X39732Y-36419D01*
X39726Y-36413D01*
X39715Y-36407D01*
X44467Y-40995D02*
X44473Y-41000D01*
X44479Y-41017D01*
X44479Y-41029D01*
X44473Y-41046D01*
X44462Y-41057D01*
X44450Y-41063D01*
X44427Y-41069D01*
X44410Y-41069D01*
X44387Y-41063D01*
X44376Y-41057D01*
X44365Y-41046D01*
X44359Y-41029D01*
X44359Y-41017D01*
X44365Y-41000D01*
X44370Y-40995D01*
X44399Y-40892D02*
X44479Y-40892D01*
X44353Y-40920D02*
X44439Y-40949D01*
X44439Y-40875D01*
X50168Y-38478D02*
X50160Y-38478D01*
X50144Y-38470D01*
X50136Y-38462D01*
X50128Y-38445D01*
X50128Y-38429D01*
X50132Y-38417D01*
X50144Y-38397D01*
X50156Y-38385D01*
X50176Y-38373D01*
X50188Y-38369D01*
X50204Y-38369D01*
X50220Y-38377D01*
X50229Y-38385D01*
X50237Y-38401D01*
X50237Y-38409D01*
X50273Y-38429D02*
X50330Y-38486D01*
X50208Y-38534D01*
X41003Y-40994D02*
X41003Y-41002D01*
X40995Y-41019D01*
X40987Y-41027D01*
X40971Y-41035D01*
X40955Y-41035D01*
X40943Y-41031D01*
X40922Y-41019D01*
X40910Y-41006D01*
X40898Y-40986D01*
X40894Y-40974D01*
X40894Y-40958D01*
X40902Y-40942D01*
X40910Y-40934D01*
X40927Y-40926D01*
X40935Y-40926D01*
X40999Y-40845D02*
X40983Y-40861D01*
X40979Y-40873D01*
X40979Y-40881D01*
X40983Y-40901D01*
X40995Y-40922D01*
X41028Y-40954D01*
X41040Y-40958D01*
X41048Y-40958D01*
X41060Y-40954D01*
X41076Y-40938D01*
X41080Y-40926D01*
X41080Y-40917D01*
X41076Y-40905D01*
X41056Y-40885D01*
X41044Y-40881D01*
X41036Y-40881D01*
X41023Y-40885D01*
X41007Y-40901D01*
X41003Y-40913D01*
X41003Y-40922D01*
X41007Y-40934D01*
X41036Y-40808D02*
X41092Y-40752D01*
X41141Y-40873D01*
X42718Y-40987D02*
X42712Y-40993D01*
X42695Y-40999D01*
X42683Y-40999D01*
X42666Y-40993D01*
X42655Y-40982D01*
X42649Y-40970D01*
X42643Y-40947D01*
X42643Y-40930D01*
X42649Y-40907D01*
X42655Y-40896D01*
X42666Y-40884D01*
X42683Y-40879D01*
X42695Y-40879D01*
X42712Y-40884D01*
X42718Y-40890D01*
X42826Y-40879D02*
X42769Y-40879D01*
X42763Y-40936D01*
X42769Y-40930D01*
X42780Y-40924D01*
X42809Y-40924D01*
X42820Y-40930D01*
X42826Y-40936D01*
X42832Y-40947D01*
X42832Y-40976D01*
X42826Y-40987D01*
X42820Y-40993D01*
X42809Y-40999D01*
X42780Y-40999D01*
X42769Y-40993D01*
X42763Y-40987D01*
X42940Y-40879D02*
X42883Y-40879D01*
X42878Y-40936D01*
X42883Y-40930D01*
X42895Y-40924D01*
X42923Y-40924D01*
X42935Y-40930D01*
X42940Y-40936D01*
X42946Y-40947D01*
X42946Y-40976D01*
X42940Y-40987D01*
X42935Y-40993D01*
X42923Y-40999D01*
X42895Y-40999D01*
X42883Y-40993D01*
X42878Y-40987D01*
X43229Y-40987D02*
X43224Y-40993D01*
X43207Y-40999D01*
X43195Y-40999D01*
X43178Y-40993D01*
X43167Y-40982D01*
X43161Y-40970D01*
X43155Y-40947D01*
X43155Y-40930D01*
X43161Y-40907D01*
X43167Y-40896D01*
X43178Y-40884D01*
X43195Y-40879D01*
X43207Y-40879D01*
X43224Y-40884D01*
X43229Y-40890D01*
X43332Y-40919D02*
X43332Y-40999D01*
X43304Y-40873D02*
X43275Y-40959D01*
X43349Y-40959D01*
X43384Y-40879D02*
X43464Y-40879D01*
X43412Y-40999D01*
G54D22*
X42567Y-48213D02*
X42567Y-48497D01*
X42584Y-48530D01*
X42601Y-48547D01*
X42634Y-48563D01*
X42701Y-48563D01*
X42734Y-48547D01*
X42751Y-48530D01*
X42767Y-48497D01*
X42767Y-48213D01*
X42901Y-48213D02*
X43117Y-48213D01*
X43001Y-48347D01*
X43051Y-48347D01*
X43084Y-48363D01*
X43101Y-48380D01*
X43117Y-48413D01*
X43117Y-48497D01*
X43101Y-48530D01*
X43084Y-48547D01*
X43051Y-48563D01*
X42951Y-48563D01*
X42917Y-48547D01*
X42901Y-48530D01*
G54D18*
G54D22*
X47272Y-48253D02*
X47272Y-48536D01*
X47289Y-48569D01*
X47306Y-48586D01*
X47339Y-48603D01*
X47406Y-48603D01*
X47439Y-48586D01*
X47456Y-48569D01*
X47472Y-48536D01*
X47472Y-48253D01*
X47789Y-48369D02*
X47789Y-48603D01*
X47706Y-48236D02*
X47622Y-48486D01*
X47839Y-48486D01*
G54D18*
G54D11*
X50926Y-29590D02*
X51319Y-29327D01*
X50926Y-29327D02*
X51319Y-29590D01*
X51319Y-28971D02*
X51319Y-29196D01*
X51319Y-29084D02*
X50926Y-29084D01*
X50982Y-29121D01*
X51019Y-29159D01*
X51038Y-29196D01*
G54D20*
X37659Y-37000D02*
X37651Y-37010D01*
X37625Y-37019D01*
X37608Y-37019D01*
X37582Y-37010D01*
X37565Y-36991D01*
X37557Y-36971D01*
X37548Y-36933D01*
X37548Y-36905D01*
X37557Y-36867D01*
X37565Y-36848D01*
X37582Y-36829D01*
X37608Y-36819D01*
X37625Y-36819D01*
X37651Y-36829D01*
X37659Y-36838D01*
X37822Y-36819D02*
X37737Y-36819D01*
X37728Y-36914D01*
X37737Y-36905D01*
X37754Y-36895D01*
X37797Y-36895D01*
X37814Y-36905D01*
X37822Y-36914D01*
X37831Y-36933D01*
X37831Y-36981D01*
X37822Y-37000D01*
X37814Y-37010D01*
X37797Y-37019D01*
X37754Y-37019D01*
X37737Y-37010D01*
X37728Y-37000D01*
X37891Y-36819D02*
X38002Y-36819D01*
X37942Y-36895D01*
X37968Y-36895D01*
X37985Y-36905D01*
X37994Y-36914D01*
X38002Y-36933D01*
X38002Y-36981D01*
X37994Y-37000D01*
X37985Y-37010D01*
X37968Y-37019D01*
X37917Y-37019D01*
X37899Y-37010D01*
X37891Y-37000D01*
X36242Y-35602D02*
X36233Y-35612D01*
X36208Y-35621D01*
X36191Y-35621D01*
X36165Y-35612D01*
X36148Y-35593D01*
X36139Y-35574D01*
X36131Y-35536D01*
X36131Y-35507D01*
X36139Y-35469D01*
X36148Y-35450D01*
X36165Y-35431D01*
X36191Y-35421D01*
X36208Y-35421D01*
X36233Y-35431D01*
X36242Y-35441D01*
X36413Y-35621D02*
X36311Y-35621D01*
X36362Y-35621D02*
X36362Y-35421D01*
X36345Y-35450D01*
X36328Y-35469D01*
X36311Y-35479D01*
X36568Y-35421D02*
X36533Y-35421D01*
X36516Y-35431D01*
X36508Y-35441D01*
X36491Y-35469D01*
X36482Y-35507D01*
X36482Y-35583D01*
X36491Y-35602D01*
X36499Y-35612D01*
X36516Y-35621D01*
X36551Y-35621D01*
X36568Y-35612D01*
X36576Y-35602D01*
X36585Y-35583D01*
X36585Y-35536D01*
X36576Y-35517D01*
X36568Y-35507D01*
X36551Y-35498D01*
X36516Y-35498D01*
X36499Y-35507D01*
X36491Y-35517D01*
X36482Y-35536D01*
X39057Y-50681D02*
X39048Y-50691D01*
X39023Y-50700D01*
X39006Y-50700D01*
X38980Y-50691D01*
X38963Y-50672D01*
X38954Y-50653D01*
X38946Y-50614D01*
X38946Y-50586D01*
X38954Y-50548D01*
X38963Y-50529D01*
X38980Y-50510D01*
X39006Y-50500D01*
X39023Y-50500D01*
X39048Y-50510D01*
X39057Y-50519D01*
X39228Y-50700D02*
X39126Y-50700D01*
X39177Y-50700D02*
X39177Y-50500D01*
X39160Y-50529D01*
X39143Y-50548D01*
X39126Y-50557D01*
X39391Y-50500D02*
X39306Y-50500D01*
X39297Y-50595D01*
X39306Y-50586D01*
X39323Y-50576D01*
X39366Y-50576D01*
X39383Y-50586D01*
X39391Y-50595D01*
X39400Y-50614D01*
X39400Y-50662D01*
X39391Y-50681D01*
X39383Y-50691D01*
X39366Y-50700D01*
X39323Y-50700D01*
X39306Y-50691D01*
X39297Y-50681D01*
X38575Y-47477D02*
X38584Y-47486D01*
X38594Y-47512D01*
X38594Y-47529D01*
X38584Y-47555D01*
X38565Y-47572D01*
X38546Y-47580D01*
X38508Y-47589D01*
X38480Y-47589D01*
X38442Y-47580D01*
X38422Y-47572D01*
X38403Y-47555D01*
X38394Y-47529D01*
X38394Y-47512D01*
X38403Y-47486D01*
X38413Y-47477D01*
X38594Y-47306D02*
X38594Y-47409D01*
X38594Y-47357D02*
X38394Y-47357D01*
X38422Y-47375D01*
X38442Y-47392D01*
X38451Y-47409D01*
X38461Y-47152D02*
X38594Y-47152D01*
X38384Y-47195D02*
X38527Y-47237D01*
X38527Y-47126D01*
X50878Y-22477D02*
X50888Y-22486D01*
X50897Y-22512D01*
X50897Y-22529D01*
X50888Y-22555D01*
X50868Y-22572D01*
X50849Y-22580D01*
X50811Y-22589D01*
X50783Y-22589D01*
X50745Y-22580D01*
X50726Y-22572D01*
X50707Y-22555D01*
X50697Y-22529D01*
X50697Y-22512D01*
X50707Y-22486D01*
X50716Y-22477D01*
X50897Y-22306D02*
X50897Y-22409D01*
X50897Y-22357D02*
X50697Y-22357D01*
X50726Y-22375D01*
X50745Y-22392D01*
X50754Y-22409D01*
X50783Y-22203D02*
X50773Y-22220D01*
X50764Y-22229D01*
X50745Y-22237D01*
X50735Y-22237D01*
X50716Y-22229D01*
X50707Y-22220D01*
X50697Y-22203D01*
X50697Y-22169D01*
X50707Y-22152D01*
X50716Y-22143D01*
X50735Y-22135D01*
X50745Y-22135D01*
X50764Y-22143D01*
X50773Y-22152D01*
X50783Y-22169D01*
X50783Y-22203D01*
X50792Y-22220D01*
X50802Y-22229D01*
X50821Y-22237D01*
X50859Y-22237D01*
X50878Y-22229D01*
X50888Y-22220D01*
X50897Y-22203D01*
X50897Y-22169D01*
X50888Y-22152D01*
X50878Y-22143D01*
X50859Y-22135D01*
X50821Y-22135D01*
X50802Y-22143D01*
X50792Y-22152D01*
X50783Y-22169D01*
X46419Y-22039D02*
X46411Y-22049D01*
X46385Y-22058D01*
X46368Y-22058D01*
X46342Y-22049D01*
X46325Y-22030D01*
X46316Y-22011D01*
X46308Y-21973D01*
X46308Y-21944D01*
X46316Y-21906D01*
X46325Y-21887D01*
X46342Y-21868D01*
X46368Y-21858D01*
X46385Y-21858D01*
X46411Y-21868D01*
X46419Y-21878D01*
X46488Y-21878D02*
X46496Y-21868D01*
X46514Y-21858D01*
X46556Y-21858D01*
X46574Y-21868D01*
X46582Y-21878D01*
X46591Y-21897D01*
X46591Y-21916D01*
X46582Y-21944D01*
X46479Y-22058D01*
X46591Y-22058D01*
X46702Y-21858D02*
X46719Y-21858D01*
X46736Y-21868D01*
X46745Y-21878D01*
X46754Y-21897D01*
X46762Y-21935D01*
X46762Y-21982D01*
X46754Y-22020D01*
X46745Y-22039D01*
X46736Y-22049D01*
X46719Y-22058D01*
X46702Y-22058D01*
X46685Y-22049D01*
X46676Y-22039D01*
X46668Y-22020D01*
X46659Y-21982D01*
X46659Y-21935D01*
X46668Y-21897D01*
X46676Y-21878D01*
X46685Y-21868D01*
X46702Y-21858D01*
X44185Y-26395D02*
X44195Y-26403D01*
X44204Y-26429D01*
X44204Y-26446D01*
X44195Y-26472D01*
X44176Y-26489D01*
X44157Y-26498D01*
X44118Y-26506D01*
X44090Y-26506D01*
X44052Y-26498D01*
X44033Y-26489D01*
X44014Y-26472D01*
X44004Y-26446D01*
X44004Y-26429D01*
X44014Y-26403D01*
X44023Y-26395D01*
X44204Y-26223D02*
X44204Y-26326D01*
X44204Y-26275D02*
X44004Y-26275D01*
X44033Y-26292D01*
X44052Y-26309D01*
X44061Y-26326D01*
X44204Y-26138D02*
X44204Y-26103D01*
X44195Y-26086D01*
X44185Y-26078D01*
X44157Y-26060D01*
X44118Y-26052D01*
X44042Y-26052D01*
X44023Y-26060D01*
X44014Y-26069D01*
X44004Y-26086D01*
X44004Y-26120D01*
X44014Y-26138D01*
X44023Y-26146D01*
X44042Y-26155D01*
X44090Y-26155D01*
X44109Y-26146D01*
X44118Y-26138D01*
X44128Y-26120D01*
X44128Y-26086D01*
X44118Y-26069D01*
X44109Y-26060D01*
X44090Y-26052D01*
X47837Y-22079D02*
X47828Y-22088D01*
X47802Y-22098D01*
X47785Y-22098D01*
X47759Y-22088D01*
X47742Y-22069D01*
X47734Y-22050D01*
X47725Y-22012D01*
X47725Y-21984D01*
X47734Y-21945D01*
X47742Y-21926D01*
X47759Y-21907D01*
X47785Y-21898D01*
X47802Y-21898D01*
X47828Y-21907D01*
X47837Y-21917D01*
X48008Y-22098D02*
X47905Y-22098D01*
X47957Y-22098D02*
X47957Y-21898D01*
X47939Y-21926D01*
X47922Y-21945D01*
X47905Y-21955D01*
X48068Y-21898D02*
X48188Y-21898D01*
X48111Y-22098D01*
X45159Y-44677D02*
X45151Y-44687D01*
X45125Y-44696D01*
X45108Y-44696D01*
X45082Y-44687D01*
X45065Y-44668D01*
X45057Y-44649D01*
X45048Y-44611D01*
X45048Y-44582D01*
X45057Y-44544D01*
X45065Y-44525D01*
X45082Y-44506D01*
X45108Y-44496D01*
X45125Y-44496D01*
X45151Y-44506D01*
X45159Y-44515D01*
X45331Y-44696D02*
X45228Y-44696D01*
X45279Y-44696D02*
X45279Y-44496D01*
X45262Y-44525D01*
X45245Y-44544D01*
X45228Y-44553D01*
X45442Y-44496D02*
X45459Y-44496D01*
X45477Y-44506D01*
X45485Y-44515D01*
X45494Y-44534D01*
X45502Y-44572D01*
X45502Y-44620D01*
X45494Y-44658D01*
X45485Y-44677D01*
X45477Y-44687D01*
X45459Y-44696D01*
X45442Y-44696D01*
X45425Y-44687D01*
X45417Y-44677D01*
X45408Y-44658D01*
X45399Y-44620D01*
X45399Y-44572D01*
X45408Y-44534D01*
X45417Y-44515D01*
X45425Y-44506D01*
X45442Y-44496D01*
X43466Y-23161D02*
X43458Y-23171D01*
X43432Y-23181D01*
X43415Y-23181D01*
X43389Y-23171D01*
X43372Y-23152D01*
X43364Y-23133D01*
X43355Y-23095D01*
X43355Y-23066D01*
X43364Y-23028D01*
X43372Y-23009D01*
X43389Y-22990D01*
X43415Y-22981D01*
X43432Y-22981D01*
X43458Y-22990D01*
X43466Y-23000D01*
X43526Y-22981D02*
X43638Y-22981D01*
X43578Y-23057D01*
X43604Y-23057D01*
X43621Y-23066D01*
X43629Y-23076D01*
X43638Y-23095D01*
X43638Y-23142D01*
X43629Y-23161D01*
X43621Y-23171D01*
X43604Y-23181D01*
X43552Y-23181D01*
X43535Y-23171D01*
X43526Y-23161D01*
X43741Y-23066D02*
X43724Y-23057D01*
X43715Y-23047D01*
X43706Y-23028D01*
X43706Y-23019D01*
X43715Y-23000D01*
X43724Y-22990D01*
X43741Y-22981D01*
X43775Y-22981D01*
X43792Y-22990D01*
X43801Y-23000D01*
X43809Y-23019D01*
X43809Y-23028D01*
X43801Y-23047D01*
X43792Y-23057D01*
X43775Y-23066D01*
X43741Y-23066D01*
X43724Y-23076D01*
X43715Y-23085D01*
X43706Y-23104D01*
X43706Y-23142D01*
X43715Y-23161D01*
X43724Y-23171D01*
X43741Y-23181D01*
X43775Y-23181D01*
X43792Y-23171D01*
X43801Y-23161D01*
X43809Y-23142D01*
X43809Y-23104D01*
X43801Y-23085D01*
X43792Y-23076D01*
X43775Y-23066D01*
X40898Y-24977D02*
X40907Y-24986D01*
X40917Y-25012D01*
X40917Y-25029D01*
X40907Y-25055D01*
X40888Y-25072D01*
X40869Y-25080D01*
X40831Y-25089D01*
X40802Y-25089D01*
X40764Y-25080D01*
X40745Y-25072D01*
X40726Y-25055D01*
X40717Y-25029D01*
X40717Y-25012D01*
X40726Y-24986D01*
X40736Y-24977D01*
X40917Y-24806D02*
X40917Y-24909D01*
X40917Y-24857D02*
X40717Y-24857D01*
X40745Y-24875D01*
X40764Y-24892D01*
X40774Y-24909D01*
X40717Y-24746D02*
X40717Y-24635D01*
X40793Y-24695D01*
X40793Y-24669D01*
X40802Y-24652D01*
X40812Y-24643D01*
X40831Y-24635D01*
X40879Y-24635D01*
X40898Y-24643D01*
X40907Y-24652D01*
X40917Y-24669D01*
X40917Y-24720D01*
X40907Y-24737D01*
X40898Y-24746D01*
X40770Y-45921D02*
X40761Y-45930D01*
X40735Y-45940D01*
X40718Y-45940D01*
X40692Y-45930D01*
X40675Y-45911D01*
X40667Y-45892D01*
X40658Y-45854D01*
X40658Y-45826D01*
X40667Y-45788D01*
X40675Y-45769D01*
X40692Y-45750D01*
X40718Y-45740D01*
X40735Y-45740D01*
X40761Y-45750D01*
X40770Y-45759D01*
X40855Y-45940D02*
X40890Y-45940D01*
X40907Y-45930D01*
X40915Y-45921D01*
X40932Y-45892D01*
X40941Y-45854D01*
X40941Y-45778D01*
X40932Y-45759D01*
X40924Y-45750D01*
X40907Y-45740D01*
X40872Y-45740D01*
X40855Y-45750D01*
X40847Y-45759D01*
X40838Y-45778D01*
X40838Y-45826D01*
X40847Y-45845D01*
X40855Y-45854D01*
X40872Y-45864D01*
X40907Y-45864D01*
X40924Y-45854D01*
X40932Y-45845D01*
X40941Y-45826D01*
X42295Y-23521D02*
X42305Y-23529D01*
X42314Y-23555D01*
X42314Y-23572D01*
X42305Y-23598D01*
X42286Y-23615D01*
X42267Y-23624D01*
X42229Y-23632D01*
X42200Y-23632D01*
X42162Y-23624D01*
X42143Y-23615D01*
X42124Y-23598D01*
X42114Y-23572D01*
X42114Y-23555D01*
X42124Y-23529D01*
X42133Y-23521D01*
X42314Y-23349D02*
X42314Y-23452D01*
X42314Y-23401D02*
X42114Y-23401D01*
X42143Y-23418D01*
X42162Y-23435D01*
X42172Y-23452D01*
X42133Y-23281D02*
X42124Y-23272D01*
X42114Y-23255D01*
X42114Y-23212D01*
X42124Y-23195D01*
X42133Y-23186D01*
X42152Y-23178D01*
X42172Y-23178D01*
X42200Y-23186D01*
X42314Y-23289D01*
X42314Y-23178D01*
X49205Y-30588D02*
X49214Y-30596D01*
X49224Y-30622D01*
X49224Y-30639D01*
X49214Y-30665D01*
X49195Y-30682D01*
X49176Y-30691D01*
X49138Y-30699D01*
X49110Y-30699D01*
X49071Y-30691D01*
X49052Y-30682D01*
X49033Y-30665D01*
X49024Y-30639D01*
X49024Y-30622D01*
X49033Y-30596D01*
X49043Y-30588D01*
X49024Y-30528D02*
X49024Y-30408D01*
X49224Y-30485D01*
X49224Y-30331D02*
X49224Y-30296D01*
X49214Y-30279D01*
X49205Y-30271D01*
X49176Y-30253D01*
X49138Y-30245D01*
X49062Y-30245D01*
X49043Y-30253D01*
X49033Y-30262D01*
X49024Y-30279D01*
X49024Y-30313D01*
X49033Y-30331D01*
X49043Y-30339D01*
X49062Y-30348D01*
X49110Y-30348D01*
X49129Y-30339D01*
X49138Y-30331D01*
X49148Y-30313D01*
X49148Y-30279D01*
X49138Y-30262D01*
X49129Y-30253D01*
X49110Y-30245D01*
X45868Y-22039D02*
X45859Y-22049D01*
X45834Y-22058D01*
X45817Y-22058D01*
X45791Y-22049D01*
X45774Y-22030D01*
X45765Y-22011D01*
X45757Y-21973D01*
X45757Y-21944D01*
X45765Y-21906D01*
X45774Y-21887D01*
X45791Y-21868D01*
X45817Y-21858D01*
X45834Y-21858D01*
X45859Y-21868D01*
X45868Y-21878D01*
X46039Y-22058D02*
X45937Y-22058D01*
X45988Y-22058D02*
X45988Y-21858D01*
X45971Y-21887D01*
X45954Y-21906D01*
X45937Y-21916D01*
X46211Y-22058D02*
X46108Y-22058D01*
X46159Y-22058D02*
X46159Y-21858D01*
X46142Y-21887D01*
X46125Y-21906D01*
X46108Y-21916D01*
X49205Y-30036D02*
X49214Y-30045D01*
X49224Y-30071D01*
X49224Y-30088D01*
X49214Y-30114D01*
X49195Y-30131D01*
X49176Y-30139D01*
X49138Y-30148D01*
X49110Y-30148D01*
X49071Y-30139D01*
X49052Y-30131D01*
X49033Y-30114D01*
X49024Y-30088D01*
X49024Y-30071D01*
X49033Y-30045D01*
X49043Y-30036D01*
X49110Y-29934D02*
X49100Y-29951D01*
X49091Y-29959D01*
X49071Y-29968D01*
X49062Y-29968D01*
X49043Y-29959D01*
X49033Y-29951D01*
X49024Y-29934D01*
X49024Y-29899D01*
X49033Y-29882D01*
X49043Y-29874D01*
X49062Y-29865D01*
X49071Y-29865D01*
X49091Y-29874D01*
X49100Y-29882D01*
X49110Y-29899D01*
X49110Y-29934D01*
X49119Y-29951D01*
X49129Y-29959D01*
X49148Y-29968D01*
X49186Y-29968D01*
X49205Y-29959D01*
X49214Y-29951D01*
X49224Y-29934D01*
X49224Y-29899D01*
X49214Y-29882D01*
X49205Y-29874D01*
X49186Y-29865D01*
X49148Y-29865D01*
X49129Y-29874D01*
X49119Y-29882D01*
X49110Y-29899D01*
X49024Y-29754D02*
X49024Y-29736D01*
X49033Y-29719D01*
X49043Y-29711D01*
X49062Y-29702D01*
X49100Y-29694D01*
X49148Y-29694D01*
X49186Y-29702D01*
X49205Y-29711D01*
X49214Y-29719D01*
X49224Y-29736D01*
X49224Y-29754D01*
X49214Y-29771D01*
X49205Y-29779D01*
X49186Y-29788D01*
X49148Y-29796D01*
X49100Y-29796D01*
X49062Y-29788D01*
X49043Y-29779D01*
X49033Y-29771D01*
X49024Y-29754D01*
X50937Y-23599D02*
X50947Y-23608D01*
X50956Y-23634D01*
X50956Y-23651D01*
X50947Y-23677D01*
X50928Y-23694D01*
X50908Y-23702D01*
X50870Y-23711D01*
X50842Y-23711D01*
X50804Y-23702D01*
X50785Y-23694D01*
X50766Y-23677D01*
X50756Y-23651D01*
X50756Y-23634D01*
X50766Y-23608D01*
X50775Y-23599D01*
X50756Y-23539D02*
X50756Y-23419D01*
X50956Y-23497D01*
X50756Y-23368D02*
X50756Y-23248D01*
X50956Y-23325D01*
X53122Y-22989D02*
X53132Y-22998D01*
X53141Y-23024D01*
X53141Y-23041D01*
X53132Y-23066D01*
X53113Y-23084D01*
X53094Y-23092D01*
X53055Y-23101D01*
X53027Y-23101D01*
X52989Y-23092D01*
X52970Y-23084D01*
X52951Y-23066D01*
X52941Y-23041D01*
X52941Y-23024D01*
X52951Y-22998D01*
X52960Y-22989D01*
X53027Y-22886D02*
X53017Y-22904D01*
X53008Y-22912D01*
X52989Y-22921D01*
X52979Y-22921D01*
X52960Y-22912D01*
X52951Y-22904D01*
X52941Y-22886D01*
X52941Y-22852D01*
X52951Y-22835D01*
X52960Y-22826D01*
X52979Y-22818D01*
X52989Y-22818D01*
X53008Y-22826D01*
X53017Y-22835D01*
X53027Y-22852D01*
X53027Y-22886D01*
X53036Y-22904D01*
X53046Y-22912D01*
X53065Y-22921D01*
X53103Y-22921D01*
X53122Y-22912D01*
X53132Y-22904D01*
X53141Y-22886D01*
X53141Y-22852D01*
X53132Y-22835D01*
X53122Y-22826D01*
X53103Y-22818D01*
X53065Y-22818D01*
X53046Y-22826D01*
X53036Y-22835D01*
X53027Y-22852D01*
X52960Y-22749D02*
X52951Y-22741D01*
X52941Y-22724D01*
X52941Y-22681D01*
X52951Y-22664D01*
X52960Y-22655D01*
X52979Y-22646D01*
X52998Y-22646D01*
X53027Y-22655D01*
X53141Y-22758D01*
X53141Y-22646D01*
X50898Y-21907D02*
X50907Y-21915D01*
X50917Y-21941D01*
X50917Y-21958D01*
X50907Y-21984D01*
X50888Y-22001D01*
X50869Y-22009D01*
X50831Y-22018D01*
X50802Y-22018D01*
X50764Y-22009D01*
X50745Y-22001D01*
X50726Y-21984D01*
X50717Y-21958D01*
X50717Y-21941D01*
X50726Y-21915D01*
X50736Y-21907D01*
X50802Y-21804D02*
X50793Y-21821D01*
X50783Y-21829D01*
X50764Y-21838D01*
X50755Y-21838D01*
X50736Y-21829D01*
X50726Y-21821D01*
X50717Y-21804D01*
X50717Y-21769D01*
X50726Y-21752D01*
X50736Y-21744D01*
X50755Y-21735D01*
X50764Y-21735D01*
X50783Y-21744D01*
X50793Y-21752D01*
X50802Y-21769D01*
X50802Y-21804D01*
X50812Y-21821D01*
X50822Y-21829D01*
X50841Y-21838D01*
X50879Y-21838D01*
X50898Y-21829D01*
X50907Y-21821D01*
X50917Y-21804D01*
X50917Y-21769D01*
X50907Y-21752D01*
X50898Y-21744D01*
X50879Y-21735D01*
X50841Y-21735D01*
X50822Y-21744D01*
X50812Y-21752D01*
X50802Y-21769D01*
X50917Y-21564D02*
X50917Y-21667D01*
X50917Y-21615D02*
X50717Y-21615D01*
X50745Y-21632D01*
X50764Y-21649D01*
X50774Y-21667D01*
X51834Y-37216D02*
X51834Y-37229D01*
X51823Y-37254D01*
X51811Y-37266D01*
X51786Y-37278D01*
X51760Y-37276D01*
X51741Y-37269D01*
X51708Y-37248D01*
X51688Y-37228D01*
X51667Y-37195D01*
X51659Y-37175D01*
X51658Y-37150D01*
X51669Y-37125D01*
X51682Y-37113D01*
X51707Y-37101D01*
X51719Y-37102D01*
X51839Y-37076D02*
X51820Y-37082D01*
X51808Y-37081D01*
X51788Y-37073D01*
X51781Y-37067D01*
X51774Y-37047D01*
X51773Y-37034D01*
X51779Y-37016D01*
X51803Y-36991D01*
X51822Y-36986D01*
X51834Y-36987D01*
X51854Y-36994D01*
X51861Y-37001D01*
X51868Y-37020D01*
X51869Y-37033D01*
X51863Y-37052D01*
X51839Y-37076D01*
X51834Y-37095D01*
X51834Y-37108D01*
X51842Y-37127D01*
X51869Y-37154D01*
X51888Y-37162D01*
X51901Y-37162D01*
X51920Y-37157D01*
X51944Y-37133D01*
X51950Y-37114D01*
X51949Y-37101D01*
X51942Y-37082D01*
X51915Y-37055D01*
X51895Y-37047D01*
X51882Y-37047D01*
X51863Y-37052D01*
X38634Y-37261D02*
X38643Y-37269D01*
X38653Y-37295D01*
X38653Y-37312D01*
X38643Y-37338D01*
X38624Y-37355D01*
X38605Y-37364D01*
X38567Y-37372D01*
X38539Y-37372D01*
X38501Y-37364D01*
X38482Y-37355D01*
X38462Y-37338D01*
X38453Y-37312D01*
X38453Y-37295D01*
X38462Y-37269D01*
X38472Y-37261D01*
X38453Y-37098D02*
X38453Y-37184D01*
X38548Y-37192D01*
X38539Y-37184D01*
X38529Y-37167D01*
X38529Y-37124D01*
X38539Y-37107D01*
X38548Y-37098D01*
X38567Y-37089D01*
X38615Y-37089D01*
X38634Y-37098D01*
X38643Y-37107D01*
X38653Y-37124D01*
X38653Y-37167D01*
X38643Y-37184D01*
X38634Y-37192D01*
X38520Y-36935D02*
X38653Y-36935D01*
X38443Y-36978D02*
X38586Y-37021D01*
X38586Y-36909D01*
X51488Y-24407D02*
X51498Y-24415D01*
X51507Y-24441D01*
X51507Y-24458D01*
X51498Y-24484D01*
X51479Y-24501D01*
X51460Y-24509D01*
X51422Y-24518D01*
X51393Y-24518D01*
X51355Y-24509D01*
X51336Y-24501D01*
X51317Y-24484D01*
X51307Y-24458D01*
X51307Y-24441D01*
X51317Y-24415D01*
X51326Y-24407D01*
X51307Y-24252D02*
X51307Y-24287D01*
X51317Y-24304D01*
X51326Y-24312D01*
X51355Y-24329D01*
X51393Y-24338D01*
X51469Y-24338D01*
X51488Y-24329D01*
X51498Y-24321D01*
X51507Y-24304D01*
X51507Y-24269D01*
X51498Y-24252D01*
X51488Y-24244D01*
X51469Y-24235D01*
X51422Y-24235D01*
X51403Y-24244D01*
X51393Y-24252D01*
X51383Y-24269D01*
X51383Y-24304D01*
X51393Y-24321D01*
X51403Y-24329D01*
X51422Y-24338D01*
X51326Y-24167D02*
X51317Y-24158D01*
X51307Y-24141D01*
X51307Y-24098D01*
X51317Y-24081D01*
X51326Y-24072D01*
X51345Y-24064D01*
X51364Y-24064D01*
X51393Y-24072D01*
X51507Y-24175D01*
X51507Y-24064D01*
X45159Y-30287D02*
X45151Y-30297D01*
X45125Y-30307D01*
X45108Y-30307D01*
X45082Y-30297D01*
X45065Y-30278D01*
X45057Y-30259D01*
X45048Y-30221D01*
X45048Y-30192D01*
X45057Y-30154D01*
X45065Y-30135D01*
X45082Y-30116D01*
X45108Y-30107D01*
X45125Y-30107D01*
X45151Y-30116D01*
X45159Y-30126D01*
X45314Y-30107D02*
X45279Y-30107D01*
X45262Y-30116D01*
X45254Y-30126D01*
X45237Y-30154D01*
X45228Y-30192D01*
X45228Y-30268D01*
X45237Y-30287D01*
X45245Y-30297D01*
X45262Y-30307D01*
X45297Y-30307D01*
X45314Y-30297D01*
X45322Y-30287D01*
X45331Y-30268D01*
X45331Y-30221D01*
X45322Y-30202D01*
X45314Y-30192D01*
X45297Y-30183D01*
X45262Y-30183D01*
X45245Y-30192D01*
X45237Y-30202D01*
X45228Y-30221D01*
X45494Y-30107D02*
X45408Y-30107D01*
X45399Y-30202D01*
X45408Y-30192D01*
X45425Y-30183D01*
X45468Y-30183D01*
X45485Y-30192D01*
X45494Y-30202D01*
X45502Y-30221D01*
X45502Y-30268D01*
X45494Y-30287D01*
X45485Y-30297D01*
X45468Y-30307D01*
X45425Y-30307D01*
X45408Y-30297D01*
X45399Y-30287D01*
X46284Y-30571D02*
X46275Y-30580D01*
X46250Y-30590D01*
X46232Y-30590D01*
X46207Y-30580D01*
X46190Y-30561D01*
X46181Y-30542D01*
X46172Y-30504D01*
X46172Y-30476D01*
X46181Y-30438D01*
X46190Y-30419D01*
X46207Y-30400D01*
X46232Y-30390D01*
X46250Y-30390D01*
X46275Y-30400D01*
X46284Y-30409D01*
X46438Y-30390D02*
X46404Y-30390D01*
X46387Y-30400D01*
X46378Y-30409D01*
X46361Y-30438D01*
X46352Y-30476D01*
X46352Y-30552D01*
X46361Y-30571D01*
X46370Y-30580D01*
X46387Y-30590D01*
X46421Y-30590D01*
X46438Y-30580D01*
X46447Y-30571D01*
X46455Y-30552D01*
X46455Y-30504D01*
X46447Y-30485D01*
X46438Y-30476D01*
X46421Y-30466D01*
X46387Y-30466D01*
X46370Y-30476D01*
X46361Y-30485D01*
X46352Y-30504D01*
X46610Y-30457D02*
X46610Y-30590D01*
X46567Y-30380D02*
X46524Y-30523D01*
X46635Y-30523D01*
X50671Y-33415D02*
X50680Y-33424D01*
X50690Y-33450D01*
X50690Y-33467D01*
X50680Y-33492D01*
X50661Y-33510D01*
X50642Y-33518D01*
X50604Y-33527D01*
X50576Y-33527D01*
X50538Y-33518D01*
X50519Y-33510D01*
X50500Y-33492D01*
X50490Y-33467D01*
X50490Y-33450D01*
X50500Y-33424D01*
X50509Y-33415D01*
X50490Y-33261D02*
X50490Y-33295D01*
X50500Y-33312D01*
X50509Y-33321D01*
X50538Y-33338D01*
X50576Y-33347D01*
X50652Y-33347D01*
X50671Y-33338D01*
X50680Y-33330D01*
X50690Y-33312D01*
X50690Y-33278D01*
X50680Y-33261D01*
X50671Y-33252D01*
X50652Y-33244D01*
X50604Y-33244D01*
X50585Y-33252D01*
X50576Y-33261D01*
X50566Y-33278D01*
X50566Y-33312D01*
X50576Y-33330D01*
X50585Y-33338D01*
X50604Y-33347D01*
X50490Y-33184D02*
X50490Y-33072D01*
X50566Y-33132D01*
X50566Y-33107D01*
X50576Y-33090D01*
X50585Y-33081D01*
X50604Y-33072D01*
X50652Y-33072D01*
X50671Y-33081D01*
X50680Y-33090D01*
X50690Y-33107D01*
X50690Y-33158D01*
X50680Y-33175D01*
X50671Y-33184D01*
X50661Y-31749D02*
X50671Y-31758D01*
X50681Y-31783D01*
X50681Y-31801D01*
X50671Y-31826D01*
X50652Y-31843D01*
X50633Y-31852D01*
X50595Y-31861D01*
X50566Y-31861D01*
X50528Y-31852D01*
X50509Y-31843D01*
X50490Y-31826D01*
X50481Y-31801D01*
X50481Y-31783D01*
X50490Y-31758D01*
X50500Y-31749D01*
X50481Y-31586D02*
X50481Y-31672D01*
X50576Y-31681D01*
X50566Y-31672D01*
X50557Y-31655D01*
X50557Y-31612D01*
X50566Y-31595D01*
X50576Y-31586D01*
X50595Y-31578D01*
X50642Y-31578D01*
X50661Y-31586D01*
X50671Y-31595D01*
X50681Y-31612D01*
X50681Y-31655D01*
X50671Y-31672D01*
X50661Y-31681D01*
X50481Y-31466D02*
X50481Y-31449D01*
X50490Y-31432D01*
X50500Y-31423D01*
X50519Y-31415D01*
X50557Y-31406D01*
X50604Y-31406D01*
X50642Y-31415D01*
X50661Y-31423D01*
X50671Y-31432D01*
X50681Y-31449D01*
X50681Y-31466D01*
X50671Y-31483D01*
X50661Y-31492D01*
X50642Y-31501D01*
X50604Y-31509D01*
X50557Y-31509D01*
X50519Y-31501D01*
X50500Y-31492D01*
X50490Y-31483D01*
X50481Y-31466D01*
X52177Y-32359D02*
X52187Y-32368D01*
X52196Y-32394D01*
X52196Y-32411D01*
X52187Y-32436D01*
X52168Y-32454D01*
X52149Y-32462D01*
X52111Y-32471D01*
X52082Y-32471D01*
X52044Y-32462D01*
X52025Y-32454D01*
X52006Y-32436D01*
X51996Y-32411D01*
X51996Y-32394D01*
X52006Y-32368D01*
X52015Y-32359D01*
X52015Y-32291D02*
X52006Y-32282D01*
X51996Y-32265D01*
X51996Y-32222D01*
X52006Y-32205D01*
X52015Y-32196D01*
X52034Y-32188D01*
X52053Y-32188D01*
X52082Y-32196D01*
X52196Y-32299D01*
X52196Y-32188D01*
X52063Y-32034D02*
X52196Y-32034D01*
X51987Y-32076D02*
X52130Y-32119D01*
X52130Y-32008D01*
X52177Y-32910D02*
X52187Y-32919D01*
X52196Y-32945D01*
X52196Y-32962D01*
X52187Y-32988D01*
X52168Y-33005D01*
X52149Y-33013D01*
X52111Y-33022D01*
X52082Y-33022D01*
X52044Y-33013D01*
X52025Y-33005D01*
X52006Y-32988D01*
X51996Y-32962D01*
X51996Y-32945D01*
X52006Y-32919D01*
X52015Y-32910D01*
X52063Y-32756D02*
X52196Y-32756D01*
X51987Y-32799D02*
X52130Y-32842D01*
X52130Y-32730D01*
X51996Y-32679D02*
X51996Y-32568D01*
X52072Y-32628D01*
X52072Y-32602D01*
X52082Y-32585D01*
X52092Y-32576D01*
X52111Y-32568D01*
X52158Y-32568D01*
X52177Y-32576D01*
X52187Y-32585D01*
X52196Y-32602D01*
X52196Y-32653D01*
X52187Y-32670D01*
X52177Y-32679D01*
X51921Y-33481D02*
X51931Y-33490D01*
X51940Y-33516D01*
X51940Y-33533D01*
X51931Y-33558D01*
X51912Y-33576D01*
X51893Y-33584D01*
X51855Y-33593D01*
X51826Y-33593D01*
X51788Y-33584D01*
X51769Y-33576D01*
X51750Y-33558D01*
X51740Y-33533D01*
X51740Y-33516D01*
X51750Y-33490D01*
X51759Y-33481D01*
X51740Y-33318D02*
X51740Y-33404D01*
X51836Y-33413D01*
X51826Y-33404D01*
X51817Y-33387D01*
X51817Y-33344D01*
X51826Y-33327D01*
X51836Y-33318D01*
X51855Y-33310D01*
X51902Y-33310D01*
X51921Y-33318D01*
X51931Y-33327D01*
X51940Y-33344D01*
X51940Y-33387D01*
X51931Y-33404D01*
X51921Y-33413D01*
X51940Y-33138D02*
X51940Y-33241D01*
X51940Y-33190D02*
X51740Y-33190D01*
X51769Y-33207D01*
X51788Y-33224D01*
X51798Y-33241D01*
X47630Y-29131D02*
X47640Y-29140D01*
X47649Y-29165D01*
X47649Y-29182D01*
X47640Y-29208D01*
X47620Y-29225D01*
X47601Y-29234D01*
X47563Y-29242D01*
X47535Y-29242D01*
X47497Y-29234D01*
X47478Y-29225D01*
X47459Y-29208D01*
X47449Y-29182D01*
X47449Y-29165D01*
X47459Y-29140D01*
X47468Y-29131D01*
X47449Y-28968D02*
X47449Y-29054D01*
X47544Y-29062D01*
X47535Y-29054D01*
X47525Y-29037D01*
X47525Y-28994D01*
X47535Y-28977D01*
X47544Y-28968D01*
X47563Y-28960D01*
X47611Y-28960D01*
X47630Y-28968D01*
X47640Y-28977D01*
X47649Y-28994D01*
X47649Y-29037D01*
X47640Y-29054D01*
X47630Y-29062D01*
X47449Y-28900D02*
X47449Y-28780D01*
X47649Y-28857D01*
X49687Y-32551D02*
X49678Y-32561D01*
X49653Y-32570D01*
X49636Y-32570D01*
X49610Y-32561D01*
X49593Y-32542D01*
X49584Y-32523D01*
X49576Y-32485D01*
X49576Y-32456D01*
X49584Y-32418D01*
X49593Y-32399D01*
X49610Y-32380D01*
X49636Y-32370D01*
X49653Y-32370D01*
X49678Y-32380D01*
X49687Y-32389D01*
X49747Y-32370D02*
X49867Y-32370D01*
X49790Y-32570D01*
X50013Y-32437D02*
X50013Y-32570D01*
X49970Y-32361D02*
X49927Y-32504D01*
X50038Y-32504D01*
X48840Y-31429D02*
X48832Y-31439D01*
X48806Y-31448D01*
X48789Y-31448D01*
X48763Y-31439D01*
X48746Y-31420D01*
X48738Y-31401D01*
X48729Y-31363D01*
X48729Y-31334D01*
X48738Y-31296D01*
X48746Y-31277D01*
X48763Y-31258D01*
X48789Y-31248D01*
X48806Y-31248D01*
X48832Y-31258D01*
X48840Y-31267D01*
X48900Y-31248D02*
X49020Y-31248D01*
X48943Y-31448D01*
X49080Y-31267D02*
X49089Y-31258D01*
X49106Y-31248D01*
X49149Y-31248D01*
X49166Y-31258D01*
X49175Y-31267D01*
X49183Y-31286D01*
X49183Y-31305D01*
X49175Y-31334D01*
X49072Y-31448D01*
X49183Y-31448D01*
X49658Y-29387D02*
X49667Y-29395D01*
X49677Y-29421D01*
X49677Y-29438D01*
X49667Y-29464D01*
X49648Y-29481D01*
X49629Y-29490D01*
X49591Y-29498D01*
X49562Y-29498D01*
X49524Y-29490D01*
X49505Y-29481D01*
X49486Y-29464D01*
X49477Y-29438D01*
X49477Y-29421D01*
X49486Y-29395D01*
X49496Y-29387D01*
X49477Y-29327D02*
X49477Y-29207D01*
X49677Y-29284D01*
X49477Y-29053D02*
X49477Y-29138D01*
X49572Y-29147D01*
X49562Y-29138D01*
X49553Y-29121D01*
X49553Y-29078D01*
X49562Y-29061D01*
X49572Y-29053D01*
X49591Y-29044D01*
X49638Y-29044D01*
X49658Y-29053D01*
X49667Y-29061D01*
X49677Y-29078D01*
X49677Y-29121D01*
X49667Y-29138D01*
X49658Y-29147D01*
X49608Y-31528D02*
X49600Y-31537D01*
X49574Y-31547D01*
X49557Y-31547D01*
X49531Y-31537D01*
X49514Y-31518D01*
X49505Y-31499D01*
X49497Y-31461D01*
X49497Y-31432D01*
X49505Y-31394D01*
X49514Y-31375D01*
X49531Y-31356D01*
X49557Y-31347D01*
X49574Y-31347D01*
X49600Y-31356D01*
X49608Y-31366D01*
X49668Y-31347D02*
X49788Y-31347D01*
X49711Y-31547D01*
X49840Y-31347D02*
X49951Y-31347D01*
X49891Y-31423D01*
X49917Y-31423D01*
X49934Y-31432D01*
X49942Y-31442D01*
X49951Y-31461D01*
X49951Y-31509D01*
X49942Y-31528D01*
X49934Y-31537D01*
X49917Y-31547D01*
X49865Y-31547D01*
X49848Y-31537D01*
X49840Y-31528D01*
X50661Y-32340D02*
X50671Y-32348D01*
X50681Y-32374D01*
X50681Y-32391D01*
X50671Y-32417D01*
X50652Y-32434D01*
X50633Y-32442D01*
X50595Y-32451D01*
X50566Y-32451D01*
X50528Y-32442D01*
X50509Y-32434D01*
X50490Y-32417D01*
X50481Y-32391D01*
X50481Y-32374D01*
X50490Y-32348D01*
X50500Y-32340D01*
X50547Y-32185D02*
X50681Y-32185D01*
X50471Y-32228D02*
X50614Y-32271D01*
X50614Y-32160D01*
X50681Y-32082D02*
X50681Y-32048D01*
X50671Y-32031D01*
X50661Y-32022D01*
X50633Y-32005D01*
X50595Y-31997D01*
X50519Y-31997D01*
X50500Y-32005D01*
X50490Y-32014D01*
X50481Y-32031D01*
X50481Y-32065D01*
X50490Y-32082D01*
X50500Y-32091D01*
X50519Y-32100D01*
X50566Y-32100D01*
X50585Y-32091D01*
X50595Y-32082D01*
X50604Y-32065D01*
X50604Y-32031D01*
X50595Y-32014D01*
X50585Y-32005D01*
X50566Y-31997D01*
X42413Y-25489D02*
X42423Y-25498D01*
X42432Y-25524D01*
X42432Y-25541D01*
X42423Y-25566D01*
X42404Y-25584D01*
X42385Y-25592D01*
X42347Y-25601D01*
X42318Y-25601D01*
X42280Y-25592D01*
X42261Y-25584D01*
X42242Y-25566D01*
X42232Y-25541D01*
X42232Y-25524D01*
X42242Y-25498D01*
X42252Y-25489D01*
X42252Y-25421D02*
X42242Y-25412D01*
X42232Y-25395D01*
X42232Y-25352D01*
X42242Y-25335D01*
X42252Y-25326D01*
X42271Y-25318D01*
X42290Y-25318D01*
X42318Y-25326D01*
X42432Y-25429D01*
X42432Y-25318D01*
X42318Y-25215D02*
X42309Y-25232D01*
X42299Y-25241D01*
X42280Y-25249D01*
X42271Y-25249D01*
X42252Y-25241D01*
X42242Y-25232D01*
X42232Y-25215D01*
X42232Y-25181D01*
X42242Y-25164D01*
X42252Y-25155D01*
X42271Y-25146D01*
X42280Y-25146D01*
X42299Y-25155D01*
X42309Y-25164D01*
X42318Y-25181D01*
X42318Y-25215D01*
X42328Y-25232D01*
X42337Y-25241D01*
X42356Y-25249D01*
X42394Y-25249D01*
X42413Y-25241D01*
X42423Y-25232D01*
X42432Y-25215D01*
X42432Y-25181D01*
X42423Y-25164D01*
X42413Y-25155D01*
X42394Y-25146D01*
X42356Y-25146D01*
X42337Y-25155D01*
X42328Y-25164D01*
X42318Y-25181D01*
X42413Y-24879D02*
X42423Y-24888D01*
X42432Y-24913D01*
X42432Y-24930D01*
X42423Y-24956D01*
X42404Y-24973D01*
X42385Y-24982D01*
X42347Y-24990D01*
X42318Y-24990D01*
X42280Y-24982D01*
X42261Y-24973D01*
X42242Y-24956D01*
X42232Y-24930D01*
X42232Y-24913D01*
X42242Y-24888D01*
X42252Y-24879D01*
X42232Y-24819D02*
X42232Y-24708D01*
X42309Y-24768D01*
X42309Y-24742D01*
X42318Y-24725D01*
X42328Y-24716D01*
X42347Y-24708D01*
X42394Y-24708D01*
X42413Y-24716D01*
X42423Y-24725D01*
X42432Y-24742D01*
X42432Y-24793D01*
X42423Y-24810D01*
X42413Y-24819D01*
X42252Y-24639D02*
X42242Y-24630D01*
X42232Y-24613D01*
X42232Y-24570D01*
X42242Y-24553D01*
X42252Y-24545D01*
X42271Y-24536D01*
X42290Y-24536D01*
X42318Y-24545D01*
X42432Y-24648D01*
X42432Y-24536D01*
X36892Y-36547D02*
X36883Y-36557D01*
X36857Y-36566D01*
X36840Y-36566D01*
X36815Y-36557D01*
X36797Y-36538D01*
X36789Y-36519D01*
X36780Y-36481D01*
X36780Y-36452D01*
X36789Y-36414D01*
X36797Y-36395D01*
X36815Y-36376D01*
X36840Y-36366D01*
X36857Y-36366D01*
X36883Y-36376D01*
X36892Y-36385D01*
X36952Y-36366D02*
X37072Y-36366D01*
X36995Y-36566D01*
X37235Y-36566D02*
X37132Y-36566D01*
X37183Y-36566D02*
X37183Y-36366D01*
X37166Y-36395D01*
X37149Y-36414D01*
X37132Y-36423D01*
X49579Y-23442D02*
X49588Y-23451D01*
X49598Y-23476D01*
X49598Y-23493D01*
X49588Y-23519D01*
X49569Y-23536D01*
X49550Y-23545D01*
X49512Y-23553D01*
X49484Y-23553D01*
X49445Y-23545D01*
X49426Y-23536D01*
X49407Y-23519D01*
X49398Y-23493D01*
X49398Y-23476D01*
X49407Y-23451D01*
X49417Y-23442D01*
X49417Y-23373D02*
X49407Y-23365D01*
X49398Y-23348D01*
X49398Y-23305D01*
X49407Y-23288D01*
X49417Y-23279D01*
X49436Y-23271D01*
X49455Y-23271D01*
X49484Y-23279D01*
X49598Y-23382D01*
X49598Y-23271D01*
X49598Y-23099D02*
X49598Y-23202D01*
X49598Y-23151D02*
X49398Y-23151D01*
X49426Y-23168D01*
X49445Y-23185D01*
X49455Y-23202D01*
X40957Y-23265D02*
X40966Y-23273D01*
X40976Y-23299D01*
X40976Y-23316D01*
X40966Y-23342D01*
X40947Y-23359D01*
X40928Y-23368D01*
X40890Y-23376D01*
X40862Y-23376D01*
X40823Y-23368D01*
X40804Y-23359D01*
X40785Y-23342D01*
X40776Y-23316D01*
X40776Y-23299D01*
X40785Y-23273D01*
X40795Y-23265D01*
X40795Y-23196D02*
X40785Y-23188D01*
X40776Y-23171D01*
X40776Y-23128D01*
X40785Y-23111D01*
X40795Y-23102D01*
X40814Y-23093D01*
X40833Y-23093D01*
X40862Y-23102D01*
X40976Y-23205D01*
X40976Y-23093D01*
X40795Y-23025D02*
X40785Y-23016D01*
X40776Y-22999D01*
X40776Y-22956D01*
X40785Y-22939D01*
X40795Y-22931D01*
X40814Y-22922D01*
X40833Y-22922D01*
X40862Y-22931D01*
X40976Y-23033D01*
X40976Y-22922D01*
X49028Y-26572D02*
X49037Y-26580D01*
X49047Y-26606D01*
X49047Y-26623D01*
X49037Y-26649D01*
X49018Y-26666D01*
X48999Y-26675D01*
X48961Y-26683D01*
X48932Y-26683D01*
X48894Y-26675D01*
X48875Y-26666D01*
X48856Y-26649D01*
X48847Y-26623D01*
X48847Y-26606D01*
X48856Y-26580D01*
X48866Y-26572D01*
X48866Y-26503D02*
X48856Y-26495D01*
X48847Y-26478D01*
X48847Y-26435D01*
X48856Y-26418D01*
X48866Y-26409D01*
X48885Y-26400D01*
X48904Y-26400D01*
X48932Y-26409D01*
X49047Y-26512D01*
X49047Y-26400D01*
X48847Y-26246D02*
X48847Y-26280D01*
X48856Y-26298D01*
X48866Y-26306D01*
X48894Y-26323D01*
X48932Y-26332D01*
X49009Y-26332D01*
X49028Y-26323D01*
X49037Y-26315D01*
X49047Y-26298D01*
X49047Y-26263D01*
X49037Y-26246D01*
X49028Y-26238D01*
X49009Y-26229D01*
X48961Y-26229D01*
X48942Y-26238D01*
X48932Y-26246D01*
X48923Y-26263D01*
X48923Y-26298D01*
X48932Y-26315D01*
X48942Y-26323D01*
X48961Y-26332D01*
X49441Y-26021D02*
X49451Y-26029D01*
X49460Y-26055D01*
X49460Y-26072D01*
X49451Y-26098D01*
X49431Y-26115D01*
X49412Y-26124D01*
X49374Y-26132D01*
X49346Y-26132D01*
X49308Y-26124D01*
X49289Y-26115D01*
X49270Y-26098D01*
X49260Y-26072D01*
X49260Y-26055D01*
X49270Y-26029D01*
X49279Y-26021D01*
X49260Y-25961D02*
X49260Y-25849D01*
X49336Y-25909D01*
X49336Y-25884D01*
X49346Y-25866D01*
X49355Y-25858D01*
X49374Y-25849D01*
X49422Y-25849D01*
X49441Y-25858D01*
X49451Y-25866D01*
X49460Y-25884D01*
X49460Y-25935D01*
X49451Y-25952D01*
X49441Y-25961D01*
X49260Y-25738D02*
X49260Y-25721D01*
X49270Y-25704D01*
X49279Y-25695D01*
X49298Y-25686D01*
X49336Y-25678D01*
X49384Y-25678D01*
X49422Y-25686D01*
X49441Y-25695D01*
X49451Y-25704D01*
X49460Y-25721D01*
X49460Y-25738D01*
X49451Y-25755D01*
X49441Y-25764D01*
X49422Y-25772D01*
X49384Y-25781D01*
X49336Y-25781D01*
X49298Y-25772D01*
X49279Y-25764D01*
X49270Y-25755D01*
X49260Y-25738D01*
X46340Y-27020D02*
X46332Y-27029D01*
X46306Y-27039D01*
X46289Y-27039D01*
X46263Y-27029D01*
X46246Y-27010D01*
X46238Y-26991D01*
X46229Y-26953D01*
X46229Y-26925D01*
X46238Y-26886D01*
X46246Y-26867D01*
X46263Y-26848D01*
X46289Y-26839D01*
X46306Y-26839D01*
X46332Y-26848D01*
X46340Y-26858D01*
X46409Y-26858D02*
X46418Y-26848D01*
X46435Y-26839D01*
X46478Y-26839D01*
X46495Y-26848D01*
X46503Y-26858D01*
X46512Y-26877D01*
X46512Y-26896D01*
X46503Y-26925D01*
X46400Y-27039D01*
X46512Y-27039D01*
X46572Y-26839D02*
X46683Y-26839D01*
X46623Y-26915D01*
X46649Y-26915D01*
X46666Y-26925D01*
X46675Y-26934D01*
X46683Y-26953D01*
X46683Y-27001D01*
X46675Y-27020D01*
X46666Y-27029D01*
X46649Y-27039D01*
X46598Y-27039D01*
X46580Y-27029D01*
X46572Y-27020D01*
X51350Y-25509D02*
X51360Y-25517D01*
X51370Y-25543D01*
X51370Y-25560D01*
X51360Y-25586D01*
X51341Y-25603D01*
X51322Y-25612D01*
X51284Y-25620D01*
X51255Y-25620D01*
X51217Y-25612D01*
X51198Y-25603D01*
X51179Y-25586D01*
X51170Y-25560D01*
X51170Y-25543D01*
X51179Y-25517D01*
X51189Y-25509D01*
X51189Y-25440D02*
X51179Y-25432D01*
X51170Y-25415D01*
X51170Y-25372D01*
X51179Y-25355D01*
X51189Y-25346D01*
X51208Y-25337D01*
X51227Y-25337D01*
X51255Y-25346D01*
X51370Y-25449D01*
X51370Y-25337D01*
X51170Y-25277D02*
X51170Y-25157D01*
X51370Y-25235D01*
X51350Y-24958D02*
X51360Y-24966D01*
X51370Y-24992D01*
X51370Y-25009D01*
X51360Y-25035D01*
X51341Y-25052D01*
X51322Y-25061D01*
X51284Y-25069D01*
X51255Y-25069D01*
X51217Y-25061D01*
X51198Y-25052D01*
X51179Y-25035D01*
X51170Y-25009D01*
X51170Y-24992D01*
X51179Y-24966D01*
X51189Y-24958D01*
X51170Y-24898D02*
X51170Y-24786D01*
X51246Y-24846D01*
X51246Y-24821D01*
X51255Y-24803D01*
X51265Y-24795D01*
X51284Y-24786D01*
X51331Y-24786D01*
X51350Y-24795D01*
X51360Y-24803D01*
X51370Y-24821D01*
X51370Y-24872D01*
X51360Y-24889D01*
X51350Y-24898D01*
X51370Y-24615D02*
X51370Y-24718D01*
X51370Y-24666D02*
X51170Y-24666D01*
X51198Y-24683D01*
X51217Y-24701D01*
X51227Y-24718D01*
X43092Y-20878D02*
X43084Y-20888D01*
X43058Y-20897D01*
X43041Y-20897D01*
X43015Y-20888D01*
X42998Y-20868D01*
X42990Y-20849D01*
X42981Y-20811D01*
X42981Y-20783D01*
X42990Y-20745D01*
X42998Y-20726D01*
X43015Y-20707D01*
X43041Y-20697D01*
X43058Y-20697D01*
X43084Y-20707D01*
X43092Y-20716D01*
X43152Y-20697D02*
X43264Y-20697D01*
X43204Y-20773D01*
X43230Y-20773D01*
X43247Y-20783D01*
X43255Y-20792D01*
X43264Y-20811D01*
X43264Y-20859D01*
X43255Y-20878D01*
X43247Y-20888D01*
X43230Y-20897D01*
X43178Y-20897D01*
X43161Y-20888D01*
X43152Y-20878D01*
X43324Y-20697D02*
X43435Y-20697D01*
X43375Y-20773D01*
X43401Y-20773D01*
X43418Y-20783D01*
X43427Y-20792D01*
X43435Y-20811D01*
X43435Y-20859D01*
X43427Y-20878D01*
X43418Y-20888D01*
X43401Y-20897D01*
X43350Y-20897D01*
X43332Y-20888D01*
X43324Y-20878D01*
X47630Y-29722D02*
X47640Y-29730D01*
X47649Y-29756D01*
X47649Y-29773D01*
X47640Y-29799D01*
X47620Y-29816D01*
X47601Y-29824D01*
X47563Y-29833D01*
X47535Y-29833D01*
X47497Y-29824D01*
X47478Y-29816D01*
X47459Y-29799D01*
X47449Y-29773D01*
X47449Y-29756D01*
X47459Y-29730D01*
X47468Y-29722D01*
X47449Y-29662D02*
X47449Y-29550D01*
X47525Y-29610D01*
X47525Y-29584D01*
X47535Y-29567D01*
X47544Y-29559D01*
X47563Y-29550D01*
X47611Y-29550D01*
X47630Y-29559D01*
X47640Y-29567D01*
X47649Y-29584D01*
X47649Y-29636D01*
X47640Y-29653D01*
X47630Y-29662D01*
X47516Y-29396D02*
X47649Y-29396D01*
X47440Y-29439D02*
X47582Y-29482D01*
X47582Y-29370D01*
X52394Y-20509D02*
X52403Y-20517D01*
X52413Y-20543D01*
X52413Y-20560D01*
X52403Y-20586D01*
X52384Y-20603D01*
X52365Y-20612D01*
X52327Y-20620D01*
X52299Y-20620D01*
X52260Y-20612D01*
X52241Y-20603D01*
X52222Y-20586D01*
X52213Y-20560D01*
X52213Y-20543D01*
X52222Y-20517D01*
X52232Y-20509D01*
X52213Y-20449D02*
X52213Y-20337D01*
X52289Y-20397D01*
X52289Y-20372D01*
X52299Y-20355D01*
X52308Y-20346D01*
X52327Y-20337D01*
X52375Y-20337D01*
X52394Y-20346D01*
X52403Y-20355D01*
X52413Y-20372D01*
X52413Y-20423D01*
X52403Y-20440D01*
X52394Y-20449D01*
X52213Y-20175D02*
X52213Y-20260D01*
X52308Y-20269D01*
X52299Y-20260D01*
X52289Y-20243D01*
X52289Y-20200D01*
X52299Y-20183D01*
X52308Y-20175D01*
X52327Y-20166D01*
X52375Y-20166D01*
X52394Y-20175D01*
X52403Y-20183D01*
X52413Y-20200D01*
X52413Y-20243D01*
X52403Y-20260D01*
X52394Y-20269D01*
X52662Y-23767D02*
X52650Y-23768D01*
X52625Y-23757D01*
X52613Y-23745D01*
X52601Y-23720D01*
X52603Y-23694D01*
X52610Y-23674D01*
X52631Y-23641D01*
X52651Y-23621D01*
X52684Y-23600D01*
X52704Y-23593D01*
X52729Y-23592D01*
X52754Y-23603D01*
X52766Y-23615D01*
X52778Y-23640D01*
X52777Y-23653D01*
X52833Y-23682D02*
X52912Y-23761D01*
X52815Y-23772D01*
X52833Y-23790D01*
X52839Y-23809D01*
X52838Y-23822D01*
X52831Y-23841D01*
X52797Y-23875D01*
X52778Y-23883D01*
X52765Y-23883D01*
X52746Y-23878D01*
X52710Y-23841D01*
X52704Y-23823D01*
X52705Y-23810D01*
X52954Y-23803D02*
X53039Y-23888D01*
X52843Y-23975D01*
X39510Y-53535D02*
X39501Y-53545D01*
X39475Y-53555D01*
X39458Y-53555D01*
X39433Y-53545D01*
X39415Y-53526D01*
X39407Y-53507D01*
X39398Y-53469D01*
X39398Y-53440D01*
X39407Y-53402D01*
X39415Y-53383D01*
X39433Y-53364D01*
X39458Y-53355D01*
X39475Y-53355D01*
X39501Y-53364D01*
X39510Y-53374D01*
X39570Y-53355D02*
X39681Y-53355D01*
X39621Y-53431D01*
X39647Y-53431D01*
X39664Y-53440D01*
X39673Y-53450D01*
X39681Y-53469D01*
X39681Y-53516D01*
X39673Y-53535D01*
X39664Y-53545D01*
X39647Y-53555D01*
X39595Y-53555D01*
X39578Y-53545D01*
X39570Y-53535D01*
X39767Y-53555D02*
X39801Y-53555D01*
X39818Y-53545D01*
X39827Y-53535D01*
X39844Y-53507D01*
X39853Y-53469D01*
X39853Y-53393D01*
X39844Y-53374D01*
X39835Y-53364D01*
X39818Y-53355D01*
X39784Y-53355D01*
X39767Y-53364D01*
X39758Y-53374D01*
X39750Y-53393D01*
X39750Y-53440D01*
X39758Y-53459D01*
X39767Y-53469D01*
X39784Y-53478D01*
X39818Y-53478D01*
X39835Y-53469D01*
X39844Y-53459D01*
X39853Y-53440D01*
X40061Y-53535D02*
X40052Y-53545D01*
X40027Y-53555D01*
X40010Y-53555D01*
X39984Y-53545D01*
X39967Y-53526D01*
X39958Y-53507D01*
X39950Y-53469D01*
X39950Y-53440D01*
X39958Y-53402D01*
X39967Y-53383D01*
X39984Y-53364D01*
X40010Y-53355D01*
X40027Y-53355D01*
X40052Y-53364D01*
X40061Y-53374D01*
X40215Y-53421D02*
X40215Y-53555D01*
X40172Y-53345D02*
X40130Y-53488D01*
X40241Y-53488D01*
X40344Y-53355D02*
X40361Y-53355D01*
X40378Y-53364D01*
X40387Y-53374D01*
X40395Y-53393D01*
X40404Y-53431D01*
X40404Y-53478D01*
X40395Y-53516D01*
X40387Y-53535D01*
X40378Y-53545D01*
X40361Y-53555D01*
X40344Y-53555D01*
X40327Y-53545D01*
X40318Y-53535D01*
X40310Y-53516D01*
X40301Y-53478D01*
X40301Y-53431D01*
X40310Y-53393D01*
X40318Y-53374D01*
X40327Y-53364D01*
X40344Y-53355D01*
X40612Y-53535D02*
X40604Y-53545D01*
X40578Y-53555D01*
X40561Y-53555D01*
X40535Y-53545D01*
X40518Y-53526D01*
X40509Y-53507D01*
X40501Y-53469D01*
X40501Y-53440D01*
X40509Y-53402D01*
X40518Y-53383D01*
X40535Y-53364D01*
X40561Y-53355D01*
X40578Y-53355D01*
X40604Y-53364D01*
X40612Y-53374D01*
X40766Y-53421D02*
X40766Y-53555D01*
X40724Y-53345D02*
X40681Y-53488D01*
X40792Y-53488D01*
X40955Y-53555D02*
X40852Y-53555D01*
X40904Y-53555D02*
X40904Y-53355D01*
X40886Y-53383D01*
X40869Y-53402D01*
X40852Y-53412D01*
X51921Y-31769D02*
X51931Y-31777D01*
X51940Y-31803D01*
X51940Y-31820D01*
X51931Y-31846D01*
X51912Y-31863D01*
X51893Y-31872D01*
X51855Y-31880D01*
X51826Y-31880D01*
X51788Y-31872D01*
X51769Y-31863D01*
X51750Y-31846D01*
X51740Y-31820D01*
X51740Y-31803D01*
X51750Y-31777D01*
X51759Y-31769D01*
X51740Y-31709D02*
X51740Y-31589D01*
X51940Y-31666D01*
X51740Y-31443D02*
X51740Y-31477D01*
X51750Y-31494D01*
X51759Y-31503D01*
X51788Y-31520D01*
X51826Y-31529D01*
X51902Y-31529D01*
X51921Y-31520D01*
X51931Y-31512D01*
X51940Y-31494D01*
X51940Y-31460D01*
X51931Y-31443D01*
X51921Y-31434D01*
X51902Y-31426D01*
X51855Y-31426D01*
X51836Y-31434D01*
X51826Y-31443D01*
X51817Y-31460D01*
X51817Y-31494D01*
X51826Y-31512D01*
X51836Y-31520D01*
X51855Y-31529D01*
X37935Y-50681D02*
X37926Y-50691D01*
X37901Y-50700D01*
X37884Y-50700D01*
X37858Y-50691D01*
X37841Y-50672D01*
X37832Y-50653D01*
X37824Y-50614D01*
X37824Y-50586D01*
X37832Y-50548D01*
X37841Y-50529D01*
X37858Y-50510D01*
X37884Y-50500D01*
X37901Y-50500D01*
X37926Y-50510D01*
X37935Y-50519D01*
X38004Y-50519D02*
X38012Y-50510D01*
X38029Y-50500D01*
X38072Y-50500D01*
X38089Y-50510D01*
X38098Y-50519D01*
X38106Y-50538D01*
X38106Y-50557D01*
X38098Y-50586D01*
X37995Y-50700D01*
X38106Y-50700D01*
X38269Y-50500D02*
X38184Y-50500D01*
X38175Y-50595D01*
X38184Y-50586D01*
X38201Y-50576D01*
X38244Y-50576D01*
X38261Y-50586D01*
X38269Y-50595D01*
X38278Y-50614D01*
X38278Y-50662D01*
X38269Y-50681D01*
X38261Y-50691D01*
X38244Y-50700D01*
X38201Y-50700D01*
X38184Y-50691D01*
X38175Y-50681D01*
X38506Y-50681D02*
X38497Y-50691D01*
X38472Y-50700D01*
X38454Y-50700D01*
X38429Y-50691D01*
X38412Y-50672D01*
X38403Y-50653D01*
X38394Y-50614D01*
X38394Y-50586D01*
X38403Y-50548D01*
X38412Y-50529D01*
X38429Y-50510D01*
X38454Y-50500D01*
X38472Y-50500D01*
X38497Y-50510D01*
X38506Y-50519D01*
X38574Y-50519D02*
X38583Y-50510D01*
X38600Y-50500D01*
X38643Y-50500D01*
X38660Y-50510D01*
X38669Y-50519D01*
X38677Y-50538D01*
X38677Y-50557D01*
X38669Y-50586D01*
X38566Y-50700D01*
X38677Y-50700D01*
X38763Y-50700D02*
X38797Y-50700D01*
X38814Y-50691D01*
X38823Y-50681D01*
X38840Y-50653D01*
X38849Y-50614D01*
X38849Y-50538D01*
X38840Y-50519D01*
X38832Y-50510D01*
X38814Y-50500D01*
X38780Y-50500D01*
X38763Y-50510D01*
X38754Y-50519D01*
X38746Y-50538D01*
X38746Y-50586D01*
X38754Y-50605D01*
X38763Y-50614D01*
X38780Y-50624D01*
X38814Y-50624D01*
X38832Y-50614D01*
X38840Y-50605D01*
X38849Y-50586D01*
X37384Y-50681D02*
X37375Y-50691D01*
X37350Y-50700D01*
X37332Y-50700D01*
X37307Y-50691D01*
X37290Y-50672D01*
X37281Y-50653D01*
X37272Y-50614D01*
X37272Y-50586D01*
X37281Y-50548D01*
X37290Y-50529D01*
X37307Y-50510D01*
X37332Y-50500D01*
X37350Y-50500D01*
X37375Y-50510D01*
X37384Y-50519D01*
X37538Y-50567D02*
X37538Y-50700D01*
X37495Y-50491D02*
X37452Y-50634D01*
X37564Y-50634D01*
X37624Y-50519D02*
X37632Y-50510D01*
X37650Y-50500D01*
X37692Y-50500D01*
X37710Y-50510D01*
X37718Y-50519D01*
X37727Y-50538D01*
X37727Y-50557D01*
X37718Y-50586D01*
X37615Y-50700D01*
X37727Y-50700D01*
X45159Y-25917D02*
X45151Y-25927D01*
X45125Y-25936D01*
X45108Y-25936D01*
X45082Y-25927D01*
X45065Y-25908D01*
X45057Y-25889D01*
X45048Y-25851D01*
X45048Y-25822D01*
X45057Y-25784D01*
X45065Y-25765D01*
X45082Y-25746D01*
X45108Y-25736D01*
X45125Y-25736D01*
X45151Y-25746D01*
X45159Y-25755D01*
X45219Y-25736D02*
X45331Y-25736D01*
X45271Y-25813D01*
X45297Y-25813D01*
X45314Y-25822D01*
X45322Y-25832D01*
X45331Y-25851D01*
X45331Y-25898D01*
X45322Y-25917D01*
X45314Y-25927D01*
X45297Y-25936D01*
X45245Y-25936D01*
X45228Y-25927D01*
X45219Y-25917D01*
X45485Y-25736D02*
X45451Y-25736D01*
X45434Y-25746D01*
X45425Y-25755D01*
X45408Y-25784D01*
X45399Y-25822D01*
X45399Y-25898D01*
X45408Y-25917D01*
X45417Y-25927D01*
X45434Y-25936D01*
X45468Y-25936D01*
X45485Y-25927D01*
X45494Y-25917D01*
X45502Y-25898D01*
X45502Y-25851D01*
X45494Y-25832D01*
X45485Y-25822D01*
X45468Y-25813D01*
X45434Y-25813D01*
X45417Y-25822D01*
X45408Y-25832D01*
X45399Y-25851D01*
X38998Y-53555D02*
X38938Y-53459D01*
X38895Y-53555D02*
X38895Y-53355D01*
X38964Y-53355D01*
X38981Y-53364D01*
X38989Y-53374D01*
X38998Y-53393D01*
X38998Y-53421D01*
X38989Y-53440D01*
X38981Y-53450D01*
X38964Y-53459D01*
X38895Y-53459D01*
X39152Y-53355D02*
X39118Y-53355D01*
X39101Y-53364D01*
X39092Y-53374D01*
X39075Y-53402D01*
X39067Y-53440D01*
X39067Y-53516D01*
X39075Y-53535D01*
X39084Y-53545D01*
X39101Y-53555D01*
X39135Y-53555D01*
X39152Y-53545D01*
X39161Y-53535D01*
X39169Y-53516D01*
X39169Y-53469D01*
X39161Y-53450D01*
X39152Y-53440D01*
X39135Y-53431D01*
X39101Y-53431D01*
X39084Y-53440D01*
X39075Y-53450D01*
X39067Y-53469D01*
X39324Y-53355D02*
X39289Y-53355D01*
X39272Y-53364D01*
X39264Y-53374D01*
X39247Y-53402D01*
X39238Y-53440D01*
X39238Y-53516D01*
X39247Y-53535D01*
X39255Y-53545D01*
X39272Y-53555D01*
X39307Y-53555D01*
X39324Y-53545D01*
X39332Y-53535D01*
X39341Y-53516D01*
X39341Y-53469D01*
X39332Y-53450D01*
X39324Y-53440D01*
X39307Y-53431D01*
X39272Y-53431D01*
X39255Y-53440D01*
X39247Y-53450D01*
X39238Y-53469D01*
X37413Y-47477D02*
X37318Y-47537D01*
X37413Y-47580D02*
X37213Y-47580D01*
X37213Y-47512D01*
X37222Y-47495D01*
X37232Y-47486D01*
X37251Y-47477D01*
X37279Y-47477D01*
X37299Y-47486D01*
X37308Y-47495D01*
X37318Y-47512D01*
X37318Y-47580D01*
X37213Y-47315D02*
X37213Y-47400D01*
X37308Y-47409D01*
X37299Y-47400D01*
X37289Y-47383D01*
X37289Y-47340D01*
X37299Y-47323D01*
X37308Y-47315D01*
X37327Y-47306D01*
X37375Y-47306D01*
X37394Y-47315D01*
X37403Y-47323D01*
X37413Y-47340D01*
X37413Y-47383D01*
X37403Y-47400D01*
X37394Y-47409D01*
X37213Y-47152D02*
X37213Y-47186D01*
X37222Y-47203D01*
X37232Y-47212D01*
X37260Y-47229D01*
X37299Y-47237D01*
X37375Y-47237D01*
X37394Y-47229D01*
X37403Y-47220D01*
X37413Y-47203D01*
X37413Y-47169D01*
X37403Y-47152D01*
X37394Y-47143D01*
X37375Y-47135D01*
X37327Y-47135D01*
X37308Y-47143D01*
X37299Y-47152D01*
X37289Y-47169D01*
X37289Y-47203D01*
X37299Y-47220D01*
X37308Y-47229D01*
X37327Y-47237D01*
X45129Y-22930D02*
X45034Y-22990D01*
X45129Y-23033D02*
X44929Y-23033D01*
X44929Y-22964D01*
X44939Y-22947D01*
X44948Y-22939D01*
X44967Y-22930D01*
X44996Y-22930D01*
X45015Y-22939D01*
X45025Y-22947D01*
X45034Y-22964D01*
X45034Y-23033D01*
X44929Y-22776D02*
X44929Y-22810D01*
X44939Y-22827D01*
X44948Y-22836D01*
X44977Y-22853D01*
X45015Y-22862D01*
X45091Y-22862D01*
X45110Y-22853D01*
X45120Y-22844D01*
X45129Y-22827D01*
X45129Y-22793D01*
X45120Y-22776D01*
X45110Y-22767D01*
X45091Y-22759D01*
X45044Y-22759D01*
X45025Y-22767D01*
X45015Y-22776D01*
X45006Y-22793D01*
X45006Y-22827D01*
X45015Y-22844D01*
X45025Y-22853D01*
X45044Y-22862D01*
X44948Y-22690D02*
X44939Y-22682D01*
X44929Y-22664D01*
X44929Y-22622D01*
X44939Y-22604D01*
X44948Y-22596D01*
X44967Y-22587D01*
X44986Y-22587D01*
X45015Y-22596D01*
X45129Y-22699D01*
X45129Y-22587D01*
X40634Y-43390D02*
X40574Y-43295D01*
X40531Y-43390D02*
X40531Y-43190D01*
X40600Y-43190D01*
X40617Y-43200D01*
X40625Y-43209D01*
X40634Y-43228D01*
X40634Y-43257D01*
X40625Y-43276D01*
X40617Y-43285D01*
X40600Y-43295D01*
X40531Y-43295D01*
X40788Y-43257D02*
X40788Y-43390D01*
X40745Y-43180D02*
X40702Y-43323D01*
X40814Y-43323D01*
X40891Y-43390D02*
X40925Y-43390D01*
X40942Y-43380D01*
X40951Y-43371D01*
X40968Y-43342D01*
X40977Y-43304D01*
X40977Y-43228D01*
X40968Y-43209D01*
X40960Y-43200D01*
X40942Y-43190D01*
X40908Y-43190D01*
X40891Y-43200D01*
X40882Y-43209D01*
X40874Y-43228D01*
X40874Y-43276D01*
X40882Y-43295D01*
X40891Y-43304D01*
X40908Y-43314D01*
X40942Y-43314D01*
X40960Y-43304D01*
X40968Y-43295D01*
X40977Y-43276D01*
X53161Y-22333D02*
X53066Y-22393D01*
X53161Y-22436D02*
X52961Y-22436D01*
X52961Y-22367D01*
X52970Y-22350D01*
X52980Y-22341D01*
X52999Y-22333D01*
X53028Y-22333D01*
X53047Y-22341D01*
X53056Y-22350D01*
X53066Y-22367D01*
X53066Y-22436D01*
X52961Y-22178D02*
X52961Y-22213D01*
X52970Y-22230D01*
X52980Y-22238D01*
X53008Y-22256D01*
X53047Y-22264D01*
X53123Y-22264D01*
X53142Y-22256D01*
X53151Y-22247D01*
X53161Y-22230D01*
X53161Y-22196D01*
X53151Y-22178D01*
X53142Y-22170D01*
X53123Y-22161D01*
X53075Y-22161D01*
X53056Y-22170D01*
X53047Y-22178D01*
X53037Y-22196D01*
X53037Y-22230D01*
X53047Y-22247D01*
X53056Y-22256D01*
X53075Y-22264D01*
X38486Y-53555D02*
X38426Y-53459D01*
X38383Y-53555D02*
X38383Y-53355D01*
X38452Y-53355D01*
X38469Y-53364D01*
X38478Y-53374D01*
X38486Y-53393D01*
X38486Y-53421D01*
X38478Y-53440D01*
X38469Y-53450D01*
X38452Y-53459D01*
X38383Y-53459D01*
X38640Y-53355D02*
X38606Y-53355D01*
X38589Y-53364D01*
X38580Y-53374D01*
X38563Y-53402D01*
X38555Y-53440D01*
X38555Y-53516D01*
X38563Y-53535D01*
X38572Y-53545D01*
X38589Y-53555D01*
X38623Y-53555D01*
X38640Y-53545D01*
X38649Y-53535D01*
X38658Y-53516D01*
X38658Y-53469D01*
X38649Y-53450D01*
X38640Y-53440D01*
X38623Y-53431D01*
X38589Y-53431D01*
X38572Y-53440D01*
X38563Y-53450D01*
X38555Y-53469D01*
X38718Y-53355D02*
X38838Y-53355D01*
X38760Y-53555D01*
X44519Y-22379D02*
X44424Y-22439D01*
X44519Y-22482D02*
X44319Y-22482D01*
X44319Y-22413D01*
X44329Y-22396D01*
X44338Y-22388D01*
X44357Y-22379D01*
X44386Y-22379D01*
X44405Y-22388D01*
X44414Y-22396D01*
X44424Y-22413D01*
X44424Y-22482D01*
X44319Y-22216D02*
X44319Y-22302D01*
X44414Y-22310D01*
X44405Y-22302D01*
X44395Y-22285D01*
X44395Y-22242D01*
X44405Y-22225D01*
X44414Y-22216D01*
X44433Y-22208D01*
X44481Y-22208D01*
X44500Y-22216D01*
X44510Y-22225D01*
X44519Y-22242D01*
X44519Y-22285D01*
X44510Y-22302D01*
X44500Y-22310D01*
X44319Y-22148D02*
X44319Y-22036D01*
X44395Y-22096D01*
X44395Y-22070D01*
X44405Y-22053D01*
X44414Y-22045D01*
X44433Y-22036D01*
X44481Y-22036D01*
X44500Y-22045D01*
X44510Y-22053D01*
X44519Y-22070D01*
X44519Y-22122D01*
X44510Y-22139D01*
X44500Y-22148D01*
X36035Y-33455D02*
X35940Y-33515D01*
X36035Y-33558D02*
X35835Y-33558D01*
X35835Y-33489D01*
X35844Y-33472D01*
X35854Y-33463D01*
X35873Y-33455D01*
X35902Y-33455D01*
X35921Y-33463D01*
X35930Y-33472D01*
X35940Y-33489D01*
X35940Y-33558D01*
X35835Y-33395D02*
X35835Y-33283D01*
X35911Y-33343D01*
X35911Y-33318D01*
X35921Y-33300D01*
X35930Y-33292D01*
X35949Y-33283D01*
X35997Y-33283D01*
X36016Y-33292D01*
X36025Y-33300D01*
X36035Y-33318D01*
X36035Y-33369D01*
X36025Y-33386D01*
X36016Y-33395D01*
X53161Y-21841D02*
X53066Y-21901D01*
X53161Y-21943D02*
X52961Y-21943D01*
X52961Y-21875D01*
X52970Y-21858D01*
X52980Y-21849D01*
X52999Y-21841D01*
X53028Y-21841D01*
X53047Y-21849D01*
X53056Y-21858D01*
X53066Y-21875D01*
X53066Y-21943D01*
X52961Y-21678D02*
X52961Y-21763D01*
X53056Y-21772D01*
X53047Y-21763D01*
X53037Y-21746D01*
X53037Y-21703D01*
X53047Y-21686D01*
X53056Y-21678D01*
X53075Y-21669D01*
X53123Y-21669D01*
X53142Y-21678D01*
X53151Y-21686D01*
X53161Y-21703D01*
X53161Y-21746D01*
X53151Y-21763D01*
X53142Y-21772D01*
X40917Y-24426D02*
X40822Y-24486D01*
X40917Y-24529D02*
X40717Y-24529D01*
X40717Y-24461D01*
X40726Y-24443D01*
X40736Y-24435D01*
X40755Y-24426D01*
X40783Y-24426D01*
X40802Y-24435D01*
X40812Y-24443D01*
X40822Y-24461D01*
X40822Y-24529D01*
X40717Y-24263D02*
X40717Y-24349D01*
X40812Y-24358D01*
X40802Y-24349D01*
X40793Y-24332D01*
X40793Y-24289D01*
X40802Y-24272D01*
X40812Y-24263D01*
X40831Y-24255D01*
X40879Y-24255D01*
X40898Y-24263D01*
X40907Y-24272D01*
X40917Y-24289D01*
X40917Y-24332D01*
X40907Y-24349D01*
X40898Y-24358D01*
X40717Y-24092D02*
X40717Y-24178D01*
X40812Y-24186D01*
X40802Y-24178D01*
X40793Y-24161D01*
X40793Y-24118D01*
X40802Y-24101D01*
X40812Y-24092D01*
X40831Y-24083D01*
X40879Y-24083D01*
X40898Y-24092D01*
X40907Y-24101D01*
X40917Y-24118D01*
X40917Y-24161D01*
X40907Y-24178D01*
X40898Y-24186D01*
X36015Y-34242D02*
X35920Y-34302D01*
X36015Y-34345D02*
X35815Y-34345D01*
X35815Y-34276D01*
X35825Y-34259D01*
X35834Y-34251D01*
X35853Y-34242D01*
X35882Y-34242D01*
X35901Y-34251D01*
X35910Y-34259D01*
X35920Y-34276D01*
X35920Y-34345D01*
X36015Y-34071D02*
X36015Y-34174D01*
X36015Y-34122D02*
X35815Y-34122D01*
X35844Y-34139D01*
X35863Y-34156D01*
X35872Y-34174D01*
X53161Y-21434D02*
X53066Y-21494D01*
X53161Y-21537D02*
X52961Y-21537D01*
X52961Y-21468D01*
X52970Y-21451D01*
X52980Y-21443D01*
X52999Y-21434D01*
X53028Y-21434D01*
X53047Y-21443D01*
X53056Y-21451D01*
X53066Y-21468D01*
X53066Y-21537D01*
X52961Y-21271D02*
X52961Y-21357D01*
X53056Y-21366D01*
X53047Y-21357D01*
X53037Y-21340D01*
X53037Y-21297D01*
X53047Y-21280D01*
X53056Y-21271D01*
X53075Y-21263D01*
X53123Y-21263D01*
X53142Y-21271D01*
X53151Y-21280D01*
X53161Y-21297D01*
X53161Y-21340D01*
X53151Y-21357D01*
X53142Y-21366D01*
X52961Y-21203D02*
X52961Y-21083D01*
X53161Y-21160D01*
X36977Y-35602D02*
X36917Y-35507D01*
X36875Y-35602D02*
X36875Y-35402D01*
X36943Y-35402D01*
X36960Y-35411D01*
X36969Y-35421D01*
X36977Y-35440D01*
X36977Y-35468D01*
X36969Y-35488D01*
X36960Y-35497D01*
X36943Y-35507D01*
X36875Y-35507D01*
X37132Y-35468D02*
X37132Y-35602D01*
X37089Y-35392D02*
X37046Y-35535D01*
X37157Y-35535D01*
X40986Y-27964D02*
X40926Y-27869D01*
X40883Y-27964D02*
X40883Y-27764D01*
X40952Y-27764D01*
X40969Y-27774D01*
X40978Y-27783D01*
X40986Y-27802D01*
X40986Y-27831D01*
X40978Y-27850D01*
X40969Y-27859D01*
X40952Y-27869D01*
X40883Y-27869D01*
X41149Y-27764D02*
X41063Y-27764D01*
X41055Y-27859D01*
X41063Y-27850D01*
X41080Y-27840D01*
X41123Y-27840D01*
X41140Y-27850D01*
X41149Y-27859D01*
X41158Y-27878D01*
X41158Y-27926D01*
X41149Y-27945D01*
X41140Y-27954D01*
X41123Y-27964D01*
X41080Y-27964D01*
X41063Y-27954D01*
X41055Y-27945D01*
X41243Y-27964D02*
X41278Y-27964D01*
X41295Y-27954D01*
X41303Y-27945D01*
X41320Y-27916D01*
X41329Y-27878D01*
X41329Y-27802D01*
X41320Y-27783D01*
X41312Y-27774D01*
X41295Y-27764D01*
X41260Y-27764D01*
X41243Y-27774D01*
X41235Y-27783D01*
X41226Y-27802D01*
X41226Y-27850D01*
X41235Y-27869D01*
X41243Y-27878D01*
X41260Y-27888D01*
X41295Y-27888D01*
X41312Y-27878D01*
X41320Y-27869D01*
X41329Y-27850D01*
X46370Y-29131D02*
X46274Y-29191D01*
X46370Y-29234D02*
X46170Y-29234D01*
X46170Y-29165D01*
X46179Y-29148D01*
X46189Y-29140D01*
X46208Y-29131D01*
X46236Y-29131D01*
X46255Y-29140D01*
X46265Y-29148D01*
X46274Y-29165D01*
X46274Y-29234D01*
X46170Y-28977D02*
X46170Y-29011D01*
X46179Y-29028D01*
X46189Y-29037D01*
X46217Y-29054D01*
X46255Y-29062D01*
X46331Y-29062D01*
X46350Y-29054D01*
X46360Y-29045D01*
X46370Y-29028D01*
X46370Y-28994D01*
X46360Y-28977D01*
X46350Y-28968D01*
X46331Y-28960D01*
X46284Y-28960D01*
X46265Y-28968D01*
X46255Y-28977D01*
X46246Y-28994D01*
X46246Y-29028D01*
X46255Y-29045D01*
X46265Y-29054D01*
X46284Y-29062D01*
X46170Y-28848D02*
X46170Y-28831D01*
X46179Y-28814D01*
X46189Y-28805D01*
X46208Y-28797D01*
X46246Y-28788D01*
X46293Y-28788D01*
X46331Y-28797D01*
X46350Y-28805D01*
X46360Y-28814D01*
X46370Y-28831D01*
X46370Y-28848D01*
X46360Y-28865D01*
X46350Y-28874D01*
X46331Y-28882D01*
X46293Y-28891D01*
X46246Y-28891D01*
X46208Y-28882D01*
X46189Y-28874D01*
X46179Y-28865D01*
X46170Y-28848D01*
X42413Y-24229D02*
X42318Y-24289D01*
X42413Y-24332D02*
X42213Y-24332D01*
X42213Y-24264D01*
X42222Y-24247D01*
X42232Y-24238D01*
X42251Y-24229D01*
X42279Y-24229D01*
X42299Y-24238D01*
X42308Y-24247D01*
X42318Y-24264D01*
X42318Y-24332D01*
X42213Y-24075D02*
X42213Y-24109D01*
X42222Y-24127D01*
X42232Y-24135D01*
X42260Y-24152D01*
X42299Y-24161D01*
X42375Y-24161D01*
X42394Y-24152D01*
X42403Y-24144D01*
X42413Y-24127D01*
X42413Y-24092D01*
X42403Y-24075D01*
X42394Y-24067D01*
X42375Y-24058D01*
X42327Y-24058D01*
X42308Y-24067D01*
X42299Y-24075D01*
X42289Y-24092D01*
X42289Y-24127D01*
X42299Y-24144D01*
X42308Y-24152D01*
X42327Y-24161D01*
X42213Y-23895D02*
X42213Y-23981D01*
X42308Y-23989D01*
X42299Y-23981D01*
X42289Y-23964D01*
X42289Y-23921D01*
X42299Y-23904D01*
X42308Y-23895D01*
X42327Y-23887D01*
X42375Y-23887D01*
X42394Y-23895D01*
X42403Y-23904D01*
X42413Y-23921D01*
X42413Y-23964D01*
X42403Y-23981D01*
X42394Y-23989D01*
X46370Y-29722D02*
X46274Y-29782D01*
X46370Y-29824D02*
X46170Y-29824D01*
X46170Y-29756D01*
X46179Y-29739D01*
X46189Y-29730D01*
X46208Y-29722D01*
X46236Y-29722D01*
X46255Y-29730D01*
X46265Y-29739D01*
X46274Y-29756D01*
X46274Y-29824D01*
X46170Y-29567D02*
X46170Y-29602D01*
X46179Y-29619D01*
X46189Y-29627D01*
X46217Y-29644D01*
X46255Y-29653D01*
X46331Y-29653D01*
X46350Y-29644D01*
X46360Y-29636D01*
X46370Y-29619D01*
X46370Y-29584D01*
X46360Y-29567D01*
X46350Y-29559D01*
X46331Y-29550D01*
X46284Y-29550D01*
X46265Y-29559D01*
X46255Y-29567D01*
X46246Y-29584D01*
X46246Y-29619D01*
X46255Y-29636D01*
X46265Y-29644D01*
X46284Y-29653D01*
X46370Y-29379D02*
X46370Y-29482D01*
X46370Y-29430D02*
X46170Y-29430D01*
X46198Y-29447D01*
X46217Y-29464D01*
X46227Y-29482D01*
X44224Y-25785D02*
X44129Y-25845D01*
X44224Y-25887D02*
X44024Y-25887D01*
X44024Y-25819D01*
X44033Y-25802D01*
X44043Y-25793D01*
X44062Y-25785D01*
X44091Y-25785D01*
X44110Y-25793D01*
X44119Y-25802D01*
X44129Y-25819D01*
X44129Y-25887D01*
X44024Y-25622D02*
X44024Y-25707D01*
X44119Y-25716D01*
X44110Y-25707D01*
X44100Y-25690D01*
X44100Y-25647D01*
X44110Y-25630D01*
X44119Y-25622D01*
X44138Y-25613D01*
X44186Y-25613D01*
X44205Y-25622D01*
X44214Y-25630D01*
X44224Y-25647D01*
X44224Y-25690D01*
X44214Y-25707D01*
X44205Y-25716D01*
X44110Y-25510D02*
X44100Y-25527D01*
X44091Y-25536D01*
X44071Y-25545D01*
X44062Y-25545D01*
X44043Y-25536D01*
X44033Y-25527D01*
X44024Y-25510D01*
X44024Y-25476D01*
X44033Y-25459D01*
X44043Y-25450D01*
X44062Y-25442D01*
X44071Y-25442D01*
X44091Y-25450D01*
X44100Y-25459D01*
X44110Y-25476D01*
X44110Y-25510D01*
X44119Y-25527D01*
X44129Y-25536D01*
X44148Y-25545D01*
X44186Y-25545D01*
X44205Y-25536D01*
X44214Y-25527D01*
X44224Y-25510D01*
X44224Y-25476D01*
X44214Y-25459D01*
X44205Y-25450D01*
X44186Y-25442D01*
X44148Y-25442D01*
X44129Y-25450D01*
X44119Y-25459D01*
X44110Y-25476D01*
X42472Y-22733D02*
X42377Y-22793D01*
X42472Y-22836D02*
X42272Y-22836D01*
X42272Y-22768D01*
X42281Y-22750D01*
X42291Y-22742D01*
X42310Y-22733D01*
X42339Y-22733D01*
X42358Y-22742D01*
X42367Y-22750D01*
X42377Y-22768D01*
X42377Y-22836D01*
X42272Y-22570D02*
X42272Y-22656D01*
X42367Y-22665D01*
X42358Y-22656D01*
X42348Y-22639D01*
X42348Y-22596D01*
X42358Y-22579D01*
X42367Y-22570D01*
X42386Y-22562D01*
X42434Y-22562D01*
X42453Y-22570D01*
X42462Y-22579D01*
X42472Y-22596D01*
X42472Y-22639D01*
X42462Y-22656D01*
X42453Y-22665D01*
X42339Y-22408D02*
X42472Y-22408D01*
X42262Y-22450D02*
X42405Y-22493D01*
X42405Y-22382D01*
X36852Y-50700D02*
X36792Y-50605D01*
X36749Y-50700D02*
X36749Y-50500D01*
X36818Y-50500D01*
X36835Y-50510D01*
X36844Y-50519D01*
X36852Y-50538D01*
X36852Y-50567D01*
X36844Y-50586D01*
X36835Y-50595D01*
X36818Y-50605D01*
X36749Y-50605D01*
X37007Y-50500D02*
X36972Y-50500D01*
X36955Y-50510D01*
X36947Y-50519D01*
X36929Y-50548D01*
X36921Y-50586D01*
X36921Y-50662D01*
X36929Y-50681D01*
X36938Y-50691D01*
X36955Y-50700D01*
X36989Y-50700D01*
X37007Y-50691D01*
X37015Y-50681D01*
X37024Y-50662D01*
X37024Y-50614D01*
X37015Y-50595D01*
X37007Y-50586D01*
X36989Y-50576D01*
X36955Y-50576D01*
X36938Y-50586D01*
X36929Y-50595D01*
X36921Y-50614D01*
X37178Y-50567D02*
X37178Y-50700D01*
X37135Y-50491D02*
X37092Y-50634D01*
X37204Y-50634D01*
X36400Y-50700D02*
X36340Y-50605D01*
X36297Y-50700D02*
X36297Y-50500D01*
X36365Y-50500D01*
X36382Y-50510D01*
X36391Y-50519D01*
X36400Y-50538D01*
X36400Y-50567D01*
X36391Y-50586D01*
X36382Y-50595D01*
X36365Y-50605D01*
X36297Y-50605D01*
X36554Y-50500D02*
X36520Y-50500D01*
X36502Y-50510D01*
X36494Y-50519D01*
X36477Y-50548D01*
X36468Y-50586D01*
X36468Y-50662D01*
X36477Y-50681D01*
X36485Y-50691D01*
X36502Y-50700D01*
X36537Y-50700D01*
X36554Y-50691D01*
X36562Y-50681D01*
X36571Y-50662D01*
X36571Y-50614D01*
X36562Y-50595D01*
X36554Y-50586D01*
X36537Y-50576D01*
X36502Y-50576D01*
X36485Y-50586D01*
X36477Y-50595D01*
X36468Y-50614D01*
X36631Y-50500D02*
X36742Y-50500D01*
X36682Y-50576D01*
X36708Y-50576D01*
X36725Y-50586D01*
X36734Y-50595D01*
X36742Y-50614D01*
X36742Y-50662D01*
X36734Y-50681D01*
X36725Y-50691D01*
X36708Y-50700D01*
X36657Y-50700D01*
X36640Y-50691D01*
X36631Y-50681D01*
X41845Y-42340D02*
X41785Y-42245D01*
X41742Y-42340D02*
X41742Y-42140D01*
X41810Y-42140D01*
X41827Y-42150D01*
X41836Y-42159D01*
X41845Y-42178D01*
X41845Y-42207D01*
X41836Y-42226D01*
X41827Y-42235D01*
X41810Y-42245D01*
X41742Y-42245D01*
X41913Y-42159D02*
X41922Y-42150D01*
X41939Y-42140D01*
X41982Y-42140D01*
X41999Y-42150D01*
X42007Y-42159D01*
X42016Y-42178D01*
X42016Y-42197D01*
X42007Y-42226D01*
X41905Y-42340D01*
X42016Y-42340D01*
X40868Y-48555D02*
X40808Y-48459D01*
X40765Y-48555D02*
X40765Y-48355D01*
X40834Y-48355D01*
X40851Y-48364D01*
X40859Y-48374D01*
X40868Y-48393D01*
X40868Y-48421D01*
X40859Y-48440D01*
X40851Y-48450D01*
X40834Y-48459D01*
X40765Y-48459D01*
X41031Y-48355D02*
X40945Y-48355D01*
X40937Y-48450D01*
X40945Y-48440D01*
X40962Y-48431D01*
X41005Y-48431D01*
X41022Y-48440D01*
X41031Y-48450D01*
X41039Y-48469D01*
X41039Y-48516D01*
X41031Y-48535D01*
X41022Y-48545D01*
X41005Y-48555D01*
X40962Y-48555D01*
X40945Y-48545D01*
X40937Y-48535D01*
X41211Y-48555D02*
X41108Y-48555D01*
X41159Y-48555D02*
X41159Y-48355D01*
X41142Y-48383D01*
X41125Y-48402D01*
X41108Y-48412D01*
X40829Y-47334D02*
X40769Y-47239D01*
X40726Y-47334D02*
X40726Y-47134D01*
X40794Y-47134D01*
X40812Y-47144D01*
X40820Y-47153D01*
X40829Y-47172D01*
X40829Y-47201D01*
X40820Y-47220D01*
X40812Y-47229D01*
X40794Y-47239D01*
X40726Y-47239D01*
X40992Y-47134D02*
X40906Y-47134D01*
X40897Y-47229D01*
X40906Y-47220D01*
X40923Y-47210D01*
X40966Y-47210D01*
X40983Y-47220D01*
X40992Y-47229D01*
X41000Y-47248D01*
X41000Y-47296D01*
X40992Y-47315D01*
X40983Y-47325D01*
X40966Y-47334D01*
X40923Y-47334D01*
X40906Y-47325D01*
X40897Y-47315D01*
X41069Y-47153D02*
X41077Y-47144D01*
X41094Y-47134D01*
X41137Y-47134D01*
X41154Y-47144D01*
X41163Y-47153D01*
X41172Y-47172D01*
X41172Y-47191D01*
X41163Y-47220D01*
X41060Y-47334D01*
X41172Y-47334D01*
G54D23*
X42385Y-42037D02*
X42320Y-41944D01*
X42273Y-42037D02*
X42273Y-41841D01*
X42348Y-41841D01*
X42367Y-41850D01*
X42376Y-41859D01*
X42385Y-41878D01*
X42385Y-41906D01*
X42376Y-41925D01*
X42367Y-41934D01*
X42348Y-41944D01*
X42273Y-41944D01*
X42460Y-41981D02*
X42554Y-41981D01*
X42442Y-42037D02*
X42507Y-41841D01*
X42573Y-42037D01*
X42742Y-42037D02*
X42629Y-42037D01*
X42685Y-42037D02*
X42685Y-41841D01*
X42667Y-41869D01*
X42648Y-41887D01*
X42629Y-41897D01*
X43135Y-30738D02*
X43069Y-30644D01*
X43023Y-30738D02*
X43023Y-30541D01*
X43098Y-30541D01*
X43116Y-30551D01*
X43126Y-30560D01*
X43135Y-30579D01*
X43135Y-30607D01*
X43126Y-30626D01*
X43116Y-30635D01*
X43098Y-30644D01*
X43023Y-30644D01*
X43210Y-30682D02*
X43304Y-30682D01*
X43191Y-30738D02*
X43257Y-30541D01*
X43323Y-30738D01*
X43491Y-30738D02*
X43379Y-30738D01*
X43435Y-30738D02*
X43435Y-30541D01*
X43416Y-30569D01*
X43398Y-30588D01*
X43379Y-30598D01*
X43585Y-30738D02*
X43622Y-30738D01*
X43641Y-30729D01*
X43651Y-30719D01*
X43669Y-30691D01*
X43679Y-30654D01*
X43679Y-30579D01*
X43669Y-30560D01*
X43660Y-30551D01*
X43641Y-30541D01*
X43604Y-30541D01*
X43585Y-30551D01*
X43576Y-30560D01*
X43566Y-30579D01*
X43566Y-30626D01*
X43576Y-30644D01*
X43585Y-30654D01*
X43604Y-30663D01*
X43641Y-30663D01*
X43660Y-30654D01*
X43669Y-30644D01*
X43679Y-30626D01*
X41245Y-31250D02*
X41180Y-31156D01*
X41133Y-31250D02*
X41133Y-31053D01*
X41208Y-31053D01*
X41227Y-31062D01*
X41236Y-31072D01*
X41245Y-31091D01*
X41245Y-31119D01*
X41236Y-31137D01*
X41227Y-31147D01*
X41208Y-31156D01*
X41133Y-31156D01*
X41320Y-31194D02*
X41414Y-31194D01*
X41302Y-31250D02*
X41367Y-31053D01*
X41433Y-31250D01*
X41601Y-31250D02*
X41489Y-31250D01*
X41545Y-31250D02*
X41545Y-31053D01*
X41526Y-31081D01*
X41508Y-31100D01*
X41489Y-31109D01*
X41714Y-31137D02*
X41695Y-31128D01*
X41686Y-31119D01*
X41676Y-31100D01*
X41676Y-31091D01*
X41686Y-31072D01*
X41695Y-31062D01*
X41714Y-31053D01*
X41751Y-31053D01*
X41770Y-31062D01*
X41780Y-31072D01*
X41789Y-31091D01*
X41789Y-31100D01*
X41780Y-31119D01*
X41770Y-31128D01*
X41751Y-31137D01*
X41714Y-31137D01*
X41695Y-31147D01*
X41686Y-31156D01*
X41676Y-31175D01*
X41676Y-31212D01*
X41686Y-31231D01*
X41695Y-31241D01*
X41714Y-31250D01*
X41751Y-31250D01*
X41770Y-31241D01*
X41780Y-31231D01*
X41789Y-31212D01*
X41789Y-31175D01*
X41780Y-31156D01*
X41770Y-31147D01*
X41751Y-31137D01*
X40419Y-31250D02*
X40353Y-31156D01*
X40306Y-31250D02*
X40306Y-31053D01*
X40381Y-31053D01*
X40400Y-31062D01*
X40409Y-31072D01*
X40419Y-31091D01*
X40419Y-31119D01*
X40409Y-31137D01*
X40400Y-31147D01*
X40381Y-31156D01*
X40306Y-31156D01*
X40494Y-31194D02*
X40587Y-31194D01*
X40475Y-31250D02*
X40540Y-31053D01*
X40606Y-31250D01*
X40775Y-31250D02*
X40662Y-31250D01*
X40718Y-31250D02*
X40718Y-31053D01*
X40700Y-31081D01*
X40681Y-31100D01*
X40662Y-31109D01*
X40840Y-31053D02*
X40972Y-31053D01*
X40887Y-31250D01*
X39585Y-31240D02*
X39520Y-31146D01*
X39473Y-31240D02*
X39473Y-31043D01*
X39548Y-31043D01*
X39567Y-31052D01*
X39576Y-31062D01*
X39585Y-31080D01*
X39585Y-31108D01*
X39576Y-31127D01*
X39567Y-31137D01*
X39548Y-31146D01*
X39473Y-31146D01*
X39660Y-31183D02*
X39754Y-31183D01*
X39642Y-31240D02*
X39707Y-31043D01*
X39773Y-31240D01*
X39942Y-31240D02*
X39829Y-31240D01*
X39885Y-31240D02*
X39885Y-31043D01*
X39867Y-31071D01*
X39848Y-31090D01*
X39829Y-31099D01*
X40120Y-31043D02*
X40026Y-31043D01*
X40017Y-31137D01*
X40026Y-31127D01*
X40045Y-31118D01*
X40092Y-31118D01*
X40110Y-31127D01*
X40120Y-31137D01*
X40129Y-31155D01*
X40129Y-31202D01*
X40120Y-31221D01*
X40110Y-31230D01*
X40092Y-31240D01*
X40045Y-31240D01*
X40026Y-31230D01*
X40017Y-31221D01*
X38635Y-31240D02*
X38570Y-31146D01*
X38523Y-31240D02*
X38523Y-31043D01*
X38598Y-31043D01*
X38617Y-31052D01*
X38626Y-31062D01*
X38635Y-31080D01*
X38635Y-31108D01*
X38626Y-31127D01*
X38617Y-31137D01*
X38598Y-31146D01*
X38523Y-31146D01*
X38710Y-31183D02*
X38804Y-31183D01*
X38692Y-31240D02*
X38757Y-31043D01*
X38823Y-31240D01*
X38992Y-31240D02*
X38879Y-31240D01*
X38935Y-31240D02*
X38935Y-31043D01*
X38917Y-31071D01*
X38898Y-31090D01*
X38879Y-31099D01*
X39160Y-31108D02*
X39160Y-31240D01*
X39114Y-31034D02*
X39067Y-31174D01*
X39188Y-31174D01*
X37735Y-31240D02*
X37670Y-31146D01*
X37623Y-31240D02*
X37623Y-31043D01*
X37698Y-31043D01*
X37717Y-31052D01*
X37726Y-31062D01*
X37735Y-31080D01*
X37735Y-31108D01*
X37726Y-31127D01*
X37717Y-31137D01*
X37698Y-31146D01*
X37623Y-31146D01*
X37810Y-31183D02*
X37904Y-31183D01*
X37792Y-31240D02*
X37857Y-31043D01*
X37923Y-31240D01*
X38092Y-31240D02*
X37979Y-31240D01*
X38035Y-31240D02*
X38035Y-31043D01*
X38017Y-31071D01*
X37998Y-31090D01*
X37979Y-31099D01*
X38157Y-31043D02*
X38279Y-31043D01*
X38214Y-31118D01*
X38242Y-31118D01*
X38260Y-31127D01*
X38270Y-31137D01*
X38279Y-31155D01*
X38279Y-31202D01*
X38270Y-31221D01*
X38260Y-31230D01*
X38242Y-31240D01*
X38185Y-31240D01*
X38167Y-31230D01*
X38157Y-31221D01*
X44535Y-31140D02*
X44470Y-31046D01*
X44423Y-31140D02*
X44423Y-30943D01*
X44498Y-30943D01*
X44517Y-30952D01*
X44526Y-30962D01*
X44535Y-30980D01*
X44535Y-31008D01*
X44526Y-31027D01*
X44517Y-31037D01*
X44498Y-31046D01*
X44423Y-31046D01*
X44610Y-31083D02*
X44704Y-31083D01*
X44592Y-31140D02*
X44657Y-30943D01*
X44723Y-31140D01*
X44892Y-31140D02*
X44779Y-31140D01*
X44835Y-31140D02*
X44835Y-30943D01*
X44817Y-30971D01*
X44798Y-30990D01*
X44779Y-30999D01*
X45079Y-31140D02*
X44967Y-31140D01*
X45023Y-31140D02*
X45023Y-30943D01*
X45004Y-30971D01*
X44985Y-30990D01*
X44967Y-30999D01*
X51255Y-39152D02*
X51190Y-39059D01*
X51143Y-39152D02*
X51143Y-38956D01*
X51218Y-38956D01*
X51237Y-38965D01*
X51246Y-38974D01*
X51255Y-38993D01*
X51255Y-39021D01*
X51246Y-39040D01*
X51237Y-39049D01*
X51218Y-39059D01*
X51143Y-39059D01*
X51330Y-39096D02*
X51424Y-39096D01*
X51312Y-39152D02*
X51377Y-38956D01*
X51443Y-39152D01*
X51518Y-39152D02*
X51555Y-39152D01*
X51574Y-39143D01*
X51584Y-39134D01*
X51602Y-39106D01*
X51612Y-39068D01*
X51612Y-38993D01*
X51602Y-38974D01*
X51593Y-38965D01*
X51574Y-38956D01*
X51537Y-38956D01*
X51518Y-38965D01*
X51509Y-38974D01*
X51499Y-38993D01*
X51499Y-39040D01*
X51509Y-39059D01*
X51518Y-39068D01*
X51537Y-39077D01*
X51574Y-39077D01*
X51593Y-39068D01*
X51602Y-39059D01*
X51612Y-39040D01*
X47735Y-41837D02*
X47670Y-41744D01*
X47623Y-41837D02*
X47623Y-41641D01*
X47698Y-41641D01*
X47717Y-41650D01*
X47726Y-41659D01*
X47735Y-41678D01*
X47735Y-41706D01*
X47726Y-41725D01*
X47717Y-41734D01*
X47698Y-41744D01*
X47623Y-41744D01*
X47810Y-41781D02*
X47904Y-41781D01*
X47792Y-41837D02*
X47857Y-41641D01*
X47923Y-41837D01*
X47979Y-41659D02*
X47989Y-41650D01*
X48007Y-41641D01*
X48054Y-41641D01*
X48073Y-41650D01*
X48082Y-41659D01*
X48092Y-41678D01*
X48092Y-41697D01*
X48082Y-41725D01*
X47970Y-41837D01*
X48092Y-41837D01*
X45035Y-41537D02*
X44970Y-41444D01*
X44923Y-41537D02*
X44923Y-41341D01*
X44998Y-41341D01*
X45017Y-41350D01*
X45026Y-41359D01*
X45035Y-41378D01*
X45035Y-41406D01*
X45026Y-41425D01*
X45017Y-41434D01*
X44998Y-41444D01*
X44923Y-41444D01*
X45110Y-41481D02*
X45204Y-41481D01*
X45092Y-41537D02*
X45157Y-41341D01*
X45223Y-41537D01*
X45373Y-41406D02*
X45373Y-41537D01*
X45326Y-41331D02*
X45279Y-41472D01*
X45401Y-41472D01*
X44235Y-42137D02*
X44170Y-42044D01*
X44123Y-42137D02*
X44123Y-41941D01*
X44198Y-41941D01*
X44217Y-41950D01*
X44226Y-41959D01*
X44235Y-41978D01*
X44235Y-42006D01*
X44226Y-42025D01*
X44217Y-42034D01*
X44198Y-42044D01*
X44123Y-42044D01*
X44310Y-42081D02*
X44404Y-42081D01*
X44292Y-42137D02*
X44357Y-41941D01*
X44423Y-42137D01*
X44470Y-41941D02*
X44592Y-41941D01*
X44526Y-42016D01*
X44554Y-42016D01*
X44573Y-42025D01*
X44582Y-42034D01*
X44592Y-42053D01*
X44592Y-42100D01*
X44582Y-42119D01*
X44573Y-42128D01*
X44554Y-42137D01*
X44498Y-42137D01*
X44479Y-42128D01*
X44470Y-42119D01*
X52010Y-38462D02*
X51945Y-38369D01*
X51898Y-38462D02*
X51898Y-38266D01*
X51973Y-38266D01*
X51992Y-38275D01*
X52001Y-38284D01*
X52010Y-38303D01*
X52010Y-38331D01*
X52001Y-38350D01*
X51992Y-38359D01*
X51973Y-38369D01*
X51898Y-38369D01*
X52085Y-38406D02*
X52179Y-38406D01*
X52067Y-38462D02*
X52132Y-38266D01*
X52198Y-38462D01*
X52357Y-38266D02*
X52264Y-38266D01*
X52254Y-38359D01*
X52264Y-38350D01*
X52282Y-38341D01*
X52329Y-38341D01*
X52348Y-38350D01*
X52357Y-38359D01*
X52367Y-38378D01*
X52367Y-38425D01*
X52357Y-38444D01*
X52348Y-38453D01*
X52329Y-38462D01*
X52282Y-38462D01*
X52264Y-38453D01*
X52254Y-38444D01*
X49843Y-39222D02*
X49777Y-39129D01*
X49730Y-39222D02*
X49730Y-39026D01*
X49805Y-39026D01*
X49824Y-39035D01*
X49834Y-39044D01*
X49843Y-39063D01*
X49843Y-39091D01*
X49834Y-39110D01*
X49824Y-39119D01*
X49805Y-39129D01*
X49730Y-39129D01*
X49918Y-39166D02*
X50012Y-39166D01*
X49899Y-39222D02*
X49965Y-39026D01*
X50030Y-39222D01*
X50077Y-39026D02*
X50209Y-39026D01*
X50124Y-39222D01*
X50525Y-39802D02*
X50460Y-39709D01*
X50413Y-39802D02*
X50413Y-39606D01*
X50488Y-39606D01*
X50507Y-39615D01*
X50516Y-39624D01*
X50525Y-39643D01*
X50525Y-39671D01*
X50516Y-39690D01*
X50507Y-39699D01*
X50488Y-39709D01*
X50413Y-39709D01*
X50600Y-39746D02*
X50694Y-39746D01*
X50582Y-39802D02*
X50647Y-39606D01*
X50713Y-39802D01*
X50863Y-39606D02*
X50825Y-39606D01*
X50807Y-39615D01*
X50797Y-39624D01*
X50779Y-39652D01*
X50769Y-39690D01*
X50769Y-39765D01*
X50779Y-39784D01*
X50788Y-39793D01*
X50807Y-39802D01*
X50844Y-39802D01*
X50863Y-39793D01*
X50872Y-39784D01*
X50882Y-39765D01*
X50882Y-39718D01*
X50872Y-39699D01*
X50863Y-39690D01*
X50844Y-39681D01*
X50807Y-39681D01*
X50788Y-39690D01*
X50779Y-39699D01*
X50769Y-39718D01*
X52323Y-40010D02*
X52258Y-39916D01*
X52211Y-40010D02*
X52211Y-39813D01*
X52286Y-39813D01*
X52305Y-39822D01*
X52314Y-39832D01*
X52323Y-39850D01*
X52323Y-39879D01*
X52314Y-39897D01*
X52305Y-39907D01*
X52286Y-39916D01*
X52211Y-39916D01*
X52398Y-39954D02*
X52492Y-39954D01*
X52380Y-40010D02*
X52445Y-39813D01*
X52511Y-40010D01*
X52604Y-39897D02*
X52586Y-39888D01*
X52576Y-39879D01*
X52567Y-39860D01*
X52567Y-39850D01*
X52576Y-39832D01*
X52586Y-39822D01*
X52604Y-39813D01*
X52642Y-39813D01*
X52661Y-39822D01*
X52670Y-39832D01*
X52679Y-39850D01*
X52679Y-39860D01*
X52670Y-39879D01*
X52661Y-39888D01*
X52642Y-39897D01*
X52604Y-39897D01*
X52586Y-39907D01*
X52576Y-39916D01*
X52567Y-39935D01*
X52567Y-39972D01*
X52576Y-39991D01*
X52586Y-40000D01*
X52604Y-40010D01*
X52642Y-40010D01*
X52661Y-40000D01*
X52670Y-39991D01*
X52679Y-39972D01*
X52679Y-39935D01*
X52670Y-39916D01*
X52661Y-39907D01*
X52642Y-39897D01*
X52958Y-39498D02*
X52892Y-39404D01*
X52845Y-39498D02*
X52845Y-39301D01*
X52920Y-39301D01*
X52939Y-39311D01*
X52949Y-39320D01*
X52958Y-39339D01*
X52958Y-39367D01*
X52949Y-39386D01*
X52939Y-39395D01*
X52920Y-39404D01*
X52845Y-39404D01*
X53033Y-39442D02*
X53127Y-39442D01*
X53014Y-39498D02*
X53080Y-39301D01*
X53145Y-39498D01*
X53314Y-39498D02*
X53202Y-39498D01*
X53258Y-39498D02*
X53258Y-39301D01*
X53239Y-39329D01*
X53220Y-39348D01*
X53202Y-39357D01*
X53436Y-39301D02*
X53455Y-39301D01*
X53473Y-39311D01*
X53483Y-39320D01*
X53492Y-39339D01*
X53502Y-39376D01*
X53502Y-39423D01*
X53492Y-39461D01*
X53483Y-39479D01*
X53473Y-39489D01*
X53455Y-39498D01*
X53436Y-39498D01*
X53417Y-39489D01*
X53408Y-39479D01*
X53398Y-39461D01*
X53389Y-39423D01*
X53389Y-39376D01*
X53398Y-39339D01*
X53408Y-39320D01*
X53417Y-39311D01*
X53436Y-39301D01*
G54D11*
X52363Y-27633D02*
X51969Y-27633D01*
X51969Y-27483D01*
X51988Y-27445D01*
X52006Y-27426D01*
X52044Y-27408D01*
X52100Y-27408D01*
X52138Y-27426D01*
X52156Y-27445D01*
X52175Y-27483D01*
X52175Y-27633D01*
X52100Y-27070D02*
X52363Y-27070D01*
X51950Y-27164D02*
X52231Y-27258D01*
X52231Y-27014D01*
X36306Y-26002D02*
X35913Y-26002D01*
X35913Y-25852D01*
X35931Y-25814D01*
X35950Y-25796D01*
X35988Y-25777D01*
X36044Y-25777D01*
X36081Y-25796D01*
X36100Y-25814D01*
X36119Y-25852D01*
X36119Y-26002D01*
X35950Y-25627D02*
X35931Y-25608D01*
X35913Y-25571D01*
X35913Y-25477D01*
X35931Y-25439D01*
X35950Y-25421D01*
X35988Y-25402D01*
X36025Y-25402D01*
X36081Y-25421D01*
X36306Y-25646D01*
X36306Y-25402D01*
X36973Y-21792D02*
X36973Y-21398D01*
X37123Y-21398D01*
X37160Y-21417D01*
X37179Y-21436D01*
X37198Y-21473D01*
X37198Y-21529D01*
X37179Y-21567D01*
X37160Y-21586D01*
X37123Y-21604D01*
X36973Y-21604D01*
X37329Y-21398D02*
X37573Y-21398D01*
X37441Y-21548D01*
X37498Y-21548D01*
X37535Y-21567D01*
X37554Y-21586D01*
X37573Y-21623D01*
X37573Y-21717D01*
X37554Y-21754D01*
X37535Y-21773D01*
X37498Y-21792D01*
X37385Y-21792D01*
X37348Y-21773D01*
X37329Y-21754D01*
X49141Y-54029D02*
X49141Y-53635D01*
X49291Y-53635D01*
X49329Y-53654D01*
X49347Y-53673D01*
X49366Y-53710D01*
X49366Y-53767D01*
X49347Y-53804D01*
X49329Y-53823D01*
X49291Y-53842D01*
X49141Y-53842D01*
X49722Y-53635D02*
X49535Y-53635D01*
X49516Y-53823D01*
X49535Y-53804D01*
X49572Y-53785D01*
X49666Y-53785D01*
X49704Y-53804D01*
X49722Y-53823D01*
X49741Y-53860D01*
X49741Y-53954D01*
X49722Y-53992D01*
X49704Y-54010D01*
X49666Y-54029D01*
X49572Y-54029D01*
X49535Y-54010D01*
X49516Y-53992D01*
X46556Y-21779D02*
X46556Y-21385D01*
X46706Y-21385D01*
X46744Y-21404D01*
X46762Y-21423D01*
X46781Y-21460D01*
X46781Y-21516D01*
X46762Y-21554D01*
X46744Y-21573D01*
X46706Y-21591D01*
X46556Y-21591D01*
X47156Y-21779D02*
X46931Y-21779D01*
X47044Y-21779D02*
X47044Y-21385D01*
X47006Y-21441D01*
X46969Y-21479D01*
X46931Y-21498D01*
G54D15*
X48540Y-22880D02*
X48783Y-22880D01*
X48811Y-22866D01*
X48826Y-22851D01*
X48840Y-22823D01*
X48840Y-22766D01*
X48826Y-22737D01*
X48811Y-22723D01*
X48783Y-22709D01*
X48540Y-22709D01*
X48540Y-22423D02*
X48540Y-22566D01*
X48683Y-22580D01*
X48669Y-22566D01*
X48654Y-22537D01*
X48654Y-22466D01*
X48669Y-22437D01*
X48683Y-22423D01*
X48711Y-22409D01*
X48783Y-22409D01*
X48811Y-22423D01*
X48826Y-22437D01*
X48840Y-22466D01*
X48840Y-22537D01*
X48826Y-22566D01*
X48811Y-22580D01*
M02*
