M48
;DRILL file {Pcbnew (2013-03-19 BZR 4004)-stable} date Пнд 01 Апр 2013 01:55:00
;FORMAT={-:-/ absolute / inch / decimal}
FMAT,2
INCH,TZ
T1C0.012
T2C0.012
T3C0.071
%
G90
G05
M72
T1
X4.3662Y-3.5434
X4.3662Y-3.622
X4.3977Y-3.5434
X4.3977Y-3.622
X4.4292Y-3.4804
X4.4292Y-3.5119
X4.4292Y-3.6535
X4.4292Y-3.685
X4.5078Y-3.4804
X4.5078Y-3.5119
X4.5078Y-3.6535
X4.5078Y-3.685
X4.5393Y-3.5434
X4.5393Y-3.622
X4.5708Y-3.5434
X4.5708Y-3.622
T2
X4.3775Y-4.19
X4.385Y-4.05
X4.3975Y-3.96
X4.4025Y-4.19
X4.44Y-4.185
X4.455Y-4.205
X4.48Y-4.225
X4.51Y-4.245
X4.5825Y-4.7225
X4.59Y-4.0775
X4.6075Y-4.1025
X4.62Y-4.7475
X4.6425Y-4.675
X4.6475Y-4.7825
X4.675Y-4.58
X4.675Y-4.6125
X4.675Y-4.6425
X4.675Y-4.675
X4.6925Y-4.7725
X4.725Y-4.75
X4.74Y-4.07
X4.765Y-4.08
X4.785Y-4.07
X4.83Y-4.02
X4.83Y-4.5175
X4.8325Y-4.455
X4.8325Y-4.485
X4.8325Y-4.61
X4.8325Y-4.645
X4.8325Y-4.6725
X4.8325Y-4.71
X4.8625Y-4.5475
X4.8625Y-4.58
X4.8625Y-4.6425
X4.9025Y-4.4375
X4.9075Y-4.4725
X4.9175Y-4.61
X4.92Y-4.585
X4.92Y-4.635
X4.92Y-4.6625
X4.9275Y-4.505
X4.9275Y-4.565
X4.93Y-4.5325
X4.9875Y-4.7125
X5.0025Y-4.4725
T3
X4.4685Y-3.5827
T0
M30
