G04 (created by PCBNEW (2013-04-04 BZR 4007)-stable) date Втр 09 Апр 2013 14:06:08*
%MOIN*%
G04 Gerber Fmt 3.4, Leading zero omitted, Abs format*
%FSLAX34Y34*%
G01*
G70*
G90*
G04 APERTURE LIST*
%ADD10C,0.006*%
%ADD11C,0.0026*%
%ADD12C,0.003*%
%ADD13C,0.005*%
%ADD14C,0.007*%
%ADD15C,0.004*%
%ADD16C,0.008*%
%ADD17C,0.0001*%
%ADD18C,0.00590551*%
%ADD19C,0.012*%
%ADD20C,0.0045*%
%ADD21C,0.0035*%
%ADD22C,0.00492126*%
%ADD23C,0.00875*%
G04 APERTURE END LIST*
G54D10*
G54D11*
X41254Y-31939D02*
X41345Y-31939D01*
X41345Y-31939D02*
X41345Y-31546D01*
X41254Y-31546D02*
X41345Y-31546D01*
X41254Y-31939D02*
X41254Y-31546D01*
X41412Y-31939D02*
X41502Y-31939D01*
X41502Y-31939D02*
X41502Y-31546D01*
X41412Y-31546D02*
X41502Y-31546D01*
X41412Y-31939D02*
X41412Y-31546D01*
X41569Y-31939D02*
X41660Y-31939D01*
X41660Y-31939D02*
X41660Y-31546D01*
X41569Y-31546D02*
X41660Y-31546D01*
X41569Y-31939D02*
X41569Y-31546D01*
X41727Y-31939D02*
X41817Y-31939D01*
X41817Y-31939D02*
X41817Y-31546D01*
X41727Y-31546D02*
X41817Y-31546D01*
X41727Y-31939D02*
X41727Y-31546D01*
X41884Y-31939D02*
X41975Y-31939D01*
X41975Y-31939D02*
X41975Y-31546D01*
X41884Y-31546D02*
X41975Y-31546D01*
X41884Y-31939D02*
X41884Y-31546D01*
X42042Y-31939D02*
X42132Y-31939D01*
X42132Y-31939D02*
X42132Y-31546D01*
X42042Y-31546D02*
X42132Y-31546D01*
X42042Y-31939D02*
X42042Y-31546D01*
X42199Y-31939D02*
X42290Y-31939D01*
X42290Y-31939D02*
X42290Y-31546D01*
X42199Y-31546D02*
X42290Y-31546D01*
X42199Y-31939D02*
X42199Y-31546D01*
X42357Y-31939D02*
X42447Y-31939D01*
X42447Y-31939D02*
X42447Y-31546D01*
X42357Y-31546D02*
X42447Y-31546D01*
X42357Y-31939D02*
X42357Y-31546D01*
X42514Y-31939D02*
X42605Y-31939D01*
X42605Y-31939D02*
X42605Y-31546D01*
X42514Y-31546D02*
X42605Y-31546D01*
X42514Y-31939D02*
X42514Y-31546D01*
X42672Y-31939D02*
X42762Y-31939D01*
X42762Y-31939D02*
X42762Y-31546D01*
X42672Y-31546D02*
X42762Y-31546D01*
X42672Y-31939D02*
X42672Y-31546D01*
X42829Y-31939D02*
X42920Y-31939D01*
X42920Y-31939D02*
X42920Y-31546D01*
X42829Y-31546D02*
X42920Y-31546D01*
X42829Y-31939D02*
X42829Y-31546D01*
X42987Y-31939D02*
X43077Y-31939D01*
X43077Y-31939D02*
X43077Y-31546D01*
X42987Y-31546D02*
X43077Y-31546D01*
X42987Y-31939D02*
X42987Y-31546D01*
X43144Y-31939D02*
X43235Y-31939D01*
X43235Y-31939D02*
X43235Y-31546D01*
X43144Y-31546D02*
X43235Y-31546D01*
X43144Y-31939D02*
X43144Y-31546D01*
X43302Y-31939D02*
X43392Y-31939D01*
X43392Y-31939D02*
X43392Y-31546D01*
X43302Y-31546D02*
X43392Y-31546D01*
X43302Y-31939D02*
X43302Y-31546D01*
X43459Y-31939D02*
X43550Y-31939D01*
X43550Y-31939D02*
X43550Y-31546D01*
X43459Y-31546D02*
X43550Y-31546D01*
X43459Y-31939D02*
X43459Y-31546D01*
X43617Y-31939D02*
X43707Y-31939D01*
X43707Y-31939D02*
X43707Y-31546D01*
X43617Y-31546D02*
X43707Y-31546D01*
X43617Y-31939D02*
X43617Y-31546D01*
X43774Y-31939D02*
X43865Y-31939D01*
X43865Y-31939D02*
X43865Y-31546D01*
X43774Y-31546D02*
X43865Y-31546D01*
X43774Y-31939D02*
X43774Y-31546D01*
X43932Y-31939D02*
X44022Y-31939D01*
X44022Y-31939D02*
X44022Y-31546D01*
X43932Y-31546D02*
X44022Y-31546D01*
X43932Y-31939D02*
X43932Y-31546D01*
X44089Y-31939D02*
X44180Y-31939D01*
X44180Y-31939D02*
X44180Y-31546D01*
X44089Y-31546D02*
X44180Y-31546D01*
X44089Y-31939D02*
X44089Y-31546D01*
X44247Y-31939D02*
X44337Y-31939D01*
X44337Y-31939D02*
X44337Y-31546D01*
X44247Y-31546D02*
X44337Y-31546D01*
X44247Y-31939D02*
X44247Y-31546D01*
X44404Y-31939D02*
X44495Y-31939D01*
X44495Y-31939D02*
X44495Y-31546D01*
X44404Y-31546D02*
X44495Y-31546D01*
X44404Y-31939D02*
X44404Y-31546D01*
X44561Y-31939D02*
X44652Y-31939D01*
X44652Y-31939D02*
X44652Y-31546D01*
X44561Y-31546D02*
X44652Y-31546D01*
X44561Y-31939D02*
X44561Y-31546D01*
X44718Y-31939D02*
X44809Y-31939D01*
X44809Y-31939D02*
X44809Y-31546D01*
X44718Y-31546D02*
X44809Y-31546D01*
X44718Y-31939D02*
X44718Y-31546D01*
X44875Y-31939D02*
X44966Y-31939D01*
X44966Y-31939D02*
X44966Y-31546D01*
X44875Y-31546D02*
X44966Y-31546D01*
X44875Y-31939D02*
X44875Y-31546D01*
X45033Y-31939D02*
X45123Y-31939D01*
X45123Y-31939D02*
X45123Y-31546D01*
X45033Y-31546D02*
X45123Y-31546D01*
X45033Y-31939D02*
X45033Y-31546D01*
X45190Y-31939D02*
X45281Y-31939D01*
X45281Y-31939D02*
X45281Y-31546D01*
X45190Y-31546D02*
X45281Y-31546D01*
X45190Y-31939D02*
X45190Y-31546D01*
X45348Y-31939D02*
X45438Y-31939D01*
X45438Y-31939D02*
X45438Y-31546D01*
X45348Y-31546D02*
X45438Y-31546D01*
X45348Y-31939D02*
X45348Y-31546D01*
X45505Y-31939D02*
X45596Y-31939D01*
X45596Y-31939D02*
X45596Y-31546D01*
X45505Y-31546D02*
X45596Y-31546D01*
X45505Y-31939D02*
X45505Y-31546D01*
X45663Y-31939D02*
X45753Y-31939D01*
X45753Y-31939D02*
X45753Y-31546D01*
X45663Y-31546D02*
X45753Y-31546D01*
X45663Y-31939D02*
X45663Y-31546D01*
X45820Y-31939D02*
X45911Y-31939D01*
X45911Y-31939D02*
X45911Y-31546D01*
X45820Y-31546D02*
X45911Y-31546D01*
X45820Y-31939D02*
X45820Y-31546D01*
X45978Y-31939D02*
X46068Y-31939D01*
X46068Y-31939D02*
X46068Y-31546D01*
X45978Y-31546D02*
X46068Y-31546D01*
X45978Y-31939D02*
X45978Y-31546D01*
X46135Y-31939D02*
X46226Y-31939D01*
X46226Y-31939D02*
X46226Y-31546D01*
X46135Y-31546D02*
X46226Y-31546D01*
X46135Y-31939D02*
X46135Y-31546D01*
X46293Y-31939D02*
X46383Y-31939D01*
X46383Y-31939D02*
X46383Y-31546D01*
X46293Y-31546D02*
X46383Y-31546D01*
X46293Y-31939D02*
X46293Y-31546D01*
X46450Y-31939D02*
X46541Y-31939D01*
X46541Y-31939D02*
X46541Y-31546D01*
X46450Y-31546D02*
X46541Y-31546D01*
X46450Y-31939D02*
X46450Y-31546D01*
X46608Y-31939D02*
X46698Y-31939D01*
X46698Y-31939D02*
X46698Y-31546D01*
X46608Y-31546D02*
X46698Y-31546D01*
X46608Y-31939D02*
X46608Y-31546D01*
X46765Y-31939D02*
X46856Y-31939D01*
X46856Y-31939D02*
X46856Y-31546D01*
X46765Y-31546D02*
X46856Y-31546D01*
X46765Y-31939D02*
X46765Y-31546D01*
X46923Y-31939D02*
X47013Y-31939D01*
X47013Y-31939D02*
X47013Y-31546D01*
X46923Y-31546D02*
X47013Y-31546D01*
X46923Y-31939D02*
X46923Y-31546D01*
X47080Y-31939D02*
X47171Y-31939D01*
X47171Y-31939D02*
X47171Y-31546D01*
X47080Y-31546D02*
X47171Y-31546D01*
X47080Y-31939D02*
X47080Y-31546D01*
X47238Y-31939D02*
X47328Y-31939D01*
X47328Y-31939D02*
X47328Y-31546D01*
X47238Y-31546D02*
X47328Y-31546D01*
X47238Y-31939D02*
X47238Y-31546D01*
X47395Y-31939D02*
X47486Y-31939D01*
X47486Y-31939D02*
X47486Y-31546D01*
X47395Y-31546D02*
X47486Y-31546D01*
X47395Y-31939D02*
X47395Y-31546D01*
X47553Y-31939D02*
X47643Y-31939D01*
X47643Y-31939D02*
X47643Y-31546D01*
X47553Y-31546D02*
X47643Y-31546D01*
X47553Y-31939D02*
X47553Y-31546D01*
X47710Y-31939D02*
X47801Y-31939D01*
X47801Y-31939D02*
X47801Y-31546D01*
X47710Y-31546D02*
X47801Y-31546D01*
X47710Y-31939D02*
X47710Y-31546D01*
X47868Y-31939D02*
X47958Y-31939D01*
X47958Y-31939D02*
X47958Y-31546D01*
X47868Y-31546D02*
X47958Y-31546D01*
X47868Y-31939D02*
X47868Y-31546D01*
X48025Y-31939D02*
X48116Y-31939D01*
X48116Y-31939D02*
X48116Y-31546D01*
X48025Y-31546D02*
X48116Y-31546D01*
X48025Y-31939D02*
X48025Y-31546D01*
X48025Y-40106D02*
X48116Y-40106D01*
X48116Y-40106D02*
X48116Y-39713D01*
X48025Y-39713D02*
X48116Y-39713D01*
X48025Y-40106D02*
X48025Y-39713D01*
X47868Y-40106D02*
X47958Y-40106D01*
X47958Y-40106D02*
X47958Y-39713D01*
X47868Y-39713D02*
X47958Y-39713D01*
X47868Y-40106D02*
X47868Y-39713D01*
X47710Y-40106D02*
X47801Y-40106D01*
X47801Y-40106D02*
X47801Y-39713D01*
X47710Y-39713D02*
X47801Y-39713D01*
X47710Y-40106D02*
X47710Y-39713D01*
X47553Y-40106D02*
X47643Y-40106D01*
X47643Y-40106D02*
X47643Y-39713D01*
X47553Y-39713D02*
X47643Y-39713D01*
X47553Y-40106D02*
X47553Y-39713D01*
X47395Y-40106D02*
X47486Y-40106D01*
X47486Y-40106D02*
X47486Y-39713D01*
X47395Y-39713D02*
X47486Y-39713D01*
X47395Y-40106D02*
X47395Y-39713D01*
X47238Y-40106D02*
X47328Y-40106D01*
X47328Y-40106D02*
X47328Y-39713D01*
X47238Y-39713D02*
X47328Y-39713D01*
X47238Y-40106D02*
X47238Y-39713D01*
X47080Y-40106D02*
X47171Y-40106D01*
X47171Y-40106D02*
X47171Y-39713D01*
X47080Y-39713D02*
X47171Y-39713D01*
X47080Y-40106D02*
X47080Y-39713D01*
X46923Y-40106D02*
X47013Y-40106D01*
X47013Y-40106D02*
X47013Y-39713D01*
X46923Y-39713D02*
X47013Y-39713D01*
X46923Y-40106D02*
X46923Y-39713D01*
X46765Y-40106D02*
X46856Y-40106D01*
X46856Y-40106D02*
X46856Y-39713D01*
X46765Y-39713D02*
X46856Y-39713D01*
X46765Y-40106D02*
X46765Y-39713D01*
X46608Y-40106D02*
X46698Y-40106D01*
X46698Y-40106D02*
X46698Y-39713D01*
X46608Y-39713D02*
X46698Y-39713D01*
X46608Y-40106D02*
X46608Y-39713D01*
X46450Y-40106D02*
X46541Y-40106D01*
X46541Y-40106D02*
X46541Y-39713D01*
X46450Y-39713D02*
X46541Y-39713D01*
X46450Y-40106D02*
X46450Y-39713D01*
X46293Y-40106D02*
X46383Y-40106D01*
X46383Y-40106D02*
X46383Y-39713D01*
X46293Y-39713D02*
X46383Y-39713D01*
X46293Y-40106D02*
X46293Y-39713D01*
X46135Y-40106D02*
X46226Y-40106D01*
X46226Y-40106D02*
X46226Y-39713D01*
X46135Y-39713D02*
X46226Y-39713D01*
X46135Y-40106D02*
X46135Y-39713D01*
X45978Y-40106D02*
X46068Y-40106D01*
X46068Y-40106D02*
X46068Y-39713D01*
X45978Y-39713D02*
X46068Y-39713D01*
X45978Y-40106D02*
X45978Y-39713D01*
X45820Y-40106D02*
X45911Y-40106D01*
X45911Y-40106D02*
X45911Y-39713D01*
X45820Y-39713D02*
X45911Y-39713D01*
X45820Y-40106D02*
X45820Y-39713D01*
X45663Y-40106D02*
X45753Y-40106D01*
X45753Y-40106D02*
X45753Y-39713D01*
X45663Y-39713D02*
X45753Y-39713D01*
X45663Y-40106D02*
X45663Y-39713D01*
X45505Y-40106D02*
X45596Y-40106D01*
X45596Y-40106D02*
X45596Y-39713D01*
X45505Y-39713D02*
X45596Y-39713D01*
X45505Y-40106D02*
X45505Y-39713D01*
X45348Y-40106D02*
X45438Y-40106D01*
X45438Y-40106D02*
X45438Y-39713D01*
X45348Y-39713D02*
X45438Y-39713D01*
X45348Y-40106D02*
X45348Y-39713D01*
X45190Y-40106D02*
X45281Y-40106D01*
X45281Y-40106D02*
X45281Y-39713D01*
X45190Y-39713D02*
X45281Y-39713D01*
X45190Y-40106D02*
X45190Y-39713D01*
X45033Y-40106D02*
X45123Y-40106D01*
X45123Y-40106D02*
X45123Y-39713D01*
X45033Y-39713D02*
X45123Y-39713D01*
X45033Y-40106D02*
X45033Y-39713D01*
X44875Y-40106D02*
X44966Y-40106D01*
X44966Y-40106D02*
X44966Y-39713D01*
X44875Y-39713D02*
X44966Y-39713D01*
X44875Y-40106D02*
X44875Y-39713D01*
X44718Y-40106D02*
X44809Y-40106D01*
X44809Y-40106D02*
X44809Y-39713D01*
X44718Y-39713D02*
X44809Y-39713D01*
X44718Y-40106D02*
X44718Y-39713D01*
X44561Y-40106D02*
X44652Y-40106D01*
X44652Y-40106D02*
X44652Y-39713D01*
X44561Y-39713D02*
X44652Y-39713D01*
X44561Y-40106D02*
X44561Y-39713D01*
X44404Y-40106D02*
X44495Y-40106D01*
X44495Y-40106D02*
X44495Y-39713D01*
X44404Y-39713D02*
X44495Y-39713D01*
X44404Y-40106D02*
X44404Y-39713D01*
X44247Y-40106D02*
X44337Y-40106D01*
X44337Y-40106D02*
X44337Y-39713D01*
X44247Y-39713D02*
X44337Y-39713D01*
X44247Y-40106D02*
X44247Y-39713D01*
X44089Y-40106D02*
X44180Y-40106D01*
X44180Y-40106D02*
X44180Y-39713D01*
X44089Y-39713D02*
X44180Y-39713D01*
X44089Y-40106D02*
X44089Y-39713D01*
X43932Y-40106D02*
X44022Y-40106D01*
X44022Y-40106D02*
X44022Y-39713D01*
X43932Y-39713D02*
X44022Y-39713D01*
X43932Y-40106D02*
X43932Y-39713D01*
X43774Y-40106D02*
X43865Y-40106D01*
X43865Y-40106D02*
X43865Y-39713D01*
X43774Y-39713D02*
X43865Y-39713D01*
X43774Y-40106D02*
X43774Y-39713D01*
X43617Y-40106D02*
X43707Y-40106D01*
X43707Y-40106D02*
X43707Y-39713D01*
X43617Y-39713D02*
X43707Y-39713D01*
X43617Y-40106D02*
X43617Y-39713D01*
X43459Y-40106D02*
X43550Y-40106D01*
X43550Y-40106D02*
X43550Y-39713D01*
X43459Y-39713D02*
X43550Y-39713D01*
X43459Y-40106D02*
X43459Y-39713D01*
X43302Y-40106D02*
X43392Y-40106D01*
X43392Y-40106D02*
X43392Y-39713D01*
X43302Y-39713D02*
X43392Y-39713D01*
X43302Y-40106D02*
X43302Y-39713D01*
X43144Y-40106D02*
X43235Y-40106D01*
X43235Y-40106D02*
X43235Y-39713D01*
X43144Y-39713D02*
X43235Y-39713D01*
X43144Y-40106D02*
X43144Y-39713D01*
X42987Y-40106D02*
X43077Y-40106D01*
X43077Y-40106D02*
X43077Y-39713D01*
X42987Y-39713D02*
X43077Y-39713D01*
X42987Y-40106D02*
X42987Y-39713D01*
X42829Y-40106D02*
X42920Y-40106D01*
X42920Y-40106D02*
X42920Y-39713D01*
X42829Y-39713D02*
X42920Y-39713D01*
X42829Y-40106D02*
X42829Y-39713D01*
X42672Y-40106D02*
X42762Y-40106D01*
X42762Y-40106D02*
X42762Y-39713D01*
X42672Y-39713D02*
X42762Y-39713D01*
X42672Y-40106D02*
X42672Y-39713D01*
X42514Y-40106D02*
X42605Y-40106D01*
X42605Y-40106D02*
X42605Y-39713D01*
X42514Y-39713D02*
X42605Y-39713D01*
X42514Y-40106D02*
X42514Y-39713D01*
X42357Y-40106D02*
X42447Y-40106D01*
X42447Y-40106D02*
X42447Y-39713D01*
X42357Y-39713D02*
X42447Y-39713D01*
X42357Y-40106D02*
X42357Y-39713D01*
X42199Y-40106D02*
X42290Y-40106D01*
X42290Y-40106D02*
X42290Y-39713D01*
X42199Y-39713D02*
X42290Y-39713D01*
X42199Y-40106D02*
X42199Y-39713D01*
X42042Y-40106D02*
X42132Y-40106D01*
X42132Y-40106D02*
X42132Y-39713D01*
X42042Y-39713D02*
X42132Y-39713D01*
X42042Y-40106D02*
X42042Y-39713D01*
X41884Y-40106D02*
X41975Y-40106D01*
X41975Y-40106D02*
X41975Y-39713D01*
X41884Y-39713D02*
X41975Y-39713D01*
X41884Y-40106D02*
X41884Y-39713D01*
X41727Y-40106D02*
X41817Y-40106D01*
X41817Y-40106D02*
X41817Y-39713D01*
X41727Y-39713D02*
X41817Y-39713D01*
X41727Y-40106D02*
X41727Y-39713D01*
X41569Y-40106D02*
X41660Y-40106D01*
X41660Y-40106D02*
X41660Y-39713D01*
X41569Y-39713D02*
X41660Y-39713D01*
X41569Y-40106D02*
X41569Y-39713D01*
X41412Y-40106D02*
X41502Y-40106D01*
X41502Y-40106D02*
X41502Y-39713D01*
X41412Y-39713D02*
X41502Y-39713D01*
X41412Y-40106D02*
X41412Y-39713D01*
X41254Y-40106D02*
X41345Y-40106D01*
X41345Y-40106D02*
X41345Y-39713D01*
X41254Y-39713D02*
X41345Y-39713D01*
X41254Y-40106D02*
X41254Y-39713D01*
X40405Y-39257D02*
X40798Y-39257D01*
X40798Y-39257D02*
X40798Y-39166D01*
X40405Y-39166D02*
X40798Y-39166D01*
X40405Y-39257D02*
X40405Y-39166D01*
X40405Y-39099D02*
X40798Y-39099D01*
X40798Y-39099D02*
X40798Y-39009D01*
X40405Y-39009D02*
X40798Y-39009D01*
X40405Y-39099D02*
X40405Y-39009D01*
X40405Y-38942D02*
X40798Y-38942D01*
X40798Y-38942D02*
X40798Y-38851D01*
X40405Y-38851D02*
X40798Y-38851D01*
X40405Y-38942D02*
X40405Y-38851D01*
X40405Y-38784D02*
X40798Y-38784D01*
X40798Y-38784D02*
X40798Y-38694D01*
X40405Y-38694D02*
X40798Y-38694D01*
X40405Y-38784D02*
X40405Y-38694D01*
X40405Y-38627D02*
X40798Y-38627D01*
X40798Y-38627D02*
X40798Y-38536D01*
X40405Y-38536D02*
X40798Y-38536D01*
X40405Y-38627D02*
X40405Y-38536D01*
X40405Y-38469D02*
X40798Y-38469D01*
X40798Y-38469D02*
X40798Y-38379D01*
X40405Y-38379D02*
X40798Y-38379D01*
X40405Y-38469D02*
X40405Y-38379D01*
X40405Y-38312D02*
X40798Y-38312D01*
X40798Y-38312D02*
X40798Y-38221D01*
X40405Y-38221D02*
X40798Y-38221D01*
X40405Y-38312D02*
X40405Y-38221D01*
X40405Y-38154D02*
X40798Y-38154D01*
X40798Y-38154D02*
X40798Y-38064D01*
X40405Y-38064D02*
X40798Y-38064D01*
X40405Y-38154D02*
X40405Y-38064D01*
X40405Y-37997D02*
X40798Y-37997D01*
X40798Y-37997D02*
X40798Y-37906D01*
X40405Y-37906D02*
X40798Y-37906D01*
X40405Y-37997D02*
X40405Y-37906D01*
X40405Y-37839D02*
X40798Y-37839D01*
X40798Y-37839D02*
X40798Y-37749D01*
X40405Y-37749D02*
X40798Y-37749D01*
X40405Y-37839D02*
X40405Y-37749D01*
X40405Y-37682D02*
X40798Y-37682D01*
X40798Y-37682D02*
X40798Y-37591D01*
X40405Y-37591D02*
X40798Y-37591D01*
X40405Y-37682D02*
X40405Y-37591D01*
X40405Y-37524D02*
X40798Y-37524D01*
X40798Y-37524D02*
X40798Y-37434D01*
X40405Y-37434D02*
X40798Y-37434D01*
X40405Y-37524D02*
X40405Y-37434D01*
X40405Y-37367D02*
X40798Y-37367D01*
X40798Y-37367D02*
X40798Y-37276D01*
X40405Y-37276D02*
X40798Y-37276D01*
X40405Y-37367D02*
X40405Y-37276D01*
X40405Y-37209D02*
X40798Y-37209D01*
X40798Y-37209D02*
X40798Y-37119D01*
X40405Y-37119D02*
X40798Y-37119D01*
X40405Y-37209D02*
X40405Y-37119D01*
X40405Y-37052D02*
X40798Y-37052D01*
X40798Y-37052D02*
X40798Y-36961D01*
X40405Y-36961D02*
X40798Y-36961D01*
X40405Y-37052D02*
X40405Y-36961D01*
X40405Y-36894D02*
X40798Y-36894D01*
X40798Y-36894D02*
X40798Y-36804D01*
X40405Y-36804D02*
X40798Y-36804D01*
X40405Y-36894D02*
X40405Y-36804D01*
X40405Y-36737D02*
X40798Y-36737D01*
X40798Y-36737D02*
X40798Y-36646D01*
X40405Y-36646D02*
X40798Y-36646D01*
X40405Y-36737D02*
X40405Y-36646D01*
X40405Y-36579D02*
X40798Y-36579D01*
X40798Y-36579D02*
X40798Y-36489D01*
X40405Y-36489D02*
X40798Y-36489D01*
X40405Y-36579D02*
X40405Y-36489D01*
X40405Y-36422D02*
X40798Y-36422D01*
X40798Y-36422D02*
X40798Y-36331D01*
X40405Y-36331D02*
X40798Y-36331D01*
X40405Y-36422D02*
X40405Y-36331D01*
X40405Y-36264D02*
X40798Y-36264D01*
X40798Y-36264D02*
X40798Y-36174D01*
X40405Y-36174D02*
X40798Y-36174D01*
X40405Y-36264D02*
X40405Y-36174D01*
X40405Y-36107D02*
X40798Y-36107D01*
X40798Y-36107D02*
X40798Y-36016D01*
X40405Y-36016D02*
X40798Y-36016D01*
X40405Y-36107D02*
X40405Y-36016D01*
X40405Y-35950D02*
X40798Y-35950D01*
X40798Y-35950D02*
X40798Y-35859D01*
X40405Y-35859D02*
X40798Y-35859D01*
X40405Y-35950D02*
X40405Y-35859D01*
X40405Y-35793D02*
X40798Y-35793D01*
X40798Y-35793D02*
X40798Y-35702D01*
X40405Y-35702D02*
X40798Y-35702D01*
X40405Y-35793D02*
X40405Y-35702D01*
X40405Y-35636D02*
X40798Y-35636D01*
X40798Y-35636D02*
X40798Y-35545D01*
X40405Y-35545D02*
X40798Y-35545D01*
X40405Y-35636D02*
X40405Y-35545D01*
X40405Y-35478D02*
X40798Y-35478D01*
X40798Y-35478D02*
X40798Y-35388D01*
X40405Y-35388D02*
X40798Y-35388D01*
X40405Y-35478D02*
X40405Y-35388D01*
X40405Y-35321D02*
X40798Y-35321D01*
X40798Y-35321D02*
X40798Y-35230D01*
X40405Y-35230D02*
X40798Y-35230D01*
X40405Y-35321D02*
X40405Y-35230D01*
X40405Y-35163D02*
X40798Y-35163D01*
X40798Y-35163D02*
X40798Y-35073D01*
X40405Y-35073D02*
X40798Y-35073D01*
X40405Y-35163D02*
X40405Y-35073D01*
X40405Y-35006D02*
X40798Y-35006D01*
X40798Y-35006D02*
X40798Y-34915D01*
X40405Y-34915D02*
X40798Y-34915D01*
X40405Y-35006D02*
X40405Y-34915D01*
X40405Y-34848D02*
X40798Y-34848D01*
X40798Y-34848D02*
X40798Y-34758D01*
X40405Y-34758D02*
X40798Y-34758D01*
X40405Y-34848D02*
X40405Y-34758D01*
X40405Y-34691D02*
X40798Y-34691D01*
X40798Y-34691D02*
X40798Y-34600D01*
X40405Y-34600D02*
X40798Y-34600D01*
X40405Y-34691D02*
X40405Y-34600D01*
X40405Y-34533D02*
X40798Y-34533D01*
X40798Y-34533D02*
X40798Y-34443D01*
X40405Y-34443D02*
X40798Y-34443D01*
X40405Y-34533D02*
X40405Y-34443D01*
X40405Y-34376D02*
X40798Y-34376D01*
X40798Y-34376D02*
X40798Y-34285D01*
X40405Y-34285D02*
X40798Y-34285D01*
X40405Y-34376D02*
X40405Y-34285D01*
X40405Y-34218D02*
X40798Y-34218D01*
X40798Y-34218D02*
X40798Y-34128D01*
X40405Y-34128D02*
X40798Y-34128D01*
X40405Y-34218D02*
X40405Y-34128D01*
X40405Y-34061D02*
X40798Y-34061D01*
X40798Y-34061D02*
X40798Y-33970D01*
X40405Y-33970D02*
X40798Y-33970D01*
X40405Y-34061D02*
X40405Y-33970D01*
X40405Y-33903D02*
X40798Y-33903D01*
X40798Y-33903D02*
X40798Y-33813D01*
X40405Y-33813D02*
X40798Y-33813D01*
X40405Y-33903D02*
X40405Y-33813D01*
X40405Y-33746D02*
X40798Y-33746D01*
X40798Y-33746D02*
X40798Y-33655D01*
X40405Y-33655D02*
X40798Y-33655D01*
X40405Y-33746D02*
X40405Y-33655D01*
X40405Y-33588D02*
X40798Y-33588D01*
X40798Y-33588D02*
X40798Y-33498D01*
X40405Y-33498D02*
X40798Y-33498D01*
X40405Y-33588D02*
X40405Y-33498D01*
X40405Y-33431D02*
X40798Y-33431D01*
X40798Y-33431D02*
X40798Y-33340D01*
X40405Y-33340D02*
X40798Y-33340D01*
X40405Y-33431D02*
X40405Y-33340D01*
X40405Y-33273D02*
X40798Y-33273D01*
X40798Y-33273D02*
X40798Y-33183D01*
X40405Y-33183D02*
X40798Y-33183D01*
X40405Y-33273D02*
X40405Y-33183D01*
X40405Y-33116D02*
X40798Y-33116D01*
X40798Y-33116D02*
X40798Y-33025D01*
X40405Y-33025D02*
X40798Y-33025D01*
X40405Y-33116D02*
X40405Y-33025D01*
X40405Y-32958D02*
X40798Y-32958D01*
X40798Y-32958D02*
X40798Y-32868D01*
X40405Y-32868D02*
X40798Y-32868D01*
X40405Y-32958D02*
X40405Y-32868D01*
X40405Y-32801D02*
X40798Y-32801D01*
X40798Y-32801D02*
X40798Y-32710D01*
X40405Y-32710D02*
X40798Y-32710D01*
X40405Y-32801D02*
X40405Y-32710D01*
X40405Y-32643D02*
X40798Y-32643D01*
X40798Y-32643D02*
X40798Y-32553D01*
X40405Y-32553D02*
X40798Y-32553D01*
X40405Y-32643D02*
X40405Y-32553D01*
X40405Y-32486D02*
X40798Y-32486D01*
X40798Y-32486D02*
X40798Y-32395D01*
X40405Y-32395D02*
X40798Y-32395D01*
X40405Y-32486D02*
X40405Y-32395D01*
X48572Y-32486D02*
X48965Y-32486D01*
X48965Y-32486D02*
X48965Y-32395D01*
X48572Y-32395D02*
X48965Y-32395D01*
X48572Y-32486D02*
X48572Y-32395D01*
X48572Y-32643D02*
X48965Y-32643D01*
X48965Y-32643D02*
X48965Y-32553D01*
X48572Y-32553D02*
X48965Y-32553D01*
X48572Y-32643D02*
X48572Y-32553D01*
X48572Y-32801D02*
X48965Y-32801D01*
X48965Y-32801D02*
X48965Y-32710D01*
X48572Y-32710D02*
X48965Y-32710D01*
X48572Y-32801D02*
X48572Y-32710D01*
X48572Y-32958D02*
X48965Y-32958D01*
X48965Y-32958D02*
X48965Y-32868D01*
X48572Y-32868D02*
X48965Y-32868D01*
X48572Y-32958D02*
X48572Y-32868D01*
X48572Y-33116D02*
X48965Y-33116D01*
X48965Y-33116D02*
X48965Y-33025D01*
X48572Y-33025D02*
X48965Y-33025D01*
X48572Y-33116D02*
X48572Y-33025D01*
X48572Y-33273D02*
X48965Y-33273D01*
X48965Y-33273D02*
X48965Y-33183D01*
X48572Y-33183D02*
X48965Y-33183D01*
X48572Y-33273D02*
X48572Y-33183D01*
X48572Y-33431D02*
X48965Y-33431D01*
X48965Y-33431D02*
X48965Y-33340D01*
X48572Y-33340D02*
X48965Y-33340D01*
X48572Y-33431D02*
X48572Y-33340D01*
X48572Y-33588D02*
X48965Y-33588D01*
X48965Y-33588D02*
X48965Y-33498D01*
X48572Y-33498D02*
X48965Y-33498D01*
X48572Y-33588D02*
X48572Y-33498D01*
X48572Y-33746D02*
X48965Y-33746D01*
X48965Y-33746D02*
X48965Y-33655D01*
X48572Y-33655D02*
X48965Y-33655D01*
X48572Y-33746D02*
X48572Y-33655D01*
X48572Y-33903D02*
X48965Y-33903D01*
X48965Y-33903D02*
X48965Y-33813D01*
X48572Y-33813D02*
X48965Y-33813D01*
X48572Y-33903D02*
X48572Y-33813D01*
X48572Y-34061D02*
X48965Y-34061D01*
X48965Y-34061D02*
X48965Y-33970D01*
X48572Y-33970D02*
X48965Y-33970D01*
X48572Y-34061D02*
X48572Y-33970D01*
X48572Y-34218D02*
X48965Y-34218D01*
X48965Y-34218D02*
X48965Y-34128D01*
X48572Y-34128D02*
X48965Y-34128D01*
X48572Y-34218D02*
X48572Y-34128D01*
X48572Y-34376D02*
X48965Y-34376D01*
X48965Y-34376D02*
X48965Y-34285D01*
X48572Y-34285D02*
X48965Y-34285D01*
X48572Y-34376D02*
X48572Y-34285D01*
X48572Y-34533D02*
X48965Y-34533D01*
X48965Y-34533D02*
X48965Y-34443D01*
X48572Y-34443D02*
X48965Y-34443D01*
X48572Y-34533D02*
X48572Y-34443D01*
X48572Y-34691D02*
X48965Y-34691D01*
X48965Y-34691D02*
X48965Y-34600D01*
X48572Y-34600D02*
X48965Y-34600D01*
X48572Y-34691D02*
X48572Y-34600D01*
X48572Y-34848D02*
X48965Y-34848D01*
X48965Y-34848D02*
X48965Y-34758D01*
X48572Y-34758D02*
X48965Y-34758D01*
X48572Y-34848D02*
X48572Y-34758D01*
X48572Y-35006D02*
X48965Y-35006D01*
X48965Y-35006D02*
X48965Y-34915D01*
X48572Y-34915D02*
X48965Y-34915D01*
X48572Y-35006D02*
X48572Y-34915D01*
X48572Y-35163D02*
X48965Y-35163D01*
X48965Y-35163D02*
X48965Y-35073D01*
X48572Y-35073D02*
X48965Y-35073D01*
X48572Y-35163D02*
X48572Y-35073D01*
X48572Y-35321D02*
X48965Y-35321D01*
X48965Y-35321D02*
X48965Y-35230D01*
X48572Y-35230D02*
X48965Y-35230D01*
X48572Y-35321D02*
X48572Y-35230D01*
X48572Y-35478D02*
X48965Y-35478D01*
X48965Y-35478D02*
X48965Y-35388D01*
X48572Y-35388D02*
X48965Y-35388D01*
X48572Y-35478D02*
X48572Y-35388D01*
X48572Y-35636D02*
X48965Y-35636D01*
X48965Y-35636D02*
X48965Y-35545D01*
X48572Y-35545D02*
X48965Y-35545D01*
X48572Y-35636D02*
X48572Y-35545D01*
X48572Y-35793D02*
X48965Y-35793D01*
X48965Y-35793D02*
X48965Y-35702D01*
X48572Y-35702D02*
X48965Y-35702D01*
X48572Y-35793D02*
X48572Y-35702D01*
X48572Y-35950D02*
X48965Y-35950D01*
X48965Y-35950D02*
X48965Y-35859D01*
X48572Y-35859D02*
X48965Y-35859D01*
X48572Y-35950D02*
X48572Y-35859D01*
X48572Y-36107D02*
X48965Y-36107D01*
X48965Y-36107D02*
X48965Y-36016D01*
X48572Y-36016D02*
X48965Y-36016D01*
X48572Y-36107D02*
X48572Y-36016D01*
X48572Y-36264D02*
X48965Y-36264D01*
X48965Y-36264D02*
X48965Y-36174D01*
X48572Y-36174D02*
X48965Y-36174D01*
X48572Y-36264D02*
X48572Y-36174D01*
X48572Y-36422D02*
X48965Y-36422D01*
X48965Y-36422D02*
X48965Y-36331D01*
X48572Y-36331D02*
X48965Y-36331D01*
X48572Y-36422D02*
X48572Y-36331D01*
X48572Y-36579D02*
X48965Y-36579D01*
X48965Y-36579D02*
X48965Y-36489D01*
X48572Y-36489D02*
X48965Y-36489D01*
X48572Y-36579D02*
X48572Y-36489D01*
X48572Y-36737D02*
X48965Y-36737D01*
X48965Y-36737D02*
X48965Y-36646D01*
X48572Y-36646D02*
X48965Y-36646D01*
X48572Y-36737D02*
X48572Y-36646D01*
X48572Y-36894D02*
X48965Y-36894D01*
X48965Y-36894D02*
X48965Y-36804D01*
X48572Y-36804D02*
X48965Y-36804D01*
X48572Y-36894D02*
X48572Y-36804D01*
X48572Y-37052D02*
X48965Y-37052D01*
X48965Y-37052D02*
X48965Y-36961D01*
X48572Y-36961D02*
X48965Y-36961D01*
X48572Y-37052D02*
X48572Y-36961D01*
X48572Y-37209D02*
X48965Y-37209D01*
X48965Y-37209D02*
X48965Y-37119D01*
X48572Y-37119D02*
X48965Y-37119D01*
X48572Y-37209D02*
X48572Y-37119D01*
X48572Y-37367D02*
X48965Y-37367D01*
X48965Y-37367D02*
X48965Y-37276D01*
X48572Y-37276D02*
X48965Y-37276D01*
X48572Y-37367D02*
X48572Y-37276D01*
X48572Y-37524D02*
X48965Y-37524D01*
X48965Y-37524D02*
X48965Y-37434D01*
X48572Y-37434D02*
X48965Y-37434D01*
X48572Y-37524D02*
X48572Y-37434D01*
X48572Y-37682D02*
X48965Y-37682D01*
X48965Y-37682D02*
X48965Y-37591D01*
X48572Y-37591D02*
X48965Y-37591D01*
X48572Y-37682D02*
X48572Y-37591D01*
X48572Y-37839D02*
X48965Y-37839D01*
X48965Y-37839D02*
X48965Y-37749D01*
X48572Y-37749D02*
X48965Y-37749D01*
X48572Y-37839D02*
X48572Y-37749D01*
X48572Y-37997D02*
X48965Y-37997D01*
X48965Y-37997D02*
X48965Y-37906D01*
X48572Y-37906D02*
X48965Y-37906D01*
X48572Y-37997D02*
X48572Y-37906D01*
X48572Y-38154D02*
X48965Y-38154D01*
X48965Y-38154D02*
X48965Y-38064D01*
X48572Y-38064D02*
X48965Y-38064D01*
X48572Y-38154D02*
X48572Y-38064D01*
X48572Y-38312D02*
X48965Y-38312D01*
X48965Y-38312D02*
X48965Y-38221D01*
X48572Y-38221D02*
X48965Y-38221D01*
X48572Y-38312D02*
X48572Y-38221D01*
X48572Y-38469D02*
X48965Y-38469D01*
X48965Y-38469D02*
X48965Y-38379D01*
X48572Y-38379D02*
X48965Y-38379D01*
X48572Y-38469D02*
X48572Y-38379D01*
X48572Y-38627D02*
X48965Y-38627D01*
X48965Y-38627D02*
X48965Y-38536D01*
X48572Y-38536D02*
X48965Y-38536D01*
X48572Y-38627D02*
X48572Y-38536D01*
X48572Y-38784D02*
X48965Y-38784D01*
X48965Y-38784D02*
X48965Y-38694D01*
X48572Y-38694D02*
X48965Y-38694D01*
X48572Y-38784D02*
X48572Y-38694D01*
X48572Y-38942D02*
X48965Y-38942D01*
X48965Y-38942D02*
X48965Y-38851D01*
X48572Y-38851D02*
X48965Y-38851D01*
X48572Y-38942D02*
X48572Y-38851D01*
X48572Y-39099D02*
X48965Y-39099D01*
X48965Y-39099D02*
X48965Y-39009D01*
X48572Y-39009D02*
X48965Y-39009D01*
X48572Y-39099D02*
X48572Y-39009D01*
X48572Y-39257D02*
X48965Y-39257D01*
X48965Y-39257D02*
X48965Y-39166D01*
X48572Y-39166D02*
X48965Y-39166D01*
X48572Y-39257D02*
X48572Y-39166D01*
X43583Y-36928D02*
X44213Y-36928D01*
X44213Y-36928D02*
X44213Y-36298D01*
X43583Y-36298D02*
X44213Y-36298D01*
X43583Y-36928D02*
X43583Y-36298D01*
X44371Y-36928D02*
X44999Y-36928D01*
X44999Y-36928D02*
X44999Y-36298D01*
X44371Y-36298D02*
X44999Y-36298D01*
X44371Y-36928D02*
X44371Y-36298D01*
X45157Y-36928D02*
X45787Y-36928D01*
X45787Y-36928D02*
X45787Y-36298D01*
X45157Y-36298D02*
X45787Y-36298D01*
X45157Y-36928D02*
X45157Y-36298D01*
X43583Y-36140D02*
X44213Y-36140D01*
X44213Y-36140D02*
X44213Y-35512D01*
X43583Y-35512D02*
X44213Y-35512D01*
X43583Y-36140D02*
X43583Y-35512D01*
X45157Y-36140D02*
X45787Y-36140D01*
X45787Y-36140D02*
X45787Y-35512D01*
X45157Y-35512D02*
X45787Y-35512D01*
X45157Y-36140D02*
X45157Y-35512D01*
X43583Y-35354D02*
X44213Y-35354D01*
X44213Y-35354D02*
X44213Y-34724D01*
X43583Y-34724D02*
X44213Y-34724D01*
X43583Y-35354D02*
X43583Y-34724D01*
X44371Y-35354D02*
X44999Y-35354D01*
X44999Y-35354D02*
X44999Y-34724D01*
X44371Y-34724D02*
X44999Y-34724D01*
X44371Y-35354D02*
X44371Y-34724D01*
X45157Y-35354D02*
X45787Y-35354D01*
X45787Y-35354D02*
X45787Y-34724D01*
X45157Y-34724D02*
X45787Y-34724D01*
X45157Y-35354D02*
X45157Y-34724D01*
G54D10*
X40759Y-31900D02*
X48611Y-31900D01*
X48611Y-31900D02*
X48611Y-39752D01*
X48611Y-39752D02*
X41153Y-39752D01*
X41153Y-39752D02*
X40759Y-39358D01*
X40759Y-39358D02*
X40759Y-31900D01*
G54D12*
X42010Y-38778D02*
G75*
G03X42010Y-38778I-277J0D01*
G74*
G01*
G54D13*
X36872Y-47112D02*
X37772Y-47112D01*
X37772Y-47112D02*
X37772Y-47612D01*
X37772Y-47612D02*
X36872Y-47612D01*
X36872Y-47612D02*
X36872Y-47112D01*
X45604Y-23349D02*
X45604Y-24249D01*
X45604Y-24249D02*
X45104Y-24249D01*
X45104Y-24249D02*
X45104Y-23349D01*
X45104Y-23349D02*
X45604Y-23349D01*
X36608Y-36183D02*
X36608Y-37083D01*
X36608Y-37083D02*
X36108Y-37083D01*
X36108Y-37083D02*
X36108Y-36183D01*
X36108Y-36183D02*
X36608Y-36183D01*
X39423Y-50160D02*
X39423Y-51060D01*
X39423Y-51060D02*
X38923Y-51060D01*
X38923Y-51060D02*
X38923Y-50160D01*
X38923Y-50160D02*
X39423Y-50160D01*
X38053Y-47112D02*
X38953Y-47112D01*
X38953Y-47112D02*
X38953Y-47612D01*
X38953Y-47612D02*
X38053Y-47612D01*
X38053Y-47612D02*
X38053Y-47112D01*
G54D14*
X38405Y-23661D02*
X39271Y-23661D01*
X39232Y-23701D02*
X39232Y-24016D01*
X39153Y-24016D02*
X39153Y-23701D01*
X39192Y-23701D02*
X39192Y-24016D01*
X39114Y-24016D02*
X39114Y-23701D01*
X38562Y-24016D02*
X38562Y-23701D01*
X38523Y-23701D02*
X38523Y-24016D01*
X38484Y-24016D02*
X38484Y-23701D01*
X38444Y-23701D02*
X38444Y-24016D01*
X38405Y-23701D02*
X39271Y-23701D01*
X39271Y-24016D02*
X39114Y-24016D01*
X38405Y-24016D02*
X38562Y-24016D01*
X38405Y-22834D02*
X38562Y-22834D01*
X39271Y-22834D02*
X39114Y-22834D01*
X39271Y-24016D02*
X39271Y-22834D01*
X38405Y-24016D02*
X38405Y-22834D01*
G54D11*
X46436Y-24468D02*
X46436Y-24822D01*
X46436Y-24822D02*
X46593Y-24822D01*
X46593Y-24468D02*
X46593Y-24822D01*
X46436Y-24468D02*
X46593Y-24468D01*
X45925Y-24468D02*
X45925Y-24822D01*
X45925Y-24822D02*
X46082Y-24822D01*
X46082Y-24468D02*
X46082Y-24822D01*
X45925Y-24468D02*
X46082Y-24468D01*
X46259Y-24468D02*
X46259Y-24527D01*
X46259Y-24527D02*
X46377Y-24527D01*
X46377Y-24468D02*
X46377Y-24527D01*
X46259Y-24468D02*
X46377Y-24468D01*
X46259Y-24763D02*
X46259Y-24822D01*
X46259Y-24822D02*
X46377Y-24822D01*
X46377Y-24763D02*
X46377Y-24822D01*
X46259Y-24763D02*
X46377Y-24763D01*
X46259Y-24586D02*
X46259Y-24704D01*
X46259Y-24704D02*
X46377Y-24704D01*
X46377Y-24586D02*
X46377Y-24704D01*
X46259Y-24586D02*
X46377Y-24586D01*
G54D15*
X46436Y-24488D02*
X46082Y-24488D01*
X46436Y-24802D02*
X46082Y-24802D01*
G54D13*
X40500Y-43750D02*
X40500Y-42850D01*
X40500Y-42850D02*
X41000Y-42850D01*
X41000Y-42850D02*
X41000Y-43750D01*
X41000Y-43750D02*
X40500Y-43750D01*
X50213Y-28458D02*
X49313Y-28458D01*
X49313Y-28458D02*
X49313Y-27958D01*
X49313Y-27958D02*
X50213Y-27958D01*
X50213Y-27958D02*
X50213Y-28458D01*
X38352Y-53914D02*
X38352Y-53014D01*
X38352Y-53014D02*
X38852Y-53014D01*
X38852Y-53014D02*
X38852Y-53914D01*
X38852Y-53914D02*
X38352Y-53914D01*
X45053Y-23349D02*
X45053Y-24249D01*
X45053Y-24249D02*
X44553Y-24249D01*
X44553Y-24249D02*
X44553Y-23349D01*
X44553Y-23349D02*
X45053Y-23349D01*
X35494Y-33175D02*
X36394Y-33175D01*
X36394Y-33175D02*
X36394Y-33675D01*
X36394Y-33675D02*
X35494Y-33675D01*
X35494Y-33675D02*
X35494Y-33175D01*
X49294Y-27407D02*
X50194Y-27407D01*
X50194Y-27407D02*
X50194Y-27907D01*
X50194Y-27907D02*
X49294Y-27907D01*
X49294Y-27907D02*
X49294Y-27407D01*
X46631Y-26155D02*
X45731Y-26155D01*
X45731Y-26155D02*
X45731Y-25655D01*
X45731Y-25655D02*
X46631Y-25655D01*
X46631Y-25655D02*
X46631Y-26155D01*
X35475Y-33962D02*
X36375Y-33962D01*
X36375Y-33962D02*
X36375Y-34462D01*
X36375Y-34462D02*
X35475Y-34462D01*
X35475Y-34462D02*
X35475Y-33962D01*
X46296Y-27690D02*
X45396Y-27690D01*
X45396Y-27690D02*
X45396Y-27190D01*
X45396Y-27190D02*
X46296Y-27190D01*
X46296Y-27190D02*
X46296Y-27690D01*
X37257Y-35061D02*
X37257Y-35961D01*
X37257Y-35961D02*
X36757Y-35961D01*
X36757Y-35961D02*
X36757Y-35061D01*
X36757Y-35061D02*
X37257Y-35061D01*
X39226Y-24687D02*
X39226Y-25587D01*
X39226Y-25587D02*
X38726Y-25587D01*
X38726Y-25587D02*
X38726Y-24687D01*
X38726Y-24687D02*
X39226Y-24687D01*
X46729Y-29265D02*
X45829Y-29265D01*
X45829Y-29265D02*
X45829Y-28765D01*
X45829Y-28765D02*
X46729Y-28765D01*
X46729Y-28765D02*
X46729Y-29265D01*
X45489Y-23281D02*
X44589Y-23281D01*
X44589Y-23281D02*
X44589Y-22781D01*
X44589Y-22781D02*
X45489Y-22781D01*
X45489Y-22781D02*
X45489Y-23281D01*
X46729Y-29856D02*
X45829Y-29856D01*
X45829Y-29856D02*
X45829Y-29356D01*
X45829Y-29356D02*
X46729Y-29356D01*
X46729Y-29356D02*
X46729Y-29856D01*
X39924Y-24080D02*
X40824Y-24080D01*
X40824Y-24080D02*
X40824Y-24580D01*
X40824Y-24580D02*
X39924Y-24580D01*
X39924Y-24580D02*
X39924Y-24080D01*
X48758Y-26721D02*
X47858Y-26721D01*
X47858Y-26721D02*
X47858Y-26221D01*
X47858Y-26221D02*
X48758Y-26221D01*
X48758Y-26221D02*
X48758Y-26721D01*
X35573Y-50832D02*
X36473Y-50832D01*
X36473Y-50832D02*
X36473Y-51332D01*
X36473Y-51332D02*
X35573Y-51332D01*
X35573Y-51332D02*
X35573Y-50832D01*
X39974Y-50160D02*
X39974Y-51060D01*
X39974Y-51060D02*
X39474Y-51060D01*
X39474Y-51060D02*
X39474Y-50160D01*
X39474Y-50160D02*
X39974Y-50160D01*
X42125Y-41800D02*
X42125Y-42700D01*
X42125Y-42700D02*
X41625Y-42700D01*
X41625Y-42700D02*
X41625Y-41800D01*
X41625Y-41800D02*
X42125Y-41800D01*
X36313Y-54420D02*
X36313Y-55320D01*
X36313Y-55320D02*
X35813Y-55320D01*
X35813Y-55320D02*
X35813Y-54420D01*
X35813Y-54420D02*
X36313Y-54420D01*
X40734Y-48914D02*
X40734Y-48014D01*
X40734Y-48014D02*
X41234Y-48014D01*
X41234Y-48014D02*
X41234Y-48914D01*
X41234Y-48914D02*
X40734Y-48914D01*
X41194Y-46794D02*
X41194Y-47694D01*
X41194Y-47694D02*
X40694Y-47694D01*
X40694Y-47694D02*
X40694Y-46794D01*
X40694Y-46794D02*
X41194Y-46794D01*
X44533Y-28658D02*
X44533Y-27758D01*
X44533Y-27758D02*
X45033Y-27758D01*
X45033Y-27758D02*
X45033Y-28658D01*
X45033Y-28658D02*
X44533Y-28658D01*
X44423Y-22640D02*
X44423Y-23540D01*
X44423Y-23540D02*
X43923Y-23540D01*
X43923Y-23540D02*
X43923Y-22640D01*
X43923Y-22640D02*
X44423Y-22640D01*
X39904Y-23391D02*
X40804Y-23391D01*
X40804Y-23391D02*
X40804Y-23891D01*
X40804Y-23891D02*
X39904Y-23891D01*
X39904Y-23891D02*
X39904Y-23391D01*
X46296Y-27120D02*
X45396Y-27120D01*
X45396Y-27120D02*
X45396Y-26620D01*
X45396Y-26620D02*
X46296Y-26620D01*
X46296Y-26620D02*
X46296Y-27120D01*
X45045Y-45213D02*
X45045Y-44313D01*
X45045Y-44313D02*
X45545Y-44313D01*
X45545Y-44313D02*
X45545Y-45213D01*
X45545Y-45213D02*
X45045Y-45213D01*
X45045Y-46473D02*
X45045Y-45573D01*
X45045Y-45573D02*
X45545Y-45573D01*
X45545Y-45573D02*
X45545Y-46473D01*
X45545Y-46473D02*
X45045Y-46473D01*
X45545Y-42955D02*
X45545Y-43855D01*
X45545Y-43855D02*
X45045Y-43855D01*
X45045Y-43855D02*
X45045Y-42955D01*
X45045Y-42955D02*
X45545Y-42955D01*
X45505Y-47030D02*
X45505Y-47930D01*
X45505Y-47930D02*
X45005Y-47930D01*
X45005Y-47930D02*
X45005Y-47030D01*
X45005Y-47030D02*
X45505Y-47030D01*
X43832Y-22640D02*
X43832Y-23540D01*
X43832Y-23540D02*
X43332Y-23540D01*
X43332Y-23540D02*
X43332Y-22640D01*
X43332Y-22640D02*
X43832Y-22640D01*
X47753Y-26726D02*
X46853Y-26726D01*
X46853Y-26726D02*
X46853Y-26226D01*
X46853Y-26226D02*
X47753Y-26226D01*
X47753Y-26226D02*
X47753Y-26726D01*
X40550Y-46300D02*
X40550Y-45400D01*
X40550Y-45400D02*
X41050Y-45400D01*
X41050Y-45400D02*
X41050Y-46300D01*
X41050Y-46300D02*
X40550Y-46300D01*
X47876Y-26954D02*
X48776Y-26954D01*
X48776Y-26954D02*
X48776Y-27454D01*
X48776Y-27454D02*
X47876Y-27454D01*
X47876Y-27454D02*
X47876Y-26954D01*
X32128Y-22683D02*
X33028Y-22683D01*
X33028Y-22683D02*
X33028Y-23183D01*
X33028Y-23183D02*
X32128Y-23183D01*
X32128Y-23183D02*
X32128Y-22683D01*
X46650Y-24364D02*
X45750Y-24364D01*
X45750Y-24364D02*
X45750Y-23864D01*
X45750Y-23864D02*
X46650Y-23864D01*
X46650Y-23864D02*
X46650Y-24364D01*
X32150Y-21850D02*
X33050Y-21850D01*
X33050Y-21850D02*
X33050Y-22350D01*
X33050Y-22350D02*
X32150Y-22350D01*
X32150Y-22350D02*
X32150Y-21850D01*
X49294Y-26187D02*
X50194Y-26187D01*
X50194Y-26187D02*
X50194Y-26687D01*
X50194Y-26687D02*
X49294Y-26687D01*
X49294Y-26687D02*
X49294Y-26187D01*
X50514Y-27978D02*
X51414Y-27978D01*
X51414Y-27978D02*
X51414Y-28478D01*
X51414Y-28478D02*
X50514Y-28478D01*
X50514Y-28478D02*
X50514Y-27978D01*
X49274Y-26777D02*
X50174Y-26777D01*
X50174Y-26777D02*
X50174Y-27277D01*
X50174Y-27277D02*
X49274Y-27277D01*
X49274Y-27277D02*
X49274Y-26777D01*
X51663Y-36650D02*
X52299Y-37286D01*
X52299Y-37286D02*
X51946Y-37639D01*
X51946Y-37639D02*
X51310Y-37003D01*
X51310Y-37003D02*
X51663Y-36650D01*
X36951Y-37033D02*
X37851Y-37033D01*
X37851Y-37033D02*
X37851Y-37533D01*
X37851Y-37533D02*
X36951Y-37533D01*
X36951Y-37533D02*
X36951Y-37033D01*
X38112Y-36895D02*
X39012Y-36895D01*
X39012Y-36895D02*
X39012Y-37395D01*
X39012Y-37395D02*
X38112Y-37395D01*
X38112Y-37395D02*
X38112Y-36895D01*
X48100Y-30300D02*
X47200Y-30300D01*
X47200Y-30300D02*
X47200Y-29800D01*
X47200Y-29800D02*
X48100Y-29800D01*
X48100Y-29800D02*
X48100Y-30300D01*
X45525Y-29766D02*
X45525Y-30666D01*
X45525Y-30666D02*
X45025Y-30666D01*
X45025Y-30666D02*
X45025Y-29766D01*
X45025Y-29766D02*
X45525Y-29766D01*
X46150Y-30950D02*
X46150Y-30050D01*
X46150Y-30050D02*
X46650Y-30050D01*
X46650Y-30050D02*
X46650Y-30950D01*
X46650Y-30950D02*
X46150Y-30950D01*
X50150Y-33050D02*
X51050Y-33050D01*
X51050Y-33050D02*
X51050Y-33550D01*
X51050Y-33550D02*
X50150Y-33550D01*
X50150Y-33550D02*
X50150Y-33050D01*
X50140Y-31501D02*
X51040Y-31501D01*
X51040Y-31501D02*
X51040Y-32001D01*
X51040Y-32001D02*
X50140Y-32001D01*
X50140Y-32001D02*
X50140Y-31501D01*
X52556Y-32494D02*
X51656Y-32494D01*
X51656Y-32494D02*
X51656Y-31994D01*
X51656Y-31994D02*
X52556Y-31994D01*
X52556Y-31994D02*
X52556Y-32494D01*
X52556Y-33045D02*
X51656Y-33045D01*
X51656Y-33045D02*
X51656Y-32545D01*
X51656Y-32545D02*
X52556Y-32545D01*
X52556Y-32545D02*
X52556Y-33045D01*
X51400Y-33116D02*
X52300Y-33116D01*
X52300Y-33116D02*
X52300Y-33616D01*
X52300Y-33616D02*
X51400Y-33616D01*
X51400Y-33616D02*
X51400Y-33116D01*
X48100Y-31000D02*
X47200Y-31000D01*
X47200Y-31000D02*
X47200Y-30500D01*
X47200Y-30500D02*
X48100Y-30500D01*
X48100Y-30500D02*
X48100Y-31000D01*
X49553Y-32930D02*
X49553Y-32030D01*
X49553Y-32030D02*
X50053Y-32030D01*
X50053Y-32030D02*
X50053Y-32930D01*
X50053Y-32930D02*
X49553Y-32930D01*
X48600Y-31800D02*
X48600Y-30900D01*
X48600Y-30900D02*
X49100Y-30900D01*
X49100Y-30900D02*
X49100Y-31800D01*
X49100Y-31800D02*
X48600Y-31800D01*
X48600Y-30650D02*
X48600Y-29750D01*
X48600Y-29750D02*
X49100Y-29750D01*
X49100Y-29750D02*
X49100Y-30650D01*
X49100Y-30650D02*
X48600Y-30650D01*
X49474Y-31906D02*
X49474Y-31006D01*
X49474Y-31006D02*
X49974Y-31006D01*
X49974Y-31006D02*
X49974Y-31906D01*
X49974Y-31906D02*
X49474Y-31906D01*
X50140Y-32309D02*
X51040Y-32309D01*
X51040Y-32309D02*
X51040Y-32809D01*
X51040Y-32809D02*
X50140Y-32809D01*
X50140Y-32809D02*
X50140Y-32309D01*
X47210Y-23737D02*
X47210Y-22837D01*
X47210Y-22837D02*
X47710Y-22837D01*
X47710Y-22837D02*
X47710Y-23737D01*
X47710Y-23737D02*
X47210Y-23737D01*
X46164Y-22820D02*
X47064Y-22820D01*
X47064Y-22820D02*
X47064Y-23320D01*
X47064Y-23320D02*
X46164Y-23320D01*
X46164Y-23320D02*
X46164Y-22820D01*
X36853Y-36167D02*
X37753Y-36167D01*
X37753Y-36167D02*
X37753Y-36667D01*
X37753Y-36667D02*
X36853Y-36667D01*
X36853Y-36667D02*
X36853Y-36167D01*
X41509Y-23467D02*
X41509Y-24367D01*
X41509Y-24367D02*
X41009Y-24367D01*
X41009Y-24367D02*
X41009Y-23467D01*
X41009Y-23467D02*
X41509Y-23467D01*
X41434Y-25486D02*
X40534Y-25486D01*
X40534Y-25486D02*
X40534Y-24986D01*
X40534Y-24986D02*
X41434Y-24986D01*
X41434Y-24986D02*
X41434Y-25486D01*
X38635Y-25612D02*
X38635Y-26512D01*
X38635Y-26512D02*
X38135Y-26512D01*
X38135Y-26512D02*
X38135Y-25612D01*
X38135Y-25612D02*
X38635Y-25612D01*
X39875Y-24687D02*
X39875Y-25587D01*
X39875Y-25587D02*
X39375Y-25587D01*
X39375Y-25587D02*
X39375Y-24687D01*
X39375Y-24687D02*
X39875Y-24687D01*
X41923Y-27876D02*
X41923Y-28776D01*
X41923Y-28776D02*
X41423Y-28776D01*
X41423Y-28776D02*
X41423Y-27876D01*
X41423Y-27876D02*
X41923Y-27876D01*
X44564Y-29816D02*
X43664Y-29816D01*
X43664Y-29816D02*
X43664Y-29316D01*
X43664Y-29316D02*
X44564Y-29316D01*
X44564Y-29316D02*
X44564Y-29816D01*
X43903Y-28658D02*
X43903Y-27758D01*
X43903Y-27758D02*
X44403Y-27758D01*
X44403Y-27758D02*
X44403Y-28658D01*
X44403Y-28658D02*
X43903Y-28658D01*
X46853Y-27525D02*
X47753Y-27525D01*
X47753Y-27525D02*
X47753Y-28025D01*
X47753Y-28025D02*
X46853Y-28025D01*
X46853Y-28025D02*
X46853Y-27525D01*
X38214Y-27615D02*
X38214Y-26715D01*
X38214Y-26715D02*
X38714Y-26715D01*
X38714Y-26715D02*
X38714Y-27615D01*
X38714Y-27615D02*
X38214Y-27615D01*
X35005Y-38028D02*
X35005Y-37128D01*
X35005Y-37128D02*
X35505Y-37128D01*
X35505Y-37128D02*
X35505Y-38028D01*
X35505Y-38028D02*
X35005Y-38028D01*
X39462Y-26695D02*
X39462Y-27595D01*
X39462Y-27595D02*
X38962Y-27595D01*
X38962Y-27595D02*
X38962Y-26695D01*
X38962Y-26695D02*
X39462Y-26695D01*
X38913Y-53920D02*
X38913Y-53020D01*
X38913Y-53020D02*
X39413Y-53020D01*
X39413Y-53020D02*
X39413Y-53920D01*
X39413Y-53920D02*
X38913Y-53920D01*
X36663Y-55320D02*
X36663Y-54420D01*
X36663Y-54420D02*
X37163Y-54420D01*
X37163Y-54420D02*
X37163Y-55320D01*
X37163Y-55320D02*
X36663Y-55320D01*
X38923Y-55390D02*
X38923Y-54490D01*
X38923Y-54490D02*
X39423Y-54490D01*
X39423Y-54490D02*
X39423Y-55390D01*
X39423Y-55390D02*
X38923Y-55390D01*
X49356Y-30863D02*
X49356Y-29963D01*
X49356Y-29963D02*
X49856Y-29963D01*
X49856Y-29963D02*
X49856Y-30863D01*
X49856Y-30863D02*
X49356Y-30863D01*
X37801Y-51060D02*
X37801Y-50160D01*
X37801Y-50160D02*
X38301Y-50160D01*
X38301Y-50160D02*
X38301Y-51060D01*
X38301Y-51060D02*
X37801Y-51060D01*
X38372Y-51060D02*
X38372Y-50160D01*
X38372Y-50160D02*
X38872Y-50160D01*
X38872Y-50160D02*
X38872Y-51060D01*
X38872Y-51060D02*
X38372Y-51060D01*
X36223Y-50025D02*
X37123Y-50025D01*
X37123Y-50025D02*
X37123Y-50525D01*
X37123Y-50525D02*
X36223Y-50525D01*
X36223Y-50525D02*
X36223Y-50025D01*
X41214Y-28093D02*
X41214Y-28993D01*
X41214Y-28993D02*
X40714Y-28993D01*
X40714Y-28993D02*
X40714Y-28093D01*
X40714Y-28093D02*
X41214Y-28093D01*
X35398Y-48356D02*
X36098Y-48356D01*
X36098Y-48356D02*
X36098Y-49556D01*
X36098Y-49556D02*
X35398Y-49556D01*
X35398Y-49556D02*
X35398Y-48356D01*
X37751Y-54162D02*
X37051Y-54162D01*
X37051Y-54162D02*
X37051Y-52962D01*
X37051Y-52962D02*
X37751Y-52962D01*
X37751Y-52962D02*
X37751Y-54162D01*
G54D11*
X34498Y-46623D02*
X34833Y-46623D01*
X34833Y-46623D02*
X34833Y-46505D01*
X34498Y-46505D02*
X34833Y-46505D01*
X34498Y-46623D02*
X34498Y-46505D01*
X34695Y-46623D02*
X35030Y-46623D01*
X35030Y-46623D02*
X35030Y-46505D01*
X34695Y-46505D02*
X35030Y-46505D01*
X34695Y-46623D02*
X34695Y-46505D01*
X34892Y-46623D02*
X35227Y-46623D01*
X35227Y-46623D02*
X35227Y-46505D01*
X34892Y-46505D02*
X35227Y-46505D01*
X34892Y-46623D02*
X34892Y-46505D01*
X35089Y-46623D02*
X35424Y-46623D01*
X35424Y-46623D02*
X35424Y-46505D01*
X35089Y-46505D02*
X35424Y-46505D01*
X35089Y-46623D02*
X35089Y-46505D01*
X35286Y-46623D02*
X35620Y-46623D01*
X35620Y-46623D02*
X35620Y-46505D01*
X35286Y-46505D02*
X35620Y-46505D01*
X35286Y-46623D02*
X35286Y-46505D01*
X35483Y-46623D02*
X35817Y-46623D01*
X35817Y-46623D02*
X35817Y-46505D01*
X35483Y-46505D02*
X35817Y-46505D01*
X35483Y-46623D02*
X35483Y-46505D01*
X35679Y-46623D02*
X36014Y-46623D01*
X36014Y-46623D02*
X36014Y-46505D01*
X35679Y-46505D02*
X36014Y-46505D01*
X35679Y-46623D02*
X35679Y-46505D01*
X35876Y-46623D02*
X36211Y-46623D01*
X36211Y-46623D02*
X36211Y-46505D01*
X35876Y-46505D02*
X36211Y-46505D01*
X35876Y-46623D02*
X35876Y-46505D01*
X36073Y-46623D02*
X36408Y-46623D01*
X36408Y-46623D02*
X36408Y-46505D01*
X36073Y-46505D02*
X36408Y-46505D01*
X36073Y-46623D02*
X36073Y-46505D01*
X36270Y-46623D02*
X36605Y-46623D01*
X36605Y-46623D02*
X36605Y-46505D01*
X36270Y-46505D02*
X36605Y-46505D01*
X36270Y-46623D02*
X36270Y-46505D01*
X36467Y-46623D02*
X36802Y-46623D01*
X36802Y-46623D02*
X36802Y-46505D01*
X36467Y-46505D02*
X36802Y-46505D01*
X36467Y-46623D02*
X36467Y-46505D01*
X36664Y-46623D02*
X36997Y-46623D01*
X36997Y-46623D02*
X36997Y-46505D01*
X36664Y-46505D02*
X36997Y-46505D01*
X36664Y-46623D02*
X36664Y-46505D01*
X36861Y-46623D02*
X37194Y-46623D01*
X37194Y-46623D02*
X37194Y-46505D01*
X36861Y-46505D02*
X37194Y-46505D01*
X36861Y-46623D02*
X36861Y-46505D01*
X37056Y-46623D02*
X37391Y-46623D01*
X37391Y-46623D02*
X37391Y-46505D01*
X37056Y-46505D02*
X37391Y-46505D01*
X37056Y-46623D02*
X37056Y-46505D01*
X37253Y-46623D02*
X37588Y-46623D01*
X37588Y-46623D02*
X37588Y-46505D01*
X37253Y-46505D02*
X37588Y-46505D01*
X37253Y-46623D02*
X37253Y-46505D01*
X37450Y-46623D02*
X37785Y-46623D01*
X37785Y-46623D02*
X37785Y-46505D01*
X37450Y-46505D02*
X37785Y-46505D01*
X37450Y-46623D02*
X37450Y-46505D01*
X37647Y-46623D02*
X37982Y-46623D01*
X37982Y-46623D02*
X37982Y-46505D01*
X37647Y-46505D02*
X37982Y-46505D01*
X37647Y-46623D02*
X37647Y-46505D01*
X37844Y-46623D02*
X38179Y-46623D01*
X38179Y-46623D02*
X38179Y-46505D01*
X37844Y-46505D02*
X38179Y-46505D01*
X37844Y-46623D02*
X37844Y-46505D01*
X38041Y-46623D02*
X38375Y-46623D01*
X38375Y-46623D02*
X38375Y-46505D01*
X38041Y-46505D02*
X38375Y-46505D01*
X38041Y-46623D02*
X38041Y-46505D01*
X38238Y-46623D02*
X38572Y-46623D01*
X38572Y-46623D02*
X38572Y-46505D01*
X38238Y-46505D02*
X38572Y-46505D01*
X38238Y-46623D02*
X38238Y-46505D01*
X38434Y-46623D02*
X38769Y-46623D01*
X38769Y-46623D02*
X38769Y-46505D01*
X38434Y-46505D02*
X38769Y-46505D01*
X38434Y-46623D02*
X38434Y-46505D01*
X38631Y-46623D02*
X38966Y-46623D01*
X38966Y-46623D02*
X38966Y-46505D01*
X38631Y-46505D02*
X38966Y-46505D01*
X38631Y-46623D02*
X38631Y-46505D01*
X38828Y-46623D02*
X39163Y-46623D01*
X39163Y-46623D02*
X39163Y-46505D01*
X38828Y-46505D02*
X39163Y-46505D01*
X38828Y-46623D02*
X38828Y-46505D01*
X39025Y-46623D02*
X39360Y-46623D01*
X39360Y-46623D02*
X39360Y-46505D01*
X39025Y-46505D02*
X39360Y-46505D01*
X39025Y-46623D02*
X39025Y-46505D01*
X39025Y-39005D02*
X39360Y-39005D01*
X39360Y-39005D02*
X39360Y-38887D01*
X39025Y-38887D02*
X39360Y-38887D01*
X39025Y-39005D02*
X39025Y-38887D01*
X38828Y-39005D02*
X39163Y-39005D01*
X39163Y-39005D02*
X39163Y-38887D01*
X38828Y-38887D02*
X39163Y-38887D01*
X38828Y-39005D02*
X38828Y-38887D01*
X38631Y-39005D02*
X38966Y-39005D01*
X38966Y-39005D02*
X38966Y-38887D01*
X38631Y-38887D02*
X38966Y-38887D01*
X38631Y-39005D02*
X38631Y-38887D01*
X38434Y-39005D02*
X38769Y-39005D01*
X38769Y-39005D02*
X38769Y-38887D01*
X38434Y-38887D02*
X38769Y-38887D01*
X38434Y-39005D02*
X38434Y-38887D01*
X38238Y-39005D02*
X38572Y-39005D01*
X38572Y-39005D02*
X38572Y-38887D01*
X38238Y-38887D02*
X38572Y-38887D01*
X38238Y-39005D02*
X38238Y-38887D01*
X38041Y-39005D02*
X38375Y-39005D01*
X38375Y-39005D02*
X38375Y-38887D01*
X38041Y-38887D02*
X38375Y-38887D01*
X38041Y-39005D02*
X38041Y-38887D01*
X37844Y-39005D02*
X38179Y-39005D01*
X38179Y-39005D02*
X38179Y-38887D01*
X37844Y-38887D02*
X38179Y-38887D01*
X37844Y-39005D02*
X37844Y-38887D01*
X37647Y-39005D02*
X37982Y-39005D01*
X37982Y-39005D02*
X37982Y-38887D01*
X37647Y-38887D02*
X37982Y-38887D01*
X37647Y-39005D02*
X37647Y-38887D01*
X37450Y-39005D02*
X37785Y-39005D01*
X37785Y-39005D02*
X37785Y-38887D01*
X37450Y-38887D02*
X37785Y-38887D01*
X37450Y-39005D02*
X37450Y-38887D01*
X37253Y-39005D02*
X37588Y-39005D01*
X37588Y-39005D02*
X37588Y-38887D01*
X37253Y-38887D02*
X37588Y-38887D01*
X37253Y-39005D02*
X37253Y-38887D01*
X37056Y-39005D02*
X37391Y-39005D01*
X37391Y-39005D02*
X37391Y-38887D01*
X37056Y-38887D02*
X37391Y-38887D01*
X37056Y-39005D02*
X37056Y-38887D01*
X36861Y-39005D02*
X37194Y-39005D01*
X37194Y-39005D02*
X37194Y-38887D01*
X36861Y-38887D02*
X37194Y-38887D01*
X36861Y-39005D02*
X36861Y-38887D01*
X36664Y-39005D02*
X36997Y-39005D01*
X36997Y-39005D02*
X36997Y-38887D01*
X36664Y-38887D02*
X36997Y-38887D01*
X36664Y-39005D02*
X36664Y-38887D01*
X36467Y-39005D02*
X36802Y-39005D01*
X36802Y-39005D02*
X36802Y-38887D01*
X36467Y-38887D02*
X36802Y-38887D01*
X36467Y-39005D02*
X36467Y-38887D01*
X36270Y-39005D02*
X36605Y-39005D01*
X36605Y-39005D02*
X36605Y-38887D01*
X36270Y-38887D02*
X36605Y-38887D01*
X36270Y-39005D02*
X36270Y-38887D01*
X36073Y-39005D02*
X36408Y-39005D01*
X36408Y-39005D02*
X36408Y-38887D01*
X36073Y-38887D02*
X36408Y-38887D01*
X36073Y-39005D02*
X36073Y-38887D01*
X35876Y-39005D02*
X36211Y-39005D01*
X36211Y-39005D02*
X36211Y-38887D01*
X35876Y-38887D02*
X36211Y-38887D01*
X35876Y-39005D02*
X35876Y-38887D01*
X35679Y-39005D02*
X36014Y-39005D01*
X36014Y-39005D02*
X36014Y-38887D01*
X35679Y-38887D02*
X36014Y-38887D01*
X35679Y-39005D02*
X35679Y-38887D01*
X35483Y-39005D02*
X35817Y-39005D01*
X35817Y-39005D02*
X35817Y-38887D01*
X35483Y-38887D02*
X35817Y-38887D01*
X35483Y-39005D02*
X35483Y-38887D01*
X35286Y-39005D02*
X35620Y-39005D01*
X35620Y-39005D02*
X35620Y-38887D01*
X35286Y-38887D02*
X35620Y-38887D01*
X35286Y-39005D02*
X35286Y-38887D01*
X35089Y-39005D02*
X35424Y-39005D01*
X35424Y-39005D02*
X35424Y-38887D01*
X35089Y-38887D02*
X35424Y-38887D01*
X35089Y-39005D02*
X35089Y-38887D01*
X34892Y-39005D02*
X35227Y-39005D01*
X35227Y-39005D02*
X35227Y-38887D01*
X34892Y-38887D02*
X35227Y-38887D01*
X34892Y-39005D02*
X34892Y-38887D01*
X34695Y-39005D02*
X35030Y-39005D01*
X35030Y-39005D02*
X35030Y-38887D01*
X34695Y-38887D02*
X35030Y-38887D01*
X34695Y-39005D02*
X34695Y-38887D01*
X34498Y-39005D02*
X34833Y-39005D01*
X34833Y-39005D02*
X34833Y-38887D01*
X34498Y-38887D02*
X34833Y-38887D01*
X34498Y-39005D02*
X34498Y-38887D01*
G54D16*
X39367Y-39135D02*
X39367Y-46375D01*
X39367Y-46375D02*
X34491Y-46375D01*
X34491Y-46375D02*
X34491Y-39135D01*
X34491Y-39135D02*
X39367Y-39135D01*
G54D17*
X35016Y-45880D02*
G75*
G03X35016Y-45880I-87J0D01*
G74*
G01*
G54D13*
X42235Y-24346D02*
X42135Y-24346D01*
X42135Y-24346D02*
X41885Y-24546D01*
X41885Y-24546D02*
X41885Y-24696D01*
X42235Y-24346D02*
X44885Y-24346D01*
X44885Y-24346D02*
X44885Y-27346D01*
X44885Y-27346D02*
X41885Y-27346D01*
X41885Y-27346D02*
X41885Y-24696D01*
X42200Y-24563D02*
G75*
G03X42200Y-24563I-125J0D01*
G74*
G01*
G54D18*
X42972Y-22854D02*
G75*
G03X42381Y-22263I-590J0D01*
G74*
G01*
X42381Y-23444D02*
G75*
G03X42972Y-22854I0J590D01*
G74*
G01*
X42145Y-22263D02*
G75*
G03X41555Y-22854I0J-590D01*
G74*
G01*
X41555Y-22854D02*
G75*
G03X42145Y-23444I590J0D01*
G74*
G01*
X42066Y-23444D02*
X42460Y-23444D01*
X42066Y-22263D02*
X42460Y-22263D01*
X40275Y-27125D02*
G75*
G03X40866Y-26535I0J590D01*
G74*
G01*
X39685Y-26535D02*
G75*
G03X40275Y-27125I590J0D01*
G74*
G01*
X40866Y-26299D02*
G75*
G03X40275Y-25708I-590J0D01*
G74*
G01*
X40275Y-25708D02*
G75*
G03X39685Y-26299I0J-590D01*
G74*
G01*
X39685Y-26220D02*
X39685Y-26614D01*
X40866Y-26220D02*
X40866Y-26614D01*
X43562Y-28484D02*
G75*
G03X42972Y-27893I-590J0D01*
G74*
G01*
X42972Y-29074D02*
G75*
G03X43562Y-28484I0J590D01*
G74*
G01*
X42736Y-27893D02*
G75*
G03X42145Y-28484I0J-590D01*
G74*
G01*
X42145Y-28484D02*
G75*
G03X42736Y-29074I590J0D01*
G74*
G01*
X42657Y-29074D02*
X43051Y-29074D01*
X42657Y-27893D02*
X43051Y-27893D01*
X35787Y-52755D02*
G75*
G03X35196Y-53346I0J-590D01*
G74*
G01*
X36377Y-53346D02*
G75*
G03X35787Y-52755I-590J0D01*
G74*
G01*
X35196Y-53582D02*
G75*
G03X35787Y-54173I590J0D01*
G74*
G01*
X35787Y-54173D02*
G75*
G03X36377Y-53582I0J590D01*
G74*
G01*
X36377Y-53661D02*
X36377Y-53267D01*
X35196Y-53661D02*
X35196Y-53267D01*
X37263Y-49586D02*
G75*
G03X37854Y-48996I0J590D01*
G74*
G01*
X36673Y-48996D02*
G75*
G03X37263Y-49586I590J0D01*
G74*
G01*
X37854Y-48759D02*
G75*
G03X37263Y-48169I-590J0D01*
G74*
G01*
X37263Y-48169D02*
G75*
G03X36673Y-48759I0J-590D01*
G74*
G01*
X36673Y-48681D02*
X36673Y-49074D01*
X37854Y-48681D02*
X37854Y-49074D01*
G54D13*
X48925Y-41200D02*
X48925Y-41400D01*
X48925Y-41400D02*
X49225Y-41400D01*
X49225Y-41400D02*
X49225Y-41200D01*
X48925Y-41000D02*
X48925Y-40800D01*
X48925Y-40800D02*
X49225Y-40800D01*
X49225Y-40800D02*
X49225Y-41000D01*
X49325Y-41200D02*
X49325Y-41400D01*
X49325Y-41400D02*
X49625Y-41400D01*
X49625Y-41400D02*
X49625Y-41200D01*
X49325Y-41000D02*
X49325Y-40800D01*
X49325Y-40800D02*
X49625Y-40800D01*
X49625Y-40800D02*
X49625Y-41000D01*
X43450Y-42600D02*
X43450Y-42800D01*
X43450Y-42800D02*
X43750Y-42800D01*
X43750Y-42800D02*
X43750Y-42600D01*
X43450Y-42400D02*
X43450Y-42200D01*
X43450Y-42200D02*
X43750Y-42200D01*
X43750Y-42200D02*
X43750Y-42400D01*
X43800Y-42600D02*
X43800Y-42800D01*
X43800Y-42800D02*
X44100Y-42800D01*
X44100Y-42800D02*
X44100Y-42600D01*
X43800Y-42400D02*
X43800Y-42200D01*
X43800Y-42200D02*
X44100Y-42200D01*
X44100Y-42200D02*
X44100Y-42400D01*
X46600Y-42100D02*
X46600Y-42300D01*
X46600Y-42300D02*
X46900Y-42300D01*
X46900Y-42300D02*
X46900Y-42100D01*
X46600Y-41900D02*
X46600Y-41700D01*
X46600Y-41700D02*
X46900Y-41700D01*
X46900Y-41700D02*
X46900Y-41900D01*
X43400Y-42400D02*
X43400Y-42200D01*
X43400Y-42200D02*
X43100Y-42200D01*
X43100Y-42200D02*
X43100Y-42400D01*
X43400Y-42600D02*
X43400Y-42800D01*
X43400Y-42800D02*
X43100Y-42800D01*
X43100Y-42800D02*
X43100Y-42600D01*
X46100Y-41900D02*
X46100Y-41700D01*
X46100Y-41700D02*
X45800Y-41700D01*
X45800Y-41700D02*
X45800Y-41900D01*
X46100Y-42100D02*
X46100Y-42300D01*
X46100Y-42300D02*
X45800Y-42300D01*
X45800Y-42300D02*
X45800Y-42100D01*
X46200Y-42100D02*
X46200Y-42300D01*
X46200Y-42300D02*
X46500Y-42300D01*
X46500Y-42300D02*
X46500Y-42100D01*
X46200Y-41900D02*
X46200Y-41700D01*
X46200Y-41700D02*
X46500Y-41700D01*
X46500Y-41700D02*
X46500Y-41900D01*
X49554Y-46064D02*
X49554Y-46264D01*
X49554Y-46264D02*
X49854Y-46264D01*
X49854Y-46264D02*
X49854Y-46064D01*
X49554Y-45864D02*
X49554Y-45664D01*
X49554Y-45664D02*
X49854Y-45664D01*
X49854Y-45664D02*
X49854Y-45864D01*
X45910Y-41123D02*
X45768Y-40981D01*
X45768Y-40981D02*
X45556Y-41193D01*
X45556Y-41193D02*
X45698Y-41335D01*
X46051Y-41264D02*
X46193Y-41406D01*
X46193Y-41406D02*
X45981Y-41618D01*
X45981Y-41618D02*
X45839Y-41476D01*
X48325Y-40750D02*
X48325Y-40550D01*
X48325Y-40550D02*
X48025Y-40550D01*
X48025Y-40550D02*
X48025Y-40750D01*
X48325Y-40950D02*
X48325Y-41150D01*
X48325Y-41150D02*
X48025Y-41150D01*
X48025Y-41150D02*
X48025Y-40950D01*
X52800Y-34350D02*
X53000Y-34350D01*
X53000Y-34350D02*
X53000Y-34050D01*
X53000Y-34050D02*
X52800Y-34050D01*
X52600Y-34350D02*
X52400Y-34350D01*
X52400Y-34350D02*
X52400Y-34050D01*
X52400Y-34050D02*
X52600Y-34050D01*
X39348Y-34889D02*
X39148Y-34889D01*
X39148Y-34889D02*
X39148Y-35189D01*
X39148Y-35189D02*
X39348Y-35189D01*
X39548Y-34889D02*
X39748Y-34889D01*
X39748Y-34889D02*
X39748Y-35189D01*
X39748Y-35189D02*
X39548Y-35189D01*
X46764Y-41476D02*
X46906Y-41618D01*
X46906Y-41618D02*
X47118Y-41406D01*
X47118Y-41406D02*
X46976Y-41264D01*
X46623Y-41335D02*
X46481Y-41193D01*
X46481Y-41193D02*
X46693Y-40981D01*
X46693Y-40981D02*
X46835Y-41123D01*
X50040Y-34874D02*
X50240Y-34874D01*
X50240Y-34874D02*
X50240Y-34574D01*
X50240Y-34574D02*
X50040Y-34574D01*
X49840Y-34874D02*
X49640Y-34874D01*
X49640Y-34874D02*
X49640Y-34574D01*
X49640Y-34574D02*
X49840Y-34574D01*
X39706Y-37000D02*
X39906Y-37000D01*
X39906Y-37000D02*
X39906Y-36700D01*
X39906Y-36700D02*
X39706Y-36700D01*
X39506Y-37000D02*
X39306Y-37000D01*
X39306Y-37000D02*
X39306Y-36700D01*
X39306Y-36700D02*
X39506Y-36700D01*
X39374Y-33641D02*
X39515Y-33782D01*
X39515Y-33782D02*
X39727Y-33570D01*
X39727Y-33570D02*
X39586Y-33429D01*
X39232Y-33499D02*
X39091Y-33358D01*
X39091Y-33358D02*
X39303Y-33146D01*
X39303Y-33146D02*
X39444Y-33287D01*
X37664Y-35690D02*
X37664Y-35890D01*
X37664Y-35890D02*
X37964Y-35890D01*
X37964Y-35890D02*
X37964Y-35690D01*
X37664Y-35490D02*
X37664Y-35290D01*
X37664Y-35290D02*
X37964Y-35290D01*
X37964Y-35290D02*
X37964Y-35490D01*
X50040Y-34185D02*
X50240Y-34185D01*
X50240Y-34185D02*
X50240Y-33885D01*
X50240Y-33885D02*
X50040Y-33885D01*
X49840Y-34185D02*
X49640Y-34185D01*
X49640Y-34185D02*
X49640Y-33885D01*
X49640Y-33885D02*
X49840Y-33885D01*
X50040Y-34539D02*
X50240Y-34539D01*
X50240Y-34539D02*
X50240Y-34239D01*
X50240Y-34239D02*
X50040Y-34239D01*
X49840Y-34539D02*
X49640Y-34539D01*
X49640Y-34539D02*
X49640Y-34239D01*
X49640Y-34239D02*
X49840Y-34239D01*
X50690Y-33988D02*
X50890Y-33988D01*
X50890Y-33988D02*
X50890Y-33688D01*
X50890Y-33688D02*
X50690Y-33688D01*
X50490Y-33988D02*
X50290Y-33988D01*
X50290Y-33988D02*
X50290Y-33688D01*
X50290Y-33688D02*
X50490Y-33688D01*
X39525Y-37050D02*
X39325Y-37050D01*
X39325Y-37050D02*
X39325Y-37350D01*
X39325Y-37350D02*
X39525Y-37350D01*
X39725Y-37050D02*
X39925Y-37050D01*
X39925Y-37050D02*
X39925Y-37350D01*
X39925Y-37350D02*
X39725Y-37350D01*
X40650Y-40300D02*
X40650Y-40500D01*
X40650Y-40500D02*
X40950Y-40500D01*
X40950Y-40500D02*
X40950Y-40300D01*
X40650Y-40100D02*
X40650Y-39900D01*
X40650Y-39900D02*
X40950Y-39900D01*
X40950Y-39900D02*
X40950Y-40100D01*
X39900Y-40300D02*
X39900Y-40500D01*
X39900Y-40500D02*
X40200Y-40500D01*
X40200Y-40500D02*
X40200Y-40300D01*
X39900Y-40100D02*
X39900Y-39900D01*
X39900Y-39900D02*
X40200Y-39900D01*
X40200Y-39900D02*
X40200Y-40100D01*
X40050Y-41000D02*
X40050Y-41200D01*
X40050Y-41200D02*
X40350Y-41200D01*
X40350Y-41200D02*
X40350Y-41000D01*
X40050Y-40800D02*
X40050Y-40600D01*
X40050Y-40600D02*
X40350Y-40600D01*
X40350Y-40600D02*
X40350Y-40800D01*
X39486Y-35972D02*
X39286Y-35972D01*
X39286Y-35972D02*
X39286Y-36272D01*
X39286Y-36272D02*
X39486Y-36272D01*
X39686Y-35972D02*
X39886Y-35972D01*
X39886Y-35972D02*
X39886Y-36272D01*
X39886Y-36272D02*
X39686Y-36272D01*
X44875Y-40875D02*
X44875Y-40675D01*
X44875Y-40675D02*
X44575Y-40675D01*
X44575Y-40675D02*
X44575Y-40875D01*
X44875Y-41075D02*
X44875Y-41275D01*
X44875Y-41275D02*
X44575Y-41275D01*
X44575Y-41275D02*
X44575Y-41075D01*
X50460Y-38073D02*
X50318Y-37931D01*
X50318Y-37931D02*
X50106Y-38143D01*
X50106Y-38143D02*
X50248Y-38285D01*
X50601Y-38214D02*
X50743Y-38356D01*
X50743Y-38356D02*
X50531Y-38568D01*
X50531Y-38568D02*
X50389Y-38426D01*
X41626Y-40960D02*
X41768Y-40818D01*
X41768Y-40818D02*
X41556Y-40606D01*
X41556Y-40606D02*
X41414Y-40748D01*
X41485Y-41101D02*
X41343Y-41243D01*
X41343Y-41243D02*
X41131Y-41031D01*
X41131Y-41031D02*
X41273Y-40889D01*
X43750Y-40825D02*
X43750Y-40625D01*
X43750Y-40625D02*
X43450Y-40625D01*
X43450Y-40625D02*
X43450Y-40825D01*
X43750Y-41025D02*
X43750Y-41225D01*
X43750Y-41225D02*
X43450Y-41225D01*
X43450Y-41225D02*
X43450Y-41025D01*
X43075Y-41025D02*
X43075Y-41225D01*
X43075Y-41225D02*
X43375Y-41225D01*
X43375Y-41225D02*
X43375Y-41025D01*
X43075Y-40825D02*
X43075Y-40625D01*
X43075Y-40625D02*
X43375Y-40625D01*
X43375Y-40625D02*
X43375Y-40825D01*
G54D19*
X41357Y-48012D02*
X44311Y-48012D01*
X44311Y-48012D02*
X44311Y-43798D01*
X44311Y-43798D02*
X41357Y-43798D01*
X41357Y-43798D02*
X41357Y-48012D01*
X46082Y-48012D02*
X49036Y-48012D01*
X49036Y-48012D02*
X49036Y-43798D01*
X49036Y-43798D02*
X46082Y-43798D01*
X46082Y-43798D02*
X46082Y-48012D01*
G54D20*
X37207Y-47443D02*
X37147Y-47347D01*
X37104Y-47443D02*
X37104Y-47243D01*
X37172Y-47243D01*
X37189Y-47252D01*
X37198Y-47262D01*
X37207Y-47281D01*
X37207Y-47309D01*
X37198Y-47328D01*
X37189Y-47338D01*
X37172Y-47347D01*
X37104Y-47347D01*
X37369Y-47243D02*
X37284Y-47243D01*
X37275Y-47338D01*
X37284Y-47328D01*
X37301Y-47319D01*
X37344Y-47319D01*
X37361Y-47328D01*
X37369Y-47338D01*
X37378Y-47357D01*
X37378Y-47405D01*
X37369Y-47424D01*
X37361Y-47433D01*
X37344Y-47443D01*
X37301Y-47443D01*
X37284Y-47433D01*
X37275Y-47424D01*
X37532Y-47243D02*
X37498Y-47243D01*
X37481Y-47252D01*
X37472Y-47262D01*
X37455Y-47290D01*
X37447Y-47328D01*
X37447Y-47405D01*
X37455Y-47424D01*
X37464Y-47433D01*
X37481Y-47443D01*
X37515Y-47443D01*
X37532Y-47433D01*
X37541Y-47424D01*
X37549Y-47405D01*
X37549Y-47357D01*
X37541Y-47338D01*
X37532Y-47328D01*
X37515Y-47319D01*
X37481Y-47319D01*
X37464Y-47328D01*
X37455Y-47338D01*
X37447Y-47357D01*
X45435Y-23914D02*
X45340Y-23974D01*
X45435Y-24017D02*
X45235Y-24017D01*
X45235Y-23949D01*
X45244Y-23932D01*
X45254Y-23923D01*
X45273Y-23914D01*
X45301Y-23914D01*
X45320Y-23923D01*
X45330Y-23932D01*
X45340Y-23949D01*
X45340Y-24017D01*
X45235Y-23760D02*
X45235Y-23794D01*
X45244Y-23812D01*
X45254Y-23820D01*
X45282Y-23837D01*
X45320Y-23846D01*
X45397Y-23846D01*
X45416Y-23837D01*
X45425Y-23829D01*
X45435Y-23812D01*
X45435Y-23777D01*
X45425Y-23760D01*
X45416Y-23752D01*
X45397Y-23743D01*
X45349Y-23743D01*
X45330Y-23752D01*
X45320Y-23760D01*
X45311Y-23777D01*
X45311Y-23812D01*
X45320Y-23829D01*
X45330Y-23837D01*
X45349Y-23846D01*
X45254Y-23674D02*
X45244Y-23666D01*
X45235Y-23649D01*
X45235Y-23606D01*
X45244Y-23589D01*
X45254Y-23580D01*
X45273Y-23572D01*
X45292Y-23572D01*
X45320Y-23580D01*
X45435Y-23683D01*
X45435Y-23572D01*
X36420Y-36749D02*
X36429Y-36758D01*
X36439Y-36783D01*
X36439Y-36801D01*
X36429Y-36826D01*
X36410Y-36843D01*
X36391Y-36852D01*
X36353Y-36861D01*
X36324Y-36861D01*
X36286Y-36852D01*
X36267Y-36843D01*
X36248Y-36826D01*
X36239Y-36801D01*
X36239Y-36783D01*
X36248Y-36758D01*
X36258Y-36749D01*
X36439Y-36578D02*
X36439Y-36681D01*
X36439Y-36629D02*
X36239Y-36629D01*
X36267Y-36646D01*
X36286Y-36663D01*
X36296Y-36681D01*
X36239Y-36423D02*
X36239Y-36458D01*
X36248Y-36475D01*
X36258Y-36483D01*
X36286Y-36501D01*
X36324Y-36509D01*
X36401Y-36509D01*
X36420Y-36501D01*
X36429Y-36492D01*
X36439Y-36475D01*
X36439Y-36441D01*
X36429Y-36423D01*
X36420Y-36415D01*
X36401Y-36406D01*
X36353Y-36406D01*
X36334Y-36415D01*
X36324Y-36423D01*
X36315Y-36441D01*
X36315Y-36475D01*
X36324Y-36492D01*
X36334Y-36501D01*
X36353Y-36509D01*
X39235Y-50725D02*
X39244Y-50734D01*
X39254Y-50760D01*
X39254Y-50777D01*
X39244Y-50803D01*
X39225Y-50820D01*
X39206Y-50828D01*
X39168Y-50837D01*
X39139Y-50837D01*
X39101Y-50828D01*
X39082Y-50820D01*
X39063Y-50803D01*
X39054Y-50777D01*
X39054Y-50760D01*
X39063Y-50734D01*
X39073Y-50725D01*
X39254Y-50554D02*
X39254Y-50657D01*
X39254Y-50605D02*
X39054Y-50605D01*
X39082Y-50623D01*
X39101Y-50640D01*
X39111Y-50657D01*
X39054Y-50391D02*
X39054Y-50477D01*
X39149Y-50485D01*
X39139Y-50477D01*
X39130Y-50460D01*
X39130Y-50417D01*
X39139Y-50400D01*
X39149Y-50391D01*
X39168Y-50383D01*
X39216Y-50383D01*
X39235Y-50391D01*
X39244Y-50400D01*
X39254Y-50417D01*
X39254Y-50460D01*
X39244Y-50477D01*
X39235Y-50485D01*
X38388Y-47424D02*
X38379Y-47433D01*
X38353Y-47443D01*
X38336Y-47443D01*
X38311Y-47433D01*
X38293Y-47414D01*
X38285Y-47395D01*
X38276Y-47357D01*
X38276Y-47328D01*
X38285Y-47290D01*
X38293Y-47271D01*
X38311Y-47252D01*
X38336Y-47243D01*
X38353Y-47243D01*
X38379Y-47252D01*
X38388Y-47262D01*
X38559Y-47443D02*
X38456Y-47443D01*
X38508Y-47443D02*
X38508Y-47243D01*
X38491Y-47271D01*
X38473Y-47290D01*
X38456Y-47300D01*
X38713Y-47309D02*
X38713Y-47443D01*
X38671Y-47233D02*
X38628Y-47376D01*
X38739Y-47376D01*
G54D13*
X46112Y-24326D02*
X46112Y-24126D01*
X46159Y-24126D01*
X46188Y-24136D01*
X46207Y-24155D01*
X46216Y-24174D01*
X46226Y-24212D01*
X46226Y-24240D01*
X46216Y-24279D01*
X46207Y-24298D01*
X46188Y-24317D01*
X46159Y-24326D01*
X46112Y-24326D01*
X46416Y-24326D02*
X46302Y-24326D01*
X46359Y-24326D02*
X46359Y-24126D01*
X46340Y-24155D01*
X46321Y-24174D01*
X46302Y-24183D01*
G54D20*
X40830Y-43415D02*
X40735Y-43475D01*
X40830Y-43518D02*
X40630Y-43518D01*
X40630Y-43450D01*
X40640Y-43432D01*
X40650Y-43424D01*
X40669Y-43415D01*
X40697Y-43415D01*
X40716Y-43424D01*
X40726Y-43432D01*
X40735Y-43450D01*
X40735Y-43518D01*
X40697Y-43261D02*
X40830Y-43261D01*
X40621Y-43304D02*
X40764Y-43347D01*
X40764Y-43235D01*
X40830Y-43158D02*
X40830Y-43124D01*
X40821Y-43107D01*
X40811Y-43098D01*
X40783Y-43081D01*
X40745Y-43072D01*
X40669Y-43072D01*
X40650Y-43081D01*
X40640Y-43090D01*
X40630Y-43107D01*
X40630Y-43141D01*
X40640Y-43158D01*
X40650Y-43167D01*
X40669Y-43175D01*
X40716Y-43175D01*
X40735Y-43167D01*
X40745Y-43158D01*
X40754Y-43141D01*
X40754Y-43107D01*
X40745Y-43090D01*
X40735Y-43081D01*
X40716Y-43072D01*
X49733Y-28289D02*
X49673Y-28194D01*
X49630Y-28289D02*
X49630Y-28089D01*
X49699Y-28089D01*
X49716Y-28099D01*
X49725Y-28108D01*
X49733Y-28127D01*
X49733Y-28156D01*
X49725Y-28175D01*
X49716Y-28184D01*
X49699Y-28194D01*
X49630Y-28194D01*
X49888Y-28089D02*
X49853Y-28089D01*
X49836Y-28099D01*
X49828Y-28108D01*
X49810Y-28137D01*
X49802Y-28175D01*
X49802Y-28251D01*
X49810Y-28270D01*
X49819Y-28280D01*
X49836Y-28289D01*
X49870Y-28289D01*
X49888Y-28280D01*
X49896Y-28270D01*
X49905Y-28251D01*
X49905Y-28203D01*
X49896Y-28184D01*
X49888Y-28175D01*
X49870Y-28165D01*
X49836Y-28165D01*
X49819Y-28175D01*
X49810Y-28184D01*
X49802Y-28203D01*
X38683Y-53580D02*
X38588Y-53640D01*
X38683Y-53683D02*
X38483Y-53683D01*
X38483Y-53614D01*
X38492Y-53597D01*
X38502Y-53588D01*
X38521Y-53580D01*
X38549Y-53580D01*
X38569Y-53588D01*
X38578Y-53597D01*
X38588Y-53614D01*
X38588Y-53683D01*
X38483Y-53425D02*
X38483Y-53460D01*
X38492Y-53477D01*
X38502Y-53485D01*
X38530Y-53503D01*
X38569Y-53511D01*
X38645Y-53511D01*
X38664Y-53503D01*
X38673Y-53494D01*
X38683Y-53477D01*
X38683Y-53443D01*
X38673Y-53425D01*
X38664Y-53417D01*
X38645Y-53408D01*
X38597Y-53408D01*
X38578Y-53417D01*
X38569Y-53425D01*
X38559Y-53443D01*
X38559Y-53477D01*
X38569Y-53494D01*
X38578Y-53503D01*
X38597Y-53511D01*
X38483Y-53348D02*
X38483Y-53228D01*
X38683Y-53305D01*
X44884Y-23914D02*
X44788Y-23974D01*
X44884Y-24017D02*
X44684Y-24017D01*
X44684Y-23949D01*
X44693Y-23932D01*
X44703Y-23923D01*
X44722Y-23914D01*
X44750Y-23914D01*
X44769Y-23923D01*
X44779Y-23932D01*
X44788Y-23949D01*
X44788Y-24017D01*
X44684Y-23752D02*
X44684Y-23837D01*
X44779Y-23846D01*
X44769Y-23837D01*
X44760Y-23820D01*
X44760Y-23777D01*
X44769Y-23760D01*
X44779Y-23752D01*
X44798Y-23743D01*
X44846Y-23743D01*
X44865Y-23752D01*
X44874Y-23760D01*
X44884Y-23777D01*
X44884Y-23820D01*
X44874Y-23837D01*
X44865Y-23846D01*
X44684Y-23683D02*
X44684Y-23572D01*
X44760Y-23632D01*
X44760Y-23606D01*
X44769Y-23589D01*
X44779Y-23580D01*
X44798Y-23572D01*
X44846Y-23572D01*
X44865Y-23580D01*
X44874Y-23589D01*
X44884Y-23606D01*
X44884Y-23657D01*
X44874Y-23674D01*
X44865Y-23683D01*
X35914Y-33506D02*
X35854Y-33410D01*
X35812Y-33506D02*
X35812Y-33306D01*
X35880Y-33306D01*
X35897Y-33315D01*
X35906Y-33325D01*
X35914Y-33344D01*
X35914Y-33372D01*
X35906Y-33391D01*
X35897Y-33401D01*
X35880Y-33410D01*
X35812Y-33410D01*
X35974Y-33306D02*
X36086Y-33306D01*
X36026Y-33382D01*
X36052Y-33382D01*
X36069Y-33391D01*
X36077Y-33401D01*
X36086Y-33420D01*
X36086Y-33468D01*
X36077Y-33487D01*
X36069Y-33496D01*
X36052Y-33506D01*
X36000Y-33506D01*
X35983Y-33496D01*
X35974Y-33487D01*
X49714Y-27738D02*
X49654Y-27643D01*
X49611Y-27738D02*
X49611Y-27538D01*
X49679Y-27538D01*
X49696Y-27547D01*
X49705Y-27557D01*
X49714Y-27576D01*
X49714Y-27605D01*
X49705Y-27624D01*
X49696Y-27633D01*
X49679Y-27643D01*
X49611Y-27643D01*
X49876Y-27538D02*
X49791Y-27538D01*
X49782Y-27633D01*
X49791Y-27624D01*
X49808Y-27614D01*
X49851Y-27614D01*
X49868Y-27624D01*
X49876Y-27633D01*
X49885Y-27652D01*
X49885Y-27700D01*
X49876Y-27719D01*
X49868Y-27728D01*
X49851Y-27738D01*
X49808Y-27738D01*
X49791Y-27728D01*
X49782Y-27719D01*
X46065Y-25986D02*
X46005Y-25891D01*
X45962Y-25986D02*
X45962Y-25786D01*
X46031Y-25786D01*
X46048Y-25795D01*
X46056Y-25805D01*
X46065Y-25824D01*
X46065Y-25853D01*
X46056Y-25872D01*
X46048Y-25881D01*
X46031Y-25891D01*
X45962Y-25891D01*
X46228Y-25786D02*
X46142Y-25786D01*
X46133Y-25881D01*
X46142Y-25872D01*
X46159Y-25862D01*
X46202Y-25862D01*
X46219Y-25872D01*
X46228Y-25881D01*
X46236Y-25900D01*
X46236Y-25948D01*
X46228Y-25967D01*
X46219Y-25976D01*
X46202Y-25986D01*
X46159Y-25986D01*
X46142Y-25976D01*
X46133Y-25967D01*
X46399Y-25786D02*
X46313Y-25786D01*
X46305Y-25881D01*
X46313Y-25872D01*
X46331Y-25862D01*
X46373Y-25862D01*
X46391Y-25872D01*
X46399Y-25881D01*
X46408Y-25900D01*
X46408Y-25948D01*
X46399Y-25967D01*
X46391Y-25976D01*
X46373Y-25986D01*
X46331Y-25986D01*
X46313Y-25976D01*
X46305Y-25967D01*
X35895Y-34293D02*
X35835Y-34198D01*
X35792Y-34293D02*
X35792Y-34093D01*
X35860Y-34093D01*
X35878Y-34103D01*
X35886Y-34112D01*
X35895Y-34131D01*
X35895Y-34160D01*
X35886Y-34179D01*
X35878Y-34188D01*
X35860Y-34198D01*
X35792Y-34198D01*
X36066Y-34293D02*
X35963Y-34293D01*
X36015Y-34293D02*
X36015Y-34093D01*
X35998Y-34122D01*
X35980Y-34141D01*
X35963Y-34150D01*
X45730Y-27521D02*
X45670Y-27426D01*
X45627Y-27521D02*
X45627Y-27321D01*
X45696Y-27321D01*
X45713Y-27331D01*
X45722Y-27340D01*
X45730Y-27359D01*
X45730Y-27388D01*
X45722Y-27407D01*
X45713Y-27417D01*
X45696Y-27426D01*
X45627Y-27426D01*
X45893Y-27321D02*
X45807Y-27321D01*
X45799Y-27417D01*
X45807Y-27407D01*
X45825Y-27398D01*
X45867Y-27398D01*
X45885Y-27407D01*
X45893Y-27417D01*
X45902Y-27436D01*
X45902Y-27483D01*
X45893Y-27502D01*
X45885Y-27512D01*
X45867Y-27521D01*
X45825Y-27521D01*
X45807Y-27512D01*
X45799Y-27502D01*
X45962Y-27321D02*
X46082Y-27321D01*
X46005Y-27521D01*
X37088Y-35541D02*
X36993Y-35601D01*
X37088Y-35644D02*
X36888Y-35644D01*
X36888Y-35576D01*
X36898Y-35558D01*
X36907Y-35550D01*
X36926Y-35541D01*
X36955Y-35541D01*
X36974Y-35550D01*
X36984Y-35558D01*
X36993Y-35576D01*
X36993Y-35644D01*
X36955Y-35387D02*
X37088Y-35387D01*
X36879Y-35430D02*
X37022Y-35473D01*
X37022Y-35361D01*
X39057Y-25253D02*
X38962Y-25313D01*
X39057Y-25356D02*
X38857Y-25356D01*
X38857Y-25287D01*
X38866Y-25270D01*
X38876Y-25262D01*
X38895Y-25253D01*
X38923Y-25253D01*
X38943Y-25262D01*
X38952Y-25270D01*
X38962Y-25287D01*
X38962Y-25356D01*
X38857Y-25090D02*
X38857Y-25176D01*
X38952Y-25184D01*
X38943Y-25176D01*
X38933Y-25159D01*
X38933Y-25116D01*
X38943Y-25099D01*
X38952Y-25090D01*
X38971Y-25082D01*
X39019Y-25082D01*
X39038Y-25090D01*
X39047Y-25099D01*
X39057Y-25116D01*
X39057Y-25159D01*
X39047Y-25176D01*
X39038Y-25184D01*
X39057Y-24996D02*
X39057Y-24962D01*
X39047Y-24944D01*
X39038Y-24936D01*
X39009Y-24919D01*
X38971Y-24910D01*
X38895Y-24910D01*
X38876Y-24919D01*
X38866Y-24927D01*
X38857Y-24944D01*
X38857Y-24979D01*
X38866Y-24996D01*
X38876Y-25004D01*
X38895Y-25013D01*
X38943Y-25013D01*
X38962Y-25004D01*
X38971Y-24996D01*
X38981Y-24979D01*
X38981Y-24944D01*
X38971Y-24927D01*
X38962Y-24919D01*
X38943Y-24910D01*
X46163Y-29096D02*
X46103Y-29001D01*
X46060Y-29096D02*
X46060Y-28896D01*
X46129Y-28896D01*
X46146Y-28906D01*
X46155Y-28915D01*
X46163Y-28934D01*
X46163Y-28963D01*
X46155Y-28982D01*
X46146Y-28991D01*
X46129Y-29001D01*
X46060Y-29001D01*
X46318Y-28896D02*
X46283Y-28896D01*
X46266Y-28906D01*
X46258Y-28915D01*
X46240Y-28944D01*
X46232Y-28982D01*
X46232Y-29058D01*
X46240Y-29077D01*
X46249Y-29087D01*
X46266Y-29096D01*
X46300Y-29096D01*
X46318Y-29087D01*
X46326Y-29077D01*
X46335Y-29058D01*
X46335Y-29010D01*
X46326Y-28991D01*
X46318Y-28982D01*
X46300Y-28972D01*
X46266Y-28972D01*
X46249Y-28982D01*
X46240Y-28991D01*
X46232Y-29010D01*
X46446Y-28896D02*
X46463Y-28896D01*
X46480Y-28906D01*
X46489Y-28915D01*
X46498Y-28934D01*
X46506Y-28972D01*
X46506Y-29020D01*
X46498Y-29058D01*
X46489Y-29077D01*
X46480Y-29087D01*
X46463Y-29096D01*
X46446Y-29096D01*
X46429Y-29087D01*
X46420Y-29077D01*
X46412Y-29058D01*
X46403Y-29020D01*
X46403Y-28972D01*
X46412Y-28934D01*
X46420Y-28915D01*
X46429Y-28906D01*
X46446Y-28896D01*
X44923Y-23112D02*
X44863Y-23017D01*
X44820Y-23112D02*
X44820Y-22912D01*
X44889Y-22912D01*
X44906Y-22921D01*
X44915Y-22931D01*
X44923Y-22950D01*
X44923Y-22979D01*
X44915Y-22998D01*
X44906Y-23007D01*
X44889Y-23017D01*
X44820Y-23017D01*
X45077Y-22912D02*
X45043Y-22912D01*
X45026Y-22921D01*
X45017Y-22931D01*
X45000Y-22960D01*
X44992Y-22998D01*
X44992Y-23074D01*
X45000Y-23093D01*
X45009Y-23102D01*
X45026Y-23112D01*
X45060Y-23112D01*
X45077Y-23102D01*
X45086Y-23093D01*
X45095Y-23074D01*
X45095Y-23026D01*
X45086Y-23007D01*
X45077Y-22998D01*
X45060Y-22988D01*
X45026Y-22988D01*
X45009Y-22998D01*
X45000Y-23007D01*
X44992Y-23026D01*
X45257Y-22912D02*
X45172Y-22912D01*
X45163Y-23007D01*
X45172Y-22998D01*
X45189Y-22988D01*
X45232Y-22988D01*
X45249Y-22998D01*
X45257Y-23007D01*
X45266Y-23026D01*
X45266Y-23074D01*
X45257Y-23093D01*
X45249Y-23102D01*
X45232Y-23112D01*
X45189Y-23112D01*
X45172Y-23102D01*
X45163Y-23093D01*
X46163Y-29687D02*
X46103Y-29592D01*
X46060Y-29687D02*
X46060Y-29487D01*
X46129Y-29487D01*
X46146Y-29496D01*
X46155Y-29506D01*
X46163Y-29525D01*
X46163Y-29553D01*
X46155Y-29572D01*
X46146Y-29582D01*
X46129Y-29592D01*
X46060Y-29592D01*
X46318Y-29487D02*
X46283Y-29487D01*
X46266Y-29496D01*
X46258Y-29506D01*
X46240Y-29534D01*
X46232Y-29572D01*
X46232Y-29649D01*
X46240Y-29668D01*
X46249Y-29677D01*
X46266Y-29687D01*
X46300Y-29687D01*
X46318Y-29677D01*
X46326Y-29668D01*
X46335Y-29649D01*
X46335Y-29601D01*
X46326Y-29582D01*
X46318Y-29572D01*
X46300Y-29563D01*
X46266Y-29563D01*
X46249Y-29572D01*
X46240Y-29582D01*
X46232Y-29601D01*
X46506Y-29687D02*
X46403Y-29687D01*
X46455Y-29687D02*
X46455Y-29487D01*
X46438Y-29515D01*
X46420Y-29534D01*
X46403Y-29544D01*
X40258Y-24411D02*
X40198Y-24316D01*
X40155Y-24411D02*
X40155Y-24211D01*
X40224Y-24211D01*
X40241Y-24221D01*
X40249Y-24230D01*
X40258Y-24249D01*
X40258Y-24278D01*
X40249Y-24297D01*
X40241Y-24306D01*
X40224Y-24316D01*
X40155Y-24316D01*
X40421Y-24211D02*
X40335Y-24211D01*
X40326Y-24306D01*
X40335Y-24297D01*
X40352Y-24287D01*
X40395Y-24287D01*
X40412Y-24297D01*
X40421Y-24306D01*
X40429Y-24325D01*
X40429Y-24373D01*
X40421Y-24392D01*
X40412Y-24402D01*
X40395Y-24411D01*
X40352Y-24411D01*
X40335Y-24402D01*
X40326Y-24392D01*
X40532Y-24297D02*
X40515Y-24287D01*
X40506Y-24278D01*
X40498Y-24259D01*
X40498Y-24249D01*
X40506Y-24230D01*
X40515Y-24221D01*
X40532Y-24211D01*
X40566Y-24211D01*
X40584Y-24221D01*
X40592Y-24230D01*
X40601Y-24249D01*
X40601Y-24259D01*
X40592Y-24278D01*
X40584Y-24287D01*
X40566Y-24297D01*
X40532Y-24297D01*
X40515Y-24306D01*
X40506Y-24316D01*
X40498Y-24335D01*
X40498Y-24373D01*
X40506Y-24392D01*
X40515Y-24402D01*
X40532Y-24411D01*
X40566Y-24411D01*
X40584Y-24402D01*
X40592Y-24392D01*
X40601Y-24373D01*
X40601Y-24335D01*
X40592Y-24316D01*
X40584Y-24306D01*
X40566Y-24297D01*
X48192Y-26552D02*
X48132Y-26457D01*
X48090Y-26552D02*
X48090Y-26352D01*
X48158Y-26352D01*
X48175Y-26362D01*
X48184Y-26371D01*
X48192Y-26390D01*
X48192Y-26419D01*
X48184Y-26438D01*
X48175Y-26447D01*
X48158Y-26457D01*
X48090Y-26457D01*
X48355Y-26352D02*
X48270Y-26352D01*
X48261Y-26447D01*
X48270Y-26438D01*
X48287Y-26428D01*
X48330Y-26428D01*
X48347Y-26438D01*
X48355Y-26447D01*
X48364Y-26466D01*
X48364Y-26514D01*
X48355Y-26533D01*
X48347Y-26543D01*
X48330Y-26552D01*
X48287Y-26552D01*
X48270Y-26543D01*
X48261Y-26533D01*
X48518Y-26419D02*
X48518Y-26552D01*
X48475Y-26343D02*
X48432Y-26485D01*
X48544Y-26485D01*
X35907Y-51163D02*
X35847Y-51068D01*
X35805Y-51163D02*
X35805Y-50963D01*
X35873Y-50963D01*
X35890Y-50973D01*
X35899Y-50982D01*
X35907Y-51001D01*
X35907Y-51030D01*
X35899Y-51049D01*
X35890Y-51058D01*
X35873Y-51068D01*
X35805Y-51068D01*
X36062Y-50963D02*
X36027Y-50963D01*
X36010Y-50973D01*
X36002Y-50982D01*
X35985Y-51011D01*
X35976Y-51049D01*
X35976Y-51125D01*
X35985Y-51144D01*
X35993Y-51154D01*
X36010Y-51163D01*
X36045Y-51163D01*
X36062Y-51154D01*
X36070Y-51144D01*
X36079Y-51125D01*
X36079Y-51077D01*
X36070Y-51058D01*
X36062Y-51049D01*
X36045Y-51039D01*
X36010Y-51039D01*
X35993Y-51049D01*
X35985Y-51058D01*
X35976Y-51077D01*
X36233Y-51030D02*
X36233Y-51163D01*
X36190Y-50954D02*
X36147Y-51096D01*
X36259Y-51096D01*
X39805Y-50725D02*
X39710Y-50785D01*
X39805Y-50828D02*
X39605Y-50828D01*
X39605Y-50760D01*
X39614Y-50743D01*
X39624Y-50734D01*
X39643Y-50725D01*
X39672Y-50725D01*
X39691Y-50734D01*
X39700Y-50743D01*
X39710Y-50760D01*
X39710Y-50828D01*
X39605Y-50571D02*
X39605Y-50605D01*
X39614Y-50623D01*
X39624Y-50631D01*
X39652Y-50648D01*
X39691Y-50657D01*
X39767Y-50657D01*
X39786Y-50648D01*
X39795Y-50640D01*
X39805Y-50623D01*
X39805Y-50588D01*
X39795Y-50571D01*
X39786Y-50563D01*
X39767Y-50554D01*
X39719Y-50554D01*
X39700Y-50563D01*
X39691Y-50571D01*
X39681Y-50588D01*
X39681Y-50623D01*
X39691Y-50640D01*
X39700Y-50648D01*
X39719Y-50657D01*
X39605Y-50494D02*
X39605Y-50383D01*
X39681Y-50443D01*
X39681Y-50417D01*
X39691Y-50400D01*
X39700Y-50391D01*
X39719Y-50383D01*
X39767Y-50383D01*
X39786Y-50391D01*
X39795Y-50400D01*
X39805Y-50417D01*
X39805Y-50468D01*
X39795Y-50485D01*
X39786Y-50494D01*
X41955Y-42280D02*
X41860Y-42340D01*
X41955Y-42382D02*
X41755Y-42382D01*
X41755Y-42314D01*
X41765Y-42297D01*
X41775Y-42288D01*
X41794Y-42280D01*
X41822Y-42280D01*
X41841Y-42288D01*
X41851Y-42297D01*
X41860Y-42314D01*
X41860Y-42382D01*
X41775Y-42211D02*
X41765Y-42202D01*
X41755Y-42185D01*
X41755Y-42142D01*
X41765Y-42125D01*
X41775Y-42117D01*
X41794Y-42108D01*
X41813Y-42108D01*
X41841Y-42117D01*
X41955Y-42220D01*
X41955Y-42108D01*
X36144Y-54986D02*
X36049Y-55046D01*
X36144Y-55089D02*
X35944Y-55089D01*
X35944Y-55020D01*
X35953Y-55003D01*
X35963Y-54994D01*
X35982Y-54986D01*
X36011Y-54986D01*
X36030Y-54994D01*
X36039Y-55003D01*
X36049Y-55020D01*
X36049Y-55089D01*
X35944Y-54831D02*
X35944Y-54866D01*
X35953Y-54883D01*
X35963Y-54891D01*
X35991Y-54909D01*
X36030Y-54917D01*
X36106Y-54917D01*
X36125Y-54909D01*
X36134Y-54900D01*
X36144Y-54883D01*
X36144Y-54849D01*
X36134Y-54831D01*
X36125Y-54823D01*
X36106Y-54814D01*
X36058Y-54814D01*
X36039Y-54823D01*
X36030Y-54831D01*
X36020Y-54849D01*
X36020Y-54883D01*
X36030Y-54900D01*
X36039Y-54909D01*
X36058Y-54917D01*
X35944Y-54660D02*
X35944Y-54694D01*
X35953Y-54711D01*
X35963Y-54720D01*
X35991Y-54737D01*
X36030Y-54746D01*
X36106Y-54746D01*
X36125Y-54737D01*
X36134Y-54729D01*
X36144Y-54711D01*
X36144Y-54677D01*
X36134Y-54660D01*
X36125Y-54651D01*
X36106Y-54643D01*
X36058Y-54643D01*
X36039Y-54651D01*
X36030Y-54660D01*
X36020Y-54677D01*
X36020Y-54711D01*
X36030Y-54729D01*
X36039Y-54737D01*
X36058Y-54746D01*
X41065Y-48580D02*
X40969Y-48640D01*
X41065Y-48683D02*
X40865Y-48683D01*
X40865Y-48614D01*
X40874Y-48597D01*
X40884Y-48588D01*
X40903Y-48580D01*
X40931Y-48580D01*
X40950Y-48588D01*
X40960Y-48597D01*
X40969Y-48614D01*
X40969Y-48683D01*
X40865Y-48417D02*
X40865Y-48503D01*
X40960Y-48511D01*
X40950Y-48503D01*
X40941Y-48485D01*
X40941Y-48443D01*
X40950Y-48425D01*
X40960Y-48417D01*
X40979Y-48408D01*
X41027Y-48408D01*
X41046Y-48417D01*
X41055Y-48425D01*
X41065Y-48443D01*
X41065Y-48485D01*
X41055Y-48503D01*
X41046Y-48511D01*
X41065Y-48237D02*
X41065Y-48340D01*
X41065Y-48288D02*
X40865Y-48288D01*
X40893Y-48305D01*
X40912Y-48323D01*
X40922Y-48340D01*
X41025Y-47359D02*
X40930Y-47419D01*
X41025Y-47462D02*
X40825Y-47462D01*
X40825Y-47394D01*
X40835Y-47376D01*
X40844Y-47368D01*
X40863Y-47359D01*
X40892Y-47359D01*
X40911Y-47368D01*
X40921Y-47376D01*
X40930Y-47394D01*
X40930Y-47462D01*
X40825Y-47196D02*
X40825Y-47282D01*
X40921Y-47291D01*
X40911Y-47282D01*
X40902Y-47265D01*
X40902Y-47222D01*
X40911Y-47205D01*
X40921Y-47196D01*
X40940Y-47188D01*
X40987Y-47188D01*
X41006Y-47196D01*
X41016Y-47205D01*
X41025Y-47222D01*
X41025Y-47265D01*
X41016Y-47282D01*
X41006Y-47291D01*
X40844Y-47119D02*
X40835Y-47111D01*
X40825Y-47094D01*
X40825Y-47051D01*
X40835Y-47034D01*
X40844Y-47025D01*
X40863Y-47016D01*
X40882Y-47016D01*
X40911Y-47025D01*
X41025Y-47128D01*
X41025Y-47016D01*
X44845Y-28324D02*
X44854Y-28332D01*
X44864Y-28358D01*
X44864Y-28375D01*
X44854Y-28401D01*
X44835Y-28418D01*
X44816Y-28427D01*
X44778Y-28435D01*
X44750Y-28435D01*
X44712Y-28427D01*
X44692Y-28418D01*
X44673Y-28401D01*
X44664Y-28375D01*
X44664Y-28358D01*
X44673Y-28332D01*
X44683Y-28324D01*
X44864Y-28152D02*
X44864Y-28255D01*
X44864Y-28204D02*
X44664Y-28204D01*
X44692Y-28221D01*
X44712Y-28238D01*
X44721Y-28255D01*
X44750Y-28050D02*
X44740Y-28067D01*
X44731Y-28075D01*
X44712Y-28084D01*
X44702Y-28084D01*
X44683Y-28075D01*
X44673Y-28067D01*
X44664Y-28050D01*
X44664Y-28015D01*
X44673Y-27998D01*
X44683Y-27990D01*
X44702Y-27981D01*
X44712Y-27981D01*
X44731Y-27990D01*
X44740Y-27998D01*
X44750Y-28015D01*
X44750Y-28050D01*
X44759Y-28067D01*
X44769Y-28075D01*
X44788Y-28084D01*
X44826Y-28084D01*
X44845Y-28075D01*
X44854Y-28067D01*
X44864Y-28050D01*
X44864Y-28015D01*
X44854Y-27998D01*
X44845Y-27990D01*
X44826Y-27981D01*
X44788Y-27981D01*
X44769Y-27990D01*
X44759Y-27998D01*
X44750Y-28015D01*
X44235Y-23206D02*
X44244Y-23214D01*
X44254Y-23240D01*
X44254Y-23257D01*
X44244Y-23283D01*
X44225Y-23300D01*
X44206Y-23309D01*
X44168Y-23317D01*
X44139Y-23317D01*
X44101Y-23309D01*
X44082Y-23300D01*
X44063Y-23283D01*
X44054Y-23257D01*
X44054Y-23240D01*
X44063Y-23214D01*
X44073Y-23206D01*
X44073Y-23137D02*
X44063Y-23129D01*
X44054Y-23111D01*
X44054Y-23069D01*
X44063Y-23051D01*
X44073Y-23043D01*
X44092Y-23034D01*
X44111Y-23034D01*
X44139Y-23043D01*
X44254Y-23146D01*
X44254Y-23034D01*
X44054Y-22923D02*
X44054Y-22906D01*
X44063Y-22889D01*
X44073Y-22880D01*
X44092Y-22871D01*
X44130Y-22863D01*
X44177Y-22863D01*
X44216Y-22871D01*
X44235Y-22880D01*
X44244Y-22889D01*
X44254Y-22906D01*
X44254Y-22923D01*
X44244Y-22940D01*
X44235Y-22949D01*
X44216Y-22957D01*
X44177Y-22966D01*
X44130Y-22966D01*
X44092Y-22957D01*
X44073Y-22949D01*
X44063Y-22940D01*
X44054Y-22923D01*
X40238Y-23703D02*
X40230Y-23713D01*
X40204Y-23722D01*
X40187Y-23722D01*
X40161Y-23713D01*
X40144Y-23694D01*
X40135Y-23675D01*
X40127Y-23636D01*
X40127Y-23608D01*
X40135Y-23570D01*
X40144Y-23551D01*
X40161Y-23532D01*
X40187Y-23522D01*
X40204Y-23522D01*
X40230Y-23532D01*
X40238Y-23541D01*
X40410Y-23722D02*
X40307Y-23722D01*
X40358Y-23722D02*
X40358Y-23522D01*
X40341Y-23551D01*
X40324Y-23570D01*
X40307Y-23579D01*
X40495Y-23722D02*
X40530Y-23722D01*
X40547Y-23713D01*
X40555Y-23703D01*
X40572Y-23675D01*
X40581Y-23636D01*
X40581Y-23560D01*
X40572Y-23541D01*
X40564Y-23532D01*
X40547Y-23522D01*
X40512Y-23522D01*
X40495Y-23532D01*
X40487Y-23541D01*
X40478Y-23560D01*
X40478Y-23608D01*
X40487Y-23627D01*
X40495Y-23636D01*
X40512Y-23646D01*
X40547Y-23646D01*
X40564Y-23636D01*
X40572Y-23627D01*
X40581Y-23608D01*
X45730Y-26931D02*
X45722Y-26941D01*
X45696Y-26951D01*
X45679Y-26951D01*
X45653Y-26941D01*
X45636Y-26922D01*
X45627Y-26903D01*
X45619Y-26865D01*
X45619Y-26836D01*
X45627Y-26798D01*
X45636Y-26779D01*
X45653Y-26760D01*
X45679Y-26751D01*
X45696Y-26751D01*
X45722Y-26760D01*
X45730Y-26770D01*
X45902Y-26951D02*
X45799Y-26951D01*
X45850Y-26951D02*
X45850Y-26751D01*
X45833Y-26779D01*
X45816Y-26798D01*
X45799Y-26808D01*
X45962Y-26751D02*
X46082Y-26751D01*
X46005Y-26951D01*
X45357Y-44879D02*
X45366Y-44888D01*
X45376Y-44913D01*
X45376Y-44930D01*
X45366Y-44956D01*
X45347Y-44973D01*
X45328Y-44982D01*
X45290Y-44990D01*
X45261Y-44990D01*
X45223Y-44982D01*
X45204Y-44973D01*
X45185Y-44956D01*
X45176Y-44930D01*
X45176Y-44913D01*
X45185Y-44888D01*
X45195Y-44879D01*
X45376Y-44708D02*
X45376Y-44810D01*
X45376Y-44759D02*
X45176Y-44759D01*
X45204Y-44776D01*
X45223Y-44793D01*
X45233Y-44810D01*
X45176Y-44596D02*
X45176Y-44579D01*
X45185Y-44562D01*
X45195Y-44553D01*
X45214Y-44545D01*
X45252Y-44536D01*
X45300Y-44536D01*
X45338Y-44545D01*
X45357Y-44553D01*
X45366Y-44562D01*
X45376Y-44579D01*
X45376Y-44596D01*
X45366Y-44613D01*
X45357Y-44622D01*
X45338Y-44630D01*
X45300Y-44639D01*
X45252Y-44639D01*
X45214Y-44630D01*
X45195Y-44622D01*
X45185Y-44613D01*
X45176Y-44596D01*
X45357Y-46053D02*
X45366Y-46062D01*
X45376Y-46087D01*
X45376Y-46105D01*
X45366Y-46130D01*
X45347Y-46147D01*
X45328Y-46156D01*
X45290Y-46165D01*
X45261Y-46165D01*
X45223Y-46156D01*
X45204Y-46147D01*
X45185Y-46130D01*
X45176Y-46105D01*
X45176Y-46087D01*
X45185Y-46062D01*
X45195Y-46053D01*
X45176Y-45993D02*
X45176Y-45882D01*
X45252Y-45942D01*
X45252Y-45916D01*
X45261Y-45899D01*
X45271Y-45890D01*
X45290Y-45882D01*
X45338Y-45882D01*
X45357Y-45890D01*
X45366Y-45899D01*
X45376Y-45916D01*
X45376Y-45967D01*
X45366Y-45985D01*
X45357Y-45993D01*
X45357Y-43435D02*
X45366Y-43444D01*
X45376Y-43469D01*
X45376Y-43486D01*
X45366Y-43512D01*
X45347Y-43529D01*
X45328Y-43538D01*
X45290Y-43546D01*
X45261Y-43546D01*
X45223Y-43538D01*
X45204Y-43529D01*
X45185Y-43512D01*
X45176Y-43486D01*
X45176Y-43469D01*
X45185Y-43444D01*
X45195Y-43435D01*
X45195Y-43366D02*
X45185Y-43358D01*
X45176Y-43341D01*
X45176Y-43298D01*
X45185Y-43281D01*
X45195Y-43272D01*
X45214Y-43264D01*
X45233Y-43264D01*
X45261Y-43272D01*
X45376Y-43375D01*
X45376Y-43264D01*
X45317Y-47510D02*
X45327Y-47518D01*
X45336Y-47544D01*
X45336Y-47561D01*
X45327Y-47587D01*
X45308Y-47604D01*
X45289Y-47613D01*
X45251Y-47621D01*
X45222Y-47621D01*
X45184Y-47613D01*
X45165Y-47604D01*
X45146Y-47587D01*
X45136Y-47561D01*
X45136Y-47544D01*
X45146Y-47518D01*
X45155Y-47510D01*
X45336Y-47338D02*
X45336Y-47441D01*
X45336Y-47390D02*
X45136Y-47390D01*
X45165Y-47407D01*
X45184Y-47424D01*
X45194Y-47441D01*
X43644Y-23206D02*
X43654Y-23214D01*
X43663Y-23240D01*
X43663Y-23257D01*
X43654Y-23283D01*
X43635Y-23300D01*
X43616Y-23309D01*
X43577Y-23317D01*
X43549Y-23317D01*
X43511Y-23309D01*
X43492Y-23300D01*
X43473Y-23283D01*
X43463Y-23257D01*
X43463Y-23240D01*
X43473Y-23214D01*
X43482Y-23206D01*
X43463Y-23146D02*
X43463Y-23034D01*
X43539Y-23094D01*
X43539Y-23069D01*
X43549Y-23051D01*
X43558Y-23043D01*
X43577Y-23034D01*
X43625Y-23034D01*
X43644Y-23043D01*
X43654Y-23051D01*
X43663Y-23069D01*
X43663Y-23120D01*
X43654Y-23137D01*
X43644Y-23146D01*
X43549Y-22931D02*
X43539Y-22949D01*
X43530Y-22957D01*
X43511Y-22966D01*
X43501Y-22966D01*
X43482Y-22957D01*
X43473Y-22949D01*
X43463Y-22931D01*
X43463Y-22897D01*
X43473Y-22880D01*
X43482Y-22871D01*
X43501Y-22863D01*
X43511Y-22863D01*
X43530Y-22871D01*
X43539Y-22880D01*
X43549Y-22897D01*
X43549Y-22931D01*
X43558Y-22949D01*
X43568Y-22957D01*
X43587Y-22966D01*
X43625Y-22966D01*
X43644Y-22957D01*
X43654Y-22949D01*
X43663Y-22931D01*
X43663Y-22897D01*
X43654Y-22880D01*
X43644Y-22871D01*
X43625Y-22863D01*
X43587Y-22863D01*
X43568Y-22871D01*
X43558Y-22880D01*
X43549Y-22897D01*
X47187Y-26538D02*
X47178Y-26547D01*
X47153Y-26557D01*
X47136Y-26557D01*
X47110Y-26547D01*
X47093Y-26528D01*
X47084Y-26509D01*
X47076Y-26471D01*
X47076Y-26443D01*
X47084Y-26404D01*
X47093Y-26385D01*
X47110Y-26366D01*
X47136Y-26357D01*
X47153Y-26357D01*
X47178Y-26366D01*
X47187Y-26376D01*
X47358Y-26557D02*
X47256Y-26557D01*
X47307Y-26557D02*
X47307Y-26357D01*
X47290Y-26385D01*
X47273Y-26404D01*
X47256Y-26414D01*
X47418Y-26357D02*
X47530Y-26357D01*
X47470Y-26433D01*
X47496Y-26433D01*
X47513Y-26443D01*
X47521Y-26452D01*
X47530Y-26471D01*
X47530Y-26519D01*
X47521Y-26538D01*
X47513Y-26547D01*
X47496Y-26557D01*
X47444Y-26557D01*
X47427Y-26547D01*
X47418Y-26538D01*
X40861Y-45880D02*
X40871Y-45888D01*
X40880Y-45914D01*
X40880Y-45931D01*
X40871Y-45957D01*
X40852Y-45974D01*
X40833Y-45982D01*
X40795Y-45991D01*
X40766Y-45991D01*
X40728Y-45982D01*
X40709Y-45974D01*
X40690Y-45957D01*
X40680Y-45931D01*
X40680Y-45914D01*
X40690Y-45888D01*
X40700Y-45880D01*
X40880Y-45794D02*
X40880Y-45760D01*
X40871Y-45742D01*
X40861Y-45734D01*
X40833Y-45717D01*
X40795Y-45708D01*
X40719Y-45708D01*
X40700Y-45717D01*
X40690Y-45725D01*
X40680Y-45742D01*
X40680Y-45777D01*
X40690Y-45794D01*
X40700Y-45802D01*
X40719Y-45811D01*
X40766Y-45811D01*
X40785Y-45802D01*
X40795Y-45794D01*
X40804Y-45777D01*
X40804Y-45742D01*
X40795Y-45725D01*
X40785Y-45717D01*
X40766Y-45708D01*
X48211Y-27266D02*
X48202Y-27276D01*
X48176Y-27285D01*
X48159Y-27285D01*
X48133Y-27276D01*
X48116Y-27257D01*
X48108Y-27238D01*
X48099Y-27199D01*
X48099Y-27171D01*
X48108Y-27133D01*
X48116Y-27114D01*
X48133Y-27095D01*
X48159Y-27085D01*
X48176Y-27085D01*
X48202Y-27095D01*
X48211Y-27104D01*
X48382Y-27285D02*
X48279Y-27285D01*
X48331Y-27285D02*
X48331Y-27085D01*
X48313Y-27114D01*
X48296Y-27133D01*
X48279Y-27142D01*
X48451Y-27104D02*
X48459Y-27095D01*
X48476Y-27085D01*
X48519Y-27085D01*
X48536Y-27095D01*
X48545Y-27104D01*
X48553Y-27123D01*
X48553Y-27142D01*
X48545Y-27171D01*
X48442Y-27285D01*
X48553Y-27285D01*
X32463Y-22994D02*
X32454Y-23004D01*
X32428Y-23014D01*
X32411Y-23014D01*
X32385Y-23004D01*
X32368Y-22985D01*
X32360Y-22966D01*
X32351Y-22928D01*
X32351Y-22899D01*
X32360Y-22861D01*
X32368Y-22842D01*
X32385Y-22823D01*
X32411Y-22814D01*
X32428Y-22814D01*
X32454Y-22823D01*
X32463Y-22833D01*
X32523Y-22814D02*
X32643Y-22814D01*
X32565Y-23014D01*
X32720Y-23014D02*
X32754Y-23014D01*
X32771Y-23004D01*
X32780Y-22994D01*
X32797Y-22966D01*
X32805Y-22928D01*
X32805Y-22852D01*
X32797Y-22833D01*
X32788Y-22823D01*
X32771Y-22814D01*
X32737Y-22814D01*
X32720Y-22823D01*
X32711Y-22833D01*
X32703Y-22852D01*
X32703Y-22899D01*
X32711Y-22918D01*
X32720Y-22928D01*
X32737Y-22937D01*
X32771Y-22937D01*
X32788Y-22928D01*
X32797Y-22918D01*
X32805Y-22899D01*
X46085Y-24176D02*
X46076Y-24185D01*
X46050Y-24195D01*
X46033Y-24195D01*
X46007Y-24185D01*
X45990Y-24166D01*
X45982Y-24147D01*
X45973Y-24109D01*
X45973Y-24080D01*
X45982Y-24042D01*
X45990Y-24023D01*
X46007Y-24004D01*
X46033Y-23995D01*
X46050Y-23995D01*
X46076Y-24004D01*
X46085Y-24014D01*
X46256Y-24195D02*
X46153Y-24195D01*
X46205Y-24195D02*
X46205Y-23995D01*
X46187Y-24023D01*
X46170Y-24042D01*
X46153Y-24052D01*
X46427Y-24195D02*
X46325Y-24195D01*
X46376Y-24195D02*
X46376Y-23995D01*
X46359Y-24023D01*
X46342Y-24042D01*
X46325Y-24052D01*
X32484Y-22161D02*
X32475Y-22171D01*
X32450Y-22180D01*
X32432Y-22180D01*
X32407Y-22171D01*
X32390Y-22152D01*
X32381Y-22133D01*
X32372Y-22095D01*
X32372Y-22066D01*
X32381Y-22028D01*
X32390Y-22009D01*
X32407Y-21990D01*
X32432Y-21980D01*
X32450Y-21980D01*
X32475Y-21990D01*
X32484Y-22000D01*
X32587Y-22066D02*
X32570Y-22057D01*
X32561Y-22047D01*
X32552Y-22028D01*
X32552Y-22019D01*
X32561Y-22000D01*
X32570Y-21990D01*
X32587Y-21980D01*
X32621Y-21980D01*
X32638Y-21990D01*
X32647Y-22000D01*
X32655Y-22019D01*
X32655Y-22028D01*
X32647Y-22047D01*
X32638Y-22057D01*
X32621Y-22066D01*
X32587Y-22066D01*
X32570Y-22076D01*
X32561Y-22085D01*
X32552Y-22104D01*
X32552Y-22142D01*
X32561Y-22161D01*
X32570Y-22171D01*
X32587Y-22180D01*
X32621Y-22180D01*
X32638Y-22171D01*
X32647Y-22161D01*
X32655Y-22142D01*
X32655Y-22104D01*
X32647Y-22085D01*
X32638Y-22076D01*
X32621Y-22066D01*
X32767Y-21980D02*
X32784Y-21980D01*
X32801Y-21990D01*
X32810Y-22000D01*
X32818Y-22019D01*
X32827Y-22057D01*
X32827Y-22104D01*
X32818Y-22142D01*
X32810Y-22161D01*
X32801Y-22171D01*
X32784Y-22180D01*
X32767Y-22180D01*
X32750Y-22171D01*
X32741Y-22161D01*
X32732Y-22142D01*
X32724Y-22104D01*
X32724Y-22057D01*
X32732Y-22019D01*
X32741Y-22000D01*
X32750Y-21990D01*
X32767Y-21980D01*
X49628Y-26498D02*
X49619Y-26508D01*
X49594Y-26517D01*
X49576Y-26517D01*
X49551Y-26508D01*
X49534Y-26489D01*
X49525Y-26470D01*
X49516Y-26432D01*
X49516Y-26403D01*
X49525Y-26365D01*
X49534Y-26346D01*
X49551Y-26327D01*
X49576Y-26317D01*
X49594Y-26317D01*
X49619Y-26327D01*
X49628Y-26337D01*
X49688Y-26317D02*
X49808Y-26317D01*
X49731Y-26517D01*
X49859Y-26317D02*
X49979Y-26317D01*
X49902Y-26517D01*
X50848Y-28290D02*
X50840Y-28299D01*
X50814Y-28309D01*
X50797Y-28309D01*
X50771Y-28299D01*
X50754Y-28280D01*
X50745Y-28261D01*
X50737Y-28223D01*
X50737Y-28195D01*
X50745Y-28156D01*
X50754Y-28137D01*
X50771Y-28118D01*
X50797Y-28109D01*
X50814Y-28109D01*
X50840Y-28118D01*
X50848Y-28128D01*
X50951Y-28195D02*
X50934Y-28185D01*
X50925Y-28175D01*
X50917Y-28156D01*
X50917Y-28147D01*
X50925Y-28128D01*
X50934Y-28118D01*
X50951Y-28109D01*
X50985Y-28109D01*
X51003Y-28118D01*
X51011Y-28128D01*
X51020Y-28147D01*
X51020Y-28156D01*
X51011Y-28175D01*
X51003Y-28185D01*
X50985Y-28195D01*
X50951Y-28195D01*
X50934Y-28204D01*
X50925Y-28214D01*
X50917Y-28233D01*
X50917Y-28271D01*
X50925Y-28290D01*
X50934Y-28299D01*
X50951Y-28309D01*
X50985Y-28309D01*
X51003Y-28299D01*
X51011Y-28290D01*
X51020Y-28271D01*
X51020Y-28233D01*
X51011Y-28214D01*
X51003Y-28204D01*
X50985Y-28195D01*
X51088Y-28128D02*
X51097Y-28118D01*
X51114Y-28109D01*
X51157Y-28109D01*
X51174Y-28118D01*
X51183Y-28128D01*
X51191Y-28147D01*
X51191Y-28166D01*
X51183Y-28195D01*
X51080Y-28309D01*
X51191Y-28309D01*
X49608Y-27089D02*
X49600Y-27098D01*
X49574Y-27108D01*
X49557Y-27108D01*
X49531Y-27098D01*
X49514Y-27079D01*
X49505Y-27060D01*
X49497Y-27022D01*
X49497Y-26994D01*
X49505Y-26956D01*
X49514Y-26937D01*
X49531Y-26918D01*
X49557Y-26908D01*
X49574Y-26908D01*
X49600Y-26918D01*
X49608Y-26927D01*
X49711Y-26994D02*
X49694Y-26984D01*
X49685Y-26975D01*
X49677Y-26956D01*
X49677Y-26946D01*
X49685Y-26927D01*
X49694Y-26918D01*
X49711Y-26908D01*
X49745Y-26908D01*
X49762Y-26918D01*
X49771Y-26927D01*
X49780Y-26946D01*
X49780Y-26956D01*
X49771Y-26975D01*
X49762Y-26984D01*
X49745Y-26994D01*
X49711Y-26994D01*
X49694Y-27003D01*
X49685Y-27013D01*
X49677Y-27032D01*
X49677Y-27070D01*
X49685Y-27089D01*
X49694Y-27098D01*
X49711Y-27108D01*
X49745Y-27108D01*
X49762Y-27098D01*
X49771Y-27089D01*
X49780Y-27070D01*
X49780Y-27032D01*
X49771Y-27013D01*
X49762Y-27003D01*
X49745Y-26994D01*
X49951Y-27108D02*
X49848Y-27108D01*
X49900Y-27108D02*
X49900Y-26908D01*
X49882Y-26937D01*
X49865Y-26956D01*
X49848Y-26965D01*
X51740Y-37167D02*
X51727Y-37168D01*
X51702Y-37156D01*
X51690Y-37144D01*
X51678Y-37119D01*
X51680Y-37094D01*
X51687Y-37074D01*
X51708Y-37041D01*
X51728Y-37021D01*
X51761Y-37000D01*
X51781Y-36993D01*
X51806Y-36991D01*
X51831Y-37003D01*
X51843Y-37015D01*
X51855Y-37040D01*
X51854Y-37053D01*
X51880Y-37172D02*
X51874Y-37154D01*
X51875Y-37141D01*
X51882Y-37121D01*
X51889Y-37115D01*
X51909Y-37107D01*
X51921Y-37106D01*
X51940Y-37112D01*
X51964Y-37136D01*
X51970Y-37155D01*
X51969Y-37168D01*
X51962Y-37187D01*
X51955Y-37194D01*
X51935Y-37201D01*
X51923Y-37202D01*
X51904Y-37197D01*
X51880Y-37172D01*
X51861Y-37167D01*
X51848Y-37168D01*
X51828Y-37175D01*
X51801Y-37202D01*
X51794Y-37222D01*
X51793Y-37234D01*
X51799Y-37253D01*
X51823Y-37278D01*
X51842Y-37283D01*
X51855Y-37282D01*
X51874Y-37275D01*
X51901Y-37248D01*
X51909Y-37228D01*
X51909Y-37216D01*
X51904Y-37197D01*
X37285Y-37345D02*
X37277Y-37354D01*
X37251Y-37364D01*
X37234Y-37364D01*
X37208Y-37354D01*
X37191Y-37335D01*
X37183Y-37316D01*
X37174Y-37278D01*
X37174Y-37250D01*
X37183Y-37212D01*
X37191Y-37192D01*
X37208Y-37173D01*
X37234Y-37164D01*
X37251Y-37164D01*
X37277Y-37173D01*
X37285Y-37183D01*
X37448Y-37164D02*
X37363Y-37164D01*
X37354Y-37259D01*
X37363Y-37250D01*
X37380Y-37240D01*
X37423Y-37240D01*
X37440Y-37250D01*
X37448Y-37259D01*
X37457Y-37278D01*
X37457Y-37326D01*
X37448Y-37345D01*
X37440Y-37354D01*
X37423Y-37364D01*
X37380Y-37364D01*
X37363Y-37354D01*
X37354Y-37345D01*
X37517Y-37164D02*
X37628Y-37164D01*
X37568Y-37240D01*
X37594Y-37240D01*
X37611Y-37250D01*
X37620Y-37259D01*
X37628Y-37278D01*
X37628Y-37326D01*
X37620Y-37345D01*
X37611Y-37354D01*
X37594Y-37364D01*
X37543Y-37364D01*
X37525Y-37354D01*
X37517Y-37345D01*
X38447Y-37207D02*
X38438Y-37217D01*
X38412Y-37226D01*
X38395Y-37226D01*
X38370Y-37217D01*
X38352Y-37198D01*
X38344Y-37179D01*
X38335Y-37140D01*
X38335Y-37112D01*
X38344Y-37074D01*
X38352Y-37055D01*
X38370Y-37036D01*
X38395Y-37026D01*
X38412Y-37026D01*
X38438Y-37036D01*
X38447Y-37045D01*
X38610Y-37026D02*
X38524Y-37026D01*
X38515Y-37121D01*
X38524Y-37112D01*
X38541Y-37102D01*
X38584Y-37102D01*
X38601Y-37112D01*
X38610Y-37121D01*
X38618Y-37140D01*
X38618Y-37188D01*
X38610Y-37207D01*
X38601Y-37217D01*
X38584Y-37226D01*
X38541Y-37226D01*
X38524Y-37217D01*
X38515Y-37207D01*
X38772Y-37093D02*
X38772Y-37226D01*
X38730Y-37017D02*
X38687Y-37159D01*
X38798Y-37159D01*
X47534Y-30111D02*
X47525Y-30121D01*
X47500Y-30130D01*
X47482Y-30130D01*
X47457Y-30121D01*
X47440Y-30102D01*
X47431Y-30083D01*
X47422Y-30045D01*
X47422Y-30016D01*
X47431Y-29978D01*
X47440Y-29959D01*
X47457Y-29940D01*
X47482Y-29930D01*
X47500Y-29930D01*
X47525Y-29940D01*
X47534Y-29950D01*
X47688Y-29930D02*
X47654Y-29930D01*
X47637Y-29940D01*
X47628Y-29950D01*
X47611Y-29978D01*
X47602Y-30016D01*
X47602Y-30092D01*
X47611Y-30111D01*
X47620Y-30121D01*
X47637Y-30130D01*
X47671Y-30130D01*
X47688Y-30121D01*
X47697Y-30111D01*
X47705Y-30092D01*
X47705Y-30045D01*
X47697Y-30026D01*
X47688Y-30016D01*
X47671Y-30007D01*
X47637Y-30007D01*
X47620Y-30016D01*
X47611Y-30026D01*
X47602Y-30045D01*
X47774Y-29950D02*
X47782Y-29940D01*
X47800Y-29930D01*
X47842Y-29930D01*
X47860Y-29940D01*
X47868Y-29950D01*
X47877Y-29969D01*
X47877Y-29988D01*
X47868Y-30016D01*
X47765Y-30130D01*
X47877Y-30130D01*
X45337Y-30332D02*
X45347Y-30340D01*
X45356Y-30366D01*
X45356Y-30383D01*
X45347Y-30409D01*
X45327Y-30426D01*
X45308Y-30435D01*
X45270Y-30443D01*
X45242Y-30443D01*
X45204Y-30435D01*
X45185Y-30426D01*
X45166Y-30409D01*
X45156Y-30383D01*
X45156Y-30366D01*
X45166Y-30340D01*
X45175Y-30332D01*
X45156Y-30177D02*
X45156Y-30212D01*
X45166Y-30229D01*
X45175Y-30237D01*
X45204Y-30255D01*
X45242Y-30263D01*
X45318Y-30263D01*
X45337Y-30255D01*
X45347Y-30246D01*
X45356Y-30229D01*
X45356Y-30195D01*
X45347Y-30177D01*
X45337Y-30169D01*
X45318Y-30160D01*
X45270Y-30160D01*
X45251Y-30169D01*
X45242Y-30177D01*
X45232Y-30195D01*
X45232Y-30229D01*
X45242Y-30246D01*
X45251Y-30255D01*
X45270Y-30263D01*
X45156Y-29997D02*
X45156Y-30083D01*
X45251Y-30092D01*
X45242Y-30083D01*
X45232Y-30066D01*
X45232Y-30023D01*
X45242Y-30006D01*
X45251Y-29997D01*
X45270Y-29989D01*
X45318Y-29989D01*
X45337Y-29997D01*
X45347Y-30006D01*
X45356Y-30023D01*
X45356Y-30066D01*
X45347Y-30083D01*
X45337Y-30092D01*
X46461Y-30615D02*
X46471Y-30624D01*
X46480Y-30650D01*
X46480Y-30667D01*
X46471Y-30692D01*
X46452Y-30710D01*
X46433Y-30718D01*
X46395Y-30727D01*
X46366Y-30727D01*
X46328Y-30718D01*
X46309Y-30710D01*
X46290Y-30692D01*
X46280Y-30667D01*
X46280Y-30650D01*
X46290Y-30624D01*
X46300Y-30615D01*
X46280Y-30461D02*
X46280Y-30495D01*
X46290Y-30512D01*
X46300Y-30521D01*
X46328Y-30538D01*
X46366Y-30547D01*
X46442Y-30547D01*
X46461Y-30538D01*
X46471Y-30530D01*
X46480Y-30512D01*
X46480Y-30478D01*
X46471Y-30461D01*
X46461Y-30452D01*
X46442Y-30444D01*
X46395Y-30444D01*
X46376Y-30452D01*
X46366Y-30461D01*
X46357Y-30478D01*
X46357Y-30512D01*
X46366Y-30530D01*
X46376Y-30538D01*
X46395Y-30547D01*
X46347Y-30290D02*
X46480Y-30290D01*
X46271Y-30332D02*
X46414Y-30375D01*
X46414Y-30264D01*
X50484Y-33361D02*
X50475Y-33371D01*
X50450Y-33380D01*
X50432Y-33380D01*
X50407Y-33371D01*
X50390Y-33352D01*
X50381Y-33333D01*
X50372Y-33295D01*
X50372Y-33266D01*
X50381Y-33228D01*
X50390Y-33209D01*
X50407Y-33190D01*
X50432Y-33180D01*
X50450Y-33180D01*
X50475Y-33190D01*
X50484Y-33200D01*
X50638Y-33180D02*
X50604Y-33180D01*
X50587Y-33190D01*
X50578Y-33200D01*
X50561Y-33228D01*
X50552Y-33266D01*
X50552Y-33342D01*
X50561Y-33361D01*
X50570Y-33371D01*
X50587Y-33380D01*
X50621Y-33380D01*
X50638Y-33371D01*
X50647Y-33361D01*
X50655Y-33342D01*
X50655Y-33295D01*
X50647Y-33276D01*
X50638Y-33266D01*
X50621Y-33257D01*
X50587Y-33257D01*
X50570Y-33266D01*
X50561Y-33276D01*
X50552Y-33295D01*
X50715Y-33180D02*
X50827Y-33180D01*
X50767Y-33257D01*
X50792Y-33257D01*
X50810Y-33266D01*
X50818Y-33276D01*
X50827Y-33295D01*
X50827Y-33342D01*
X50818Y-33361D01*
X50810Y-33371D01*
X50792Y-33380D01*
X50741Y-33380D01*
X50724Y-33371D01*
X50715Y-33361D01*
X50474Y-31813D02*
X50466Y-31823D01*
X50440Y-31832D01*
X50423Y-31832D01*
X50397Y-31823D01*
X50380Y-31804D01*
X50371Y-31785D01*
X50363Y-31747D01*
X50363Y-31718D01*
X50371Y-31680D01*
X50380Y-31661D01*
X50397Y-31642D01*
X50423Y-31632D01*
X50440Y-31632D01*
X50466Y-31642D01*
X50474Y-31651D01*
X50637Y-31632D02*
X50551Y-31632D01*
X50543Y-31728D01*
X50551Y-31718D01*
X50569Y-31709D01*
X50611Y-31709D01*
X50629Y-31718D01*
X50637Y-31728D01*
X50646Y-31747D01*
X50646Y-31794D01*
X50637Y-31813D01*
X50629Y-31823D01*
X50611Y-31832D01*
X50569Y-31832D01*
X50551Y-31823D01*
X50543Y-31813D01*
X50757Y-31632D02*
X50774Y-31632D01*
X50791Y-31642D01*
X50800Y-31651D01*
X50809Y-31671D01*
X50817Y-31709D01*
X50817Y-31756D01*
X50809Y-31794D01*
X50800Y-31813D01*
X50791Y-31823D01*
X50774Y-31832D01*
X50757Y-31832D01*
X50740Y-31823D01*
X50731Y-31813D01*
X50723Y-31794D01*
X50714Y-31756D01*
X50714Y-31709D01*
X50723Y-31671D01*
X50731Y-31651D01*
X50740Y-31642D01*
X50757Y-31632D01*
X51990Y-32305D02*
X51982Y-32315D01*
X51956Y-32325D01*
X51939Y-32325D01*
X51913Y-32315D01*
X51896Y-32296D01*
X51887Y-32277D01*
X51879Y-32239D01*
X51879Y-32210D01*
X51887Y-32172D01*
X51896Y-32153D01*
X51913Y-32134D01*
X51939Y-32125D01*
X51956Y-32125D01*
X51982Y-32134D01*
X51990Y-32144D01*
X52059Y-32144D02*
X52067Y-32134D01*
X52084Y-32125D01*
X52127Y-32125D01*
X52144Y-32134D01*
X52153Y-32144D01*
X52162Y-32163D01*
X52162Y-32182D01*
X52153Y-32210D01*
X52050Y-32325D01*
X52162Y-32325D01*
X52316Y-32191D02*
X52316Y-32325D01*
X52273Y-32115D02*
X52230Y-32258D01*
X52342Y-32258D01*
X51990Y-32857D02*
X51982Y-32866D01*
X51956Y-32876D01*
X51939Y-32876D01*
X51913Y-32866D01*
X51896Y-32847D01*
X51887Y-32828D01*
X51879Y-32790D01*
X51879Y-32761D01*
X51887Y-32723D01*
X51896Y-32704D01*
X51913Y-32685D01*
X51939Y-32676D01*
X51956Y-32676D01*
X51982Y-32685D01*
X51990Y-32695D01*
X52144Y-32742D02*
X52144Y-32876D01*
X52102Y-32666D02*
X52059Y-32809D01*
X52170Y-32809D01*
X52222Y-32676D02*
X52333Y-32676D01*
X52273Y-32752D01*
X52299Y-32752D01*
X52316Y-32761D01*
X52324Y-32771D01*
X52333Y-32790D01*
X52333Y-32838D01*
X52324Y-32857D01*
X52316Y-32866D01*
X52299Y-32876D01*
X52247Y-32876D01*
X52230Y-32866D01*
X52222Y-32857D01*
X51734Y-33428D02*
X51726Y-33437D01*
X51700Y-33447D01*
X51683Y-33447D01*
X51657Y-33437D01*
X51640Y-33418D01*
X51631Y-33399D01*
X51623Y-33361D01*
X51623Y-33332D01*
X51631Y-33294D01*
X51640Y-33275D01*
X51657Y-33256D01*
X51683Y-33247D01*
X51700Y-33247D01*
X51726Y-33256D01*
X51734Y-33266D01*
X51897Y-33247D02*
X51811Y-33247D01*
X51803Y-33342D01*
X51811Y-33332D01*
X51828Y-33323D01*
X51871Y-33323D01*
X51888Y-33332D01*
X51897Y-33342D01*
X51906Y-33361D01*
X51906Y-33408D01*
X51897Y-33428D01*
X51888Y-33437D01*
X51871Y-33447D01*
X51828Y-33447D01*
X51811Y-33437D01*
X51803Y-33428D01*
X52077Y-33447D02*
X51974Y-33447D01*
X52026Y-33447D02*
X52026Y-33247D01*
X52008Y-33275D01*
X51991Y-33294D01*
X51974Y-33304D01*
X47534Y-30811D02*
X47525Y-30821D01*
X47500Y-30830D01*
X47482Y-30830D01*
X47457Y-30821D01*
X47440Y-30802D01*
X47431Y-30783D01*
X47422Y-30745D01*
X47422Y-30716D01*
X47431Y-30678D01*
X47440Y-30659D01*
X47457Y-30640D01*
X47482Y-30630D01*
X47500Y-30630D01*
X47525Y-30640D01*
X47534Y-30650D01*
X47697Y-30630D02*
X47611Y-30630D01*
X47602Y-30726D01*
X47611Y-30716D01*
X47628Y-30707D01*
X47671Y-30707D01*
X47688Y-30716D01*
X47697Y-30726D01*
X47705Y-30745D01*
X47705Y-30792D01*
X47697Y-30811D01*
X47688Y-30821D01*
X47671Y-30830D01*
X47628Y-30830D01*
X47611Y-30821D01*
X47602Y-30811D01*
X47765Y-30630D02*
X47885Y-30630D01*
X47808Y-30830D01*
X49865Y-32596D02*
X49874Y-32604D01*
X49884Y-32630D01*
X49884Y-32647D01*
X49874Y-32673D01*
X49855Y-32690D01*
X49836Y-32698D01*
X49798Y-32707D01*
X49769Y-32707D01*
X49731Y-32698D01*
X49712Y-32690D01*
X49693Y-32673D01*
X49684Y-32647D01*
X49684Y-32630D01*
X49693Y-32604D01*
X49703Y-32596D01*
X49684Y-32536D02*
X49684Y-32416D01*
X49884Y-32493D01*
X49750Y-32270D02*
X49884Y-32270D01*
X49674Y-32313D02*
X49817Y-32356D01*
X49817Y-32244D01*
X48911Y-31465D02*
X48921Y-31474D01*
X48930Y-31500D01*
X48930Y-31517D01*
X48921Y-31542D01*
X48902Y-31560D01*
X48883Y-31568D01*
X48845Y-31577D01*
X48816Y-31577D01*
X48778Y-31568D01*
X48759Y-31560D01*
X48740Y-31542D01*
X48730Y-31517D01*
X48730Y-31500D01*
X48740Y-31474D01*
X48750Y-31465D01*
X48730Y-31405D02*
X48730Y-31285D01*
X48930Y-31362D01*
X48750Y-31225D02*
X48740Y-31217D01*
X48730Y-31200D01*
X48730Y-31157D01*
X48740Y-31140D01*
X48750Y-31131D01*
X48769Y-31122D01*
X48788Y-31122D01*
X48816Y-31131D01*
X48930Y-31234D01*
X48930Y-31122D01*
X48911Y-30315D02*
X48921Y-30324D01*
X48930Y-30350D01*
X48930Y-30367D01*
X48921Y-30392D01*
X48902Y-30410D01*
X48883Y-30418D01*
X48845Y-30427D01*
X48816Y-30427D01*
X48778Y-30418D01*
X48759Y-30410D01*
X48740Y-30392D01*
X48730Y-30367D01*
X48730Y-30350D01*
X48740Y-30324D01*
X48750Y-30315D01*
X48730Y-30255D02*
X48730Y-30135D01*
X48930Y-30212D01*
X48730Y-29981D02*
X48730Y-30067D01*
X48826Y-30075D01*
X48816Y-30067D01*
X48807Y-30050D01*
X48807Y-30007D01*
X48816Y-29990D01*
X48826Y-29981D01*
X48845Y-29972D01*
X48892Y-29972D01*
X48911Y-29981D01*
X48921Y-29990D01*
X48930Y-30007D01*
X48930Y-30050D01*
X48921Y-30067D01*
X48911Y-30075D01*
X49786Y-31572D02*
X49795Y-31580D01*
X49805Y-31606D01*
X49805Y-31623D01*
X49795Y-31649D01*
X49776Y-31666D01*
X49757Y-31675D01*
X49719Y-31683D01*
X49691Y-31683D01*
X49652Y-31675D01*
X49633Y-31666D01*
X49614Y-31649D01*
X49605Y-31623D01*
X49605Y-31606D01*
X49614Y-31580D01*
X49624Y-31572D01*
X49605Y-31512D02*
X49605Y-31392D01*
X49805Y-31469D01*
X49605Y-31340D02*
X49605Y-31229D01*
X49681Y-31289D01*
X49681Y-31263D01*
X49691Y-31246D01*
X49700Y-31238D01*
X49719Y-31229D01*
X49767Y-31229D01*
X49786Y-31238D01*
X49795Y-31246D01*
X49805Y-31263D01*
X49805Y-31315D01*
X49795Y-31332D01*
X49786Y-31340D01*
X50474Y-32620D02*
X50466Y-32630D01*
X50440Y-32640D01*
X50423Y-32640D01*
X50397Y-32630D01*
X50380Y-32611D01*
X50371Y-32592D01*
X50363Y-32554D01*
X50363Y-32525D01*
X50371Y-32487D01*
X50380Y-32468D01*
X50397Y-32449D01*
X50423Y-32440D01*
X50440Y-32440D01*
X50466Y-32449D01*
X50474Y-32459D01*
X50629Y-32506D02*
X50629Y-32640D01*
X50586Y-32430D02*
X50543Y-32573D01*
X50654Y-32573D01*
X50731Y-32640D02*
X50766Y-32640D01*
X50783Y-32630D01*
X50791Y-32620D01*
X50809Y-32592D01*
X50817Y-32554D01*
X50817Y-32478D01*
X50809Y-32459D01*
X50800Y-32449D01*
X50783Y-32440D01*
X50749Y-32440D01*
X50731Y-32449D01*
X50723Y-32459D01*
X50714Y-32478D01*
X50714Y-32525D01*
X50723Y-32544D01*
X50731Y-32554D01*
X50749Y-32563D01*
X50783Y-32563D01*
X50800Y-32554D01*
X50809Y-32544D01*
X50817Y-32525D01*
X47522Y-23403D02*
X47532Y-23411D01*
X47541Y-23437D01*
X47541Y-23454D01*
X47532Y-23480D01*
X47513Y-23497D01*
X47493Y-23505D01*
X47455Y-23514D01*
X47427Y-23514D01*
X47389Y-23505D01*
X47370Y-23497D01*
X47351Y-23480D01*
X47341Y-23454D01*
X47341Y-23437D01*
X47351Y-23411D01*
X47360Y-23403D01*
X47360Y-23334D02*
X47351Y-23325D01*
X47341Y-23308D01*
X47341Y-23265D01*
X47351Y-23248D01*
X47360Y-23240D01*
X47379Y-23231D01*
X47398Y-23231D01*
X47427Y-23240D01*
X47541Y-23343D01*
X47541Y-23231D01*
X47427Y-23128D02*
X47417Y-23145D01*
X47408Y-23154D01*
X47389Y-23163D01*
X47379Y-23163D01*
X47360Y-23154D01*
X47351Y-23145D01*
X47341Y-23128D01*
X47341Y-23094D01*
X47351Y-23077D01*
X47360Y-23068D01*
X47379Y-23060D01*
X47389Y-23060D01*
X47408Y-23068D01*
X47417Y-23077D01*
X47427Y-23094D01*
X47427Y-23128D01*
X47436Y-23145D01*
X47446Y-23154D01*
X47465Y-23163D01*
X47503Y-23163D01*
X47522Y-23154D01*
X47532Y-23145D01*
X47541Y-23128D01*
X47541Y-23094D01*
X47532Y-23077D01*
X47522Y-23068D01*
X47503Y-23060D01*
X47465Y-23060D01*
X47446Y-23068D01*
X47436Y-23077D01*
X47427Y-23094D01*
X46498Y-23132D02*
X46489Y-23142D01*
X46464Y-23151D01*
X46447Y-23151D01*
X46421Y-23142D01*
X46404Y-23123D01*
X46395Y-23104D01*
X46387Y-23066D01*
X46387Y-23037D01*
X46395Y-22999D01*
X46404Y-22980D01*
X46421Y-22961D01*
X46447Y-22951D01*
X46464Y-22951D01*
X46489Y-22961D01*
X46498Y-22970D01*
X46558Y-22951D02*
X46669Y-22951D01*
X46609Y-23028D01*
X46635Y-23028D01*
X46652Y-23037D01*
X46661Y-23047D01*
X46669Y-23066D01*
X46669Y-23113D01*
X46661Y-23132D01*
X46652Y-23142D01*
X46635Y-23151D01*
X46584Y-23151D01*
X46567Y-23142D01*
X46558Y-23132D01*
X46738Y-22970D02*
X46747Y-22961D01*
X46764Y-22951D01*
X46807Y-22951D01*
X46824Y-22961D01*
X46832Y-22970D01*
X46841Y-22989D01*
X46841Y-23008D01*
X46832Y-23037D01*
X46729Y-23151D01*
X46841Y-23151D01*
X37187Y-36479D02*
X37178Y-36488D01*
X37153Y-36498D01*
X37136Y-36498D01*
X37110Y-36488D01*
X37093Y-36469D01*
X37084Y-36450D01*
X37076Y-36412D01*
X37076Y-36383D01*
X37084Y-36345D01*
X37093Y-36326D01*
X37110Y-36307D01*
X37136Y-36298D01*
X37153Y-36298D01*
X37178Y-36307D01*
X37187Y-36317D01*
X37247Y-36298D02*
X37367Y-36298D01*
X37290Y-36498D01*
X37530Y-36498D02*
X37427Y-36498D01*
X37478Y-36498D02*
X37478Y-36298D01*
X37461Y-36326D01*
X37444Y-36345D01*
X37427Y-36355D01*
X41321Y-24033D02*
X41331Y-24041D01*
X41340Y-24067D01*
X41340Y-24084D01*
X41331Y-24110D01*
X41312Y-24127D01*
X41293Y-24135D01*
X41255Y-24144D01*
X41226Y-24144D01*
X41188Y-24135D01*
X41169Y-24127D01*
X41150Y-24110D01*
X41140Y-24084D01*
X41140Y-24067D01*
X41150Y-24041D01*
X41159Y-24033D01*
X41159Y-23964D02*
X41150Y-23955D01*
X41140Y-23938D01*
X41140Y-23895D01*
X41150Y-23878D01*
X41159Y-23870D01*
X41178Y-23861D01*
X41197Y-23861D01*
X41226Y-23870D01*
X41340Y-23973D01*
X41340Y-23861D01*
X41340Y-23690D02*
X41340Y-23793D01*
X41340Y-23741D02*
X41140Y-23741D01*
X41169Y-23758D01*
X41188Y-23775D01*
X41197Y-23793D01*
X40868Y-25298D02*
X40859Y-25307D01*
X40834Y-25317D01*
X40817Y-25317D01*
X40791Y-25307D01*
X40774Y-25288D01*
X40765Y-25269D01*
X40757Y-25231D01*
X40757Y-25202D01*
X40765Y-25164D01*
X40774Y-25145D01*
X40791Y-25126D01*
X40817Y-25117D01*
X40834Y-25117D01*
X40859Y-25126D01*
X40868Y-25136D01*
X40937Y-25136D02*
X40945Y-25126D01*
X40962Y-25117D01*
X41005Y-25117D01*
X41022Y-25126D01*
X41031Y-25136D01*
X41039Y-25155D01*
X41039Y-25174D01*
X41031Y-25202D01*
X40928Y-25317D01*
X41039Y-25317D01*
X41108Y-25136D02*
X41117Y-25126D01*
X41134Y-25117D01*
X41177Y-25117D01*
X41194Y-25126D01*
X41202Y-25136D01*
X41211Y-25155D01*
X41211Y-25174D01*
X41202Y-25202D01*
X41099Y-25317D01*
X41211Y-25317D01*
X38447Y-26178D02*
X38457Y-26187D01*
X38466Y-26212D01*
X38466Y-26230D01*
X38457Y-26255D01*
X38438Y-26272D01*
X38419Y-26281D01*
X38381Y-26290D01*
X38352Y-26290D01*
X38314Y-26281D01*
X38295Y-26272D01*
X38276Y-26255D01*
X38266Y-26230D01*
X38266Y-26212D01*
X38276Y-26187D01*
X38285Y-26178D01*
X38285Y-26110D02*
X38276Y-26101D01*
X38266Y-26084D01*
X38266Y-26041D01*
X38276Y-26024D01*
X38285Y-26015D01*
X38304Y-26007D01*
X38323Y-26007D01*
X38352Y-26015D01*
X38466Y-26118D01*
X38466Y-26007D01*
X38266Y-25852D02*
X38266Y-25887D01*
X38276Y-25904D01*
X38285Y-25912D01*
X38314Y-25930D01*
X38352Y-25938D01*
X38428Y-25938D01*
X38447Y-25930D01*
X38457Y-25921D01*
X38466Y-25904D01*
X38466Y-25870D01*
X38457Y-25852D01*
X38447Y-25844D01*
X38428Y-25835D01*
X38381Y-25835D01*
X38362Y-25844D01*
X38352Y-25852D01*
X38342Y-25870D01*
X38342Y-25904D01*
X38352Y-25921D01*
X38362Y-25930D01*
X38381Y-25938D01*
X39687Y-25253D02*
X39697Y-25262D01*
X39706Y-25287D01*
X39706Y-25304D01*
X39697Y-25330D01*
X39678Y-25347D01*
X39659Y-25356D01*
X39621Y-25364D01*
X39592Y-25364D01*
X39554Y-25356D01*
X39535Y-25347D01*
X39516Y-25330D01*
X39506Y-25304D01*
X39506Y-25287D01*
X39516Y-25262D01*
X39525Y-25253D01*
X39506Y-25193D02*
X39506Y-25082D01*
X39583Y-25142D01*
X39583Y-25116D01*
X39592Y-25099D01*
X39602Y-25090D01*
X39621Y-25082D01*
X39668Y-25082D01*
X39687Y-25090D01*
X39697Y-25099D01*
X39706Y-25116D01*
X39706Y-25167D01*
X39697Y-25184D01*
X39687Y-25193D01*
X39506Y-24970D02*
X39506Y-24953D01*
X39516Y-24936D01*
X39525Y-24927D01*
X39545Y-24919D01*
X39583Y-24910D01*
X39630Y-24910D01*
X39668Y-24919D01*
X39687Y-24927D01*
X39697Y-24936D01*
X39706Y-24953D01*
X39706Y-24970D01*
X39697Y-24987D01*
X39687Y-24996D01*
X39668Y-25004D01*
X39630Y-25013D01*
X39583Y-25013D01*
X39545Y-25004D01*
X39525Y-24996D01*
X39516Y-24987D01*
X39506Y-24970D01*
X41735Y-28442D02*
X41744Y-28451D01*
X41754Y-28476D01*
X41754Y-28493D01*
X41744Y-28519D01*
X41725Y-28536D01*
X41706Y-28545D01*
X41668Y-28553D01*
X41639Y-28553D01*
X41601Y-28545D01*
X41582Y-28536D01*
X41563Y-28519D01*
X41554Y-28493D01*
X41554Y-28476D01*
X41563Y-28451D01*
X41573Y-28442D01*
X41573Y-28373D02*
X41563Y-28365D01*
X41554Y-28348D01*
X41554Y-28305D01*
X41563Y-28288D01*
X41573Y-28279D01*
X41592Y-28271D01*
X41611Y-28271D01*
X41639Y-28279D01*
X41754Y-28382D01*
X41754Y-28271D01*
X41554Y-28211D02*
X41554Y-28099D01*
X41630Y-28159D01*
X41630Y-28133D01*
X41639Y-28116D01*
X41649Y-28108D01*
X41668Y-28099D01*
X41716Y-28099D01*
X41735Y-28108D01*
X41744Y-28116D01*
X41754Y-28133D01*
X41754Y-28185D01*
X41744Y-28202D01*
X41735Y-28211D01*
X43998Y-29628D02*
X43989Y-29638D01*
X43964Y-29647D01*
X43947Y-29647D01*
X43921Y-29638D01*
X43904Y-29619D01*
X43895Y-29600D01*
X43887Y-29562D01*
X43887Y-29533D01*
X43895Y-29495D01*
X43904Y-29476D01*
X43921Y-29457D01*
X43947Y-29447D01*
X43964Y-29447D01*
X43989Y-29457D01*
X43998Y-29466D01*
X44067Y-29466D02*
X44075Y-29457D01*
X44092Y-29447D01*
X44135Y-29447D01*
X44152Y-29457D01*
X44161Y-29466D01*
X44169Y-29485D01*
X44169Y-29505D01*
X44161Y-29533D01*
X44058Y-29647D01*
X44169Y-29647D01*
X44229Y-29447D02*
X44349Y-29447D01*
X44272Y-29647D01*
X44215Y-28324D02*
X44224Y-28332D01*
X44234Y-28358D01*
X44234Y-28375D01*
X44224Y-28401D01*
X44205Y-28418D01*
X44186Y-28427D01*
X44148Y-28435D01*
X44120Y-28435D01*
X44082Y-28427D01*
X44063Y-28418D01*
X44044Y-28401D01*
X44034Y-28375D01*
X44034Y-28358D01*
X44044Y-28332D01*
X44053Y-28324D01*
X44034Y-28264D02*
X44034Y-28152D01*
X44110Y-28212D01*
X44110Y-28187D01*
X44120Y-28170D01*
X44129Y-28161D01*
X44148Y-28152D01*
X44196Y-28152D01*
X44215Y-28161D01*
X44224Y-28170D01*
X44234Y-28187D01*
X44234Y-28238D01*
X44224Y-28255D01*
X44215Y-28264D01*
X44234Y-27981D02*
X44234Y-28084D01*
X44234Y-28032D02*
X44034Y-28032D01*
X44063Y-28050D01*
X44082Y-28067D01*
X44091Y-28084D01*
X47187Y-27837D02*
X47178Y-27847D01*
X47153Y-27856D01*
X47136Y-27856D01*
X47110Y-27847D01*
X47093Y-27827D01*
X47084Y-27808D01*
X47076Y-27770D01*
X47076Y-27742D01*
X47084Y-27704D01*
X47093Y-27685D01*
X47110Y-27666D01*
X47136Y-27656D01*
X47153Y-27656D01*
X47178Y-27666D01*
X47187Y-27675D01*
X47247Y-27656D02*
X47358Y-27656D01*
X47298Y-27732D01*
X47324Y-27732D01*
X47341Y-27742D01*
X47350Y-27751D01*
X47358Y-27770D01*
X47358Y-27818D01*
X47350Y-27837D01*
X47341Y-27847D01*
X47324Y-27856D01*
X47273Y-27856D01*
X47256Y-27847D01*
X47247Y-27837D01*
X47418Y-27656D02*
X47530Y-27656D01*
X47470Y-27732D01*
X47496Y-27732D01*
X47513Y-27742D01*
X47521Y-27751D01*
X47530Y-27770D01*
X47530Y-27818D01*
X47521Y-27837D01*
X47513Y-27847D01*
X47496Y-27856D01*
X47444Y-27856D01*
X47427Y-27847D01*
X47418Y-27837D01*
X38526Y-27281D02*
X38535Y-27289D01*
X38545Y-27315D01*
X38545Y-27332D01*
X38535Y-27358D01*
X38516Y-27375D01*
X38497Y-27383D01*
X38459Y-27392D01*
X38431Y-27392D01*
X38393Y-27383D01*
X38374Y-27375D01*
X38355Y-27358D01*
X38345Y-27332D01*
X38345Y-27315D01*
X38355Y-27289D01*
X38364Y-27281D01*
X38345Y-27221D02*
X38345Y-27109D01*
X38421Y-27169D01*
X38421Y-27143D01*
X38431Y-27126D01*
X38440Y-27118D01*
X38459Y-27109D01*
X38507Y-27109D01*
X38526Y-27118D01*
X38535Y-27126D01*
X38545Y-27143D01*
X38545Y-27195D01*
X38535Y-27212D01*
X38526Y-27221D01*
X38412Y-26955D02*
X38545Y-26955D01*
X38335Y-26998D02*
X38478Y-27041D01*
X38478Y-26929D01*
X35317Y-37694D02*
X35327Y-37703D01*
X35336Y-37728D01*
X35336Y-37745D01*
X35327Y-37771D01*
X35308Y-37788D01*
X35289Y-37797D01*
X35251Y-37805D01*
X35222Y-37805D01*
X35184Y-37797D01*
X35165Y-37788D01*
X35146Y-37771D01*
X35136Y-37745D01*
X35136Y-37728D01*
X35146Y-37703D01*
X35155Y-37694D01*
X35136Y-37634D02*
X35136Y-37523D01*
X35213Y-37583D01*
X35213Y-37557D01*
X35222Y-37540D01*
X35232Y-37531D01*
X35251Y-37523D01*
X35298Y-37523D01*
X35317Y-37531D01*
X35327Y-37540D01*
X35336Y-37557D01*
X35336Y-37608D01*
X35327Y-37625D01*
X35317Y-37634D01*
X35136Y-37360D02*
X35136Y-37445D01*
X35232Y-37454D01*
X35222Y-37445D01*
X35213Y-37428D01*
X35213Y-37385D01*
X35222Y-37368D01*
X35232Y-37360D01*
X35251Y-37351D01*
X35298Y-37351D01*
X35317Y-37360D01*
X35327Y-37368D01*
X35336Y-37385D01*
X35336Y-37428D01*
X35327Y-37445D01*
X35317Y-37454D01*
X39274Y-27261D02*
X39284Y-27269D01*
X39293Y-27295D01*
X39293Y-27312D01*
X39284Y-27338D01*
X39264Y-27355D01*
X39245Y-27364D01*
X39207Y-27372D01*
X39179Y-27372D01*
X39141Y-27364D01*
X39122Y-27355D01*
X39103Y-27338D01*
X39093Y-27312D01*
X39093Y-27295D01*
X39103Y-27269D01*
X39112Y-27261D01*
X39093Y-27201D02*
X39093Y-27089D01*
X39169Y-27149D01*
X39169Y-27124D01*
X39179Y-27107D01*
X39188Y-27098D01*
X39207Y-27089D01*
X39255Y-27089D01*
X39274Y-27098D01*
X39284Y-27107D01*
X39293Y-27124D01*
X39293Y-27175D01*
X39284Y-27192D01*
X39274Y-27201D01*
X39093Y-27029D02*
X39093Y-26909D01*
X39293Y-26987D01*
X39225Y-53586D02*
X39234Y-53594D01*
X39244Y-53620D01*
X39244Y-53637D01*
X39234Y-53663D01*
X39215Y-53680D01*
X39196Y-53689D01*
X39158Y-53697D01*
X39130Y-53697D01*
X39091Y-53689D01*
X39072Y-53680D01*
X39053Y-53663D01*
X39044Y-53637D01*
X39044Y-53620D01*
X39053Y-53594D01*
X39063Y-53586D01*
X39044Y-53526D02*
X39044Y-53414D01*
X39120Y-53474D01*
X39120Y-53449D01*
X39130Y-53431D01*
X39139Y-53423D01*
X39158Y-53414D01*
X39206Y-53414D01*
X39225Y-53423D01*
X39234Y-53431D01*
X39244Y-53449D01*
X39244Y-53500D01*
X39234Y-53517D01*
X39225Y-53526D01*
X39244Y-53329D02*
X39244Y-53294D01*
X39234Y-53277D01*
X39225Y-53269D01*
X39196Y-53251D01*
X39158Y-53243D01*
X39082Y-53243D01*
X39063Y-53251D01*
X39053Y-53260D01*
X39044Y-53277D01*
X39044Y-53311D01*
X39053Y-53329D01*
X39063Y-53337D01*
X39082Y-53346D01*
X39130Y-53346D01*
X39149Y-53337D01*
X39158Y-53329D01*
X39168Y-53311D01*
X39168Y-53277D01*
X39158Y-53260D01*
X39149Y-53251D01*
X39130Y-53243D01*
X36975Y-54986D02*
X36984Y-54994D01*
X36994Y-55020D01*
X36994Y-55037D01*
X36984Y-55063D01*
X36965Y-55080D01*
X36946Y-55089D01*
X36908Y-55097D01*
X36880Y-55097D01*
X36841Y-55089D01*
X36822Y-55080D01*
X36803Y-55063D01*
X36794Y-55037D01*
X36794Y-55020D01*
X36803Y-54994D01*
X36813Y-54986D01*
X36861Y-54831D02*
X36994Y-54831D01*
X36784Y-54874D02*
X36927Y-54917D01*
X36927Y-54806D01*
X36794Y-54703D02*
X36794Y-54686D01*
X36803Y-54669D01*
X36813Y-54660D01*
X36832Y-54651D01*
X36870Y-54643D01*
X36918Y-54643D01*
X36956Y-54651D01*
X36975Y-54660D01*
X36984Y-54669D01*
X36994Y-54686D01*
X36994Y-54703D01*
X36984Y-54720D01*
X36975Y-54729D01*
X36956Y-54737D01*
X36918Y-54746D01*
X36870Y-54746D01*
X36832Y-54737D01*
X36813Y-54729D01*
X36803Y-54720D01*
X36794Y-54703D01*
X39235Y-55056D02*
X39244Y-55065D01*
X39254Y-55090D01*
X39254Y-55108D01*
X39244Y-55133D01*
X39225Y-55150D01*
X39206Y-55159D01*
X39168Y-55168D01*
X39139Y-55168D01*
X39101Y-55159D01*
X39082Y-55150D01*
X39063Y-55133D01*
X39054Y-55108D01*
X39054Y-55090D01*
X39063Y-55065D01*
X39073Y-55056D01*
X39120Y-54902D02*
X39254Y-54902D01*
X39044Y-54945D02*
X39187Y-54988D01*
X39187Y-54876D01*
X39254Y-54713D02*
X39254Y-54816D01*
X39254Y-54765D02*
X39054Y-54765D01*
X39082Y-54782D01*
X39101Y-54799D01*
X39111Y-54816D01*
X49668Y-30529D02*
X49677Y-30537D01*
X49687Y-30563D01*
X49687Y-30580D01*
X49677Y-30606D01*
X49658Y-30623D01*
X49639Y-30631D01*
X49601Y-30640D01*
X49572Y-30640D01*
X49534Y-30631D01*
X49515Y-30623D01*
X49496Y-30606D01*
X49487Y-30580D01*
X49487Y-30563D01*
X49496Y-30537D01*
X49506Y-30529D01*
X49487Y-30469D02*
X49487Y-30349D01*
X49687Y-30426D01*
X49487Y-30203D02*
X49487Y-30237D01*
X49496Y-30254D01*
X49506Y-30263D01*
X49534Y-30280D01*
X49572Y-30289D01*
X49649Y-30289D01*
X49668Y-30280D01*
X49677Y-30271D01*
X49687Y-30254D01*
X49687Y-30220D01*
X49677Y-30203D01*
X49668Y-30194D01*
X49649Y-30186D01*
X49601Y-30186D01*
X49582Y-30194D01*
X49572Y-30203D01*
X49563Y-30220D01*
X49563Y-30254D01*
X49572Y-30271D01*
X49582Y-30280D01*
X49601Y-30289D01*
X38113Y-50725D02*
X38122Y-50734D01*
X38132Y-50760D01*
X38132Y-50777D01*
X38122Y-50803D01*
X38103Y-50820D01*
X38084Y-50828D01*
X38046Y-50837D01*
X38017Y-50837D01*
X37979Y-50828D01*
X37960Y-50820D01*
X37941Y-50803D01*
X37932Y-50777D01*
X37932Y-50760D01*
X37941Y-50734D01*
X37951Y-50725D01*
X37951Y-50657D02*
X37941Y-50648D01*
X37932Y-50631D01*
X37932Y-50588D01*
X37941Y-50571D01*
X37951Y-50563D01*
X37970Y-50554D01*
X37989Y-50554D01*
X38017Y-50563D01*
X38132Y-50665D01*
X38132Y-50554D01*
X37932Y-50391D02*
X37932Y-50477D01*
X38027Y-50485D01*
X38017Y-50477D01*
X38008Y-50460D01*
X38008Y-50417D01*
X38017Y-50400D01*
X38027Y-50391D01*
X38046Y-50383D01*
X38094Y-50383D01*
X38113Y-50391D01*
X38122Y-50400D01*
X38132Y-50417D01*
X38132Y-50460D01*
X38122Y-50477D01*
X38113Y-50485D01*
X38683Y-50725D02*
X38693Y-50734D01*
X38702Y-50760D01*
X38702Y-50777D01*
X38693Y-50803D01*
X38674Y-50820D01*
X38655Y-50828D01*
X38617Y-50837D01*
X38588Y-50837D01*
X38550Y-50828D01*
X38531Y-50820D01*
X38512Y-50803D01*
X38502Y-50777D01*
X38502Y-50760D01*
X38512Y-50734D01*
X38522Y-50725D01*
X38522Y-50657D02*
X38512Y-50648D01*
X38502Y-50631D01*
X38502Y-50588D01*
X38512Y-50571D01*
X38522Y-50563D01*
X38541Y-50554D01*
X38560Y-50554D01*
X38588Y-50563D01*
X38702Y-50665D01*
X38702Y-50554D01*
X38702Y-50468D02*
X38702Y-50434D01*
X38693Y-50417D01*
X38683Y-50408D01*
X38655Y-50391D01*
X38617Y-50383D01*
X38541Y-50383D01*
X38522Y-50391D01*
X38512Y-50400D01*
X38502Y-50417D01*
X38502Y-50451D01*
X38512Y-50468D01*
X38522Y-50477D01*
X38541Y-50485D01*
X38588Y-50485D01*
X38607Y-50477D01*
X38617Y-50468D01*
X38626Y-50451D01*
X38626Y-50417D01*
X38617Y-50400D01*
X38607Y-50391D01*
X38588Y-50383D01*
X36557Y-50337D02*
X36548Y-50347D01*
X36523Y-50356D01*
X36506Y-50356D01*
X36480Y-50347D01*
X36463Y-50327D01*
X36454Y-50308D01*
X36446Y-50270D01*
X36446Y-50242D01*
X36454Y-50204D01*
X36463Y-50185D01*
X36480Y-50166D01*
X36506Y-50156D01*
X36523Y-50156D01*
X36548Y-50166D01*
X36557Y-50175D01*
X36711Y-50223D02*
X36711Y-50356D01*
X36668Y-50147D02*
X36626Y-50289D01*
X36737Y-50289D01*
X36797Y-50175D02*
X36806Y-50166D01*
X36823Y-50156D01*
X36866Y-50156D01*
X36883Y-50166D01*
X36891Y-50175D01*
X36900Y-50194D01*
X36900Y-50213D01*
X36891Y-50242D01*
X36788Y-50356D01*
X36900Y-50356D01*
X41026Y-28659D02*
X41035Y-28667D01*
X41045Y-28693D01*
X41045Y-28710D01*
X41035Y-28736D01*
X41016Y-28753D01*
X40997Y-28761D01*
X40959Y-28770D01*
X40931Y-28770D01*
X40893Y-28761D01*
X40874Y-28753D01*
X40855Y-28736D01*
X40845Y-28710D01*
X40845Y-28693D01*
X40855Y-28667D01*
X40864Y-28659D01*
X40845Y-28599D02*
X40845Y-28487D01*
X40921Y-28547D01*
X40921Y-28521D01*
X40931Y-28504D01*
X40940Y-28496D01*
X40959Y-28487D01*
X41007Y-28487D01*
X41026Y-28496D01*
X41035Y-28504D01*
X41045Y-28521D01*
X41045Y-28573D01*
X41035Y-28590D01*
X41026Y-28599D01*
X40845Y-28333D02*
X40845Y-28367D01*
X40855Y-28384D01*
X40864Y-28393D01*
X40893Y-28410D01*
X40931Y-28419D01*
X41007Y-28419D01*
X41026Y-28410D01*
X41035Y-28401D01*
X41045Y-28384D01*
X41045Y-28350D01*
X41035Y-28333D01*
X41026Y-28324D01*
X41007Y-28316D01*
X40959Y-28316D01*
X40940Y-28324D01*
X40931Y-28333D01*
X40921Y-28350D01*
X40921Y-28384D01*
X40931Y-28401D01*
X40940Y-28410D01*
X40959Y-28419D01*
G54D13*
X35439Y-47941D02*
X35439Y-48144D01*
X35451Y-48168D01*
X35463Y-48179D01*
X35487Y-48191D01*
X35534Y-48191D01*
X35558Y-48179D01*
X35570Y-48168D01*
X35582Y-48144D01*
X35582Y-47941D01*
X35808Y-47941D02*
X35760Y-47941D01*
X35737Y-47953D01*
X35725Y-47965D01*
X35701Y-48001D01*
X35689Y-48049D01*
X35689Y-48144D01*
X35701Y-48168D01*
X35713Y-48179D01*
X35737Y-48191D01*
X35784Y-48191D01*
X35808Y-48179D01*
X35820Y-48168D01*
X35832Y-48144D01*
X35832Y-48084D01*
X35820Y-48060D01*
X35808Y-48049D01*
X35784Y-48037D01*
X35737Y-48037D01*
X35713Y-48049D01*
X35701Y-48060D01*
X35689Y-48084D01*
X37329Y-54280D02*
X37329Y-54482D01*
X37341Y-54506D01*
X37352Y-54518D01*
X37376Y-54530D01*
X37424Y-54530D01*
X37448Y-54518D01*
X37460Y-54506D01*
X37471Y-54482D01*
X37471Y-54280D01*
X37567Y-54280D02*
X37733Y-54280D01*
X37626Y-54530D01*
G54D21*
X33741Y-45685D02*
X34064Y-45685D01*
X34102Y-45666D01*
X34121Y-45647D01*
X34141Y-45609D01*
X34141Y-45533D01*
X34121Y-45495D01*
X34102Y-45476D01*
X34064Y-45457D01*
X33741Y-45457D01*
X34141Y-45057D02*
X34141Y-45285D01*
X34141Y-45171D02*
X33741Y-45171D01*
X33798Y-45209D01*
X33836Y-45247D01*
X33855Y-45285D01*
G54D13*
X44757Y-27167D02*
X44757Y-27410D01*
X44771Y-27439D01*
X44785Y-27453D01*
X44814Y-27467D01*
X44871Y-27467D01*
X44900Y-27453D01*
X44914Y-27439D01*
X44928Y-27410D01*
X44928Y-27167D01*
X45214Y-27167D02*
X45071Y-27167D01*
X45057Y-27310D01*
X45071Y-27296D01*
X45100Y-27282D01*
X45171Y-27282D01*
X45200Y-27296D01*
X45214Y-27310D01*
X45228Y-27339D01*
X45228Y-27410D01*
X45214Y-27439D01*
X45200Y-27453D01*
X45171Y-27467D01*
X45100Y-27467D01*
X45071Y-27453D01*
X45057Y-27439D01*
G54D22*
X42385Y-42028D02*
X42320Y-41934D01*
X42273Y-42028D02*
X42273Y-41831D01*
X42348Y-41831D01*
X42367Y-41841D01*
X42376Y-41850D01*
X42385Y-41869D01*
X42385Y-41897D01*
X42376Y-41916D01*
X42367Y-41925D01*
X42348Y-41934D01*
X42273Y-41934D01*
X42460Y-41972D02*
X42554Y-41972D01*
X42442Y-42028D02*
X42507Y-41831D01*
X42573Y-42028D01*
X42742Y-42028D02*
X42629Y-42028D01*
X42685Y-42028D02*
X42685Y-41831D01*
X42667Y-41859D01*
X42648Y-41878D01*
X42629Y-41887D01*
X43685Y-31130D02*
X43620Y-31037D01*
X43573Y-31130D02*
X43573Y-30934D01*
X43648Y-30934D01*
X43667Y-30943D01*
X43676Y-30952D01*
X43685Y-30971D01*
X43685Y-30999D01*
X43676Y-31018D01*
X43667Y-31027D01*
X43648Y-31037D01*
X43573Y-31037D01*
X43760Y-31074D02*
X43854Y-31074D01*
X43742Y-31130D02*
X43807Y-30934D01*
X43873Y-31130D01*
X43929Y-30952D02*
X43939Y-30943D01*
X43957Y-30934D01*
X44004Y-30934D01*
X44023Y-30943D01*
X44032Y-30952D01*
X44042Y-30971D01*
X44042Y-30990D01*
X44032Y-31018D01*
X43920Y-31130D01*
X44042Y-31130D01*
X44164Y-30934D02*
X44182Y-30934D01*
X44201Y-30943D01*
X44210Y-30952D01*
X44220Y-30971D01*
X44229Y-31008D01*
X44229Y-31055D01*
X44220Y-31093D01*
X44210Y-31112D01*
X44201Y-31121D01*
X44182Y-31130D01*
X44164Y-31130D01*
X44145Y-31121D01*
X44135Y-31112D01*
X44126Y-31093D01*
X44117Y-31055D01*
X44117Y-31008D01*
X44126Y-30971D01*
X44135Y-30952D01*
X44145Y-30943D01*
X44164Y-30934D01*
X42840Y-31359D02*
X42774Y-31265D01*
X42727Y-31359D02*
X42727Y-31162D01*
X42802Y-31162D01*
X42821Y-31171D01*
X42830Y-31181D01*
X42840Y-31199D01*
X42840Y-31227D01*
X42830Y-31246D01*
X42821Y-31256D01*
X42802Y-31265D01*
X42727Y-31265D01*
X42915Y-31302D02*
X43008Y-31302D01*
X42896Y-31359D02*
X42962Y-31162D01*
X43027Y-31359D01*
X43196Y-31359D02*
X43083Y-31359D01*
X43140Y-31359D02*
X43140Y-31162D01*
X43121Y-31190D01*
X43102Y-31209D01*
X43083Y-31218D01*
X43290Y-31359D02*
X43327Y-31359D01*
X43346Y-31349D01*
X43355Y-31340D01*
X43374Y-31312D01*
X43383Y-31274D01*
X43383Y-31199D01*
X43374Y-31181D01*
X43365Y-31171D01*
X43346Y-31162D01*
X43308Y-31162D01*
X43290Y-31171D01*
X43280Y-31181D01*
X43271Y-31199D01*
X43271Y-31246D01*
X43280Y-31265D01*
X43290Y-31274D01*
X43308Y-31284D01*
X43346Y-31284D01*
X43365Y-31274D01*
X43374Y-31265D01*
X43383Y-31246D01*
X41985Y-31130D02*
X41920Y-31037D01*
X41873Y-31130D02*
X41873Y-30934D01*
X41948Y-30934D01*
X41967Y-30943D01*
X41976Y-30952D01*
X41985Y-30971D01*
X41985Y-30999D01*
X41976Y-31018D01*
X41967Y-31027D01*
X41948Y-31037D01*
X41873Y-31037D01*
X42060Y-31074D02*
X42154Y-31074D01*
X42042Y-31130D02*
X42107Y-30934D01*
X42173Y-31130D01*
X42342Y-31130D02*
X42229Y-31130D01*
X42285Y-31130D02*
X42285Y-30934D01*
X42267Y-30962D01*
X42248Y-30980D01*
X42229Y-30990D01*
X42454Y-31018D02*
X42435Y-31008D01*
X42426Y-30999D01*
X42417Y-30980D01*
X42417Y-30971D01*
X42426Y-30952D01*
X42435Y-30943D01*
X42454Y-30934D01*
X42492Y-30934D01*
X42510Y-30943D01*
X42520Y-30952D01*
X42529Y-30971D01*
X42529Y-30980D01*
X42520Y-30999D01*
X42510Y-31008D01*
X42492Y-31018D01*
X42454Y-31018D01*
X42435Y-31027D01*
X42426Y-31037D01*
X42417Y-31055D01*
X42417Y-31093D01*
X42426Y-31112D01*
X42435Y-31121D01*
X42454Y-31130D01*
X42492Y-31130D01*
X42510Y-31121D01*
X42520Y-31112D01*
X42529Y-31093D01*
X42529Y-31055D01*
X42520Y-31037D01*
X42510Y-31027D01*
X42492Y-31018D01*
X41135Y-31130D02*
X41070Y-31037D01*
X41023Y-31130D02*
X41023Y-30934D01*
X41098Y-30934D01*
X41117Y-30943D01*
X41126Y-30952D01*
X41135Y-30971D01*
X41135Y-30999D01*
X41126Y-31018D01*
X41117Y-31027D01*
X41098Y-31037D01*
X41023Y-31037D01*
X41210Y-31074D02*
X41304Y-31074D01*
X41192Y-31130D02*
X41257Y-30934D01*
X41323Y-31130D01*
X41492Y-31130D02*
X41379Y-31130D01*
X41435Y-31130D02*
X41435Y-30934D01*
X41417Y-30962D01*
X41398Y-30980D01*
X41379Y-30990D01*
X41557Y-30934D02*
X41688Y-30934D01*
X41604Y-31130D01*
X39585Y-31230D02*
X39520Y-31137D01*
X39473Y-31230D02*
X39473Y-31034D01*
X39548Y-31034D01*
X39567Y-31043D01*
X39576Y-31052D01*
X39585Y-31071D01*
X39585Y-31099D01*
X39576Y-31118D01*
X39567Y-31127D01*
X39548Y-31137D01*
X39473Y-31137D01*
X39660Y-31174D02*
X39754Y-31174D01*
X39642Y-31230D02*
X39707Y-31034D01*
X39773Y-31230D01*
X39942Y-31230D02*
X39829Y-31230D01*
X39885Y-31230D02*
X39885Y-31034D01*
X39867Y-31062D01*
X39848Y-31080D01*
X39829Y-31090D01*
X40120Y-31034D02*
X40026Y-31034D01*
X40017Y-31127D01*
X40026Y-31118D01*
X40045Y-31108D01*
X40092Y-31108D01*
X40110Y-31118D01*
X40120Y-31127D01*
X40129Y-31146D01*
X40129Y-31193D01*
X40120Y-31212D01*
X40110Y-31221D01*
X40092Y-31230D01*
X40045Y-31230D01*
X40026Y-31221D01*
X40017Y-31212D01*
X38635Y-31230D02*
X38570Y-31137D01*
X38523Y-31230D02*
X38523Y-31034D01*
X38598Y-31034D01*
X38617Y-31043D01*
X38626Y-31052D01*
X38635Y-31071D01*
X38635Y-31099D01*
X38626Y-31118D01*
X38617Y-31127D01*
X38598Y-31137D01*
X38523Y-31137D01*
X38710Y-31174D02*
X38804Y-31174D01*
X38692Y-31230D02*
X38757Y-31034D01*
X38823Y-31230D01*
X38992Y-31230D02*
X38879Y-31230D01*
X38935Y-31230D02*
X38935Y-31034D01*
X38917Y-31062D01*
X38898Y-31080D01*
X38879Y-31090D01*
X39160Y-31099D02*
X39160Y-31230D01*
X39114Y-31024D02*
X39067Y-31165D01*
X39188Y-31165D01*
X37735Y-31230D02*
X37670Y-31137D01*
X37623Y-31230D02*
X37623Y-31034D01*
X37698Y-31034D01*
X37717Y-31043D01*
X37726Y-31052D01*
X37735Y-31071D01*
X37735Y-31099D01*
X37726Y-31118D01*
X37717Y-31127D01*
X37698Y-31137D01*
X37623Y-31137D01*
X37810Y-31174D02*
X37904Y-31174D01*
X37792Y-31230D02*
X37857Y-31034D01*
X37923Y-31230D01*
X38092Y-31230D02*
X37979Y-31230D01*
X38035Y-31230D02*
X38035Y-31034D01*
X38017Y-31062D01*
X37998Y-31080D01*
X37979Y-31090D01*
X38157Y-31034D02*
X38279Y-31034D01*
X38214Y-31108D01*
X38242Y-31108D01*
X38260Y-31118D01*
X38270Y-31127D01*
X38279Y-31146D01*
X38279Y-31193D01*
X38270Y-31212D01*
X38260Y-31221D01*
X38242Y-31230D01*
X38185Y-31230D01*
X38167Y-31221D01*
X38157Y-31212D01*
X44535Y-31130D02*
X44470Y-31037D01*
X44423Y-31130D02*
X44423Y-30934D01*
X44498Y-30934D01*
X44517Y-30943D01*
X44526Y-30952D01*
X44535Y-30971D01*
X44535Y-30999D01*
X44526Y-31018D01*
X44517Y-31027D01*
X44498Y-31037D01*
X44423Y-31037D01*
X44610Y-31074D02*
X44704Y-31074D01*
X44592Y-31130D02*
X44657Y-30934D01*
X44723Y-31130D01*
X44892Y-31130D02*
X44779Y-31130D01*
X44835Y-31130D02*
X44835Y-30934D01*
X44817Y-30962D01*
X44798Y-30980D01*
X44779Y-30990D01*
X45079Y-31130D02*
X44967Y-31130D01*
X45023Y-31130D02*
X45023Y-30934D01*
X45004Y-30962D01*
X44985Y-30980D01*
X44967Y-30990D01*
X51255Y-39143D02*
X51190Y-39049D01*
X51143Y-39143D02*
X51143Y-38946D01*
X51218Y-38946D01*
X51237Y-38956D01*
X51246Y-38965D01*
X51255Y-38984D01*
X51255Y-39012D01*
X51246Y-39031D01*
X51237Y-39040D01*
X51218Y-39049D01*
X51143Y-39049D01*
X51330Y-39087D02*
X51424Y-39087D01*
X51312Y-39143D02*
X51377Y-38946D01*
X51443Y-39143D01*
X51518Y-39143D02*
X51555Y-39143D01*
X51574Y-39134D01*
X51584Y-39124D01*
X51602Y-39096D01*
X51612Y-39059D01*
X51612Y-38984D01*
X51602Y-38965D01*
X51593Y-38956D01*
X51574Y-38946D01*
X51537Y-38946D01*
X51518Y-38956D01*
X51509Y-38965D01*
X51499Y-38984D01*
X51499Y-39031D01*
X51509Y-39049D01*
X51518Y-39059D01*
X51537Y-39068D01*
X51574Y-39068D01*
X51593Y-39059D01*
X51602Y-39049D01*
X51612Y-39031D01*
X47735Y-41828D02*
X47670Y-41734D01*
X47623Y-41828D02*
X47623Y-41631D01*
X47698Y-41631D01*
X47717Y-41641D01*
X47726Y-41650D01*
X47735Y-41669D01*
X47735Y-41697D01*
X47726Y-41716D01*
X47717Y-41725D01*
X47698Y-41734D01*
X47623Y-41734D01*
X47810Y-41772D02*
X47904Y-41772D01*
X47792Y-41828D02*
X47857Y-41631D01*
X47923Y-41828D01*
X47979Y-41650D02*
X47989Y-41641D01*
X48007Y-41631D01*
X48054Y-41631D01*
X48073Y-41641D01*
X48082Y-41650D01*
X48092Y-41669D01*
X48092Y-41687D01*
X48082Y-41716D01*
X47970Y-41828D01*
X48092Y-41828D01*
X45035Y-41528D02*
X44970Y-41434D01*
X44923Y-41528D02*
X44923Y-41331D01*
X44998Y-41331D01*
X45017Y-41341D01*
X45026Y-41350D01*
X45035Y-41369D01*
X45035Y-41397D01*
X45026Y-41416D01*
X45017Y-41425D01*
X44998Y-41434D01*
X44923Y-41434D01*
X45110Y-41472D02*
X45204Y-41472D01*
X45092Y-41528D02*
X45157Y-41331D01*
X45223Y-41528D01*
X45373Y-41397D02*
X45373Y-41528D01*
X45326Y-41322D02*
X45279Y-41462D01*
X45401Y-41462D01*
X44235Y-42128D02*
X44170Y-42034D01*
X44123Y-42128D02*
X44123Y-41931D01*
X44198Y-41931D01*
X44217Y-41941D01*
X44226Y-41950D01*
X44235Y-41969D01*
X44235Y-41997D01*
X44226Y-42016D01*
X44217Y-42025D01*
X44198Y-42034D01*
X44123Y-42034D01*
X44310Y-42072D02*
X44404Y-42072D01*
X44292Y-42128D02*
X44357Y-41931D01*
X44423Y-42128D01*
X44470Y-41931D02*
X44592Y-41931D01*
X44526Y-42006D01*
X44554Y-42006D01*
X44573Y-42016D01*
X44582Y-42025D01*
X44592Y-42044D01*
X44592Y-42091D01*
X44582Y-42109D01*
X44573Y-42119D01*
X44554Y-42128D01*
X44498Y-42128D01*
X44479Y-42119D01*
X44470Y-42109D01*
X52010Y-38453D02*
X51945Y-38359D01*
X51898Y-38453D02*
X51898Y-38256D01*
X51973Y-38256D01*
X51992Y-38266D01*
X52001Y-38275D01*
X52010Y-38294D01*
X52010Y-38322D01*
X52001Y-38341D01*
X51992Y-38350D01*
X51973Y-38359D01*
X51898Y-38359D01*
X52085Y-38397D02*
X52179Y-38397D01*
X52067Y-38453D02*
X52132Y-38256D01*
X52198Y-38453D01*
X52357Y-38256D02*
X52264Y-38256D01*
X52254Y-38350D01*
X52264Y-38341D01*
X52282Y-38331D01*
X52329Y-38331D01*
X52348Y-38341D01*
X52357Y-38350D01*
X52367Y-38369D01*
X52367Y-38416D01*
X52357Y-38434D01*
X52348Y-38444D01*
X52329Y-38453D01*
X52282Y-38453D01*
X52264Y-38444D01*
X52254Y-38434D01*
X49843Y-39213D02*
X49777Y-39119D01*
X49730Y-39213D02*
X49730Y-39016D01*
X49805Y-39016D01*
X49824Y-39026D01*
X49834Y-39035D01*
X49843Y-39054D01*
X49843Y-39082D01*
X49834Y-39101D01*
X49824Y-39110D01*
X49805Y-39119D01*
X49730Y-39119D01*
X49918Y-39157D02*
X50012Y-39157D01*
X49899Y-39213D02*
X49965Y-39016D01*
X50030Y-39213D01*
X50077Y-39016D02*
X50209Y-39016D01*
X50124Y-39213D01*
X50525Y-39793D02*
X50460Y-39699D01*
X50413Y-39793D02*
X50413Y-39596D01*
X50488Y-39596D01*
X50507Y-39606D01*
X50516Y-39615D01*
X50525Y-39634D01*
X50525Y-39662D01*
X50516Y-39681D01*
X50507Y-39690D01*
X50488Y-39699D01*
X50413Y-39699D01*
X50600Y-39737D02*
X50694Y-39737D01*
X50582Y-39793D02*
X50647Y-39596D01*
X50713Y-39793D01*
X50863Y-39596D02*
X50825Y-39596D01*
X50807Y-39606D01*
X50797Y-39615D01*
X50779Y-39643D01*
X50769Y-39681D01*
X50769Y-39756D01*
X50779Y-39774D01*
X50788Y-39784D01*
X50807Y-39793D01*
X50844Y-39793D01*
X50863Y-39784D01*
X50872Y-39774D01*
X50882Y-39756D01*
X50882Y-39709D01*
X50872Y-39690D01*
X50863Y-39681D01*
X50844Y-39671D01*
X50807Y-39671D01*
X50788Y-39681D01*
X50779Y-39690D01*
X50769Y-39709D01*
X52785Y-39803D02*
X52720Y-39709D01*
X52673Y-39803D02*
X52673Y-39606D01*
X52748Y-39606D01*
X52767Y-39616D01*
X52776Y-39625D01*
X52785Y-39644D01*
X52785Y-39672D01*
X52776Y-39691D01*
X52767Y-39700D01*
X52748Y-39709D01*
X52673Y-39709D01*
X52860Y-39747D02*
X52954Y-39747D01*
X52842Y-39803D02*
X52907Y-39606D01*
X52973Y-39803D01*
X53067Y-39691D02*
X53048Y-39681D01*
X53039Y-39672D01*
X53029Y-39653D01*
X53029Y-39644D01*
X53039Y-39625D01*
X53048Y-39616D01*
X53067Y-39606D01*
X53104Y-39606D01*
X53123Y-39616D01*
X53132Y-39625D01*
X53142Y-39644D01*
X53142Y-39653D01*
X53132Y-39672D01*
X53123Y-39681D01*
X53104Y-39691D01*
X53067Y-39691D01*
X53048Y-39700D01*
X53039Y-39709D01*
X53029Y-39728D01*
X53029Y-39766D01*
X53039Y-39784D01*
X53048Y-39794D01*
X53067Y-39803D01*
X53104Y-39803D01*
X53123Y-39794D01*
X53132Y-39784D01*
X53142Y-39766D01*
X53142Y-39728D01*
X53132Y-39709D01*
X53123Y-39700D01*
X53104Y-39691D01*
X53217Y-38878D02*
X53151Y-38784D01*
X53104Y-38878D02*
X53104Y-38681D01*
X53179Y-38681D01*
X53198Y-38691D01*
X53207Y-38700D01*
X53217Y-38719D01*
X53217Y-38747D01*
X53207Y-38766D01*
X53198Y-38775D01*
X53179Y-38784D01*
X53104Y-38784D01*
X53292Y-38822D02*
X53385Y-38822D01*
X53273Y-38878D02*
X53339Y-38681D01*
X53404Y-38878D01*
X53573Y-38878D02*
X53460Y-38878D01*
X53517Y-38878D02*
X53517Y-38681D01*
X53498Y-38709D01*
X53479Y-38728D01*
X53460Y-38737D01*
X53695Y-38681D02*
X53714Y-38681D01*
X53732Y-38691D01*
X53742Y-38700D01*
X53751Y-38719D01*
X53760Y-38756D01*
X53760Y-38803D01*
X53751Y-38841D01*
X53742Y-38859D01*
X53732Y-38869D01*
X53714Y-38878D01*
X53695Y-38878D01*
X53676Y-38869D01*
X53667Y-38859D01*
X53657Y-38841D01*
X53648Y-38803D01*
X53648Y-38756D01*
X53657Y-38719D01*
X53667Y-38700D01*
X53676Y-38691D01*
X53695Y-38681D01*
G54D18*
X41399Y-22880D02*
X41399Y-23068D01*
X41005Y-23068D01*
X41137Y-22580D02*
X41399Y-22580D01*
X40987Y-22674D02*
X41268Y-22768D01*
X41268Y-22524D01*
X40249Y-25553D02*
X40061Y-25553D01*
X40061Y-25159D01*
X40361Y-25196D02*
X40380Y-25178D01*
X40418Y-25159D01*
X40511Y-25159D01*
X40549Y-25178D01*
X40568Y-25196D01*
X40586Y-25234D01*
X40586Y-25271D01*
X40568Y-25328D01*
X40343Y-25553D01*
X40586Y-25553D01*
X41990Y-28510D02*
X41990Y-28697D01*
X41596Y-28697D01*
X41596Y-28416D02*
X41596Y-28173D01*
X41746Y-28304D01*
X41746Y-28248D01*
X41765Y-28210D01*
X41783Y-28191D01*
X41821Y-28173D01*
X41915Y-28173D01*
X41952Y-28191D01*
X41971Y-28210D01*
X41990Y-28248D01*
X41990Y-28360D01*
X41971Y-28398D01*
X41952Y-28416D01*
X35682Y-54647D02*
X35494Y-54647D01*
X35494Y-54253D01*
X36001Y-54253D02*
X35813Y-54253D01*
X35794Y-54441D01*
X35813Y-54422D01*
X35851Y-54403D01*
X35944Y-54403D01*
X35982Y-54422D01*
X36001Y-54441D01*
X36019Y-54478D01*
X36019Y-54572D01*
X36001Y-54610D01*
X35982Y-54628D01*
X35944Y-54647D01*
X35851Y-54647D01*
X35813Y-54628D01*
X35794Y-54610D01*
X37237Y-48013D02*
X37050Y-48013D01*
X37050Y-47619D01*
X37574Y-48013D02*
X37350Y-48013D01*
X37462Y-48013D02*
X37462Y-47619D01*
X37425Y-47676D01*
X37387Y-47713D01*
X37350Y-47732D01*
G54D12*
X49423Y-41177D02*
X49366Y-41217D01*
X49423Y-41245D02*
X49303Y-41245D01*
X49303Y-41200D01*
X49309Y-41188D01*
X49315Y-41182D01*
X49326Y-41177D01*
X49343Y-41177D01*
X49355Y-41182D01*
X49360Y-41188D01*
X49366Y-41200D01*
X49366Y-41245D01*
X49423Y-41062D02*
X49423Y-41131D01*
X49423Y-41097D02*
X49303Y-41097D01*
X49320Y-41108D01*
X49332Y-41120D01*
X49337Y-41131D01*
X49303Y-41022D02*
X49303Y-40942D01*
X49423Y-40994D01*
X49823Y-41177D02*
X49766Y-41217D01*
X49823Y-41245D02*
X49703Y-41245D01*
X49703Y-41200D01*
X49709Y-41188D01*
X49715Y-41182D01*
X49726Y-41177D01*
X49743Y-41177D01*
X49755Y-41182D01*
X49760Y-41188D01*
X49766Y-41200D01*
X49766Y-41245D01*
X49823Y-41062D02*
X49823Y-41131D01*
X49823Y-41097D02*
X49703Y-41097D01*
X49720Y-41108D01*
X49732Y-41120D01*
X49737Y-41131D01*
X49755Y-40994D02*
X49749Y-41005D01*
X49743Y-41011D01*
X49732Y-41017D01*
X49726Y-41017D01*
X49715Y-41011D01*
X49709Y-41005D01*
X49703Y-40994D01*
X49703Y-40971D01*
X49709Y-40960D01*
X49715Y-40954D01*
X49726Y-40948D01*
X49732Y-40948D01*
X49743Y-40954D01*
X49749Y-40960D01*
X49755Y-40971D01*
X49755Y-40994D01*
X49760Y-41005D01*
X49766Y-41011D01*
X49777Y-41017D01*
X49800Y-41017D01*
X49812Y-41011D01*
X49817Y-41005D01*
X49823Y-40994D01*
X49823Y-40971D01*
X49817Y-40960D01*
X49812Y-40954D01*
X49800Y-40948D01*
X49777Y-40948D01*
X49766Y-40954D01*
X49760Y-40960D01*
X49755Y-40971D01*
X43948Y-42577D02*
X43891Y-42617D01*
X43948Y-42645D02*
X43828Y-42645D01*
X43828Y-42600D01*
X43834Y-42588D01*
X43840Y-42582D01*
X43851Y-42577D01*
X43868Y-42577D01*
X43880Y-42582D01*
X43885Y-42588D01*
X43891Y-42600D01*
X43891Y-42645D01*
X43948Y-42462D02*
X43948Y-42531D01*
X43948Y-42497D02*
X43828Y-42497D01*
X43845Y-42508D01*
X43857Y-42520D01*
X43862Y-42531D01*
X43948Y-42405D02*
X43948Y-42382D01*
X43942Y-42371D01*
X43937Y-42365D01*
X43920Y-42354D01*
X43897Y-42348D01*
X43851Y-42348D01*
X43840Y-42354D01*
X43834Y-42360D01*
X43828Y-42371D01*
X43828Y-42394D01*
X43834Y-42405D01*
X43840Y-42411D01*
X43851Y-42417D01*
X43880Y-42417D01*
X43891Y-42411D01*
X43897Y-42405D01*
X43902Y-42394D01*
X43902Y-42371D01*
X43897Y-42360D01*
X43891Y-42354D01*
X43880Y-42348D01*
X44298Y-42577D02*
X44241Y-42617D01*
X44298Y-42645D02*
X44178Y-42645D01*
X44178Y-42600D01*
X44184Y-42588D01*
X44190Y-42582D01*
X44201Y-42577D01*
X44218Y-42577D01*
X44230Y-42582D01*
X44235Y-42588D01*
X44241Y-42600D01*
X44241Y-42645D01*
X44190Y-42531D02*
X44184Y-42525D01*
X44178Y-42514D01*
X44178Y-42485D01*
X44184Y-42474D01*
X44190Y-42468D01*
X44201Y-42462D01*
X44212Y-42462D01*
X44230Y-42468D01*
X44298Y-42537D01*
X44298Y-42462D01*
X44178Y-42388D02*
X44178Y-42377D01*
X44184Y-42365D01*
X44190Y-42360D01*
X44201Y-42354D01*
X44224Y-42348D01*
X44252Y-42348D01*
X44275Y-42354D01*
X44287Y-42360D01*
X44292Y-42365D01*
X44298Y-42377D01*
X44298Y-42388D01*
X44292Y-42400D01*
X44287Y-42405D01*
X44275Y-42411D01*
X44252Y-42417D01*
X44224Y-42417D01*
X44201Y-42411D01*
X44190Y-42405D01*
X44184Y-42400D01*
X44178Y-42388D01*
X47098Y-42077D02*
X47041Y-42117D01*
X47098Y-42145D02*
X46978Y-42145D01*
X46978Y-42100D01*
X46984Y-42088D01*
X46990Y-42082D01*
X47001Y-42077D01*
X47018Y-42077D01*
X47030Y-42082D01*
X47035Y-42088D01*
X47041Y-42100D01*
X47041Y-42145D01*
X46990Y-42031D02*
X46984Y-42025D01*
X46978Y-42014D01*
X46978Y-41985D01*
X46984Y-41974D01*
X46990Y-41968D01*
X47001Y-41962D01*
X47012Y-41962D01*
X47030Y-41968D01*
X47098Y-42037D01*
X47098Y-41962D01*
X46990Y-41917D02*
X46984Y-41911D01*
X46978Y-41900D01*
X46978Y-41871D01*
X46984Y-41860D01*
X46990Y-41854D01*
X47001Y-41848D01*
X47012Y-41848D01*
X47030Y-41854D01*
X47098Y-41922D01*
X47098Y-41848D01*
X42998Y-42577D02*
X42941Y-42617D01*
X42998Y-42645D02*
X42878Y-42645D01*
X42878Y-42600D01*
X42884Y-42588D01*
X42890Y-42582D01*
X42901Y-42577D01*
X42918Y-42577D01*
X42930Y-42582D01*
X42935Y-42588D01*
X42941Y-42600D01*
X42941Y-42645D01*
X42918Y-42474D02*
X42998Y-42474D01*
X42872Y-42502D02*
X42958Y-42531D01*
X42958Y-42457D01*
X42890Y-42417D02*
X42884Y-42411D01*
X42878Y-42400D01*
X42878Y-42371D01*
X42884Y-42360D01*
X42890Y-42354D01*
X42901Y-42348D01*
X42912Y-42348D01*
X42930Y-42354D01*
X42998Y-42422D01*
X42998Y-42348D01*
X45698Y-42077D02*
X45641Y-42117D01*
X45698Y-42145D02*
X45578Y-42145D01*
X45578Y-42100D01*
X45584Y-42088D01*
X45590Y-42082D01*
X45601Y-42077D01*
X45618Y-42077D01*
X45630Y-42082D01*
X45635Y-42088D01*
X45641Y-42100D01*
X45641Y-42145D01*
X45618Y-41974D02*
X45698Y-41974D01*
X45572Y-42002D02*
X45658Y-42031D01*
X45658Y-41957D01*
X45578Y-41922D02*
X45578Y-41848D01*
X45624Y-41888D01*
X45624Y-41871D01*
X45630Y-41860D01*
X45635Y-41854D01*
X45647Y-41848D01*
X45675Y-41848D01*
X45687Y-41854D01*
X45692Y-41860D01*
X45698Y-41871D01*
X45698Y-41905D01*
X45692Y-41917D01*
X45687Y-41922D01*
X46698Y-42077D02*
X46641Y-42117D01*
X46698Y-42145D02*
X46578Y-42145D01*
X46578Y-42100D01*
X46584Y-42088D01*
X46590Y-42082D01*
X46601Y-42077D01*
X46618Y-42077D01*
X46630Y-42082D01*
X46635Y-42088D01*
X46641Y-42100D01*
X46641Y-42145D01*
X46590Y-42031D02*
X46584Y-42025D01*
X46578Y-42014D01*
X46578Y-41985D01*
X46584Y-41974D01*
X46590Y-41968D01*
X46601Y-41962D01*
X46612Y-41962D01*
X46630Y-41968D01*
X46698Y-42037D01*
X46698Y-41962D01*
X46698Y-41848D02*
X46698Y-41917D01*
X46698Y-41882D02*
X46578Y-41882D01*
X46595Y-41894D01*
X46607Y-41905D01*
X46612Y-41917D01*
X50053Y-46041D02*
X49996Y-46081D01*
X50053Y-46110D02*
X49933Y-46110D01*
X49933Y-46064D01*
X49939Y-46053D01*
X49944Y-46047D01*
X49956Y-46041D01*
X49973Y-46041D01*
X49984Y-46047D01*
X49990Y-46053D01*
X49996Y-46064D01*
X49996Y-46110D01*
X49933Y-45933D02*
X49933Y-45990D01*
X49990Y-45995D01*
X49984Y-45990D01*
X49979Y-45978D01*
X49979Y-45950D01*
X49984Y-45938D01*
X49990Y-45933D01*
X50001Y-45927D01*
X50030Y-45927D01*
X50041Y-45933D01*
X50047Y-45938D01*
X50053Y-45950D01*
X50053Y-45978D01*
X50047Y-45990D01*
X50041Y-45995D01*
X49933Y-45853D02*
X49933Y-45841D01*
X49939Y-45830D01*
X49944Y-45824D01*
X49956Y-45818D01*
X49979Y-45813D01*
X50007Y-45813D01*
X50030Y-45818D01*
X50041Y-45824D01*
X50047Y-45830D01*
X50053Y-45841D01*
X50053Y-45853D01*
X50047Y-45864D01*
X50041Y-45870D01*
X50030Y-45875D01*
X50007Y-45881D01*
X49979Y-45881D01*
X49956Y-45875D01*
X49944Y-45870D01*
X49939Y-45864D01*
X49933Y-45853D01*
X45622Y-41524D02*
X45614Y-41524D01*
X45598Y-41516D01*
X45590Y-41508D01*
X45582Y-41491D01*
X45582Y-41475D01*
X45586Y-41463D01*
X45598Y-41443D01*
X45610Y-41431D01*
X45630Y-41419D01*
X45642Y-41415D01*
X45658Y-41415D01*
X45674Y-41423D01*
X45683Y-41431D01*
X45691Y-41447D01*
X45691Y-41455D01*
X45776Y-41524D02*
X45735Y-41483D01*
X45691Y-41520D01*
X45699Y-41520D01*
X45711Y-41524D01*
X45731Y-41544D01*
X45735Y-41556D01*
X45735Y-41564D01*
X45731Y-41576D01*
X45711Y-41596D01*
X45699Y-41601D01*
X45691Y-41601D01*
X45679Y-41596D01*
X45658Y-41576D01*
X45654Y-41564D01*
X45654Y-41556D01*
X47912Y-40870D02*
X47917Y-40875D01*
X47923Y-40892D01*
X47923Y-40904D01*
X47917Y-40921D01*
X47906Y-40932D01*
X47895Y-40938D01*
X47872Y-40944D01*
X47855Y-40944D01*
X47832Y-40938D01*
X47820Y-40932D01*
X47809Y-40921D01*
X47803Y-40904D01*
X47803Y-40892D01*
X47809Y-40875D01*
X47815Y-40870D01*
X47803Y-40767D02*
X47803Y-40790D01*
X47809Y-40801D01*
X47815Y-40807D01*
X47832Y-40818D01*
X47855Y-40824D01*
X47900Y-40824D01*
X47912Y-40818D01*
X47917Y-40812D01*
X47923Y-40801D01*
X47923Y-40778D01*
X47917Y-40767D01*
X47912Y-40761D01*
X47900Y-40755D01*
X47872Y-40755D01*
X47860Y-40761D01*
X47855Y-40767D01*
X47849Y-40778D01*
X47849Y-40801D01*
X47855Y-40812D01*
X47860Y-40818D01*
X47872Y-40824D01*
X52622Y-33937D02*
X52617Y-33942D01*
X52600Y-33948D01*
X52588Y-33948D01*
X52571Y-33942D01*
X52560Y-33931D01*
X52554Y-33920D01*
X52548Y-33897D01*
X52548Y-33880D01*
X52554Y-33857D01*
X52560Y-33845D01*
X52571Y-33834D01*
X52588Y-33828D01*
X52600Y-33828D01*
X52617Y-33834D01*
X52622Y-33840D01*
X52662Y-33828D02*
X52742Y-33828D01*
X52691Y-33948D01*
X52805Y-33880D02*
X52794Y-33874D01*
X52788Y-33868D01*
X52782Y-33857D01*
X52782Y-33851D01*
X52788Y-33840D01*
X52794Y-33834D01*
X52805Y-33828D01*
X52828Y-33828D01*
X52840Y-33834D01*
X52845Y-33840D01*
X52851Y-33851D01*
X52851Y-33857D01*
X52845Y-33868D01*
X52840Y-33874D01*
X52828Y-33880D01*
X52805Y-33880D01*
X52794Y-33885D01*
X52788Y-33891D01*
X52782Y-33902D01*
X52782Y-33925D01*
X52788Y-33937D01*
X52794Y-33942D01*
X52805Y-33948D01*
X52828Y-33948D01*
X52840Y-33942D01*
X52845Y-33937D01*
X52851Y-33925D01*
X52851Y-33902D01*
X52845Y-33891D01*
X52840Y-33885D01*
X52828Y-33880D01*
X39371Y-35376D02*
X39365Y-35382D01*
X39348Y-35387D01*
X39337Y-35387D01*
X39320Y-35382D01*
X39308Y-35370D01*
X39303Y-35359D01*
X39297Y-35336D01*
X39297Y-35319D01*
X39303Y-35296D01*
X39308Y-35285D01*
X39320Y-35273D01*
X39337Y-35267D01*
X39348Y-35267D01*
X39365Y-35273D01*
X39371Y-35279D01*
X39474Y-35267D02*
X39451Y-35267D01*
X39440Y-35273D01*
X39434Y-35279D01*
X39423Y-35296D01*
X39417Y-35319D01*
X39417Y-35365D01*
X39423Y-35376D01*
X39428Y-35382D01*
X39440Y-35387D01*
X39463Y-35387D01*
X39474Y-35382D01*
X39480Y-35376D01*
X39485Y-35365D01*
X39485Y-35336D01*
X39480Y-35325D01*
X39474Y-35319D01*
X39463Y-35313D01*
X39440Y-35313D01*
X39428Y-35319D01*
X39423Y-35325D01*
X39417Y-35336D01*
X39588Y-35267D02*
X39565Y-35267D01*
X39554Y-35273D01*
X39548Y-35279D01*
X39537Y-35296D01*
X39531Y-35319D01*
X39531Y-35365D01*
X39537Y-35376D01*
X39543Y-35382D01*
X39554Y-35387D01*
X39577Y-35387D01*
X39588Y-35382D01*
X39594Y-35376D01*
X39600Y-35365D01*
X39600Y-35336D01*
X39594Y-35325D01*
X39588Y-35319D01*
X39577Y-35313D01*
X39554Y-35313D01*
X39543Y-35319D01*
X39537Y-35325D01*
X39531Y-35336D01*
X46931Y-41059D02*
X46923Y-41059D01*
X46907Y-41051D01*
X46898Y-41043D01*
X46890Y-41027D01*
X46890Y-41011D01*
X46894Y-40998D01*
X46907Y-40978D01*
X46919Y-40966D01*
X46939Y-40954D01*
X46951Y-40950D01*
X46967Y-40950D01*
X46983Y-40958D01*
X46991Y-40966D01*
X47000Y-40982D01*
X47000Y-40990D01*
X47084Y-41059D02*
X47044Y-41019D01*
X47000Y-41055D01*
X47008Y-41055D01*
X47020Y-41059D01*
X47040Y-41079D01*
X47044Y-41091D01*
X47044Y-41099D01*
X47040Y-41112D01*
X47020Y-41132D01*
X47008Y-41136D01*
X47000Y-41136D01*
X46987Y-41132D01*
X46967Y-41112D01*
X46963Y-41099D01*
X46963Y-41091D01*
X47044Y-41188D02*
X47060Y-41205D01*
X47072Y-41209D01*
X47080Y-41209D01*
X47101Y-41205D01*
X47121Y-41192D01*
X47153Y-41160D01*
X47157Y-41148D01*
X47157Y-41140D01*
X47153Y-41128D01*
X47137Y-41112D01*
X47125Y-41108D01*
X47117Y-41108D01*
X47105Y-41112D01*
X47084Y-41132D01*
X47080Y-41144D01*
X47080Y-41152D01*
X47084Y-41164D01*
X47101Y-41180D01*
X47113Y-41184D01*
X47121Y-41184D01*
X47133Y-41180D01*
X49863Y-34461D02*
X49858Y-34467D01*
X49840Y-34472D01*
X49829Y-34472D01*
X49812Y-34467D01*
X49800Y-34455D01*
X49795Y-34444D01*
X49789Y-34421D01*
X49789Y-34404D01*
X49795Y-34381D01*
X49800Y-34370D01*
X49812Y-34358D01*
X49829Y-34352D01*
X49840Y-34352D01*
X49858Y-34358D01*
X49863Y-34364D01*
X49966Y-34352D02*
X49943Y-34352D01*
X49932Y-34358D01*
X49926Y-34364D01*
X49915Y-34381D01*
X49909Y-34404D01*
X49909Y-34450D01*
X49915Y-34461D01*
X49920Y-34467D01*
X49932Y-34472D01*
X49955Y-34472D01*
X49966Y-34467D01*
X49972Y-34461D01*
X49978Y-34450D01*
X49978Y-34421D01*
X49972Y-34410D01*
X49966Y-34404D01*
X49955Y-34398D01*
X49932Y-34398D01*
X49920Y-34404D01*
X49915Y-34410D01*
X49909Y-34421D01*
X50052Y-34352D02*
X50063Y-34352D01*
X50075Y-34358D01*
X50080Y-34364D01*
X50086Y-34375D01*
X50092Y-34398D01*
X50092Y-34427D01*
X50086Y-34450D01*
X50080Y-34461D01*
X50075Y-34467D01*
X50063Y-34472D01*
X50052Y-34472D01*
X50040Y-34467D01*
X50035Y-34461D01*
X50029Y-34450D01*
X50023Y-34427D01*
X50023Y-34398D01*
X50029Y-34375D01*
X50035Y-34364D01*
X50040Y-34358D01*
X50052Y-34352D01*
X39529Y-36587D02*
X39523Y-36593D01*
X39506Y-36598D01*
X39494Y-36598D01*
X39477Y-36593D01*
X39466Y-36581D01*
X39460Y-36570D01*
X39454Y-36547D01*
X39454Y-36530D01*
X39460Y-36507D01*
X39466Y-36496D01*
X39477Y-36484D01*
X39494Y-36478D01*
X39506Y-36478D01*
X39523Y-36484D01*
X39529Y-36490D01*
X39637Y-36478D02*
X39580Y-36478D01*
X39574Y-36536D01*
X39580Y-36530D01*
X39592Y-36524D01*
X39620Y-36524D01*
X39632Y-36530D01*
X39637Y-36536D01*
X39643Y-36547D01*
X39643Y-36576D01*
X39637Y-36587D01*
X39632Y-36593D01*
X39620Y-36598D01*
X39592Y-36598D01*
X39580Y-36593D01*
X39574Y-36587D01*
X39712Y-36530D02*
X39700Y-36524D01*
X39694Y-36518D01*
X39689Y-36507D01*
X39689Y-36501D01*
X39694Y-36490D01*
X39700Y-36484D01*
X39712Y-36478D01*
X39734Y-36478D01*
X39746Y-36484D01*
X39752Y-36490D01*
X39757Y-36501D01*
X39757Y-36507D01*
X39752Y-36518D01*
X39746Y-36524D01*
X39734Y-36530D01*
X39712Y-36530D01*
X39700Y-36536D01*
X39694Y-36541D01*
X39689Y-36553D01*
X39689Y-36576D01*
X39694Y-36587D01*
X39700Y-36593D01*
X39712Y-36598D01*
X39734Y-36598D01*
X39746Y-36593D01*
X39752Y-36587D01*
X39757Y-36576D01*
X39757Y-36553D01*
X39752Y-36541D01*
X39746Y-36536D01*
X39734Y-36530D01*
X39540Y-33224D02*
X39532Y-33224D01*
X39516Y-33216D01*
X39508Y-33207D01*
X39500Y-33191D01*
X39500Y-33175D01*
X39504Y-33163D01*
X39516Y-33143D01*
X39528Y-33131D01*
X39548Y-33119D01*
X39560Y-33115D01*
X39577Y-33115D01*
X39593Y-33123D01*
X39601Y-33131D01*
X39609Y-33147D01*
X39609Y-33155D01*
X39690Y-33220D02*
X39674Y-33203D01*
X39661Y-33199D01*
X39653Y-33199D01*
X39633Y-33203D01*
X39613Y-33216D01*
X39581Y-33248D01*
X39577Y-33260D01*
X39577Y-33268D01*
X39581Y-33280D01*
X39597Y-33296D01*
X39609Y-33300D01*
X39617Y-33300D01*
X39629Y-33296D01*
X39649Y-33276D01*
X39653Y-33264D01*
X39653Y-33256D01*
X39649Y-33244D01*
X39633Y-33228D01*
X39621Y-33224D01*
X39613Y-33224D01*
X39601Y-33228D01*
X39694Y-33393D02*
X39645Y-33345D01*
X39670Y-33369D02*
X39754Y-33284D01*
X39734Y-33288D01*
X39718Y-33288D01*
X39706Y-33284D01*
X38152Y-35667D02*
X38157Y-35673D01*
X38163Y-35690D01*
X38163Y-35701D01*
X38157Y-35719D01*
X38146Y-35730D01*
X38134Y-35736D01*
X38112Y-35741D01*
X38094Y-35741D01*
X38072Y-35736D01*
X38060Y-35730D01*
X38049Y-35719D01*
X38043Y-35701D01*
X38043Y-35690D01*
X38049Y-35673D01*
X38054Y-35667D01*
X38043Y-35627D02*
X38043Y-35547D01*
X38163Y-35599D01*
X38043Y-35479D02*
X38043Y-35467D01*
X38049Y-35456D01*
X38054Y-35450D01*
X38066Y-35444D01*
X38089Y-35439D01*
X38117Y-35439D01*
X38140Y-35444D01*
X38152Y-35450D01*
X38157Y-35456D01*
X38163Y-35467D01*
X38163Y-35479D01*
X38157Y-35490D01*
X38152Y-35496D01*
X38140Y-35501D01*
X38117Y-35507D01*
X38089Y-35507D01*
X38066Y-35501D01*
X38054Y-35496D01*
X38049Y-35490D01*
X38043Y-35479D01*
X49863Y-33772D02*
X49858Y-33778D01*
X49840Y-33784D01*
X49829Y-33784D01*
X49812Y-33778D01*
X49800Y-33766D01*
X49795Y-33755D01*
X49789Y-33732D01*
X49789Y-33715D01*
X49795Y-33692D01*
X49800Y-33681D01*
X49812Y-33669D01*
X49829Y-33664D01*
X49840Y-33664D01*
X49858Y-33669D01*
X49863Y-33675D01*
X49972Y-33664D02*
X49915Y-33664D01*
X49909Y-33721D01*
X49915Y-33715D01*
X49926Y-33709D01*
X49955Y-33709D01*
X49966Y-33715D01*
X49972Y-33721D01*
X49978Y-33732D01*
X49978Y-33761D01*
X49972Y-33772D01*
X49966Y-33778D01*
X49955Y-33784D01*
X49926Y-33784D01*
X49915Y-33778D01*
X49909Y-33772D01*
X50080Y-33664D02*
X50058Y-33664D01*
X50046Y-33669D01*
X50040Y-33675D01*
X50029Y-33692D01*
X50023Y-33715D01*
X50023Y-33761D01*
X50029Y-33772D01*
X50035Y-33778D01*
X50046Y-33784D01*
X50069Y-33784D01*
X50080Y-33778D01*
X50086Y-33772D01*
X50092Y-33761D01*
X50092Y-33732D01*
X50086Y-33721D01*
X50080Y-33715D01*
X50069Y-33709D01*
X50046Y-33709D01*
X50035Y-33715D01*
X50029Y-33721D01*
X50023Y-33732D01*
X49863Y-34126D02*
X49858Y-34132D01*
X49840Y-34138D01*
X49829Y-34138D01*
X49812Y-34132D01*
X49800Y-34121D01*
X49795Y-34109D01*
X49789Y-34086D01*
X49789Y-34069D01*
X49795Y-34046D01*
X49800Y-34035D01*
X49812Y-34024D01*
X49829Y-34018D01*
X49840Y-34018D01*
X49858Y-34024D01*
X49863Y-34029D01*
X49966Y-34018D02*
X49943Y-34018D01*
X49932Y-34024D01*
X49926Y-34029D01*
X49915Y-34046D01*
X49909Y-34069D01*
X49909Y-34115D01*
X49915Y-34126D01*
X49920Y-34132D01*
X49932Y-34138D01*
X49955Y-34138D01*
X49966Y-34132D01*
X49972Y-34126D01*
X49978Y-34115D01*
X49978Y-34086D01*
X49972Y-34075D01*
X49966Y-34069D01*
X49955Y-34064D01*
X49932Y-34064D01*
X49920Y-34069D01*
X49915Y-34075D01*
X49909Y-34086D01*
X50046Y-34069D02*
X50035Y-34064D01*
X50029Y-34058D01*
X50023Y-34046D01*
X50023Y-34041D01*
X50029Y-34029D01*
X50035Y-34024D01*
X50046Y-34018D01*
X50069Y-34018D01*
X50080Y-34024D01*
X50086Y-34029D01*
X50092Y-34041D01*
X50092Y-34046D01*
X50086Y-34058D01*
X50080Y-34064D01*
X50069Y-34069D01*
X50046Y-34069D01*
X50035Y-34075D01*
X50029Y-34081D01*
X50023Y-34092D01*
X50023Y-34115D01*
X50029Y-34126D01*
X50035Y-34132D01*
X50046Y-34138D01*
X50069Y-34138D01*
X50080Y-34132D01*
X50086Y-34126D01*
X50092Y-34115D01*
X50092Y-34092D01*
X50086Y-34081D01*
X50080Y-34075D01*
X50069Y-34069D01*
X50513Y-33575D02*
X50507Y-33581D01*
X50490Y-33587D01*
X50479Y-33587D01*
X50461Y-33581D01*
X50450Y-33570D01*
X50444Y-33558D01*
X50439Y-33535D01*
X50439Y-33518D01*
X50444Y-33495D01*
X50450Y-33484D01*
X50461Y-33472D01*
X50479Y-33467D01*
X50490Y-33467D01*
X50507Y-33472D01*
X50513Y-33478D01*
X50616Y-33467D02*
X50593Y-33467D01*
X50581Y-33472D01*
X50576Y-33478D01*
X50564Y-33495D01*
X50559Y-33518D01*
X50559Y-33564D01*
X50564Y-33575D01*
X50570Y-33581D01*
X50581Y-33587D01*
X50604Y-33587D01*
X50616Y-33581D01*
X50621Y-33575D01*
X50627Y-33564D01*
X50627Y-33535D01*
X50621Y-33524D01*
X50616Y-33518D01*
X50604Y-33512D01*
X50581Y-33512D01*
X50570Y-33518D01*
X50564Y-33524D01*
X50559Y-33535D01*
X50684Y-33587D02*
X50707Y-33587D01*
X50719Y-33581D01*
X50724Y-33575D01*
X50736Y-33558D01*
X50741Y-33535D01*
X50741Y-33490D01*
X50736Y-33478D01*
X50730Y-33472D01*
X50719Y-33467D01*
X50696Y-33467D01*
X50684Y-33472D01*
X50679Y-33478D01*
X50673Y-33490D01*
X50673Y-33518D01*
X50679Y-33530D01*
X50684Y-33535D01*
X50696Y-33541D01*
X50719Y-33541D01*
X50730Y-33535D01*
X50736Y-33530D01*
X50741Y-33518D01*
X39547Y-37537D02*
X39542Y-37542D01*
X39525Y-37548D01*
X39513Y-37548D01*
X39496Y-37542D01*
X39485Y-37531D01*
X39479Y-37520D01*
X39473Y-37497D01*
X39473Y-37480D01*
X39479Y-37457D01*
X39485Y-37445D01*
X39496Y-37434D01*
X39513Y-37428D01*
X39525Y-37428D01*
X39542Y-37434D01*
X39547Y-37440D01*
X39656Y-37428D02*
X39599Y-37428D01*
X39593Y-37485D01*
X39599Y-37480D01*
X39610Y-37474D01*
X39639Y-37474D01*
X39650Y-37480D01*
X39656Y-37485D01*
X39662Y-37497D01*
X39662Y-37525D01*
X39656Y-37537D01*
X39650Y-37542D01*
X39639Y-37548D01*
X39610Y-37548D01*
X39599Y-37542D01*
X39593Y-37537D01*
X39707Y-37440D02*
X39713Y-37434D01*
X39725Y-37428D01*
X39753Y-37428D01*
X39765Y-37434D01*
X39770Y-37440D01*
X39776Y-37451D01*
X39776Y-37462D01*
X39770Y-37480D01*
X39702Y-37548D01*
X39776Y-37548D01*
X41137Y-40277D02*
X41142Y-40282D01*
X41148Y-40300D01*
X41148Y-40311D01*
X41142Y-40328D01*
X41131Y-40340D01*
X41120Y-40345D01*
X41097Y-40351D01*
X41080Y-40351D01*
X41057Y-40345D01*
X41045Y-40340D01*
X41034Y-40328D01*
X41028Y-40311D01*
X41028Y-40300D01*
X41034Y-40282D01*
X41040Y-40277D01*
X41068Y-40174D02*
X41148Y-40174D01*
X41022Y-40202D02*
X41108Y-40231D01*
X41108Y-40157D01*
X41068Y-40060D02*
X41148Y-40060D01*
X41022Y-40088D02*
X41108Y-40117D01*
X41108Y-40042D01*
X40387Y-40277D02*
X40392Y-40282D01*
X40398Y-40300D01*
X40398Y-40311D01*
X40392Y-40328D01*
X40381Y-40340D01*
X40370Y-40345D01*
X40347Y-40351D01*
X40330Y-40351D01*
X40307Y-40345D01*
X40295Y-40340D01*
X40284Y-40328D01*
X40278Y-40311D01*
X40278Y-40300D01*
X40284Y-40282D01*
X40290Y-40277D01*
X40318Y-40174D02*
X40398Y-40174D01*
X40272Y-40202D02*
X40358Y-40231D01*
X40358Y-40157D01*
X40278Y-40054D02*
X40278Y-40111D01*
X40335Y-40117D01*
X40330Y-40111D01*
X40324Y-40100D01*
X40324Y-40071D01*
X40330Y-40060D01*
X40335Y-40054D01*
X40347Y-40048D01*
X40375Y-40048D01*
X40387Y-40054D01*
X40392Y-40060D01*
X40398Y-40071D01*
X40398Y-40100D01*
X40392Y-40111D01*
X40387Y-40117D01*
X40537Y-40977D02*
X40542Y-40982D01*
X40548Y-41000D01*
X40548Y-41011D01*
X40542Y-41028D01*
X40531Y-41040D01*
X40520Y-41045D01*
X40497Y-41051D01*
X40480Y-41051D01*
X40457Y-41045D01*
X40445Y-41040D01*
X40434Y-41028D01*
X40428Y-41011D01*
X40428Y-41000D01*
X40434Y-40982D01*
X40440Y-40977D01*
X40468Y-40874D02*
X40548Y-40874D01*
X40422Y-40902D02*
X40508Y-40931D01*
X40508Y-40857D01*
X40428Y-40760D02*
X40428Y-40782D01*
X40434Y-40794D01*
X40440Y-40800D01*
X40457Y-40811D01*
X40480Y-40817D01*
X40525Y-40817D01*
X40537Y-40811D01*
X40542Y-40805D01*
X40548Y-40794D01*
X40548Y-40771D01*
X40542Y-40760D01*
X40537Y-40754D01*
X40525Y-40748D01*
X40497Y-40748D01*
X40485Y-40754D01*
X40480Y-40760D01*
X40474Y-40771D01*
X40474Y-40794D01*
X40480Y-40805D01*
X40485Y-40811D01*
X40497Y-40817D01*
X39509Y-36459D02*
X39503Y-36464D01*
X39486Y-36470D01*
X39475Y-36470D01*
X39458Y-36464D01*
X39446Y-36453D01*
X39440Y-36442D01*
X39435Y-36419D01*
X39435Y-36402D01*
X39440Y-36379D01*
X39446Y-36367D01*
X39458Y-36356D01*
X39475Y-36350D01*
X39486Y-36350D01*
X39503Y-36356D01*
X39509Y-36362D01*
X39612Y-36390D02*
X39612Y-36470D01*
X39583Y-36344D02*
X39555Y-36430D01*
X39629Y-36430D01*
X39692Y-36402D02*
X39680Y-36396D01*
X39675Y-36390D01*
X39669Y-36379D01*
X39669Y-36373D01*
X39675Y-36362D01*
X39680Y-36356D01*
X39692Y-36350D01*
X39715Y-36350D01*
X39726Y-36356D01*
X39732Y-36362D01*
X39738Y-36373D01*
X39738Y-36379D01*
X39732Y-36390D01*
X39726Y-36396D01*
X39715Y-36402D01*
X39692Y-36402D01*
X39680Y-36407D01*
X39675Y-36413D01*
X39669Y-36424D01*
X39669Y-36447D01*
X39675Y-36459D01*
X39680Y-36464D01*
X39692Y-36470D01*
X39715Y-36470D01*
X39726Y-36464D01*
X39732Y-36459D01*
X39738Y-36447D01*
X39738Y-36424D01*
X39732Y-36413D01*
X39726Y-36407D01*
X39715Y-36402D01*
X44462Y-40995D02*
X44467Y-41000D01*
X44473Y-41017D01*
X44473Y-41029D01*
X44467Y-41046D01*
X44456Y-41057D01*
X44445Y-41063D01*
X44422Y-41069D01*
X44405Y-41069D01*
X44382Y-41063D01*
X44370Y-41057D01*
X44359Y-41046D01*
X44353Y-41029D01*
X44353Y-41017D01*
X44359Y-41000D01*
X44365Y-40995D01*
X44393Y-40892D02*
X44473Y-40892D01*
X44347Y-40920D02*
X44433Y-40949D01*
X44433Y-40875D01*
X50172Y-38474D02*
X50164Y-38474D01*
X50148Y-38466D01*
X50140Y-38458D01*
X50132Y-38441D01*
X50132Y-38425D01*
X50136Y-38413D01*
X50148Y-38393D01*
X50160Y-38381D01*
X50180Y-38369D01*
X50192Y-38365D01*
X50208Y-38365D01*
X50224Y-38373D01*
X50233Y-38381D01*
X50241Y-38397D01*
X50241Y-38405D01*
X50277Y-38425D02*
X50334Y-38482D01*
X50212Y-38530D01*
X41209Y-40793D02*
X41209Y-40801D01*
X41201Y-40817D01*
X41193Y-40826D01*
X41177Y-40834D01*
X41161Y-40834D01*
X41148Y-40830D01*
X41128Y-40817D01*
X41116Y-40805D01*
X41104Y-40785D01*
X41100Y-40773D01*
X41100Y-40757D01*
X41108Y-40741D01*
X41116Y-40733D01*
X41132Y-40724D01*
X41140Y-40724D01*
X41205Y-40644D02*
X41189Y-40660D01*
X41185Y-40672D01*
X41185Y-40680D01*
X41189Y-40700D01*
X41201Y-40720D01*
X41233Y-40753D01*
X41245Y-40757D01*
X41254Y-40757D01*
X41266Y-40753D01*
X41282Y-40737D01*
X41286Y-40724D01*
X41286Y-40716D01*
X41282Y-40704D01*
X41262Y-40684D01*
X41249Y-40680D01*
X41241Y-40680D01*
X41229Y-40684D01*
X41213Y-40700D01*
X41209Y-40712D01*
X41209Y-40720D01*
X41213Y-40733D01*
X41241Y-40607D02*
X41298Y-40551D01*
X41346Y-40672D01*
X43337Y-41002D02*
X43342Y-41007D01*
X43348Y-41025D01*
X43348Y-41036D01*
X43342Y-41053D01*
X43331Y-41065D01*
X43320Y-41070D01*
X43297Y-41076D01*
X43280Y-41076D01*
X43257Y-41070D01*
X43245Y-41065D01*
X43234Y-41053D01*
X43228Y-41036D01*
X43228Y-41025D01*
X43234Y-41007D01*
X43240Y-41002D01*
X43228Y-40893D02*
X43228Y-40950D01*
X43285Y-40956D01*
X43280Y-40950D01*
X43274Y-40939D01*
X43274Y-40910D01*
X43280Y-40899D01*
X43285Y-40893D01*
X43297Y-40887D01*
X43325Y-40887D01*
X43337Y-40893D01*
X43342Y-40899D01*
X43348Y-40910D01*
X43348Y-40939D01*
X43342Y-40950D01*
X43337Y-40956D01*
X43228Y-40779D02*
X43228Y-40836D01*
X43285Y-40842D01*
X43280Y-40836D01*
X43274Y-40825D01*
X43274Y-40796D01*
X43280Y-40785D01*
X43285Y-40779D01*
X43297Y-40773D01*
X43325Y-40773D01*
X43337Y-40779D01*
X43342Y-40785D01*
X43348Y-40796D01*
X43348Y-40825D01*
X43342Y-40836D01*
X43337Y-40842D01*
X43562Y-41002D02*
X43567Y-41007D01*
X43573Y-41025D01*
X43573Y-41036D01*
X43567Y-41053D01*
X43556Y-41065D01*
X43545Y-41070D01*
X43522Y-41076D01*
X43505Y-41076D01*
X43482Y-41070D01*
X43470Y-41065D01*
X43459Y-41053D01*
X43453Y-41036D01*
X43453Y-41025D01*
X43459Y-41007D01*
X43465Y-41002D01*
X43493Y-40899D02*
X43573Y-40899D01*
X43447Y-40927D02*
X43533Y-40956D01*
X43533Y-40882D01*
X43453Y-40847D02*
X43453Y-40767D01*
X43573Y-40819D01*
G54D23*
X40874Y-46054D02*
X41157Y-46054D01*
X41191Y-46037D01*
X41207Y-46020D01*
X41224Y-45987D01*
X41224Y-45920D01*
X41207Y-45887D01*
X41191Y-45870D01*
X41157Y-45854D01*
X40874Y-45854D01*
X40874Y-45720D02*
X40874Y-45504D01*
X41007Y-45620D01*
X41007Y-45570D01*
X41024Y-45537D01*
X41041Y-45520D01*
X41074Y-45504D01*
X41157Y-45504D01*
X41191Y-45520D01*
X41207Y-45537D01*
X41224Y-45570D01*
X41224Y-45670D01*
X41207Y-45704D01*
X41191Y-45720D01*
G54D19*
G54D23*
X45598Y-46054D02*
X45882Y-46054D01*
X45915Y-46037D01*
X45932Y-46020D01*
X45948Y-45987D01*
X45948Y-45920D01*
X45932Y-45887D01*
X45915Y-45870D01*
X45882Y-45854D01*
X45598Y-45854D01*
X45715Y-45537D02*
X45948Y-45537D01*
X45582Y-45620D02*
X45832Y-45704D01*
X45832Y-45487D01*
G54D19*
G54D18*
X50286Y-22562D02*
X50286Y-22169D01*
X50436Y-22169D01*
X50473Y-22187D01*
X50492Y-22206D01*
X50511Y-22244D01*
X50511Y-22300D01*
X50492Y-22337D01*
X50473Y-22356D01*
X50436Y-22375D01*
X50286Y-22375D01*
X50886Y-22562D02*
X50661Y-22562D01*
X50773Y-22562D02*
X50773Y-22169D01*
X50736Y-22225D01*
X50698Y-22262D01*
X50661Y-22281D01*
X35929Y-25146D02*
X35535Y-25146D01*
X35535Y-24996D01*
X35554Y-24959D01*
X35572Y-24940D01*
X35610Y-24921D01*
X35666Y-24921D01*
X35704Y-24940D01*
X35722Y-24959D01*
X35741Y-24996D01*
X35741Y-25146D01*
X35572Y-24771D02*
X35554Y-24753D01*
X35535Y-24715D01*
X35535Y-24621D01*
X35554Y-24584D01*
X35572Y-24565D01*
X35610Y-24546D01*
X35647Y-24546D01*
X35704Y-24565D01*
X35929Y-24790D01*
X35929Y-24546D01*
X37754Y-20118D02*
X37754Y-19724D01*
X37904Y-19724D01*
X37942Y-19743D01*
X37960Y-19761D01*
X37979Y-19799D01*
X37979Y-19855D01*
X37960Y-19893D01*
X37942Y-19911D01*
X37904Y-19930D01*
X37754Y-19930D01*
X38110Y-19724D02*
X38354Y-19724D01*
X38223Y-19874D01*
X38279Y-19874D01*
X38317Y-19893D01*
X38335Y-19911D01*
X38354Y-19949D01*
X38354Y-20043D01*
X38335Y-20080D01*
X38317Y-20099D01*
X38279Y-20118D01*
X38167Y-20118D01*
X38129Y-20099D01*
X38110Y-20080D01*
X54098Y-27154D02*
X53704Y-27154D01*
X53704Y-27004D01*
X53723Y-26967D01*
X53742Y-26948D01*
X53779Y-26929D01*
X53835Y-26929D01*
X53873Y-26948D01*
X53892Y-26967D01*
X53910Y-27004D01*
X53910Y-27154D01*
X53835Y-26592D02*
X54098Y-26592D01*
X53685Y-26686D02*
X53967Y-26779D01*
X53967Y-26536D01*
X46691Y-54310D02*
X46691Y-53917D01*
X46841Y-53917D01*
X46879Y-53935D01*
X46897Y-53954D01*
X46916Y-53992D01*
X46916Y-54048D01*
X46897Y-54085D01*
X46879Y-54104D01*
X46841Y-54123D01*
X46691Y-54123D01*
X47272Y-53917D02*
X47085Y-53917D01*
X47066Y-54104D01*
X47085Y-54085D01*
X47122Y-54067D01*
X47216Y-54067D01*
X47254Y-54085D01*
X47272Y-54104D01*
X47291Y-54142D01*
X47291Y-54235D01*
X47272Y-54273D01*
X47254Y-54292D01*
X47216Y-54310D01*
X47122Y-54310D01*
X47085Y-54292D01*
X47066Y-54273D01*
M02*
