G04 (created by PCBNEW (2013-03-19 BZR 4004)-stable) date Пнд 01 Апр 2013 01:55:04*
%MOIN*%
G04 Gerber Fmt 3.4, Leading zero omitted, Abs format*
%FSLAX34Y34*%
G01*
G70*
G90*
G04 APERTURE LIST*
%ADD10C,0.005*%
%ADD11C,0.00590551*%
%ADD12C,0.00787402*%
%ADD13C,0.011811*%
G04 APERTURE END LIST*
G54D10*
G54D11*
X34200Y-29500D02*
X14500Y-29500D01*
X53800Y-47500D02*
X14500Y-47500D01*
X14500Y-47500D02*
X14500Y-29500D01*
X53800Y-29500D02*
X53800Y-47500D01*
X34200Y-29500D02*
X53806Y-29500D01*
G54D12*
X43603Y-35374D02*
X43721Y-35492D01*
X43721Y-35374D02*
X43603Y-35492D01*
X43603Y-36160D02*
X43721Y-36278D01*
X43721Y-36160D02*
X43603Y-36278D01*
X43918Y-35374D02*
X44036Y-35492D01*
X44036Y-35374D02*
X43918Y-35492D01*
X43918Y-36160D02*
X44036Y-36278D01*
X44036Y-36160D02*
X43918Y-36278D01*
X44233Y-34744D02*
X44351Y-34862D01*
X44351Y-34744D02*
X44233Y-34862D01*
X44233Y-35059D02*
X44351Y-35177D01*
X44351Y-35059D02*
X44233Y-35177D01*
X44233Y-36475D02*
X44351Y-36593D01*
X44351Y-36475D02*
X44233Y-36593D01*
X44233Y-36790D02*
X44351Y-36908D01*
X44351Y-36790D02*
X44233Y-36908D01*
X45019Y-34744D02*
X45137Y-34862D01*
X45137Y-34744D02*
X45019Y-34862D01*
X45019Y-35059D02*
X45137Y-35177D01*
X45137Y-35059D02*
X45019Y-35177D01*
X45019Y-36475D02*
X45137Y-36593D01*
X45137Y-36475D02*
X45019Y-36593D01*
X45019Y-36790D02*
X45137Y-36908D01*
X45137Y-36790D02*
X45019Y-36908D01*
X45334Y-35374D02*
X45452Y-35492D01*
X45452Y-35374D02*
X45334Y-35492D01*
X45334Y-36160D02*
X45452Y-36278D01*
X45452Y-36160D02*
X45334Y-36278D01*
X45649Y-35374D02*
X45767Y-35492D01*
X45767Y-35374D02*
X45649Y-35492D01*
X45649Y-36160D02*
X45767Y-36278D01*
X45767Y-36160D02*
X45649Y-36278D01*
X43834Y-41900D02*
G75*
G03X43834Y-41900I-59J0D01*
G74*
G01*
X43909Y-40500D02*
G75*
G03X43909Y-40500I-59J0D01*
G74*
G01*
X44034Y-39600D02*
G75*
G03X44034Y-39600I-59J0D01*
G74*
G01*
X44084Y-41900D02*
G75*
G03X44084Y-41900I-59J0D01*
G74*
G01*
X44459Y-41850D02*
G75*
G03X44459Y-41850I-59J0D01*
G74*
G01*
X44609Y-42050D02*
G75*
G03X44609Y-42050I-59J0D01*
G74*
G01*
X44859Y-42250D02*
G75*
G03X44859Y-42250I-59J0D01*
G74*
G01*
X45159Y-42450D02*
G75*
G03X45159Y-42450I-59J0D01*
G74*
G01*
X45884Y-47225D02*
G75*
G03X45884Y-47225I-59J0D01*
G74*
G01*
X45959Y-40775D02*
G75*
G03X45959Y-40775I-59J0D01*
G74*
G01*
X46134Y-41025D02*
G75*
G03X46134Y-41025I-59J0D01*
G74*
G01*
X46259Y-47475D02*
G75*
G03X46259Y-47475I-59J0D01*
G74*
G01*
X46484Y-46750D02*
G75*
G03X46484Y-46750I-59J0D01*
G74*
G01*
X46534Y-47825D02*
G75*
G03X46534Y-47825I-59J0D01*
G74*
G01*
X46809Y-45800D02*
G75*
G03X46809Y-45800I-59J0D01*
G74*
G01*
X46809Y-46125D02*
G75*
G03X46809Y-46125I-59J0D01*
G74*
G01*
X46809Y-46425D02*
G75*
G03X46809Y-46425I-59J0D01*
G74*
G01*
X46809Y-46750D02*
G75*
G03X46809Y-46750I-59J0D01*
G74*
G01*
X46984Y-47725D02*
G75*
G03X46984Y-47725I-59J0D01*
G74*
G01*
X47309Y-47500D02*
G75*
G03X47309Y-47500I-59J0D01*
G74*
G01*
X47459Y-40700D02*
G75*
G03X47459Y-40700I-59J0D01*
G74*
G01*
X47709Y-40800D02*
G75*
G03X47709Y-40800I-59J0D01*
G74*
G01*
X47909Y-40700D02*
G75*
G03X47909Y-40700I-59J0D01*
G74*
G01*
X48359Y-40200D02*
G75*
G03X48359Y-40200I-59J0D01*
G74*
G01*
X48359Y-45175D02*
G75*
G03X48359Y-45175I-59J0D01*
G74*
G01*
X48384Y-44550D02*
G75*
G03X48384Y-44550I-59J0D01*
G74*
G01*
X48384Y-44850D02*
G75*
G03X48384Y-44850I-59J0D01*
G74*
G01*
X48384Y-46100D02*
G75*
G03X48384Y-46100I-59J0D01*
G74*
G01*
X48384Y-46450D02*
G75*
G03X48384Y-46450I-59J0D01*
G74*
G01*
X48384Y-46725D02*
G75*
G03X48384Y-46725I-59J0D01*
G74*
G01*
X48384Y-47100D02*
G75*
G03X48384Y-47100I-59J0D01*
G74*
G01*
X48684Y-45475D02*
G75*
G03X48684Y-45475I-59J0D01*
G74*
G01*
X48684Y-45800D02*
G75*
G03X48684Y-45800I-59J0D01*
G74*
G01*
X48684Y-46425D02*
G75*
G03X48684Y-46425I-59J0D01*
G74*
G01*
X49084Y-44375D02*
G75*
G03X49084Y-44375I-59J0D01*
G74*
G01*
X49134Y-44725D02*
G75*
G03X49134Y-44725I-59J0D01*
G74*
G01*
X49234Y-46100D02*
G75*
G03X49234Y-46100I-59J0D01*
G74*
G01*
X49259Y-45850D02*
G75*
G03X49259Y-45850I-59J0D01*
G74*
G01*
X49259Y-46350D02*
G75*
G03X49259Y-46350I-59J0D01*
G74*
G01*
X49259Y-46625D02*
G75*
G03X49259Y-46625I-59J0D01*
G74*
G01*
X49334Y-45050D02*
G75*
G03X49334Y-45050I-59J0D01*
G74*
G01*
X49334Y-45650D02*
G75*
G03X49334Y-45650I-59J0D01*
G74*
G01*
X49359Y-45325D02*
G75*
G03X49359Y-45325I-59J0D01*
G74*
G01*
X49934Y-47125D02*
G75*
G03X49934Y-47125I-59J0D01*
G74*
G01*
X50084Y-44725D02*
G75*
G03X50084Y-44725I-59J0D01*
G74*
G01*
X44685Y-35472D02*
X44685Y-36180D01*
X44331Y-35826D02*
X45039Y-35826D01*
G54D13*
X15539Y-49306D02*
X15539Y-48125D01*
X15820Y-48125D01*
X15989Y-48181D01*
X16101Y-48294D01*
X16157Y-48406D01*
X16214Y-48631D01*
X16214Y-48800D01*
X16157Y-49025D01*
X16101Y-49138D01*
X15989Y-49250D01*
X15820Y-49306D01*
X15539Y-49306D01*
X16720Y-49306D02*
X16720Y-48519D01*
X16720Y-48744D02*
X16776Y-48631D01*
X16832Y-48575D01*
X16945Y-48519D01*
X17057Y-48519D01*
X17451Y-49306D02*
X17451Y-48519D01*
X17451Y-48125D02*
X17395Y-48181D01*
X17451Y-48238D01*
X17507Y-48181D01*
X17451Y-48125D01*
X17451Y-48238D01*
X18182Y-49306D02*
X18070Y-49250D01*
X18013Y-49138D01*
X18013Y-48125D01*
X18801Y-49306D02*
X18688Y-49250D01*
X18632Y-49138D01*
X18632Y-48125D01*
X20151Y-49306D02*
X20151Y-48125D01*
X20544Y-48969D01*
X20938Y-48125D01*
X20938Y-49306D01*
X22007Y-49306D02*
X22007Y-48688D01*
X21950Y-48575D01*
X21838Y-48519D01*
X21613Y-48519D01*
X21500Y-48575D01*
X22007Y-49250D02*
X21894Y-49306D01*
X21613Y-49306D01*
X21500Y-49250D01*
X21444Y-49138D01*
X21444Y-49025D01*
X21500Y-48913D01*
X21613Y-48856D01*
X21894Y-48856D01*
X22007Y-48800D01*
X22569Y-48519D02*
X22569Y-49700D01*
X22569Y-48575D02*
X22681Y-48519D01*
X22906Y-48519D01*
X23019Y-48575D01*
X23075Y-48631D01*
X23131Y-48744D01*
X23131Y-49081D01*
X23075Y-49194D01*
X23019Y-49250D01*
X22906Y-49306D01*
X22681Y-49306D01*
X22569Y-49250D01*
X23638Y-49194D02*
X23694Y-49250D01*
X23638Y-49306D01*
X23581Y-49250D01*
X23638Y-49194D01*
X23638Y-49306D01*
X23638Y-48575D02*
X23694Y-48631D01*
X23638Y-48688D01*
X23581Y-48631D01*
X23638Y-48575D01*
X23638Y-48688D01*
X14352Y-51250D02*
X14470Y-51368D01*
X14470Y-51250D02*
X14352Y-51368D01*
X15764Y-50606D02*
X15876Y-50606D01*
X15989Y-50662D01*
X16045Y-50718D01*
X16101Y-50830D01*
X16157Y-51055D01*
X16157Y-51337D01*
X16101Y-51562D01*
X16045Y-51674D01*
X15989Y-51730D01*
X15876Y-51787D01*
X15764Y-51787D01*
X15651Y-51730D01*
X15595Y-51674D01*
X15539Y-51562D01*
X15482Y-51337D01*
X15482Y-51055D01*
X15539Y-50830D01*
X15595Y-50718D01*
X15651Y-50662D01*
X15764Y-50606D01*
X16663Y-51674D02*
X16720Y-51730D01*
X16663Y-51787D01*
X16607Y-51730D01*
X16663Y-51674D01*
X16663Y-51787D01*
X17113Y-50606D02*
X17845Y-50606D01*
X17451Y-51055D01*
X17620Y-51055D01*
X17732Y-51112D01*
X17788Y-51168D01*
X17845Y-51280D01*
X17845Y-51562D01*
X17788Y-51674D01*
X17732Y-51730D01*
X17620Y-51787D01*
X17282Y-51787D01*
X17170Y-51730D01*
X17113Y-51674D01*
X18576Y-50606D02*
X18688Y-50606D01*
X18801Y-50662D01*
X18857Y-50718D01*
X18913Y-50830D01*
X18969Y-51055D01*
X18969Y-51337D01*
X18913Y-51562D01*
X18857Y-51674D01*
X18801Y-51730D01*
X18688Y-51787D01*
X18576Y-51787D01*
X18463Y-51730D01*
X18407Y-51674D01*
X18351Y-51562D01*
X18294Y-51337D01*
X18294Y-51055D01*
X18351Y-50830D01*
X18407Y-50718D01*
X18463Y-50662D01*
X18576Y-50606D01*
X19476Y-51787D02*
X19476Y-50999D01*
X19476Y-51112D02*
X19532Y-51055D01*
X19644Y-50999D01*
X19813Y-50999D01*
X19926Y-51055D01*
X19982Y-51168D01*
X19982Y-51787D01*
X19982Y-51168D02*
X20038Y-51055D01*
X20151Y-50999D01*
X20319Y-50999D01*
X20432Y-51055D01*
X20488Y-51168D01*
X20488Y-51787D01*
X21050Y-51787D02*
X21050Y-50999D01*
X21050Y-51112D02*
X21107Y-51055D01*
X21219Y-50999D01*
X21388Y-50999D01*
X21500Y-51055D01*
X21557Y-51168D01*
X21557Y-51787D01*
X21557Y-51168D02*
X21613Y-51055D01*
X21725Y-50999D01*
X21894Y-50999D01*
X22007Y-51055D01*
X22063Y-51168D01*
X22063Y-51787D01*
X24369Y-50549D02*
X23356Y-52068D01*
X25887Y-50606D02*
X26000Y-50606D01*
X26112Y-50662D01*
X26169Y-50718D01*
X26225Y-50830D01*
X26281Y-51055D01*
X26281Y-51337D01*
X26225Y-51562D01*
X26169Y-51674D01*
X26112Y-51730D01*
X26000Y-51787D01*
X25887Y-51787D01*
X25775Y-51730D01*
X25719Y-51674D01*
X25662Y-51562D01*
X25606Y-51337D01*
X25606Y-51055D01*
X25662Y-50830D01*
X25719Y-50718D01*
X25775Y-50662D01*
X25887Y-50606D01*
X26787Y-51674D02*
X26843Y-51730D01*
X26787Y-51787D01*
X26731Y-51730D01*
X26787Y-51674D01*
X26787Y-51787D01*
X27575Y-50606D02*
X27687Y-50606D01*
X27800Y-50662D01*
X27856Y-50718D01*
X27912Y-50830D01*
X27968Y-51055D01*
X27968Y-51337D01*
X27912Y-51562D01*
X27856Y-51674D01*
X27800Y-51730D01*
X27687Y-51787D01*
X27575Y-51787D01*
X27462Y-51730D01*
X27406Y-51674D01*
X27350Y-51562D01*
X27293Y-51337D01*
X27293Y-51055D01*
X27350Y-50830D01*
X27406Y-50718D01*
X27462Y-50662D01*
X27575Y-50606D01*
X29093Y-51787D02*
X28418Y-51787D01*
X28756Y-51787D02*
X28756Y-50606D01*
X28643Y-50774D01*
X28531Y-50887D01*
X28418Y-50943D01*
X29543Y-50718D02*
X29599Y-50662D01*
X29712Y-50606D01*
X29993Y-50606D01*
X30106Y-50662D01*
X30162Y-50718D01*
X30218Y-50830D01*
X30218Y-50943D01*
X30162Y-51112D01*
X29487Y-51787D01*
X30218Y-51787D01*
X30668Y-50606D02*
X30668Y-50830D01*
X31118Y-50606D02*
X31118Y-50830D01*
X32861Y-52237D02*
X32805Y-52180D01*
X32693Y-52012D01*
X32636Y-51899D01*
X32580Y-51730D01*
X32524Y-51449D01*
X32524Y-51224D01*
X32580Y-50943D01*
X32636Y-50774D01*
X32693Y-50662D01*
X32805Y-50493D01*
X32861Y-50437D01*
X33930Y-51787D02*
X33255Y-51787D01*
X33593Y-51787D02*
X33593Y-50606D01*
X33480Y-50774D01*
X33368Y-50887D01*
X33255Y-50943D01*
X34942Y-50606D02*
X34717Y-50606D01*
X34605Y-50662D01*
X34549Y-50718D01*
X34436Y-50887D01*
X34380Y-51112D01*
X34380Y-51562D01*
X34436Y-51674D01*
X34492Y-51730D01*
X34605Y-51787D01*
X34830Y-51787D01*
X34942Y-51730D01*
X34999Y-51674D01*
X35055Y-51562D01*
X35055Y-51280D01*
X34999Y-51168D01*
X34942Y-51112D01*
X34830Y-51055D01*
X34605Y-51055D01*
X34492Y-51112D01*
X34436Y-51168D01*
X34380Y-51280D01*
X36461Y-51787D02*
X36461Y-50606D01*
X36967Y-51787D02*
X36967Y-51168D01*
X36911Y-51055D01*
X36798Y-50999D01*
X36630Y-50999D01*
X36517Y-51055D01*
X36461Y-51112D01*
X37698Y-51787D02*
X37586Y-51730D01*
X37530Y-51674D01*
X37473Y-51562D01*
X37473Y-51224D01*
X37530Y-51112D01*
X37586Y-51055D01*
X37698Y-50999D01*
X37867Y-50999D01*
X37980Y-51055D01*
X38036Y-51112D01*
X38092Y-51224D01*
X38092Y-51562D01*
X38036Y-51674D01*
X37980Y-51730D01*
X37867Y-51787D01*
X37698Y-51787D01*
X38767Y-51787D02*
X38654Y-51730D01*
X38598Y-51618D01*
X38598Y-50606D01*
X39667Y-51730D02*
X39554Y-51787D01*
X39329Y-51787D01*
X39217Y-51730D01*
X39161Y-51618D01*
X39161Y-51168D01*
X39217Y-51055D01*
X39329Y-50999D01*
X39554Y-50999D01*
X39667Y-51055D01*
X39723Y-51168D01*
X39723Y-51280D01*
X39161Y-51393D01*
X40173Y-51730D02*
X40285Y-51787D01*
X40510Y-51787D01*
X40623Y-51730D01*
X40679Y-51618D01*
X40679Y-51562D01*
X40623Y-51449D01*
X40510Y-51393D01*
X40342Y-51393D01*
X40229Y-51337D01*
X40173Y-51224D01*
X40173Y-51168D01*
X40229Y-51055D01*
X40342Y-50999D01*
X40510Y-50999D01*
X40623Y-51055D01*
X41073Y-52237D02*
X41129Y-52180D01*
X41242Y-52012D01*
X41298Y-51899D01*
X41354Y-51730D01*
X41410Y-51449D01*
X41410Y-51224D01*
X41354Y-50943D01*
X41298Y-50774D01*
X41242Y-50662D01*
X41129Y-50493D01*
X41073Y-50437D01*
G54D12*
X14470Y-52868D02*
G75*
G03X14470Y-52868I-59J0D01*
G74*
G01*
G54D13*
X15764Y-52165D02*
X15876Y-52165D01*
X15989Y-52221D01*
X16045Y-52277D01*
X16101Y-52390D01*
X16157Y-52615D01*
X16157Y-52896D01*
X16101Y-53121D01*
X16045Y-53233D01*
X15989Y-53289D01*
X15876Y-53346D01*
X15764Y-53346D01*
X15651Y-53289D01*
X15595Y-53233D01*
X15539Y-53121D01*
X15482Y-52896D01*
X15482Y-52615D01*
X15539Y-52390D01*
X15595Y-52277D01*
X15651Y-52221D01*
X15764Y-52165D01*
X16663Y-53233D02*
X16720Y-53289D01*
X16663Y-53346D01*
X16607Y-53289D01*
X16663Y-53233D01*
X16663Y-53346D01*
X17113Y-52165D02*
X17845Y-52165D01*
X17451Y-52615D01*
X17620Y-52615D01*
X17732Y-52671D01*
X17788Y-52727D01*
X17845Y-52839D01*
X17845Y-53121D01*
X17788Y-53233D01*
X17732Y-53289D01*
X17620Y-53346D01*
X17282Y-53346D01*
X17170Y-53289D01*
X17113Y-53233D01*
X18576Y-52165D02*
X18688Y-52165D01*
X18801Y-52221D01*
X18857Y-52277D01*
X18913Y-52390D01*
X18969Y-52615D01*
X18969Y-52896D01*
X18913Y-53121D01*
X18857Y-53233D01*
X18801Y-53289D01*
X18688Y-53346D01*
X18576Y-53346D01*
X18463Y-53289D01*
X18407Y-53233D01*
X18351Y-53121D01*
X18294Y-52896D01*
X18294Y-52615D01*
X18351Y-52390D01*
X18407Y-52277D01*
X18463Y-52221D01*
X18576Y-52165D01*
X19476Y-53346D02*
X19476Y-52558D01*
X19476Y-52671D02*
X19532Y-52615D01*
X19644Y-52558D01*
X19813Y-52558D01*
X19926Y-52615D01*
X19982Y-52727D01*
X19982Y-53346D01*
X19982Y-52727D02*
X20038Y-52615D01*
X20151Y-52558D01*
X20319Y-52558D01*
X20432Y-52615D01*
X20488Y-52727D01*
X20488Y-53346D01*
X21050Y-53346D02*
X21050Y-52558D01*
X21050Y-52671D02*
X21107Y-52615D01*
X21219Y-52558D01*
X21388Y-52558D01*
X21500Y-52615D01*
X21557Y-52727D01*
X21557Y-53346D01*
X21557Y-52727D02*
X21613Y-52615D01*
X21725Y-52558D01*
X21894Y-52558D01*
X22007Y-52615D01*
X22063Y-52727D01*
X22063Y-53346D01*
X24369Y-52108D02*
X23356Y-53627D01*
X25887Y-52165D02*
X26000Y-52165D01*
X26112Y-52221D01*
X26169Y-52277D01*
X26225Y-52390D01*
X26281Y-52615D01*
X26281Y-52896D01*
X26225Y-53121D01*
X26169Y-53233D01*
X26112Y-53289D01*
X26000Y-53346D01*
X25887Y-53346D01*
X25775Y-53289D01*
X25719Y-53233D01*
X25662Y-53121D01*
X25606Y-52896D01*
X25606Y-52615D01*
X25662Y-52390D01*
X25719Y-52277D01*
X25775Y-52221D01*
X25887Y-52165D01*
X26787Y-53233D02*
X26843Y-53289D01*
X26787Y-53346D01*
X26731Y-53289D01*
X26787Y-53233D01*
X26787Y-53346D01*
X27575Y-52165D02*
X27687Y-52165D01*
X27800Y-52221D01*
X27856Y-52277D01*
X27912Y-52390D01*
X27968Y-52615D01*
X27968Y-52896D01*
X27912Y-53121D01*
X27856Y-53233D01*
X27800Y-53289D01*
X27687Y-53346D01*
X27575Y-53346D01*
X27462Y-53289D01*
X27406Y-53233D01*
X27350Y-53121D01*
X27293Y-52896D01*
X27293Y-52615D01*
X27350Y-52390D01*
X27406Y-52277D01*
X27462Y-52221D01*
X27575Y-52165D01*
X29093Y-53346D02*
X28418Y-53346D01*
X28756Y-53346D02*
X28756Y-52165D01*
X28643Y-52333D01*
X28531Y-52446D01*
X28418Y-52502D01*
X29543Y-52277D02*
X29599Y-52221D01*
X29712Y-52165D01*
X29993Y-52165D01*
X30106Y-52221D01*
X30162Y-52277D01*
X30218Y-52390D01*
X30218Y-52502D01*
X30162Y-52671D01*
X29487Y-53346D01*
X30218Y-53346D01*
X30668Y-52165D02*
X30668Y-52390D01*
X31118Y-52165D02*
X31118Y-52390D01*
X32861Y-53796D02*
X32805Y-53739D01*
X32693Y-53571D01*
X32636Y-53458D01*
X32580Y-53289D01*
X32524Y-53008D01*
X32524Y-52783D01*
X32580Y-52502D01*
X32636Y-52333D01*
X32693Y-52221D01*
X32805Y-52052D01*
X32861Y-51996D01*
X33818Y-52558D02*
X33818Y-53346D01*
X33536Y-52108D02*
X33255Y-52952D01*
X33986Y-52952D01*
X34999Y-52165D02*
X34436Y-52165D01*
X34380Y-52727D01*
X34436Y-52671D01*
X34549Y-52615D01*
X34830Y-52615D01*
X34942Y-52671D01*
X34999Y-52727D01*
X35055Y-52839D01*
X35055Y-53121D01*
X34999Y-53233D01*
X34942Y-53289D01*
X34830Y-53346D01*
X34549Y-53346D01*
X34436Y-53289D01*
X34380Y-53233D01*
X36461Y-53346D02*
X36461Y-52165D01*
X36967Y-53346D02*
X36967Y-52727D01*
X36911Y-52615D01*
X36798Y-52558D01*
X36630Y-52558D01*
X36517Y-52615D01*
X36461Y-52671D01*
X37698Y-53346D02*
X37586Y-53289D01*
X37530Y-53233D01*
X37473Y-53121D01*
X37473Y-52783D01*
X37530Y-52671D01*
X37586Y-52615D01*
X37698Y-52558D01*
X37867Y-52558D01*
X37980Y-52615D01*
X38036Y-52671D01*
X38092Y-52783D01*
X38092Y-53121D01*
X38036Y-53233D01*
X37980Y-53289D01*
X37867Y-53346D01*
X37698Y-53346D01*
X38767Y-53346D02*
X38654Y-53289D01*
X38598Y-53177D01*
X38598Y-52165D01*
X39667Y-53289D02*
X39554Y-53346D01*
X39329Y-53346D01*
X39217Y-53289D01*
X39161Y-53177D01*
X39161Y-52727D01*
X39217Y-52615D01*
X39329Y-52558D01*
X39554Y-52558D01*
X39667Y-52615D01*
X39723Y-52727D01*
X39723Y-52839D01*
X39161Y-52952D01*
X40173Y-53289D02*
X40285Y-53346D01*
X40510Y-53346D01*
X40623Y-53289D01*
X40679Y-53177D01*
X40679Y-53121D01*
X40623Y-53008D01*
X40510Y-52952D01*
X40342Y-52952D01*
X40229Y-52896D01*
X40173Y-52783D01*
X40173Y-52727D01*
X40229Y-52615D01*
X40342Y-52558D01*
X40510Y-52558D01*
X40623Y-52615D01*
X41073Y-53796D02*
X41129Y-53739D01*
X41242Y-53571D01*
X41298Y-53458D01*
X41354Y-53289D01*
X41410Y-53008D01*
X41410Y-52783D01*
X41354Y-52502D01*
X41298Y-52333D01*
X41242Y-52221D01*
X41129Y-52052D01*
X41073Y-51996D01*
X14116Y-54073D02*
X14116Y-54781D01*
X13762Y-54427D02*
X14470Y-54427D01*
X16157Y-54905D02*
X15482Y-54905D01*
X15820Y-54905D02*
X15820Y-53724D01*
X15707Y-53892D01*
X15595Y-54005D01*
X15482Y-54061D01*
X16663Y-54792D02*
X16720Y-54848D01*
X16663Y-54905D01*
X16607Y-54848D01*
X16663Y-54792D01*
X16663Y-54905D01*
X17395Y-54230D02*
X17282Y-54174D01*
X17226Y-54117D01*
X17170Y-54005D01*
X17170Y-53949D01*
X17226Y-53836D01*
X17282Y-53780D01*
X17395Y-53724D01*
X17620Y-53724D01*
X17732Y-53780D01*
X17788Y-53836D01*
X17845Y-53949D01*
X17845Y-54005D01*
X17788Y-54117D01*
X17732Y-54174D01*
X17620Y-54230D01*
X17395Y-54230D01*
X17282Y-54286D01*
X17226Y-54342D01*
X17170Y-54455D01*
X17170Y-54680D01*
X17226Y-54792D01*
X17282Y-54848D01*
X17395Y-54905D01*
X17620Y-54905D01*
X17732Y-54848D01*
X17788Y-54792D01*
X17845Y-54680D01*
X17845Y-54455D01*
X17788Y-54342D01*
X17732Y-54286D01*
X17620Y-54230D01*
X18576Y-53724D02*
X18688Y-53724D01*
X18801Y-53780D01*
X18857Y-53836D01*
X18913Y-53949D01*
X18969Y-54174D01*
X18969Y-54455D01*
X18913Y-54680D01*
X18857Y-54792D01*
X18801Y-54848D01*
X18688Y-54905D01*
X18576Y-54905D01*
X18463Y-54848D01*
X18407Y-54792D01*
X18351Y-54680D01*
X18294Y-54455D01*
X18294Y-54174D01*
X18351Y-53949D01*
X18407Y-53836D01*
X18463Y-53780D01*
X18576Y-53724D01*
X19476Y-54905D02*
X19476Y-54117D01*
X19476Y-54230D02*
X19532Y-54174D01*
X19644Y-54117D01*
X19813Y-54117D01*
X19926Y-54174D01*
X19982Y-54286D01*
X19982Y-54905D01*
X19982Y-54286D02*
X20038Y-54174D01*
X20151Y-54117D01*
X20319Y-54117D01*
X20432Y-54174D01*
X20488Y-54286D01*
X20488Y-54905D01*
X21050Y-54905D02*
X21050Y-54117D01*
X21050Y-54230D02*
X21107Y-54174D01*
X21219Y-54117D01*
X21388Y-54117D01*
X21500Y-54174D01*
X21557Y-54286D01*
X21557Y-54905D01*
X21557Y-54286D02*
X21613Y-54174D01*
X21725Y-54117D01*
X21894Y-54117D01*
X22007Y-54174D01*
X22063Y-54286D01*
X22063Y-54905D01*
X24369Y-53667D02*
X23356Y-55186D01*
X25887Y-53724D02*
X26000Y-53724D01*
X26112Y-53780D01*
X26169Y-53836D01*
X26225Y-53949D01*
X26281Y-54174D01*
X26281Y-54455D01*
X26225Y-54680D01*
X26169Y-54792D01*
X26112Y-54848D01*
X26000Y-54905D01*
X25887Y-54905D01*
X25775Y-54848D01*
X25719Y-54792D01*
X25662Y-54680D01*
X25606Y-54455D01*
X25606Y-54174D01*
X25662Y-53949D01*
X25719Y-53836D01*
X25775Y-53780D01*
X25887Y-53724D01*
X26787Y-54792D02*
X26843Y-54848D01*
X26787Y-54905D01*
X26731Y-54848D01*
X26787Y-54792D01*
X26787Y-54905D01*
X27575Y-53724D02*
X27687Y-53724D01*
X27800Y-53780D01*
X27856Y-53836D01*
X27912Y-53949D01*
X27968Y-54174D01*
X27968Y-54455D01*
X27912Y-54680D01*
X27856Y-54792D01*
X27800Y-54848D01*
X27687Y-54905D01*
X27575Y-54905D01*
X27462Y-54848D01*
X27406Y-54792D01*
X27350Y-54680D01*
X27293Y-54455D01*
X27293Y-54174D01*
X27350Y-53949D01*
X27406Y-53836D01*
X27462Y-53780D01*
X27575Y-53724D01*
X28362Y-53724D02*
X29149Y-53724D01*
X28643Y-54905D01*
X30218Y-54905D02*
X29543Y-54905D01*
X29881Y-54905D02*
X29881Y-53724D01*
X29768Y-53892D01*
X29656Y-54005D01*
X29543Y-54061D01*
X30668Y-53724D02*
X30668Y-53949D01*
X31118Y-53724D02*
X31118Y-53949D01*
X32861Y-55355D02*
X32805Y-55298D01*
X32693Y-55130D01*
X32636Y-55017D01*
X32580Y-54848D01*
X32524Y-54567D01*
X32524Y-54342D01*
X32580Y-54061D01*
X32636Y-53892D01*
X32693Y-53780D01*
X32805Y-53611D01*
X32861Y-53555D01*
X33930Y-54905D02*
X33255Y-54905D01*
X33593Y-54905D02*
X33593Y-53724D01*
X33480Y-53892D01*
X33368Y-54005D01*
X33255Y-54061D01*
X35336Y-54905D02*
X35336Y-53724D01*
X35842Y-54905D02*
X35842Y-54286D01*
X35786Y-54174D01*
X35674Y-54117D01*
X35505Y-54117D01*
X35392Y-54174D01*
X35336Y-54230D01*
X36573Y-54905D02*
X36461Y-54848D01*
X36405Y-54792D01*
X36348Y-54680D01*
X36348Y-54342D01*
X36405Y-54230D01*
X36461Y-54174D01*
X36573Y-54117D01*
X36742Y-54117D01*
X36855Y-54174D01*
X36911Y-54230D01*
X36967Y-54342D01*
X36967Y-54680D01*
X36911Y-54792D01*
X36855Y-54848D01*
X36742Y-54905D01*
X36573Y-54905D01*
X37642Y-54905D02*
X37530Y-54848D01*
X37473Y-54736D01*
X37473Y-53724D01*
X38542Y-54848D02*
X38429Y-54905D01*
X38205Y-54905D01*
X38092Y-54848D01*
X38036Y-54736D01*
X38036Y-54286D01*
X38092Y-54174D01*
X38205Y-54117D01*
X38429Y-54117D01*
X38542Y-54174D01*
X38598Y-54286D01*
X38598Y-54399D01*
X38036Y-54511D01*
X38992Y-55355D02*
X39048Y-55298D01*
X39161Y-55130D01*
X39217Y-55017D01*
X39273Y-54848D01*
X39329Y-54567D01*
X39329Y-54342D01*
X39273Y-54061D01*
X39217Y-53892D01*
X39161Y-53780D01*
X39048Y-53611D01*
X38992Y-53555D01*
M02*
